
<svg xmlns="http://www.w3.org/2000/svg" version="1.1" xmlns:xlink="http://www.w3.org/1999/xlink" preserveAspectRatio="none" x="0px" y="0px" width="300px" height="300px" viewBox="0 0 300 300">
<defs>
<g id="charles_0_Layer1_0_FILL">
<path fill="#000033" stroke="none" d="
M 219 43.8
Q 215.55 35.85 212.25 30.9 207.35 23.45 200.15 17.4 193.25 11.6 184.85 7.55 172.05 1.45 157.35 0.25 142.95 -0.9 128.95 2.8 115.25 6.45 102.95 14.45 90.9 22.3 81.6 33.4 77.05 38.8 74.85 43.8 74.35 45 73.95 46.15 73.55 45.9 73.05 45.75 68.8 44.25 64.4 43.8 60.6 43.4 56.7 43.8 54.7 44 52.7 44.4 42.05 46.55 34.5 53.55 26.85 60.6 24 71.05 21.15 81.5 24.2 91.35 20.3 91.7 16.6 93.75 13.85 95.2 11.5 97.45 10.9 98 10.3 98.65 5.35 104 2.5 112.6 -0.2 120.75 0 128.65 0.25 137.35 4 144.1 6.7 149 11.5 153.2 12.75 154.25 14.15 155.3 18.35 158.45 22.25 159.3 22.2 159.35 22.2 159.45 22 160.85 22.45 162.45 23 164.6 24.55 166.9 25.4 168.25 27.5 170.85 30.6 174.85 32.8 176.55 34.85 178.2 37.85 179.55 39.65 180.35 43.4 181.7 46.65 182.85 48.2 183.25 50.95 184 53.1 184.1 53.05 184.45 53 184.85 51.45 196.1 55.25 209.3 58.1 219.2 64.85 232.55 67.75 238.45 70.9 243.85 74 249.25 76.75 252.05 80.9 256.2 87.05 258 92.85 259.7 98.95 258.8 110.3 257.1 119.8 247.6 123.35 244 126.6 239.2 127.05 240.4 127.9 241.35 129.1 242.75 131.15 243.75 132.6 244.4 135.1 245.05 140.75 246.55 149.05 247.6 157.95 248.7 175.85 249.8 184.8 250.4 189.7 250.65 195.55 251.1 199.5 251.1 204 251.2 206.25 249.8 209 248.1 210.05 244.05 211.85 237.8 209.15 230.25 207.45 225.4 202.45 218 203.9 217.5 205.3 216.7 208 215.15 209.75 212.7 211.55 210.25 212.2 207.25 212.85 204.2 212.2 201.25 211.45 197.7 208.55 193.25 207.1 190.8 205.6 189.15 204.15 187.5 201.95 185.9 201.75 185.75 201.5 185.6 201.8 185.55 202.1 185.5 203.05 185.3 204.9 184.7 206.25 184.35 209.1 184.1 211.25 183.7 214.9 181.6 218.25 179.75 219.85 178.3 222.2 176.05 224.1 171.8 225.85 172.15 228.1 171.45 232.85 170 236.7 165.85 240.1 162.2 242.4 157 245 151.15 245.65 145.05 246.35 138.6 244.8 132.75 242.2 122.85 233.65 114.95 227.8 109.55 219.15 105.45 218.85 105.35 218.6 105.3 218.85 104.95 219.1 104.6 223.55 98.55 225.6 90.7 227.5 83.35 227.15 75.3 226.55 61.9 219.65 45.4 219.3 44.6 219 43.8
M 86.4 165.8
Q 86.4515625 165.7984375 86.5 165.75
L 86.5 165.8
Q 86.4515625 165.8 86.4 165.8
M 111.55 173.9
Q 107.25 175.1 104.25 177.8 103.8 178.2 103.35 178.7 103.2 178.3 102.95 178.05
L 102.7 177.7
Q 102.7 177.55 102.95 177.3 103.7 176.65 104.95 176 106.4 175.3 107.1 174.95 107.25 174.85 109.4 173.6 109.8 173.35 110.15 173.2 110.7 173.55 111.55 173.9
M 245.05 54.8
Q 245.2 52.5 243.8 50.3 241.85 46.95 238.15 45.7 234.3 44.5 230.9 46.35 229.2 47.3 228.95 48.55 228.7 49.85 229.9 51.6 231.4 53.75 234.05 56.2 236.45 58.3 238.05 58.95 240.7 60 242.75 58.8 244.9 57.5 245.05 54.8
M 244.45 26.75
Q 244.45 25.8 244.2 24.7 243.85 23.2 243.25 22.35 242.45 21.4 240.8 20.55 236.05 18.1 232.35 19.15 229.85 19.85 226.4 23.1 225.5 24 225.15 24.5 225 24.75 224.5 26.3 224.25 27.2 223.5 28.9 222.6 31.3 222.6 33.9 222.6 35.2 223 35.95 223.3 36.55 224.35 37.5 225.8 38.85 226.95 38.95 227.65 39 228.55 38.7 229.05 38.5 230.05 38.1 230.55 37.95 232.4 37.6 233.6 37.35 235.65 36.45 239.45 34.8 241.55 32.85 244.45 30.05 244.45 26.75 Z"/>
</g>

<g id="charles_0_Layer0_0_FILL">
<path fill="#000033" stroke="none" d="
M 219.65 45.4
Q 219.3 44.6 219 43.8 215.55 35.85 212.25 30.9 207.35 23.45 200.15 17.4 193.25 11.6 184.85 7.55 172.05 1.45 157.35 0.25 142.95 -0.9 128.95 2.8 115.25 6.45 102.95 14.45 90.9 22.3 81.6 33.4 77.05 38.8 74.85 43.8 74.35 45 73.95 46.15 73.55 45.9 73.05 45.75 68.8 44.25 64.4 43.8 60.6 43.4 56.7 43.8 54.7 44 52.7 44.4 42.05 46.55 34.5 53.55 26.85 60.6 24 71.05 21.15 81.5 24.2 91.35 20.3 91.7 16.6 93.75 13.85 95.2 11.5 97.45 10.9 98 10.3 98.65 5.35 104 2.5 112.6 -0.2 120.75 0 128.65 0.25 137.35 4 144.1 6.7 149 11.5 153.2 12.75 154.25 14.15 155.3 18.35 158.45 22.25 159.3 22.2 159.35 22.2 159.45 22 160.85 22.45 162.45 23 164.6 24.55 166.9 25.4 168.25 27.5 170.85 30.6 174.85 32.8 176.55 34.85 178.2 37.85 179.55 39.65 180.35 43.4 181.7 46.65 182.85 48.2 183.25 50.95 184 53.1 184.1 53.05 184.45 53 184.85 51.45 196.1 55.25 209.3 58.1 219.2 64.85 232.55 67.75 238.45 70.9 243.85 74 249.25 76.75 252.05 80.9 256.2 87.05 258 92.85 259.7 98.95 258.8 110.3 257.1 119.8 247.6 123.35 244 126.6 239.2 127.05 240.4 127.9 241.35 129.1 242.75 131.15 243.75 132.6 244.4 135.1 245.05 140.75 246.55 149.05 247.6 157.95 248.7 175.85 249.8 184.8 250.4 189.7 250.65 195.55 251.1 199.5 251.1 204 251.2 206.25 249.8 209 248.1 210.05 244.05 211.85 237.8 209.15 230.25 207.45 225.4 202.45 218 203.9 217.5 205.3 216.7 208 215.15 209.75 212.7 211.55 210.25 212.2 207.25 212.85 204.2 212.2 201.25 211.45 197.7 208.55 193.25 207.1 190.8 205.6 189.15 204.15 187.5 201.95 185.9 201.75 185.75 201.5 185.6 201.8 185.55 202.1 185.5 203.05 185.3 204.9 184.7 206.25 184.35 209.1 184.1 211.25 183.7 214.9 181.6 218.25 179.75 219.85 178.3 222.2 176.05 224.1 171.8 225.85 172.15 228.1 171.45 232.85 170 236.7 165.85 240.1 162.2 242.4 157 245 151.15 245.65 145.05 246.35 138.6 244.8 132.75 242.2 122.85 233.65 114.95 227.8 109.55 219.15 105.45 218.85 105.35 218.6 105.3 218.85 104.95 219.1 104.6 223.55 98.55 225.6 90.7 227.5 83.35 227.15 75.3 226.55 61.9 219.65 45.4
M 212.15 43.8
Q 213.3 46.3 214.55 49.4 216.85 54.95 218.15 59.35 222.75 74.8 219.6 90.6 219.25 92.35 218.8 93.9 218.75 94.55 218.65 95 218.35 96.2 217.25 98.5 214.65 103.65 211.5 108.45 212.2 108.85 213.4 109.25 218.75 111.2 223.2 114.25 226.65 116.7 229.85 120.05 232.95 123.15 234.6 125.95 238.3 132 238.2 140 238.1 147.3 234.95 154.5 232.1 161 227.9 163 227.25 163.3 225.65 163.85 224.6 164.2 223.95 164.55 223.7 164.4 223.5 164.3 222.15 163.6 220.85 163.95 218.8 164.55 217.5 167.35
L 216.55 169.65
Q 215.95 171.05 215.4 171.85 215 172.4 213.7 173.85 211.6 175.95 210.3 176.95 208.25 178.5 206.25 178.95 204 179.25 202.9 179.4 200.95 179.65 199.7 180.5 198.1 181.7 198.3 183.4 198.3 183.45 198.35 183.55 198.05 183.35 197.8 183.2 193.35 180.3 190 178.55 189.25 178.1 188.55 177.85 189.15 175.2 189.2 174.9 189.8 171.9 189.8 169.65 189.8 167.7 189.5 165.8 189.2 163.95 188.65 163.25 187.75 162 184.9 161.4 176.6 159.8 166.5 160.65 163.9 160.85 162.65 161.6 161 162.55 160.15 164.75 159.6 166.15 159.3 168.75 159.25 169.45 159.1 171.45 156.65 169.75 154.1 168.5
L 150.35 166.85
Q 148.4 165.95 147.35 166.5 146.55 166.1 146.2 165.8 145.8 165.4 145.5 164.25 145.1 162.7 144.6 159.95 144.6 159.8 144.55 159.65 145.85 159.15 147.8 157.95
L 149.5 156.85
Q 149.9 156.65 150.2 156.45 150.4 156.5 150.7 156.45 154.95 156.3 162.15 154.35 168.2 152.85 171.2 151.3 172.8 150.6 176.75 148.05 182.1 144.45 184.55 142.6 187.65 140.2 189.3 138.25 190.6 136.65 191.8 134.55 192.05 133.9 192.3 133.35 196.6 134 197.95 134.15 200.25 134.3 201.3 133.6 202.65 132.75 203.2 129.5
L 207.5 100.8
Q 207.9 97.8 207.45 96.5 207.05 95.55 206.25 95.05 205.75 93.85 203.25 93.2 190.9 89.85 175.15 87.6 165.7 86.25 146.6 84.25 143.75 83.9 142.6 84.95 141.65 85.85 141.45 88.6
L 141 102.15
Q 123.6 102.05 113.2 103.55
L 111.8 87.8
Q 111.5 85.1 110.45 84.2 109.25 83.25 106.45 83.7 87.5 86.75 78.1 88.6 62.5 91.7 50.3 95.6 47.9 96.4 47.45 97.6 46.7 98.2 46.4 99.05 45.95 100.45 46.55 103.4
L 49.7 118.95
Q 44.55 121 42.1 122.25 37.7 124.25 34.9 126.55 33.1 128.05 32.25 129.45 31.65 130.45 30.75 133.95 29.75 138.2 28 142.2 27 144.35 26.95 145.45 26.85 146.6 27.45 147.7 28.05 148.8 29.05 149.35 30.05 149.95 31.35 149.75 32.65 149.55 33.4 148.75 34.25 147.9 34.85 145.65
L 37.9 134.6
Q 38.2 133.65 38.35 133.5 38.6 133.15 39.3 132.65 41.3 131.2 45.45 129.15 49.2 127.3 51.2 126.1
L 52.35 131.9
Q 53.05 135.05 54.45 135.9 55.5 136.5 57.8 136.25 59.15 136.05 63.5 135.1 75.9 132.4 88.45 129.1 88.5 129.55 88.7 130.1 88.95 130.85 89.55 132.3 90 133.5 90.3 136.1 91.05 142.1 90.95 145.5 90.85 150.7 89.05 154.5 87.45 157.95 84.45 160.7 82.95 162.1 81.3 163.05 80.35 163.55 78.35 164.45 76.95 165.15 75.75 166.45 73.45 166.6 72.05 166.8 67.8 167.35 64.65 168.6 60 170.45 57.35 173.6 55.15 176.25 53.95 180.3 53.9 180.25 53.85 180.25 47.85 179.55 43.9 178 38.6 175.9 35.85 171.95
L 34 168.85
Q 32.3 166.3 31.5 165 30 162.7 29.4 160.95 29.05 159.8 28.85 159.15 29.55 159.05 30.3 158.9
L 33.05 158.4
Q 22.8 155.9 15.75 149.7 13.35 147.6 11.5 145.15 10.45 143.7 9.55 142.2 6.95 137.85 6.15 133.15 5.4 129.1 6.05 123 7.2 112.35 11.5 105.8 11.55 105.75 11.6 105.65 14.25 101.65 18.1 99.15 22.2 96.5 26.65 96.2 27.9 96.05 28.1 96.05 28.9 95.85 29.35 95.45 30.65 94.3 29.45 90.9 26.5 82.45 28.8 73.25 31.05 64.1 37.55 57.8 44 51.6 53.2 49.45 62.3 47.3 70.95 49.85 72.9 50.4 73.7 50.3 75.5 50.1 75.8 48.7 75.9 48.15 75.75 47.7 77.1 45.35 78.25 43.8 78.6 43.35 78.9 42.95 79.8 41.85 81.25 40.45 85 34.55 91.05 28.7 103.75 16.6 119.9 10.2 136.6 3.6 153.5 4.6 170.95 5.6 186.1 14.7 201.65 24.05 209.75 38.95 210.9 41 212.15 43.8
M 179.35 92.55
Q 187.3 93.75 201.75 97.45 202 97.5 202.3 97.65 202.15 98.05 202.15 98.5 200.7 113.2 197.65 127.55 197.55 128.05 197.35 128.25 197 128.65 195.9 128.45 190.2 127.4 184.6 126.65 179.75 126.05 171 125.1 171.85 124.15 172.25 122.25 173.15 118.05 172.45 113.4 171.8 109 169.9 106.7 167.75 104.2 162.7 102.9 154.05 100.6 145.95 101.15 146.05 92.8 146.6 88.65
L 169.4 91.25
Q 177.6 92.3 179.35 92.55
M 181.15 138.1
Q 177.75 141.95 175.55 143.85 172.3 146.8 169.05 148.3 166.35 149.5 161.8 150.5 156.25 151.75 150.65 152.6 150.4 152.55 150.2 152.65 149.65 152.35 149 152.35 148.15 152.3 147.55 152.75 147.15 153 146 154.75
L 145.1 155.85
Q 144.45 156.55 143.85 156.9 142.95 157.5 141.65 157.55 140.5 157.5 139.8 157.2 139 156.8 138.1 156.2
L 134.85 154.05
Q 133.4 153.15 132.65 152.95 131.15 152.65 130 153.65 128.9 154.7 129.05 156.2 129.25 157.8 131.1 158.75 132.15 159.3 134.4 159.65
L 138.85 160.15
Q 140.2 160.25 141.3 160.2 141.25 161.6 142.15 163.65 143.3 166.3 143.4 167.4 143.5 168.05 143.6 169.4 143.75 169.85 144 170.2 143.9 170.3 143.85 170.4 141.6 173.55 136.9 174.35 134.5 174.75 130.05 174.4 127.6 173.6 124.5 173.15 123.2 172.95 121.95 172.9 119.3 171.85 115.75 169.8 113.85 168.6 113.4 168.2 112.8 167.6 112.4 167.25 112.4 167.2 112.4 167.15 112.5 165.05 111.95 163.05 111.45 161.25 110.55 160.6 109.85 160.1 108.1 159.9 105.7 159.7 103.25 159.3 99.4 158.75 97.2 157.95 95.35 157.15 94.2 156.8 94.6 155.9 94.95 155 95.6 153.25 96 151.2 98.8 138.55 95.5 129.05 95.15 128.1 94.75 127.4 102.85 125.15 111 122.65 113.3 121.9 113.55 120.65 113.6 120.45 113.6 120.3 113.85 120.1 114.2 119.75 114.85 119 114.95 118.05 115.05 117.2 114.85 116.1 114.55 114.75 114.4 114.15 114.2 113.1 114 111.8 114.65 111.55 115.75 111.4 128.1 109.3 140.8 109.1 140.65 112.7 140.25 115 140.15 115.65 139.9 117 139.75 118.05 139.95 118.9 140.1 119.9 140.85 120.6 141.1 120.95 141.35 121.1 141.4 121.25 141.45 121.45 141.75 122.75 144.1 123.35 164.85 128.55 185.05 132.15 184.95 132.45 184.75 132.75 184.2 134.1 183.8 134.7 183.05 135.9 181.15 138.1
M 182.35 167.45
Q 183.15 167.65 183.5 168 183.85 168.55 183.75 169.55 183.4 173.2 182.65 177.1 182.1 177.15 181.55 177.25 176.95 178.2 174.4 180.65 173.4 181.6 171.8 183.9 170.2 186.45 169.65 188.15 169 190.05 168.9 194.1 168.8 198.05 169.4 199.9 170 201.75 171.85 204.05 173.2 205.85 174.8 207.45 177.25 209.8 182.95 213.2 187.8 216.05 191 217.25 192.1 217.65 193.15 217.95 193.2 218.35 193.35 218.75 193.45 219.1 193.7 219.6 194.3 220.75 195.75 222.55 200.15 228.2 201.6 232.1 203.9 238.2 202 243.15 188.7 243.1 173 242.35 159.4 241.7 150.8 240.6 142.25 239.45 137.7 237.1 136.35 236.3 136 235.55 135.45 234.25 136.75 232.1 144.3 219.8 155.5 210.65 157 209.45 157.9 208.65 158.65 208 159 207.65 160.9 205.85 161.7 204.05 162.5 202.4 162.7 200.05 162.85 198.7 162.8 195.9
L 162.65 189.1
Q 162.85 188.85 163.05 188.45 163.45 187.65 163.65 185.75
L 165.55 168.05
Q 165.65 167.45 165.85 167.2 166 167.05 166.7 166.95 171.95 166.6 174.6 166.6 178.95 166.65 182.35 167.45
M 176.45 196.85
Q 176.05 195.35 176.2 193.5 176.35 191.3 176.95 189.75 177.95 187.2 180.25 185.45 182.55 183.7 185.3 183.45 185.85 184.45 188.2 185.5 190.3 186.5 195.55 189.55 198.35 191.25 199.6 192.35 200.65 193.35 201.9 194.95 204.4 198.1 205.3 200.2 206.75 203.45 206.05 206.3 205.65 207.85 204.6 209 203.4 210.4 201.35 210.95 199.5 211.45 197.4 211.15 194.35 210.7 189.4 208.1 185.75 206.2 183.75 204.9 180.75 202.9 178.8 200.75 177.05 198.7 176.45 196.85
M 84.05 91.95
L 106.7 88.15
Q 107.4 91.8 107.9 98.95 108.1 99.5 108.15 100.1 108.25 101.05 108.1 102.85 108.3 103.95 108.5 105.45
L 108.95 110.95
Q 109.15 113.8 109 114.85 108.75 117.05 107.5 118.3 107.45 118.35 107.35 118.4 104.95 119.35 100.95 120.6
L 91.15 123.4
Q 90.25 123.65 86.5 124.5 86.45 124.15 86.3 123.7
L 85.6 120.55
Q 84.7 116.75 84.15 114.95 84 114.45 83.85 113.9 83.3 113.35 82.6 112.6 80.95 111.05 80.25 110.55 77.25 108.5 71.2 109 64.6 109.45 58.3 111.3 56.05 111.95 54.95 111.6 54.55 111.45 54.2 111.15 53.95 111.25 53.75 111.4 53.65 111.4 53.6 111.4 52.55 106.15 51.7 100.8 51.7 100.35 51.55 99.95 51.8 99.85 52.05 99.75 66.3 95.4 74.15 93.7 75.95 93.35 84.05 91.95
M 67.8 174.7
Q 69.75 173.9 73.25 173.25 86.2 170.95 99.4 171.2 99.05 171.35 98.7 171.55 97 172.3 96.15 172.7 94.7 173.35 93.8 174.05 92.6 174.95 91.95 176.1 91.2 177.4 91.4 178.7 91.65 180.6 93.3 181.75 94.65 182.75 96.75 183.1 98.65 183.35 100 183.05 99.3 184.15 98.85 185.15 98.7 185.35 98.55 185.55 98.1 186.3 97.9 187.7
L 97.3 192.15
Q 97.05 193 96.9 193.2 96.7 193.45 95.9 193.75
L 92.9 194.75
Q 91.6 194.25 90.35 194.8 89.3 195.15 88.2 196.45 86.05 199 84.1 204.8
L 81.45 212.3
Q 80.2 215.75 79.8 217.6 79.1 220.6 79.35 223.05 79.45 224.05 79.9 224.35 80.3 224.6 80.8 224.4 81.3 224.2 81.55 223.75 81.75 223.4 81.85 221.8 81.85 220.3 82.2 219.05
L 85.25 211.2
Q 85.6 210.3 87.55 206.7 88.65 204.8 89.3 203.95 89.95 203 90.7 202.3 91.25 201.95 91.7 201.6 92.1 202.4 92.95 203.55 96.2 207.9 98.15 210.05 101.2 213.45 104.35 215.4
L 108 217.4
Q 110.55 218.75 111.2 219 111.8 219.25 112.8 219.55 113.5 219.85 114.5 220.3 116.35 221.1 117.5 221.5 118.1 221.7 118.7 221.85 118.8 221.9 118.95 221.95 121.45 223.05 123.25 223.15 123.95 223.15 124.2 222.95 124.3 222.9 124.4 222.8 125.7 222.95 126.55 222.9 126.5 223 126.45 223.15 122.45 234.65 114.95 241.9 110.85 245.9 105.9 248.3 100.7 250.8 95.3 251.15 90.75 251.4 87.55 250.1 83.05 248.2 78.95 242.4 76.45 238.85 72.45 231.15 65.6 217.7 62.9 208.95 59 196.1 60.5 185.1 61.25 180.15 63.25 177.8 64.85 175.85 67.8 174.7
M 86.4 165.8
Q 86.4515625 165.7984375 86.5 165.75
L 86.5 165.8
Q 86.4515625 165.8 86.4 165.8
M 100.8 192.2
Q 100.9 192.05 101 191.95 101.35 191.5 101.95 190.2 102.8 188.35 105.8 185.15 107.8 183.15 108.95 182.35 112.55 179.9 119.4 179.9 125.5 179.8 128.9 181.5 131.15 182.6 134.75 186.1 137.25 188.4 138.2 190.2 139.1 192 139.45 194.75 140.1 199.6 138.3 201.7 138.25 201.55 138.25 201.4 137.95 199.75 137.15 199.5 136.6 199.3 136.05 199.7 135.55 200 135.35 200.6 135.15 201.25 135.25 202.9 135.25 203.75 135.1 204.55 134.85 204.9 134.75 205.3 134.65 205.7 134.65 206.1 134.45 206.65 134.15 207.2 133.05 209.25 131.15 210.45 130.55 210.85 129.2 211.65 129.15 211.65 129.15 211.7 128.05 211.45 126.7 211.85 125.35 212.25 123.15 213.85 120.65 215.85 120.2 217.25 119.95 218.1 120.05 218.9 118.55 218.6 117.1 218.1 112.75 216.7 109 214.05 108.7 213.6 108.3 212.9 107.3 211.2 106.1 209.7
L 98.65 199.4
Q 100.7 198.7 101.15 197.1 101.35 196.45 101 194.45 100.8 193.3 100.8 192.2
M 104.95 176
Q 106.4 175.3 107.1 174.95 107.25 174.85 109.4 173.6 109.8 173.35 110.15 173.2 110.7 173.55 111.55 173.9 107.25 175.1 104.25 177.8 103.8 178.2 103.35 178.7 103.2 178.3 102.95 178.05
L 102.7 177.7
Q 102.7 177.55 102.95 177.3 103.7 176.65 104.95 176
M 135.6 177.6
Q 137.05 177.45 138.25 177.15 140.95 176.5 143.75 175.15 145.05 174.6 146.05 174
L 144 186.55
Q 143.5 185.7 142.95 184.9 142 183.6 139.2 180.8 137.2 178.9 135.6 177.6
M 155.85 175.35
Q 156.35 175.75 157.3 176.65 157.9 177.1 158.45 177.3 158.35 177.6 158.25 177.95
L 157.25 187.5
Q 157 189.75 156.65 191
L 156.45 193.75
Q 156.4 194.15 156.4 194.5 154.7 194.35 152.6 195 150.3 195.65 148.45 196.8 149.25 191.05 150.1 185.15
L 150.9 180.3
Q 151.55 176.35 151.7 175.3 151.85 174.1 151.95 173.05
L 152.6 173.35
Q 154.7 174.35 155.85 175.35
M 154.65 200.35
Q 154.85 200.3 155.05 200.25 154.1 202.2 151.9 204.05 151.45 204.45 147.65 207.25 147.2 205.95 146.8 205.1 147.7 204.9 148.65 204 149.65 202.9 150.2 202.4 151.55 201.2 154.65 200.35
M 138.55 210.35
Q 138.7 209.65 138.8 208.85 139.55 208.75 140.35 208.4
L 141.2 211.75
Q 141.3 212.2 141.45 212.6 138.05 215.9 134.15 220.4 133.8 219.8 133.3 219.25 132.15 218.05 130.7 218.15 130.3 218.2 129.95 218.35 130.55 217.7 130.85 217.4 132.5 217.55 134.3 216.45 137.55 214.55 138.55 210.35
M 162.4 43.9
Q 162.4 43.85 162.45 43.8 162.8 41.55 162.1 40.45 161.45 39.4 160.1 39.2 158.75 39.05 157.8 39.85 156.85 40.8 156.6 42.55 156.5 43.2 156.45 43.8 156.35 45.6 156.75 47.35 157.3 49.75 158.7 51.7 160.05 53.6 161.65 54.1 162.6 54.45 163.6 54.2 164.6 53.95 165.15 53.2 164.95 52.85 164.45 52.75 164.25 52.15 163.05 50.1 162.1 48.5 162 47.4 161.9 46.7 162.4 43.9 Z"/>

<path fill="#6600FF" stroke="none" d="
M 138.8 208.85
Q 138.7 209.65 138.55 210.35 137.55 214.55 134.3 216.45 132.5 217.55 130.85 217.4 130.55 217.7 129.95 218.35 130.3 218.2 130.7 218.15 132.15 218.05 133.3 219.25 133.8 219.8 134.15 220.4 138.05 215.9 141.45 212.6 141.3 212.2 141.2 211.75
L 140.35 208.4
Q 139.55 208.75 138.8 208.85
M 155.05 200.25
Q 154.85 200.3 154.65 200.35 151.55 201.2 150.2 202.4 149.65 202.9 148.65 204 147.7 204.9 146.8 205.1 147.2 205.95 147.65 207.25 151.45 204.45 151.9 204.05 154.1 202.2 155.05 200.25
M 157.3 176.65
Q 156.35 175.75 155.85 175.35 154.7 174.35 152.6 173.35
L 151.95 173.05
Q 151.85 174.1 151.7 175.3 151.55 176.35 150.9 180.3
L 150.1 185.15
Q 149.25 191.05 148.45 196.8 150.3 195.65 152.6 195 154.7 194.35 156.4 194.5 156.4 194.15 156.45 193.75
L 156.65 191
Q 157 189.75 157.25 187.5
L 158.25 177.95
Q 158.35 177.6 158.45 177.3 157.9 177.1 157.3 176.65
M 73.25 173.25
Q 69.75 173.9 67.8 174.7 64.85 175.85 63.25 177.8 61.25 180.15 60.5 185.1 59 196.1 62.9 208.95 65.6 217.7 72.45 231.15 76.45 238.85 78.95 242.4 83.05 248.2 87.55 250.1 90.75 251.4 95.3 251.15 100.7 250.8 105.9 248.3 110.85 245.9 114.95 241.9 122.45 234.65 126.45 223.15 126.5 223 126.55 222.9 125.7 222.95 124.4 222.8 124.3 222.9 124.2 222.95 123.95 223.15 123.25 223.15 121.45 223.05 118.95 221.95 118.8 221.9 118.7 221.85 118.1 221.7 117.5 221.5 116.35 221.1 114.5 220.3 113.5 219.85 112.8 219.55 111.8 219.25 111.2 219 110.55 218.75 108 217.4
L 104.35 215.4
Q 101.2 213.45 98.15 210.05 96.2 207.9 92.95 203.55 92.1 202.4 91.7 201.6 91.25 201.95 90.7 202.3 89.95 203 89.3 203.95 88.65 204.8 87.55 206.7 85.6 210.3 85.25 211.2
L 82.2 219.05
Q 81.85 220.3 81.85 221.8 81.75 223.4 81.55 223.75 81.3 224.2 80.8 224.4 80.3 224.6 79.9 224.35 79.45 224.05 79.35 223.05 79.1 220.6 79.8 217.6 80.2 215.75 81.45 212.3
L 84.1 204.8
Q 86.05 199 88.2 196.45 89.3 195.15 90.35 194.8 91.6 194.25 92.9 194.75
L 95.9 193.75
Q 96.7 193.45 96.9 193.2 97.05 193 97.3 192.15
L 97.9 187.7
Q 98.1 186.3 98.55 185.55 98.7 185.35 98.85 185.15 99.3 184.15 100 183.05 98.65 183.35 96.75 183.1 94.65 182.75 93.3 181.75 91.65 180.6 91.4 178.7 91.2 177.4 91.95 176.1 92.6 174.95 93.8 174.05 94.7 173.35 96.15 172.7 97 172.3 98.7 171.55 99.05 171.35 99.4 171.2 86.2 170.95 73.25 173.25
M 245.05 54.8
Q 245.2 52.5 243.8 50.3 241.85 46.95 238.15 45.7 234.3 44.5 230.9 46.35 229.2 47.3 228.95 48.55 228.7 49.85 229.9 51.6 231.4 53.75 234.05 56.2 236.45 58.3 238.05 58.95 240.7 60 242.75 58.8 244.9 57.5 245.05 54.8
M 232.5 48.75
Q 235.2 48.55 236.3 48.85 237.45 49.2 239.35 50.6 240.35 51.4 240.65 51.8 241.5 53 241 55.35 239.6 55.65 238.35 54.65 237.95 54.4 236.35 52.65 235.55 51.8 234.4 50.8 232.85 49.55 232.5 48.75
M 244.45 26.75
Q 244.45 25.8 244.2 24.7 243.85 23.2 243.25 22.35 242.45 21.4 240.8 20.55 236.05 18.1 232.35 19.15 229.85 19.85 226.4 23.1 225.5 24 225.15 24.5 225 24.75 224.5 26.3 224.25 27.2 223.5 28.9 222.6 31.3 222.6 33.9 222.6 35.2 223 35.95 223.3 36.55 224.35 37.5 225.8 38.85 226.95 38.95 227.65 39 228.55 38.7 229.05 38.5 230.05 38.1 230.55 37.95 232.4 37.6 233.6 37.35 235.65 36.45 239.45 34.8 241.55 32.85 244.45 30.05 244.45 26.75
M 233.85 23.65
Q 235.5 23.25 237.75 24.2 239.4 24.9 239.85 25.8 240.3 26.75 239.75 27.95 239.35 28.7 238.3 29.65 235.8 31.7 230.7 33.1 229.2 33.55 228.55 33 227.9 32.45 228.1 31 228.55 27.45 231.35 25 232.75 23.9 233.85 23.65 Z"/>

<path fill="#CCFFCC" stroke="none" d="
M 138.25 177.15
Q 137.05 177.45 135.6 177.6 137.2 178.9 139.2 180.8 142 183.6 142.95 184.9 143.5 185.7 144 186.55
L 146.05 174
Q 145.05 174.6 143.75 175.15 140.95 176.5 138.25 177.15
M 106.7 88.15
L 84.05 91.95
Q 75.95 93.35 74.15 93.7 66.3 95.4 52.05 99.75 51.8 99.85 51.55 99.95 51.7 100.35 51.7 100.8 52.55 106.15 53.6 111.4 53.65 111.4 53.75 111.4 53.95 111.25 54.2 111.15 54.55 111.45 54.95 111.6 56.05 111.95 58.3 111.3 64.6 109.45 71.2 109 77.25 108.5 80.25 110.55 80.95 111.05 82.6 112.6 83.3 113.35 83.85 113.9 84 114.45 84.15 114.95 84.7 116.75 85.6 120.55
L 86.3 123.7
Q 86.45 124.15 86.5 124.5 90.25 123.65 91.15 123.4
L 100.95 120.6
Q 104.95 119.35 107.35 118.4 107.45 118.35 107.5 118.3 108.75 117.05 109 114.85 109.15 113.8 108.95 110.95
L 108.5 105.45
Q 108.3 103.95 108.1 102.85 108.25 101.05 108.15 100.1 108.1 99.5 107.9 98.95 107.4 91.8 106.7 88.15
M 183.5 168
Q 183.15 167.65 182.35 167.45 178.95 166.65 174.6 166.6 171.95 166.6 166.7 166.95 166 167.05 165.85 167.2 165.65 167.45 165.55 168.05
L 163.65 185.75
Q 163.45 187.65 163.05 188.45 162.85 188.85 162.65 189.1
L 162.8 195.9
Q 162.85 198.7 162.7 200.05 162.5 202.4 161.7 204.05 160.9 205.85 159 207.65 158.65 208 157.9 208.65 159.6 208.45 161.3 208.55 165.5 208.75 168.55 210.85 170.7 212.2 174.25 216.4 177.65 220.4 180.05 221.7 184.2 223.95 189.15 222.3 191.9 221.35 193.7 219.6 193.45 219.1 193.35 218.75 193.2 218.35 193.15 217.95 192.1 217.65 191 217.25 187.8 216.05 182.95 213.2 177.25 209.8 174.8 207.45 173.2 205.85 171.85 204.05 170 201.75 169.4 199.9 168.8 198.05 168.9 194.1 169 190.05 169.65 188.15 170.2 186.45 171.8 183.9 173.4 181.6 174.4 180.65 176.95 178.2 181.55 177.25 182.1 177.15 182.65 177.1 183.4 173.2 183.75 169.55 183.85 168.55 183.5 168
M 201.75 97.45
Q 187.3 93.75 179.35 92.55 177.6 92.3 169.4 91.25
L 146.6 88.65
Q 146.05 92.8 145.95 101.15 154.05 100.6 162.7 102.9 167.75 104.2 169.9 106.7 171.8 109 172.45 113.4 173.15 118.05 172.25 122.25 171.85 124.15 171 125.1 179.75 126.05 184.6 126.65 190.2 127.4 195.9 128.45 197 128.65 197.35 128.25 197.55 128.05 197.65 127.55 200.7 113.2 202.15 98.5 202.15 98.05 202.3 97.65 202 97.5 201.75 97.45
M 236.3 48.85
Q 235.2 48.55 232.5 48.75 232.85 49.55 234.4 50.8 235.55 51.8 236.35 52.65 237.95 54.4 238.35 54.65 239.6 55.65 241 55.35 241.5 53 240.65 51.8 240.35 51.4 239.35 50.6 237.45 49.2 236.3 48.85
M 237.75 24.2
Q 235.5 23.25 233.85 23.65 232.75 23.9 231.35 25 228.55 27.45 228.1 31 227.9 32.45 228.55 33 229.2 33.55 230.7 33.1 235.8 31.7 238.3 29.65 239.35 28.7 239.75 27.95 240.3 26.75 239.85 25.8 239.4 24.9 237.75 24.2 Z"/>

<path fill="#D57563" stroke="none" d="
M 101 191.95
Q 100.9 192.05 100.8 192.2 100.8 193.3 101 194.45 101.35 196.45 101.15 197.1 100.7 198.7 98.65 199.4
L 106.1 209.7
Q 107.3 211.2 108.3 212.9 108.7 213.6 109 214.05 112.75 216.7 117.1 218.1 118.55 218.6 120.05 218.9 119.95 218.1 120.2 217.25 120.65 215.85 123.15 213.85 125.35 212.25 126.7 211.85 128.05 211.45 129.15 211.7 129.15 211.65 129.2 211.65 130.55 210.85 131.15 210.45 133.05 209.25 134.15 207.2 134.45 206.65 134.65 206.1 134.65 205.7 134.75 205.3 134.85 204.9 135.1 204.55 135.25 203.75 135.25 202.9 135.15 201.25 135.35 200.6 135.55 200 136.05 199.7 136.6 199.3 137.15 199.5 137.95 199.75 138.25 201.4 138.25 201.55 138.3 201.7 140.1 199.6 139.45 194.75 139.1 192 138.2 190.2 137.25 188.4 134.75 186.1 131.15 182.6 128.9 181.5 125.5 179.8 119.4 179.9 112.55 179.9 108.95 182.35 107.8 183.15 105.8 185.15 102.8 188.35 101.95 190.2 101.35 191.5 101 191.95
M 176.2 193.5
Q 176.05 195.35 176.45 196.85 177.05 198.7 178.8 200.75 180.75 202.9 183.75 204.9 185.75 206.2 189.4 208.1 194.35 210.7 197.4 211.15 199.5 211.45 201.35 210.95 203.4 210.4 204.6 209 205.65 207.85 206.05 206.3 206.75 203.45 205.3 200.2 204.4 198.1 201.9 194.95 200.65 193.35 199.6 192.35 198.35 191.25 195.55 189.55 190.3 186.5 188.2 185.5 185.85 184.45 185.3 183.45 182.55 183.7 180.25 185.45 177.95 187.2 176.95 189.75 176.35 191.3 176.2 193.5
M 175.55 143.85
Q 177.75 141.95 181.15 138.1 183.05 135.9 183.8 134.7 184.2 134.1 184.75 132.75 184.95 132.45 185.05 132.15 164.85 128.55 144.1 123.35 141.75 122.75 141.45 121.45 141.4 121.25 141.35 121.1 141.1 120.95 140.85 120.6 140.1 119.9 139.95 118.9 139.75 118.05 139.9 117 140.15 115.65 140.25 115 140.65 112.7 140.8 109.1 128.1 109.3 115.75 111.4 114.65 111.55 114 111.8 114.2 113.1 114.4 114.15 114.55 114.75 114.85 116.1 115.05 117.2 114.95 118.05 114.85 119 114.2 119.75 113.85 120.1 113.6 120.3 113.6 120.45 113.55 120.65 113.3 121.9 111 122.65 102.85 125.15 94.75 127.4 95.15 128.1 95.5 129.05 98.8 138.55 96 151.2 95.6 153.25 94.95 155 94.6 155.9 94.2 156.8 95.35 157.15 97.2 157.95 99.4 158.75 103.25 159.3 105.7 159.7 108.1 159.9 109.85 160.1 110.55 160.6 111.45 161.25 111.95 163.05 112.5 165.05 112.4 167.15 112.4 167.2 112.4 167.25 112.8 167.6 113.4 168.2 113.85 168.6 115.75 169.8 119.3 171.85 121.95 172.9 123.2 172.95 124.5 173.15 127.6 173.6 130.05 174.4 134.5 174.75 136.9 174.35 141.6 173.55 143.85 170.4 143.9 170.3 144 170.2 143.75 169.85 143.6 169.4 143.5 168.05 143.4 167.4 143.3 166.3 142.15 163.65 141.25 161.6 141.3 160.2 140.2 160.25 138.85 160.15
L 134.4 159.65
Q 132.15 159.3 131.1 158.75 129.25 157.8 129.05 156.2 128.9 154.7 130 153.65 131.15 152.65 132.65 152.95 133.4 153.15 134.85 154.05
L 138.1 156.2
Q 139 156.8 139.8 157.2 140.5 157.5 141.65 157.55 142.95 157.5 143.85 156.9 144.45 156.55 145.1 155.85
L 146 154.75
Q 147.15 153 147.55 152.75 148.15 152.3 149 152.35 149.65 152.35 150.2 152.65 150.4 152.55 150.65 152.6 156.25 151.75 161.8 150.5 166.35 149.5 169.05 148.3 172.3 146.8 175.55 143.85 Z"/>

<path fill="#33CCCC" stroke="none" d="
M 161.3 208.55
Q 159.6 208.45 157.9 208.65 157 209.45 155.5 210.65 144.3 219.8 136.75 232.1 135.45 234.25 136 235.55 136.35 236.3 137.7 237.1 142.25 239.45 150.8 240.6 159.4 241.7 173 242.35 188.7 243.1 202 243.15 203.9 238.2 201.6 232.1 200.15 228.2 195.75 222.55 194.3 220.75 193.7 219.6 191.9 221.35 189.15 222.3 184.2 223.95 180.05 221.7 177.65 220.4 174.25 216.4 170.7 212.2 168.55 210.85 165.5 208.75 161.3 208.55 Z"/>

<path fill="#000066" stroke="none" d="
M 214.55 49.4
Q 213.3 46.3 212.15 43.8 210.9 41 209.75 38.95 201.65 24.05 186.1 14.7 170.95 5.6 153.5 4.6 136.6 3.6 119.9 10.2 103.75 16.6 91.05 28.7 85 34.55 81.25 40.45 79.8 41.85 78.9 42.95 78.6 43.35 78.25 43.8 77.1 45.35 75.75 47.7 75.9 48.15 75.8 48.7 75.5 50.1 73.7 50.3 72.9 50.4 70.95 49.85 62.3 47.3 53.2 49.45 44 51.6 37.55 57.8 31.05 64.1 28.8 73.25 26.5 82.45 29.45 90.9 30.65 94.3 29.35 95.45 28.9 95.85 28.1 96.05 27.9 96.05 26.65 96.2 22.2 96.5 18.1 99.15 14.25 101.65 11.6 105.65 11.55 105.75 11.5 105.8 7.2 112.35 6.05 123 5.4 129.1 6.15 133.15 6.95 137.85 9.55 142.2 10.45 143.7 11.5 145.15 13.35 147.6 15.75 149.7 22.8 155.9 33.05 158.4
L 30.3 158.9
Q 29.55 159.05 28.85 159.15 29.05 159.8 29.4 160.95 30 162.7 31.5 165 32.3 166.3 34 168.85
L 35.85 171.95
Q 38.6 175.9 43.9 178 47.85 179.55 53.85 180.25 53.9 180.25 53.95 180.3 55.15 176.25 57.35 173.6 60 170.45 64.65 168.6 67.8 167.35 72.05 166.8 73.45 166.6 75.75 166.45 76.95 165.15 78.35 164.45 80.35 163.55 81.3 163.05 82.95 162.1 84.45 160.7 87.45 157.95 89.05 154.5 90.85 150.7 90.95 145.5 91.05 142.1 90.3 136.1 90 133.5 89.55 132.3 88.95 130.85 88.7 130.1 88.5 129.55 88.45 129.1 75.9 132.4 63.5 135.1 59.15 136.05 57.8 136.25 55.5 136.5 54.45 135.9 53.05 135.05 52.35 131.9
L 51.2 126.1
Q 49.2 127.3 45.45 129.15 41.3 131.2 39.3 132.65 38.6 133.15 38.35 133.5 38.2 133.65 37.9 134.6
L 34.85 145.65
Q 34.25 147.9 33.4 148.75 32.65 149.55 31.35 149.75 30.05 149.95 29.05 149.35 28.05 148.8 27.45 147.7 26.85 146.6 26.95 145.45 27 144.35 28 142.2 29.75 138.2 30.75 133.95 31.65 130.45 32.25 129.45 33.1 128.05 34.9 126.55 37.7 124.25 42.1 122.25 44.55 121 49.7 118.95
L 46.55 103.4
Q 45.95 100.45 46.4 99.05 46.7 98.2 47.45 97.6 47.9 96.4 50.3 95.6 62.5 91.7 78.1 88.6 87.5 86.75 106.45 83.7 109.25 83.25 110.45 84.2 111.5 85.1 111.8 87.8
L 113.2 103.55
Q 123.6 102.05 141 102.15
L 141.45 88.6
Q 141.65 85.85 142.6 84.95 143.75 83.9 146.6 84.25 165.7 86.25 175.15 87.6 190.9 89.85 203.25 93.2 205.75 93.85 206.25 95.05 207.05 95.55 207.45 96.5 207.9 97.8 207.5 100.8
L 203.2 129.5
Q 202.65 132.75 201.3 133.6 200.25 134.3 197.95 134.15 196.6 134 192.3 133.35 192.05 133.9 191.8 134.55 190.6 136.65 189.3 138.25 187.65 140.2 184.55 142.6 182.1 144.45 176.75 148.05 172.8 150.6 171.2 151.3 168.2 152.85 162.15 154.35 154.95 156.3 150.7 156.45 150.4 156.5 150.2 156.45 149.9 156.65 149.5 156.85
L 147.8 157.95
Q 145.85 159.15 144.55 159.65 144.6 159.8 144.6 159.95 145.1 162.7 145.5 164.25 145.8 165.4 146.2 165.8 146.55 166.1 147.35 166.5 148.4 165.95 150.35 166.85
L 154.1 168.5
Q 156.65 169.75 159.1 171.45 159.25 169.45 159.3 168.75 159.6 166.15 160.15 164.75 161 162.55 162.65 161.6 163.9 160.85 166.5 160.65 176.6 159.8 184.9 161.4 187.75 162 188.65 163.25 189.2 163.95 189.5 165.8 189.8 167.7 189.8 169.65 189.8 171.9 189.2 174.9 189.15 175.2 188.55 177.85 189.25 178.1 190 178.55 193.35 180.3 197.8 183.2 198.05 183.35 198.35 183.55 198.3 183.45 198.3 183.4 198.1 181.7 199.7 180.5 200.95 179.65 202.9 179.4 204 179.25 206.25 178.95 208.25 178.5 210.3 176.95 211.6 175.95 213.7 173.85 215 172.4 215.4 171.85 215.95 171.05 216.55 169.65
L 217.5 167.35
Q 218.8 164.55 220.85 163.95 222.15 163.6 223.5 164.3 223.7 164.4 223.95 164.55 224.6 164.2 225.65 163.85 227.25 163.3 227.9 163 232.1 161 234.95 154.5 238.1 147.3 238.2 140 238.3 132 234.6 125.95 232.95 123.15 229.85 120.05 226.65 116.7 223.2 114.25 218.75 111.2 213.4 109.25 212.2 108.85 211.5 108.45 214.65 103.65 217.25 98.5 218.35 96.2 218.65 95 218.75 94.55 218.8 93.9 219.25 92.35 219.6 90.6 222.75 74.8 218.15 59.35 216.85 54.95 214.55 49.4
M 162.45 43.8
Q 162.4 43.85 162.4 43.9 161.9 46.7 162 47.4 162.1 48.5 163.05 50.1 164.25 52.15 164.45 52.75 164.95 52.85 165.15 53.2 164.6 53.95 163.6 54.2 162.6 54.45 161.65 54.1 160.05 53.6 158.7 51.7 157.3 49.75 156.75 47.35 156.35 45.6 156.45 43.8 156.5 43.2 156.6 42.55 156.85 40.8 157.8 39.85 158.75 39.05 160.1 39.2 161.45 39.4 162.1 40.45 162.8 41.55 162.45 43.8 Z"/>
</g>
</defs>

<g transform="matrix( 1, 0, 0, 1, 27.3,24.15) ">
<g transform="matrix( 1, 0, 0, 1, 0,0) ">
<use xlink:href="#charles_0_Layer1_0_FILL"/>
</g>

<g transform="matrix( 1, 0, 0, 1, 0,0) ">
<use xlink:href="#charles_0_Layer0_0_FILL"/>
</g>
</g>
</svg>
