
<svg xmlns="http://www.w3.org/2000/svg" version="1.1" xmlns:xlink="http://www.w3.org/1999/xlink" preserveAspectRatio="none" x="0px" y="0px" width="150px" height="150px" viewBox="0 0 150 150">
<defs>
<g id="Layer0_0_FILL">
<path fill="#FFFFFF" stroke="none" d="
M 164.05 126.35
Q 163.85 124.7 163.2 121.25 162.4 117.4 162.05 116 161.25 113.05 160.3 110.95 158.4 106.55 153.85 101.5 149.25 96.25 145.1 94.35 143.45 93.55 140.25 92.8 140.2 92.05 139.95 91.2 139.15 88.4 136.8 85.15 133.5 80.45 129 76.85 124.45 73.2 119.2 71.15 113.85 69.1 108.1 68.7 102.25 68.35 96.8 69.8 95.5 70.1 94.8 70.6 94.35 69.9 93.45 69.05 85.85 62.1 76.25 58.2 66.5 54.3 56.35 54.05 46.3 53.85 36.65 57.25 27.05 60.65 19.35 67.1 14.4 71.25 11.1 76.1 7.5 81.45 6.2 87.1 4.95 93.05 6.05 99.65 5.05 99.9 3.85 100.7 -0.35 103.35 -3.55 107.15 -6.8 110.95 -8.6 115.55 -10.2828125 119.7345703125 -10.55 124.25 -10.6 124.95 -10.6 125.6 -10.7 133.25 -9 139.95 -7.8 144.95 -5.9 147.8 -4.6 149.75 -1.65 152.3
L 0.7 154.3
Q 1.45 154.9 1.65 154.25 1.8 153.7 1.3 153.2 0.05 151.7 -1.05 149.15 -1.7 147.75 -2.8 144.5 -5.3 137.25 -5.7 133.15 -6 130.3 -5.65 125.3 -5.6 124.8 -5.55 124.25 -5.2212890625 121.955078125 -4.7 120 -3.3 115.1 -0.1 110.95 3.15 106.8 7.5 104.05 8.15 103.6 8.65 103.25 8.95 103.05 9.2 102.6 9.5 102.2 9.55 101.85 9.6 101.6 9.6 101.45 9.85 99.95 9.85 97.65 9.9 94.4 9.95 93.75 10.5 86.2 15.15 79.35 19.35 73.25 26.25 68.75 30.7 65.75 36.15 63.6 45.25 60.1 55.7 60.1 65.6 60.1 75.55 63.1 86.25 66.35 91.2 72.1 92.8 73.8 93.85 73.75 94.45 74.5 95.8 74.45 96.4 74.4 98.05 73.9 99.7 73.45 101.85 73.5 103.15 73.5 105.7 73.8 110.55 74.3 112.9 74.75 116.95 75.5 119.85 76.85 125.65 79.6 132 87.35 134.15 90.1 134.7 92 134.9 92.55 135.1 93.65 135.35 94.6 135.85 95.15 136.55 95.95 137.8 95.9 138 95.9 138.2 95.9 139.1 96.4 141.1 97.3 143.05 98.25 144.05 98.85 146.4 100.25 148.85 103 154.05 108.5 156 113.25 156.9 115.4 157.75 119 159.05 124.35 159.15 124.85 159.65 126.55 159.75 127.15 160 128.45 159.75 129.45 159.55 130.35 158.9 131.35 158.65 131.7 157.65 133 155.7 135.45 154.2 137.75 152 141.35 151.95 143.75 153.2 144.55 154.75 143.85 155.75 143.4 157 142.1 159.05 139.9 160.8 137.15 163.1 133.85 163.7 131.35 164.25 129.2 164.05 126.35
M 95.7 57.1
Q 94.4 57.75 94 58.8 93.7 59.7 94.1 60.75 94.45 61.85 95.3 62.35 95.6 62.5 96.75 62.75
L 98.4 63.05
Q 99.8 63.05 100.8 61.9 101.7 60.95 101.7 59.4 101.8 58.2 101.1 57.35 100.55 56.75 99.55 56.55 99.15 56.5 98.75 56.45 98.1 56.45 97.45 56.55 96.55 56.7 95.7 57.1
M 107.6 43.15
Q 105.7 44.2 105.15 46.25 104.6 48.35 106 50.1 107 51.25 108.65 51.5 110.2 51.8 111.7 51.2 113.45 50.55 114.3 49.1 115.05 47.8 114.75 46.2 114.4 44.65 113.25 43.65 112.15 42.65 110.5 42.5 108.95 42.4 107.6 43.15
M 89.5 14.6
Q 87.35 9.95 82.3 7.6 77.3 5.25 72.2 6.3 67.2 7.4 63.4 11.35 59.65 15.2 58.55 20.3 55.55 20.05 52.7 21.35 49.9 22.7 48.2 25.15 46.5 27.6 46.25 30.7 46 33.8 47.3 36.5 48.6 39.2 51.2 40.95 53.8 42.65 56.8 42.85 56.95 44.9 59.25 46.65 62.05 48.8 65.75 49.15 69.45 49.55 72.65 48 73.8 47.5 74.2 47.45 74.75 47.4 75.95 47.95 82.5 50.75 88.25 50.25 95.2 49.65 99.45 44.95 99.9 44.45 100.75 43.4 101.5 42.5 102.15 42 102.75 41.6 103.9 41 105.15 40.35 105.65 40 108.6 38 109.35 34.05 109.95 30.95 108.9 26.95 107 19.95 101.9 16.25 99.15 14.35 95.85 13.85 92.45 13.35 89.5 14.6
M 87.55 17.95
Q 88.35 18.55 90.35 17.75 93.1 16.8 96.05 17.35 99 17.95 101.15 19.9 104.15 22.6 105.65 28.55 106.45 31.75 105.8 33.6 104.95 36.1 102.4 37.1 101.4 37.45 100.85 37.6 99.95 37.9 99.45 38.3 98.55 38.95 97.85 40.55 96.8 42.95 96.65 43.25 95.25 45.5 92.1 46.3 90.25 46.75 86.5 46.65 83.75 46.5 82.15 46.2 79.8 45.75 78.2 44.65 77.2 43.95 76.7 43.6 75.75 43.05 75 43.05 74.25 43 73.4 43.5 72.4 44.1 71.9 44.4 68.95 46.05 65.4 45.15 61.8 44.25 60.05 41.35 60.4 41.05 60.25 40.5 60.1 40 59.65 39.75 59.2 39.5 57.75 39.5 54.65 39.45 52.35 37 50.05 34.55 50.1 31.45 50.2 28.4 52.65 26.1 55.05 23.8 58.15 23.85 59.85 23.95 60.45 23.6 61.1 23.15 61.5 21.85 62.65 18.5 63.65 16.7 65.15 14 67.2 12.65 68.85 11.55 72.3 10.65 75.8 9.7 77.7 10 79.65 10.3 82.5 12.3 85.9 14.55 86.65 16.4 86.8 16.7 87 17.25 87.25 17.75 87.55 17.95
M 75.25 32.6
L 71.9 34.7
Q 72.2 34 71.95 33.45 71.6 32.7 70.6 32.7 69.85 32.7 69.05 33.1 68.35 33.4 68.1 33.7 67.6 34.1 67.75 34.75 67.95 35.45 68.55 35.25 68.6 35.25 69.15 34.7 69.75 34 70.6 34.35 69.6 35.25 68.75 35.85 68.15 36.3 68.05 36.55 67.85 36.9 67.9 37.2
L 65.9 38.45
Q 65.15 38.9 65.2 39.4 65.35 39.9 66 39.9 66.4 39.85 66.9 39.45
L 69.3 37.8
Q 71 37.8 71.95 37.7 72.25 37.7 72.55 37.55 72.95 37.35 72.85 37.05 72.8 36.7 72.35 36.6 72 36.5 71.3 36.5 71.25 36.5 71.15 36.5
L 75.75 33.3
Q 76.3 32.9 76.1 32.6 75.9 32.2 75.25 32.6
M 69.4 23.4
Q 68.65 23.7 68.4 24.1 67.95 24.75 68.35 25.35 68.6 25.6 68.95 25.6 69.3 25.6 69.5 25.3
L 69.7 24.65
Q 70 24.25 70.9 24.35 71 26.2 69.8 27.45 69.35 28 69.25 28.3
L 67.5 30.35 67.5 30.4
Q 65.45 30.8 64.5 30.95 64.05 30.95 63.85 31.2 63.65 31.4 63.8 31.75 63.9 32.05 64.15 32.2 64.65 32.4 65.35 32.2
L 74.5 30.5
Q 75.2 30.4 75.5 30.1 75.75 29.9 75.8 29.65 75.8 29.35 75.6 29.15 75.45 29 74.8 29 72.9 29.2 69.65 29.9 69.25 30 68.95 30.1 69.45 29.6 70 29.1 70.25 29.15 70.6 29.1 71.25 29.05 72.65 28.65 73 28.6 73.3 28.35 73.65 28.1 73.55 27.7 73.35 27.2 72.6 27.4 71.95 27.5 71.7 27.45 73.4 25.7 74.8 23.7 75.4 22.85 74.9 22.5 74.4 22.15 73.85 22.95
L 72.2 24.9
Q 72.2 24.6 72.15 24.3 72.05 23.55 71.65 23.3
L 71.05 23.15
Q 70.3 23.1 69.4 23.4
M 64.65 23.25
Q 64.65 24.05 64.75 24.45 64.85 24.75 65.1 25.3
L 65.3 26.15
Q 65.4 26.7 65.95 27.8 65.6 27.95 65.15 27.65
L 64.2 27.25
Q 63.6 27 63.45 26.85 63.1 26.5 63 26.45 62.4 26.2 62.1 26.85 61.85 27.35 62.25 27.85 62.5 28.15 63.1 28.4 64 28.8 65.55 29.25
L 66.25 29.35
Q 66.8 29.3 67.15 28.85 67.5 28.4 67.4 27.9 67.4 27.75 66.95 26.9 66.75 26.5 66.55 25.65 66.3 24.7 66.15 24.35 65.8 23.45 65.85 23.2 66 22.6 67.1 22.25 67.6 22.1 70 21.55 71.75 21.1 72.8 20.7 73.15 20.6 73.35 20.4 73.65 20.2 73.55 19.85 73.45 19.5 73.05 19.5 72.85 19.45 72.4 19.55
L 68.45 20.45
Q 66.45 20.95 65.55 21.5 65.1 21.75 64.9 22.1 64.65 22.55 64.65 23.25
M 81 26.8
Q 81.65 26.9 81.95 26.8 82.2 26.75 82.3 26.55 82.45 26.3 82.35 26.1 82.25 25.85 81.7 25.75 79.6 25.3 78.2 25.35 77.65 25.35 77.45 25.45 77.05 25.6 76.95 26 76.85 26.55 77.4 26.8 77.65 26.95 78.3 26.95
L 81 26.8
M 82.7 30.9
Q 83.05 30.65 83.05 30.35 82.95 29.9 82.5 29.75 82.15 29.7 81.7 29.75
L 78.55 30.15
Q 78 30.15 77.75 30.4 77.5 30.65 77.5 30.95 77.5 31.3 77.9 31.5 78.15 31.6 78.65 31.6 79.85 31.6 82.05 31.1
L 82.7 30.9
M 92.4 24.65
Q 90.65 24.05 89.8 24.3 89.35 24.5 89.15 24.8 89.05 25 89.05 25.6
L 89.1 28.4 88.85 29.4
Q 88.8 29.65 88.85 30.35 88.85 30.95 88.75 31.3 88.35 30.35 87.6 29.75 87.25 29.4 86.95 29.35 86.55 29.25 86.3 29.55 86 29.9 86.4 30.4 86.55 30.65 87 31.1
L 87.55 31.8
Q 87.7 32 88.15 32.4 88.55 32.7 88.7 32.95 89.05 33.75 89.35 33.8 89.65 33.85 89.85 33.45 89.95 33.25 89.95 32.8
L 90 28.55
Q 90.25 26.65 90.25 25.75 91.2 25.75 92.95 26.5 93.2 26.55 94.35 26.55
L 97.35 26.45
Q 98.1 26.45 98.2 26.05 98.35 25.65 97.9 25.4 97.65 25.3 97.1 25.3 95.85 25.3 95.25 25.1
L 94.25 24.8
Q 93 24.75 92.4 24.65
M 79.7 146.7
Q 79 146.4 78.15 146.65 77.4 146.9 76.9 147.5 75.95 148.75 76.4 150.45 76.5 151.05 76.8 151.35 77.15 151.8 77.7 151.7 78.45 151.45 78.45 150.15 78.4 149.3 78.15 148.7
L 78.1 148.25
Q 78.1 147.95 78.55 147.85 79.1 147.75 80.05 148.65 81.85 150.65 82.2 151.1 82.6 151.6 82.85 151.55 83.25 151.5 83.25 150.95 83.25 150.85 82.9 150.3 81.7 148.55 81.05 147.75 80.3 146.95 79.7 146.7
M 66.3 118.75
Q 68.05 119.75 70.4 120.55 77 122.7 83.9 122.7 85.15 122.7 86 122.55 85.85 124.3 85.8 126.25 85.75 126.7 85.8 127.15 86.45 130.45 104.5 132 118.25 133.1 123.5 133.85 121.25 137.85 120.2 142.4 118.75 148.35 119.65 154.05 120.05 156.6 120.95 158.15 122.35 160.3 124.45 160.5 125.45 160.55 125.6 159.9 125.65 159.6 125.35 159.15 125.2 158.8 125 158.15
L 124.4 156
Q 123.9 154.05 123.8 153.45 123.6 152.1 123.6 150.25 123.4 145.7 123.85 143.1 124.3 140 126.85 134.4 129.55 134.75 130.7 133.6 132 132.2 131.75 131.45 131.9 130.7 132 129.75
L 132.1 128.9
Q 137.1 131.1 139.3 132.2 141.1 133.15 142.1 133.2 142.95 133.2 143.6 132.9 144.35 132.55 144.55 132.05 144.75 131.5 144.45 130.7 144.05 129.6 142.15 128.5
L 138.05 126.55
Q 135.95 125.7 135.05 125.35 133.65 124.9 132.5 124.75
L 132.75 121.65
Q 132.95 120 132.85 119.05 132.7 117.65 132.05 116.7 131.1 115.3 127.85 114.4 122.05 112.95 114.6 111.95 110.25 111.35 101.2 110.5 97.2 110.15 95.4 110.1 92.15 110.05 89.6 110.6 89.15 110.75 88.85 110.9 88.8 110.85 88.75 110.85 87.8 110.75 87.25 111.7 86.95 112.25 86.8 113.45 86.45 116.05 86.15 119.85 85.3 119.55 83.15 119.45 72.4 119 65.5 114.95 65.4 114.4 65.25 113.9 64.3 110.45 62.4 109.45 61.35 108.95 59.2 109 56.6 109.2 52.75 109.8 38.1 112.05 30.05 113.95 27.5 114.55 26 115.3 23.9 116.35 23.1 118.05 22.5 119.3 22.4 121.6 22.3 123.25 22.35 124.95 22.15 124.9 21.9 124.9 21.2 125 20.55 125.2 18.85 125.7 16.95 126.6 14.7 127.7 12.75 129.3 11 130.7 10.8 132.05 10.65 133.4 11.55 134.35 12.5 135.3 13.85 135.05 14.25 135 15.15 134.65 20.2 132.45 22.45 130.9 22.65 130.75 22.9 130.6 23.15 132.05 23.45 133.45 23.95 135.6 24.95 136.1 25.7 136.5 27.45 136.25 28.35 136.1 29.75 135.8
L 29.75 135.85
Q 30.35 136.75 30.6 138.05 30.8 138.9 30.95 140.65 31.35 143.75 31.45 145.4 31.6 148 31.25 150.1
L 30.1 155.6
Q 29.25 159.5 28.15 161.3 27.95 161.55 27.95 161.75 27.95 162.1 28.25 162.1
L 28.55 161.85 29.75 160.05
Q 32.35 156.1 33.1 154.1 34.1 151.4 34.2 147.15 34.25 144.75 33.85 142.7 33.25 140.05 30.95 135.55 34.55 134.8 40.6 133.4 48.75 131.4 53.75 130.85 55.3 130.7 58.35 130.4 61.05 130.1 62.95 129.7 65.3 129.1 66.1 127.85 66.75 126.95 66.75 124.8 66.75 121.75 66.3 118.75
M 61.75 123.35
Q 62.05 123.2 62.25 123.1 62.3 123.55 62.3 124 62.3 124.5 62.15 124.7 62 125.05 61.3 125.25 59.6 125.65 57.15 125.85 53.6 126.25 50 126.75 44.75 127.5 41.55 128.25 37.1 129.35 34.85 129.95 30.9 130.9 28.1 131.05
L 27.5 118.8
Q 32.95 117.8 39.5 116.65
L 39.5 116.7
Q 39.55 118.4 40.4 120 41.25 121.6 42.65 122.65 45.15 124.75 49 125.2 51.8 125.5 55.95 124.9 59.6 124.25 61.75 123.35
M 127.85 119.65
L 127.85 130.35 90.5 125.65
Q 90.5 124.35 90.6 123.25 90.75 123.3 90.9 123.35 93.4 124 98.05 124.2 100.85 124.35 102.55 124.1 105.05 123.8 107.4 122.4 109.1 121.35 110.3 120.05 111.55 118.95 111.95 117.8 112.25 117 112.3 116.35 120.15 117.5 127.85 119.65 Z"/>
</g>
</defs>

<g transform="matrix( 1, 0, 0, 1, 0,0) ">
<use xlink:href="#Layer0_0_FILL"/>
</g>
</svg>
