
<svg xmlns="http://www.w3.org/2000/svg" version="1.1" xmlns:xlink="http://www.w3.org/1999/xlink" preserveAspectRatio="none" x="0px" y="0px" width="300px" height="300px" viewBox="0 0 300 300">
<defs>
<g id="raine_0_Layer2_0_FILL">
<path fill="#330033" stroke="none" d="
M 266.3 45.55
Q 266.95 45.15 267.45 44.65 268.2 43.9 268.6 42.9 269.4 41.1 268.35 39.85 268.2 39.7 268.05 39.6 267.55 38.5 265.75 37.25 252 27.65 235.95 22.05 229.9 19.95 222.05 17.95 217.55 16.8 207.95 14.65 202.95 13.55 200.3 13.2 196.8 12.75 193.85 12.9 193.45 12 191.7 11.45 154.55 -0.2 119.75 0 101.55 0.1 84.7 3.4 83.9 3.1 82.95 3.15 81.6 3.2 79.2 4.1 78.1 4.5 77.3 4.95 76.45 5.15 75.6 5.4 75.9 5.55 76.25 5.75 75.85 6.1 75.65 6.5 75.2 7.4 75.25 8.75 75.25 9.55 75.45 11.15 75.5 11.35 75.5 12 74.65 12.15 73.6 12.5 72.95 13.35 71.45 14.15 67.25 16.35 60.55 19.15 50.1 23.55 49.5 23.85 41.15 27.55 35.4 31.7 33.95 33.35 32.5 35.15 31.6 36.05 30.7 37.05 27.95 40.1 24.6 44.65 23.9 45.6 23.15 46.6 18.65 52.9 16.35 57.55 13.9 62.6 12.35 69.05 12.6 69.5 12.7 70.15
L 12.7 70.2
Q 7.55 85.85 8.95 102.4 9.45 108.4 11.35 120.4 12.75 131.1 11.5 138.25 11.45 138.75 11.35 139.3 9.6 144.6 7.55 149.3
L 7.5 149.3
Q 6.65 150 6.5 151.25 6.5 151.3 6.5 151.4 6.2 151.9 5.95 152.3 6.3 153.55 7.1 154.25 8.1 155.2 9.7 155.2 10.3 155.2 10.9 155.1 11.55 155.15 12.4 155.25 14.85 155.5 15.6 155.45 16.2 155.4 16.7 155.3 17.6 155.55 18.75 155.4 19.55 155.3 21.2 154.85 23.5 154.1 24.35 153.55 24.35 154.4 24.4 155.35 24.4 155.4 24.25 161.25 23.85 169.1 23 172.95 22.7 174.2 22.05 176.8 21.55 179.8 21.4 180.2 21.3 180.55 20.75 181.8 20.3 182.8 20.2 183.45 20.05 184.2 20.2 185 15.1 189.2 11.35 194.7 11 195.2 10.45 195.4 9.9 195.65 9.7 195.15 1.7 203.95 0.3 213.4 -0.55 219.4 1.15 226.05 3.8 236.75 11.7 244.85 19.75 253.1 30.25 255.55 36.3 256.95 45.3 256.7 64.05 256.1 76.2 249.4 78.35 248.2 80.25 246.85
L 80.25 246.9
Q 79.9 249 81.05 250.3 81.9 251.35 83.6 251.6 84.65 251.8 86.65 251.7 97.9 251 113.95 251.05 121 251.05 133.35 251.2 133.75 251.75 134.35 251.95 135.6 252.4 136.75 251.45 137.5 250.85 138.25 249.3 139.4 246.95 139.95 244.05 142.3 244.05 144.45 243.15 144.5 244.65 145.55 246.25 146.2 247.25 147.75 248.9 148.8 249.95 149.6 250.35 149.55 250.75 149.45 251.2 177.15 250.75 195.4 246.85 197.15 246.5 198.2 245.85 205.9 253.25 215.75 255.55 221.8 256.95 230.8 256.7 249.55 256.1 261.7 249.4 269 245.35 273.95 239.15 279.2 232.45 280.45 224.8 281.25 219.65 280.3 212.4 278.35 197.15 271.3 188.55 269.45 186.3 267.15 184.35 267.15 183.3 266.6 182.05 265.7 180.3 265.35 179.4 264.95 178.45 264.75 177.05 264.55 175.45 264.4 174.65 264.25 173.75 263.95 172.25 267.85 173.05 272 172.2 276.45 171.25 280.1 168.65 282.95 166.55 283.7 164.25 284.15 162.85 283.75 161.4 283.35 159.9 282.15 159.15 281.35 158.7 280.05 158.55 278.5 158.4 277.75 158.25 275.65 157.8 273.9 156.15 272.3 154.65 271.3 152.5 270.5 150.8 269.95 148.25 269.45 145.75 269.15 144.35 269.85 137.9 271.55 128.7 273.75 117.7 274.7 112.2 278.2 92.3 276.1 79.2 275.45 75.25 274.1 70.4 273.35 67.9 271.45 61.75
L 266.3 45.55
M 165.75 101.35
Q 166.1 101.1 167.2 100.6 166.4 103.05 165.95 105.55 164.75 105.1 164.45 104.4 164.1 103.6 164.55 102.7 164.95 101.9 165.75 101.35
M 58.55 24
Q 59.5 23.55 60.5 23.2 59.6 23.6 58.7 24.1 58.6 24 58.55 24
M 56.3 24.95
Q 56.75 24.9 57.2 24.85 55.85 25.5 54.5 26.25 55.55 25.25 56.3 24.95
M 120.2 213
Q 120.25 213.05 120.3 213.05 120.4 214.5 120.15 215 119.9 215.55 118.6 216.4 117.15 217.4 116.6 218.45 103.6 224.4 92.3 233.05 93.65 230.25 94.45 227.3 96.85 224.3 99.55 221.6 102.55 218.65 104 217.1 107.6 213.25 112.35 206.1 113.6 204.3 114.35 202.85 116.55 206.5 118.3 210.45 119.2 212.5 120.2 213
M 171.05 208.85
Q 171.25 207.2 171.65 205.55 171.85 205.95 172.1 206.4 175 212.05 178.7 217 181.25 220.3 182.05 221.65 182.3 222 182.65 222.6 180.8 221.4 180.05 220.95
L 176.9 219.1
Q 174.9 217.6 173.8 216.95 172.2 216 170.7 215.9 170.25 215.15 169.35 214.6 169.7 214.2 170 213.7 170.5 212.75 170.75 211.35 170.95 209.7 171.05 208.85
M 176.4 231.3
Q 176.35 231.6 176.35 231.9 176.15 231.85 175.85 231.9 176.15 231.6 176.4 231.3 Z"/>
</g>

<g id="raine_0_Layer1_0_FILL">
<path fill="#330033" stroke="none" d="
M 266.3 45.55
Q 266.95 45.15 267.45 44.65 268.2 43.9 268.6 42.9 269.4 41.1 268.35 39.85 268.2 39.7 268.05 39.6 267.55 38.5 265.75 37.25 252 27.65 235.95 22.05 229.9 19.95 222.05 17.95 217.55 16.8 207.95 14.65 202.95 13.55 200.3 13.2 196.8 12.75 193.85 12.9 193.45 12 191.7 11.45 154.55 -0.2 119.75 0 101.55 0.1 84.7 3.4 83.9 3.1 82.95 3.15 81.6 3.2 79.2 4.1 78.1 4.5 77.3 4.95 76.45 5.15 75.6 5.4 75.9 5.55 76.25 5.75 75.85 6.1 75.65 6.5 75.2 7.4 75.25 8.75 75.25 9.55 75.45 11.15 75.5 11.35 75.5 12 74.65 12.15 73.6 12.5 72.95 13.35 71.45 14.15 67.25 16.35 60.55 19.15 50.1 23.55 49.5 23.85 41.15 27.55 35.4 31.7 33.95 33.35 32.5 35.15 31.6 36.05 30.7 37.05 27.95 40.1 24.6 44.65 23.9 45.6 23.15 46.6 18.65 52.9 16.35 57.55 13.9 62.6 12.35 69.05 12.6 69.5 12.7 70.15
L 12.7 70.2
Q 7.55 85.85 8.95 102.4 9.45 108.4 11.35 120.4 12.75 131.1 11.5 138.25 11.45 138.75 11.35 139.3 9.6 144.6 7.55 149.3
L 7.5 149.3
Q 6.65 150 6.5 151.25 6.5 151.3 6.5 151.4 6.2 151.9 5.95 152.3 6.3 153.55 7.1 154.25 8.1 155.2 9.7 155.2 10.3 155.2 10.9 155.1 11.55 155.15 12.4 155.25 14.85 155.5 15.6 155.45 16.2 155.4 16.7 155.3 17.6 155.55 18.75 155.4 19.55 155.3 21.2 154.85 23.5 154.1 24.35 153.55 24.35 154.4 24.4 155.35 24.4 155.4 24.25 161.25 23.85 169.1 23 172.95 22.7 174.2 22.05 176.8 21.55 179.8 21.4 180.2 21.3 180.55 20.75 181.8 20.3 182.8 20.2 183.45 20.05 184.2 20.2 185 15.1 189.2 11.35 194.7 11 195.2 10.45 195.4 9.9 195.65 9.7 195.15 1.7 203.95 0.3 213.4 -0.55 219.4 1.15 226.05 3.8 236.75 11.7 244.85 19.75 253.1 30.25 255.55 36.3 256.95 45.3 256.7 64.05 256.1 76.2 249.4 78.35 248.2 80.25 246.85
L 80.25 246.9
Q 79.9 249 81.05 250.3 81.9 251.35 83.6 251.6 84.65 251.8 86.65 251.7 97.9 251 113.95 251.05 121 251.05 133.35 251.2 133.75 251.75 134.35 251.95 135.6 252.4 136.75 251.45 137.5 250.85 138.25 249.3 139.4 246.95 139.95 244.05 142.3 244.05 144.45 243.15 144.5 244.65 145.55 246.25 146.2 247.25 147.75 248.9 148.8 249.95 149.6 250.35 149.55 250.75 149.45 251.2 177.15 250.75 195.4 246.85 197.15 246.5 198.2 245.85 205.9 253.25 215.75 255.55 221.8 256.95 230.8 256.7 249.55 256.1 261.7 249.4 269 245.35 273.95 239.15 279.2 232.45 280.45 224.8 281.25 219.65 280.3 212.4 278.35 197.15 271.3 188.55 269.45 186.3 267.15 184.35 267.15 183.3 266.6 182.05 265.7 180.3 265.35 179.4 264.95 178.45 264.75 177.05 264.55 175.45 264.4 174.65 264.25 173.75 263.95 172.25 267.85 173.05 272 172.2 276.45 171.25 280.1 168.65 282.95 166.55 283.7 164.25 284.15 162.85 283.75 161.4 283.35 159.9 282.15 159.15 281.35 158.7 280.05 158.55 278.5 158.4 277.75 158.25 275.65 157.8 273.9 156.15 272.3 154.65 271.3 152.5 270.5 150.8 269.95 148.25 269.45 145.75 269.15 144.35 269.85 137.9 271.55 128.7 273.75 117.7 274.7 112.2 278.2 92.3 276.1 79.2 275.45 75.25 274.1 70.4 273.35 67.9 271.45 61.75
L 266.3 45.55
M 181.75 88.95
Q 189 82.3 198.6 79.9 208.35 77.5 218.2 80 227.95 82.6 234.8 90 240.9 96.5 243.25 105.1 245.2 112.25 243.5 119.35 241.95 126.2 237.1 131.3 230.2 138.7 220.35 141.6 211.1 144.9 201.55 144.1 196.9 143.8 192.55 142.05 189 140.7 185.5 138.5 176.45 133.6 173.7 123.65 171.3 114.65 172.8 105.55 174.45 95.75 181.75 88.95
M 224.8 147.5
Q 224.95 147.45 225.15 147.4 227.15 147.4 231.4 146.9
L 242.5 145.55
Q 250.7 144.6 255.4 143.6 255.85 143.5 256.3 143.4
L 256.9 148.4
Q 256.25 148.5 255.55 148.65 248.35 150.35 237.3 152.05 227 153.65 222.5 154.35 222.7 153.85 222.95 153.3 223.55 151.75 224.2 149.5
L 224.8 147.5
M 164.95 113
Q 165.1 113 165.25 112.95 165.2 116.1 165.65 119.25 166.85 128.45 172.15 135.95 174.35 139.2 177.5 141.5 185.25 147.15 194.65 149.45 203.45 151.65 212.45 150.55 216 150.15 219.45 149.25 219 150.25 218.55 151.3 217.3 154.15 217 155.15 216.95 155.25 216.95 155.4 216.15 155.7 215.7 156.1 215.15 156.65 214.95 157.5 214.9 157.65 214.9 157.8 212.7 159.55 208.85 161.85 204.25 164.65 201.85 165.8 198.4 167.45 194.45 168.75 177.15 175.65 161 177.6 160.25 177.15 159.15 177.6 158.55 177.85 157.1 179.05 153.8 181.6 146.9 183.05 143.4 183.7 141.85 183.55 140.65 183.5 139.3 183.15
L 134.65 182.25
Q 132.05 181.75 131 180.9 130.45 180.45 129.85 179.6 129.75 179.45 129.65 179.35 129.5 178.9 129.3 178.55 128.95 177.95 128.35 177.6 127.15 176.35 125.9 176.4 125 176.5 124.3 177.2 124.1 177.4 123.95 177.6 113.05 176.9 106.85 175.9 96.2 174.2 88.3 170.65 83.85 168.75 81.25 166.25 79 165.2 77.95 164.3 77.25 163.6 76.9 163.25 76.65 163 76.45 162.85 76 160.85 75.65 159.45 75.1 157.1 74.4 154.9 78.4 154.95 82.5 154.35 91.45 153.1 99.4 148.7 107.85 144 113.9 136.55 116.35 133.5 117.65 129.85 120.8 121.2 119.6 112 118.85 106.25 116.7 101 117.6 101.2 118.3 101 118.95 100.85 119.6 100.4 119.7 100.5 119.8 100.6 123.2 103.85 129.3 107.1 139.2 112.3 147.3 112.95 149.6 113.15 153.85 113 158.3 112.85 160.35 112.95 163.7 113.15 164.95 113
M 164.55 102.7
Q 164.95 101.9 165.75 101.35 166.1 101.1 167.2 100.6 166.4 103.05 165.95 105.55 164.75 105.1 164.45 104.4 164.1 103.6 164.55 102.7
M 174.75 181.35
Q 174.95 181.05 175.45 180.85 178.35 179.7 182.5 178.9 184.9 178.45 189.75 177.75 192.4 177.3 197.7 176.2
L 209.2 173.8
Q 211.4 173.35 212.05 174.3 212.5 174.9 212.2 175.7 211.9 176.5 211.2 176.9 210.35 177.35 208.1 177.35 205.9 177.3 203.1 177.7 201.85 177.85 198.1 178.45
L 186.6 180.45
Q 180.8 181.4 176.75 182.35 175.9 182.65 175.35 182.45 175 182.35 174.8 182 174.6 181.65 174.75 181.35
M 172.85 184.25
Q 172.8 184.25 172.75 184.3 171.9 185.25 171.3 187.45 170.85 189.6 170.7 191.75 169.95 191.85 168.95 192.05 162.2 193.6 153.45 193.95 150.3 194.1 144.95 194.05 145.45 193.55 146 192.75 146.1 192.65 146.15 192.55 147.75 192.25 149.85 191.6 153.55 190.35 156.5 188.9 157.1 189 157.75 188.95 159.4 188.9 161.2 188.15 163.05 187.5 164 186.6 165.4 185.3 165.2 183.7 165.2 183.6 165.2 183.55 166.85 183.65 169 183.9 171.1 184.1 172.85 184.25
M 219.8 171.45
Q 220.25 166.6 220.8 161.9 221.25 161.45 221.7 161
L 221.75 160.95 253.05 155.4
Q 256.95 154.65 257.55 154.5 257.6 154.5 257.7 154.5 258 156.05 258.4 157 258.1 162.15 258.6 166.15 252.15 167.75 244.2 168.9 238.7 169.7 227.65 170.8
L 219.9 171.55
Q 219.85 171.55 219.8 171.55 219.8 171.5 219.8 171.45
M 219.05 184.2
Q 220.7 183.35 222.35 182.75 223.45 182.35 224.65 182 227.3 182.05 228.65 181.45 229.1 181.25 229.45 181 233.3 180.45 237.7 180.5 252 180.95 260.95 187.95 264.3 190.6 266.95 194.3 271.55 200.95 273.2 211.5 274.55 220.85 272.4 227.1 270 234.3 263 239.6 257.4 243.85 248.75 246.4 239.6 249 230.25 248.85 223.05 248.75 216.85 246.85 209.95 244.75 205.05 240.6 198.9 235.45 196.25 227.5 193.6 219.55 195.45 211.8 197.95 201.35 208.05 191.95 212.2 188.15 216.3 185.7 217.05 185.95 217.75 185.65 218.65 185.25 219.05 184.2
M 260 179.5
Q 254 176.2 247.25 174.75 253.3 173.8 259.75 172.55 260 173.8 260.3 176.3 260.55 178.6 260.85 180 260.4 179.75 260 179.5
M 58.55 24
Q 59.5 23.55 60.5 23.2 59.6 23.6 58.7 24.1 58.6 24 58.55 24
M 56.3 24.95
Q 56.75 24.9 57.2 24.85 55.85 25.5 54.5 26.25 55.55 25.25 56.3 24.95
M 58.7 87.7
Q 67.55 82.75 77.6 82.55 87.45 82.35 96.2 86.95 105 91.6 109.15 100.65 112.95 109.05 112.95 118.35 112.9 128.65 105.35 135.75 102.6 138.75 99.5 141 95.75 143.8 91.35 145.3 82.35 148.55 72.55 147.75 62.25 147.5 53.7 142.15 47.7 138.5 44.4 132.25 40.95 125.85 41 118.4 41.05 109.5 45.2 101.7 49.95 92.7 58.7 87.7
M 38.3 156.3
Q 34 156.1 31.9 155.65 29.1 155 28.1 155.1 27.95 155.1 27.8 155.15 27.55 152.65 27.3 149.85
L 27.2 148.75
Q 32 149.25 39.25 149.65 42.35 149.85 43.85 149.8 44.5 149.75 46.8 149.55 48.6 149.4 49.7 149.4 50.5 149.45 53.15 149.75 57.75 152.05 62.9 153.35 66 154.15 69.15 154.55
L 70 158.05
Q 69.45 157.95 68.85 157.9 62.8 157.45 53.6 157.05 39.95 156.4 38.3 156.3
M 28.55 169.9
Q 28.45 169.9 28.35 169.95 28.4 168.4 28.4 167.25 28.4 164.55 28.2 160.7 29.15 161 30.55 161.25 37.25 162.35 49.3 162.8 62.55 163.3 68.05 164 69.55 164.2 70.45 164.15 71 164.1 71.5 163.95
L 71.7 164.8
Q 71.55 166 72.3 167.25
L 72.4 167.6
Q 72.9 170.15 73.3 172.95 73.4 173.85 73.5 174.8 73.4 174.6 73.3 174.4 72.2 172.75 70.3 172.2 69.25 171.9 67.85 171.9 67.45 171.9 65.3 172 63.8 172.1 59.4 171.85
L 53.85 171.55
Q 42.05 170.9 34.85 170.1 30.6 169.6 28.55 169.9
M 28 177.1
Q 28.05 176.1 28.15 175.15 28.25 175.2 28.4 175.2 32.4 175.75 35.85 176.15 31.7 177.5 27.9 179.7
L 28 177.1
M 22.55 191.95
Q 29.75 185.35 36.85 182.75 43.35 180.35 52.2 180.5 64.6 180.9 73 186.2 72.95 186.45 72.9 186.65 75.4 187.05 77.6 189 79.05 190.25 79.3 191.6 80.4 192.85 81.45 194.3 86.05 200.95 87.7 211.5 89.05 220.85 86.9 227.1 84.5 234.3 77.5 239.6 71.9 243.85 63.25 246.4 54.1 249 44.75 248.85 37.55 248.75 31.35 246.85 24.45 244.75 19.55 240.6 13.4 235.45 10.75 227.5 8.1 219.55 9.95 211.8 12.45 201.35 22.55 191.95
M 79.4 182.25
Q 79.35 181.65 79.95 181.35 80.45 181.05 81.2 181 88.55 180.6 103.35 180.9 104.2 180.9 104.85 181.25 105.6 181.6 105.55 182.3 105.4 183.4 103.5 183.4 97.8 183.5 86.45 183.5 82.7 183.5 80.9 183.25 79.45 183.05 79.4 182.25
M 73.6 176.3
Q 73.7 177.65 73.7 179.1 72.85 178.65 72 178.25 72.75 177.75 73.25 177 73.5 176.65 73.6 176.3
M 108.05 184.7
Q 108.75 184.55 109.4 184.45 113.7 183.8 122.45 183.9 122.1 185.75 122.75 186.65 123.3 187.35 124.75 187.95
L 127.55 188.9
Q 130.6 191.15 133.95 192.05 136.3 192.6 139.75 192.8 139.85 192.95 139.95 193.15 140.2 193.65 140.5 194 139.2 194 137.8 193.95 131 193.8 127.65 193.65 122 193.35 117.55 192.7 116.3 192.5 115.35 192.5 114.95 191.05 114.25 189.75 113.35 187.9 112.15 187 110.85 186 108.85 185.65 108.65 185.05 108.05 184.7
M 129.8 183.2
Q 130.25 183.75 130.55 184.6 130.85 185.4 130.8 186.1 130.8 186.25 130.75 186.4 130.3 185.4 128.9 184.85 127.1 184.4 126.3 184 126.65 182.5 126.8 181.75 126.85 181.55 126.9 181.4 127.3 181.35 127.8 181.45 128.8 181.65 129.3 182.15 129.7 182.55 129.8 183.2
M 140.2 186.55
Q 140.3 186.4 140.5 186.25 141.05 185.8 141.7 185.8 142.1 185.9 143.55 185.9 144.75 185.9 145.3 186.4 146.15 187.1 145.85 188.55 145.6 188.95 145 189.5
L 143 191.35 141.6 188.2
Q 141.1 187.1 140.5 186.7 140.35 186.6 140.2 186.55
M 154.9 184.5
Q 154.6 182.55 155.25 181.8 155.75 181.2 157.35 181
L 158.9 180.8
Q 159.45 180.75 159.85 180.75 159.55 181.1 159.45 181.65 159.3 182.55 159.7 183.3 160.05 183.9 160 184.15 159.9 184.5 159.3 184.7 158.75 184.9 156.9 185.3 155.95 185.5 155.3 185.75 155.05 185.3 154.9 184.5
M 150.15 201.2
Q 150.95 201.15 151.65 201.45 152.4 201.8 152.55 202.5 152.75 203.45 151.6 204.3 151.05 204.7 149.75 205.3 151 206.55 151.4 207.5 152 209.1 151.05 210.05 150.45 210.7 148.9 210.8 146.8 210.8 144.9 210.05 143.8 209.55 143.25 209.35 142.3 209.05 141.55 209.2 141.05 209.3 140.4 209.75 139.4 210.4 139.3 210.45 138.65 210.85 138.05 210.85 137.3 210.9 136.9 210.45 136.45 210 136.6 209.2 136.7 208.45 137.25 207.9 137.6 207.5 137.75 207.3 138 206.9 137.95 206.6 137.85 206.15 137.3 205.75 136.2 205 134.75 204.35 132.85 203.7 132.55 202.8 132.35 202.15 132.75 201.45 133.15 200.8 133.9 200.55 135 200.1 136.75 200.7 138.8 201.35 139.6 201.35 140.55 201.25 141.1 200.8 141.4 200.45 141.65 199.65 141.9 198.75 142.1 198.4 142.7 197.5 144.05 197.7 145.3 197.9 145.95 198.9 146 198.95 146.55 199.95 146.85 200.55 147.25 200.8 147.75 201.2 148.65 201.25 148.9 201.25 150.15 201.2
M 143.5 221.75
Q 143.5326171875 221.701953125 143.55 221.65 144 220.95 144.2 220.6 144.5 219.95 144.55 219.45 144.55 219.05 144.25 218.25 143.75 217 142.95 216.9 142.9 217 142.45 217.1 141.9 217.15 141.55 218.25 141.25 219.15 141.3 219.65 141.4 220.3 142.05 221.4 142.136328125 221.587109375 142.2 221.7 139.3794921875 221.637890625 135.5 221.25 129.05 220.65 126.1 219.65 124.65 219.15 123.8 218.95 124.5 218.35 124.8 217.7 125.1 217 125.1 215.45
L 125.1 213.55
Q 125.65 213.6 126.25 213.6
L 139.85 214.25
Q 154.25 214.95 162.2 215.05 162.15 216.1 162.55 216.75 162.9 217.35 163.65 217.8 163.8 217.9 164.2 218.1 163.3 218.55 162.8 218.8 160.9 219.8 158.25 220.35 156.75 220.65 153.5 221 147.3828125 221.711328125 143.5 221.75
M 137.75 233.6
Q 138.3 233.7 138.55 234.35 138.65 234.7 138.65 235.45
L 138.55 237.6
Q 138.45 240.1 139.3 241.05 139.35 241.1 139.8 241.6 140.05 241.9 140.15 242.15 140.3 242.65 139.95 243.15 139.6 243.6 139.05 243.65 137.9 243.75 137.45 242.55 137.35 242.3 137.2 241.3 136.85 239.95 136.75 239.25 136.95 237.3 136.8 236.35 136.65 234.7 136.65 234.65 136.85 233.55 137.75 233.6
M 132.25 227.15
Q 132.7 228.15 132.35 229 131.85 230.05 130.45 230.3 129.5 230.5 128.1 230.2 123 229.4 117.95 227.55 116.45 227 115.7 226.35 114.5 225.3 114.7 224.1 114.85 223.15 115.8 222.6 116.7 222 117.7 222.1 118.55 222.15 119.65 222.55 120.25 222.8 121.45 223.35 124.2 224.55 127.15 224.95 129 225.15 129.1 225.2 130.2 225.35 130.9 225.75 131.8 226.25 132.25 227.15
M 136.2 227.85
Q 136.45 226.85 136.4 226.1 140.25 226.45 143 226.45 145.9 226.5 149.4 226.15 149.3 226.85 149.65 227.85 150.35 229.85 150.3 230.55 148.05 232.45 142.9 232.05 139.7 231.85 135.45 231.25 135.4 230.55 135.7 229.55 136.05 228.45 136.2 227.85
M 155.2 225.2
Q 156.9 224.6 160.35 223.5 161.85 223 163.05 222.55 162.6 223.7 162.7 224.9 162.9 226.9 164.1 228.25 163 228.55 161.5 228.95 157.7 229.95 155.3 230.2 153.15 230.4 152.4 229.3 152 228.75 152.15 228 152.25 227.25 152.75 226.65 153.4 225.9 155.2 225.2
M 150.55 233.15
Q 150.8 233.6 150.6 234.35 149.9 238.75 147.9 242.55 147.45 243.35 147 243.5 146.55 243.65 146.05 243.3 145.6 243 145.5 242.5 145.3 241.55 145.9 240.6 146.65 239.45 146.85 238.8 147 238.5 147.1 237.9 147.2 237.15 147.25 237
L 148.55 233.75
Q 148.85 233.05 149.15 232.85 149.45 232.6 149.9 232.7 150.35 232.8 150.55 233.15
M 112.35 206.1
Q 113.6 204.3 114.35 202.85 116.55 206.5 118.3 210.45 119.2 212.5 120.2 213 120.25 213.05 120.3 213.05 120.4 214.5 120.15 215 119.9 215.55 118.6 216.4 117.15 217.4 116.6 218.45 103.6 224.4 92.3 233.05 93.65 230.25 94.45 227.3 96.85 224.3 99.55 221.6 102.55 218.65 104 217.1 107.6 213.25 112.35 206.1
M 171.05 208.85
Q 171.25 207.2 171.65 205.55 171.85 205.95 172.1 206.4 175 212.05 178.7 217 181.25 220.3 182.05 221.65 182.3 222 182.65 222.6 180.8 221.4 180.05 220.95
L 176.9 219.1
Q 174.9 217.6 173.8 216.95 172.2 216 170.7 215.9 170.25 215.15 169.35 214.6 169.7 214.2 170 213.7 170.5 212.75 170.75 211.35 170.95 209.7 171.05 208.85
M 168.15 222.4
Q 168.3 222.05 168.65 221.75 169.1 221.45 169.3 221.25 169.5 221.05 169.6 221.05
L 169.9 221.2 170.3 221.55
Q 170.7 222.1 170.25 223.05 170.05 223.5 169.6 224.45 169.5 224.9 169.35 225.05
L 168.9 225.35 168.15 225.6
Q 167.85 225.7 167.75 225.65 167.45 225.55 167.45 224.95
L 167.45 224.05
Q 167.45 223.6 167.6 223.4
L 167.9 223.1
Q 168.05 222.6 168.15 222.4
M 177.55 228.7
Q 179.1 227.4 181.2 227.4 181.6 228.65 181.45 229.9 181.45 230.5 181.05 230.7 180.6 230.95 179.95 230.3 178.8 229.45 177.55 229.4 177.4 229.55 177.25 229.7 177.25 229.55 177.3 229.4 177.3 229.15 177.3 228.9 177.45 228.8 177.55 228.7
M 172.8 228.05
Q 173.55 227.1 174.05 225.8 174.3 225.65 174.55 225.65 174.8 226.15 174.95 226.7 174.4 227.4 174.35 228.05 174.25 228.55 174.55 229.1 174.45 229.15 174.3 229.15
L 173.85 229.2
Q 173.15 229.3 172.95 229.15 172.9 228.6 172.8 228.05
M 176.4 231.3
Q 176.35 231.6 176.35 231.9 176.15 231.85 175.85 231.9 176.15 231.6 176.4 231.3
M 144.55 205.25
Q 144.65 204.9 144.4 204.65
L 144.3 204.55 144.1 204.5
Q 143.45 204.35 141.95 204.25 141.95 204.4 142.15 204.6
L 142.8 205 143.7 205.35
Q 144 205.4 144.55 205.25
M 151.9 172.4
L 154.3 167.55
Q 154.9 166.45 155 165.8 155.05 165.55 155.05 165.35 155.2 164.95 155.15 164.5 155 163.3 153.65 162.75 152.9 162.45 151.3 162.45
L 137.65 162.45
Q 137.3 162.2 136.85 162.1 135.95 161.85 135 162.2 134.1 162.5 133.55 163.3 132.65 164.7 133.15 166.55 133.4 167.55 134.5 169.6
L 138.9 177.4
Q 139.9 179.1 140.7 179.65 141.05 179.85 141.35 179.95 141.55 180.2 141.75 180.35 143.35 181.75 145.1 181.3 146.1 181 147.2 179.8 149.2 177.7 151.9 172.4
M 141.9 166.9
Q 145.45 166.75 149.3 166.8 147.2 171.35 144.9 175.1 144.4 175.95 143.8 176.15 142.75 174.9 141.7 172.65
L 140.45 170.1
Q 140.5 169.85 140.55 169.75 141.2 168.5 141.5 167.9 141.75 167.35 141.9 166.9
M 138.95 167.05
Q 139.4 167 139.9 167 139.85 167.05 139.85 167.1 139.7 167.45 139.45 168.1
L 138.95 167.05 Z"/>

<path fill="#99FFCC" stroke="none" d="
M 174.05 225.8
Q 173.55 227.1 172.8 228.05 172.9 228.6 172.95 229.15 173.15 229.3 173.85 229.2
L 174.3 229.15
Q 174.45 229.15 174.55 229.1 174.25 228.55 174.35 228.05 174.4 227.4 174.95 226.7 174.8 226.15 174.55 225.65 174.3 225.65 174.05 225.8
M 181.2 227.4
Q 179.1 227.4 177.55 228.7 177.45 228.8 177.3 228.9 177.3 229.15 177.3 229.4 177.25 229.55 177.25 229.7 177.4 229.55 177.55 229.4 178.8 229.45 179.95 230.3 180.6 230.95 181.05 230.7 181.45 230.5 181.45 229.9 181.6 228.65 181.2 227.4
M 168.65 221.75
Q 168.3 222.05 168.15 222.4 168.05 222.6 167.9 223.1
L 167.6 223.4
Q 167.45 223.6 167.45 224.05
L 167.45 224.95
Q 167.45 225.55 167.75 225.65 167.85 225.7 168.15 225.6
L 168.9 225.35 169.35 225.05
Q 169.5 224.9 169.6 224.45 170.05 223.5 170.25 223.05 170.7 222.1 170.3 221.55
L 169.9 221.2 169.6 221.05
Q 169.5 221.05 169.3 221.25 169.1 221.45 168.65 221.75
M 28.15 175.15
Q 28.05 176.1 28 177.1
L 27.9 179.7
Q 31.7 177.5 35.85 176.15 32.4 175.75 28.4 175.2 28.25 175.2 28.15 175.15
M 31.9 155.65
Q 34 156.1 38.3 156.3 39.95 156.4 53.6 157.05 62.8 157.45 68.85 157.9 69.45 157.95 70 158.05
L 69.15 154.55
Q 66 154.15 62.9 153.35 57.75 152.05 53.15 149.75 50.5 149.45 49.7 149.4 48.6 149.4 46.8 149.55 44.5 149.75 43.85 149.8 42.35 149.85 39.25 149.65 32 149.25 27.2 148.75
L 27.3 149.85
Q 27.55 152.65 27.8 155.15 27.95 155.1 28.1 155.1 29.1 155 31.9 155.65
M 220.8 161.9
Q 220.25 166.6 219.8 171.45 219.8 171.5 219.8 171.55 219.85 171.55 219.9 171.55
L 227.65 170.8
Q 238.7 169.7 244.2 168.9 252.15 167.75 258.6 166.15 258.1 162.15 258.4 157 258 156.05 257.7 154.5 257.6 154.5 257.55 154.5 256.95 154.65 253.05 155.4
L 221.75 160.95 221.7 161
Q 221.25 161.45 220.8 161.9 Z"/>

<path fill="#FFFFCC" stroke="none" d="
M 150.6 234.35
Q 150.8 233.6 150.55 233.15 150.35 232.8 149.9 232.7 149.45 232.6 149.15 232.85 148.85 233.05 148.55 233.75
L 147.25 237
Q 147.2 237.15 147.1 237.9 147 238.5 146.85 238.8 146.65 239.45 145.9 240.6 145.3 241.55 145.5 242.5 145.6 243 146.05 243.3 146.55 243.65 147 243.5 147.45 243.35 147.9 242.55 149.9 238.75 150.6 234.35
M 160.35 223.5
Q 156.9 224.6 155.2 225.2 153.4 225.9 152.75 226.65 152.25 227.25 152.15 228 152 228.75 152.4 229.3 153.15 230.4 155.3 230.2 157.7 229.95 161.5 228.95 163 228.55 164.1 228.25 162.9 226.9 162.7 224.9 162.6 223.7 163.05 222.55 161.85 223 160.35 223.5
M 136.4 226.1
Q 136.45 226.85 136.2 227.85 136.05 228.45 135.7 229.55 135.4 230.55 135.45 231.25 139.7 231.85 142.9 232.05 148.05 232.45 150.3 230.55 150.35 229.85 149.65 227.85 149.3 226.85 149.4 226.15 145.9 226.5 143 226.45 140.25 226.45 136.4 226.1
M 132.35 229
Q 132.7 228.15 132.25 227.15 131.8 226.25 130.9 225.75 130.2 225.35 129.1 225.2 129 225.15 127.15 224.95 124.2 224.55 121.45 223.35 120.25 222.8 119.65 222.55 118.55 222.15 117.7 222.1 116.7 222 115.8 222.6 114.85 223.15 114.7 224.1 114.5 225.3 115.7 226.35 116.45 227 117.95 227.55 123 229.4 128.1 230.2 129.5 230.5 130.45 230.3 131.85 230.05 132.35 229
M 138.55 234.35
Q 138.3 233.7 137.75 233.6 136.85 233.55 136.65 234.65 136.65 234.7 136.8 236.35 136.95 237.3 136.75 239.25 136.85 239.95 137.2 241.3 137.35 242.3 137.45 242.55 137.9 243.75 139.05 243.65 139.6 243.6 139.95 243.15 140.3 242.65 140.15 242.15 140.05 241.9 139.8 241.6 139.35 241.1 139.3 241.05 138.45 240.1 138.55 237.6
L 138.65 235.45
Q 138.65 234.7 138.55 234.35
M 151.65 201.45
Q 150.95 201.15 150.15 201.2 148.9 201.25 148.65 201.25 147.75 201.2 147.25 200.8 146.85 200.55 146.55 199.95 146 198.95 145.95 198.9 145.3 197.9 144.05 197.7 142.7 197.5 142.1 198.4 141.9 198.75 141.65 199.65 141.4 200.45 141.1 200.8 140.55 201.25 139.6 201.35 138.8 201.35 136.75 200.7 135 200.1 133.9 200.55 133.15 200.8 132.75 201.45 132.35 202.15 132.55 202.8 132.85 203.7 134.75 204.35 136.2 205 137.3 205.75 137.85 206.15 137.95 206.6 138 206.9 137.75 207.3 137.6 207.5 137.25 207.9 136.7 208.45 136.6 209.2 136.45 210 136.9 210.45 137.3 210.9 138.05 210.85 138.65 210.85 139.3 210.45 139.4 210.4 140.4 209.75 141.05 209.3 141.55 209.2 142.3 209.05 143.25 209.35 143.8 209.55 144.9 210.05 146.8 210.8 148.9 210.8 150.45 210.7 151.05 210.05 152 209.1 151.4 207.5 151 206.55 149.75 205.3 151.05 204.7 151.6 204.3 152.75 203.45 152.55 202.5 152.4 201.8 151.65 201.45
M 144.4 204.65
Q 144.65 204.9 144.55 205.25 144 205.4 143.7 205.35
L 142.8 205 142.15 204.6
Q 141.95 204.4 141.95 204.25 143.45 204.35 144.1 204.5
L 144.3 204.55 144.4 204.65
M 155.25 181.8
Q 154.6 182.55 154.9 184.5 155.05 185.3 155.3 185.75 155.95 185.5 156.9 185.3 158.75 184.9 159.3 184.7 159.9 184.5 160 184.15 160.05 183.9 159.7 183.3 159.3 182.55 159.45 181.65 159.55 181.1 159.85 180.75 159.45 180.75 158.9 180.8
L 157.35 181
Q 155.75 181.2 155.25 181.8
M 140.5 186.25
Q 140.3 186.4 140.2 186.55 140.35 186.6 140.5 186.7 141.1 187.1 141.6 188.2
L 143 191.35 145 189.5
Q 145.6 188.95 145.85 188.55 146.15 187.1 145.3 186.4 144.75 185.9 143.55 185.9 142.1 185.9 141.7 185.8 141.05 185.8 140.5 186.25
M 130.55 184.6
Q 130.25 183.75 129.8 183.2 129.7 182.55 129.3 182.15 128.8 181.65 127.8 181.45 127.3 181.35 126.9 181.4 126.85 181.55 126.8 181.75 126.65 182.5 126.3 184 127.1 184.4 128.9 184.85 130.3 185.4 130.75 186.4 130.8 186.25 130.8 186.1 130.85 185.4 130.55 184.6
M 79.95 181.35
Q 79.35 181.65 79.4 182.25 79.45 183.05 80.9 183.25 82.7 183.5 86.45 183.5 97.8 183.5 103.5 183.4 105.4 183.4 105.55 182.3 105.6 181.6 104.85 181.25 104.2 180.9 103.35 180.9 88.55 180.6 81.2 181 80.45 181.05 79.95 181.35
M 77.6 82.55
Q 67.55 82.75 58.7 87.7 49.95 92.7 45.2 101.7 41.05 109.5 41 118.4 40.95 125.85 44.4 132.25 47.7 138.5 53.7 142.15 62.25 147.5 72.55 147.75 82.35 148.55 91.35 145.3 95.75 143.8 99.5 141 102.6 138.75 105.35 135.75 112.9 128.65 112.95 118.35 112.95 109.05 109.15 100.65 105 91.6 96.2 86.95 87.45 82.35 77.6 82.55
M 175.45 180.85
Q 174.95 181.05 174.75 181.35 174.6 181.65 174.8 182 175 182.35 175.35 182.45 175.9 182.65 176.75 182.35 180.8 181.4 186.6 180.45
L 198.1 178.45
Q 201.85 177.85 203.1 177.7 205.9 177.3 208.1 177.35 210.35 177.35 211.2 176.9 211.9 176.5 212.2 175.7 212.5 174.9 212.05 174.3 211.4 173.35 209.2 173.8
L 197.7 176.2
Q 192.4 177.3 189.75 177.75 184.9 178.45 182.5 178.9 178.35 179.7 175.45 180.85
M 139.9 167
Q 139.4 167 138.95 167.05
L 139.45 168.1
Q 139.7 167.45 139.85 167.1 139.85 167.05 139.9 167
M 198.6 79.9
Q 189 82.3 181.75 88.95 174.45 95.75 172.8 105.55 171.3 114.65 173.7 123.65 176.45 133.6 185.5 138.5 189 140.7 192.55 142.05 196.9 143.8 201.55 144.1 211.1 144.9 220.35 141.6 230.2 138.7 237.1 131.3 241.95 126.2 243.5 119.35 245.2 112.25 243.25 105.1 240.9 96.5 234.8 90 227.95 82.6 218.2 80 208.35 77.5 198.6 79.9 Z"/>

<path fill="#F19369" stroke="none" d="
M 143.55 221.65
Q 143.5326171875 221.701953125 143.5 221.75 147.3828125 221.711328125 153.5 221 156.75 220.65 158.25 220.35 160.9 219.8 162.8 218.8 163.3 218.55 164.2 218.1 163.8 217.9 163.65 217.8 162.9 217.35 162.55 216.75 162.15 216.1 162.2 215.05 154.25 214.95 139.85 214.25
L 126.25 213.6
Q 125.65 213.6 125.1 213.55
L 125.1 215.45
Q 125.1 217 124.8 217.7 124.5 218.35 123.8 218.95 124.65 219.15 126.1 219.65 129.05 220.65 135.5 221.25 139.3794921875 221.637890625 142.2 221.7 142.136328125 221.587109375 142.05 221.4 141.4 220.3 141.3 219.65 141.25 219.15 141.55 218.25 141.9 217.15 142.45 217.1 142.9 217 142.95 216.9 143.75 217 144.25 218.25 144.55 219.05 144.55 219.45 144.5 219.95 144.2 220.6 144 220.95 143.55 221.65
M 109.4 184.45
Q 108.75 184.55 108.05 184.7 108.65 185.05 108.85 185.65 110.85 186 112.15 187 113.35 187.9 114.25 189.75 114.95 191.05 115.35 192.5 116.3 192.5 117.55 192.7 122 193.35 127.65 193.65 131 193.8 137.8 193.95 139.2 194 140.5 194 140.2 193.65 139.95 193.15 139.85 192.95 139.75 192.8 136.3 192.6 133.95 192.05 130.6 191.15 127.55 188.9
L 124.75 187.95
Q 123.3 187.35 122.75 186.65 122.1 185.75 122.45 183.9 113.7 183.8 109.4 184.45
M 36.85 182.75
Q 29.75 185.35 22.55 191.95 12.45 201.35 9.95 211.8 8.1 219.55 10.75 227.5 13.4 235.45 19.55 240.6 24.45 244.75 31.35 246.85 37.55 248.75 44.75 248.85 54.1 249 63.25 246.4 71.9 243.85 77.5 239.6 84.5 234.3 86.9 227.1 89.05 220.85 87.7 211.5 86.05 200.95 81.45 194.3 80.4 192.85 79.3 191.6 79.05 190.25 77.6 189 75.4 187.05 72.9 186.65 72.95 186.45 73 186.2 64.6 180.9 52.2 180.5 43.35 180.35 36.85 182.75
M 222.35 182.75
Q 220.7 183.35 219.05 184.2 218.65 185.25 217.75 185.65 217.05 185.95 216.3 185.7 212.2 188.15 208.05 191.95 197.95 201.35 195.45 211.8 193.6 219.55 196.25 227.5 198.9 235.45 205.05 240.6 209.95 244.75 216.85 246.85 223.05 248.75 230.25 248.85 239.6 249 248.75 246.4 257.4 243.85 263 239.6 270 234.3 272.4 227.1 274.55 220.85 273.2 211.5 271.55 200.95 266.95 194.3 264.3 190.6 260.95 187.95 252 180.95 237.7 180.5 233.3 180.45 229.45 181 229.1 181.25 228.65 181.45 227.3 182.05 224.65 182 223.45 182.35 222.35 182.75
M 172.75 184.3
Q 172.8 184.25 172.85 184.25 171.1 184.1 169 183.9 166.85 183.65 165.2 183.55 165.2 183.6 165.2 183.7 165.4 185.3 164 186.6 163.05 187.5 161.2 188.15 159.4 188.9 157.75 188.95 157.1 189 156.5 188.9 153.55 190.35 149.85 191.6 147.75 192.25 146.15 192.55 146.1 192.65 146 192.75 145.45 193.55 144.95 194.05 150.3 194.1 153.45 193.95 162.2 193.6 168.95 192.05 169.95 191.85 170.7 191.75 170.85 189.6 171.3 187.45 171.9 185.25 172.75 184.3
M 165.75 101.35
Q 164.95 101.9 164.55 102.7 164.1 103.6 164.45 104.4 164.75 105.1 165.95 105.55 166.4 103.05 167.2 100.6 166.1 101.1 165.75 101.35
M 165.25 112.95
Q 165.1 113 164.95 113 163.7 113.15 160.35 112.95 158.3 112.85 153.85 113 149.6 113.15 147.3 112.95 139.2 112.3 129.3 107.1 123.2 103.85 119.8 100.6 119.7 100.5 119.6 100.4 118.95 100.85 118.3 101 117.6 101.2 116.7 101 118.85 106.25 119.6 112 120.8 121.2 117.65 129.85 116.35 133.5 113.9 136.55 107.85 144 99.4 148.7 91.45 153.1 82.5 154.35 78.4 154.95 74.4 154.9 75.1 157.1 75.65 159.45 76 160.85 76.45 162.85 76.65 163 76.9 163.25 77.25 163.6 77.95 164.3 79 165.2 81.25 166.25 83.85 168.75 88.3 170.65 96.2 174.2 106.85 175.9 113.05 176.9 123.95 177.6 124.1 177.4 124.3 177.2 125 176.5 125.9 176.4 127.15 176.35 128.35 177.6 128.95 177.95 129.3 178.55 129.5 178.9 129.65 179.35 129.75 179.45 129.85 179.6 130.45 180.45 131 180.9 132.05 181.75 134.65 182.25
L 139.3 183.15
Q 140.65 183.5 141.85 183.55 143.4 183.7 146.9 183.05 153.8 181.6 157.1 179.05 158.55 177.85 159.15 177.6 160.25 177.15 161 177.6 177.15 175.65 194.45 168.75 198.4 167.45 201.85 165.8 204.25 164.65 208.85 161.85 212.7 159.55 214.9 157.8 214.9 157.65 214.95 157.5 215.15 156.65 215.7 156.1 216.15 155.7 216.95 155.4 216.95 155.25 217 155.15 217.3 154.15 218.55 151.3 219 150.25 219.45 149.25 216 150.15 212.45 150.55 203.45 151.65 194.65 149.45 185.25 147.15 177.5 141.5 174.35 139.2 172.15 135.95 166.85 128.45 165.65 119.25 165.2 116.1 165.25 112.95
M 154.3 167.55
L 151.9 172.4
Q 149.2 177.7 147.2 179.8 146.1 181 145.1 181.3 143.35 181.75 141.75 180.35 141.55 180.2 141.35 179.95 141.05 179.85 140.7 179.65 139.9 179.1 138.9 177.4
L 134.5 169.6
Q 133.4 167.55 133.15 166.55 132.65 164.7 133.55 163.3 134.1 162.5 135 162.2 135.95 161.85 136.85 162.1 137.3 162.2 137.65 162.45
L 151.3 162.45
Q 152.9 162.45 153.65 162.75 155 163.3 155.15 164.5 155.2 164.95 155.05 165.35 155.05 165.55 155 165.8 154.9 166.45 154.3 167.55 Z"/>

<path fill="#FFCCFF" stroke="none" d="
M 28.35 169.95
Q 28.45 169.9 28.55 169.9 30.6 169.6 34.85 170.1 42.05 170.9 53.85 171.55
L 59.4 171.85
Q 63.8 172.1 65.3 172 67.45 171.9 67.85 171.9 69.25 171.9 70.3 172.2 72.2 172.75 73.3 174.4 73.4 174.6 73.5 174.8 73.4 173.85 73.3 172.95 72.9 170.15 72.4 167.6
L 72.3 167.25
Q 71.55 166 71.7 164.8
L 71.5 163.95
Q 71 164.1 70.45 164.15 69.55 164.2 68.05 164 62.55 163.3 49.3 162.8 37.25 162.35 30.55 161.25 29.15 161 28.2 160.7 28.4 164.55 28.4 167.25 28.4 168.4 28.35 169.95
M 247.25 174.75
Q 254 176.2 260 179.5 260.4 179.75 260.85 180 260.55 178.6 260.3 176.3 260 173.8 259.75 172.55 253.3 173.8 247.25 174.75
M 225.15 147.4
Q 224.95 147.45 224.8 147.5
L 224.2 149.5
Q 223.55 151.75 222.95 153.3 222.7 153.85 222.5 154.35 227 153.65 237.3 152.05 248.35 150.35 255.55 148.65 256.25 148.5 256.9 148.4
L 256.3 143.4
Q 255.85 143.5 255.4 143.6 250.7 144.6 242.5 145.55
L 231.4 146.9
Q 227.15 147.4 225.15 147.4 Z"/>

<path fill="#CC0099" stroke="none" d="
M 149.3 166.8
Q 145.45 166.75 141.9 166.9 141.75 167.35 141.5 167.9 141.2 168.5 140.55 169.75 140.5 169.85 140.45 170.1
L 141.7 172.65
Q 142.75 174.9 143.8 176.15 144.4 175.95 144.9 175.1 147.2 171.35 149.3 166.8 Z"/>
</g>

<g id="raine_0_Layer0_0_FILL">
<path fill="#FFCCFF" stroke="none" d="
M 75.1 154.35
Q 74.4 154.65 74.05 154.55 73.6 154.4 73.25 153.8 72.15 152.15 71.25 151.65 70.6 151.25 69.8 151.25 69 151.2 68.4 151.6 67.4 152.35 67.5 153.9 67.55 154.85 68.2 156.3 68.55 157.1 68.4 157.45 68.2 157.8 67.75 158.1 65.05 159.7 63.15 160.55 61.3 161.4 60.8 162.15 60.3 162.85 60.4 163.75 60.45 164.65 61.05 165.3 61.8 166.05 63.1 166.1 64.2 166.15 65.35 165.65 66 165.4 67.45 164.6 68.7 163.85 69.5 163.6 70 164.85 70.05 166.85 70.05 168 70.1 170.25 70.2 171.45 70.55 172.1 71.1 173.1 72.05 173.25 73.35 173.4 74.85 171.3
L 79.1 165.05
Q 79.55 164.5 79.85 164.5 80.1 164.45 80.55 164.8 83.4 167.05 86.95 167.8 88.3 168.1 89.05 167.75 90.2 167.15 90.3 165.5 90.5 163.75 89.3 163 88.8 162.65 88 162.55 87.05 162.5 86.6 162.45 84.7 162.25 83.2 160.95 82.85 160.7 82.85 160.4 82.85 160.2 83.05 159.9 84.35 158.2 86.05 156.55 87.65 155.05 87.9 154.05 88.1 153.15 87.6 152.3 87.1 151.4 86.25 151.1 85.2 150.75 83.45 151.25 78.8 152.55 75.1 154.35
M 74.45 160.8
Q 74.65 160.75 74.9 160.85
L 75.3 161.15 75.8 161.4
Q 76.15 161.65 76.15 161.85 76.25 162.2 75.85 162.5
L 74.55 164 74.3 163.9
Q 74.2 162.8 74.35 162.3
L 74.4 162 74.2 161.15
Q 74.3 160.85 74.45 160.8 Z"/>

<path fill="#99FFCC" stroke="none" d="
M 209.8 146.85
Q 209.25 145.6 208.1 145.5 207 145.45 205.7 147.1
L 203.05 150.5
Q 202.5 151.15 202.15 151.25 201.9 151.35 201.15 151.2 198 150.5 194.3 150.5 192.4 150.5 191.75 151.4 191.35 152 191.55 152.8 191.7 153.55 192.3 154.05 193.05 154.75 195 155.25 196.9 155.75 197.7 156.45 194.85 158.85 193 159.7 190.55 160.75 190.2 161 189.5 161.5 189.15 162.2 188.75 162.95 188.95 163.65 189.25 164.85 190.65 165.3 191.45 165.55 193.1 165.45 197.45 165.2 205.8 163.7 205.95 164.3 205.95 165.4 206 166.6 206.1 167.1 206.2 168 206.7 168.7 207.25 169.45 208.05 169.65 208.75 169.85 209.45 169.45 210.15 169.05 210.55 168.4 211.2 167.4 211.2 165.45
L 211.15 163.95
Q 211.1 163.05 211.2 162.45 215.05 162.3 218.2 160.75 219.85 160 220.5 159 221.15 158.05 220.9 156.8 220.7 155.55 219.75 154.85 219 154.3 216.85 154
L 211.5 153.35
Q 210.9 153.25 210.7 153.05 210.45 152.75 210.45 152.25
L 210.25 149.05
Q 210.15 147.55 209.8 146.85
M 202.3 159.45
Q 201.6 159.55 201.2 159.5
L 201.95 158.4
Q 202.2 158.05 202.35 158 202.6 157.85 203.05 157.95
L 205.7 158.25 205.8 158.65
Q 205.35 158.95 204.65 159.05 203.8 159.15 203.35 159.2 202.65 159.35 202.3 159.45 Z"/>
</g>
</defs>

<g transform="matrix( 1, 0, 0, 1, 8.35,19.9) ">
<g transform="matrix( 1, 0, 0, 1, 0,0) ">
<use xlink:href="#raine_0_Layer2_0_FILL"/>
</g>

<g transform="matrix( 1, 0, 0, 1, 0,0) ">
<use xlink:href="#raine_0_Layer1_0_FILL"/>
</g>

<g transform="matrix( 1, 0, 0, 1, 0,0) ">
<use xlink:href="#raine_0_Layer0_0_FILL"/>
</g>
</g>
</svg>
