
<svg xmlns="http://www.w3.org/2000/svg" version="1.1" xmlns:xlink="http://www.w3.org/1999/xlink" preserveAspectRatio="none" x="0px" y="0px" width="150px" height="150px" viewBox="0 0 150 150">
<defs>
<g id="Layer0_0_FILL">
<path fill="#FFFFFF" stroke="none" d="
M 67.9 -0.65
Q 62.85 -0.7 59 -0.25 56.6 0 52 0.7 48.45 1.3 46.45 1.65
L 46.45 1.7
Q 45.65 1.85 45.1 2 43.9 2.1 42.95 2.2 37.35 2.95 29.8 6.1 11.8 13.75 4.6 25.9 4 27.05 2.75 29.4 1.6 31.65 0.85 32.8 -0.5 34.9 -0.65 36 -0.8 36.9 -0.45 37.75 -0.1 38.6 0.7 38.95 1.7 39.4 3 38.7 3.1 38.7 5.2 37.3 6.1 36.7 7.3 36.25 6.7 36.7 6.25 37.2 4.2 39.2 1.8 42.45 -1.3 47 -3.4 51.6 -3.8 54.05 -4.1 56.25 -5.25 58.95 -6.05 61.15 -9.4 71.25 -9.6 82 -9.8 92.75 -6.8 102.95 -5.9 106.4 -3.9 106.25 -3.15 106.2 -2.55 105.55 -2.35 106.25 -2.2 106.9 -2.15 106.85 -2.05 106.75 -1.6 107.1 -1.1 107.35 -1 107.3 -0.85 107.2 -0.35 112.05 0.7 117.7 2.3 126 5 131.8 8.25 139.05 13.8 143.4 14.85 144.3 17.3 145.9 17.9 146.25 18.2 146.2 18.2 146.45 18.2 146.7 18.3 147.8 18.45 150 18.6 151.9 19 153.2 19.35 154.45 20.1 155.25 20.9 156.25 21.95 156.2 22.95 156.2 24.5 154.9
L 27.15 152.7
Q 27.7 152.25 28.2 152 28.8 157.2 31.3 161.05 32.55 162.95 34.55 164.9 37.75 167.65 41 168.7 44.95 169.95 48.4 168.8 51.3 167.75 53.7 164.7 55 163.15 56.15 160.95 56.6 162.5 56.85 163.65 57.8 168.05 56.25 171.05 55.2 172.9 55.15 173.4 55.05 174.15 55.45 174.9 55.9 175.65 56.55 176 57.35 176.35 58.4 176.2 59 176.1 60.2 175.8 76.75 170.5 90.95 166.35 96.6 164.75 99.6 164.1 103.4 163.3 108.45 162.7 110.2 162.5 117.3 161.85 120.4 161.5 121.65 160.45 123 159.35 123.45 156.75 123.85 154.8 123.8 153 125.15 153.3 126.6 153.3 129 153.35 130.9 152.25 132.35 151.5 134.3 149.5 139.35 143.9 140.95 136.35 141.35 136.8 141.8 136.35 142.1 136.15 142.45 135.65 143.15 134.85 145.25 133.9 145.7 133.7 146.05 133.75 146.6 133.75 147.15 134.5 148.75 136.5 150.4 136.3 151.5 136.15 152 135.25 152.55 134.3 152.2 133.3 152.05 132.85 151.7 132.35 151.25 131.8 151.05 131.45 150.75 130.95 150.1 128.9 149.4 126.15 149.4 125.15 149.45 123.3 149.4 122.4 149.4 121.9 149.2 120.95
L 148.45 115.5
Q 148.25 114.45 147.95 114.05 147.9 113.95 147.85 113.85 147.35 111.55 146.8 108.8 146.9 107.8 146.9 106.7 147.05 102.8 147.1 102.55 147.25 100.7 147.75 98.8 147.2 98.7 146.65 98.4 146.7 98.15 146.75 97.8 147.5 95.2 148.2 89 148.9 89.5 149.7 89.75 150.5 89.95 150.8 90.05 150.95 90.15 151.25 90.35 151.6 90.7 152.05 90.95 152.9 91.4 153.9 91.3 154.9 91.15 155.55 90.5 156.85 89.25 156.7 86 156.6 82.5 155.25 69.3 154.6 62.75 154.55 57.85 154.65 57.3 154.7 56.85 154.65 55.7 154.55 54.65 154.6 53.55 154.65 52.6 154.75 51.25 154.8 50.85 154.75 50.5 153.05 43.25 151.3 35.9 150.05 34.25 146.85 26.35 141.25 19.45 135.05 11.75 127.15 7 127.75 6.65 128.25 6.2 129.1 5.3 128.95 4.2 128.7 2.25 125.2 1 118.1 -1.7 114.4 -2.45 110.3 -3.2 103.3 -3.1 102.5 -3.15 101.7 -3.1 95.05 -3.05 86.7 -2.4 79.15 -1.85 75.05 -0.4 74.4 -0.2 73.95 0.1 71.55 -0.65 67.9 -0.65
M 121.75 9.45
Q 131.2 14.45 137.9 22.85 144.75 31.45 147 41.3 147.1 41.85 148.5 48.7
L 148.35 47.15
Q 148.7 50 148.75 51.8 149 54.95 149.25 68.45 149.35 72 149.5 75.1 149.55 77.4 149.6 78.25 149.65 78.55 149.7 79 149.1 78.45 148.3 78.25 147.05 78.05 145.85 79.05 145.1 79.65 144.4 81.25 143.7 83.25 143.55 87.1
L 143.4 89.75
Q 143.3 91.9 143.3 93.3 142.8 91 142.6 89.4 142.15 86.3 141.9 82.05 141.65 77.15 141.5 74.7 141.3 72.1 139.9 72.15 138.7 72.2 138.3 74.25 137.3 79 137.25 84.2
L 137.1 84.2
Q 136.4 84 136 83.9 135.35 83.75 133.9 84.35
L 133.05 84.75
Q 132.6 85.2 132.75 85.65 132.85 86.15 133.55 86.25 134.25 86.45 135.5 86.05 136.95 85.5 137.3 85.45 137.35 90.9 138.6 96.75 138.4 96.7 138.2 96.8 137.45 96.95 137.1 97.4 136.75 98.2 137.25 98.65 137.55 98.95 138.05 99 138.5 99.05 139.1 99 140.55 105.55 143.6 113.3 143.55 113.3 143.5 113.3 142.05 113.6 141.4 114.65 140.55 115.85 141.3 117.15 141.65 117.75 142.3 118.05 142.95 118.35 143.6 118.2 144.1 118.1 145 117.6 145.25 119.75 145.95 121.7 146.3 122.6 146.9 124.2
L 146.85 124.2 145.9 124.6 145.4 125
Q 145.15 125.25 145.2 125.55 145.35 126.15 146.1 126.1 146.5 126.05 147 125.6
L 147.4 125.45
Q 147.4 125.55 147.45 125.65 148.35 127.95 148.3 129.65 147.55 129.05 146.5 129 145.45 128.85 144.55 129.35 142.75 130.3 142.3 132.5 142.2 132.95 142 133.9 141.8 134.45 141.15 135.25 142.5 128.15 140.6 120.5 139.55 116.25 137.5 114.25 139.3 110.05 138.55 105.6 137.7 100.45 133.9 97.35 134 97.1 133.95 96.85 134 95.85 132.9 95.15 132.3 94.65 130.95 94.25
L 128.3 93.35
Q 127.75 93.25 127.35 92.95 126.95 92.6 126.45 91.65 125.75 90.2 125.25 89.65 124.5 88.8 123.7 88.55
L 123.95 86.55
Q 124.1 85.3 124.1 85.05
L 124.05 84.35
Q 126.1 82.8 128.55 79.7 132.3 75.3 133.35 71.8 135.1 65.85 131.65 57.95 129.3 52.6 125.85 49.55 122.2 46.25 116.5 45.15 111.35 44.15 105.85 45.2 98.55 46.5 94.4 50.5 89.6 55.1 88.65 63.1 88.2 66.7 88.75 70 88.6 70.3 88.45 70.5 87.85 71.65 86.35 75.5 86.1 76.05 85.85 76.15 85.55 76.2 85.25 76.05 76.9 73.45 72.45 71.5 65.8 68.6 61.35 64.95 60.25 62.4 58.55 60.25 56.4 57.4 53.2 55.45 50.05 53.5 46.5 52.7 39.4 51.15 32.15 53.8 27.3 55.55 24.1 58.65 20.5 62.2 19.3 67.6 18.05 72.9 19.75 79.85 21.45 86.85 24.8 88.95 27.35 90.6 30.7 92.45 30.7 92.5 30.7 92.55 30.85 93.9 31.75 96.5 32.1 97.65 32.35 98.15
L 31 102.15
Q 28.65 102.55 26.75 102.2 25.75 102.05 25.25 102 24.4 101.85 23.8 101.85 21.95 102 21.4 103.35 21.1 104.05 21.45 104.9 21.8 105.7 22.55 106.15 23.55 106.85 25.8 106.95 28.1 107 29.1 107.4
L 27.5 110.75
Q 26.9 111.8 26.9 112.55 26.65 113.7 27.55 114.25 28.35 114.75 29.3 114.15 30.05 113.7 30.6 112.75 31.65 111.15 32.95 108.65
L 38.3 110.9
Q 37.45 111.25 36.55 111.65 30.5 114.7 26.95 119.4 25.7 121.15 25.25 122.5 24.9 123.9 24.95 125.6 25.1 128.85 26.45 131.85 27.9 134.9 30.3 137 30.35 137.05 30.4 137.1 30 137.8 29.65 138.8 28.35 143.1 28.1 147.1 27.95 147.1 27.8 147.1 26.85 147.3 26 147.95 24.15 149.75 22.95 150.25 22.7 147.6 22.5 144.9 23.25 145.15 24.05 144.95 24.7 144.75 25.05 144.35 25.75 143.75 25.75 142.8 25.8 141.8 25.1 141.15 24.25 140.4 23 140.5 22.45 140.6 22.1 140.8 21.6 136.55 21.1 132.35 21.45 132.25 21.8 132.2 22.8 131.95 23.45 131.4 24.25 130.75 24.35 129.85 24.55 128.95 23.8 128.25 23.2 127.6 22.2 127.5 21.45 127.45 20.75 127.8 20.65 127.85 20.65 127.9 20 122.8 19.35 117.8 20 117.45 21.15 116.4 23.1 115.2 23.85 114.35 24.45 113.75 24.4 113.2 24.35 112.5 23.65 112.1 22.25 111.5 20.45 112.5 19.55 113 18.75 113.6 18.35 110.95 18 108.35 18.5 108.2 18.95 107.85 19.75 107.35 20 106.75 20.15 106.3 20 105.8 19.85 105.25 19.4 105 18.7 104.55 17.7 104.9 17.6 104.95 17.5 104.95 17.1 102.55 16.7 100.2 16.35 97.85 15.55 96.85 15 96.25 14.45 96.35 13.7 96.55 13.8 97.9
L 14.35 111.95
Q 14.75 121.5 15.4 127.15 15.65 128.95 16.95 136.95 17.7 141.3 18.05 144.6
L 13.7 138.45
Q 11.15 134.7 9.7 131.65 7.25 126.35 5.45 117.65 2.8 104.85 2.35 103.2 2.05 101.85 1.4 101.3 0.9 100.85 0.25 100.85 0.2 100.75 0.2 100.65 -2.1 86.85 -2.2 78.4 -2.3 66 1.3 56.4 5.4 45.55 15.5 35.35 16.95 33.9 16.7 33 16.95 32.5 16.8 32.1 16.65 31.5 15.65 31.1 13.9 30.4 11.5 30.7 10 30.9 7.3 31.7 10.25 25.05 17.4 19.6 19.95 17.6 23.35 15.7 23.8 15.4 24.3 15.15 26.25 14.1 28.5 13.05 29.35 12.5 30.5 11.9 33.7 10.4 37.35 9.15 40.85 7.95 46.8 6.4 48.9 6 51.3 5.6 56.4 4.65 59.25 4.35 64.45 3.75 69.4 4.1 71.65 4.15 72.2 4.15 72.35 4.15 72.55 4.15
L 72.6 4.2
Q 73.25 5 74.2 5.1 74.9 5.15 76.5 4.65 80.6 3.05 89.05 2.55 96.05 2.1 101.75 1.95 107.85 1.7 111.5 2.1 116.5 2.65 120.3 4.4 119.95 4.5 119.65 4.7 119 5.15 118.85 5.9 118.6 7 119.7 8.05 120.3 8.65 121.75 9.45
M 106.8 50.8
Q 111.7 49.9 115.7 50.9 120.55 51.9 123.45 55.25 124.75 56.8 126.05 59.65 129.2 66.45 127.6 71.2 126.95 73 125.25 75.3 122.1 79.5 118.6 81.15 116.35 82.25 113.35 82.6 107.3 83.55 102.95 81.45 100.2 80.15 98 77.65 94.25 73.45 93.75 68.75 93.5 66.6 93.95 63.45 94.75 58.5 96.8 55.9 99.9 51.95 106.8 50.8
M 90.85 76.4
Q 91.35 77.4 92.05 78.35 94.05 81.6 97.2 83.95 99.75 86 102.55 86.9 106.3 88.3 111.9 87.95 117.3 87.65 121.15 86 120.9 87.8 120.85 89.35 120.1 90.1 119.6 91.2 119.3 91.65 119.15 91.8 118.8 92.1 118.15 92.05 114.75 92.15 112 92.4 109.3 92.75 107.85 93.45 106.8 94.1 106.95 94.8 107.15 95.3 107.9 95.55 110.9 96.65 115.4 96.65 114.05 97.45 112.95 98.55 111.5 100 110.55 101.95 110.3 101.95 110.05 102.1 109.15 102.75 108.7 103.1 108.05 103.7 106.5 104.5 104.5 105.65 100.55 107.65 98.3 108.75 97.4 108.9 96.1 109.25 95.7 109.55 95.1 110.1 95 111.15 94.9 112 95.2 113
L 95.55 114.05
Q 95.95 115.2 96.65 115.65 96.85 116.1 97.4 116.35 98 116.6 98.65 116.55 99.2 116.5 100.2 116.25 100.6 116.1 101.45 116
L 103.05 115.5
Q 106.6 114.45 108.1 113.35 108.6 112.95 108.8 112.6 109.2 115.85 110.75 118 110.4 118.9 110.5 120.3 110.5 121.6 110.6 122.9 109.5 122.75 107.8 122.9 98.55 123.7 91.9 125.2 89.2 125.8 81.35 127.95 72.9 130.4 70.05 131.45 65.3 133.2 60.75 135.45 60.25 135.7 59.9 135.95 59.25 133.85 58.25 132.7 58.05 132.5 57.85 132.3 58 132 58.15 131.7 59.6 129.15 60.1 127.05 60.3 126.1 60.35 124.95 60.7 124.95 61.3 124.9 63.2 124.7 67.05 124.35 70.3 123.95 72.6 123.1 72.95 122.95 73.25 122.9 73.35 122.9 73.5 122.9 74.65 122.8 75.25 122 76.15 120.8 75.75 118.8 75.6 117.95 75.2 117.3 75.1 117.2 74.95 117.1 74.9 117 74.9 116.85 74.45 115.15 73.7 114.7 73.15 114.4 72.35 114.45 72.3 114.45 70.95 114.65 70.1 114.8 68.85 114.85 67.45 114.85 66.75 114.85 63.9 115.1 63.3 115.05 61.15 115.1 56.8 114.25 55.3 112.85 53.15 111.6 50.35 109.95 47.45 109.5 46.1 109.25 44.7 109.4 44.1 107.6 43 105.85 46 104.9 50.8 101.2 50.4 101 49.05 101 46.05 101 41.9 101.45 41.05 101.5 40.7 101.4 40.3 101.25 39.7 100.55 38.4 99.2 37.3 97.55 36.5 96.35 35.8 96 35.2 95.6 34.55 95.65 34.5 95.7 34.45 95.7 34.25 94.85 33.85 94 37.8 95.7 42.2 94.75 47.2 93.65 49.7 92.7 53.25 91.5 56.75 87.95 61.55 83.25 62.75 78.15 63.45 75.25 63.15 71.85 65 73.25 67.2 74.3 70.35 75.85 77 78.1 81.95 79.75 85.05 80.5 87 80.85 87.9 80.5 89.05 80.15 89.75 78.85 90.1 78.25 90.85 76.4
M 25.2 66.2
Q 26.55 64.2 26.8 63.5 27.2 62.7 28.35 61.9 29.8 60.9 32.5 59.7 38.65 57.45 43.75 58 46.75 58.3 49.3 59.6 52 60.9 53.8 63.05 56.55 66.2 57.4 71.15 58 74.3 57.5 76.8 56.8 80 53.55 83.55 51.8 85.45 50.25 86.3 47.4 88.1 42.8 89.35 38.05 90.6 35.05 88.55 32 86.5 30.25 85.45 28.5 84.3 27.15 81.35 25.9 78.4 25.1 76.55 24.25 74.7 24.05 71.45 23.8 68.25 25.2 66.2
M 67.8 120.05
L 61.05 120.4
Q 60.45 120.4 59.95 120.45 59.8 119.8 59.65 119.3 59.75 119.3 59.85 119.3 61.95 119.6 65.25 119.45 69.6 119.2 70.7 119.25 70.8 119.4 70.85 119.6
L 70.85 119.65
Q 70.5 119.7 70.3 119.75 69.75 119.9 67.8 120.05
M 43.45 114.75
Q 45.85 114.3 47.5 114.7 49 115 50.7 115.95 52.75 117 53.7 118.1 55.9 120.25 56.2 123.9 56.35 126.05 55.8 127.6 55.3 128.8 53.55 130.95 52.35 132.45 51.4 133.25 50.25 134.15 48.25 134.85 43.75 136.5 39.65 135.75 37.4 135.4 35.5 134.25 33.55 133.05 32.35 131.25 31.6 130.2 31 128.65 29.85 125.4 30.35 123.35 30.75 121.8 32.15 120.5 33.2 119.55 35.15 118.35 39.9 115.55 43.45 114.75
M 40.9 141.05
Q 45.2 141.25 48.9 139.95 52 138.85 54.25 136.9 54.4 137.55 54.6 138.4 56.65 147.3 51 158.55 49.55 161.15 48.55 162.15 46.75 163.95 44.6 163.7 43 163.55 40.85 161.8 38.65 160 37.75 158.9 34.65 155.4 34.3 149.6 34.05 145.75 35.35 140 37.7 140.8 40.9 141.05
M 61.25 141.05
Q 62.7 140.95 65.35 139.35 69.2 137.25 77 134.8 86.7 131.65 92.4 130.35 101.05 128.35 108.25 128.4 110.15 128.35 111 128.15 111.6 134.05 113.15 140.15 114.15 144.35 115.65 146.85 116.95 148.9 118.75 150.35 118.6 151.1 118.6 152.25
L 118.6 155.05
Q 118.6 155.95 118.25 156.3 117.85 156.8 116.65 156.8 105.3 156.75 89.15 161.25 71.15 166.85 62.05 168.9 62.45 161.35 58.7 154.85 61.25 147.6 60.8 141 61 141.05 61.25 141.05
M 39.65 107.05
Q 39.7 107.15 40.2 107.65 40.5 108.05 40.6 108.35
L 38.25 107.45
Q 38.05 107.45 36.65 106.85
L 38.95 106.65
Q 39.25 106.65 39.35 106.7 39.4 106.7 39.65 107.05
M 132.6 103.35
Q 133.15 104.25 133.45 106.1 133.9 109.55 133.05 112.1 132.75 112.95 132.3 113.7
L 132.3 113.75
Q 131.2 115.7 129.3 116.75 128.35 117.3 126.65 117.75 124.45 118.3 122.25 118.1 120.85 117.95 119.3 117.45 117.65 117.1 116.6 116.5 115.15 115.8 114.45 114.5 114.15 114.05 113.95 112.25 113.45 108.9 113.5 106.7 113.55 105.85 113.7 105.4 113.9 104.95 114.4 104.4 116.15 102.25 117.9 101.2 119.85 100.05 123.7 99.65 125.55 99.5 126.55 99.65 129.2 99.9 131.4 101.9 132 102.4 132.6 103.35
M 133.15 120.15
Q 133.2 120.1 133.25 120.1 133.3 120.15 133.3 120.2 135.7 125.95 135.4 132.05 135.05 138.45 131.8 143.45 129.5 147 126.7 147.25 125.2 147.45 123.75 146.65 122.35 145.85 121.4 144.5 120.05 142.6 119.1 138.7 117.6 133.05 117 129.65 116.15 125.35 116.05 121.6 116.9 121.85 117.8 122.15 122.35 123.25 125.8 122.95 130 122.5 133.15 120.15
M 101.5 111.25
L 105.9 109.05
Q 107.65 108.15 108.95 107.45 108.8 108.05 108.8 108.75 108.7 109.95 108.75 111 108.3 110.55 107.5 110.45 105.4 110.1 102.35 111 101.9 111.1 101.5 111.25
M 69.65 145.6
Q 67.8 146.55 67.05 147.35 65.75 148.75 66.05 150.2 66.5 152.1 69.2 152.6 70.65 152.9 73.7 152.35 76.65 151.85 78.15 152.1 77.3 155.5 77.6 157.25 77.8 158.45 77.75 158.85 77.75 159.15 77.55 159.9 77.45 160.45 77.75 160.75 78 160.9 78.65 160.75 80.15 160.4 81.65 159.2 82.45 158.5 84.15 156.75 85.2 155.6 87.45 153.55 88.4 152.6 89.15 152.4 89.85 152.15 91.65 152.45
L 98.8 153.9
Q 100.3 154.25 101.3 154.15 102.85 153.95 103.35 152.85 104 151.65 102.8 149.5 101.2 146.6 98.85 143.85 99.2 143.4 100.65 141.95 101.75 140.8 102.3 139.95 103.05 138.75 103.1 137.45 103.15 135.95 102.3 135.15 101.2 134.1 98.4 134.35 94.7 134.75 91.55 135.95 90.2 136.4 89.7 136.4 88.85 136.4 87.8 135.7 86.2 134.8 85.4 134.6 83.95 134.15 82.85 134.65 81.75 135.05 81.1 136.4 80.7 137.2 80.25 138.95 80 139.9 79.7 140.2 79.5 140.45 78.85 140.85
L 69.65 145.6
M 78.8 147.5
Q 76.3 147.8 75.05 148 76.85 146.9 79.05 146.05
L 78.8 147.5
M 82.45 145.5
Q 82.5 145 82.75 144.65 83 144.25 83.75 144
L 87.7 142.6
Q 88.4 142.35 88.75 142.35 88.95 142.4 89.55 142.7 90.3 143.2 91.25 144.2
L 88.65 146.5
Q 87.9 147.15 87.45 147.35 86.75 147.65 85.55 147.55
L 82.2 147.45 82.45 145.5
M 95.35 139.95
Q 95.6 139.85 95.75 139.9
L 95.1 140.65 94.8 140.55 94.6 140.25 95.35 139.95
M 94.95 147.1
Q 95.05 146.95 95.2 146.95
L 95.4 147.1 97.2 148.85
Q 96.65 148.9 95.75 148.7
L 93.7 148.25
Q 93.85 147.95 94.25 147.65 94.85 147.2 94.95 147.1
M 82.9 151.9
L 81.45 153.3 81.35 153.25 81.45 152.85 81.55 152 81.9 151.9 82.9 151.9
M 78.05 107.9
L 80.2 110.65
Q 81 111.75 81.6 112.05 82.4 112.45 83.05 112.2 83.9 111.95 83.9 111.1 83.85 110.45 83.35 110.1 83.15 109.95 82.3 109.4 81.2 108.65 79.95 106.6
L 82.35 105.4
Q 83.9 104.65 84.7 104.45 85.15 104.4 85.2 104.5 85.3 104.55 85.45 104.85 86.25 107.3 86.4 108.55
L 86.65 110.05
Q 86.95 110.9 87.75 111 88.6 111.05 88.95 110.3 89.2 109.8 89.2 108.9 89.2 107.65 88.55 105.25 88.25 104.3 88.05 103.85
L 87.45 102.85
Q 87 102.15 86.7 102 86.2 101.55 85.05 101.55 84.05 101.6 82.85 102
L 81.05 102.85
Q 76.95 105 76.35 105.4 75.7 105.8 75.45 106.3 75.05 106.9 75.4 107.5 75.85 108.1 77.05 107.8 77.35 107.75 77.8 107.6 77.9 107.75 78.05 107.9 Z"/>
</g>
</defs>

<g transform="matrix( 1, 0, 0, 1, 0,0) ">
<use xlink:href="#Layer0_0_FILL"/>
</g>
</svg>
