
<svg xmlns="http://www.w3.org/2000/svg" version="1.1" xmlns:xlink="http://www.w3.org/1999/xlink" preserveAspectRatio="none" x="0px" y="0px" width="300px" height="300px" viewBox="0 0 300 300">
<defs>
<g id="duck_0_Layer1_0_FILL">
<path fill="#FF3333" stroke="none" d="
M 48.85 121.55
Q 48.3 120.1 46.25 118.25 44.976171875 117.0869140625 43.95 116.45 43.119140625 115.928515625 42.45 115.75 40.75 115.3 38.9 116.15 37.25 117.15 36.35 117.5 35.65234375 117.7326171875 34.3 117.85 34.261328125 117.547265625 34.2 117.25 34.151953125 117.0677734375 34 116.95 33.8697265625 116.8421875 33.7 116.85 25.5734375 117.0033203125 17.8 119.3 14.6828125 120.2638671875 13.4 121.45
L 13.4 121.5
Q 11.766796875 122.9681640625 10.7 126.85 9.3091796875 132.3076171875 8.75 139.1 8.34921875 143.8705078125 8.3 151.45 8.2994140625 166.7134765625 9.15 180.3 9.460546875 186.63046875 11.25 189.65 14.115625 194.3462890625 20.6 195.55
L 20.6 195.55
Q 24.89296875 196.2701171875 31.6 194.95
L 31.6 194.9
Q 32.2359375 194.7904296875 32.8 194.75 32.9380859375 194.734375 33.05 194.65 33.153515625 194.5732421875 33.2 194.45 33.26171875 194.3173828125 33.25 194.15 33.0013671875 192.3599609375 32.95 190.2
L 32.95 190.15
Q 32.0041015625 165.9228515625 35.7 139.1 35.75 138.775 35.8 138.4 35.8146484375 138.310546875 35.75 138.2 35.735546875 138.086328125 35.65 138 35.3107421875 137.6552734375 35.1 137.2
L 35.1 137.25
Q 34.728125 136.393359375 35 135.3
L 35 135.35
Q 35.2908203125 134.548046875 35.8 133.9
L 35.85 133.9
Q 36 133.7 36.15 133.5 36.45390625 133.2 36.85 132.9 36.9837890625 132.8318359375 37.05 132.7 38.538671875 132.241015625 39.15 132.1 39.4525390625 132.0423828125 39.9 132 41.0787109375 131.9865234375 43.25 132.2 45.8 132.45 47.2 131.85 48.85 131.15 49.7 129.35 50.5 127.55 50.05 125.75
L 49.45 123.9
Q 48.9 121.65 48.85 121.55
M 45.5 213.5
Q 45.5115234375 213.325390625 45.35 213.15
L 39.25 206.2
Q 36.5587890625 203.06796875 35.2 200.9 35.16015625 200.7892578125 35.05 200.7 34.9328125 200.65546875 34.8 200.65 34.511328125 200.637890625 34.2 200.8 34.082421875 200.929296875 34 201.1 33.970703125 201.25078125 34 201.4 34.1087890625 201.6658203125 34.15 201.95 34.436328125 203.650390625 33.75 206.5
L 33.75 206.55 32.35 213
Q 32.3173828125 213.141015625 32.35 213.25 32.4400390625 213.428125 32.55 213.5 32.6994140625 213.60546875 32.85 213.6 33.95 213.6 35.6 213.6 37.6439453125 213.60078125 42.85 213.9 43.975 213.95 44.95 214 45.175 214.0115234375 45.3 213.85 45.483203125 213.73359375 45.5 213.5
M 218.65 187.45
Q 218.35 186.75 218.1 186.15 218.031640625 185.9845703125 217.85 185.9 217.7208984375 185.8154296875 217.55 185.85 217.382421875 185.885546875 217.25 186 217.2091796875 186.1037109375 217.15 186.2
L 217.15 186.25
Q 216.6474609375 187.3921875 215.2 190.3 211.334375 198.209765625 208.65 207.2
L 208.65 207.2
Q 208.4748046875 207.9607421875 208.25 208.55 208.2240234375 208.7001953125 208.25 208.85 208.3216796875 209.0044921875 208.45 209.1 208.584375 209.198046875 208.75 209.2 209.3607421875 209.2005859375 210.1 209.15 211.966015625 209.052734375 212.8 209.05
L 212.85 209.05 215.95 209.35
Q 217.929296875 209.5525390625 221.15 209.45 222.2115234375 209.4001953125 223.1 209.4 223.2662109375 209.39921875 223.4 209.3 223.5296875 209.204296875 223.55 209.05 223.626953125 208.88671875 223.55 208.7 223.0390625 207.2080078125 222.65 205.25 222.0986328125 202.0556640625 221.8 200.4 221.6009765625 199.3544921875 220.05 192.2
L 220 192.15
Q 219.07265625 188.5359375 218.65 187.45
L 218.65 187.45
M 222.65 116.6
L 222.7 116.6
Q 221.572265625 117.1115234375 220.65 117.65 220.596484375 117.7068359375 220.55 117.75 220.5 117.8 220.45 117.85 220.408984375 117.884375 220.35 117.9 219.715625 118.93125 218.55 119.3 218.3865234375 119.39296875 218.3 119.55 218.180859375 119.825 218.1 120.05
L 218.1 120
Q 217.9837890625 120.4205078125 216.65 123.55 208.7224609375 142.4783203125 216.8 171.6 217.6611328125 174.70859375 218 176.25 218.0380859375 176.3744140625 218.1 176.45 218.1958984375 176.5587890625 218.3 176.6 219.61484375 177.1919921875 221.15 178.15 225.0267578125 180.549609375 226.45 181.15 229.4640625 182.4341796875 233.55 182.9 236.066796875 183.2013671875 240.8 183.25 245.4185546875 183.3005859375 247.75 183.15
L 247.8 183.15
Q 251.6572265625 182.8435546875 254.65 181.85 257.0806640625 181.06484375 258.1 179.7 259.25 178.157421875 259.15 174.65
L 257.6 111.15
Q 257.5908203125 110.967578125 257.45 110.8 257.3669921875 110.6888671875 257.2 110.65 241.803125 107.4099609375 222.65 116.6 Z"/>

<path fill="#FFCC99" stroke="none" d="
M 211.6 114.7
Q 210.35 113.6 208.4 112.95 207.1 112.55 204.8 112.15 195.45 110.7 183.7 110.3 176.3 110 162.5 110.05 161.636328125 110.05 160.8 110.05 160.960546875 111.1369140625 161.2 112.1 161.2701171875 112.2634765625 161.2 112.4 161.1740234375 112.5509765625 161.05 112.65 160.9267578125 112.7427734375 160.75 112.75 144.235546875 113.600390625 120.55 115.8 101.114453125 117.65 87.85 119.55 87.716796875 119.5748046875 87.55 119.5 87.4263671875 119.4224609375 87.35 119.25 86.653125 117.8447265625 86.05 116 66.1189453125 118.5078125 54.65 119.05 51.75 119.25 50.15 118.55 49.6 118.3 48.25 117.4 47.05 116.55 46.25 116.35 45.130859375 116.0302734375 43.95 116.45 44.976171875 117.0869140625 46.25 118.25 48.3 120.1 48.85 121.55 48.9 121.65 49.45 123.9
L 50.05 125.75
Q 50.5 127.55 49.7 129.35 48.85 131.15 47.2 131.85 45.8 132.45 43.25 132.2 41.0787109375 131.9865234375 39.9 132 40.34375 136.2294921875 41.4 140.85 41.5095703125 139.6900390625 41.55 138.7 41.5634765625 138.5564453125 41.65 138.4 41.7724609375 138.3056640625 41.9 138.25 42.0748046875 138.230859375 42.2 138.15 42.250390625 138.1359375 42.25 138.1 43.4896484375 137.6919921875 44.65 137.3 44.5640625 137.357421875 44.5 137.45 44.40703125 137.5728515625 44.4 137.7 44.3958984375 137.821484375 44.4 137.9 44.4421875 137.9693359375 44.45 138 44.55859375 138.147265625 44.7 138.2 47.6560546875 139.4875 50.35 140.6 61.1595703125 145.209375 68.05 147.55 87.56875 154.2509765625 103.9 154.8 108.086328125 154.943359375 112.45 154.75 112.437890625 154.5462890625 112.4 154.3
L 112.4 154.25
Q 112.3974609375 154.1578125 112.45 154.05 112.494140625 153.9248046875 112.6 153.85 112.72421875 153.7623046875 112.85 153.75
L 112.9 153.75
Q 113.0796875 153.7435546875 113.2 153.85 113.3703125 153.979296875 113.4 154.15
L 113.4 154.2
Q 113.4505859375 154.46796875 113.5 154.7 125.69765625 153.9607421875 139.7 150.4 151.9935546875 147.278515625 174.35 139.15 189.5099609375 133.7109375 197 129.9 203.865625 126.397265625 209.15 122.3 210.29453125 121.4017578125 211.35 120.45 211.5990234375 120.2734375 211.8 120.05 211.979296875 119.94609375 212 119.75 212.0099609375 119.540625 211.85 119.35 211.7482421875 119.2212890625 211.55 119.2
L 211.6 119.2
Q 211.7681640625 119.1966796875 211.9 119.3 212.034765625 119.40703125 212.05 119.55 212.119140625 119.7421875 212.05 119.9 211.8515625 120.3455078125 211.85 120.75 211.8513671875 120.8685546875 211.8 120.95 211.591796875 121.3884765625 211.4 121.8 211.870703125 121.562109375 212.25 121.2 213.55 119.95 213.3 117.95 213 116 211.6 114.7 Z"/>

<path fill="#FF9933" stroke="none" d="
M 44.5 137.45
Q 44.5640625 137.357421875 44.65 137.3 43.4896484375 137.6919921875 42.25 138.1 42.250390625 138.1359375 42.2 138.15 42.0748046875 138.230859375 41.9 138.25 41.7724609375 138.3056640625 41.65 138.4 41.5634765625 138.5564453125 41.55 138.7 41.5095703125 139.6900390625 41.4 140.85 41.41953125 141.1708984375 41.4 141.45 41.0498046875 148.476171875 40.1 163.05 39.0482421875 179.55078125 39.85 190.05
L 39.85 190.1
Q 40.1580078125 194.3107421875 41 196.85
L 41 196.85
Q 42.13984375 200.077734375 45.55 204.55 48.4115234375 208.225390625 51.6 211.7
L 51.6 211.65
Q 54.4701171875 214.82890625 56.6 215.75 58.4025390625 216.587890625 62.5 216.9 86.0876953125 218.4505859375 109.6 218.25 113.19140625 218.2001953125 116.8 218.15
L 116.85 218.15
Q 117.0060546875 218.1451171875 117.1 218.05 117.2416015625 218.000390625 117.3 217.85 117.35390625 217.76328125 117.35 217.65
L 117.35 217.6
Q 117.2498046875 216.5998046875 117.15 215.65 116.500390625 207.7197265625 116.1 191.2 115.700390625 174.919921875 115 166.65 114.428125 160.3404296875 113.5 154.7 113.237890625 154.7330078125 112.95 154.75
L 112.9 154.75
Q 112.699609375 154.759765625 112.45 154.75 108.086328125 154.943359375 103.9 154.8 87.56875 154.2509765625 68.05 147.55 61.1595703125 145.209375 50.35 140.6 47.6560546875 139.4875 44.7 138.2 44.55859375 138.147265625 44.45 138 44.4421875 137.9693359375 44.4 137.9 44.3958984375 137.821484375 44.4 137.7 44.40703125 137.5728515625 44.5 137.45
M 115.25 57.25
Q 113.6599609375 56.84609375 111.5 57.1
L 111.5 57.1
Q 110.5873046875 57.150390625 109.35 57.35 109.2828125 57.3728515625 109.2 57.4 108.5162109375 57.814453125 107.15 58.4
L 107.15 58.35
Q 100.4015625 60.883984375 92.75 64.95 87.21484375 67.860546875 79 72.75
L 78.95 72.75
Q 77.8373046875 73.51484375 77.9 74.3 77.8203125 75.1125 79.2 75.85
L 79.25 75.85
Q 86.7802734375 79.2962890625 97.75 79.4 101.5087890625 79.4009765625 107.15 79
L 107.2 79
Q 110.289453125 78.6998046875 116.45 78.25
L 116.5 78.25
Q 116.896484375 78.2072265625 117.25 78.25 117.3521484375 78.263671875 117.45 78.2 117.56328125 78.184765625 117.65 78.1 117.768359375 77.985546875 117.9 77.85 118.5443359375 77.469921875 119.45 77.2 119.774609375 77.140234375 121.35 76.7 123.952734375 76.1265625 125 74.9
L 125.05 74.9
Q 126.208984375 73.4919921875 126.1 71.4
L 126.1 71.35
Q 126.091015625 71.0001953125 125.8 70.9 125.04453125 70.1435546875 123.65 68.25 122.69375 66.7572265625 122.3 65.95 121.91171875 65.2021484375 121.4 63.75
L 121.4 63.7
Q 120.811328125 62.108203125 120.5 61.4
L 120.5 61.4
Q 120.025 60.1615234375 119.3 59.45
L 119.3 59.45
Q 118.71953125 58.79375 117.65 58.25 116.1998046875 57.4576171875 115.25 57.25
L 115.25 57.25
M 119.4 63.15
Q 119.4275390625 63.212890625 119.45 63.35
L 119.35 64.35
Q 119.0900390625 65.080078125 118.5 65.6
L 118.5 65.65
Q 117.909765625 66.245703125 117.3 66.4
L 117.3 66.4
Q 116.55 66.647265625 116 66.3
L 116 66.3
Q 115.6341796875 66.1125 115.5 65.7
L 115.5 65.65
Q 115.4333984375 65.2703125 115.65 64.9 115.9033203125 64.4439453125 116.65 63.95
L 116.65 63.95
Q 118.2685546875 62.96015625 119.25 63.1
L 119.35 63.1
Q 119.37421875 63.1267578125 119.4 63.15 Z"/>

<path fill="#FF6633" stroke="none" d="
M 112.45 154.05
Q 112.3974609375 154.1578125 112.4 154.25
L 112.4 154.3
Q 112.437890625 154.5462890625 112.45 154.75 112.699609375 154.759765625 112.9 154.75
L 112.95 154.75
Q 113.237890625 154.7330078125 113.5 154.7 113.4505859375 154.46796875 113.4 154.2
L 113.4 154.15
Q 113.3703125 153.979296875 113.2 153.85 113.0796875 153.7435546875 112.9 153.75
L 112.85 153.75
Q 112.72421875 153.7623046875 112.6 153.85 112.494140625 153.9248046875 112.45 154.05
M 211.6 119.2
L 211.55 119.2
Q 211.7482421875 119.2212890625 211.85 119.35 212.0099609375 119.540625 212 119.75 211.979296875 119.94609375 211.8 120.05 211.5990234375 120.2734375 211.35 120.45 210.29453125 121.4017578125 209.15 122.3 203.865625 126.397265625 197 129.9 189.5099609375 133.7109375 174.35 139.15 151.9935546875 147.278515625 139.7 150.4 125.69765625 153.9607421875 113.5 154.7 114.428125 160.3404296875 115 166.65 115.700390625 174.919921875 116.1 191.2 116.500390625 207.7197265625 117.15 215.65 117.2498046875 216.5998046875 117.35 217.6
L 117.35 217.65
Q 117.35390625 217.76328125 117.3 217.85 117.2416015625 218.000390625 117.1 218.05 117.0060546875 218.1451171875 116.85 218.15 120.2216796875 218.0998046875 123.55 218 161.2501953125 216.7517578125 198.7 210.95 200.146875 210.7513671875 201.2 210.7 201.3765625 210.6904296875 201.5 210.6 201.621484375 210.5134765625 201.65 210.35 201.73046875 210.2400390625 201.7 210.1 201.6013671875 209.675 201.55 209.25 201.482421875 207.671875 202.6 204.7
L 210.45 185
Q 212.009375 181.0287109375 212.1 178.8 212.151171875 177.256640625 211.6 175.35 211.3783203125 174.407421875 210.55 172.05
L 210.55 172.1
Q 205.5068359375 156.9421875 206.15 143.3 206.6396484375 132.9201171875 210.3 124.2 210.81796875 122.9890625 211.4 121.8 211.591796875 121.3884765625 211.8 120.95 211.8513671875 120.8685546875 211.85 120.75 211.8515625 120.3455078125 212.05 119.9 212.119140625 119.7421875 212.05 119.55 212.034765625 119.40703125 211.9 119.3 211.7681640625 119.1966796875 211.6 119.2 Z"/>

<path fill="#FFFFCC" stroke="none" d="
M 165.7 78.1
Q 167.7404296875 70.4447265625 168.5 65.3 169.6068359375 58.219921875 169.2 52.25 168.6904296875 45.3296875 166 39.5 163.0955078125 33.0255859375 158.1 29.1 153.2328125 25.29296875 145.95 23.6
L 145.95 23.6
Q 140.3087890625 22.3443359375 132.45 22.3 117.9607421875 22.1490234375 107.7 25.5 101.531640625 27.5419921875 96.4 30.95 90.9498046875 34.628515625 87.3 39.55 83.9208984375 43.99609375 83 48.7 82.4408203125 51.4466796875 82.7 55.95 82.8998046875 59.77265625 82.95 61.75 82.9517578125 61.929296875 83.05 62.05 83.158984375 62.1796875 83.3 62.2 83.4763671875 62.2763671875 83.6 62.2 87.6140625 60.724609375 93.1 58.9
L 105.85 54.8
Q 107.4408203125 54.28125 108.3 54.3 108.859765625 54.383203125 109.35 54.6 109.5228515625 54.6841796875 109.7 54.6 109.9658203125 54.541015625 110.25 54.5
L 110.3 54.5
Q 112.0830078125 54.1009765625 115.15 53.8 116.72734375 53.66015625 117.55 53.7 118.61328125 53.8927734375 119.7 54.3
L 119.7 54.3
Q 121.034375 54.925390625 122.3 55.9
L 122.35 55.95
Q 124.1046875 57.43828125 125.2 59.75
L 125.2 59.75
Q 125.4896484375 60.3962890625 126.05 62 126.6384765625 63.5046875 127.05 64.35
L 127.05 64.4
Q 127.270703125 64.756640625 128.05 66 128.6865234375 66.9666015625 128.9 67.6
L 128.95 67.65
Q 129.384765625 68.6638671875 129.3 69.5 129.2875 69.6599609375 129.35 69.8 129.7111328125 70.3861328125 129.95 70.85
L 129.95 70.85
Q 131.1177734375 73.5109375 130.45 75.75
L 130.45 75.75
Q 129.7603515625 78.2408203125 127 79.85 125.28828125 80.8466796875 121.6 81.75 120.4802734375 82.05625 119.55 82.1 119.371484375 82.0896484375 119.15 82.25
L 119.25 82.2
Q 118.1220703125 82.8009765625 115.75 82.9
L 108.15 83.35
Q 99.0923828125 83.79921875 94.55 83.75 88.441015625 83.6470703125 83.4 82.8 83.2958984375 82.7751953125 83.15 82.8 83.040234375 82.882421875 82.95 83 82.8650390625 83.1115234375 82.85 83.25 81.2951171875 98.1859375 85.4 113.65 85.72890625 114.9181640625 86.05 116 86.653125 117.8447265625 87.35 119.25 87.4263671875 119.4224609375 87.55 119.5 87.716796875 119.5748046875 87.85 119.55 101.114453125 117.65 120.55 115.8 144.235546875 113.600390625 160.75 112.75 160.9267578125 112.7427734375 161.05 112.65 161.1740234375 112.5509765625 161.2 112.4 161.2701171875 112.2634765625 161.2 112.1 160.960546875 111.1369140625 160.8 110.05 160.332421875 107.139453125 160.55 103.5 160.9537109375 97.908203125 162.55 90.75 163.0888671875 88.307421875 165.7 78.1
M 164.9 47.45
Q 165.392578125 48.25859375 165.6 48.9 165.9455078125 49.75078125 165.95 50.85
L 165.95 50.85
Q 166.094921875 53.598046875 164.85 55.1
L 164.85 55.1
Q 163.7912109375 56.2669921875 161.4 57 159.0580078125 57.7390625 157.6 57.65 156.52421875 57.6001953125 154.8 57.05 151.6689453125 56.0134765625 150.05 54.55
L 150.1 54.6 148.65 53.05 148.65 53.05
Q 147.8166015625 52.0818359375 147.6 51.55 147.6126953125 51.5248046875 147.6 51.5 147.394140625 50.9857421875 147.4 50.3
L 147.4 50.25
Q 147.363671875 48.9150390625 148.1 47.6
L 148.1 47.55
Q 148.708984375 46.2501953125 149.85 45.25 151.8150390625 43.6880859375 155.3 42.65
L 155.25 42.65
Q 156.605859375 42.2994140625 157.7 42.3 159.8935546875 42.2615234375 161.95 43.8 163.5796875 45.09765625 164.9 47.45
M 88.2 44.35
L 88.2 44.35
Q 89.0064453125 42.6162109375 90.75 41.35 92.3251953125 40.203125 94.4 39.65 97.3044921875 38.884765625 99.35 40 101.1009765625 41.0720703125 102.1 43.9
L 102.1 43.9
Q 102.8443359375 46.0076171875 102.8 47.85
L 102.8 47.9
Q 102.7587890625 50.003125 101.6 51.35 100.0177734375 53.13203125 96.35 53.55 93.058984375 53.8400390625 91.15 53 88.74921875 51.8900390625 87.85 49.3 87.0390625 46.7908203125 88.2 44.35 Z"/>

<path fill="#660066" stroke="none" d="
M 239.45 190.55
Q 232.4900390625 190.104296875 226.05 187.9 225.8716796875 187.8671875 225.7 187.95 225.5259765625 188.0251953125 225.45 188.2 225.3669921875 188.3724609375 225.4 188.55 228.104296875 196.5501953125 228.75 200.9 229.4513671875 204.9966796875 229.55 205.45 229.561328125 205.473828125 229.55 205.5 229.874609375 206.4111328125 230.5 208.25
L 230.5 208.2
Q 230.8435546875 209.428125 230.75 210.4 230.7388671875 210.54296875 230.8 210.65 230.86015625 210.798828125 230.95 210.85 231.0880859375 210.9466796875 231.2 210.95 242.894140625 211.6505859375 249.6 212.65 251.526171875 212.9001953125 255.25 213.45 256.237890625 213.6001953125 257.15 213.7 257.2794921875 213.7109375 257.4 213.65 257.5232421875 213.590234375 257.6 213.45 257.6837890625 213.374609375 257.7 213.25
L 258.4 204.45 258.4 204.4
Q 258.700390625 199.6685546875 258.7 188.8 258.6986328125 188.6345703125 258.6 188.5 258.5046875 188.37109375 258.35 188.3 258.199609375 188.2734375 258.05 188.3 256.4611328125 188.87421875 254.65 189.3 247.198828125 191.051953125 239.45 190.55 Z"/>
</g>

<g id="duck_0_Layer0_0_FILL">
<path fill="#330033" stroke="none" d="
M 174.15 47.85
Q 173.05 40.3 169.6 34.1 165.85 27.3 160.05 23.4 153.25 18.85 140.85 17.35 122.9 15.2 108.35 19.5 100.3 21.9 93.45 26.25 86.3 30.85 81.35 37.1 78.5 40.8 77.3 43.95 75.85 47.5 75.6 52.3 75.45 55.35 75.8 61.05 75.9 62.9 76.05 63.6 76.15 64.15 76.3 64.6 72.6 66.4 71.2 68.5 69.9 70.65 70.05 73.7 70.15 76.1 71.1 77.7 72.15 79.5 74.8 80.85 74.8 81.5 74.9 82.3 75 83 75.2 84.35 75.45 86.35 75.4 90.4 75.45 91.85 75.75 94.4 76.35 99.15 77.35 105.05
L 78.35 109.95
Q 78.45 110.75 78.6 111.5 79.4 116.2 80.8 120.15 50.4 126.75 39.8 130.9 39.7 130.85 39.65 130.85 38.8 130.7 37.9 131.2 37.55 131.4 37.3 131.65 36.9 132 36.6 132.45
L 36.6 132.5
Q 36.1 132.85 35.75 133.2 35.6 133.4 35.45 133.6 34.85 134.3 34.55 135.2 34.2 136.45 34.65 137.45 34.9 137.95 35.3 138.35 35.25 138.7 35.2 139.05 31.5 165.9 32.45 190.2 32.5 192.4 32.75 194.25 32.15 194.3 31.5 194.45 24.9 195.75 20.7 195.05 14.45 193.9 11.7 189.4 9.95 186.45 9.65 180.3 8.8 166.7 8.8 151.45 8.85 143.9 9.25 139.15 9.8 132.4 11.2 127 12.2 123.25 13.75 121.85 14.95 120.7 17.95 119.8 25.65 117.5 33.7 117.35 32.7 112.75 32.1 108.3 23 108.2 14.65 110.85 9.6 112.4 7.1 114.85 4.25 117.7 2.65 123.95 0.35 133.15 0.05 147.65 -0.2 163.85 1.45 179.55 2.1 185.7 3.35 189.5 3.2 189.85 3.05 190.3 2.05 193.1 2.85 197.3 2.95 197.9 3.6 200.8 4.05 202.9 4.15 204.3 4.25 205.4 4.15 208.9 4.1 212.45 4.4 216.55 4.5 218.25 5 219.1 5.8 220.3 7.45 220.75 8.45 221 10.5 221
L 22.8 221
Q 25.65 221 27.05 220.7 28.85 220.3 30.05 219.4 31.05 219.55 32.65 219.6 34.55 219.65 41.75 220.05 47.3 220.4 50.8 220.3 51.15 220.3 51.45 220.25 52.95 221.45 54.55 222.05 56.8 223 61.4 223.1
L 78.5 223.8
Q 98.25 224.6 110.95 224.75 114.6 224.75 117.65 224.75 119.05 224.7 120.35 224.7 122.35 224.65 124.4 224.6 137.9 224.25 154.2 222.8 165.6 221.8 187.95 219.3
L 200.85 217.85
Q 206.05 217.35 206.65 214.65 208.8 215.05 212.15 215.3 219.1 215.85 224.5 215.9 224.6 216.2 224.75 216.45 225.85 218.2 229.55 218.7 232.9 219.2 239.1 219.45 245.7 219.7 248.65 220.05 250.75 220.3 254.95 220.95 258.6 221.45 261.2 221.35 264.65 221.25 266.05 219.5 266.95 218.4 266.7 216.8 266.45 215.25 265.25 214.4 264.95 214.2 264.55 214.05
L 264.7 212
Q 265.1 205.95 265.2 203.05 265.4 193.9 264.1 185.1 264.95 184.15 265.5 183.05 266.3 181.5 266.6 179.25 266.75 177.85 266.75 175.25 266.8 151.35 266.45 115.45 266.4 112.1 266.1 110.35 265.6 107.55 264.2 105.8 261.2 102.05 253.2 101.85 244.75 101.7 236.5 103.95 228.25 106.2 221.05 110.6 218.95 111.85 217.25 113.2 216.75 113.1 216.2 113.05 213.95 112.8 211.65 112.65 204.65 112.05 197.15 111.8 196.5 110.95 195.7 110.7 195.7 110.4 195.65 110.1 194.25 110.5 192.4 111.65 181.45 111.45 169.55 111.85 168.6 110.05 168.25 107.85 167.65 103.95 169.05 97.85 171.55 88.5 172.6 83.8 173.35 80.4 173.7 77.35 173.95 76.6 174.3 75.15 175.2 70.65 175.3 69.95 175.8 66.65 175.8 60.05 175.8 57.45 175.55 55.65 175.5 55.1 175 52.75 174.8 51.95 174.5 50.8 174.35 49.3 174.15 47.85
M 168.7 52.3
Q 169.1 58.2 168 65.25 167.25 70.35 165.25 78 162.6 88.2 162.05 90.65 160.45 97.85 160.05 103.5 159.75 108.55 160.75 112.25 144.2 113.1 120.5 115.3 101.05 117.15 87.8 119.05 86.7 116.8 85.9 113.55 81.8 98.15 83.35 83.3 88.4 84.15 94.55 84.25 99.1 84.3 108.2 83.85
L 115.8 83.4
Q 118.3 83.3 119.5 82.65 119.55 82.6 119.6 82.6 120.55 82.55 121.75 82.25 125.5 81.3 127.25 80.3 130.2 78.55 130.95 75.9 131.65 73.5 130.4 70.65 130.15 70.15 129.8 69.55 129.9 68.6 129.4 67.45 129.15 66.75 128.5 65.75 127.7 64.5 127.5 64.15 127.1 63.3 126.55 61.85 125.95 60.2 125.65 59.55 124.5 57.1 122.65 55.55 121.3 54.5 119.9 53.85 118.75 53.4 117.65 53.2 116.8 53.15 115.1 53.3 112 53.6 110.2 54 109.85 54.05 109.55 54.15 109 53.9 108.4 53.8 107.45 53.75 105.7 54.35
L 92.95 58.45
Q 87.45 60.25 83.45 61.75 83.4 59.75 83.2 55.95 82.95 51.5 83.5 48.8 84.4 44.2 87.7 39.85 91.3 35 96.7 31.4 101.75 28 107.85 26 118.05 22.65 132.45 22.8 140.25 22.85 145.85 24.1 153 25.75 157.8 29.5 162.7 33.35 165.55 39.7 168.2 45.45 168.7 52.3
M 218.6 120.2
Q 218.65 120 218.75 119.8 220.05 119.35 220.8 118.2 220.85 118.15 220.9 118.1 221.8 117.55 222.9 117.05 241.85 107.95 257.1 111.15
L 258.65 174.65
Q 258.75 177.95 257.7 179.4 256.75 180.65 254.5 181.4 251.55 182.35 247.75 182.65 245.4 182.8 240.8 182.75 236.1 182.7 233.6 182.4 229.6 181.95 226.65 180.7 225.25 180.1 221.45 177.75 219.85 176.75 218.5 176.15 218.15 174.6 217.3 171.5 209.25 142.55 217.1 123.75 218.45 120.6 218.6 120.2
M 217.6 186.45
Q 217.65 186.4 217.65 186.35 217.9 186.95 218.2 187.65 218.6 188.7 219.55 192.3 221.1 199.45 221.3 200.5 221.6 202.15 222.15 205.35 222.55 207.35 223.1 208.9 222.2 208.9 221.15 208.95 217.95 209.05 216 208.85
L 212.85 208.55
Q 212 208.55 210.1 208.65 209.35 208.7 208.75 208.7 208.95 208.1 209.15 207.35 211.8 198.4 215.65 190.55 217.1 187.6 217.6 186.45
M 225.9 188.4
Q 232.4 190.6 239.45 191.05 247.25 191.55 254.8 189.8 256.6 189.35 258.2 188.8 258.2 199.65 257.9 204.4
L 257.2 213.2
Q 256.3 213.1 255.35 212.95 251.6 212.4 249.7 212.15 242.95 211.15 231.25 210.45 231.35 209.4 231 208.1 230.35 206.25 230.05 205.35 229.95 204.9 229.25 200.85 228.6 196.45 225.9 188.4
M 111.55 57.6
Q 113.6 57.35 115.15 57.75 116.05 57.95 117.45 58.7 118.4 59.2 118.95 59.8 119.6 60.45 120.05 61.6 120.35 62.3 120.95 63.9 121.45 65.4 121.85 66.2 122.25 67 123.25 68.55 124.75 70.6 125.55 71.35 125.6 71.35 125.6 71.4 125.7 73.3 124.65 74.6 123.65 75.7 121.25 76.25 119.5 76.7 119.4 76.7 118.35 77 117.65 77.45 117.45 77.6 117.3 77.75 116.9 77.7 116.45 77.75 110.25 78.2 107.15 78.5 101.5 78.9 97.75 78.9 86.9 78.8 79.45 75.4 78.4 74.85 78.4 74.3 78.4 73.75 79.25 73.2 87.45 68.3 93 65.4 100.6 61.35 107.35 58.85 108.75 58.25 109.45 57.85 110.65 57.65 111.55 57.6
M 45 213.5
Q 44 213.45 42.9 213.4 37.65 213.1 35.6 213.1 33.95 213.1 32.85 213.1
L 34.25 206.65
Q 34.95 203.65 34.65 201.9 34.6 201.55 34.5 201.25 34.65 201.15 34.8 201.15 36.15 203.35 38.9 206.55
L 45 213.5
M 21.75 202.1
Q 24.65 202.25 27.4 202.1 27.25 202.75 27.15 203.55 26.65 208 24.9 212.5
L 11.85 212.5
Q 11.85 207.9 11.7 205.6 11.55 203.3 10.65 199.3 14.85 201.75 21.75 202.1
M 211.6 119.7
Q 211.35 120.25 211.35 120.75 210.55 122.35 209.85 124 206.15 132.8 205.65 143.3 205 157 210.1 172.25 210.9 174.55 211.15 175.5 211.65 177.3 211.6 178.8 211.5 180.95 210 184.85
L 202.15 204.55
Q 200.95 207.65 201.05 209.3 201.1 209.75 201.2 210.2 200.1 210.25 198.65 210.45 161.2 216.25 123.55 217.5 120.2 217.6 116.85 217.65 113.2 217.7 109.6 217.75 86.1 217.95 62.55 216.4 58.55 216.1 56.8 215.3 54.75 214.4 52 211.35 48.8 207.9 45.95 204.25 42.6 199.85 41.5 196.7 40.65 194.2 40.35 190.05 39.55 179.55 40.6 163.1 41.55 148.5 41.9 141.5 42 139.95 42.05 138.75 42.25 138.7 42.45 138.6 43.7 138.15 44.9 137.75 60.3 132.4 70.25 129.5 85.7 125 98.7 123 106.6 121.85 120.2 120.7 149.8 118.25 167 117.8 191.5 117.25 211.5 119.7 211.55 119.7 211.6 119.7
M 198 127.05
Q 198.15 127.05 198.3 127.05 197.85 127 197.5 127 197.75 127.05 198 127.05
M 117.45 66.9
Q 118.15 66.7 118.85 66 119.55 65.35 119.85 64.5
L 119.95 63.35
Q 119.9 62.9 119.7 62.75 119.65 62.7 119.35 62.6 118.2 62.4 116.4 63.55 115.5 64.1 115.2 64.65 114.9 65.2 115.05 65.8 115.2 66.45 115.75 66.75 116.45 67.2 117.45 66.9
M 94.3 39.2
Q 92.1 39.75 90.45 40.95 88.6 42.3 87.75 44.15 86.5 46.75 87.4 49.45 88.35 52.25 90.95 53.45 92.95 54.35 96.4 54.05 100.3 53.6 102 51.7 103.25 50.2 103.3 47.9 103.35 45.95 102.6 43.75 101.5 40.7 99.6 39.6 97.4 38.35 94.3 39.2
M 165.35 47.2
Q 163.95 44.75 162.25 43.4 160.05 41.75 157.7 41.8 156.55 41.8 155.15 42.2 151.55 43.25 149.55 44.9 148.3 45.95 147.65 47.35 146.85 48.8 146.9 50.3 146.9 51.1 147.15 51.7 147.35 52.3 148.3 53.4
L 149.75 54.95
Q 151.4 56.45 154.65 57.55 156.45 58.1 157.6 58.15 159.1 58.25 161.55 57.5 164.1 56.7 165.25 55.45 166.6 53.8 166.45 50.85 166.45 49.65 166.1 48.75 165.85 48.05 165.35 47.2 Z"/>

<path fill="#660066" stroke="none" d="
M 27.4 202.1
Q 24.65 202.25 21.75 202.1 14.85 201.75 10.65 199.3 11.55 203.3 11.7 205.6 11.85 207.9 11.85 212.5
L 24.9 212.5
Q 26.65 208 27.15 203.55 27.25 202.75 27.4 202.1 Z"/>

<path fill="#CCFFCC" stroke="none" d="
M 201.15 31
Q 191.95 18.4 179.3 10.95 165.5 2.75 147.6 0.7 131.6 -1.2 113.8 1.95 90.05 5.95 71.25 17.25 50.5 29.7 40.3 48.55 30.65 66.55 30.7 90.2 30.7 99 32.1 108.3 32.7 112.75 33.7 117.35 35.15 124.35 37.3 131.65 37.55 131.4 37.9 131.2 38.8 130.7 39.65 130.85 39.7 130.85 39.8 130.9 50.4 126.75 80.8 120.15 79.4 116.2 78.6 111.5 78.45 110.75 78.35 109.95
L 77.35 105.05
Q 76.35 99.15 75.75 94.4 75.45 91.85 75.4 90.4 75.45 86.35 75.2 84.35 75 83 74.9 82.3 74.8 81.5 74.8 80.85 72.15 79.5 71.1 77.7 70.15 76.1 70.05 73.7 69.9 70.65 71.2 68.5 72.6 66.4 76.3 64.6 76.15 64.15 76.05 63.6 75.9 62.9 75.8 61.05 75.45 55.35 75.6 52.3 75.85 47.5 77.3 43.95 78.5 40.8 81.35 37.1 86.3 30.85 93.45 26.25 100.3 21.9 108.35 19.5 122.9 15.2 140.85 17.35 153.25 18.85 160.05 23.4 165.85 27.3 169.6 34.1 173.05 40.3 174.15 47.85 174.35 49.3 174.5 50.8 174.8 51.95 175 52.75 175.5 55.1 175.55 55.65 175.8 57.45 175.8 60.05 175.8 66.65 175.3 69.95 175.2 70.65 174.3 75.15 173.95 76.6 173.7 77.35 173.35 80.4 172.6 83.8 171.55 88.5 169.05 97.85 167.65 103.95 168.25 107.85 168.6 110.05 169.55 111.85 181.45 111.45 192.4 111.65 194.25 110.5 195.65 110.1 195.7 110.4 195.7 110.7 196.5 110.95 197.15 111.8 204.65 112.05 211.65 112.65 215.7 100.3 216.6 87.55 217.7 72.1 213.95 57.95 210 43.25 201.15 31 Z"/>
</g>
</defs>

<g transform="matrix( 1, 0, 0, 1, 15.05,43.3) ">
<g transform="matrix( 1, 0, 0, 1, 0,0) ">
<use xlink:href="#duck_0_Layer1_0_FILL"/>
</g>

<g transform="matrix( 1, 0, 0, 1, 0,0) ">
<use xlink:href="#duck_0_Layer0_0_FILL"/>
</g>
</g>
</svg>
