
<svg xmlns="http://www.w3.org/2000/svg" version="1.1" xmlns:xlink="http://www.w3.org/1999/xlink" preserveAspectRatio="none" x="0px" y="0px" width="150px" height="150px" viewBox="0 0 150 150">
<defs>
<g id="Layer0_0_FILL">
<path fill="#FFFFFF" stroke="none" d="
M 101.5 16.9
Q 103.4 18.65 105.8 21.85 110.1 27.5 111.75 31.85 112.6 34 113.85 39.5
L 115.05 45.25
Q 116.2 50.3 116.3 53.25 116.5 58.2 114.4 65.2 114.05 66.6 114 67.35 103.95 63.1 95.05 58.25 94.2 57.8 93.5 57.45 94.9 55.15 95.4 53.75 96.15 51.5 96.35 47.85 96.45 45.85 96.4 44 96.35 44 96.3 44.05 96.25 43.65 96.2 43.3 97.45 43.15 97.5 43.15 99.15 42.8 100.05 41.85 100.8 40.95 101 39.35 101.15 38.2 100.95 35.85 100.75 33.85 100.25 33 99.3 31.35 97.1 30.75 95.8 30.4 93.25 30.4 91.8 27.55 89.7 25.25 86.8 22.15 83.2 20.7 80.05 19.45 76.5 19.3 70.65 18.95 66.35 21.35 63.55 23 61.3 25.8 57.5 30.45 56.15 36.5 55.1 41.25 55.8 45.85 55.6 46.75 55.35 47.8
L 54.6 50.35
Q 54.15 51.15 53.1 52.05 52.85 52.3 52.55 52.55 52.25 51.95 51.7 51.35 51.1 50.7 50.85 50.4 50.3 49.8 50.1 49.3 49.8 48.55 49.65 48.2 49.4 47.5 49.05 47.25 48.35 46.65 47.35 47 46.65 47.25 45.9 48 45.15 48.8 43.95 50.7 43.4 51.65 43.35 51.8
L 42.8 53.1
Q 42.1 54.75 41.95 55.75 41.7 57.25 42.3 58.45
L 42.65 59.1 42.85 60.6
Q 42.95 61.1 43.1 61.3 43.25 61.5 43.45 61.5 41.1 61.85 37.7 62.4
L 24.75 64.55
Q 24 62.8 23.05 61 19.85 54.9 15.65 52.8 12.1 50.95 5.9 51.3 0.05 51.7 -4.7 53.55 -10.15 55.65 -13.65 59.35 -14.8 60.55 -16.2 62.55 -17 63.65 -18.6 65.85 -19.35 66.9 -20.9 68.9 -22.2 70.7 -22.8 72.25 -24.1 75.4 -23.75 79.95 -23.45 84.25 -22 86.7 -20.65 89 -17.75 91.2 -15.95 92.6 -14.15 93.6
L -14.2 93.65
Q -14.75 94.2 -15.05 95.05 -16.2 98 -17.2 102.45 -21.6 121.25 -23.75 140.05 -24.3 144.45 -24.2 147.1 -24.1 150.45 -23.15 153.65 -22.95 154.3 -22.6 154.35 -22.15 154.35 -21.95 153.75 -20.55 150.8 -19.6 146.8 -19.05 144.25 -18.3 139.5
L -13.9 112.35
Q -12.1 101.35 -11.75 95.8 -11.7 95.2 -11.8 94.75 -8.65 95.95 -4.4 96.4 6.7 97.65 15.1 93 17 91.95 18.65 90.65
L 18.65 90.7
Q 17.6 100.4 19.35 118.75 19.45 119.8 19.55 120.85 19.35 120.95 19.2 121.15 18.4 122 18.65 123 18.85 123.8 19.85 124.4 21.05 139.3 20.45 146.85 20.15 149.35 20.4 150.85 20.75 153.2 22.25 154.3 24.25 153.25 25.2 150.6 25.8 148.95 26 145.85 26.15 143.7 26.15 141.3 27.25 141.55 28.35 140.7 29 140.2 29.5 139.3 34 140.45 39.3 141.5 43.7 142.4 53.75 144.05
L 62 145.4
Q 67.55 146.25 68.8 146.4 73.05 146.85 78.75 146.85 85.35 146.85 94.45 146.15 97.95 145.9 103.8 145.4 104.05 145.5 104.3 145.55 105.1 145.75 105.95 145.35 106.15 145.25 106.3 145.15 108.1 145 110.1 144.8 111.9 144.7 112.5 145.25 113.05 145.7 113.35 147.15 114.8 155.05 113.65 163 113.4 164.35 114.2 164.5 115 164.7 115.35 163.3
L 117 156.35
Q 117.35 154.85 117.6 153.65 118.3 153.6 119 152.95 119.35 152.65 119.8 152.1 120.35 151.4 120.55 151.2 121.2 150.55 122.8 149.55 126.55 147.35 128.9 147 130.4 146.8 132.65 147 134.15 147.1 135.4 147.5 137.05 148.15 139.5 150.9 140.85 152.45 141.25 153.55 141.5 154.3 141.55 155.65 141.55 157.3 141.65 157.85 141.75 158.4 141.95 158.6 142.35 159 142.75 158.7 142.9 158.55 143 158.05
L 143.4 154.2
Q 143.8 150.75 143.25 149.15 142.8 148.05 142 147 140.4 144.95 138 143.7 138.5 142.15 138.4 140.3 138.35 139.35 137.65 135.5 137.3 133.6 136.5 126.95 135.05 114.75 131.5 102.95 131.75 102.7 132 102.45 133.35 101 134.45 98.05 137.65 89.7 136.5 82.85 136.15 80.9 134.95 77.2 134.3 75.1 133.65 73.9 132.25 71.35 129.35 69.55 126.05 67.45 122.05 67 120.15 66.8 118.35 67 118.4 66.3 118.4 65.4
L 118.05 48.2
Q 117.85 41.5 117.4 38.8 115.85 29.25 109.45 22 107.55 19.85 102.05 15.1
L 99.2 12.85
Q 97.05 11.4 94.15 10.15 79.65 3.6 63.3 4.75 47.4 5.95 33.45 14.35 25.9 18.9 20.4 24.9 14.4 31.4 11.6 38.95 10.3 42.45 8.7 49.75 8.6 50.15 8.8 50.3 9.1 50.45 9.35 50 10.15 48.7 10.7 46.65 11.2 44.3 11.45 43.1 13.3 34.7 19.9 27.45 25.3 21.45 34 16.5 48.45 8.3 63.85 7.05 80.4 5.7 94.6 12.5 98.85 14.6 101.5 16.9
M 97 34.4
Q 97.15 34.55 97.35 35.2 97.7 36.9 97.6 39 97.5 39.85 97.25 40.2 97 40.65 95.95 41.05 95.45 41.25 95 41.4 94.6 41.2 94.1 41.15 93.3 41.1 92.75 41.6 92.7 41.65 92.7 41.7 91.9 41.6 90.85 41.45 84.25 40.45 80.25 39.4 77.1 38.55 75.5 37.5
L 77.4 35 77.85 34.6
Q 77.95 34.55 78.7 34.4
L 93.8 33.9
Q 95.2 33.8 96.2 34 96.75 34.1 97 34.4
M 88.4 30.55
Q 86.55 30.6 84.8 30.7 78.55 31 75.25 32.3 73.5 33 72.5 33.95 71.05 35.3 70.7 37.15 70.45 38.5 70.9 39.5 71.4 40.7 72.75 41.45 74.4 42.45 77.15 42.75 78.7 42.9 81.85 43.1 82.2 43.15 85.75 43.7 88.05 44.1 89.6 44.05 90.45 44 91.8 43.9 91.7 44.25 91.7 44.7 91.7 46.2 92.05 47 91.95 49.05 91.7 51.3 91.3 54.3 91.45 55.85 91.5 56.3 91.55 56.7 91.2 56.55 90.9 56.5 89.25 56.2 85.95 56.7 71.2 58.85 56.3 60.15 48.35 60.85 46.1 61.15 45.15 61.25 43.85 61.45 44.05 61.4 44.15 61.2 44.3 60.95 44.05 59.95 43.85 59.25 44.1 58.15 44.45 56.55 44.45 56.3
L 44.6 55.25 45 54.55 45.25 53.65
Q 45.55 53.1 45.7 52.8
L 46.9 51.15
Q 47.05 52.25 48.45 53.65 49.2 54.4 49.85 54.7 49.5 54.95 49.2 55.15
L 48.1 55.9
Q 47.75 56.1 47.6 56.4 47.5 56.85 47.95 57.1 48.25 57.25 48.7 57.25 49.85 57.3 52.1 56.95 54.3 56.7 54.75 56.5 56 55.95 57.2 53.65
L 57.75 52.55
Q 57.95 51.95 58.05 50.75
L 58.3 48.1
Q 58.3 48 58.1 47.05 59.15 39.5 59.35 38.7 60.6 33.05 63.05 29.75 64.9 27.25 67.65 25.65 70.4 24.05 73.5 23.65 76.6 23.25 79.7 24.15 82.75 25.05 85.15 27 87 28.55 88.4 30.55
M 117.5 72.75
Q 118.1 73.05 118.6 73.3 118.45 74.55 118.65 76.2 118.7 76.7 119.2 79.6 121.1 89.45 121 99.45 120.75 100.2 120.7 101.55
L 120.15 115
Q 120.15 116.9 119.55 117.9 119 118.75 116.95 119.7 110.5 122.5 107.15 123.95 105.95 122.7 103.65 121.7 99.8 120.1 93.05 119.15 75.55 116.65 59.5 118.5 53.6 119.25 44.05 121.1 40.15 121.85 38.3 122.35 35.15 123.2 32.8 124.35 28.4 122.75 25.05 121.2 23.3 103.85 23.15 99.25 23.05 95.75 22.9 94.3 22.6 91.5 21.85 89.5 21.55 88.65 21.15 88.35 21.95 87.45 22.7 86.45 25.85 82.25 26.6 77.35 27.25 72.9 25.95 68.15 59.8 62.3 73.35 60.2 78.9 59.3 82.45 59.1 85.9 58.85 88.6 59.45 90.85 59.95 94.45 61.65
L 102.9 65.5
Q 113.5 70.45 117.5 72.75
M 122.7 71.95
Q 122.6 71.45 122.45 71.1 124.15 71.4 126.2 72.45 128.3 73.55 129.3 74.85 129.85 75.55 130.75 77.75 132.9 84 132.6 88.05 132.4 90.75 131.15 93.95 130.4 95.75 128.5 99.55 128.2 100.1 127.95 100.6 126.25 100.85 125.3 100.95 125.3 93.55 125.1 89.3 124.65 79.5 122.7 71.95
M 22.3 68.9
L 22.65 72.1
Q 22.75 72.55 22.85 72.85 23 75.45 22.45 77.9 21.55 82 18.5 85.4 15.55 88.6 11.5 90.4 4.15 93.7 -5.45 92 -13.45 90.6 -16.85 86.25 -20.15 82.1 -19.85 74.15 -19.45 74.75 -18.7 74.9 -17.9 75.05 -17.35 74.6 -16.75 74.15 -16.6 73.2 -16.5 72.85 -16.45 71.5 -16.2 67.6 -12.9 63.8 -9.2 59.45 -3.55 57.15 1.85 54.9 7.8 55 12.75 55.1 15.3 57.05 16.75 58.15 18.3 60.6 19 61.65 19.6 62.75 19.8 62.8 20 62.9 20.1 63.1 20.25 63.4
L 20.75 64.45 21 65.3
Q 21.3 66.7 21.6 67.4 22.25 68.7 22.3 68.9
M 58.05 139.9
Q 48.95 138.45 44.95 137.7 38.65 136.6 32.5 135 31.65 134.75 30.85 134.55
L 30.85 134.5
Q 31 133.1 31.1 130.2 31.8 130.2 32.4 129.85 32.55 129.8 32.7 129.75 32.9 129.7 33.1 129.65 34 129.45 35.95 128.25 38.7 126.7 43.35 125.6 62.6 120.85 87 123.3 95.7 124.1 100.9 126.2 102.75 126.85 103.3 127.85 103.8 128.7 103.7 130.35 103.65 135.05 102.7 139.9 102.6 140.25 102.55 140.6 96.1 141.2 92.1 141.5 80.85 142.35 72.8 141.75 67.85 141.4 58.05 139.9
M 128.2 105.65
Q 129.2 105.25 129.85 104.7 130 107.1 130.25 108.35 130.5 109.7 131.15 112.35 131.35 113.4 131.55 115.5 131.95 119.55 132.5 127.65 133.1 134.8 134.1 139.75 134.45 141.55 135.15 142.55 131.75 141.65 127.95 142.25 124.4 142.8 121.45 144.55 119.65 145.6 118.35 147 118.2 145.1 117.65 143.5 116.95 141.2 115.3 140.3 114.05 139.6 111.4 139.8 109.85 139.95 108.4 140.1 108.9 136.5 109.1 134.6 109.35 131.5 109.15 128.95 110.7 128.3 111.5 127.5 115.7 126 119.7 124.35 123.1 122.95 124.3 121.3 125.15 120.1 125.4 118.3 125.55 117.15 125.5 115
L 125.35 106.2
Q 126.8 106.2 128.2 105.65
M 114.65 119.5
Q 114.05 118.85 112.45 118.35
L 93 111.75
Q 92.55 111.65 92.25 111.95 91.95 112.3 92.25 112.8 92.4 113.15 92.95 113.4 94.2 114.15 96.2 114.7 97.3 115 99.6 115.5
L 105.1 117.25
Q 109.9 118.85 112.3 119.55 113.9 120 114.65 119.5
M 65.1 111.5
Q 63.9 111.65 61.25 111.75 58.75 111.8 57.4 112 55.45 112.25 52.6 113.1 48.15 114.4 47.9 114.45 46.15 114.85 40.1 115.75 35.25 116.45 32.4 117.45 31.25 117.9 31.65 118.55 31.9 118.85 32.55 118.65 38.4 117.25 50.2 115.15 62.6 112.9 69.85 112 74.7 111.4 76.1 111.15 76.85 110.95 76.8 110.55 76.8 110.1 75.95 110.1 72 110.35 70.8 110.5 67 111.25 65.1 111.5
M 87.55 62.65
Q 87 62.35 86.6 63 86.45 63.25 86.45 64.1 87 78.95 86.9 83.85 86.8 88.2 86.1 96.8 85.55 104.05 84.8 108.45 84.6 109.8 84.7 110.45 85 111.7 85.9 111.9 87.1 112.2 87.85 110.9 88.2 110.25 88.3 108.65
L 88.6 104.7
Q 89.25 94.4 89.3 92.45 89.85 77.9 87.95 63.5 87.85 62.8 87.55 62.65
M 71.2 33.65
Q 72.45 32.6 72.35 31.25 72.35 29.65 70.7 28.8 69.35 28.15 67.65 28.5 65.9 28.9 64.9 30 63.7 31.3 63.9 32.9 64.05 34.7 65.7 35.25 66.75 35.65 68.8 34.95 70.5 34.25 71.2 33.65
M 123.65 21.25
L 124 20.5 123.35 20
Q 122.15 20.05 121.1 19.15 120.75 18.6 120.5 17.8 120.25 17 120.5 14.85 120.75 12.7 120.15 9.45
L 119.4 9.5
Q 119.35 10.15 119.35 10.8 119.5 14.6 118.45 17.9
L 118.35 18.5
Q 118 18.85 117.65 19.2 116.85 20.2 115.6 19.65
L 115.25 19.95 115.3 20.75
Q 115.45 20.9 115.65 21 117.4 22 117.8 24.15 118.25 26.7 119.25 28.85 120.1 27.65 119.95 25.6 119.75 22.5 122.6 21.25
L 123.65 21.25 Z"/>
</g>
</defs>

<g transform="matrix( 1, 0, 0, 1, 0,0) ">
<use xlink:href="#Layer0_0_FILL"/>
</g>
</svg>
