
<svg xmlns="http://www.w3.org/2000/svg" version="1.1" xmlns:xlink="http://www.w3.org/1999/xlink" preserveAspectRatio="none" x="0px" y="0px" width="300px" height="300px" viewBox="0 0 300 300">
<defs>
<g id="epiphany_0_Layer3_0_FILL">
<path fill="#660066" stroke="none" d="
M 269.2 35.3
Q 268.1 35 266.15 34.8 258.3 34 242.9 31.65 237.05 30.75 233.85 30.15 231.4 29.65 229.25 29.1 226.25 26.85 217.8 22.75 193.8 11.15 169.85 5.9 145.9 0.6 128.6 0.1 113.65 -0.35 96.1 1.3 86.4 2.2 79.8 3.55 72.45 5 64.75 7.6 52.85 12.65 44.55 19.4 27.95 28.6 8.9 40.75 6.8 42.1 5.7 42.95 4.05 44.3 3.25 45.8 1.85 48.35 2.15 52.6 2.7 60.2 7.3 67.5 11.35 73.95 18 79.55 21.4 82.45 24.65 84.35 27.15 85.85 29 86.05 30.6 97.45 33.75 112.3 33.85 112.8 34 113.3 33.8 114.55 34 115.45
L 34.15 116.25 34.15 117.2
Q 34.15 117.65 34.35 118.9 32 117.85 28.9 117.55 24.75 117.05 20.85 118 16.7 119 13.5 121.35 10.05 123.95 6.45 129.6 3.65 133.9 2.35 137.15 -0.15 143.25 0 151 0.25 159.65 3.95 167.7 7.65 175.85 14.1 181.6 20.5 187.4 28.9 190.3 37.35 193.15 46 192.5 48.95 192.25 50.35 191.25 50.45 191.15 50.6 191.1 50.95 192.95 51.6 194.8 53.6 200.4 57.65 204.3 62.5 208.85 69.55 210.45 76.35 212 83.2 210.25 84.2 210 85.15 209.65 90.55 211.65 97.3 211.9 102.6 212.1 109.65 211.25 112.15 211 117.15 210.35 121.45 209.9 124.65 209.95 128.75 210.05 135.7 211.2 151.2 213.8 156.55 214.4 168.25 215.55 177.3 214.1 180.05 213.65 181.2 212.8 182.1 212.15 182.5 211.15 182.7 210.7 182.75 210.3 183.7 209.5 184.35 208.85 188.45 204.9 190.3 197.85 190.5 197.1 190.7 196.4 191.1 195.95 191.55 195.55 191.9 197.2 194.5 198.45 203.1 202.95 212.35 204.9 221.95 206.9 231.2 206 240.8 205 249.45 200.9 258.3 196.65 264.65 189.75 268.95 185.1 271.45 179.8 274.15 174 274.25 168.2 274.3 163.05 272.3 156.8 270.05 149.45 266.3 143.45 262.15 137 256.6 132.85 255.4 132 254.25 131.3 254.35 130.95 254.5 130.65 256.25 127.6 259.55 124.35 260.45 123.4 265.6 118.8 268.95 115.8 270.65 113.45 273.15 109.95 273.15 106.6 273.3 102.25 270.1 98.7 267.4 95.65 262.85 94.1 257.5 92.3 251.7 93.45 245.9 94.6 241.65 98.2 241.65 98.1 241.65 98 241.75 96.95 241.5 96.15 242 95.95 242.45 95.7 248.9 92.5 254.35 87.6 259.75 82.7 263.75 76.6 271.6 64.55 273.25 49.6 273.75 44.85 273.4 41.25 273.1 38.1 271.75 36.7 270.85 35.75 269.2 35.3 Z"/>
</g>

<g id="epiphany_0_Layer2_0_FILL">
<path fill="#FF99FF" stroke="none" d="
M 172.5 121.85
Q 173.15 116.85 173.35 114.35 173.45 113.4 173.7 112.65 168.05 112.2 162.9 110 156.55 107.3 151.75 102.65 150.2 101.15 148.9 99.5 146.2 96.05 144.6 91.95 142.65 86.85 142.8 81.5 142.5 81.5 142.25 81.45 141.85 81.4 140.85 81.1 138.15 80.5 132.55 80.25
L 123.4 79.9
Q 123.05 83.4 121.65 86.8 119.4 92.65 114.85 97.2 114.7 97.35 114.55 97.5 109.7 102.2 103.4 104.85 98.05 107.15 92.25 107.6 85.75 108.3 79.3 107.3 79.2 107.45 79.15 107.7 78.8 108.45 78.2 110 77.65 111.75 78 113.9 78 114.65 78 115.3
L 78.35 115.3
Q 79 117 80.75 119.05 84.75 123.65 90.55 127.1 96.25 130.55 103 132.4 111.15 134.75 123.55 135.2 129.55 135.45 135.15 135.3 133.9 134.35 133.35 133.85 132.55 132.9 132.1 132.5 131.1 131.7 130.7 131.35 129.9 130.65 129.6 130.05 127.65 129.9 125.75 129.6 124.5 129.35 124.1 128.9 123.85 128.55 124 128.1 124.05 127.7 124.5 127.45 125 127.15 126.3 127.25 130.5 127.5 132.65 126.3 133.8 125.55 134.45 125.35 135.15 125.1 135.9 125.1 136.85 125.2 137.2 125.45 137.6 125.6 138 126.15 140.45 129.1 140.45 133.55
L 140.4 135.05
Q 149.95 134.45 158.4 132.65 165.15 131.25 171.15 129.1 171.6 128.9 172.05 128.75 172.3 128.65 172.55 128.6 172.05 125.75 172.5 121.85
M 135.9 108.6
Q 135.3 109.3 134.25 109.85
L 129.7 112.6
Q 128.35 113.2 127.95 113.25 126.85 113.3 125.4 111.95 123.5 110.2 122.1 108.3 121.45 107.45 121.4 106.9 121.15 105.95 121.75 105.5 122.1 105.2 123.05 105.1
L 125.75 105.05
Q 127.75 105.05 130.4 105.35
L 134.05 105.75
Q 135.6 105.95 136.05 106.65 136.6 107.55 135.9 108.6
M 265.85 42.2
Q 259.7 40 244.9 37.5 231.2 35.2 224.25 32.15 223.05 31.7 222.45 31.15 222.2 31.15 222 31.1 177.75 13.35 153.5 9.75 125.2 5.5 100.6 7.65 86.75 8.8 77.05 11 64.6 13.85 55.3 19.1 54.85 19.35 54.45 19.6 54.2 19.8 54 20 51.05 22.65 44.9 28.1 39.95 32.95 37.9 37.75 36.75 40.55 36.2 44.05 35.8 46.6 35.6 50.65 33.7 85.4 42.7 119.3 43.45 122.1 43.25 123.65 43.15 124.55 42.6 125.3
L 43.05 126.9
Q 43.7 129.55 43.65 130.9 43.45 133.4 41.85 134.4 40.65 135.15 39.35 134.85 38.05 134.55 37.4 133.3 37.25 133 36.9 131.7
L 35.4 124.15
Q 35.3 124.1 35.25 124.05 33.85 123.15 30.55 123.1 30.3 123.1 30.1 123.1 24.9 123.2 22.5 124.1 18.95 125.45 15.55 129.6 9.3 137.4 8.65 148 8 158.5 13.05 167.25 18 175.9 27.25 180.9 36.45 185.85 46.55 185.6 48.4 185.55 49.4 185.8 49.75 185.9 50.05 186 50.05 184.75 50.15 183.5 50.6 177.9 53.25 172.6 55.8 167.45 59.9 163.35 63.5 159.8 67.25 158.4 67 157.9 66.95 157.4 66.65 157.35 66.4 157.35
L 66.35 157.35
Q 64.85 155.8 64 154.3 63.5 153.45 63.2 152.6 61.9 149.45 62.6 146.45 63.6 142.05 69.5 138.1 75.15 134.3 80.35 133.3 81.7 133.1 89.15 136.1 89.6 136.8 89.75 137.65 89.85 137.6 89.95 137.55 90.8 137.15 92.7 136.95 100.7 136.5 107 139.25 107.1 137.8 107.7 136.75 107.95 136.35 108.25 136 106.05 135.6 103.95 135.1 95.95 133.3 89.15 130.45 82.5 127.15 82.1 127 75.8 123.4 72.85 119.65 71.25 117.6 70.65 115.3 70.55 114.9 70.5 114.6 69.9 111.1 70.75 108 71.15 106.4 71.9 105.3 70.05 104.6 68.3 103.6 65.7 102.1 63.1 100.55 60.2 98.7 58.2 96.05 55.15 91.95 53.6 87.15 53.35 87.2 53.1 87.25 49.85 87.9 47.7 86.6 46.5 85.9 45.8 84.6 45.15 83.3 45.2 81.9 45.3 80.5 46.15 79.25 46.95 78.05 48.25 77.5 49.75 76.8 52.1 77 52.2 74.25 52.85 71.45 54.4 65.05 57.65 59.5 60.7 54.3 65.35 50.5 70.5 46.4 76.85 44.15 83.1 42 89.65 42.1 94.15 42.15 98.5 43.05 105.85 44.45 111.35 49.2 116.5 53.65 119.5 60 122.55 66.45 123.35 73.6 123.45 74.15 123.5 74.75 123.75 74.75 124 74.75 134 74.85 140.7 75.55 142.45 75.75 143.35 76.05 144.4 70.4 146.85 65.1 149.75 58.8 154.9 54.3 160.5 49.55 167.75 48.15 172.15 47.25 176.65 47.2 183.15 47.15 189.45 49.3 195.8 51.5 200.95 55.65 205.6 59.45 208.7 64.6 211.9 70.2 213.45 76.6 213.95 78.6 214.1 80.65 214.5 80.5 215.05 80.4 215.85 80.25 218.4 80.45 220.35 80.55 223.6 80.3 227.5 80.05 228.8 80.05 231.3 80.05 232.75 80.85 234 81.5 235 82.95 236.15 84.6 237.35 88.15 238.05 89.95 238 91 238 92.85 236.6 93.9 235.95 94.5 235.05 94.6 234.2 94.75 233.4 94.45 231.65 93.8 230.65 91.25 229.9 88.5 229.25 87.2 228 87.15 222.95 87.45 219.15 87.65 216.75 87.15 215.1 86.85 214 86.2 213.9 87.7 213.55 89.1 212.15 95.75 208.05 101.2 206.1 103.85 203.2 105.65 200.6 107.2 197.95 108.7 193.1 111.35 187.75 112.3 183.55 113 179.4 113.05 179.35 113.15 179.35 113.2 179.3 113.35 179.3 113.45 178.5 113.6 178 114.45 177.55 115.15 177.2 116.6 176.15 121.75 176.6 126.95 177.1 132.25 179.05 136.85 187.1 134.1 195.75 133.35 200.95 132.95 204.35 133.75 209.05 134.9 211.4 138.3 213 140.65 213.4 144.65 213.7 147.85 213.35 151.55 212.75 157 210.55 163.5 204.85 180.55 194.55 192.3 194.75 192.3 194.95 192.3 196 192.3 197.3 192.85 197.95 193.15 199.5 194 207.05 198 215.45 199.35 223.95 200.8 232.15 199.25 240.5 197.7 247.8 193.25 255.15 188.75 260.15 182 263.6 177.15 264.75 172.65 266.95 164.5 262.8 154.2 259.7 146.55 254.75 141.7 248.9 136 241.6 135.15 240.2 135 239.5 134.9 239.3 134.9 239.15 134.9 239.2 135.15 239.2 135.45 239.3 136.3 239.45 137.6 239.65 139.45 239.55 140.75 239.35 142.45 238.75 143.35 237.85 144.65 236.4 144.5 234.85 144.35 234.25 142.45 234 141.75 233.9 139.25 233.65 136.65 233.55 135.35 233.2 131.85 233.6 125.85
L 234.25 113.65
Q 234.7 105.7 235.65 101.4 236.4 98.15 236.45 97.6 236.7 96.1 236.85 95.55 237.05 95.05 237.3 94.65 237.25 94.4 237.3 94.1 237.3 93.05 238 92.2 238.75 91.2 241.15 89.9 247.1 86.5 251.95 81.05 256.6 75.85 259.65 69.35 265.25 57.65 265.85 42.2 Z"/>

<path fill="#FF66CC" stroke="none" d="
M 241.3 108.2
Q 240.95 109 240.5 109.4
L 240.5 109.6 239.3 125.55
Q 239.25 126.7 239.2 127.75 239.35 127.7 239.5 127.7 243.15 127.15 247 128.15 247.45 127.1 248.3 125.85 250.6 122.45 254.45 118.6 254.7 118.3 255 118.05 257.45 115.65 262.55 110.95 265.25 108.45 265.4 106.5 265.5 105.1 264.65 103.85 263.9 102.65 262.65 101.9 260.9 100.9 257.15 100.55 252.85 100.2 250.2 100.95 248.35 101.5 245.3 103.25 242.8 104.7 242.1 105.95 241.7 106.65 241.3 108.2 Z"/>
</g>

<g id="epiphany_0_Layer1_0_FILL">
<path fill="#660066" stroke="none" d="
M 273.4 41.25
Q 273.1 38.1 271.75 36.7 270.85 35.75 269.2 35.3 268.1 35 266.15 34.8 258.3 34 242.9 31.65 237.05 30.75 233.85 30.15 231.4 29.65 229.25 29.1 226.25 26.85 217.8 22.75 193.8 11.15 169.85 5.9 145.9 0.6 128.6 0.1 113.65 -0.35 96.1 1.3 86.4 2.2 79.8 3.55 72.45 5 64.75 7.6 52.85 12.65 44.55 19.4 27.95 28.6 8.9 40.75 6.8 42.1 5.7 42.95 4.05 44.3 3.25 45.8 1.85 48.35 2.15 52.6 2.7 60.2 7.3 67.5 11.35 73.95 18 79.55 21.4 82.45 24.65 84.35 27.15 85.85 29 86.05 30.6 97.45 33.75 112.3 33.85 112.8 34 113.3 33.8 114.55 34 115.45
L 34.15 116.25 34.15 117.2
Q 34.15 117.65 34.35 118.9 32 117.85 28.9 117.55 24.75 117.05 20.85 118 16.7 119 13.5 121.35 10.05 123.95 6.45 129.6 3.65 133.9 2.35 137.15 -0.15 143.25 0 151 0.25 159.65 3.95 167.7 7.65 175.85 14.1 181.6 20.5 187.4 28.9 190.3 37.35 193.15 46 192.5 48.95 192.25 50.35 191.25 50.45 191.15 50.6 191.1 50.95 192.95 51.6 194.8 53.6 200.4 57.65 204.3 62.5 208.85 69.55 210.45 76.35 212 83.2 210.25 84.2 210 85.15 209.65 90.55 211.65 97.3 211.9 102.6 212.1 109.65 211.25 112.15 211 117.15 210.35 121.45 209.9 124.65 209.95 128.75 210.05 135.7 211.2 151.2 213.8 156.55 214.4 168.25 215.55 177.3 214.1 180.05 213.65 181.2 212.8 182.1 212.15 182.5 211.15 182.7 210.7 182.75 210.3 183.7 209.5 184.35 208.85 188.45 204.9 190.3 197.85 190.5 197.1 190.7 196.4 191.1 195.95 191.55 195.55 191.9 197.2 194.5 198.45 203.1 202.95 212.35 204.9 221.95 206.9 231.2 206 240.8 205 249.45 200.9 258.3 196.65 264.65 189.75 268.95 185.1 271.45 179.8 274.15 174 274.25 168.2 274.3 163.05 272.3 156.8 270.05 149.45 266.3 143.45 262.15 137 256.6 132.85 255.4 132 254.25 131.3 254.35 130.95 254.5 130.65 256.25 127.6 259.55 124.35 260.45 123.4 265.6 118.8 268.95 115.8 270.65 113.45 273.15 109.95 273.15 106.6 273.3 102.25 270.1 98.7 267.4 95.65 262.85 94.1 257.5 92.3 251.7 93.45 245.9 94.6 241.65 98.2 241.65 98.1 241.65 98 241.75 96.95 241.5 96.15 242 95.95 242.45 95.7 248.9 92.5 254.35 87.6 259.75 82.7 263.75 76.6 271.6 64.55 273.25 49.6 273.75 44.85 273.4 41.25
M 244.9 37.5
Q 259.7 40 265.85 42.2 265.25 57.65 259.65 69.35 256.6 75.85 251.95 81.05 247.1 86.5 241.15 89.9 238.75 91.2 238 92.2 237.3 93.05 237.3 94.1 237.25 94.4 237.3 94.65 237.05 95.05 236.85 95.55 236.7 96.1 236.45 97.6 236.4 98.15 235.65 101.4 234.7 105.7 234.25 113.65
L 233.6 125.85
Q 233.2 131.85 233.55 135.35 233.65 136.65 233.9 139.25 234 141.75 234.25 142.45 234.85 144.35 236.4 144.5 237.85 144.65 238.75 143.35 239.35 142.45 239.55 140.75 239.65 139.45 239.45 137.6 239.3 136.3 239.2 135.45 239.2 135.15 239.15 134.9 239.3 134.9 239.5 134.9 240.2 135 241.6 135.15 248.9 136 254.75 141.7 259.7 146.55 262.8 154.2 266.95 164.5 264.75 172.65 263.6 177.15 260.15 182 255.15 188.75 247.8 193.25 240.5 197.7 232.15 199.25 223.95 200.8 215.45 199.35 207.05 198 199.5 194 197.95 193.15 197.3 192.85 196 192.3 194.95 192.3 194.75 192.3 194.55 192.3 204.85 180.55 210.55 163.5 212.75 157 213.35 151.55 213.7 147.85 213.4 144.65 213 140.65 211.4 138.3 209.05 134.9 204.35 133.75 200.95 132.95 195.75 133.35 187.1 134.1 179.05 136.85 177.1 132.25 176.6 126.95 176.15 121.75 177.2 116.6 177.55 115.15 178 114.45 178.5 113.6 179.3 113.45 179.3 113.35 179.35 113.2 179.35 113.15 179.4 113.05 183.55 113 187.75 112.3 193.1 111.35 197.95 108.7 200.6 107.2 203.2 105.65 206.1 103.85 208.05 101.2 212.15 95.75 213.55 89.1 213.9 87.7 214 86.2 215.1 86.85 216.75 87.15 219.15 87.65 222.95 87.45 228 87.15 229.25 87.2 229.9 88.5 230.65 91.25 231.65 93.8 233.4 94.45 234.2 94.75 235.05 94.6 235.95 94.5 236.6 93.9 238 92.85 238 91 238.05 89.95 237.35 88.15 236.15 84.6 235 82.95 234 81.5 232.75 80.85 231.3 80.05 228.8 80.05 227.5 80.05 223.6 80.3 220.35 80.55 218.4 80.45 215.85 80.25 215.05 80.4 214.5 80.5 214.1 80.65 213.95 78.6 213.45 76.6 211.9 70.2 208.7 64.6 205.6 59.45 200.95 55.65 195.8 51.5 189.45 49.3 183.15 47.15 176.65 47.2 172.15 47.25 167.75 48.15 160.5 49.55 154.9 54.3 149.75 58.8 146.85 65.1 144.4 70.4 143.35 76.05 142.45 75.75 140.7 75.55 134 74.85 124 74.75 123.75 74.75 123.5 74.75 123.45 74.15 123.35 73.6 122.55 66.45 119.5 60 116.5 53.65 111.35 49.2 105.85 44.45 98.5 43.05 94.15 42.15 89.65 42.1 83.1 42 76.85 44.15 70.5 46.4 65.35 50.5 60.7 54.3 57.65 59.5 54.4 65.05 52.85 71.45 52.2 74.25 52.1 77 49.75 76.8 48.25 77.5 46.95 78.05 46.15 79.25 45.3 80.5 45.2 81.9 45.15 83.3 45.8 84.6 46.5 85.9 47.7 86.6 49.85 87.9 53.1 87.25 53.35 87.2 53.6 87.15 55.15 91.95 58.2 96.05 60.2 98.7 63.1 100.55 65.7 102.1 68.3 103.6 70.05 104.6 71.9 105.3 71.15 106.4 70.75 108 69.9 111.1 70.5 114.6 70.55 114.9 70.65 115.3 71.25 117.6 72.85 119.65 75.8 123.4 82.1 127 82.5 127.15 89.15 130.45 95.95 133.3 103.95 135.1 106.05 135.6 108.25 136 107.95 136.35 107.7 136.75 107.1 137.8 107 139.25 100.7 136.5 92.7 136.95 90.8 137.15 89.95 137.55 89.85 137.6 89.75 137.65 89.6 136.8 89.15 136.1 81.7 133.1 80.35 133.3 75.15 134.3 69.5 138.1 63.6 142.05 62.6 146.45 61.9 149.45 63.2 152.6 63.5 153.45 64 154.3 64.85 155.8 66.35 157.35
L 66.4 157.35
Q 66.65 157.35 66.95 157.4 67 157.9 67.25 158.4 63.5 159.8 59.9 163.35 55.8 167.45 53.25 172.6 50.6 177.9 50.15 183.5 50.05 184.75 50.05 186 49.75 185.9 49.4 185.8 48.4 185.55 46.55 185.6 36.45 185.85 27.25 180.9 18 175.9 13.05 167.25 8 158.5 8.65 148 9.3 137.4 15.55 129.6 18.95 125.45 22.5 124.1 24.9 123.2 30.1 123.1 30.3 123.1 30.55 123.1 33.85 123.15 35.25 124.05 35.3 124.1 35.4 124.15
L 36.9 131.7
Q 37.25 133 37.4 133.3 38.05 134.55 39.35 134.85 40.65 135.15 41.85 134.4 43.45 133.4 43.65 130.9 43.7 129.55 43.05 126.9
L 42.6 125.3
Q 43.15 124.55 43.25 123.65 43.45 122.1 42.7 119.3 33.7 85.4 35.6 50.65 35.8 46.6 36.2 44.05 36.75 40.55 37.9 37.75 39.95 32.95 44.9 28.1 51.05 22.65 54 20 54.2 19.8 54.45 19.6 54.85 19.35 55.3 19.1 64.6 13.85 77.05 11 86.75 8.8 100.6 7.65 125.2 5.5 153.5 9.75 177.75 13.35 222 31.1 222.2 31.15 222.45 31.15 223.05 31.7 224.25 32.15 231.2 35.2 244.9 37.5
M 185.65 54.5
Q 192.8 56.3 198.4 61.15 202.7 64.9 205.25 70.05 208.2 75.85 208.5 82.5 208.75 87.65 206.7 92.25 206.35 93.05 206.15 93.8 203.65 100.4 197.25 103.85 191 107.25 184 108.1 177 108.85 170.15 107.45 163 105.85 157.35 101.45 151.85 97.15 149.1 90.6 146.35 84 146.75 76.9 147.15 69.8 151.75 64.35 155.25 60.15 159.9 57.1 166 53.95 172.75 53.35 179.3 52.7 185.65 54.5
M 240.5 109.4
Q 240.95 109 241.3 108.2 241.7 106.65 242.1 105.95 242.8 104.7 245.3 103.25 248.35 101.5 250.2 100.95 252.85 100.2 257.15 100.55 260.9 100.9 262.65 101.9 263.9 102.65 264.65 103.85 265.5 105.1 265.4 106.5 265.25 108.45 262.55 110.95 257.45 115.65 255 118.05 254.7 118.3 254.45 118.6 250.6 122.45 248.3 125.85 247.45 127.1 247 128.15 243.15 127.15 239.5 127.7 239.35 127.7 239.2 127.75 239.25 126.7 239.3 125.55
L 240.5 109.6 240.5 109.4
M 205.25 141.4
Q 206.4 142.7 206.3 146 206.1 152.15 204.2 158.85 203.9 159.7 203.65 160.55 201.6 166.75 197.8 174.25 196.35 177.1 193.4 182.85 192.5 184.75 191.65 186.7 191.6 183.5 191.05 180.15 189.7 171.55 185.45 163.1 184.75 161.7 184.25 160.7 183.15 158.55 183 158 182.35 156.4 181.85 155.9 181.45 155.45 180.85 155.3 180.2 155.1 179.7 155.4 178.4 156.1 179.15 158.7
L 180.7 164.05
Q 183.2 172.55 184.05 177.2 185.35 184.6 184.45 190.5 183.2 199.05 177.65 205.8 176.8 206.8 176.25 207.6 175.95 207.65 175.6 207.75 167.5 209.6 154.15 207.55 136.75 204.85 132.4 204.8 127.95 204.75 120.25 205.65 111.55 206.6 108.1 206.75 100.15 207 92.5 205.5 92.55 205.4 92.65 205.3 94.65 203.45 96.75 200 101.1 192.8 103.1 185.45 105.25 177.35 104.3 169.85 104.1 168.4 103.7 167.5 103.7 167.45 103.75 167.45 105.4 164.9 105.7 161.7 105.9 159.75 105.45 157.95 105.8 156.95 105.55 155.6 105.15 153.1 103.3 151.15 101.45 149.2 99 148.6 99.6 147.2 99.4 145.65 99.25 144.6 98.8 143.7 102.3 144.3 104.55 144.95 106.35 145.45 106.75 145.55 108 145.85 109 145.7 109.15 145.7 109.25 145.65 109.75 146.15 110.35 146.45 111.15 146.8 111.95 146.75 112.75 146.65 113.3 146.1 114.3 145.15 114 143.1 113.75 142 113.7 141.5 113.45 140.55 113.5 139.95 113.5 139.6 113.7 138.3 113.8 137.4 113.7 136.85 120.65 137.7 128.05 137.8 139.5 137.9 152.3 136.05 155.15 135.65 158.25 135.1 163.65 134.2 169.55 132.9 169.5 133.2 169.55 133.6 169.55 134.9 169.3 136.15 169.05 137.05 168.55 138.85 168.2 140.5 168.65 141.55 169 142.2 169.6 142.6 169.75 142.65 169.95 142.75 169.95 142.9 170.05 143.05 170.75 144.75 173.95 144.15 176 143.75 178.85 143.1 179.6 143.75 180.3 144.1 181.15 144.45 182.05 144.35 182.55 144.3 183.05 144.15 182.45 143.45 181.95 142.65 181.85 142.55 181.75 142.4 184.3 141.75 187.35 140.95 195.25 139.15 200.85 139.65 204 139.95 205.25 141.4
M 173.7 112.65
Q 173.45 113.4 173.35 114.35 173.15 116.85 172.5 121.85 172.05 125.75 172.55 128.6 172.3 128.65 172.05 128.75 171.6 128.9 171.15 129.1 165.15 131.25 158.4 132.65 149.95 134.45 140.4 135.05
L 140.45 133.55
Q 140.45 129.1 138 126.15 137.6 125.6 137.2 125.45 136.85 125.2 135.9 125.1 135.15 125.1 134.45 125.35 133.8 125.55 132.65 126.3 130.5 127.5 126.3 127.25 125 127.15 124.5 127.45 124.05 127.7 124 128.1 123.85 128.55 124.1 128.9 124.5 129.35 125.75 129.6 127.65 129.9 129.6 130.05 129.9 130.65 130.7 131.35 131.1 131.7 132.1 132.5 132.55 132.9 133.35 133.85 133.9 134.35 135.15 135.3 129.55 135.45 123.55 135.2 111.15 134.75 103 132.4 96.25 130.55 90.55 127.1 84.75 123.65 80.75 119.05 79 117 78.35 115.3
L 78 115.3
Q 78 114.65 78 113.9 77.65 111.75 78.2 110 78.8 108.45 79.15 107.7 79.2 107.45 79.3 107.3 85.75 108.3 92.25 107.6 98.05 107.15 103.4 104.85 109.7 102.2 114.55 97.5 114.7 97.35 114.85 97.2 119.4 92.65 121.65 86.8 123.05 83.4 123.4 79.9
L 132.55 80.25
Q 138.15 80.5 140.85 81.1 141.85 81.4 142.25 81.45 142.5 81.5 142.8 81.5 142.65 86.85 144.6 91.95 146.2 96.05 148.9 99.5 150.2 101.15 151.75 102.65 156.55 107.3 162.9 110 168.05 112.2 173.7 112.65
M 106.4 51.95
Q 111.05 55.05 114.55 59.2 119.15 64.7 119.55 71.8 119.95 78.9 117.15 85.5 114.45 92 108.95 96.3 103.3 100.75 96.2 102.3 89.3 103.75 82.25 102.95 75.25 102.15 69.05 98.75 62.65 95.3 60.2 88.65 59.9 87.9 59.6 87.15 58.85 85.45 58.4 83.75 58.6 83.25 58.65 82.7 58.8 81.55 58.2 80.4 58.05 80.05 57.8 79.75 57.75 78.6 57.8 77.4 58.1 70.75 61.05 64.9 63.6 59.8 67.9 56 73.45 51.2 80.65 49.35 87.05 47.6 93.6 48.2 100.3 48.85 106.4 51.95
M 15.1 45.75
Q 20.2 41.9 30.85 34.6 29.55 38 28.75 42.95 26.25 58.3 28 76.9 20.55 72.3 14.85 63.3 12.3 59.35 11.3 56.2 10.1 52.25 11.35 49.7 12.15 47.95 15.1 45.75
M 71.6 144.5
Q 73.75 141.5 76.7 139.75 79.9 137.75 83.2 137.75 84 137.75 84.45 138.05 85.15 138.55 85.1 140 85.05 140.5 84.9 141.35 84.9 142.15 85.05 142.6 85.4 143.95 87.1 144.5 87.8 144.75 89.9 145.05 92.2 145.35 94.05 146 95.15 146.35 95.5 146.9 95.75 147.4 95.65 148.35 95.45 149.45 95.5 149.75 95.65 150.95 97.1 151.8 97.3 151.95 98.3 152.4 99.05 152.75 99.45 153.05 99.85 153.35 100.1 153.7 99.35 154.45 99.55 155.85 99.65 156.7 100.15 158.4 100.45 159.85 100.1 161.4 99.75 162.85 98.9 164 98.55 164.45 98 165.15 97.05 165.6 96.9 165.7 95.55 166.3 93.6 166.45 92.45 166.55 90.15 166.45 87.95 166.4 86.35 166.15 82.55 165.5 79.05 162.9 75.9 160.6 73.4 157 73.1 156.6 72.9 156.3 72.05 154.6 71.35 152.9 70.85 151.55 70.7 150.95 70.6 150.35 70.6 149.95 70.05 148.85 70.1 147.8 70.15 146.35 71.6 144.5
M 70.95 163.15
Q 72.55 164.7 73.95 165.6 75.8 166.8 80.15 168.4 83.25 169.6 84.9 170 86.35 170.25 89.1 170.5 92.75 170.75 94.55 170.5 95.9 170.25 97.75 169.65 97.8 169.7 97.8 169.75 98.45 170.1 99.15 170.25 99.2 170.75 99.3 171.4 100.45 177.55 98.55 184.3 96.8 190.35 92.9 196.15 90.6 199.35 88.75 200.95 86.8 202.6 84.4 203.5 82.6 203.4 81.85 204.3 81.65 204.3 81.45 204.35 77.45 205.2 73.4 204.3 69.25 203.4 65.8 200.95 62.3 198.4 60.15 194.85 58 191.25 57.55 187 57.1 182.65 58.45 178.75 59.95 174.45 64.05 170 64.4 169.6 70.95 163.15
M 132.55 129.4
Q 133.85 128.9 134.75 128.35 135.15 128.15 135.35 128.2 135.5 128.3 135.65 128.45 136.2 129.25 136.35 130
L 136.6 130.95
Q 136.65 131.35 136.85 132 136.95 132.65 136.85 133.05 136.1 132.65 134.85 131.4 133.7 130.15 132.55 129.4
M 95.6 71.85
Q 92.1 72.15 91.35 72.25 90.15 72.4 87.8 73 82.75 74.25 81.2 74.75 80.2 75.05 79.45 75.45 78.75 74.95 78.45 74.7 76.95 73.35 76.2 72.75 74.9 71.7 73.6 71.65 72.2 71.65 71.3 72.8 70.4 74 70.85 75.35 71.05 76.25 72.15 77.4 73.45 78.7 75 79.9 76.25 80.85 77.4 81.2 77.7 81.6 78 81.75 78.55 82.2 79.4 82.3 79.85 82.35 80.3 82.2 80.65 82.2 81.15 82.1 81.7 81.95 82.9 81.6 86 80.6 88.4 80 90.75 79.3 92 79.15 93.5 78.9 96.05 78.75 99.1 78.55 100.15 78.4 102.2 78.15 103 77.45 104.35 76.5 104.3 74.85 104.25 73.15 102.8 72.25 102.05 71.7 100.9 71.65 100.2 71.55 98.85 71.65 96.55 71.8 95.6 71.85
M 134.25 109.85
Q 135.3 109.3 135.9 108.6 136.6 107.55 136.05 106.65 135.6 105.95 134.05 105.75
L 130.4 105.35
Q 127.75 105.05 125.75 105.05
L 123.05 105.1
Q 122.1 105.2 121.75 105.5 121.15 105.95 121.4 106.9 121.45 107.45 122.1 108.3 123.5 110.2 125.4 111.95 126.85 113.3 127.95 113.25 128.35 113.2 129.7 112.6
L 134.25 109.85
M 137.7 158.95
Q 137 158.35 136.15 158.6 135.6 158.75 134.65 159.6
L 133.7 160.55
Q 132.25 162 131.85 163 131.6 163.75 131.65 164.55 131.7 165.45 132.2 166 133.05 166.15 133.95 165.45 134.3 165.15 135.3 164.05 135.8 163.5 136.85 162.4 138.1 161.3 138.25 160.5 138.4 159.65 137.7 158.95
M 154.95 139.15
Q 154.1 139.25 153.6 139.9 153.15 140.45 152.75 141.9
L 152.4 143.7
Q 152.2 145.15 152.4 146.25 152.75 147.7 153.85 148.3 154.65 148.7 155.65 148.45 156.55 148.2 157.05 147.4 157.35 146.9 157.5 145.85 158.2 143.15 158.15 142.35 158.15 140.15 156.55 139.3 155.8 138.95 154.95 139.15
M 141.15 143.2
Q 140.75 144.3 141.2 146.35 141.6 148 142.3 148.6 143.2 149.35 144.2 149.05 145.3 148.7 145.65 147.75 145.95 146.9 145.5 145.05 145.35 143.7 145.1 143.05 144.55 141.9 143.7 141.7 142.9 141.45 142.15 141.9 141.45 142.4 141.15 143.2
M 122.75 145.8
Q 123 144.25 122.9 142.6 122.8 141.5 122.4 140.9 121.9 139.95 121 139.95 121 140.15 120.65 140.05 119.9 140 119.5 140.8 119.15 141.45 119.15 142.2 119 143.85 119.15 145.4 119.25 146.35 119.5 146.8 119.9 147.6 120.75 147.7 121.65 147.8 122.3 147.1 122.55 146.75 122.75 145.8
M 127.7 143.35
Q 127.4 144.05 127.45 145.15 127.5 145.75 127.65 146.95 127.65 148.4 127.9 148.8 128.2 149.3 128.75 149.5 129.3 149.75 129.9 149.6 130.9 149.45 131.65 148.3 132.15 147.4 132.3 146.15 132.55 144.8 132.3 143.8 131.95 142.45 130.9 141.95 130.05 141.55 129.1 141.95 128.1 142.4 127.7 143.35
M 163.45 140.7
Q 163.2 139.45 162.55 138.8 162.05 138.3 161.95 138.1 161.75 137.65 161.7 137.45 161.5 137.1 161.2 137.05 160.85 137 160.6 137.45
L 160.3 138.1 159.6 138.9
Q 158.8 139.85 158.8 141.5 158.8 142.6 159 143.05 159.35 144 160.35 144.35 161.3 144.75 162.2 144.25 163.05 143.75 163.4 142.65 163.6 141.9 163.45 140.7
M 167.95 77
Q 166.55 76.9 165.1 76.9 163.3 76.9 162.4 77.45 161.1 78.25 161.15 79.8 161.15 81.25 162.55 82 163.1 82.35 164 82.45 164.45 82.5 165.45 82.55 166.35 82.6 168.85 83 173.15 83.8 175.4 84.35 178.9 85.25 181.5 86.7 183.05 87.5 183.7 87.75 184.9 88.2 185.9 87.95 187.15 87.7 187.7 86.6 189.35 85.95 191.95 84.5 193.1 83.85 193.6 83.45 194.45 82.8 194.8 82 195.3 80.85 194.7 79.55 194 78.3 192.75 78.05 191.1 77.65 189.35 78.95 188.8 79.3 187.95 80.1 187 80.95 186.55 81.25 185.85 81.75 185.4 81.95 180.65 79.45 173.25 77.9 169.65 77.2 167.95 77 Z"/>

<path fill="#CC3399" stroke="none" d="
M 134.75 128.35
Q 133.85 128.9 132.55 129.4 133.7 130.15 134.85 131.4 136.1 132.65 136.85 133.05 136.95 132.65 136.85 132 136.65 131.35 136.6 130.95
L 136.35 130
Q 136.2 129.25 135.65 128.45 135.5 128.3 135.35 128.2 135.15 128.15 134.75 128.35
M 73.95 165.6
Q 72.55 164.7 70.95 163.15 64.4 169.6 64.05 170 59.95 174.45 58.45 178.75 57.1 182.65 57.55 187 58 191.25 60.15 194.85 62.3 198.4 65.8 200.95 69.25 203.4 73.4 204.3 77.45 205.2 81.45 204.35 81.65 204.3 81.85 204.3 82.6 203.4 84.4 203.5 86.8 202.6 88.75 200.95 90.6 199.35 92.9 196.15 96.8 190.35 98.55 184.3 100.45 177.55 99.3 171.4 99.2 170.75 99.15 170.25 98.45 170.1 97.8 169.75 97.8 169.7 97.75 169.65 95.9 170.25 94.55 170.5 92.75 170.75 89.1 170.5 86.35 170.25 84.9 170 83.25 169.6 80.15 168.4 75.8 166.8 73.95 165.6
M 206.3 146
Q 206.4 142.7 205.25 141.4 204 139.95 200.85 139.65 195.25 139.15 187.35 140.95 184.3 141.75 181.75 142.4 181.85 142.55 181.95 142.65 182.45 143.45 183.05 144.15 182.55 144.3 182.05 144.35 181.15 144.45 180.3 144.1 179.6 143.75 178.85 143.1 176 143.75 173.95 144.15 170.75 144.75 170.05 143.05 169.95 142.9 169.95 142.75 169.75 142.65 169.6 142.6 169 142.2 168.65 141.55 168.2 140.5 168.55 138.85 169.05 137.05 169.3 136.15 169.55 134.9 169.55 133.6 169.5 133.2 169.55 132.9 163.65 134.2 158.25 135.1 155.15 135.65 152.3 136.05 139.5 137.9 128.05 137.8 120.65 137.7 113.7 136.85 113.8 137.4 113.7 138.3 113.5 139.6 113.5 139.95 113.45 140.55 113.7 141.5 113.75 142 114 143.1 114.3 145.15 113.3 146.1 112.75 146.65 111.95 146.75 111.15 146.8 110.35 146.45 109.75 146.15 109.25 145.65 109.15 145.7 109 145.7 108 145.85 106.75 145.55 106.35 145.45 104.55 144.95 102.3 144.3 98.8 143.7 99.25 144.6 99.4 145.65 99.6 147.2 99 148.6 101.45 149.2 103.3 151.15 105.15 153.1 105.55 155.6 105.8 156.95 105.45 157.95 105.9 159.75 105.7 161.7 105.4 164.9 103.75 167.45 103.7 167.45 103.7 167.5 104.1 168.4 104.3 169.85 105.25 177.35 103.1 185.45 101.1 192.8 96.75 200 94.65 203.45 92.65 205.3 92.55 205.4 92.5 205.5 100.15 207 108.1 206.75 111.55 206.6 120.25 205.65 127.95 204.75 132.4 204.8 136.75 204.85 154.15 207.55 167.5 209.6 175.6 207.75 175.95 207.65 176.25 207.6 176.8 206.8 177.65 205.8 183.2 199.05 184.45 190.5 185.35 184.6 184.05 177.2 183.2 172.55 180.7 164.05
L 179.15 158.7
Q 178.4 156.1 179.7 155.4 180.2 155.1 180.85 155.3 181.45 155.45 181.85 155.9 182.35 156.4 183 158 183.15 158.55 184.25 160.7 184.75 161.7 185.45 163.1 189.7 171.55 191.05 180.15 191.6 183.5 191.65 186.7 192.5 184.75 193.4 182.85 196.35 177.1 197.8 174.25 201.6 166.75 203.65 160.55 203.9 159.7 204.2 158.85 206.1 152.15 206.3 146
M 162.55 138.8
Q 163.2 139.45 163.45 140.7 163.6 141.9 163.4 142.65 163.05 143.75 162.2 144.25 161.3 144.75 160.35 144.35 159.35 144 159 143.05 158.8 142.6 158.8 141.5 158.8 139.85 159.6 138.9
L 160.3 138.1 160.6 137.45
Q 160.85 137 161.2 137.05 161.5 137.1 161.7 137.45 161.75 137.65 161.95 138.1 162.05 138.3 162.55 138.8
M 127.45 145.15
Q 127.4 144.05 127.7 143.35 128.1 142.4 129.1 141.95 130.05 141.55 130.9 141.95 131.95 142.45 132.3 143.8 132.55 144.8 132.3 146.15 132.15 147.4 131.65 148.3 130.9 149.45 129.9 149.6 129.3 149.75 128.75 149.5 128.2 149.3 127.9 148.8 127.65 148.4 127.65 146.95 127.5 145.75 127.45 145.15
M 122.9 142.6
Q 123 144.25 122.75 145.8 122.55 146.75 122.3 147.1 121.65 147.8 120.75 147.7 119.9 147.6 119.5 146.8 119.25 146.35 119.15 145.4 119 143.85 119.15 142.2 119.15 141.45 119.5 140.8 119.9 140 120.65 140.05 121 140.15 121 139.95 121.9 139.95 122.4 140.9 122.8 141.5 122.9 142.6
M 141.2 146.35
Q 140.75 144.3 141.15 143.2 141.45 142.4 142.15 141.9 142.9 141.45 143.7 141.7 144.55 141.9 145.1 143.05 145.35 143.7 145.5 145.05 145.95 146.9 145.65 147.75 145.3 148.7 144.2 149.05 143.2 149.35 142.3 148.6 141.6 148 141.2 146.35
M 153.6 139.9
Q 154.1 139.25 154.95 139.15 155.8 138.95 156.55 139.3 158.15 140.15 158.15 142.35 158.2 143.15 157.5 145.85 157.35 146.9 157.05 147.4 156.55 148.2 155.65 148.45 154.65 148.7 153.85 148.3 152.75 147.7 152.4 146.25 152.2 145.15 152.4 143.7
L 152.75 141.9
Q 153.15 140.45 153.6 139.9
M 136.15 158.6
Q 137 158.35 137.7 158.95 138.4 159.65 138.25 160.5 138.1 161.3 136.85 162.4 135.8 163.5 135.3 164.05 134.3 165.15 133.95 165.45 133.05 166.15 132.2 166 131.7 165.45 131.65 164.55 131.6 163.75 131.85 163 132.25 162 133.7 160.55
L 134.65 159.6
Q 135.6 158.75 136.15 158.6 Z"/>

<path fill="#FF99FF" stroke="none" d="
M 76.7 139.75
Q 73.75 141.5 71.6 144.5 70.15 146.35 70.1 147.8 70.05 148.85 70.6 149.95 70.6 150.35 70.7 150.95 70.85 151.55 71.35 152.9 72.05 154.6 72.9 156.3 73.1 156.6 73.4 157 75.9 160.6 79.05 162.9 82.55 165.5 86.35 166.15 87.95 166.4 90.15 166.45 92.45 166.55 93.6 166.45 95.55 166.3 96.9 165.7 97.05 165.6 98 165.15 98.55 164.45 98.9 164 99.75 162.85 100.1 161.4 100.45 159.85 100.15 158.4 99.65 156.7 99.55 155.85 99.35 154.45 100.1 153.7 99.85 153.35 99.45 153.05 99.05 152.75 98.3 152.4 97.3 151.95 97.1 151.8 95.65 150.95 95.5 149.75 95.45 149.45 95.65 148.35 95.75 147.4 95.5 146.9 95.15 146.35 94.05 146 92.2 145.35 89.9 145.05 87.8 144.75 87.1 144.5 85.4 143.95 85.05 142.6 84.9 142.15 84.9 141.35 85.05 140.5 85.1 140 85.15 138.55 84.45 138.05 84 137.75 83.2 137.75 79.9 137.75 76.7 139.75 Z"/>

<path fill="#FF66CC" stroke="none" d="
M 30.85 34.6
Q 20.2 41.9 15.1 45.75 12.15 47.95 11.35 49.7 10.1 52.25 11.3 56.2 12.3 59.35 14.85 63.3 20.55 72.3 28 76.9 26.25 58.3 28.75 42.95 29.55 38 30.85 34.6
M 265.85 42.2
Q 259.7 40 244.9 37.5 231.2 35.2 224.25 32.15 223.05 31.7 222.45 31.15 222.2 31.15 222 31.1 177.75 13.35 153.5 9.75 125.2 5.5 100.6 7.65 86.75 8.8 77.05 11 64.6 13.85 55.3 19.1 54.85 19.35 54.45 19.6 54.2 19.8 54 20 51.05 22.65 44.9 28.1 39.95 32.95 37.9 37.75 36.75 40.55 36.2 44.05 35.8 46.6 35.6 50.65 33.7 85.4 42.7 119.3 43.45 122.1 43.25 123.65 43.15 124.55 42.6 125.3
L 43.05 126.9
Q 43.7 129.55 43.65 130.9 43.45 133.4 41.85 134.4 40.65 135.15 39.35 134.85 38.05 134.55 37.4 133.3 37.25 133 36.9 131.7
L 35.4 124.15
Q 35.3 124.1 35.25 124.05 33.85 123.15 30.55 123.1 25.8 125.1 21.95 129.05 16.4 134.8 15.1 142.25 14.4 147.35 16.1 149.75 17.8 152.4 22.5 153.5 27.9 154.8 33.6 153.55 39.2 152.35 43.75 149 48.2 145.65 51.15 140.65 54.05 135.75 55 130.15 54.75 134.65 54.9 137.3 55.1 141.2 56.1 144.25 57.3 147.75 59.85 150.25 61.4 151.8 63.2 152.6 61.9 149.45 62.6 146.45 63.6 142.05 69.5 138.1 75.15 134.3 80.35 133.3 81.7 133.1 89.15 136.1 89.6 136.8 89.75 137.65 89.85 137.6 89.95 137.55 90.8 137.15 92.7 136.95 100.7 136.5 107 139.25 107.1 137.8 107.7 136.75 107.95 136.35 108.25 136 106.05 135.6 103.95 135.1 95.95 133.3 89.15 130.45 82.5 127.15 82.1 127 75.8 123.4 72.85 119.65 71.25 117.6 70.65 115.3 70.55 114.9 70.5 114.6 69.9 111.1 70.75 108 71.15 106.4 71.9 105.3 70.05 104.6 68.3 103.6 65.7 102.1 63.1 100.55 60.2 98.7 58.2 96.05 55.15 91.95 53.6 87.15 53.35 87.2 53.1 87.25 49.85 87.9 47.7 86.6 46.5 85.9 45.8 84.6 45.15 83.3 45.2 81.9 45.3 80.5 46.15 79.25 46.95 78.05 48.25 77.5 49.75 76.8 52.1 77 52.2 74.25 52.85 71.45 54.4 65.05 57.65 59.5 60.7 54.3 65.35 50.5 70.5 46.4 76.85 44.15 83.1 42 89.65 42.1 94.15 42.15 98.5 43.05 105.85 44.45 111.35 49.2 116.5 53.65 119.5 60 122.55 66.45 123.35 73.6 123.45 74.15 123.5 74.75 123.75 74.75 124 74.75 134 74.85 140.7 75.55 142.45 75.75 143.35 76.05 144.4 70.4 146.85 65.1 149.75 58.8 154.9 54.3 160.5 49.55 167.75 48.15 172.15 47.25 176.65 47.2 183.15 47.15 189.45 49.3 195.8 51.5 200.95 55.65 205.6 59.45 208.7 64.6 211.9 70.2 213.45 76.6 213.95 78.6 214.1 80.65 214.5 80.5 215.05 80.4 215.85 80.25 218.4 80.45 220.35 80.55 223.6 80.3 227.5 80.05 228.8 80.05 231.3 80.05 232.75 80.85 234 81.5 235 82.95 236.15 84.6 237.35 88.15 238.05 89.95 238 91 238 92.85 236.6 93.9 235.95 94.5 235.05 94.6 234.2 94.75 233.4 94.45 231.65 93.8 230.65 91.25 229.9 88.5 229.25 87.2 228 87.15 222.95 87.45 219.15 87.65 216.75 87.15 215.1 86.85 214 86.2 213.9 87.7 213.55 89.1 212.15 95.75 208.05 101.2 206.1 103.85 203.2 105.65 200.6 107.2 197.95 108.7 193.1 111.35 187.75 112.3 183.55 113 179.4 113.05 179.35 113.15 179.35 113.2 179.3 113.35 179.3 113.45 178.5 113.6 178 114.45 177.55 115.15 177.2 116.6 176.15 121.75 176.6 126.95 177.1 132.25 179.05 136.85 187.1 134.1 195.75 133.35 200.95 132.95 204.35 133.75 209.05 134.9 211.4 138.3 213 140.65 213.4 144.65 213.7 147.85 213.35 151.55 215.55 148.8 217.1 145.4 220.65 137.75 219.5 129.75 223.8 139.75 232.75 146.75 235.35 148.8 238.05 149.45 241.3 150.25 243.35 148.5 245.1 147.05 245.25 144.55 245.4 142.2 244.1 140.15 243.1 138.4 241.15 136.85 240.45 136.3 239.2 135.45 239.3 136.3 239.45 137.6 239.65 139.45 239.55 140.75 239.35 142.45 238.75 143.35 237.85 144.65 236.4 144.5 234.85 144.35 234.25 142.45 234 141.75 233.9 139.25 233.65 136.65 233.55 135.35 233.2 131.85 233.6 125.85
L 234.25 113.65
Q 234.7 105.7 235.65 101.4 236.4 98.15 236.45 97.6 236.7 96.1 236.85 95.55 237.05 95.05 237.3 94.65 237.25 94.4 237.3 94.1 237.3 93.05 238 92.2 238.75 91.2 241.15 89.9 247.1 86.5 251.95 81.05 256.6 75.85 259.65 69.35 265.25 57.65 265.85 42.2 Z"/>

<path fill="#CCFFFF" stroke="none" d="
M 114.55 59.2
Q 111.05 55.05 106.4 51.95 100.3 48.85 93.6 48.2 87.05 47.6 80.65 49.35 73.45 51.2 67.9 56 63.6 59.8 61.05 64.9 58.1 70.75 57.8 77.4 57.75 78.6 57.8 79.75 58.05 80.05 58.2 80.4 58.8 81.55 58.65 82.7 58.6 83.25 58.4 83.75 58.85 85.45 59.6 87.15 59.9 87.9 60.2 88.65 62.65 95.3 69.05 98.75 75.25 102.15 82.25 102.95 89.3 103.75 96.2 102.3 103.3 100.75 108.95 96.3 114.45 92 117.15 85.5 119.95 78.9 119.55 71.8 119.15 64.7 114.55 59.2
M 91.35 72.25
Q 92.1 72.15 95.6 71.85 96.55 71.8 98.85 71.65 100.2 71.55 100.9 71.65 102.05 71.7 102.8 72.25 104.25 73.15 104.3 74.85 104.35 76.5 103 77.45 102.2 78.15 100.15 78.4 99.1 78.55 96.05 78.75 93.5 78.9 92 79.15 90.75 79.3 88.4 80 86 80.6 82.9 81.6 81.7 81.95 81.15 82.1 80.65 82.2 80.3 82.2 79.85 82.35 79.4 82.3 78.55 82.2 78 81.75 77.7 81.6 77.4 81.2 76.25 80.85 75 79.9 73.45 78.7 72.15 77.4 71.05 76.25 70.85 75.35 70.4 74 71.3 72.8 72.2 71.65 73.6 71.65 74.9 71.7 76.2 72.75 76.95 73.35 78.45 74.7 78.75 74.95 79.45 75.45 80.2 75.05 81.2 74.75 82.75 74.25 87.8 73 90.15 72.4 91.35 72.25
M 198.4 61.15
Q 192.8 56.3 185.65 54.5 179.3 52.7 172.75 53.35 166 53.95 159.9 57.1 155.25 60.15 151.75 64.35 147.15 69.8 146.75 76.9 146.35 84 149.1 90.6 151.85 97.15 157.35 101.45 163 105.85 170.15 107.45 177 108.85 184 108.1 191 107.25 197.25 103.85 203.65 100.4 206.15 93.8 206.35 93.05 206.7 92.25 208.75 87.65 208.5 82.5 208.2 75.85 205.25 70.05 202.7 64.9 198.4 61.15
M 165.1 76.9
Q 166.55 76.9 167.95 77 169.65 77.2 173.25 77.9 180.65 79.45 185.4 81.95 185.85 81.75 186.55 81.25 187 80.95 187.95 80.1 188.8 79.3 189.35 78.95 191.1 77.65 192.75 78.05 194 78.3 194.7 79.55 195.3 80.85 194.8 82 194.45 82.8 193.6 83.45 193.1 83.85 191.95 84.5 189.35 85.95 187.7 86.6 187.15 87.7 185.9 87.95 184.9 88.2 183.7 87.75 183.05 87.5 181.5 86.7 178.9 85.25 175.4 84.35 173.15 83.8 168.85 83 166.35 82.6 165.45 82.55 164.45 82.5 164 82.45 163.1 82.35 162.55 82 161.15 81.25 161.15 79.8 161.1 78.25 162.4 77.45 163.3 76.9 165.1 76.9 Z"/>

<path fill="#FFCCFF" stroke="none" d="
M 173.35 114.35
Q 173.45 113.4 173.7 112.65 168.05 112.2 162.9 110 156.55 107.3 151.75 102.65 150.2 101.15 148.9 99.5 141.6 97.2 133.75 96.5 124.1 95.65 114.85 97.2 114.7 97.35 114.55 97.5 109.7 102.2 103.4 104.85 98.05 107.15 92.25 107.6 85.75 108.3 79.3 107.3 79.2 107.45 79.15 107.7 78.8 108.45 78.2 110 77.65 111.75 78 113.9 78 114.65 78 115.3
L 78.35 115.3
Q 79 117 80.75 119.05 84.75 123.65 90.55 127.1 96.25 130.55 103 132.4 111.15 134.75 123.55 135.2 129.55 135.45 135.15 135.3 133.9 134.35 133.35 133.85 132.55 132.9 132.1 132.5 131.1 131.7 130.7 131.35 129.9 130.65 129.6 130.05 127.65 129.9 125.75 129.6 124.5 129.35 124.1 128.9 123.85 128.55 124 128.1 124.05 127.7 124.5 127.45 125 127.15 126.3 127.25 130.5 127.5 132.65 126.3 133.8 125.55 134.45 125.35 135.15 125.1 135.9 125.1 136.85 125.2 137.2 125.45 137.6 125.6 138 126.15 140.45 129.1 140.45 133.55
L 140.4 135.05
Q 149.95 134.45 158.4 132.65 165.15 131.25 171.15 129.1 171.6 128.9 172.05 128.75 172.3 128.65 172.55 128.6 172.05 125.75 172.5 121.85 173.15 116.85 173.35 114.35
M 135.9 108.6
Q 135.3 109.3 134.25 109.85
L 129.7 112.6
Q 128.35 113.2 127.95 113.25 126.85 113.3 125.4 111.95 123.5 110.2 122.1 108.3 121.45 107.45 121.4 106.9 121.15 105.95 121.75 105.5 122.1 105.2 123.05 105.1
L 125.75 105.05
Q 127.75 105.05 130.4 105.35
L 134.05 105.75
Q 135.6 105.95 136.05 106.65 136.6 107.55 135.9 108.6
M 241.3 108.2
Q 240.95 109 240.5 109.4
L 240.5 109.6
Q 243.2 108.8 246.1 108.5 242.9 116.25 241.1 121.5 243.5 121.5 246.6 120.7 248.4 120.25 252 119.15 253.2 118.85 254.45 118.6 254.7 118.3 255 118.05 257.45 115.65 262.55 110.95 265.25 108.45 265.4 106.5 265.5 105.1 264.65 103.85 263.9 102.65 262.65 101.9 260.9 100.9 257.15 100.55 252.85 100.2 250.2 100.95 248.35 101.5 245.3 103.25 242.8 104.7 242.1 105.95 241.7 106.65 241.3 108.2 Z"/>
</g>

<g id="epiphany_0_Layer0_0_FILL">
<path fill="#CCFFFF" stroke="none" d="
M 51.9 133.9
Q 50.85 135.8 51.45 137.45 51.9 138.7 53.3 139.4 54.6 140.05 56.05 139.9 58.45 139.6 60.9 137.2 63.45 134.45 64.9 133.25 66.65 132.05 67.5 131.4 68.95 130.3 69.5 129.1 70.1 127.75 69.7 126.25 69.3 124.7 68.05 124 65.95 122.8 62.7 124.45 59.3 126.1 54.25 131.05 52.35 133.05 51.9 133.9
M 64.8 113.1
Q 64.85 111.85 63.7 110.8 62.75 109.95 61.25 109.4 57.85 108.15 53.55 107.65 50.3 107.3 45.6 107.35 42.55 107.35 41.05 108.3 39.15 109.5 39.05 111.85 39.05 114.15 40.9 115.45 41.9 116.15 43.4 116.35 44.3 116.5 46.15 116.5
L 59.05 116.3
Q 61.45 116.3 62.65 115.8 63.55 115.45 64.15 114.75 64.8 113.95 64.8 113.1
M 181.45 130.4
Q 180.5 132.4 181.95 134.65 182.8 136 185.15 137.75
L 188.95 140.7
Q 192.05 143.1 194.05 142.7 195.2 142.5 195.95 141.5 196.7 140.55 196.65 139.4 196.65 137.7 195 136.15 194.65 135.8 191.9 134 190 132.8 188.4 131.1 187.35 130 187 129.7 186.15 128.95 185.3 128.7 184.2 128.4 183.1 128.9 182 129.4 181.45 130.4
M 207.3 122.75
Q 208.85 122.75 209.4 122.7 210.6 122.55 211.35 122 212.6 121.15 212.75 119.8 213 118.4 211.9 117.3 211.25 116.65 209.75 116.35 208.85 116.2 207.05 116.2 200 116.15 196.5 116.25 190.65 116.45 186 117.2 183.75 117.6 182.95 118.4 181.95 119.35 182.1 120.8 182.25 122.25 183.5 122.95 184.5 123.55 186.95 123.35 197.1 122.6 207.3 122.75 Z"/>
</g>
</defs>

<g transform="matrix( 1, 0, 0, 1, 15.15,39.3) ">
<g transform="matrix( 1, 0, 0, 1, 0,0) ">
<use xlink:href="#epiphany_0_Layer3_0_FILL"/>
</g>

<g transform="matrix( 1, 0, 0, 1, 0,0) ">
<use xlink:href="#epiphany_0_Layer2_0_FILL"/>
</g>

<g transform="matrix( 1, 0, 0, 1, 0,0) ">
<use xlink:href="#epiphany_0_Layer1_0_FILL"/>
</g>

<g transform="matrix( 1, 0, 0, 1, 0,0) ">
<use xlink:href="#epiphany_0_Layer0_0_FILL"/>
</g>
</g>
</svg>
