
<svg xmlns="http://www.w3.org/2000/svg" version="1.1" xmlns:xlink="http://www.w3.org/1999/xlink" preserveAspectRatio="none" x="0px" y="0px" width="300px" height="300px" viewBox="0 0 300 300">
<defs>
<g id="epiphany_0_Layer4_0_FILL">
<path fill="#FF66CC" stroke="none" d="
M 28.85 65.1
Q 29.2 60.5 30.1 55.95 30.7 52.75 30.35 49.65
L 28.45 48.75
Q 25.65 51 22.95 53.35 15 60.4 8.25 68.85
L 8.75 70.55
Q 12.1 75.15 16.55 78.5 19.15 80.4 21.9 81.65 24.7 83.1 27.55 83.85
L 29.2 83
Q 29.35 82.65 29.35 82.3 29.35 79.65 29.1 77.05 28.5 71.05 28.85 65.1
M 241.9 139.45
Q 240.55 139.9 239.95 141.2 239.1 146.45 238.25 151.8 238.05 153.15 237.25 154.15 236.25 155.25 236.5 156.55 238.1 165.5 238.2 174.7 238.4 192.45 233.1 209.6 232.25 212.55 234.1 214.85 235.45 214.8 236.8 214.55 244.9 212.55 251.5 207.2 257.7 202.1 260.9 194.7 262.9 190.05 263.85 184.9 265.2 176.95 264.95 168.85 264.8 161.7 262 155.2 258.5 147.1 251.7 141.5 247.5 138 241.9 139.45
M 214.15 90.55
Q 211.5 94.6 207.45 97.4 197.35 104.1 185.05 104.2 183.95 108 183.15 111.9 181.85 118.4 182.9 124.85 184.35 133.1 188.45 140.7 189.75 143.05 192.6 143.8 193.85 144.05 195.15 143.85 201.95 142.65 208.55 141.45 212.55 140.9 216.5 141.4 222.9 142.6 228 146.55 229.8 148 231.35 149.7 232.8 151.35 234.8 150.8 235 150.3 235.15 149.9 236.15 145.6 236.6 141.35 237.15 135.9 238 130.45 239.7 120.3 238.15 110.2
L 236 109.7
Q 234.6 111.9 232.2 111.1 230.9 109.65 230.8 107.9 230.55 104.7 230.45 101.65 230.45 100.75 229.95 100.1 224.7 93 217.4 88.2
L 215.3 88.65 214.15 90.55
M 265.1 96.3
Q 261.55 93.8 257.25 94.7 248.6 96.7 245.2 105.1 245.2 106.3 244.55 107.4 244.1 108.25 243.8 109.2 242.9 112.05 242.5 115.1 241.15 126.15 241 137 241.25 137.25 241.6 137.35 242.45 137.6 243.35 137.8 244.05 137.55 244.6 137.3 245.1 137 245.6 136.7 246.15 133 248.55 129.95 251.75 125.95 255.15 122.15 260 116.85 264.9 111.4 267.65 108.4 268.3 104.4 269.15 99.25 265.1 96.3
M 263.8 25
Q 263.55 23.65 263 22.4 262.4 21.2 261.35 20.5 254.6 16 246.15 15.9 226.4 15.55 206.65 14.1 206.2 14.05 205.8 13.85 188.45 8.9 170.6 6.45 153.5 4.1 136.25 4.35 115 4.6 94.25 9.65 88.8 10.9 83.35 12.35 71.05 15.45 60.2 21.85 50.2 27.85 43 37.05 41.9 38.45 40.9 39.95 37 45.95 35.2 52.8 32.55 62.9 33.15 73.25 33.25 75.7 33.5 78.2 33.95 83.1 34.85 87.95 40.1 118.2 48 147.8 48.4 149.25 47.2 150
L 42.2 137.6
Q 41.35 137.05 40.3 137.05 33.6 138.45 28.9 143.45 28.25 144.25 27.6 145 19.65 155.25 17.95 168.2 17.8 169.6 17.75 170.95 17 186.45 26.2 199 29.1 202.85 33.15 205.3 33.9 205.7 34.45 205.25 36.75 199.25 39.95 194 43.4 188.45 49.2 185.55 55.95 182.35 62.25 178.65 61.8 175.25 60.3 171.9 57.55 165.9 60 160.1 60.35 159.2 60.8 158.5 65.7 150.15 75.3 147.5 76.4 147.25 77.55 147.1 79.65 147.2 81.85 147.35 85.2 147.75 87.1 150.65 87.6 151.3 87.7 152.05 87.95 153.75 89.25 154.15 93 153.6 96.8 153.15 100.55 153.35 104.35 153.4 106.15 153.4 106.65 151.65 106.5 150.4 105.6 149.9 100.3 147.05 94.55 145.2 92.55 144.55 90.7 143.95 80.65 140.8 75.05 132 74.65 131.35 74.35 130.7 71.3 124.5 73.2 118.15 73.7 116.55 74.6 115.25 76.25 112.9 76 110.05
L 64.4 102.85
Q 62 104.2 60.4 106.5 58.75 108.9 56.05 110.05 55.65 110.15 55.3 110.25 53.9 110.2 53.1 109.4 52.65 108.8 52.65 108.15 52.6 104.55 55.35 102.25 57.7 100.35 60.4 98.9 60.45 98.7 60.45 98.6 60.1 97.25 59.65 96 55.5 85.15 58.65 74 61 65.8 67.5 60.45 73.25 55.85 80.55 54.1 81.55 53.9 82.6 53.7 95.3 51.8 106.15 58.3 107.1 58.9 108.1 59.6 112.75 63.25 115.9 68.2 120.7 75.6 122.1 84.25 122.2 85.1 122.85 85.4 123.05 85.3 123.3 85.25 135.1 84.1 147 82.55 150.65 81.95 154.25 81.2 154.65 80.95 154.65 80.55 154.55 72.75 156.4 65.45 158.05 58.7 162.95 53.95 170.05 46.95 180.35 45.3 182 45.05 183.65 44.8 196.85 43.75 206.95 52.2 207.7 52.85 208.45 53.55 213.15 57.9 216.1 63.65 218.6 68.6 218.75 74.1 218.85 76.85 218.25 79.55 217.65 82.35 218.1 85.45
L 233.55 95.6
Q 233.55 100.95 235.2 105.75 235.4 106.5 236.2 107.1
L 238.6 106.25 241.3 70.25 241.05 69.75
Q 242 68.95 243.05 68.35 250.6 64.3 255.2 57.3 260 50.15 262.1 41.65 263.3 37.65 263.85 33.5 264.35 29.25 263.8 25 Z"/>

<path fill="#FFCCFF" stroke="none" d="
M 181.8 103.65
Q 179.45 102.95 177.15 102.05 173.8 101 170.65 99.4 161.8 95.35 156.5 86.8 156 86.05 155.1 85.75 152.75 85.25 150.45 84.8 135.9 82.95 123.05 89.7 122.4 90.1 122.1 90.75 119 96.25 114.75 101.1 109.85 106.8 102.95 109.6 101.2 110.3 99.4 110.7 95.55 111.55 91.8 111.95 85.9 112.5 80.2 111.85 78.85 112.7 78.35 114.25 75.55 122.8 80.6 130.2 85.25 137 93.15 139.55 100.65 141.85 108.3 143.55 113.15 144.55 118 145.2 126.6 145.9 135.1 146
L 137.9 145.6
Q 138.8 145.6 139.75 145.65 157 143.15 173.35 137.35 175.45 136.7 177.4 135.3 179.55 133.75 181.4 131.95 182.25 131.15 182.6 130.05 182.05 128.1 181.55 126.15 180.1 120.3 180.85 114.35 181.45 109.7 182.45 105.15 182.6 104.35 181.8 103.65
M 138.05 135.95
Q 137.65 135.25 137.7 134.3 140.55 132.6 143.8 132.55 144.9 132.55 146 132.7
L 147.1 133.45 146.55 139.6
Q 144.5 141.8 141.95 140 139.5 138.45 138.05 135.95 Z"/>
</g>

<g id="epiphany_0_Layer3_0_FILL">
<path fill="#FF99FF" stroke="none" d="
M 242.55 137.8
Q 240.6 137.6 239.7 139.45 238.55 141.95 238.7 144.65
L 241.85 141.55
Q 245.2 142.9 248.2 145.25 255.05 150.65 256.85 159.25 257.55 162.6 256.35 165.8 255.1 169.15 251.85 170.95 249.15 172.35 245.9 171.7 241.75 170.6 238.55 167.9 235.4 165.35 234.05 161.25 232.2 155.65 231.7 149.9 231.04375 142.353125 231.35 134.8 230.2375 150.13515625 226.8 164.95 224.9 173.05 220.45 180 216.15 186.85 209.95 192 207.85 193.8 205.05 194.25 203.35 194.05 201.6 193.85 195.8 192.75 190.7 189.6 185.8 186.55 182.6 181.85 179.05 176.6 177.3 170.5 177.05 176.65 175.05 182.25 172.3 189.85 166.45 195.5 160.3 201.5 152.45 204.85 145.05 207.95 137.2 207.25 128.45 206.25 120.85 201.9 114.05 198.1 109 192.1 104.3 186.45 102.3 179.45 100.1 171.7 100.6 163.7 99.15 164.35 97.55 164.55 95.3 165.2 92.95 165.3 85.65 164.55 79.25 161 73.1 157.55 68.9 152.05 64.1 145.75 61.7 138.45 62.85 149.8 60 161 58.55 166.7 54.85 171.1 51.45 175.15 46.1 175.5 36.85 176.15 29.8 169.85 28.8 168.9 28.05 167.85 26 164.85 26.15 161.1 26.3 156.3 28.35 151.8 29.35 149.55 30.75 147.6 33.25 143.95 33.2 139.8 29.25 142.55 25.95 146.1 16 156.5 16.95 170.8 17.85 185.4 24.65 198.15 31.6 211.3 43.3 220.25 49.9 225.3 57.85 227.7 62.55 229.05 67.45 229.95 73.75 231.2 80.2 231.8 93.15 233.65 106.15 232.7 128.55 230.55 151.3 227.95 174.2 225.75 197.3 223.8 206.45 223.3 215.55 221.95 225.45 220.15 234.95 216.3 243.6 212.9 251.4 207.8 258.15 203.4 262.65 196.7 265.8 192.1 267.1 186.5 268.65 179.8 267.7 173.1 266.35 163.6 262.05 155.4 256.9 145.65 247.65 139.6 245.45 138.2 242.55 137.8
M 189.45 83.25
Q 182.25 82.8 175.1 82.35 168.15 82.25 161.25 82.3 154.6 82.35 147.9 82.65 141.45 83.2 135 83.8 128.8 84.7 122.7 85.7 116.7 86.95 110.85 88.45 105.1 89.85 99.5 91.7 94 93.5 88.55 95.5
L 80.7 113.95
Q 87.4 112.4 94.2 111.15 108.35 108.25 122.75 106.15 124.65 105.85 126.55 105.65 131.9 105 137.3 104.35 140.6 104 143.95 103.7 148.75 103.45 153.55 103.2 156.55 103.15 159.55 103.15 163.6 103.15 167.75 103.25 171.55 103.6 175.35 103.9 177.6 104.25 179.95 104.55 183.05 105.2 186.2 105.85
L 189.45 83.25 Z"/>

<path fill="#FFCCFF" stroke="none" d="
M 265.35 94
Q 264.15 93.5 262.9 93.25 255.1 90.95 248.8 96 245.85 98.25 244.2 101.8 241.65 107.1 241.55 113.1
L 244.55 110.55
Q 248.5 109.85 250.25 113 250.6 113.55 250.6 114.3 250.5 116.85 249.45 119.1 248.05 122.2 246.8 125.35 255.7 116.6 266 109.9 267.15 109.15 267.85 107.95 268.7 106.45 269.05 104.95 269.85 101.4 268.8 98.15 267.95 95.3 265.35 94 Z"/>
</g>

<g id="epiphany_0_Layer2_0_FILL">
<path fill="#CC3399" stroke="none" d="
M 143.8 132.55
Q 140.55 132.6 137.7 134.3 137.65 135.25 138.05 135.95 139.5 138.45 141.95 140 144.5 141.8 146.55 139.6
L 147.1 133.45 146 132.7
Q 144.9 132.55 143.8 132.55
M 76.4 185.55
Q 69.95 184 64.4 180.2 63.2 180.85 62.1 181.5 56.15 184.35 51.05 188.55 46.05 192.8 43.45 198.35 40.7 204.15 41.75 210.5 42.85 217.75 48.5 222.35 55.35 227.9 64.15 229.45 72.1 231.05 79.75 228.05 86.3 225.7 91.1 220.65 95.65 215.85 98.7 210.1 102.95 202.1 105.4 193.3 106.65 188.8 105.05 184.45
L 93.9 187.15
Q 87.25 186.9 80.7 186.6 78.5 186.2 76.4 185.55
M 218.35 144.95
Q 215 143.55 211.2 143.3 201.25 144 191.3 145.25 190.5 145.1 190.05 144.65 188.55 143.3 187.35 141.65
L 183.5 143.25 182.5 136.65
Q 182.25 136.3 182 136.1 178.85 134.05 175.5 136.45 173.6 137.45 171.7 138.5 167.25 140.8 162.4 141.85 157.3 142.75 152.25 143.7 132.45 148 112.25 145.1
L 111.1 146.15 111.8 154.2
Q 106.35 154.8 100.95 155.4 97.25 155.65 93.95 157.25
L 93.45 158.55 94.2 160.25
Q 95.85 161 97.4 161.85 98.9 162.75 100.5 163.7 104.4 165.95 106.9 169.8 110.15 174.9 108.75 180.7 109.95 182.15 109.9 184 109.8 186.45 109.4 188.9 105.9 211.85 88.9 227.25 89.15 228.4 89.6 229.55 89.65 229.7 89.85 229.85 91.65 230.6 93.7 230.2 99.4 229.8 105.1 229.5 113.7 228.8 122.25 228.15 128.15 227.85 134.05 228.5 152.1 230.75 170.1 228.6 172.85 228.3 175.55 227.7 183.7 226.05 191.3 223.15 197.7 220.65 202.25 215.45 204.05 213.35 205.6 211.15 207.4 208.7 208.2 205.7 213 188.1 206.45 170.8 205.05 167.1 206.85 163.55 206.7 166.8 207.85 169.7 209.5 174 211.25 178.2 214.7 186.7 214.85 195.9 214.9 198 214.35 200 210.9 212.3 201.1 220.8
L 201.95 223.3 225.05 221.3
Q 227.85 213.35 229.75 205.1 233.65 187.95 233.95 170.45 234.05 164.95 232.05 159.85 231.65 158.85 231.2 157.9 227.3 148.8 218.35 144.95 Z"/>

<path fill="#FF99FF" stroke="none" d="
M 67.5 155.75
Q 63.1 159.35 62.95 165.15 62.75 173.65 69.7 178.55 74.1 181.3 79 183.45 84.5 185.95 90.6 185.75 97.7 185.55 103.1 181.2 104.55 180 105.15 178.25 106.25 175.05 104.9 172.05 102.9 167.7 98.4 165.45 96.7 164.55 94.9 163.9 89.35 161.85 83.75 160.15 83.95 158.5 84.2 157 84.6 154.5 83.8 152.35 80.35 150.2 76.3 151.25 71.4 152.5 67.5 155.75 Z"/>

<path fill="#CCFFFF" stroke="none" d="
M 90 55.25
Q 87.45 55.45 84.9 55.65 77.65 56.55 71.65 60.5 70 61.6 68.65 63 62.95 69.25 60.85 77.55 58.95 84.9 61.3 92.05 63.8 99.65 70.5 103.95 76.15 107.55 82.5 109.05 90 110.65 97.45 108.9 105.4 107.25 111.4 101.7 117.3 96.3 118.55 88.35 119.85 79.75 115.9 72.05 111.9 64.3 104.6 59.4 97.95 54.95 90 55.25
M 189 47.15
Q 181.2 47 173.75 49.35 171.45 50.15 169.45 51.65 162.4 56.85 159.55 65.15 157.05 72.35 157.95 79.7 158.95 87.35 164.65 92.55 170.8 98.2 178.75 100.3 185.9 101.9 193.25 100.9 201 99.65 207.3 94.55 211.1 91.35 213.8 86.9 215.65 83.85 216.2 80.25 217.45 72 213.95 64.55 210.45 57 203.7 52.2 197.05 47.35 189 47.15 Z"/>
</g>

<g id="epiphany_0_Layer1_0_FILL">
<path fill="#660066" stroke="none" d="
M 268.35 17.4
Q 263.6 12.3 256.6 11.85 248.65 10.85 240.55 10.75 232.75 10.65 224.9 10.7 216.7 10.8 208.45 10.8 207.7 10.8 207.05 10.55 199.3 7.5 191.25 5.65 183.6 4.05 175.9 2.5 167.85 1.05 159.65 0.45 152.7 -0.05 145.5 0 139.55 0 133.65 0.05 126.6 0.4 119.55 0.75 111.8 1.3 104.35 2.4 97.7 3.6 91.1 5.05 84.4 6.6 77.8 8.85 69.95 11.35 62.55 15.1 61 16 59.35 16.95 51.7 21.15 44.9 26.35 41.35 29.1 38.55 32.4 36.5 34.65 34.6 37.05 32.45 39.85 29.7 41.9 22.3 47.6 15.25 53.55 11.2 57.15 7 60.6 4.65 62.45 2.45 64.2 0.6 65.6 0.15 67.4 -0.05 68.3 0.05 69.3 0.15 70.65 0.75 71.85 1.65 73.45 2.8 74.95 5.1 77.7 8.15 79.9 10.55 81.6 13.1 83.2 20.5 87.8 28.85 89.95
L 38.95 132.6
Q 35.35 132.95 32 134.45 29.4 135.7 27.25 137.5 25.85 138.75 24.55 140.15 19.7 145.35 16.6 151.7 14.8 155.4 13.6 159.35 12.5 163.3 11.85 167.3 10.9 173.5 11.4 179.5 11.65 183.15 12.45 186.65 13 189.4 14.05 191.95 15.35 195.25 17.2 198.35 18.35 200.35 19.85 202.2 22.35 205.3 25.55 207.45 26.75 208.25 28 209.05 30.7 210.45 33.55 211.1 33.8 212.3 34.15 213.45 35.25 217.5 37.55 221.15 40 225.15 43.5 228.05 45.3 229.5 47.25 230.75 49.05 232 51.1 232.85 54.2 234.25 57.45 235.25 61.75 236.55 66.25 236.55 68 236.55 69.8 236.55 75.2 236.25 80.05 234.35 81.7 235.05 83.5 235.6 89.5 236.8 95.45 235.85 101 235.25 106.5 234.65 112.9 233.75 119.35 232.6 128.75 231.05 138.65 230.4 140.45 230.75 142.25 231.1 146.6 231.65 151.05 232.2 154 232.3 156.95 232.35 159.1 232.35 161.25 232.3 165.7 232.1 170.3 232.1 172.85 231.85 175.45 231.65 183.7 230.4 191.6 227.55 192.15 228.05 192.75 228.55 194 229.75 195.8 229.8 199.75 229.85 203.75 229.7 210.4 229.2 217 228.7 221 228.35 225.1 228 227 227.9 228.5 227.15 229.3 226.7 230.15 226.15 232.2 224.75 232.5 222.35 236.7 221.65 241 220.45 249.15 218.05 256 212.7 259.45 210.1 262.25 206.95 263.4 205.75 264.3 204.4 266.2 201.6 267.45 198.65 268.95 195.2 269.8 191.75 270.5 188.85 271.05 185.9 272.05 180.6 272.2 175.25 272.3 170.3 271.7 165.4 271.45 162.95 270.85 160.6 270.2 157.9 269.15 155.4 268.1 152.9 266.85 150.65 265.25 147.75 262.95 145.15 261.3 143.15 259.4 141.35 256.15 138.3 252.05 136.4 253.9 133.2 256 130.45 258.6 127 261.9 123.95 264.8 121.3 267.65 118.5 270.8 115.35 272.85 111.35 274.45 108.25 274.85 104.55 274.95 103.15 274.85 101.75 274.7 99.15 273.75 96.6 272.85 93.95 270.85 91.85 269.75 90.75 268.55 89.8 267.6 89.05 266.45 88.55 264.7 87.9 262.9 87.45 259.8 86.9 256.9 87.4 255.15 87.8 253.45 88.2 249 89.45 245.5 92.55
L 246.2 69.6
Q 250.35 66.6 254.55 63 260.15 58.1 264.25 52.05 269.1 45.05 270.8 36.85 272.5 28.2 269.95 20.25 269.4 18.55 268.35 17.4
M 260.95 24.05
Q 262.8 32.5 260.2 41.15 257.7 49.15 253.15 55.95 248.35 63.1 240.6 67.3 238.2 68.6 239.3 71.1
L 236.85 105.05 235.55 94.45 219.75 84.2
Q 221.4 79.25 220.8 73.95 220.45 71.35 219.8 68.8 219.1 66.25 218.1 63.85 215.2 57.2 210.05 52.1 203.25 45.3 194 43.35 187.5 42 180.6 43.1 176.9 43.9 173.35 45.1 170.05 46.3 167.1 48.15 164.05 50 161.7 52.55 151.05 64.2 153 80
L 123.55 83.55
Q 123.5 82.65 123.4 81.8 122.6 75.75 119.7 70.55 118.5 68.35 117.1 66.4 115.55 64.15 113.75 62.1 110.55 58.4 106.55 55.8 101.2 52.4 94.55 51.35 84.25 50.1 74.65 53.8 69.35 55.75 65.1 59.45 60.35 63.65 57.9 69.6 52 83.95 58.5 97.9 56.75 98.85 55.1 99.85 51.25 102.05 50.1 106 49.45 108.2 50.9 110.15 52.2 111.9 54.5 112.4 55.2 112.4 55.8 112.1 61.5 110.25 64.3 104.95
L 71.85 110 72 110.45 73.35 110.5 74.05 110.95
Q 71 115 70.4 120 69.9 124 71.05 127.75 72.8 133.7 77.4 138.2 78.85 139.7 80.6 140.7 91.45 147.55 104.2 149.55
L 104.9 151.25
Q 97.2 150 89.75 152.1 89.5 151.05 89.15 150.15 88.6 148.45 87.35 147.6 82.55 144.05 76.3 145.25 72.05 145.8 68.55 148.05 61.95 152.1 58.25 159.05 57.35 160.7 57.15 162.45 56.2 170.5 60.35 177.6 57.15 178.9 53.95 180.25 51.8 181.25 49.75 182.35 36.5 188.95 33.65 203.45 28.65 199.65 25.4 194.3 20.6 186.45 19.85 177 19 166.65 23.3 156.95 24.4 154.25 25.65 151.6 30.3 141.7 40.75 138.6 42.55 144.2 44.6 149.7 44.95 150.65 45.7 151.25 48.2 153.35 49.4 150.35 49.6 149.95 49.55 149.45 48.3 140.85 46.25 132.55 44.95 127.4 43.8 122.25 42.65 117.05 41.6 111.9 40.55 106.7 39.5 101.55 38.4 96.3 37.5 91.1 36.35 84.4 35.7 77.55 35.05 70.7 35 63.8 35 57.1 37.5 50.8 40.75 42.7 46.35 36.2 51.3 30.45 57.3 26.15 63.55 21.7 70.7 19.05 77.2 16.5 83.8 14.25 88.2 12.85 92.65 11.65 100.25 9.65 108.1 8.85 114.5 8.15 120.95 7.5 127.55 7.15 134.2 7 140.9 6.85 147.65 7 153.4 7.1 159.2 7.4 166.5 7.8 173.5 9 180.65 10.15 187.55 11.95 194.6 13.6 201.55 16.1 203.65 16.9 205.75 16.55 208.6 16.55 211.4 16.6 219.5 16.95 227.65 17.3 235.2 17.55 242.8 17.75 249.55 18.6 256.35 19.5 257.35 19.8 258.3 20.4 260.45 21.75 260.95 24.05
M 167.55 55.55
Q 171.35 52.25 176.35 50.8 184 48.4 191.75 49.45 199.7 50.75 205.4 56.25 208.3 59.2 210.6 62.75 215.15 69.8 214.2 78.05 213.15 86.5 206.75 92.25 200.95 97.4 193.15 98.65 185 99.8 177.35 97.45 173.8 96.35 170.7 94.7 163.4 90.75 160.8 82.65 159.55 78.9 159.85 74.85 160.25 69.45 161.9 64.15 163.55 59.15 167.55 55.55
M 216.85 90.15
Q 218.7 91.75 220.65 93.3 223.55 95.55 226.15 98.1 227 98.9 227.35 99.95 228.6 103.75 228.7 107.9 228.8 110.55 230.6 112.15 233.9 115.1 236.65 111.7
L 233.55 149.05
Q 228.55 142.05 220 140.15 216.4 139.5 212.8 139.95 202.2 140.45 191.55 142.45 189.85 139.1 188.35 135.7 181.95 121.1 186.2 105.85 187.15 105.85 188.15 105.85 196.2 105.7 203.4 102.25 211 98.65 215.8 91.8
L 216.85 90.15
M 209.5 145.8
Q 211.2 145.35 213 145.45 219.7 146.25 224.6 150.95 226.7 153 228.05 155.75 229.25 158.15 230.1 160.75 231.15 164.3 231.2 167.7 231.6 184.55 228.35 201.05 226.45 210.5 223.7 219.6
L 203 221.5
Q 211.2 214.5 215.25 204.6 216.15 202.5 216.5 200.3 217.4 194.8 216.6 189.35 215.45 180.55 211.25 172.7 208.9 168.35 208.6 163.1 208.55 161.75 207.4 161.45 206.3 161.15 205.65 161.85 204.65 162.95 204.25 164.4 203.4 167.6 204.25 170.6 206.7 179.15 208.1 187.7 209.35 195.3 207.5 202.55 207.05 204.15 206.35 205.65 200.85 217.6 188.85 222.15 179.35 225.65 169.3 226.5 163.05 227.4 156.6 227.45 147.2 227.55 138.15 226.1 134.1 225.4 129.9 225.4 112 226.8 94.3 228 92.55 227.95 90.85 227.95 97.55 223.25 101.75 216.25 110.95 201 111.9 183.2 112 181.45 110.8 180.2 112 174.85 109.35 169.6 107.45 165.85 103.65 163.7 100.65 160.7 96.85 159.1 96.2 158.8 95.55 158.5 102.9 157 110.45 157.1 112.6 157.15 113.9 155.45
L 114.3 153.45 112.75 147.1
Q 129.45 149.55 146.15 147.15 160.45 145.35 173.7 139.75 177 138.35 180.45 137.25 179.85 141.55 182.4 144.95 182.65 145.3 183.2 145.45 184.3 145.9 185.3 145.3 186.3 144.8 186.65 143.6 187.5 146.45 190 147.15 190.7 147.35 191.45 147.35 200.5 146.6 209.5 145.8
M 180.35 105.15
Q 180 106.7 179.6 108.25 176.75 119.2 180.45 129.9 180.05 130.3 179.6 130.65 172.15 136.75 162.75 138.7 158.4 139.7 154.05 140.65 151 141.45 148 142.3 148.35 141.7 148.7 141.05 150.65 136.8 149.75 132.25 149.25 129.2 146.1 130.2 138.8 132.3 132 134.9
L 132.35 136.05
Q 133.8 136.05 135.3 136.1 135.45 136.25 135.6 136.4 136.65 137.6 137.7 138.85 140.6 142.1 144.95 143.05
L 136.45 143.4 136.75 143.8 135.8 143.8 135.35 143.45
Q 125.6 144.05 115.9 142.9 108.45 141.65 101.1 140 93.6 138.35 87.4 134.2 83.45 131.55 81.25 127.35 77.8 120.8 80.7 113.95
L 85.85 114.25 85.1 114.1
Q 89 114.15 92.95 114.25 99.85 113.75 105.9 110.75 113.5 107.15 118.3 100.15
L 122.35 92.25
Q 124.8 90.45 128 89.45 141.15 85 155 87.25 155.4 88.1 155.85 89 157.95 92.95 161.45 96 169.7 103.15 180.35 105.15
M 238.55 156
Q 238.9 155.6 239.3 155.15 240.5 153.9 240.4 152.05
L 241.85 141.55
Q 244.4 140.6 246.8 141.7 250.7 143.45 253.5 146.3 258.05 150.8 260.4 156.75 262.4 161.65 262.7 167.15 263.35 178.65 260.15 189.8 259.35 192.65 258.25 195.35 257.2 197.95 255.6 200 253.85 202.15 251.8 204.1 244.5 210.8 234.95 212.95 237.75 201.7 239.65 190.35 242.2 175.4 239.35 160.4 238.9 158.2 238.55 156
M 265.25 99.55
Q 266.85 103.3 264.9 107.15 262.2 112.6 257.6 116.6 254.75 119.1 252.25 121.9 250.15 124.2 248.1 126.6 244.95 130.2 243.95 134.5 243.85 134.9 243.85 135.4
L 242.5 135.75 244.6 110.85
Q 245 110.65 245.25 110.35 245.8 109.9 246 109.25 247.25 103.05 252.2 99.25 257.1 95.6 262.7 97.45 264.5 97.95 265.25 99.55
M 85.55 57.75
Q 91.05 56.85 96.3 58.15 104 60.35 109.35 66.3 115 72.7 116.6 81 117 82.9 116.95 84.85 116.6 93.3 110.75 99.35 104.45 105.75 95.6 107.15 87.55 108.25 79.75 105.85 78.65 105.55 77.55 105.2 69.7 102.6 65.35 95.6 61.75 89.9 62.3 83.25 63 75.15 66.85 67.8 68.05 65.55 70.05 64.1 77.05 59.05 85.55 57.75
M 10.25 69.4
L 10.7 68.75 28.6 50.85
Q 25.2 66.2 27.45 81.7 26.25 81.25 25.05 80.75 16.2 76.75 10.25 69.4
M 65 162.7
Q 67.35 158.55 71.05 155.7 76.15 151.7 81.95 153.45
L 82.35 154.4
Q 81.8 156.4 81.5 158.2 81.4 159.1 81.8 159.9 83.2 163.3 87.1 163.65 88.05 163.65 89 163.95 93.9 165.3 98.4 167.75 104.1 170.7 103.9 177 101.8 180.8 97.85 182.25 94.75 183.35 91.6 183.35 84.6 183.3 78 180.75 75.15 179.55 72.65 178 64.1 172.65 65 162.7
M 47.7 194.8
Q 49.7 192.25 52.6 190.45 58.9 186.8 64.4 182.35 65.55 183.15 66.8 183.75 72.4 186.6 78.5 188.4 86.35 190.65 94.3 189.15
L 103.8 186.05
Q 103.35 190.45 102.35 194.85 99.35 207.35 91.2 217.15 88.1 220.85 84.1 223.45 76.95 228.25 68.35 227.85 59.7 227.3 52.35 222.95 44.25 218.15 43.5 208.65 43 200.8 47.7 194.8
M 145.2 134.8
L 144.85 138 144.4 138.65 139.4 135.5 145.2 134.8
M 85.15 90.45
Q 92.65 87.9 100.6 87.7 103.5 87.65 105.75 86.95 107.95 86.15 108.05 83.7 108.1 83.1 107.9 82.6 106.2 79.4 102.4 79.75 90.1 79.4 79.6 85.7 74.65 81.6 68.5 80.9 64.9 80.95 63.6 84.45 62.1 88.35 65.95 90.35 69.55 92.2 73.9 93 75.8 93.15 77.55 92.65 81.3 91.6 85.15 90.45
M 134.45 116.8
Q 139.1 116.3 141.3 111.95
L 142.25 109.6
Q 142 108.75 141.1 108.65 136.2 108.25 131.55 109.9 127.95 111 127.95 114.3 128.35 114.7 128.8 115 131.15 116.05 133.45 116.5 133.9 116.6 134.45 116.8
M 134.85 157.45
L 137.5 157.9
Q 137.35 157.15 137.2 156.4 136.85 154.7 135.95 153.75 135.35 153.1 134.65 152.6
L 133.4 153.7 134.85 157.45
M 144.45 171.6
Q 145.5 168.85 142.7 167.85 141.95 167.7 141.4 168.05 140.2 168.85 139.45 170.15 138.3 172.15 137.25 174.2 135.55 177.45 137.85 179.85
L 138.35 179.6 144.45 171.6
M 147.2 155.65
Q 149.1 158.2 151.6 156.45 152 154.1 151.3 151.95 150.2 148.5 146.9 149.6 144.95 152.55 147.2 155.65
M 119.25 158.5
Q 119.7 159.3 120.7 159.3 123.95 159.35 124 155.85 124.05 153.25 121.7 152.3 121 152 120.25 152.55 117.25 155.05 119.25 158.5
M 177.8 143.05
Q 177.3 142.75 176.8 143 174 143.9 173.55 146.8 172.9 150.9 176.7 150.95 176.85 150.8 176.95 150.65 179.45 148.7 178.9 145.65 179.25 143.9 177.8 143.05
M 166.9 148
Q 166.05 144.85 163 146 160.4 149.8 163.35 153.35 165.5 156 167.7 153.35
L 167.9 152.2
Q 167.45 150.05 166.9 148
M 173.95 74.85
Q 171.65 75.05 170.75 77.1 169.85 79.45 171.55 81.1 171.95 81.6 172.6 81.55 178 82.35 183.45 82.3 185.9 82.65 188.3 83.3 193.9 85.25 199.7 86.7 201.1 86.9 202.4 86.35 205.6 84.85 208.95 83.8 210.8 83.25 212.15 81.9 215 79.15 213.4 75.7 212.45 73.45 210.05 72.75 203.1 73.15 197.4 77.85 192.8 75.85 187.85 75.1 180.9 73.9 173.95 74.85 Z"/>
</g>

<g id="epiphany_0_Layer0_0_FILL">
<path fill="#CCFFFF" stroke="none" d="
M 56.45 146.25
Q 57.15 147.15 58.05 147.5 60.4 148.3 62.45 147 67.8 144 70.85 138.9 71.5 137.85 71.85 136.6 72.95 132.75 69.1 131.65 67.95 131.45 67 131.9 61.2 134.95 57.05 140 54.6 142.8 56.45 146.25
M 66.8 120.15
Q 67.65 117.5 65.35 115.95 61.05 113.25 56 112.75 54.6 112.7 53.3 112.45 49.75 111.7 47.2 114.1 46.7 114.65 46.45 115.35 45.05 119.25 48.35 121.55 49.25 122.15 50.4 122.15 56.55 122.95 62.9 122.95 65.9 122.95 66.8 120.15
M 219.65 136.65
Q 221.85 132.55 217.75 130 216.25 129.05 214.4 128.5 211.2 127.3 207.7 126.45 205 125.75 202.3 124.45 200.45 123.5 198.75 124.65 197.75 125.35 197.25 126.45 195.2 131.2 200.2 133.35 206.3 135.8 212.45 138.5 213.9 139.1 215.7 139.1 218.4 139 219.65 136.65
M 222.85 107.95
Q 225.65 106.35 226 103.35 226.3 101.35 224.75 100.05 222 97.9 218.4 98.85 215.7 99.7 212.95 100.5 205 103.1 196.75 106.7 195.55 107.25 194.6 108.15 193.55 109.25 193.5 110.9 193.45 112.55 194.7 113.75 197.3 116.35 201 115.65 205.45 114.8 209.5 113.55 216.4 111.4 222.85 107.95 Z"/>
</g>
</defs>

<g transform="matrix( 1, 0, 0, 1, 9.6,30) ">
<g transform="matrix( 1, 0, 0, 1, 0,0) ">
<use xlink:href="#epiphany_0_Layer4_0_FILL"/>
</g>

<g transform="matrix( 1, 0, 0, 1, 0,0) ">
<use xlink:href="#epiphany_0_Layer3_0_FILL"/>
</g>

<g transform="matrix( 1, 0, 0, 1, 0,0) ">
<use xlink:href="#epiphany_0_Layer2_0_FILL"/>
</g>

<g transform="matrix( 1, 0, 0, 1, 0,0) ">
<use xlink:href="#epiphany_0_Layer1_0_FILL"/>
</g>

<g transform="matrix( 1, 0, 0, 1, 0,0) ">
<use xlink:href="#epiphany_0_Layer0_0_FILL"/>
</g>
</g>
</svg>
