
<svg xmlns="http://www.w3.org/2000/svg" version="1.1" xmlns:xlink="http://www.w3.org/1999/xlink" preserveAspectRatio="none" x="0px" y="0px" width="150px" height="150px" viewBox="0 0 150 150">
<defs>
<g id="Layer0_0_FILL">
<path fill="#FFFFFF" stroke="none" d="
M 168.25 31.4
Q 167.55 33.95 165.75 38.85
L 159.6 55.4
Q 158.95 57.1 158.45 58.55
L 153.35 67.55
Q 152.7 68.8 152.1 69.9 151.5 70.25 151.05 70.75 150.15 71.7 150.5 72.75 150.5 72.8 150.55 72.9 149.4 75.05 148.85 76.3 147.05 80.35 145.5 86.4 144.65 89.35 144.55 91.35 144.45 92.55 144.75 93.45 145.25 94.65 146.3 94.9 147 95.1 147.75 94.65 148.35 94.3 148.75 93.7 149.3 92.85 149.65 90.9 151.05 82.9 155.55 73.75 155.75 73.7 156.05 73.6 159.55 72.8 163.35 74.35 166.7 75.7 169.55 78.65 173.45 82.55 175.25 87.85 177.1 93.3 176.25 98.65 175.4 103.85 172.15 108.6 169.15 113 164.6 116.35 158.6 120.75 148.65 124 148.25 123.4 147.8 123.1 147.15 122.65 146.35 122.8 145.5 122.9 145 123.5 144.25 124.3 144.25 126.35 144.15 131.8 143.6 134.5 142.8 138.45 140.5 142.35 139.1 144.9 137.05 147.35 134.25 150.7 128.5 155.3 126.2 157.2 124.6 158.2 124.25 158.45 124.25 158.65 124.25 159.15 125.05 159.05 129.45 158.7 131.45 157.95 134.05 157 137.25 154.5 144.15 148.85 147.3 141.75 150.8 133.9 149.35 126.35 151.85 126.6 153.45 126.45 161.1 125.8 169.35 118.4 175.25 113.25 177.9 108.05 179.95 104.1 180.6 98.95 181.6 91.8 179.3 85.05 176.9 77.95 171.65 73.45 167.7 70.1 162.8 68.95 160.45 68.4 158.3 68.45 159.6 65.9 160.35 64.35 160.4 64.2 160.5 64.1 161.45 62.75 162.3 61.25 163.85 58.6 167.1 51.15 169.4 46.1 170.5 43.6 172.4 39.2 173.45 35.85 176.25 26.7 174.6 19.5 173.65 15.4 171.55 13.1 169.3 10.75 164.85 9.15 156.7 6.2 146.45 5.65 138.3 5.25 127.6 6.45 126.85 6.55 126.3 6.7 125.35 6.25 123.75 6 119.6 5.25 110.85 4 102.55 2.95 96.35 2.55 75.9 1.2 49.45 5.15 38.05 6.85 28.85 8.95 26.4 9.45 23.9 10.1 22.95 9.85 21.25 9.9 1.35 11.45 -14.2 19.6 -19.9 22.65 -22.05 25.85 -25.7 31.2 -23.65 39.8 -22.05 46.9 -16.7 55.2 -10 65.3 -2.15 70.6 -1.35 71.15 -0.65 71.55 -2.6 72.1 -4.75 73.6 -9.8 77.1 -12.45 83.1 -15.05 89 -14.4 95.25 -13.85 101.4 -10.25 106.9 -6.8 112.2 -1.45 115.55 2.55 118.05 6.85 118.8
L 6.9 118.8
Q 6.6 119.2 6.3 119.9 4.95 123.55 3.9 128.35 2.3 135 2.2 139.35 2 145.55 4.2 150.2 6.8 155.8 11.8 158 12.2 158.2 12.45 158.1 12.9 157.95 12.7 157.45 12.65 157.05 12.3 156.7 11.25 155.45 9.7 152.25 7.65 148.15 7.15 146.05 5.65 140.8 6.9 133.4 7.2 131.75 7.95 128.55 8.4 135.85 10.9 142.95 14.5 153.05 21.45 160.9 21.95 161.5 22.35 161.3 22.85 161.1 22.7 160.25 22.25 157.85 21.05 154.7 19.5 151.2 18.7 149.4 12.3 134.8 13.2 122 13.3 120.35 13.55 118.9 13.75 118.85 14 118.85 13.95 117.55 14.35 116.9 14.4 116.85 14.55 116.65 14.35 116.6 14.15 116.55 15.25 112.8 17.65 110.6 20.5 107.85 25.95 107.05 31.4 106.15 38.55 107.15 40.65 107.5 51.1 109.55 52.35 109.75 52.75 109.8 53.7 109.85 54.4 109.65
L 54.45 109.65
Q 54.75 110.35 55.3 110.85 56.35 111.75 57.55 111.3 58.05 111.1 58.4 110.55 58.7 110 58.6 109.4 58.5 109.1 58.1 108.4 58 108.25 58 108.1 60.75 108.5 62.95 108.7 72.25 109.5 83.3 107.95 90.1 107 99.3 104.8
L 98.75 106.15
Q 98.35 107.3 98.75 108.2 99.1 109.3 100.15 109.65 101.45 110 102.45 108.9 103.1 108.25 103.3 107.3 103.45 107.25 103.65 107.25 105.65 107 116.1 104.7 123.65 103 128.6 103.3 131.05 103.35 132.4 104.3 133.9 105.45 134.65 108.3 136.7 115.65 133.9 126.75 132.35 132.6 128.25 143.5 126.9 147.05 126.05 149 124.7 151.95 123.15 154.15 122.95 154.45 123.05 154.7 123.3 155.05 123.75 154.5 129.05 148.75 131.2 145.45 134.5 140.25 137.55 130.7 139.9 123.4 140.5 118.5 141.45 111.65 139.8 106.3 138.7 102.5 136.4 100.45 133.3 97.7 127.45 97.6 125.4 97.6 123.05 97.95 123.15 97.2 122.85 96.25 122.4 95.15 122.2 94.6 121.65 92.55 121.35 91.55 120.95 90.2 119.5 86.5 118.25 83.35 117.85 81.4 117.65 80.5 117.55 80.15 118.7 79.45 119.75 78.7 122.95 76.3 124.9 73.15 126.6576171875 70.39375 127.15 67.4 127.660546875 67.0814453125 128.45 66.45 129.4 65.65 130.85 64.75 131.7 64.2 133.35 63.2 137 60.7 137.75 60.3 138 62.2 139.25 63.15 139.95 63.65 140.8 63.7 141.75 63.75 142.35 63.25 143.45 62.4 143.45 60.25 143.55 58.15 143 56.15 142.6 54.8 142.1 54.3 141 53.2 138.9 53.5 136.45 53.85 132.35 56.55
L 126.65 60.3
Q 126.3125 59.1396484375 125.75 58 123.7 54 120.1 52.1 117.45 50.7 113.45 50.4 106 49.95 98.75 53.35 92.6 56.15 86.75 61.9 84.6 64 84 65.6 83.4 67.05 83.3 69.9 83.25 71.05 83.3 72.1 82.85 72.2 82.4 72.4 82.3 72.45 81.75 72.9 81.65 72.85 81.6 72.85 81.1 72.8 79.45 73.05 77.35 73.35 74.75 73.2 73.15 73.15 70.05 72.85
L 63.6 72.25
Q 63.05 72.2 62.65 72.25 63.05 69.95 62.1 66.8 60.4 61.85 56.6 58.4 54.4 56.4 49.95 53.9 42.7 49.9 37.45 49.3 30.4 48.45 24.7 52.25 21.15 54.55 19.45 58 19.3501953125 58.1970703125 19.25 58.4 18.8111328125 58.1541015625 18.4 58 16.75 57.45 15.35 58.1 14.15 58.7 13.8 60.1 13.5 61.55 14.3 62.65 14.75 63.25 15.6 63.75 15.65 63.75 17.15 64.55 17.4892578125 64.70078125 18.05 65 18.144921875 65.83359375 18.3 66.7 19.05 71.3 22.05 74.9 24.9 78.35 29.3 80.6 27.5 82.45 26.75 83.7 24.9 86.65 25.35 89.3 25.7 91.45 27.85 94.2 31.65 99 36 101.9 28.45 101.05 22.95 102.4 19.1 103.35 16.05 105.45 12.7 107.65 10.8 110.75 9.65 112.6 9 115.1
L 8.2 114.85
Q 3.9 113.6 0.25 111 -3.5 108.3 -5.85 104.65 -8.3 100.75 -8.95 96.1 -9.6 91.45 -8.3 87.1 -7.5 84.5 -6.2 82.5 -4.7 80.2 -2.3 78.15 0.25 75.75 2.5 75.65
L 2.55 75.65 3.5 79.8
Q 3.85 81.35 4.3 82.55 4.3 82.95 4.35 83.4 4.7 84.95 6.35 86 7.75 86.75 9.6 86.85 10.2 86.9 13 86.9 14.2 86.95 16.55 87.15 18.7 87.3 20.15 87.05 21.2 86.85 21.8 86.45 23 85.65 23 84.2 23.1 82.85 22 81.85 21 80.85 18.45 80.45 15.6 80 11.65 79.75 10.5 79.75 9.9 79.6 9.35 79.45 8.95 79.4 8.8 78.95 8.65 78.35 8.5296875 77.8689453125 8.4 77.4
L 8.2 76.55
Q 7.7 74.4 6.7 69.85 5.65 65.3 4.7 57.35 4.15 48.3 3.95 44.45 3.4 35.55 3.7 32.75 4.65 25.35 9.3 21.7 11.55 19.85 16.6 18.25 42.45 9.9 69.8 8.1 97.15 6.35 123.85 11.35 126.7 11.9 127.75 10.85 128 10.8 128.2 10.8 146.3 9.65 161.3 14 164.95 15.05 166.55 16.5 169.05 18.95 169.25 23.65 169.35 27.15 168.25 31.4
M 114.15 55.95
Q 116.3 56.05 117.55 56.6 118.95 57.15 120.1 58.45 121.15 59.7 121.7 61.2 122.65 64 121.7 67.25 120.95 69.9 119.2 71.9 117.45 74 114.2 75.75 111.6 77.2 108.5 78.1 104.2 79.3 97.45 79.4 95.05 79.5 93.3 79.1 91 78.55 89.65 77 88.25 75.25 88.15 72.55 88.15 70.95 88.85 68.1 89.2 66.75 89.55 66.2 89.95 65.45 91.2 64.4 94.7 61.65 96.25 60.75 98.55 59.35 102.45 57.75 106.2 56.2 108.4 55.9 110.25 55.65 114.15 55.95
M 84.6 77.8
Q 85.7 80 87.9 81.65 89.85 83.15 92.4 83.95 96.15 85.1 102.05 84.6 108.9 84 114.15 81.85 114.15 82.75 114.15 84.15 114.15 85.9 114.35 87.15 114.65 89.25 115.55 92.1
L 116.6 95.65
Q 116.15 95.9 115.75 96.1 111.9 98.25 105.65 100.15 93.8 103.9 83.35 105.25 83.2 105.15 83 105.1 78.85 103.65 76.7 103.35 75.6 103.3 75.1 103.45 74.65 103.65 74.1 104.15 73.35 104.95 73.1 106.1 59.45 106.4 47.75 102.35 38.55 99.25 33.7 93.95 31.55 91.55 30.85 89.35 30 86.35 31.5 84.15 31.85 83.65 32.75 82.75 32.95 82.5 33.15 82.3 35.2 83 37.5 83.55 42.3 84.6 46.5 84.3 51.3 84 54.95 81.85 57.9 80.15 60.3 77.2 61.2 75.95 61.8 74.8 62.15 74.95 62.65 75.25 66.55 76.6 71.65 76.75 72.65 76.8 80.8 76.65 82.3 76.65 83 76.15 83.35 76.1 83.65 76 83.8 76 83.95 76 84.2 76.95 84.6 77.8
M 117.85 98.75
L 117.9 98.75
Q 117.9 98.8 118 98.9 117.65 98.95 117.3 99.05 117.6 98.85 117.85 98.75
M 3 18.65
Q 1.25 20.45 0 22.7 -1.85 26.15 -2.55 30.3 -3.55 36.15 -2.2 46.2 -1.1 54.05 0.55 60.5 0.95 63.2 1.5 66.1 1.4 66.3 1.4 66.55 0.55 65.6 -0.75 64.3 -8.45 56.7 -13.3 48.4 -17 41.95 -17.8 36.5 -18.5 32.25 -16.9 29.65 -15.75 27.75 -12.35 25.75 -5 21.35 3 18.65
M 24.55 60.35
Q 24.95 58.95 25.45 58.15 26.15 56.95 27.7 56.05 32.15 53.25 38.3 54.35 42.75 55.2 48.45 58.4 52.4 60.6 54.35 62.5 57.35 65.25 58.3 68.45 58.95 70.6 58.4 72.25 58 73.7 56.55 75 55.65 75.9 53.75 77.05 52.05 78.1 50.8 78.6 48.95 79.2 45.95 79.3 38.55 79.45 33.2 76.75 30.15 75.25 27.95 72.85 25.6 70.35 24.55 67.3 23.95 65.35 24 63.5 24.05 62.2 24.55 60.35
M 76.8 105.9
Q 75.6 106 74.45 106.05 74.7 105 75.65 104.6 76.65 104.15 78.7 104.8 79.8 105.2 81.15 105.55 78.95 105.75 76.8 105.9
M 103.05 103.85
Q 103.25 103.85 103.4 103.8
L 103.45 103.8
Q 103.3 103.85 103.1 104 103.05 103.9 103.05 103.85
M 40.3 67.5
Q 38.55 66.75 36.9 66.5 35.8 66.25 35.55 66.15 35.1 65.85 34.5 64.95 33.85 64 33.4 63.75 32.85 63.4 32.15 63.5 31.4 63.65 31.05 64.25 30.6 65.05 31.35 66.7 32.3 68.85 33.3 69.45 33.9 69.8 36 70.1 37.3 70.35 38.95 70.85
L 47.25 73.4
Q 48.85 73.85 49.55 73.45 50.25 73 50.25 72.15 50.35 71.35 49.7 70.8 49.25 70.35 48 69.95 44.2 69.1 42.35 68.4
L 40.3 67.5
M 66.55 94.45
Q 65.7 94.7 65.35 95.65 65.05 96.6 65.55 97.35 65.95 97.95 66.95 98.35 67.55 98.55 68.65 98.85 69.15 99.1 70.1 99.55 70.9 99.9 71.55 99.85 72.05 99.8 72.65 99.55 72.95 99.4 73.6 99.05 75.55 98.45 76.35 97.85 77 97.45 77.25 96.65 77.5 95.85 77.05 95.3 76.65 94.8 75.4 94.65 73.85 94.45 70.75 94.35
L 67.8 94.3
Q 66.95 94.3 66.55 94.45
M 110.1 64.6
Q 109.45 65.15 108.9 66.6
L 108.35 68.15
Q 108.25 68.4 108.1 68.5 108 68.6 107.7 68.7
L 102.55 70
Q 100.75 70.45 99.75 70.5 98.65 70.5 98.3 70.65 97.25 71.05 97.15 72.1 97 73.2 97.9 73.8 98.65 74.2 99.55 74.1 100.9 74.05 102.95 73.4
L 106.95 72.15
Q 108.5 71.6 108.95 71.55 109.3 71.5 109.9 71.35 110.45 71.3 110.75 71.05 111.1 70.85 111.35 70.4 111.55 70.1 111.85 69.5
L 112.55 68.55
Q 112.65 68.4 113.15 67.3 113.5 66.15 113.45 65.55 113.1 64.4 112.05 64.1 110.95 63.85 110.1 64.6
M 88 111.25
Q 87.7 110.85 87.15 110.8 86.6 110.8 86.25 111.15 85.75 111.6 85.75 112.9 85.85 114.15 86 114.7 86.15 115 86.4 115.55 86.55 116 86.6 116.35 86.75 116.95 86.8 117 86.95 117.1 87.2 117 87.4 116.9 87.5 116.65 87.6 116.05 87.7 115.75 88 115.05 88.15 114.7 88.45 114 88.35 112.8 88.35 111.65 88 111.25
M 125.3 122
Q 125.35 119.7 124.45 118.05 123.85 117 122.65 115.85 122.65 115.8 120.5 113.95 119.4 113 119 112.8 118.05 112.25 117.2 112.55 116.45 112.85 116.2 113.7 115.9 114.5 116.2 115.3 116.55 116.5 118.2 117.8 120 119.2 120.45 120.15 121.05 121.2 120.95 122.65 120.9 123.65 120.45 125.3 119.4 129.5 117.45 134.6 116.4 137.5 113.9 143.8 113.05 145.95 111.25 149.25 111.2 149.4 111.15 149.6 110.5 153.5 110.4 154.1 110.3 154.7 116.15 146.3 122 137.9 124.7 126.1 125.25 123.6 125.3 122
M 45.1 116.25
Q 44.85 115.2 43.95 114.85 43.1 114.45 41.1 115.05 37.2 116.25 36.35 116.65 33.75 117.8 32.4 119.5 30.9 121.55 30.5 126.05 30.2 129.9 30.5 132.55 30.9 136.15 32.65 140.2 33.9 143.15 36.45 147.35 39 151.55 41 153.7 41.6 154.3 42.9 155.55 43.95 156.65 44.5 157.65 44.75 158.1 45 158.3 45.2 158.35 45.4 158.35 45.65 158.35 45.65 158.15 45.75 158 45.65 157.65 43 151.05 39.9 145.25 37.35 140.5 36.7 139.15 35.1 135.6 34.65 132.65 34.4 130.7 34.6 127.5 34.75 122.85 36.6 121 38.25 119.4 42.05 118.95 44 118.7 44.65 118.05 45.3 117.3 45.1 116.25
M 76.35 112.1
Q 76.3 112.2 75.95 112.2 75.8 112.25 75.65 112.5 74.9 113.85 75.3 115.25 75.4 115.7 75.65 115.95 75.9 116.2 76.35 116.6 76.45 116.65 76.65 116.9 76.85 117 77.1 116.8
L 77.3 116.4
Q 77.7 115.5 77.7 115 77.7 114.7 77.5 114.05
L 77.15 113
Q 77.05 112.7 76.85 112.45 76.75 112.1 76.35 112.1
M 61.2 115.3
Q 61.6 114.8 61.7 114.45 61.75 114.1 61.75 112.75 61.75 111.65 61.7 111.35 61.5 110.45 60.7 110.45 60.7 110.6 60.4 110.6 59.9 110.6 59.75 111.15 59.65 111.45 59.65 112.1 59.65 112.65 59.65 113.75 59.7 114.7 60.05 115.3 60.45 115.95 60.95 115.7 61.15 115.55 61.2 115.3
M 67.95 111.1
Q 67.2 110.7 66.65 111.3 66.3 111.65 66.25 112.45 66.2 113.05 66.25 114.15 66.35 114.75 66.5 114.95 66.6 115.15 67.1 115.65 67.55 115.95 67.65 116 68.1 116.1 68.25 115.75 68.3 115.7 68.3 115.25 68.3 115.15 68.55 114.45 68.65 113.95 68.65 112.95 68.65 112.45 68.55 111.9 68.4 111.4 67.95 111.1
M 18.5 94.2
Q 17.2 94.8 13.7 96.65
L 11.85 97.65
Q 9.65 98.85 8.8 99.85 7.25 101.6 7.9 103.35 8.25 104.25 9.2 104.85 10.1 105.35 11.15 105.4 12.7 105.45 15 104.4 16.95 103.5 19.95 101.7
L 21.65 100.7
Q 22.85 99.9 23.15 99.7 24.15 99.2 24.6 98.8 25.65 97.95 25.55 96.65 25.55 95.4 24.55 94.5 23.85 93.95 22.45 93.65 21.35 93.4 20.35 93.55 19.55 93.65 18.5 94.2
M 129.75 85.75
Q 128.5 85.55 127.8 85.65 126.35 85.95 125.65 87.25 124.95 88.55 125.6 89.95 126.15 91.15 128.6 92.25
L 133.6 94.55
Q 134.5 95.05 135.35 95.25 137.4 95.7 138.75 94.5 139.6 93.75 139.8 92.55 140 91.4 139.45 90.4 139.35 90.2 138.55 89.3 138.2 88.95 137.4 88.35 136.6 87.75 135.15 87.2 132.55 86.2 129.75 85.75
M 142.4 73.95
Q 142.55 72.6 141.85 71.55 141.2 70.45 139.95 69.95 138.75 69.45 137.45 69.65 136.95 69.7 135.45 70.3 131.4 72.1 127.1 75 125.8 75.95 125.45 76.55 124.95 77.25 124.95 78.2 124.95 79.1 125.4 79.8 125.85 80.55 126.65 80.95 127.5 81.4 128.35 81.3 128.7 81.25 130 80.8 137.3 77.9 138.35 77.55 140.6 76.9 141.35 76.2 142.25 75.35 142.4 73.95
M 89 43.3
Q 89.05 42.15 89.05 41.9 89.05 40.05 87.95 39.45 87.4 39.15 86.8 39.2 86.1 39.35 85.75 39.85 85.25 40.4 85.15 41.7 84.95 44.35 85.35 46.1 85.95 48.5 87.8 49.6 88.85 50.2 91 50.45 91.7 50.55 91.75 50.2 91.8 49.95 91.55 49.75 91.25 49.6 91.05 49.5 90.65 49.25 90.5 48.65 90.3 47.9 90.2 47.55 90.1 47.05 89.65 46.1 89.2 45.15 89.1 44.65 89 44.1 89 43.3 Z"/>
</g>
</defs>

<g transform="matrix( 1, 0, 0, 1, 0,0) ">
<use xlink:href="#Layer0_0_FILL"/>
</g>
</svg>
