
<svg xmlns="http://www.w3.org/2000/svg" version="1.1" xmlns:xlink="http://www.w3.org/1999/xlink" preserveAspectRatio="none" x="0px" y="0px" width="300px" height="300px" viewBox="0 0 300 300">
<defs/>

<g id="Layer_1">
<g id="Layer_2" transform="matrix( 1, 0, 0, 1, 60.65,82.45) ">
<g>
<g>
<g>
<path fill="#330066" stroke="none" d="
M 166.45 6.6
Q 166.45 2.2 164.45 0.75 163.2 -0.15 161.2 0.05 159.85 0.15 157.7 0.9 142.25 6.4 133.45 10.05 130.15 11.45 128.35 11.55 126.7 11.6 123.7 10.7 108.8 6.6 90.95 6.65 76.25 6.7 57.85 9.6 54.4 10.15 51.95 10.8 51.05 10.15 49.3 9.65 43.35 7.9 31.25 5.4 21.95 3.5 17.1 3.55 13.65 3.65 12.55 5.25 11.8 6.3 11.9 8.75 12.2 12.65 14.35 20.55
L 17.05 30.15
Q 18.75 36.4 20.35 39.85 20.05 40.15 19.7 40.55 17.25 43.35 16.4 46.2 15.2 46.05 13.45 46.05 11 46.05 10.1 46.4 8.9 46.85 7.4 48.35 5.55 50.15 4.55 51.6 3.05 53.8 2.9 53.95 2.65 54.2 1.85 54.95 1.15 55.55 0.8 56 -0.35 57.65 0.15 61.5 0.55 64.6 1.2 66 2.45 68.55 6.25 71.15 7.7 72.15 8.85 72.45 9.15 72.55 9.7 72.65 9.55 73.35 9.45 74.15 8.85 79.6 11.1 85.9 12.75 90.65 16.45 96.85 18.85 100.8 21.35 100.9 23.85 100.95 25.6 97.9 26.05 97.05 26.45 96.95 27.15 96.7 27.95 97.85 34.6 106.45 43.4 111.7 43.55 111.8 43.7 111.9 44.85 117.6 49.6 122.45 48.85 122.85 48 123.55 45.9 125.35 44.8 126.2
L 41.3 128.7
Q 40.25 129.35 39.45 130.05 39.3 125.45 38.85 122.95 38.1 118.55 35.5 111.85 34.25 108.7 33.15 107.05 31.5 104.6 29.35 103.7 27.3 102.85 24.9 103.35 22.65 103.8 20.75 105.25 18 107.35 15.25 112.5 13.45 115.85 13.05 118 12.7 119.75 12.85 122.5 12.9 124 13.05 126.95
L 13.05 130.25
Q 13.2 132.7 14.5 135.5 15.3 137.25 17.2 140.4 17.6 141.05 18 141.25 18.05 141.25 18.85 141.4 19.25 141.5 20.25 142.3 23.8 145.5 27.4 145.95 31.5 146.55 35.1 143.95 37.75 141.95 38.8 138.85 40.4 137.7 41.2 137.05
L 43.7 134.8
Q 46 133.35 47.1 132.55
L 49.75 130.5
Q 52.5 128.55 52.8 128.25 53.85 127.35 54.35 126.35 57.2 128.3 60.85 129.95 75.95 136.7 97 135.95 105.95 135.7 111.45 133.5 115.8 131.8 120.5 127.95 120.55 127.9 120.65 127.85
L 120.65 127.9
Q 121 128.85 121.75 129.4 121.85 129.5 123.65 130.45 124.45 130.85 125.95 131.85 127.35 132.7 129.8 133.6 132.95 134.8 133.8 135.2 135.05 135.8 138.1 137.65 140.8 139.25 142.45 139.95 144.15 140.55 145.25 140.55 145.55 140.9 145.85 141.25 147.3 142.7 148.5 143.3 150.05 144.05 151.85 143.85 153.6 143.7 155.15 142.8 157.95 141.15 159.55 137.6 160.75 135.05 161.45 131 162.3 126.6 162.35 123.85 162.35 121.6 161.9 118.35 161.4 115.75 161.25 115.2 160.25 111.05 158.05 107.6 156.55 105.1 154.75 103.95 152.35 102.3 150 103.05 149.55 103.2 149.1 103.5 153.45 99.95 154.75 98.95 155.3 98.5 155.75 98.45 156.45 98.4 157.3 99.45 158.7 101.05 159.6 101.75 161.05 102.85 162.5 102.9 165.2 103 168.25 99.15 171.45 95.05 172.85 92 174.9 87.65 175.5 81.9 175.9 77.65 175.6 71.35 175.5 69.1 174.9 67.8 176.3 66.4 177.45 64.65 178.35 63.3 178.7 62.15 179.4 59.7 178.35 55.9 177.85 54.1 177.5 53.3 176.35 50.95 173.6 48.45 171.65 46.65 170.1 46 168.05 45.2 165.65 45.2 165.55 45.2 165.4 45.2 165.15 44.45 164.75 43.65 163.95 42 162.35 40.3 160.75 38.8 159.9 37.85 160.85 36.35 161.55 33.6 163.95 24.85 164.9 20.2 166.45 12.7 166.45 6.6
M 147.6 104.75
Q 147.3 105 147.05 105.3 145.45 107.25 144.4 110.25 143.75 112.05 142.9 115.75 141.85 120.65 141.75 122.65 141.65 124.35 142 128.75
L 142.35 132.15
Q 142.15 132.05 142 131.95 140.7 131.15 140.05 130.75 137.2 129.1 132.65 127.4 127.55 125.6 125.05 124.55 124.7 124.4 124.45 124.3 127.95 120.6 129.75 116.7 131.15 116.55 133.1 115.45 137.7 112.85 144.15 107.55 146 106 147.6 104.75 Z"/>
</g>
</g>
</g>
</g>

<g id="Layer_1" transform="matrix( 1, 0, 0, 1, 60.65,82.45) ">
<g>
<g>
<g>
<path fill="#330066" stroke="none" d="
M 164.9 20.2
Q 166.45 12.7 166.45 6.6 166.45 2.2 164.45 0.75 163.2 -0.15 161.2 0.05 159.85 0.15 157.7 0.9 142.25 6.4 133.45 10.05 130.15 11.45 128.35 11.55 126.7 11.6 123.7 10.7 108.8 6.6 90.95 6.65 76.25 6.7 57.85 9.6 54.4 10.15 51.95 10.8 51.05 10.15 49.3 9.65 43.35 7.9 31.25 5.4 21.95 3.5 17.1 3.55 13.65 3.65 12.55 5.25 11.8 6.3 11.9 8.75 12.2 12.65 14.35 20.55
L 17.05 30.15
Q 18.75 36.4 20.35 39.85 20.05 40.15 19.7 40.55 17.25 43.35 16.4 46.2 15.2 46.05 13.45 46.05 11 46.05 10.1 46.4 8.9 46.85 7.4 48.35 5.55 50.15 4.55 51.6 3.05 53.8 2.9 53.95 2.65 54.2 1.85 54.95 1.15 55.55 0.8 56 -0.35 57.65 0.15 61.5 0.55 64.6 1.2 66 2.45 68.55 6.25 71.15 7.7 72.15 8.85 72.45 9.15 72.55 9.7 72.65 9.55 73.35 9.45 74.15 8.85 79.6 11.1 85.9 12.75 90.65 16.45 96.85 18.85 100.8 21.35 100.9 23.85 100.95 25.6 97.9 26.05 97.05 26.45 96.95 27.15 96.7 27.95 97.85 34.6 106.45 43.4 111.7 43.55 111.8 43.7 111.9 44.85 117.6 49.6 122.45 48.85 122.85 48 123.55 45.9 125.35 44.8 126.2
L 41.3 128.7
Q 40.25 129.35 39.45 130.05 39.3 125.45 38.85 122.95 38.1 118.55 35.5 111.85 34.25 108.7 33.15 107.05 31.5 104.6 29.35 103.7 27.3 102.85 24.9 103.35 22.65 103.8 20.75 105.25 18 107.35 15.25 112.5 13.45 115.85 13.05 118 12.7 119.75 12.85 122.5 12.9 124 13.05 126.95
L 13.05 130.25
Q 13.2 132.7 14.5 135.5 15.3 137.25 17.2 140.4 17.6 141.05 18 141.25 18.05 141.25 18.85 141.4 19.25 141.5 20.25 142.3 23.8 145.5 27.4 145.95 31.5 146.55 35.1 143.95 37.75 141.95 38.8 138.85 40.4 137.7 41.2 137.05
L 43.7 134.8
Q 46 133.35 47.1 132.55
L 49.75 130.5
Q 52.5 128.55 52.8 128.25 53.85 127.35 54.35 126.35 57.2 128.3 60.85 129.95 75.95 136.7 97 135.95 105.95 135.7 111.45 133.5 115.8 131.8 120.5 127.95 120.55 127.9 120.65 127.85
L 120.65 127.9
Q 121 128.85 121.75 129.4 121.85 129.5 123.65 130.45 124.45 130.85 125.95 131.85 127.35 132.7 129.8 133.6 132.95 134.8 133.8 135.2 135.05 135.8 138.1 137.65 140.8 139.25 142.45 139.95 144.15 140.55 145.25 140.55 145.55 140.9 145.85 141.25 147.3 142.7 148.5 143.3 150.05 144.05 151.85 143.85 153.6 143.7 155.15 142.8 157.95 141.15 159.55 137.6 160.75 135.05 161.45 131 162.3 126.6 162.35 123.85 162.35 121.6 161.9 118.35 161.4 115.75 161.25 115.2 160.25 111.05 158.05 107.6 156.55 105.1 154.75 103.95 152.35 102.3 150 103.05 149.55 103.2 149.1 103.5 153.45 99.95 154.75 98.95 155.3 98.5 155.75 98.45 156.45 98.4 157.3 99.45 158.7 101.05 159.6 101.75 161.05 102.85 162.5 102.9 165.2 103 168.25 99.15 171.45 95.05 172.85 92 174.9 87.65 175.5 81.9 175.9 77.65 175.6 71.35 175.5 69.1 174.9 67.8 176.3 66.4 177.45 64.65 178.35 63.3 178.7 62.15 179.4 59.7 178.35 55.9 177.85 54.1 177.5 53.3 176.35 50.95 173.6 48.45 171.65 46.65 170.1 46 168.05 45.2 165.65 45.2 165.55 45.2 165.4 45.2 165.15 44.45 164.75 43.65 163.95 42 162.35 40.3 160.75 38.8 159.9 37.85 160.85 36.35 161.55 33.6 163.95 24.85 164.9 20.2
M 172.35 58.45
Q 172.5 59.4 172.35 60.2 172.15 61 171.1 62.4 169.15 64.95 167.65 65.4 166.5 65.75 164.45 65.5
L 160.6 65.15
Q 159.95 65.15 159.5 65.05 159.4 64.9 159.25 64.8 158.75 64.4 158.25 64.15 157.7 63.55 157.65 62.5 157.55 62 157.6 61.25 157.65 60.15 157.6 59.85 157.5 58.35 157.5 57.6 157.4 56.25 157.75 55.35 158.25 54.2 159.9 52.95 161.85 51.6 163.3 51.25 164.85 50.85 166.45 51.3 168.1 51.75 169.4 52.8 171.8 54.85 172.35 58.45
M 164.3 71.45
Q 165.75 71.6 166.05 71.65 167.1 71.75 167.8 71.6 167.95 71.6 168.15 71.55
L 168.15 71.6
Q 168.15 72.6 168.3 74.55 168.55 79.5 167.15 84.25 165.8 89.05 163 93.05 162.6 93.75 162.1 93.8 161.7 93.9 161.25 93.5 161.1 93.4 160.5 92.75 159.45 91.4 157.65 90.9 155.95 90.4 154.25 90.85 152.85 91.2 151.4 92.25 150.55 92.85 148.95 94.3
L 139.75 102.6
Q 136.75 105.3 135.3 106.4 133.4 107.85 131.6 108.8 131.6 107.75 131.55 106.7 131.35 102.75 129.85 99.05 129.4 97.95 128.85 96.9 129.2 96.75 129.55 96.6
L 131.9 95.45
Q 133.3 94.75 135.2 93.45 136 92.9 137.05 92.15 137.6 92.1 138.05 91.85 138.7 91.45 139.7 90.3 139.85 90.1 140.05 89.95
L 143.15 87.55
Q 146.35 85 147.3 83.65 148.15 82.5 148.55 81.35 154.7 75.75 158.05 72.15 158.8 71.4 159.3 70.7 159.6 70.8 159.9 70.8
L 164.3 71.45
M 133.3 17.7
Q 134.3 17.35 136.6 16.25 146.85 11.45 158.8 8.15 157.55 19.9 153.7 31.7 152.7 34.5 152.75 36.05 152.75 37.2 153.25 38.2 153.55 38.7 153.9 39.1 154 39.55 154.3 40 154.8 40.85 156.15 42.3 156.7 43.15 157.05 44.4 157.3 45.15 157.65 46.65 157.7 46.85 157.75 47.1
L 157.7 47.1
Q 153.75 49.3 152.3 53.2 151.9 54.55 151.75 55.75 151.1 59.75 151.5 63.45 151.75 65.55 152.5 66.75 151.5 67.9 150.95 68.5 150.1 69.6 148.35 71.2 146.25 72.95 145.55 73.65 144.85 74.4 144.3 75.05 143.3 75.25 142.3 76.05 141.6 76.6 140.45 77.9 137.1 81.8 134.15 83.6 132.35 84.75 132.1 84.95 130.75 86.25 130.05 86.9 128.7 88.2 126.7 89.35 125.2 90.2 124.4 90.7 122.65 88.85 120.5 87.25 131.25 84.6 138.55 78.6 140.1 77.25 140.6 76.2 140.95 75.45 140.9 74.65 140.85 73.8 140.35 73.2 139.8 72.6 138.9 72.45 138.6 72.4 138.3 72.45 138.05 71.95 137.7 71.5 137 70.65 135.55 69.5 131.55 66.4 129.7 65.1 126.35 62.8 123.4 61.55 119.75 60 114.9 59.15 111.85 58.6 106 58.05 97.5 57.15 92.15 57.05 92.75 55.45 92.7 52.85 92.7 50.4 92.55 47.9 92.35 45.15 91.95 43.5 91.55 41.85 90.6 40.75 89.55 39.45 88.15 39.4 87 39.35 85.95 40.2 85 40.95 84.45 42.1 83.4 44.3 83.65 47.75 83.75 49.75 84.3 53.7 84.4 56.1 84.8 57.05 69.7 57.7 55.55 62.65 46.75 65.7 42.2 69.8 41.7 70.2 41.35 70.65 41.25 70.6 41.2 70.6 39.7 70.25 38.55 70.9 37.5 71.5 37 72.75 36.5 73.95 36.75 75.25 36.9 76.3 37.55 77.45
L 36.15 76.05
Q 34.85 74.85 34.25 74.2
L 29.2 69.05
Q 27.6 67.45 26.7 66.85 26.5 66.7 26.25 66.6 26.55 66 26.85 65.35 27.5 63.6 27.5 61.65 27.5 60.3 27.15 58.35 26.35 53.4 24.6 51.2 23.95 50.45 22.55 49.35 22.8 47.95 23 47.3 23.25 46.35 24.4 44.4 25.25 42.9 25.4 41.8 25.55 41.55 25.6 41.25 25.9 40.1 25.3 37.85 22.65 28.05 22.15 25.7 21.2 21.05 20.1 11.75
L 29.3 13.2
Q 40.95 14.95 46.9 17.1 48.25 17.55 48.75 17.65 49.8 17.85 50.6 17.6 51.4 17.4 52 16.75 72.95 13.4 86.95 13 107.35 12.4 123.45 17.25 126 18 126.6 18.15 128.4 18.55 129.85 18.45 131.4 18.4 133.3 17.7
M 108.2 61.9
Q 113.6 62.6 116.15 63.35 120.55 64.6 124.3 67.35 128.05 70.05 130.7 73.8 131.9 75.5 132.35 76 132.4 76.1 132.5 76.15 122.45 83.85 107.3 86.45 100.55 87.6 92.4 87.75 86.2 87.85 77.45 87.35 66.7 86.65 60.95 84.95 51.8 82.2 47.1 76.05 46.6 75.35 46.25 74.85 46.65 74.4 47.2 73.85 48.75 72.4 51 71.15 52.25 70.4 55.15 69 64.35 64.65 69.45 63.1 77.95 60.55 88.65 60.5 96.55 60.45 108.2 61.9
M 102.65 89.4
Q 108.8 89.25 113.8 88.55 114 89.15 114.65 89.8 115.45 90.55 117.3 91.6 119.55 92.9 121.4 94.75 121.35 95.3 121.5 95.85 121.75 96.75 122.45 97.3 123.05 97.75 123.95 97.9 125.5 100.3 126.3 103.15 127.3 106.75 126.75 110.55 126.7 111.1 126.6 111.7 126.4 112.65 126.15 113.55 125.5 115.7 124.35 117.65 122.2 121.4 118.3 124.2 114.65 126.8 110.1 128.15 103.1 130.25 92.1 129.8 71.85 129.1 59.25 121.95 54.9 119.45 52.7 116.7 50.8 114.25 50.1 111.05 50.65 110.65 50.7 110.15 50.8 109.55 50 108.75 49.85 108.6 49.7 108.45 49.45 105.45 50.25 102.4 52.2 95.5 58.6 90.25 59.95 89.2 60.35 88.5 64.6 88.85 70.4 88.95
L 89.9 89.35
Q 98.4 89.5 102.65 89.4
M 20.6 57.9
Q 21.05 60.15 20.95 61.55 20.85 63.6 19.55 64.85 18.65 65.7 17.15 66 16.25 66.2 14.45 66.25 10.85 66.35 9.3 65.25 7.7 64.1 6.95 60.9 6.6 59.6 6.7 58.8 6.9 58 8.1 56.45 9.95 54.2 10.45 53.75 11.9 52.4 13.35 52.15 15.4 51.75 17.9 53.45 19.2 54.4 19.85 55.45 20.35 56.35 20.6 57.9
M 20.85 71.7
Q 21.25 72.2 21.9 72.85
L 29.65 80.95
Q 30.3 82.2 32.9 84.45 33.15 84.65 33.45 84.95
L 36.15 87.75
Q 37.35 88.95 38.25 89.6 38.55 89.9 38.9 90.25 42.9 94.4 44.8 96.1 45.5 96.75 46.2 97.2 44.8 99.7 44.05 102.5 43.85 103.3 43.7 104.1 43.1 103.65 42.9 103.5 40.25 101.5 36.65 97.3 32.25 92.25 30.65 90.75 27.5 87.9 25.1 88.35 23.6 88.6 22.75 89.85 22.2 90.6 21.8 90.55 21.45 90.55 21.1 89.9 16.55 81.1 16.25 74.05 16.25 73.35 16.2 72.8 18.2 72.65 19.8 72.1 20.35 71.9 20.85 71.7
M 42.45 82.75
Q 42.1 82.45 41.8 82.1 46.5 85.85 53.65 87.5 54.25 87.65 54.9 87.75 53.05 88.95 51.45 90.45 51.05 90.05 50.6 89.65
L 42.45 82.75
M 25.95 109.5
Q 26.75 109.2 27.25 109.45 27.85 109.65 28.35 110.7 28.75 111.5 29.75 114.05 31.45 118.55 31.95 120.5 33.5 126.15 33.25 134.4 33.15 135.8 32.9 136.45 32.6 137.2 31.9 137.7 31.15 138.2 30.35 138.25 29 138.3 27.1 137 25.5 136 24.2 134.85 22.15 132.9 21.15 130.25
L 20.5 128.05
Q 20.05 126.7 19.65 125.9 18.95 124.65 18.9 124.45 18.7 123.9 18.7 122.7 18.75 120.6 19.5 118.35 20.35 115.95 21.95 113.55 23.35 111.55 24.2 110.7 25.05 109.85 25.95 109.5
M 147.05 105.3
Q 145.45 107.25 144.4 110.25 143.75 112.05 142.9 115.75 141.85 120.65 141.75 122.65 141.65 124.35 142 128.75
L 142.35 132.15
Q 142.15 132.05 142 131.95 140.7 131.15 140.05 130.75 137.2 129.1 132.65 127.4 127.55 125.6 125.05 124.55 124.7 124.4 124.45 124.3 127.95 120.6 129.75 116.7 131.15 116.55 133.1 115.45 137.7 112.85 144.15 107.55 146 106 147.6 104.75 147.3 105 147.05 105.3
M 150.8 110.6
Q 151.15 109.85 151.7 109.65 152.3 110.6 153.55 113.25
L 154.4 115.15
Q 154.65 115.75 154.95 117.05
L 155.5 120.15
Q 155.8 122.35 155.8 123.5 155.9 125.7 155.4 128 155.25 129 154.95 129.85 153.95 134.1 152.4 135.8 151.85 136.35 151.45 136.35 151.05 136.35 150.7 135.9 150.3 135.35 150.1 135.1 149.85 134.85 149.25 134.4 148.65 134 148.4 133.7 148.2 133.45 148 133.05 147.75 132.45 147.7 132.35 146.85 131.05 146.8 130.95 146.65 130.5 146.75 129.5
L 147.25 124.9
Q 147.25 123.1 147.35 122.6
L 147.95 120.5
Q 148.15 118.6 148.4 117.7 148.95 116.2 149.1 115.45 149.25 114.2 149.45 113.6 150 112.5 150.25 111.9 150.6 111 150.8 110.6
M 53 45.1
Q 52.05 44.8 50.45 45 47.15 45.35 44.9 46.85 42.15 48.85 41.85 51.65 41.65 53.15 42.35 54.55 43.05 55.95 44.35 56.55 46.95 57.8 50.75 55.65 53.05 54.35 54.25 52.8 55.85 50.7 55.55 48.55 55.45 47.4 54.75 46.45 54.05 45.45 53 45.1
M 131.3 47.1
Q 129.3 46.35 127.5 46.4 125.45 46.45 124.1 47.65 123 48.65 122.7 50.25 122.35 51.8 122.9 53.2 123.9 56.05 127.05 57.35 129.8 58.55 132.6 58 135.25 57.45 136.35 55.75 137.1 54.6 137 53.05 136.85 51.55 136 50.3 134.55 48.3 131.3 47.1 Z"/>

<path fill="#CC3399" stroke="none" d="
M 151.7 109.65
Q 151.15 109.85 150.8 110.6 150.6 111 150.25 111.9 150 112.5 149.45 113.6 149.25 114.2 149.1 115.45 148.95 116.2 148.4 117.7 148.15 118.6 147.95 120.5
L 147.35 122.6
Q 147.25 123.1 147.25 124.9
L 146.75 129.5
Q 146.65 130.5 146.8 130.95 146.85 131.05 147.7 132.35 147.75 132.45 148 133.05 148.2 133.45 148.4 133.7 148.65 134 149.25 134.4 149.85 134.85 150.1 135.1 150.3 135.35 150.7 135.9 151.05 136.35 151.45 136.35 151.85 136.35 152.4 135.8 153.95 134.1 154.95 129.85 155.25 129 155.4 128 155.9 125.7 155.8 123.5 155.8 122.35 155.5 120.15
L 154.95 117.05
Q 154.65 115.75 154.4 115.15
L 153.55 113.25
Q 152.3 110.6 151.7 109.65
M 27.25 109.45
Q 26.75 109.2 25.95 109.5 25.05 109.85 24.2 110.7 23.35 111.55 21.95 113.55 20.35 115.95 19.5 118.35 18.75 120.6 18.7 122.7 18.7 123.9 18.9 124.45 18.95 124.65 19.65 125.9 20.05 126.7 20.5 128.05
L 21.15 130.25
Q 22.15 132.9 24.2 134.85 25.5 136 27.1 137 29 138.3 30.35 138.25 31.15 138.2 31.9 137.7 32.6 137.2 32.9 136.45 33.15 135.8 33.25 134.4 33.5 126.15 31.95 120.5 31.45 118.55 29.75 114.05 28.75 111.5 28.35 110.7 27.85 109.65 27.25 109.45 Z"/>

<path fill="#6699FF" stroke="none" d="
M 41.8 82.1
Q 42.1 82.45 42.45 82.75
L 50.6 89.65
Q 51.05 90.05 51.45 90.45 53.05 88.95 54.9 87.75 54.25 87.65 53.65 87.5 46.5 85.85 41.8 82.1
M 21.9 72.85
Q 21.25 72.2 20.85 71.7 20.35 71.9 19.8 72.1 18.2 72.65 16.2 72.8 16.25 73.35 16.25 74.05 16.55 81.1 21.1 89.9 21.45 90.55 21.8 90.55 22.2 90.6 22.75 89.85 23.6 88.6 25.1 88.35 27.5 87.9 30.65 90.75 32.25 92.25 36.65 97.3 40.25 101.5 42.9 103.5 43.1 103.65 43.7 104.1 43.85 103.3 44.05 102.5 44.8 99.7 46.2 97.2 45.5 96.75 44.8 96.1 42.9 94.4 38.9 90.25 38.55 89.9 38.25 89.6 37.35 88.95 36.15 87.75
L 33.45 84.95
Q 33.15 84.65 32.9 84.45 30.3 82.2 29.65 80.95
L 21.9 72.85
M 113.8 88.55
Q 108.8 89.25 102.65 89.4 98.4 89.5 89.9 89.35
L 70.4 88.95
Q 64.6 88.85 60.35 88.5 59.95 89.2 58.6 90.25 52.2 95.5 50.25 102.4 49.45 105.45 49.7 108.45 49.85 108.6 50 108.75 50.8 109.55 50.7 110.15 50.65 110.65 50.1 111.05 50.8 114.25 52.7 116.7 54.9 119.45 59.25 121.95 71.85 129.1 92.1 129.8 103.1 130.25 110.1 128.15 114.65 126.8 118.3 124.2 122.2 121.4 124.35 117.65 125.5 115.7 126.15 113.55 126.4 112.65 126.6 111.7 126.7 111.1 126.75 110.55 127.3 106.75 126.3 103.15 125.5 100.3 123.95 97.9 123.05 97.75 122.45 97.3 121.75 96.75 121.5 95.85 121.35 95.3 121.4 94.75 119.55 92.9 117.3 91.6 115.45 90.55 114.65 89.8 114 89.15 113.8 88.55
M 136.6 16.25
Q 134.3 17.35 133.3 17.7 131.4 18.4 129.85 18.45 128.4 18.55 126.6 18.15 126 18 123.45 17.25 107.35 12.4 86.95 13 72.95 13.4 52 16.75 51.4 17.4 50.6 17.6 49.8 17.85 48.75 17.65 48.25 17.55 46.9 17.1 40.95 14.95 29.3 13.2
L 20.1 11.75
Q 21.2 21.05 22.15 25.7 22.65 28.05 25.3 37.85 25.9 40.1 25.6 41.25 25.55 41.55 25.4 41.8 25.25 42.9 24.4 44.4 23.25 46.35 23 47.3 22.8 47.95 22.55 49.35 23.95 50.45 24.6 51.2 26.35 53.4 27.15 58.35 27.5 60.3 27.5 61.65 27.5 63.6 26.85 65.35 26.55 66 26.25 66.6 26.5 66.7 26.7 66.85 27.6 67.45 29.2 69.05
L 34.25 74.2
Q 34.85 74.85 36.15 76.05
L 37.55 77.45
Q 36.9 76.3 36.75 75.25 36.5 73.95 37 72.75 37.5 71.5 38.55 70.9 39.7 70.25 41.2 70.6 41.25 70.6 41.35 70.65 41.7 70.2 42.2 69.8 46.75 65.7 55.55 62.65 69.7 57.7 84.8 57.05 84.4 56.1 84.3 53.7 83.75 49.75 83.65 47.75 83.4 44.3 84.45 42.1 85 40.95 85.95 40.2 87 39.35 88.15 39.4 89.55 39.45 90.6 40.75 91.55 41.85 91.95 43.5 92.35 45.15 92.55 47.9 92.7 50.4 92.7 52.85 92.75 55.45 92.15 57.05 97.5 57.15 106 58.05 111.85 58.6 114.9 59.15 119.75 60 123.4 61.55 126.35 62.8 129.7 65.1 131.55 66.4 135.55 69.5 137 70.65 137.7 71.5 138.05 71.95 138.3 72.45 138.6 72.4 138.9 72.45 139.8 72.6 140.35 73.2 140.85 73.8 140.9 74.65 140.95 75.45 140.6 76.2 140.1 77.25 138.55 78.6 131.25 84.6 120.5 87.25 122.65 88.85 124.4 90.7 125.2 90.2 126.7 89.35 128.7 88.2 130.05 86.9 130.75 86.25 132.1 84.95 132.35 84.75 134.15 83.6 137.1 81.8 140.45 77.9 141.6 76.6 142.3 76.05 143.3 75.25 144.3 75.05 144.85 74.4 145.55 73.65 146.25 72.95 148.35 71.2 150.1 69.6 150.95 68.5 151.5 67.9 152.5 66.75 151.75 65.55 151.5 63.45 151.1 59.75 151.75 55.75 151.9 54.55 152.3 53.2 153.75 49.3 157.7 47.1
L 157.75 47.1
Q 157.7 46.85 157.65 46.65 157.3 45.15 157.05 44.4 156.7 43.15 156.15 42.3 154.8 40.85 154.3 40 154 39.55 153.9 39.1 153.55 38.7 153.25 38.2 152.75 37.2 152.75 36.05 152.7 34.5 153.7 31.7 157.55 19.9 158.8 8.15 146.85 11.45 136.6 16.25
M 127.5 46.4
Q 129.3 46.35 131.3 47.1 134.55 48.3 136 50.3 136.85 51.55 137 53.05 137.1 54.6 136.35 55.75 135.25 57.45 132.6 58 129.8 58.55 127.05 57.35 123.9 56.05 122.9 53.2 122.35 51.8 122.7 50.25 123 48.65 124.1 47.65 125.45 46.45 127.5 46.4
M 50.45 45
Q 52.05 44.8 53 45.1 54.05 45.45 54.75 46.45 55.45 47.4 55.55 48.55 55.85 50.7 54.25 52.8 53.05 54.35 50.75 55.65 46.95 57.8 44.35 56.55 43.05 55.95 42.35 54.55 41.65 53.15 41.85 51.65 42.15 48.85 44.9 46.85 47.15 45.35 50.45 45
M 166.05 71.65
Q 165.75 71.6 164.3 71.45
L 159.9 70.8
Q 159.6 70.8 159.3 70.7 158.8 71.4 158.05 72.15 154.7 75.75 148.55 81.35 148.15 82.5 147.3 83.65 146.35 85 143.15 87.55
L 140.05 89.95
Q 139.85 90.1 139.7 90.3 138.7 91.45 138.05 91.85 137.6 92.1 137.05 92.15 136 92.9 135.2 93.45 133.3 94.75 131.9 95.45
L 129.55 96.6
Q 129.2 96.75 128.85 96.9 129.4 97.95 129.85 99.05 131.35 102.75 131.55 106.7 131.6 107.75 131.6 108.8 133.4 107.85 135.3 106.4 136.75 105.3 139.75 102.6
L 148.95 94.3
Q 150.55 92.85 151.4 92.25 152.85 91.2 154.25 90.85 155.95 90.4 157.65 90.9 159.45 91.4 160.5 92.75 161.1 93.4 161.25 93.5 161.7 93.9 162.1 93.8 162.6 93.75 163 93.05 165.8 89.05 167.15 84.25 168.55 79.5 168.3 74.55 168.15 72.6 168.15 71.6
L 168.15 71.55
Q 167.95 71.6 167.8 71.6 167.1 71.75 166.05 71.65 Z"/>

<path fill="#CCFFFF" stroke="none" d="
M 20.95 61.55
Q 21.05 60.15 20.6 57.9 20.35 56.35 19.85 55.45 19.2 54.4 17.9 53.45 15.4 51.75 13.35 52.15 11.9 52.4 10.45 53.75 9.95 54.2 8.1 56.45 6.9 58 6.7 58.8 6.6 59.6 6.95 60.9 7.7 64.1 9.3 65.25 10.85 66.35 14.45 66.25 16.25 66.2 17.15 66 18.65 65.7 19.55 64.85 20.85 63.6 20.95 61.55
M 172.35 60.2
Q 172.5 59.4 172.35 58.45 171.8 54.85 169.4 52.8 168.1 51.75 166.45 51.3 164.85 50.85 163.3 51.25 161.85 51.6 159.9 52.95 158.25 54.2 157.75 55.35 157.4 56.25 157.5 57.6 157.5 58.35 157.6 59.85 157.65 60.15 157.6 61.25 157.55 62 157.65 62.5 157.7 63.55 158.25 64.15 158.75 64.4 159.25 64.8 159.4 64.9 159.5 65.05 159.95 65.15 160.6 65.15
L 164.45 65.5
Q 166.5 65.75 167.65 65.4 169.15 64.95 171.1 62.4 172.15 61 172.35 60.2 Z"/>

<path fill="#FFECB7" stroke="none" d="
M 116.15 63.35
Q 113.6 62.6 108.2 61.9 96.55 60.45 88.65 60.5 77.95 60.55 69.45 63.1 64.35 64.65 55.15 69 52.25 70.4 51 71.15 48.75 72.4 47.2 73.85 46.65 74.4 46.25 74.85 46.6 75.35 47.1 76.05 51.8 82.2 60.95 84.95 66.7 86.65 77.45 87.35 86.2 87.85 92.4 87.75 100.55 87.6 107.3 86.45 122.45 83.85 132.5 76.15 132.4 76.1 132.35 76 131.9 75.5 130.7 73.8 128.05 70.05 124.3 67.35 120.55 64.6 116.15 63.35 Z"/>
</g>
</g>
</g>
</g>
</g>
</svg>
