
<svg xmlns="http://www.w3.org/2000/svg" version="1.1" xmlns:xlink="http://www.w3.org/1999/xlink" preserveAspectRatio="none" x="0px" y="0px" width="150px" height="150px" viewBox="0 0 150 150">
<defs>
<g id="Layer0_0_FILL">
<path fill="#FFFFFF" stroke="none" d="
M 98.55 37.2
Q 98.5 37.2 98.5 37.25 97.9 36.85 97.1 36.5 84.45 30.9 65.8 33.65 59.05 34.65 55 36.5 54.75 36.6 54.55 36.75 54.4 36.65 54.25 36.55 53.45 36.1 51.2 35.45 47.5 34.2 45.65 33.7 42.35 32.75 39.9 32.85 37.2 32.95 35.45 34.25 33.55 35.75 32.55 39.95 30.7 47.6 32.05 53.6 31.85 53.8 31.7 54 28.5 58.65 26.25 64.7 24.45 65.9 23.35 68 22.95 68.75 22.8 69.35 22.65 69.85 22.65 70.9 22.65 73.2 23.3 74.55 22.05 80.1 21.05 87.65 20.6 91.15 21.9 92.45 22.9 93.55 24.85 93.45 26.05 93.35 27.9 92.5 30.5 91.25 32.55 89.75 32.8 89.55 33.05 89.4 34.8 91.9 37.2 94.1 37.85 94.7 38.75 95.4 37.05 95.35 35.4 96.35 33.05 97.7 32.25 100.45 31.55 102.8 32.4 106.3 33.7 112 36.95 114.45 39.75 116.5 43.4 116.25 46.65 116.1 49.7 113.95 51.6 112.65 54.65 109.1
L 56.5 106.95
Q 57.75 107.7 59.1 108.25 64 110.2 71.35 109.95 75 109.8 79.25 109.95 83.45 110.05 89.4 108.05 90.3 107.75 91.1 107.4 92 109.05 93.85 110.75 96.55 113.2 99.8 114.5 103.25 115.85 106.6 115.55 111.05 115.2 113.7 112.35 115.2 110.7 115.65 108.6 116.05 106.85 115.7 105.35 115.35 103.95 114.25 102.8 113.2 101.7 111.8 101.15 108.95 100.05 106 101.35 103.3 102.55 101.55 105.15 100.2 107.2 100.2 108.95 97.4 107.2 95.2 104.8 96.7 103.45 97.6 101.7 98.5 100 99 98.6
L 99.55 99.5
Q 100.2 100.75 100.9 101.25 102.65 102.55 105.2 101.35 106.05 100.9 107.1 100.1 108.25 99.15 108.85 98.7 109.95 97.9 112.25 96.55 115.65 94.4 118.35 91.45 118.95 91.95 119.85 92.45 121.25 93.15 122 93.25 123.3 93.4 124.1 92.6 124.8 91.85 124.8 89.75
L 124.6 83.05
Q 124.45 78.75 124.3 76.25 124.45 76.2 124.6 76.1
L 126.2 75.35
Q 127.45 74.7 128.2 73.8 129.65 72 129.55 69 129.55 67.5 129.2 66.3 128.8 65 128.1 64.1 127.4 63.15 126.15 62.25 125.3 61.6 124.15 61.2 122.5 60.65 120.95 61.05 120.3 59.6 119.55 58.2 118.7 56.6 117.8 55.4 118 54.8 118.15 54.1 119.65 47.95 118.6 41.65 118.25 39.15 117.45 37.65 116.45 35.6 114.6 34.7 113.1 33.95 110.65 34.05 105.1 34.2 98.55 37.2
M 94.85 40.9
Q 97.15 42.15 98.3 41.85 98.45 41.8 98.55 41.8 99 41.85 99.5 41.85 100.85 41.9 102.8 41.25 103.9 40.95 106.1 40.2 108.8 39.5 111.45 39.65 112.15 39.75 112.3 39.9 112.45 40.05 112.7 40.6 113.2 42.25 113.6 45.45 114 48.65 113.65 50.5 113.65 50.55 113.15 52.65 113 53.25 112.95 53.8 112.65 54.3 112.7 55 112.75 55.65 113.25 56.85 113.85 58.2 115.05 60.9 115.75 62.4 116.2 63.6 116.15 63.7 116.05 63.75 114.8 64.9 114.25 66 113.65 67.2 113.7 68.7 112.75 69.3 111.45 70.35 109.35 72.1 109.1 72.3 108.3 72.9 107.25 73.6 109.65 69.6 109.8 65.65 109.95 61.1 108.3 61.2 106.25 61.95 105.85 62.35 104.5 63.6 104.05 66.4 103.95 67.1 103.85 68.55 103.65 69.75 103.5 70.6 102.7 73.65 99.85 76.35 98.5 77.5 96.55 78.9 90.5 82.65 80.85 83.35 71.25 84 67 83.55 58.6 82.55 53.45 79.55 50.55 77.75 48.95 75.8 46.35 72.65 45.95 68.4 45.8 65.55 45.45 64.6 45.05 63.6 44.35 62.95 43.45 62.15 42.55 62.2 41.15 62.3 40.75 63.8 40.35 64.9 40.65 66.6 40.75 67.45 40.9 68.3 41.5 72 42.9 74.8 43.75 76.6 45 78.15 39.95 74.9 37.35 72.6 37.4 72.25 37.4 71.9 37.65 68.75 35.75 66.25 34.45 64.45 32.65 63.8 34 60.3 35.75 56.9 36.3 56.7 36.65 56.25 37.2 55.45 37.2 53.5 37.15 48.7 37.3 46.55 37.55 42.7 38.55 39.8 38.75 39.05 39.2 38.8 39.6 38.5 40.6 38.6 42.5 38.9 46.3 40.2 50 41.45 52 41.75 53.35 42 54.3 41.7 54.4 41.7 54.5 41.7 55.1 41.75 55.8 41.4 56.2 41.25 57 40.8 59 39.8 62.25 39.05 72 36.9 81.6 37.65 89.6 38.15 94.85 40.9
M 120.15 66.45
Q 120.3 66.35 120.5 66.3 120.65 66.25 120.8 66.1 121.25 65.95 121.8 65.9 122 65.9 122.2 65.9 122.35 66 122.55 66.15 123.25 66.6 123.65 67.05 124.15 67.6 124.3 68.4 124.45 69.45 123.75 70.65 123.15 71.55 122.15 72.1 121.6 72.35 121.1 72.4 120 72.1 119.3 71.05 118.6 70 118.7 68.85 118.8 67.75 119.7 66.8 119.9 66.6 120.15 66.45
M 96.75 85.95
Q 97.65 85.65 99.15 84.8 101.5 83.45 106.2 80.8 110.3 78.4 112.9 76.3 114.8 74.8 115.6 74.25 116.1 74.9 116.7 75.45 117.3 76.1 118.2 76.5 118.5 76.65 118.75 76.75
L 119.55 85.95
Q 119.15 85.7 118.6 85.65 117.85 85.55 117.25 85.95 116.8 86.25 115.85 87.5 111.65 93.35 103.45 96.5 103.05 96.05 102.55 95.2 101.9 94.05 101.75 93.85 100.65 92.25 99.35 92.2 99.1 90.85 98.65 89.6 98.25 88.4 97.35 86.9 97 86.4 96.75 85.95
M 89.9 85.8
Q 90 85.75 90.15 85.75 90.45 86.4 91 87.2 93.15 90.3 93.55 91.2 94.75 93.65 94.7 96.2 94.6 98.7 91 101.5 87.4 104.25 83.5 104.65 79.55 105 75.75 104.9 69.25 104.9 65.6 104.25 61.8 103.55 59.35 101.9 56.15 99.7 55.5 96.5 55.15 94.75 55.65 92.6 56.1 90.55 56.95 89.15 58.05 87.65 58.45 86.85 58.65 86.45 58.8 86.1 61.7 86.7 65.05 86.9 68.45 87.05 76.45 87.15 84.35 87.3 89.9 85.8
M 29.9 73
Q 29.1 72.95 28.45 72.4 27.8 71.85 27.6 71.05 27.4 70.25 27.7 69.45 28.05 68.65 28.7 68.25 29.4 67.85 30.25 67.9 31.1 67.95 31.75 68.45 32.35 69 32.55 69.8 32.75 70.65 32.45 71.4 32.15 72.15 31.4 72.6 30.7 73.05 29.9 73
M 32.45 83.35
Q 31.95 83.3 31.5 83.4 30.05 83.6 27.75 85.2 28 81.65 28.6 78.15 28.75 78.15 28.95 78.2 30.05 78.4 31.75 78.2 33.5 77.95 34.7 77.25 36.5 78.85 38.25 80.05 38.9 80.5 41.55 82.2 47.35 85.7 50.4 87.15 51 87.4 51.5 87.55 50.2 90.2 49.8 92.95
L 49.8 93
Q 49.15 93.1 48.55 93.4 47.5 93.95 46.9 94.95 46.7 95.35 46.5 95.35 46.3 95.35 46.15 95.2 42.25 92.8 40.55 91.25
L 38.4 89.05
Q 36.75 87.15 36.25 86.35 35.1 84.4 34.85 84.15 33.8 83 32.55 83.3 32.5 83.3 32.45 83.35
M 48.6 106.8
Q 48 103.2 45.95 100.25 47 100.85 47.65 100.75 48.45 100.7 49.55 99.6 49.85 99.3 50.1 99.05 50.25 99.45 50.4 99.9 51 101.55 52.15 103.05 50.6 105.1 48.6 106.8
M 41.75 109.15
Q 41.2 108.85 40.6 108 39 105.45 39.15 102.6 40.1 103.45 41.7 106.05 43.15 108.35 44.4 109.25 42.65 109.65 41.75 109.15
M 108.4 106.75
Q 109.75 106.3 111.1 106.5 110.95 108.65 108.95 109.85 107.15 110.9 104.95 110.4 105.25 110.05 105.95 108.95 106.5 108.05 107 107.6 107.5 107.1 108.4 106.75
M 61.05 58.1
Q 62.85 55.95 62.1 53.75 61.75 52.7 60.7 51.95 59.75 51.25 58.55 51.15 57.95 51.1 55.55 51.45 54.25 51.55 53.6 51.7 52.2 52 51 53.05 50.25 53.7 49.85 54.4 49.15 55.6 49.25 57 49.25 59.4 50.8 60.65 51.85 61.45 53.25 61.55 54.4 61.7 55.85 61.25 59.3 60.4 61.05 58.1
M 74.1 57.2
L 73.6 58.15
Q 73.3 58.7 73.2 59.25
L 73.2 59.95
Q 73.1 61.45 73.5 62.5
L 74.35 64.3
Q 74.7 64.95 75.35 65.15 76.05 65.4 76.6 65 76.9 64.85 77.4 64.35
L 78.25 63.85
Q 78.65 63.65 79 63 80.05 61.1 79.8 59
L 79.6 58.1 79.1 57.25
Q 78.6 56.35 78.5 56.25 78.3 56 77.7 55.7 76.8 55.35 76.4 55.4 75.95 55.45 75.25 55.95 74.6 56.45 74.1 57.2
M 101.25 59.25
Q 101.85 58.15 101.7 56.8 101.5 55.45 100.7 54.4 99.4 52.5 96.6 51.5 95.3 51.05 94.6 51.05 93.65 50.95 92.4 51.5 90.2 52.3 89.75 53.75 89.55 54.2 89.55 54.85 89.45 56.05 89.6 56.75 89.75 57.6 90.55 58.6 91.3 59.4 91.9 59.75 92.2 59.95 93.4 60.65
L 95 61.5
Q 95.95 61.75 97.25 61.65 100.15 61.4 101.25 59.25 Z"/>
</g>
</defs>

<g transform="matrix( 1, 0, 0, 1, 0,0) ">
<use xlink:href="#Layer0_0_FILL"/>
</g>
</svg>
