
<svg xmlns="http://www.w3.org/2000/svg" version="1.1" xmlns:xlink="http://www.w3.org/1999/xlink" preserveAspectRatio="none" x="0px" y="0px" width="300px" height="300px" viewBox="0 0 300 300">
<defs>
<g id="olivia_0_Layer2_0_FILL">
<path fill="#2F4033" stroke="none" d="
M 222.6 45.55
Q 219.25 41.05 215.2 37.35 207.75 30.55 199.75 24.55 192.7 19.35 184.8 15.55 176.95 11.65 168 9.05 159.6 6.45 151.1 4.7
L 151.15 4.75
Q 143.95 3 136.6 2 121 -0.15 105.2 0 90.55 0.15 76.35 3.65 60.15 7.75 45.95 16.45 38.8 20.85 32.6 26.5 23.1 34.95 15.8 45.3 11.45 51.5 8.2 58.35 4.6 65.9 2.55 74.05 0.35 82.6 0 91.9 0 92 0.1 92.1 0.1 92.15 0.2 92.25
L 0.5 92.55
Q -0.05 97.9 0.55 103.05 1.15 108.85 2.2 114.4 2.85 118.2 3.45 122.2 4.15 126.8 4.55 131.6 4.55 131.8 4.75 131.95
L 5.2 132.3
Q 6.9 141.05 6.2 149.95 5.4 159.45 4.2 168.75 2.85 179.15 1.9 189.75 1.6 193.25 1.4 196.85 1.4 196.95 1.45 197.05 1.5 197.15 1.6 197.3 4.5 199.9 8.7 201.1
L 8.65 201.1
Q 11.2 201.9 13.8 202.5 15.85 203 17.85 203.25
L 17.9 203.25
Q 20.75 203.35 23.65 203.7 25.85 204.2 27.5 202.6 28.5 201.6 29.35 200.5
L 30.1 202.5
Q 28.15 208.55 27.6 214.9 27.1 220.9 29.3 226.35 31.05 230.75 34.4 234.15 36.5 236.3 39 238.2 45.05 243.05 52.85 243.7
L 52.9 243.7
Q 58.2 243.85 62.95 243.15
L 62.2 246.4
Q 60.85 247.65 59.95 249.5 58.95 251.45 60.25 253.2 63.3 257.2 68.65 257.5 74.1 258.3 79.85 258.45 91.05 258.75 102.1 258.9 110.15 259.05 118.35 258.5 121.7 258.2 125 257.9
L 125.05 257.9
Q 142.65 259.1 160.25 257.35
L 160.3 257.35
Q 168 256.35 175.95 256.25 177.8 256.25 179.65 256.2 181.7 256.1 183.1 254.85 185.1 253.05 184.5 250.55 183.75 247.55 181.65 245.7 178.45 242.8 175.05 240.2 175.1 239.5 175.15 238.8 175.4 236.25 173.15 235.1
L 173.15 235.15
Q 171.45 234.1 169.55 233.35 168.15 232.75 167 232 165.3 230.9 163.45 229.9 162.6 229.4 162 228.9
L 161.95 228.85
Q 159.1 226.7 157.1 223.7 156.45 222.65 156.2 221.6 155.95 219.75 156.25 217.95 165.05 216.7 173.9 215.9
L 173.95 215.9
Q 178.7 215.25 183.2 214.15
L 183.15 214.15
Q 190.1 212.55 196.9 210.7 199.75 209.85 202.05 208.5 202.25 208.35 202.3 208.2 202.3 208.1 202.3 208.05 203.35 207.45 204.2 206.55 206 204.7 207.6 202.55
L 207.65 202.5
Q 207.85 202.1 208.05 201.75
L 208.05 201.7
Q 208.4 201.05 208.65 200.4 208.7 200.55 208.8 200.8 209.4 202.95 211.3 203.55 212.3 203.85 213.25 203.55
L 213.25 203.5
Q 217.45 201.65 221.8 199.4 223.35 198.5 224.45 196.95 225.6 195.3 224.75 193.45 220.6 184.3 219.85 173.7 219.25 164.25 221.7 155.25 224.3 145.7 226.45 136.1 228.6 126.4 230.6 116.7 232.35 108.2 233.75 99.9 235.35 90.3 234.95 80.55 234.65 71.3 231.5 62.35 228.3 53.3 222.6 45.55
M 100.9 162.2
Q 100.95 162.2 101 162.25 100.85 162.45 100.85 162.55
L 100.75 162.55 100.85 162.1 100.9 162.2 Z"/>
</g>

<g id="olivia_0_Layer1_0_FILL">
<path fill="#2F4033" stroke="none" d="
M 222.2 45.9
Q 218.85 41.4 214.8 37.7 207.45 31 199.45 25 192.45 19.8 184.55 16.05 176.75 12.15 167.85 9.5 159.45 6.95 151 5.25 143.85 3.55 136.5 2.55 120.95 0.4 105.2 0.55 90.6 0.65 76.45 4.15 60.35 8.25 46.2 16.85 39.15 21.3 32.95 26.85 23.45 35.3 16.25 45.55 11.9 51.75 8.65 58.55 5.1 66.1 3 74.15 2.5 76.3 2.1 78.5 0.75 85.05 0.55 91.9
L 1 92.35
Q 0.5 97.8 1.1 103 1.65 108.75 2.7 114.3 3.4 118.1 3.95 122.1 4.65 126.75 5.1 131.55
L 5.65 132.05
Q 7.45 140.95 6.7 150 5.9 159.5 4.7 168.8 3.4 179.2 2.45 189.8 2.15 193.3 1.9 196.85 4.75 199.45 8.8 200.6 11.35 201.4 13.9 201.95 15.95 202.5 17.9 202.7 20.8 202.8 23.7 203.2 25.7 203.6 27.15 202.25 28.5 200.9 29.5 199.3
L 30.6 202.45
Q 28.65 208.55 28.15 214.95 27.6 220.8 29.75 226.15 31.5 230.5 34.75 233.75 36.85 235.85 39.3 237.75 45.25 242.5 52.9 243.2 58.6 243.35 63.6 242.45
L 62.65 246.65
Q 61.3 247.85 60.4 249.7 59.55 251.4 60.65 252.85 63.6 256.7 68.7 257 74.15 257.75 79.85 257.9 84.75 258.1 89.55 258.2 95.85 258.3 102.1 258.4 110.15 258.5 118.3 258 121.7 257.65 125 257.4 142.6 258.55 160.2 256.8 167.95 255.8 175.95 255.7 177.8 255.7 179.6 255.65 181.5 255.55 182.75 254.45 184.55 252.85 183.95 250.65 183.3 247.85 181.3 246.1 177.95 243.15 174.5 240.4 174.6 239.6 174.65 238.75 174.85 236.55 172.9 235.55 171.2 234.55 169.35 233.8 167.9 233.25 166.7 232.45 165.05 231.4 163.15 230.35 162.25 229.8 161.65 229.3 158.75 227.1 156.65 223.95 155.9 222.85 155.7 221.65 155.35 219.55 155.85 217.5 164.8 216.2 173.85 215.4 178.6 214.7 183.05 213.6 190 212 196.75 210.2 199.55 209.4 201.75 208 201.65 207.8 201.7 207.75 202.85 207.1 203.8 206.2 205.6 204.35 207.2 202.25 207.4 201.85 207.6 201.5 207.9 200.8 208.25 200 208.35 199.8 208.4 199.6 208.85 199.15 209.3 200.65 209.8 202.55 211.45 203 212.3 203.3 213 203 217.25 201.15 221.55 198.9 222.95 198.1 223.95 196.65 225 195.25 224.3 193.65 220.05 184.4 219.35 173.7 218.7 164.2 221.2 155.1 223.75 145.6 225.9 136 228.1 126.3 230.1 116.6 231.8 108.1 233.25 99.8 234.8 90.25 234.45 80.55 234.15 71.4 230.95 62.5 227.8 53.55 222.2 45.9
M 165.5 15.45
Q 174.9 18 183.65 22.15 192.15 26.1 199.75 31.65 207.05 36.95 212.8 43.9 218.8 51.05 222.9 59.5 225.2 63.9 226.6 68.35 228 72.7 228.4 77.3 228.75 81.9 228.4 86.5 227.3 99.3 224.6 111.9 222.3 122.8 219.9 133.75 217.8 143.25 215.6 152.75 214.3 158.55 213.7 164.55 212.75 174.45 214.65 184.15 215.55 188.7 216.85 193.1
L 213.85 195.3
Q 212.65 193.15 211.9 190.65 211.65 189.85 211 189.3 208.7 187.05 206.35 189.35 205.35 190.4 205 191.75 204.75 192.9 204.45 194.05 204.05 195.5 203.55 196.8 203 198.05 202.6 199.25 202.4 199.85 201.95 200.5 201.25 201.55 200.15 202.25 199.4 202.75 198.05 203.3 194.5 204.9 190.95 206.4 190.8 206.45 190.7 206.55 190 207.45 188.9 207.55 187.05 207.85 185.35 208.3 180.55 209.05 175.8 210.05 172.15 210.7 168.5 211 163.25 211 157.95 211.6 155.5 212 153 211.75 148.9 211 146.65 207.45 142.75 201.1 140.65 194.1
L 141.25 193.4
Q 141.2 193.05 141.15 192.75 140.8 190.15 140.3 187.55 139.65 183.4 139.85 179.4 140.05 174.6 140.85 169.8 141 169.65 141.15 169.45 141.3 169.25 141.5 169.05 141.6 168.85 141.65 168.65 141.7 168.35 141.75 168.05
L 141.75 168
Q 141.7 167.7 141.65 167.45 141.6 167.1 141.5 166.85 142.9 159.8 147.3 154.15 150.1 150.65 153 146.95 157.8 147.8 162.6 147.6 170.6 147.45 178.1 144.6 182.65 143.05 186.15 140 190.45 136.5 193.5 131.9 196.65 127.2 198.6 122.1 200.05 118.35 200.4 114.65 201.25 104.95 199.35 95.3 197.1 84.05 189.75 75.05 183 66.8 172.8 63.7 166.25 61.9 159.6 63 153.9 64.1 148.55 66.45 138.7 71 131.65 79.05 126.2 85.3 123.25 93.3 120.7 94 118.25 94.45 111.85 95.55 105.15 96.35 101.5 96.55 97.95 96.1 97.75 92.45 97.45 88.9 96.8 79.6 92.95 71.1 90.6 65.9 87 61.5 84.55 58.55 81.55 56.15 77.25 52.65 71.9 50.7 66.4 48.6 60.6 49 49 50.2 38.95 56.7 28.35 63.65 22.65 74.85 21.7 76.65 21 78.5 18.05 85.65 17.35 93.5 16.65 101.2 19.35 108.45 22.05 115.75 27.35 121.3 31.05 125.15 35.4 127.8 35.65 130.35 36.85 132.65 41.45 141.3 49.5 147.05 52.25 149 55.1 150.85 59.45 153.6 64.05 155.9
L 56.95 165.55
Q 52.45 166.4 48.9 169.15 48.5 169.5 48.15 169.85 47.6 170.4 47.15 171 44.75 174.5 42.5 178.05 40.85 180.65 39.35 183.3 36.3 188.5 33.8 194.05 33.75 193.5 33.65 192.95 33.6 192.6 33.55 192.3 33.55 192.35 33.55 192.45 33.45 191.8 33.25 191.3 33.05 190.85 32.7 190.55 32.4 190.2 32.05 190 31.8 189.9 31.6 189.85 30.85 189.85 30.25 190.1 28.75 190.4 28.1 191.85 26.7 194.8 25.2 197.7 24.85 198.3 24.6 198.55 24.4 198.6 24.25 198.7 21.55 198.15 18.85 197.7 14.25 196.9 10.05 194.85 11.25 188.4 11.6 181.6 12.15 171.75 12.55 161.9 12.95 151.75 12.7 141.5 12.5 131.95 11.05 122.55 9.65 113.65 8.7 104.65 7.6 94.1 9.15 83.65 9.5 81.1 10.1 78.5 11.55 71.5 14.25 64.9 17.85 55.95 23.35 47.95 28.4 40.55 35.1 34.75 41.95 28.85 49.8 24.35 58.9 19.2 68.6 15.4 77.25 12.2 86.1 10.55 95.95 8.65 106 8.25 116.15 7.5 126.2 8.35 136.15 9.05 145.7 11.05 155.65 13.05 165.5 15.45
M 168.6 69.45
Q 172.15 70.2 175.25 72 171.9 71.2 168.5 72.35 163.25 74.2 158.85 77.35 157.95 78 157.3 78.9 156.5 80.1 157.4 81.35 157.5 81.45 157.65 81.6 159.45 82.65 161.15 81.6 164.8 79.65 167.6 78.3 170.4 77 173.35 77.05 175.75 80.1 176.5 84 177 86.9 177.55 89.75 177.85 91.55 179.85 92.05 182.6 92.5 183.15 89.75 184.3 84.4 182.05 79.65 181.05 77.5 179.7 75.9 178.35 74.3 176.95 73 186.15 78.3 189.65 88.15 193.1 97.85 193.6 108.2 193.8 112.95 192.4 117.4 189.3 127.25 181.45 134.4 178.5 137.05 174.6 138.2 164.45 141.05 154 139.55 144.3 138 137.25 131.35 129.35 124 127.85 113.25 126.3 102.75 130.6 92.9 134.5 83.9 142.15 77.95 149.95 72 159.5 69.65 160.45 69.5 161.45 69.35 165 68.8 168.6 69.45
M 89.55 83.65
Q 90.4 87.2 90.85 90.85 91.75 98.2 89.55 105 88.6 108 87.1 110.85 82.25 119.95 73.25 123.95 68.3 126.1 62.95 126.3 53.2 127.3 44.15 123.85 33.95 119.95 28.75 110.35 23.7 100.95 24.9 90.2 25.6 84.05 28.25 78.5 29.65 75.5 31.7 72.65 37.35 64.85 46.1 60.4 49.5 58.65 53.1 57.3 62.2 53.65 70.95 57.5 72.85 58.6 74.7 59.7 82.4 64.2 85.85 72.3 87.15 75.35 88.15 78.5 89 81.1 89.55 83.65
M 56.35 134
Q 65.2 134.35 73.55 131.75 76.35 130.9 78.8 129.45 85.25 125.85 89.55 120 90.85 118.3 91.9 116.4 93.7 116.15 95.35 115.8 109.15 113.9 121.3 120.3 122.15 122.65 123.25 124.85 130.6 139.25 145.55 145
L 140 151.9 135.1 162.1
Q 134.5 161.85 133.85 161.75 129.95 160.5 125.85 160.05 121 159.5 116.25 158.6 105.85 156.5 95.25 156.25 94.95 155.9 94.7 155.55 93.25 153.55 91.55 151.6 90.7 150.6 89.55 150.2 88.6 149.85 87.55 149.85 84.15 150.55 82.25 153.75
L 70.55 152.55
Q 69.8 152.1 69 151.75 54.25 145.65 45.65 132.3 51 133.75 56.35 134
M 74.1 160.45
Q 77 160.45 79.85 160.9 84.9 161.55 89.55 163.05 89.7 163.05 89.8 163.1 92.75 164.85 95.9 166.05 98.2 167 100.55 167.25 103.05 167.15 105.5 167.6 119.65 170 133.95 169.9 133.15 175.95 133.65 182.05 134.3 190.65 136.2 198.9 137.2 203.05 138.95 207.3 141.95 214.6 149 217.75 148.75 219.55 148.65 221.35 148.6 222.75 149.15 224.15 152.1 231.6 159.5 235.3 159.5 235.35 159.55 235.4 160.2 236.65 161.25 237.3 162.95 238.35 164.8 238.95 160.6 242.15 155.35 243.95 147.05 247.1 138.3 248.45 113.9 252.7 89.55 250.4 79.8 249.45 70.05 247.45
L 70.7 244.95 71.5 244.2 72.7 239.1
Q 81.15 235.2 86.4 227.6 88.15 225.05 89.55 222.45 92.5 216.75 93.9 210.4 96 200.55 96.8 190.5 96.9 188.95 95.85 187.95 95.3 187.5 94.7 187.4 90.3 186.7 89.55 191.25 88.9 195.15 88.45 198.85 87.35 208.6 84.25 217.7 80.9 227.65 71.4 232.25 66.7 234.2 61.65 235.25 56.3 236.25 50.95 234.55 44.8 232.7 40.4 228.1 35.7 223.15 36.05 216.45 36.65 203.45 42.9 191.75 43.35 193.65 43.8 195.7 44.6 199.1 46.75 201.6 45.6 206.8 46.55 211.9 46.95 214.05 48.25 214.75 52.6 204.9 54.95 194.45 57.15 184.5 60.95 175 62.55 170.9 64.45 166.9 67 161.6 72.45 159.85 73.25 160.1 74.1 160.45
M 49.45 184.35
Q 49.55 182.35 50.45 180.7 52.1 177.9 52.4 174.65
L 53.3 173.95 52.2 177.05 49.35 188.15
Q 49.35 186.2 49.45 184.35
M 119.9 111.7
L 111.8 109.35
Q 104.1 107.35 96.1 108.2
L 97.55 102.55 121.05 100.2 119.9 111.7
M 103.45 162.6
Q 105.9 163.15 108.4 163.5 116.8 163.95 125.15 163.95
L 125.6 164.45
Q 126.45 164.55 127.35 164.65 130.65 164.8 133 166.55 129 166.9 125 166.65 119.4 166.4 113.9 165.7 106.9 165.5 101 162.15 100.1 162.3 100.7 162 100.8 162 101 162.15 102.2 162.4 103.45 162.6
M 87.4 154.25
L 90.05 156.55 86.4 154.95 87.4 154.25
M 169.2 245.25
L 174.2 249.7 152.05 251.6 163.65 247.8 169.2 245.25
M 38.65 89.45
Q 37.1 91.15 37.5 93.45 38.4 98.3 43.3 98.4 44.5 98.4 45.6 98.05 53.1 95.4 61.2 94.45 57.3 99.35 59.4 105 61.45 110.25 67 112.45 73.85 115.3 80.75 112.5 85.25 110.75 86.6 106.15 88.4 100.1 84.6 94.75 81.25 90.05 75.6 88.35 71.55 87.1 67.45 87.2 57.1 86.5 47.25 89.85
L 44.55 90.4
Q 44.25 89.35 43.5 88.9 40.95 87 38.65 89.45
M 184.35 120.1
Q 188.15 119.6 189.55 116.1 189.95 115.1 189.5 114.05 187.5 109.65 182.75 111.95
L 182.35 111.25
Q 180.4 108.8 177.75 107.3 163.55 99.8 147.25 101.15 145.05 101.25 143.4 102.5 140.1 105.1 142.65 108.05 143.05 108.55 143.65 108.55 151.85 108.45 160.3 108.8 157.95 111.05 156.8 114.1 155.5 117.7 157.65 121.35 160.6 126.45 166.45 128.8 174 131.8 180.35 126.9 183.8 124.2 184.35 120.1 Z"/>

<path fill="#93A120" stroke="none" d="
M 174.2 249.7
L 169.2 245.25 163.65 247.8 152.05 251.6 174.2 249.7
M 45.1 151.8
Q 46.2 156 46.9 160.6 47 160.95 47.4 163.85
L 48.15 169.85
Q 48.5 169.5 48.9 169.15 52.45 166.4 56.95 165.55
L 64.05 155.9
Q 59.45 153.6 55.1 150.85 52.05 150.55 49.5 150.45 47.5 150.45 46.6 150.7 45.9 151 45.1 151.8 Z"/>

<path fill="#996699" stroke="none" d="
M 90.05 156.55
L 87.4 154.25 86.4 154.95 90.05 156.55 Z"/>

<path fill="#F4F9CB" stroke="none" d="
M 108.4 163.5
Q 105.9 163.15 103.45 162.6 102.2 162.4 101 162.15 106.9 165.5 113.9 165.7 119.4 166.4 125 166.65 129 166.9 133 166.55 130.65 164.8 127.35 164.65 126.45 164.55 125.6 164.45
L 125.15 163.95
Q 116.8 163.95 108.4 163.5
M 79.85 160.9
Q 77 160.45 74.1 160.45 73.25 160.1 72.45 159.85 67 161.6 64.45 166.9 62.55 170.9 60.95 175 57.15 184.5 54.95 194.45 52.6 204.9 48.25 214.75 46.95 214.05 46.55 211.9 45.6 206.8 46.75 201.6 44.6 199.1 43.8 195.7 43.35 193.65 42.9 191.75 36.65 203.45 36.05 216.45 35.7 223.15 40.4 228.1 44.8 232.7 50.95 234.55 56.3 236.25 61.65 235.25 66.7 234.2 71.4 232.25 80.9 227.65 84.25 217.7 87.35 208.6 88.45 198.85 88.9 195.15 89.55 191.25 90.3 186.7 94.7 187.4 95.3 187.5 95.85 187.95 96.9 188.95 96.8 190.5 96 200.55 93.9 210.4 92.5 216.75 89.55 222.45 88.15 225.05 86.4 227.6 81.15 235.2 72.7 239.1
L 71.5 244.2 70.7 244.95 70.05 247.45
Q 79.8 249.45 89.55 250.4 113.9 252.7 138.3 248.45 147.05 247.1 155.35 243.95 160.6 242.15 164.8 238.95 162.95 238.35 161.25 237.3 160.2 236.65 159.55 235.4 159.5 235.35 159.5 235.3 152.1 231.6 149.15 224.15 148.6 222.75 148.65 221.35 148.75 219.55 149 217.75 141.95 214.6 138.95 207.3 137.2 203.05 136.2 198.9 134.3 190.65 133.65 182.05 133.15 175.95 133.95 169.9 119.65 170 105.5 167.6 103.05 167.15 100.55 167.25 98.2 167 95.9 166.05 92.75 164.85 89.8 163.1 89.7 163.05 89.55 163.05 84.9 161.55 79.85 160.9
M 90.85 90.85
Q 90.4 87.2 89.55 83.65 89 81.1 88.15 78.5 87.15 75.35 85.85 72.3 82.4 64.2 74.7 59.7 72.85 58.6 70.95 57.5 62.2 53.65 53.1 57.3 49.5 58.65 46.1 60.4 37.35 64.85 31.7 72.65 29.65 75.5 28.25 78.5 25.6 84.05 24.9 90.2 23.7 100.95 28.75 110.35 33.95 119.95 44.15 123.85 53.2 127.3 62.95 126.3 68.3 126.1 73.25 123.95 82.25 119.95 87.1 110.85 88.6 108 89.55 105 91.75 98.2 90.85 90.85
M 37.5 93.45
Q 37.1 91.15 38.65 89.45 40.95 87 43.5 88.9 44.25 89.35 44.55 90.4
L 47.25 89.85
Q 57.1 86.5 67.45 87.2 71.55 87.1 75.6 88.35 81.25 90.05 84.6 94.75 88.4 100.1 86.6 106.15 85.25 110.75 80.75 112.5 73.85 115.3 67 112.45 61.45 110.25 59.4 105 57.3 99.35 61.2 94.45 53.1 95.4 45.6 98.05 44.5 98.4 43.3 98.4 38.4 98.3 37.5 93.45
M 175.25 72
Q 172.15 70.2 168.6 69.45 165 68.8 161.45 69.35 160.45 69.5 159.5 69.65 149.95 72 142.15 77.95 134.5 83.9 130.6 92.9 126.3 102.75 127.85 113.25 129.35 124 137.25 131.35 144.3 138 154 139.55 164.45 141.05 174.6 138.2 178.5 137.05 181.45 134.4 189.3 127.25 192.4 117.4 193.8 112.95 193.6 108.2 193.1 97.85 189.65 88.15 186.15 78.3 176.95 73 178.35 74.3 179.7 75.9 181.05 77.5 182.05 79.65 184.3 84.4 183.15 89.75 182.6 92.5 179.85 92.05 177.85 91.55 177.55 89.75 177 86.9 176.5 84 175.75 80.1 173.35 77.05 170.4 77 167.6 78.3 164.8 79.65 161.15 81.6 159.45 82.65 157.65 81.6 157.5 81.45 157.4 81.35 156.5 80.1 157.3 78.9 157.95 78 158.85 77.35 163.25 74.2 168.5 72.35 171.9 71.2 175.25 72
M 189.55 116.1
Q 188.15 119.6 184.35 120.1 183.8 124.2 180.35 126.9 174 131.8 166.45 128.8 160.6 126.45 157.65 121.35 155.5 117.7 156.8 114.1 157.95 111.05 160.3 108.8 151.85 108.45 143.65 108.55 143.05 108.55 142.65 108.05 140.1 105.1 143.4 102.5 145.05 101.25 147.25 101.15 163.55 99.8 177.75 107.3 180.4 108.8 182.35 111.25
L 182.75 111.95
Q 187.5 109.65 189.5 114.05 189.95 115.1 189.55 116.1 Z"/>

<path fill="#EBC69F" stroke="none" d="
M 111.8 109.35
L 119.9 111.7 121.05 100.2 97.55 102.55 96.1 108.2
Q 104.1 107.35 111.8 109.35
M 50.45 180.7
Q 49.55 182.35 49.45 184.35 49.35 186.2 49.35 188.15
L 52.2 177.05 53.3 173.95 52.4 174.65
Q 52.1 177.9 50.45 180.7
M 73.55 131.75
Q 65.2 134.35 56.35 134 51 133.75 45.65 132.3 54.25 145.65 69 151.75 69.8 152.1 70.55 152.55
L 82.25 153.75
Q 84.15 150.55 87.55 149.85 88.6 149.85 89.55 150.2 90.7 150.6 91.55 151.6 93.25 153.55 94.7 155.55 94.95 155.9 95.25 156.25 105.85 156.5 116.25 158.6 121 159.5 125.85 160.05 129.95 160.5 133.85 161.75 134.5 161.85 135.1 162.1
L 140 151.9 145.55 145
Q 130.6 139.25 123.25 124.85 122.15 122.65 121.3 120.3 109.15 113.9 95.35 115.8 93.7 116.15 91.9 116.4 90.85 118.3 89.55 120 85.25 125.85 78.8 129.45 76.35 130.9 73.55 131.75 Z"/>

<path fill="#3C690B" stroke="none" d="
M 38.2 161.65
Q 38.05 162.6 38.8 164.8 41.35 171.5 42.5 178.05 44.75 174.5 47.15 171 47.6 170.4 48.15 169.85
L 47.4 163.85
Q 47 160.95 46.9 160.6 46.2 156 45.1 151.8 44.4 152.35 43.7 153.3 43.7 153.35 39.6 158.75 38.3 160.65 38.2 161.65 Z"/>

<path fill="#56564A" stroke="none" d="
M 183.65 22.15
Q 174.9 18 165.5 15.45 155.65 13.05 145.7 11.05 136.15 9.05 126.2 8.35 116.15 7.5 106 8.25 95.95 8.65 86.1 10.55 77.25 12.2 68.6 15.4 58.9 19.2 49.8 24.35 41.95 28.85 35.1 34.75 28.4 40.55 23.35 47.95 17.85 55.95 14.25 64.9 11.55 71.5 10.1 78.5 9.5 81.1 9.15 83.65 7.6 94.1 8.7 104.65 9.65 113.65 11.05 122.55 12.5 131.95 12.7 141.5 12.95 151.75 12.55 161.9 12.15 171.75 11.6 181.6 11.25 188.4 10.05 194.85 14.25 196.9 18.85 197.7 21.55 198.15 24.25 198.7 24.4 198.6 24.6 198.55 24.85 198.3 25.2 197.7 26.7 194.8 28.1 191.85 28.75 190.4 30.25 190.1 30.85 189.85 31.6 189.85 31.8 189.9 32.05 190 32.4 190.2 32.7 190.55 33.05 190.85 33.25 191.3 33.45 191.8 33.55 192.45 33.55 192.35 33.55 192.3 33.6 192.6 33.65 192.95 33.75 193.5 33.8 194.05 36.3 188.5 39.35 183.3 40.85 180.65 42.5 178.05 41.35 171.5 38.8 164.8 38.05 162.6 38.2 161.65 38.3 160.65 39.6 158.75 43.7 153.35 43.7 153.3 44.4 152.35 45.1 151.8 45.9 151 46.6 150.7 47.5 150.45 49.5 150.45 52.05 150.55 55.1 150.85 52.25 149 49.5 147.05 41.45 141.3 36.85 132.65 35.65 130.35 35.4 127.8 31.05 125.15 27.35 121.3 22.05 115.75 19.35 108.45 16.65 101.2 17.35 93.5 18.05 85.65 21 78.5 21.7 76.65 22.65 74.85 28.35 63.65 38.95 56.7 49 50.2 60.6 49 66.4 48.6 71.9 50.7 77.25 52.65 81.55 56.15 84.55 58.55 87 61.5 90.6 65.9 92.95 71.1 96.8 79.6 97.45 88.9 97.75 92.45 97.95 96.1 101.5 96.55 105.15 96.35 111.85 95.55 118.25 94.45 120.7 94 123.25 93.3 126.2 85.3 131.65 79.05 138.7 71 148.55 66.45 153.9 64.1 159.6 63 166.25 61.9 172.8 63.7 183 66.8 189.75 75.05 197.1 84.05 199.35 95.3 201.25 104.95 200.4 114.65 200.05 118.35 198.6 122.1 196.65 127.2 193.5 131.9 190.45 136.5 186.15 140 182.65 143.05 178.1 144.6 170.6 147.45 162.6 147.6 157.8 147.8 153 146.95 150.1 150.65 147.3 154.15 142.9 159.8 141.5 166.85 141.6 167.1 141.65 167.45 141.7 167.7 141.75 168
L 141.75 168.05
Q 141.7 168.35 141.65 168.65 141.6 168.85 141.5 169.05 141.3 169.25 141.15 169.45 141 169.65 140.85 169.8 140.05 174.6 139.85 179.4 139.65 183.4 140.3 187.55 140.8 190.15 141.15 192.75 141.2 193.05 141.25 193.4
L 140.65 194.1
Q 142.75 201.1 146.65 207.45 148.9 211 153 211.75 155.5 212 157.95 211.6 163.25 211 168.5 211 172.15 210.7 175.8 210.05 180.55 209.05 185.35 208.3 187.05 207.85 188.9 207.55 190 207.45 190.7 206.55 190.8 206.45 190.95 206.4 194.5 204.9 198.05 203.3 199.4 202.75 200.15 202.25 201.25 201.55 201.95 200.5 202.4 199.85 202.6 199.25 203 198.05 203.55 196.8 204.05 195.5 204.45 194.05 204.75 192.9 205 191.75 205.35 190.4 206.35 189.35 208.7 187.05 211 189.3 211.65 189.85 211.9 190.65 212.65 193.15 213.85 195.3
L 216.85 193.1
Q 215.55 188.7 214.65 184.15 212.75 174.45 213.7 164.55 214.3 158.55 215.6 152.75 217.8 143.25 219.9 133.75 222.3 122.8 224.6 111.9 227.3 99.3 228.4 86.5 228.75 81.9 228.4 77.3 228 72.7 226.6 68.35 225.2 63.9 222.9 59.5 218.8 51.05 212.8 43.9 207.05 36.95 199.75 31.65 192.15 26.1 183.65 22.15 Z"/>
</g>

<g id="olivia_0_Layer0_0_FILL">
<path fill="#E2B586" stroke="none" d="
M 116.4 133.4
Q 116.4 133.6 116.2 133.6 115.3 133.55 114.6 134.15 113.85 134.75 113.65 135.65 113.35 136.65 113.9 137.65 114.4 138.65 115.4 139 116.4 139.35 117.45 138.9 118.5 138.5 118.95 137.55 119.6 136.1 118.75 134.85 118 133.6 116.4 133.4
M 85.15 133.65
Q 84.05 133.85 83.6 135.25 83.45 136.05 83.65 136.65 83.95 137.35 84.6 137.8 86 138.6 87.25 137.6 87.85 137.15 88.05 136.4 88.25 135.75 88 135.05 87.8 134.35 87.2 133.95 86.6 133.55 85.9 133.5 86 133.6 85.65 133.6
L 85.15 133.65
M 135.7 143.1
Q 134.3 143.2 133.6 144.35 133.15 145 133.15 146
L 133.35 146.85
Q 133.8 147.75 134.75 148.2 135.7 148.65 136.65 148.35 137.6 148.1 138.15 147.2 138.7 146.3 138.55 145.3 138.3 144.35 137.55 143.7 136.7 143.05 135.7 143.1
M 126.45 144.15
Q 126.05 143.05 124.85 142.95
L 124.85 143.05
Q 124.2 143.05 123.9 143.2
L 123.55 143.55
Q 123.25 143.85 123.2 143.9
L 123.05 144.5
Q 123 144.95 123.05 145.3 123.2 145.75 123.55 145.95
L 124 146.3
Q 125.1 146.85 125.95 146.1 126.9 145.35 126.45 144.15
M 126.95 134.9
Q 126.25 134.3 125.35 134.25 125.45 134.4 125.15 134.4 124.75 134.35 124.25 134.55 123.75 134.75 123.3 135.25 122.8 135.95 122.8 136.85 122.8 137.8 123.3 138.5 123.85 139.15 124.75 139.35 125.65 139.55 126.4 139.15 127.15 138.8 127.6 138 128 137.15 127.85 136.3 127.65 135.5 126.95 134.9
M 68 141.85
Q 67.95 141.1 67.3 140.55 66.65 140 65.9 139.95 65.7 140.05 65.3 140.05 64.2 140.15 63.75 141.5 63.55 142.25 63.9 143 64.15 143.75 64.95 144.1 65.65 144.5 66.4 144.2 67.15 144 67.6 143.3 68.1 142.65 68 141.85
M 74.25 134.05
Q 73.85 134.8 73.95 135.6 74.1 136.85 75.2 137.4 75.85 137.8 76.6 137.7 77.4 137.65 77.95 137.15 78.5 136.65 78.75 135.9 78.95 135.15 78.65 134.5 78.45 133.8 77.8 133.3 77.15 132.85 76.4 132.85 74.95 132.85 74.25 134.05
M 59.75 138
Q 59.05 136.75 57.45 136.6 57.45 136.75 57.25 136.75 56.35 136.7 55.6 137.3 54.9 137.9 54.65 138.8 54.4 139.8 54.95 140.8 55.45 141.8 56.45 142.15 57.45 142.55 58.5 142.05 59.55 141.65 60 140.7 60.6 139.25 59.75 138 Z"/>

<path fill="#F4F9CB" stroke="none" d="
M 251.7 30.25
Q 250.5 27.8 246.95 24.3 240.7 17.85 236.1 13.85 229.9 8.4 224.05 4.7 219 1.5 215.2 0.55 209.55 -0.75 205.5 1.45 201.6 3.45 200.45 7.3 198.95 11.5 201.3 15.9 203.1 19.65 207.35 22.25 210.25 24.05 211.9 22.85 212.9 22.2 212.9 20.85 213 19.6 212.4 18.45 211.85 17.5 210.85 16.55 209.65 15.5 209 14.9 206.75 12.7 206.9 10.65 207.05 9.5 208 8.55 208.9 7.65 210.1 7.35 212.05 6.75 214.9 7.75 218.05 8.8 222.7 12.35 233.9 20.85 244.2 31.75 245.1 32.7 245.15 33.5 245.45 34.75 243.75 36.05 240.85 38 237.15 37.35 234.1 36.85 230.9 34.5 225.8 30.7 223.6 24.85 224.85 24.5 226.3 25.4 227.1 26 228.45 27.4 230.3 29.5 232.25 30.95 234.5 32.65 236 32.25 237 32 237.55 30.95 238.1 29.8 237.85 28.65 237.6 27.1 235.7 24.9 233.25 22.2 230.4 20 227.95 18 225.95 17.6 223.95 17.2 221.4 18.05 218.2 19.15 217.05 21.1 215.8 23.3 217.05 27.15 218.95 32.75 223.5 37.25 227.85 41.55 233.65 43.65 237.45 45.1 240.25 44.8 242.7 44.55 246.5 42.45 248.6 41.2 249.75 40.4 251.4 39.05 252.15 37.55 253.65 34.25 251.7 30.25 Z"/>
</g>
</defs>

<g transform="matrix( 1, 0, 0, 1, 34.5,20.2) ">
<g transform="matrix( 1, 0, 0, 1, 0,0) ">
<use xlink:href="#olivia_0_Layer2_0_FILL"/>
</g>

<g transform="matrix( 1, 0, 0, 1, 0,0) ">
<use xlink:href="#olivia_0_Layer1_0_FILL"/>
</g>

<g transform="matrix( 1, 0, 0, 1, 0,0) ">
<use xlink:href="#olivia_0_Layer0_0_FILL"/>
</g>
</g>
</svg>
