
<svg xmlns="http://www.w3.org/2000/svg" version="1.1" xmlns:xlink="http://www.w3.org/1999/xlink" preserveAspectRatio="none" x="0px" y="0px" width="150px" height="150px" viewBox="0 0 150 150">
<defs>
<g id="Layer0_0_FILL">
<path fill="#FFFFFF" stroke="none" d="
M 52.5 134
Q 52.45 134.15 52.45 134.9 53.05 141.55 56.05 153.4
L 57.85 160.7
Q 59.45 166.7 60.15 168.65 61.3 171.85 61.5 172.85 61.85 174.2 62.45 174.4 62.8 173.9 62.8 172.8 62.9 170.6 62.2 166.2 59.6 149.85 56.95 140.85 56.05 138.05 55.4 136.75 55.25 136.4 53.8 134.05 53.45 133.6 53.2 133.55 52.8 133.5 52.5 134
M 134.8 29.45
Q 131.45 24.15 127.45 20.65 122.3 16.1 114.45 12.95 109.35 10.9 99.85 8.35 92.95 6.45 88.95 5.8 84.35 5.05 78.05 4.95 63.95 4.85 52.9 8.45 52.85 8.45 52.8 8.45 39.7 10.25 29 17.65 22.25 22.4 17.6 28.45 9.9 38.55 7.15 53.7 6 59.85 5.55 67.4 5.25 72.85 5.25 81.2 5.25 92.15 5.85 114.05 5.95 118.55 6.25 121.8 6.35 122.55 6.5 123.2 6.2 123.45 6.1 123.85 5.95 124.35 6.25 125.1 7.35 128.35 10.65 130.95 11.85 131.95 13.65 133.15 14.7 133.85 16.75 135.15 20.2 137.55 21.8 138 22.7 138.3 23.2 137.95 23.55 137.75 23.85 137 24.15 136.25 24.45 136.05 24.65 136.85 24.9 137.55 24.8 137.7 24.7 137.95 24.4 138.7 24.6 139.5 24.8 140.35 25.4 140.9 25.85 141.3 26.65 141.65 26.85 141.75 27.1 141.85 27.2 142.05 27.4 142.2 27.35 142.1 27.4 142 28.4 142.5 28.85 142.6 29.7 142.8 31.45 143.05
L 32.45 143.35
Q 33.7 143.65 34.9 143.35 35.15 146.2 35.6 149.2 36.9 158.45 40.6 172.7 41.25 175.1 41.8 176.25 42.7 178.15 44.1 179.05 44.4 179.2 44.5 179.15 44.55 179.15 44.8 178.9 46.7 175.85 45.6 169.9 45.1 166.75 43.85 161.95 42.2 155.3 41.9 154 38.7 139.65 40.05 125.65 40.45 121.8 41.65 120.05 42.3 119.15 43.35 118.45 47.4 117.5 51.55 117.5 51.6 117.5 51.7 117.5 52.1 117.5 52.55 117.5 54.4 117.5 58.05 117.15
L 58.3 117.15
Q 58.7 118.3 60 119.65 64.65 124.6 71.05 127.05 71 127.2 71 127.4 70.95 128.9 71.35 130.8 71.55 131.55 72.3 134.2 73.75 139 75.2 146.1 76 150.1 77.6 158.1 78.25 160.95 78.8 162.5 79.15 163.45 79.9 165.25 80.5 166.85 80.6 168 82.25 163.6 82 159.1 81.8 155.75 80.45 150.9 80.3 150.3 80.15 149.8 81.5 150.95 83.05 151.75 83.4 151.9 83.95 152.15 83.95 152.55 83.95 152.9 84 154.75 84.5 155.8 84 156.7 84.65 157.6 85 158 85.8 158.4 89.15 159.95 94.4 160.3 95.6 160.4 98.1 160.5 102 160.7 104.05 160.65 105.2 160.55 105.55 160.4 106.35 160.15 106.65 159.5
L 107.4 159.5
Q 109.1 159.6 110 159.2 110.95 159.8 112.65 160.55 120.95 163.9 126.5 164.2 130.25 164.35 133.6 163.25 137.25 162.1 139.65 159.6 141.8 157.4 142.85 154.25 143.85 151.25 143.65 148 143.3 142.15 139.3 136.3 135.65 130.95 130.1 127.55 128.1 126.4 127.1 125.8 125.6 124.95 124.6 124.15 124.9 124.1 125.3 124.1
L 128.75 123.95
Q 130.3 123.8 133.4 123 136.15 122.25 136.7 122.05 138.5 121.25 139.7 120.35 140.05 120.1 140.35 119.85 140.7 119.75 141.05 119.55 142.15 118.95 142.6 117.4 142.85 116.5 142.85 114.65 142.9 111.9 143.2 107.05 143.55 101.6 143.6 99.45 143.8 92.45 142.75 87.25 143.25 81 143.75 71.3 144.5 57.15 143.7 51.3 142.85 45.4 140.25 39.65 137.45 33.55 134.8 29.45
M 123 22
Q 129.5 27.1 134.3 38.1 137.4 44.9 138.7 51.15 140 57.15 140.05 64.85 140.05 69.25 139.55 78.65 139.35 81.75 139.1 83.75 139 93.95 137.25 115.95 137.25 116.3 137.25 116.6 132.25 118.8 124.35 120 123.8 120.1 123.4 120.25 123.75 119.85 124.15 119.5 124.3 118.85 124.65 118.05 125.85 116.65 126.3 115.8
L 126.95 114.65
Q 127.5 113.6 128.8 111.6
L 129.35 110.7 130.25 109.7 131.5 107.85
Q 131.75 107.5 131.7 107.15 132.2 106.5 132.95 105.7 132.8 105.65 132.65 105.65 129.05 105.35 126.1 105.45 122.15 104.8 116.7 104.75 108.1 104.65 100.4 105.1 98.55 105.2 97.75 105.65 96.75 106.15 95.8 107.95 95 107.05 93.45 106.3 92.15 105.6 91.15 105.35 104.4 101 115.1 92.25 117.75 90.05 119.1 88.35 120.4 86.75 121.75 84.05 124.55 78.75 124.85 74.85 125.15 72.2 123.7 71.15 123.6 71.1 123.55 71.05 123.75 70.85 123.95 70.65 129.2 65.5 129.6 60 129.85 56.95 128.55 53.95 127.3 51.1 124.95 48.95 120.75 44.95 113.9 43.7 105.3 42.05 98.25 45.5 94.65 47.25 92.15 50.25 89.5 53.4 88.75 57.1 88 61.25 89.7 66.35
L 89.65 66.35
Q 89.5 66.25 89.4 66.2 88.7 65.8 87.35 65.9 81.3 66 79.75 66.2 78.05 66.5 77.2 66.65 75.65 66.9 74.6 66.95 72.4 67.1 72 67.15 70.25 67.75 69.35 67.9 69.55 65.65 69.2 63.45 68.35 58.5 64.8 54.35 62.85 52.1 60.85 51 57.1 48.8 51.35 49 45.6 49.2 40.1 51.35 34.65 53.5 30.3 57.25 28 59.2 26.8 61.2 25.2 63.85 25.1 67.25 25 70.35 26.2 73.35 25.95 73.35 25.75 73.4 24.6 73.8 24 74 23.9 74.05 22.25 74.45 21.8 74.6 19.45 75.35 17.25 76.2 16.55 77.05 15.75 77.9 15.85 79.1 15.95 80.35 16.9 81 17.85 81.65 19.35 81.4 19.85 81.3 21.75 80.55 23.95 79.6 28.55 78.3 28.85 78.25 29.15 78.15 29.75 78.85 30.45 79.55 34.55 83.3 40.8 84.45 41.05 84.5 41.3 84.55 41.2 85 41.15 85.35 40.9 86.85 41.1 89.35 41.55 96.2 43.05 105.9 43.5 108.95 44.3 113.7 43.25 113.75 42.3 113.85 42.6 114.15 42.8 114.45 42.85 114.55 42.9 114.65 42.6 114.7 42.3 114.8 39.45 115.7 37.85 117.45 35.7 119.75 35 125.35 34.25 131.5 34.55 138.4
L 33.9 138.45
Q 33.15 138.5 32.1 138.25 30.4 137.95 29.55 137.35 28.65 136.55 28.15 136.3 27.8 136.2 27.4 136.15 27.4 135.75 27.45 135.3 27.2 134.4 27.05 133.45 26.75 131.9 26.25 131.35 25.85 130.9 25.25 130.8 24.55 130.7 24.2 131.15 23.95 131.5 23.9 132.1 23.9 132.45 23.85 133.1 23.7 133.95 22.55 135.1 17.75 131.7 15.45 129.9 11.4 126.85 9.05 123.95 8.2 102.5 11.45 57.15 12.15 51.65 14.85 44.05 17.65 36.15 22.8 29.7 28.05 23.05 35.05 18.85 36 18.25 37.1 17.7 37.35 17.65 37.75 17.5 41.05 15.75 44.55 14.4 47.65 13.15 50.95 12.2 55.65 10.8 60.75 9.95 72.55 7.95 85.3 9.1 88.25 9.35 94.15 10.15 99.2 10.85 101.65 11.5 105.15 12.4 109.2 14.2 112.05 15.5 116.45 17.9 121.05 20.5 123 22
M 105.8 47.15
Q 111.95 46.5 116.7 48.2 122.4 50.25 125 55 126.15 56.95 126.2 58.9 126.25 60.75 125.3 63.05 124.3 65.4 123.05 66.9 122.35 67.75 120.65 69.25 119 70.8 117.9 71.4 116.7 72.1 113.8 72.95 109.55 74.1 107.2 74.35 103.5 74.7 100.75 73.6 99.5 73.15 97.8 72.05 96.3 71.15 95.7 70.5 94.95 69.7 94.35 68.2 93.15 65.6 92.75 63.55 91.9 59.35 93.5 55.45 95.2 51.15 98.95 49.05 101.7 47.5 105.8 47.15
M 90.15 68.85
Q 90.35 68.75 90.55 68.65 91.6 71.15 92.85 72.55 94.35 74.2 97.7 75.8 100.85 77.3 103.1 77.75 106.1 78.3 109.7 77.55 112.35 77 116.1 75.5 118.55 74.55 119.9 73.8 119.8 74.65 119.8 76.2 119.7 78.1 117.95 81.5 115.85 85.6 114.45 87.4 112.75 89.65 109.25 92.3 99.75 99.6 88.05 102.5 86.25 102.9 85.55 103.5 85.05 104.05 84.9 104.7 84.75 105.45 85.15 105.95 85.8 106.7 87.35 106.45 87.05 106.75 86.8 107.2 86.15 108.2 85.65 110.25 83.9 117.1 83.15 123.75 83 124.8 83.05 125.65 82.7 125.1 82.3 124.5 80.2 121.65 79.2 120.2 78.55 119.3 75.9 114.95 74.1 112 72.55 110.3 72.55 110.05 72.45 109.8 72.35 109.45 72.2 109.2 72.4 108.85 72.5 108.3 72.6 107.35 72 106.75 71.3 106.1 69.15 106.1 60.65 106.35 52.25 104.6
L 49.65 104 47.9 103.35
Q 46.95 103 46.35 102.85 45.55 96.05 44.75 89.35 44.4 86.7 43.95 84.85 47.7 85.05 52.3 84.4 56.9 83.7 59.75 82.2 63.5 80.35 66.1 76.5 67.45 74.6 68.25 72.45 68.45 72.45 68.65 72.45 69.45 72.45 70.95 71.95 79 69.55 87.05 69.85 88.85 69.95 89.6 69.4 89.95 69.15 90.15 68.85
M 30.55 66.55
Q 30.35 64.8 30.65 63.75 31.1 62.25 32.7 60.75 36.5 57.05 43 54.8 48.9 52.85 54.4 53 56.9 53 58.65 53.8 59.65 54.3 61.1 55.65 65.5 60.2 65.7 65.9 65.8 68.8 64.75 71.5 63.65 74.3 61.55 76.2 58.7 78.75 53.4 80 46.1 81.65 40.4 79.65 37.2 78.55 34.8 76.25 32.25 73.85 31.3 70.8 30.75 69.05 30.55 66.55
M 68.75 119.95
Q 66.15 118.35 64.05 116.1 65.15 114.95 67.15 114.05 68.25 113.55 70.35 112.7
L 71 114.05
Q 74.35 120.05 76.05 122.5 76.85 123.7 77.65 124.75 76.45 123.9 74.95 123.15 70.75 121.15 68.75 119.95
M 66.6 109.85
L 61.2 112.25
Q 60 112.8 59.35 113.3 58.75 113.2 58.05 113.1 56.5 112.95 54.95 112.95
L 48.9 112.75
Q 48.1 112.7 47.45 112.8 47.15 109.95 46.8 107.1 49.35 108.15 53.2 108.7 58.25 109.4 66.6 109.85
M 79.95 128.35
Q 79.95 128.45 80 128.6 79.75 129.05 79.5 129.7 77.95 133.9 77.2 138.2 77.1 137.7 77 137.3 75.95 132.45 73.85 127.95 77 128.75 79.8 128.35 79.85 128.35 79.95 128.35
M 123.45 112.35
Q 123.8 112.4 124.3 112.45 124 112.85 123.85 113.05
L 123.35 114.25
Q 122.2 114.35 121.15 114.35 117.3 114.2 115.4 114.4 112.25 114.95 110.65 115.15 107.75 115.45 105.95 114.55 105.2 114.15 104.9 114.05 104.45 113.9 103.75 114 101.95 114.1 100.4 114.5 98.95 114.85 98.55 114.15 98.3 113.6 98.65 113.15 98.85 112.85 99.45 112.45 101.7 111.15 104.25 111.05 105.7 110.95 106.7 111.5 107.65 112.05 107.8 112.1 108.2 112.25 109.1 112.25 110.5 112.2 113.3 112 114.6 112 117.1 112.25 117.75 112.3 120.3 112.2 122.25 112.15 123.45 112.35
M 121.75 122.7
Q 121.8 122.6 121.85 122.55 121.85 122.6 121.85 122.7 121.8 122.65 121.75 122.7
M 121.5 126
Q 122.95 127.85 126.1 129.75 130.45 132.4 131.25 133.05 134.35 135.5 136.2 139.3 138 143.05 138.05 147.15 138.05 149.5 137.55 151.1 136.6 154.3 133.65 156.45 130.8 158.55 127.35 158.75 124.45 158.95 119.4 157.5 114.8 156.25 112.45 155.05 111.5 154.6 110.85 154.3 111.15 154.25 111.45 154.2 116.25 153.5 119.8 150.45 121.25 149.2 121.95 147.95 122.8 146.6 122.7 145.35 122.8 144.95 122.8 143.65
L 122.6 141 122.75 140.05
Q 122.95 138.9 122.9 138.15 122.85 136.6 121.95 134.55 124.3 134.95 125.45 135 127.95 135.1 128.55 135.3 129.05 135.5 129.3 135.3 129.55 135.05 129.25 134.65
L 128.7 134.25
Q 128.25 134 127.65 133.3 126.9 132.5 126.6 132.25 125.55 131.3 122.7 130.7 120.7 130.3 119.7 130.35 119.5 130.35 119.3 130.4 117.9 129.05 115.85 128.45 113.8 127.8 111.6 128.05 107.5 128.55 104.05 131.85 102.95 132.9 102.05 134.2 102.05 134.4 101.95 134.6 101.8 134.8 101.5 134.95 101.35 135.15 101.2 135.4
L 99.75 138
Q 98.7 139.8 98.6 140.1 97.45 142.55 97.8 146.25 97.9 147.1 98.1 147.85 98.4 148.2 98.5 148.8 98.55 149.1 98.55 149.4 98.9 150.35 99.45 151 100.35 152.05 102.3 153 105 154.2 107.95 154.4 107.8 154.6 107.75 154.9 107.65 155.4 107.7 155.9 104.95 155.95 103.75 155.85 101.3 155.6 99.7 154.5 98.8 153.95 97.15 152.25 97.15 151.6 97.1 150.65 96.85 150.65 96.65 150.65 96.55 150.65 94.9 150.35 93.65 150.15 92 150.15 90.4 150.05 90.1 149.95 89 149.6 88.5 148.85 88.05 148.1 88.4 147.5 88.65 147.1 89.25 146.85 91.8 145.8 95.45 146.6 96.15 146.7 96.65 146.9 96.55 146.05 96.4 145.15 95.65 140.15 99.7 135.05
L 91.3 135.05
Q 90.7 135.05 90.4 134.8 90.05 134.45 90.25 134 90.4 133.75 91 133.45 94.75 131.95 98.85 132.25 100.55 132.4 101.4 133.1 105 128.95 106.4 128.35 108.25 127.6 112.25 127.4 115.25 127.2 116.9 127.75 117.25 128.15 117.9 128.25 118.65 128.4 119.25 128 119.8 127.6 120.3 126.4 120.6 125.55 120.85 124.9 121.05 125.4 121.5 126
M 104.1 121.65
Q 105.3 121.85 107.7 122.5 108.9 122.7 111.05 122.7 113.5 122.7 114.45 122.8 115.7 122.95 118.65 123.8 118.9 123.95 118.95 124 119.1 124.35 118.4 124.35 117.75 124.4 115.95 124.95 114.2 125.4 111.6 125.3 107.75 125.3 105.6 124.5 104.5 124 103.9 123.9 103.45 123.8 102.75 123.75 101.95 123.8 101.55 123.75 100.25 123.65 99.6 123.65 98.5 123.7 97.75 124.15 97.6 124.25 96.3 125.55 95.7 126.25 94.95 126.75 93.8 127.6 93.2 126.95 92.85 126.6 93.05 125.95 93.2 125.7 93.65 125.1 96.05 122.5 97.6 121.95 98.4 121.65 100.6 121.55 102.65 121.45 104.1 121.65
M 89.3 122.9
Q 89.05 122.9 88.85 123.3
L 87.9 125.4
Q 87.65 126 87.5 126.2 87.35 126.4 86.75 126.9 86.45 127.15 86.05 127.6 86.1 127.45 86.15 127.3 86.7 125.95 87.35 121.7 88.35 115.5 90.2 109.7 92.2 110.9 94.4 110.8 91.5 117 89.4 122.9
L 89.3 122.9
M 84.85 128.7
Q 84.95 128.7 85.05 128.7 84.85 128.85 84.7 129.05 84.45 129.3 84.35 129.3
L 84.3 129.3
Q 84.25 128.9 84.2 128.55 84.5 128.7 84.85 128.7
M 83 132.6
Q 83.2 132.65 84.15 132.65 85.25 132.55 85.75 132.35 86.2 132.15 86.65 131.7 84.4 140.3 84 148.1 83.8 147.9 83.6 147.7 81.8 145.9 81.4 145.05 81.05 144.2 80.95 142.3 80.95 140.5 81.05 139.65 81.1 139 81.7 137.05 82.5 134.5 83 132.6
M 113.35 132.5
Q 115.15 132.5 116.15 132.95 116.6 133.15 117.1 133.55 117.95 135.1 118.7 137.8 119.75 141.65 119.55 143.45 119.5 143.95 119.3 144.7 118.85 145.05 118.25 145.6 115.05 148.35 111.65 149.2 107.6 150.2 104.2 148.45 103.1 147.85 102.9 147.1 102.9 146.3 102.8 145.9 102.55 144.8 102.6 144.65 102.65 144.4 102.9 144.15 103.25 143.75 103.3 143.65 103.55 143.2 103.35 142.45 103.1 141.25 103.1 141.15 102.95 140.05 104.05 138.35 105.35 136.3 107.1 134.75 109.1 133.1 111.3 132.65
L 113.35 132.5
M 38.85 64
Q 38.75 63.9 38.5 63.25 38.25 62.5 37.5 62 36.8 61.5 35.95 61.5 35.15 61.55 34.45 62.15 33.8 62.7 33.65 63.55 33.6 64.25 33.85 65.2 34.7 67.6 36.7 69.05 37.5 69.7 38.35 69.9 39.4 70.1 40.05 69.65
L 40.05 69.75
Q 40.5 70.85 41.65 71.9 42.3 72.55 42.85 72.85 44.85 74 47.7 72.9 49.5 72.15 50.55 70.9 51.8 69.4 51.8 67.65 51.8 67.05 51.5 66.05 51.05 64.45 50.05 63.4 53.25 63.25 56.3 64.4 56.75 64.5 57.05 64.8
L 57.45 65.35
Q 57.7 65.6 58.1 65.65 58.5 65.7 58.8 65.5 59.25 65.15 59.25 64.45 59.2 63.8 58.85 63.25 57.75 61.45 54.7 60.5 52.7 59.85 50.35 59.7 45.9 59.55 42.2 61.4 39.95 62.55 38.85 64
M 83.45 98.55
Q 84.25 98.6 84.5 98.6 85.05 98.6 85.4 98.35 85.85 98.1 86.05 97.6 86.25 97.1 86.15 96.65 85.85 95.75 84.85 95.35 84.3 95.15 83.05 95.15 80.3 95.25 78.25 96.2 77.4 96.6 77 97.1 76.4 97.8 76.7 98.55 76.9 99.2 77.7 99.3 78.15 99.3 78.85 99 80.75 98.3 83.45 98.55
M 120.35 55.65
Q 120.1 54.55 119.1 54.05 117.9 53.5 116.1 54.25 114.55 54.85 113.45 55.9 113.3 56 113.2 56.15 112.45 55.65 111.6 55.35 107.1 53.6 101.2 54.45 100 54.65 99.55 54.9 98.95 55.25 98.3 55.8 97.45 56.65 97.15 57.3 96.85 57.9 96.65 59.2 96.45 60.85 96.65 61.95 96.9 63.35 97.8 64.35 98.6 65.2 100.35 65.8 101.5 66.15 102.3 66.15 103.55 66.2 104.65 65.55 105.8 64.95 106.4 63.85 107.1 62.6 107.2 60.4 107.4 58.2 106.5 57.25 108.15 56.85 111 58.1 112.35 58.65 113.15 59.1 113.85 59.45 114.2 59.45 114.3 59.45 114.45 59.4 114.55 59.4 114.65 59.4 115.85 59.5 117.85 58.7 119.3 58.2 119.85 57.55 120.55 56.8 120.35 55.65
M 67 43.9
Q 65.15 43.05 64.25 42.55 63.05 41.9 62.55 41.85 61.65 41.7 60.9 42.4 60.15 43.1 60.25 44.05 60.3 44.85 61.05 45.65 61.3 45.9 62.45 46.9 62.95 47.35 63.95 48.25 64.8 49 65.55 49.35 66.5 49.8 67.5 49.7 68.6 49.55 69.2 48.8 70.15 47.55 69.25 45.9 68.65 44.75 67 43.9
M 38.6 -5.1
Q 31.7 -4.5 28.05 -3.05 24.7 -1.65 20.75 1.5 14.6 6.35 11.15 11 9.65 13.05 9.3 14.4 8.6 16.65 9.6 18.25 10.8 20.3 14.1 20.65 16.65 20.9 21.05 19.85 25.35 18.8 28 17.45 31.1 15.9 32.15 13.7 30.7 12.8 29.1 13.1 35.35 9.5 40.35 4.6 42.8 2.25 43.75 0.3 44.8 -1.85 44.05 -3.35 43.35 -4.6 41.6 -5.05 40.45 -5.3 38.6 -5.1
M 33.6 4.25
Q 34.2 3.25 33.7 2.3 33.3 1.3 32.2 1.05 31.3 0.8 29.95 1.3 28.7 1.75 26.4 3.15 23.7 4.85 22.3 6.1 20.2 7.95 19.2 9.95 18.45 11.6 18.55 12.65 18.65 14.3 20 14.95 16.45 15.95 12.95 16.1 13.1 13.9 14.9 11.75 16 10.45 18.5 8.45
L 21.55 6
Q 25.75 2.65 28.05 1.5 32.8 -0.9 39.65 -0.9 37.95 1.25 35.35 3.55 33.95 4.85 30.6 7.55 28.9 9 27.85 9.6 26.15 10.6 23.25 11.3 27.2 7.95 31.75 5.65 33.2 4.95 33.6 4.25 Z"/>
</g>
</defs>

<g transform="matrix( 1, 0, 0, 1, 0,0) ">
<use xlink:href="#Layer0_0_FILL"/>
</g>
</svg>
