
<svg xmlns="http://www.w3.org/2000/svg" version="1.1" xmlns:xlink="http://www.w3.org/1999/xlink" preserveAspectRatio="none" x="0px" y="0px" width="300px" height="300px" viewBox="0 0 300 300">
<defs>
<g id="haven_0_Layer2_0_FILL">
<path fill="#E9FFCC" stroke="none" d="
M 152.5 214.1
L 152.45 214.1
Q 137.8994140625 213.39453125 123.5 215.1
L 123.5 215.1
Q 115.93671875 216.333984375 108.55 218.45
L 108.55 218.4
Q 105.4990234375 219.297265625 102.35 219.4 102.0595703125 219.4130859375 101.8 219.6 101.551171875 219.7845703125 101.45 220.05
L 98.45 228.5
Q 95.5568359375 235.9775390625 95.5 244
L 95.5 244.05
Q 95.4603515625 248.01875 98 251 98.862109375 252.025390625 99.75 253
L 99.75 252.95
Q 105.2072265625 258.734375 113.2 260
L 113.15 259.95
Q 120.975 261.3474609375 128.75 261
L 128.8 261
Q 136.15 260.899609375 143.5 260.5 151.05 260.4015625 158.6 260.8 166.1244140625 261.3556640625 173.8 260.65
L 173.8 260.65
Q 181.688671875 259.6912109375 189.25 257.75 194.128125 256.653515625 198.5 254.7 200.434765625 253.888671875 201.9 252.25 202.6765625 251.4767578125 203.65 250.9 203.843359375 250.796875 203.95 250.6 204.093359375 250.4412109375 204.1 250.2 205.6623046875 241.6744140625 204.5 233.15
L 204.5 233.15
Q 204.0267578125 229.986328125 202.75 226.85 200.5251953125 221.3625 198.05 215.85 197.91640625 215.512890625 197.55 215.35 197.248046875 215.1853515625 196.9 215.25 194.4873046875 215.91640625 192.05 215.35 189.926171875 214.9033203125 187.7 214.85 170.0376953125 214.55 152.5 214.1
M 94.4 87.6
L 94.35 87.6
Q 86.90859375 86.7771484375 79.75 88.7 72.445703125 90.6330078125 66.55 95.2
L 66.5 95.2
Q 60.5470703125 99.841015625 57.2 106.7 53.865234375 113.4794921875 53.25 120.85 52.793359375 126.500390625 53.25 132.05 53.2572265625 132.1486328125 53.25 132.2 55.0947265625 139.998828125 60.75 145.7 66.2787109375 151.28984375 73.6 154.55 80.0318359375 157.430078125 87.15 157.8 92.4103515625 158.5099609375 97.8 157.6
L 97.8 157.6
Q 105.6986328125 156.253125 112.55 152.3
L 112.55 152.3
Q 119.2552734375 148.3720703125 124.3 142.4
L 124.3 142.4
Q 129.75234375 136.125390625 130.85 127.7 131.8701171875 120.1974609375 130.15 112.85 128.310546875 104.7166015625 122.65 98.6
L 122.7 98.6
Q 117.143359375 92.5515625 109.2 90.5 101.8501953125 88.71015625 94.4 87.6
M 192.7 88.8
L 192.75 88.8
Q 188.559765625 89.375390625 184.55 90.85
L 184.55 90.85
Q 177.0123046875 93.6462890625 171.8 99.75 167.0359375 105.33671875 165.35 112.45 163.6318359375 120.1515625 164.55 127.65 165.533203125 135.9720703125 170.9 142.35 175.994140625 148.437109375 182.7 152.3 189.601953125 156.3048828125 197.4 157.6
L 197.45 157.65
Q 204.3978515625 158.610546875 211.55 157.4
L 211.55 157.45
Q 218.7724609375 156.366796875 225.15 152.85
L 225.2 152.85
Q 230.3609375 149.9513671875 234.55 145.8 240.3150390625 140.090625 241.9 132.2 241.941796875 132.137109375 241.95 132.05 242.3033203125 126.5126953125 242 120.9 241.6421875 113.390625 238.25 106.55 234.84140625 99.6900390625 228.75 95.1 222.690625 90.5798828125 215.4 88.6
L 215.4 88.65
Q 208.9431640625 86.7890625 202.05 87.5 197.3119140625 87.960546875 192.7 88.8 Z"/>

<path fill="#FFCBBF" stroke="none" d="
M 106.05 196.35
Q 105.8185546875 196.5044921875 105.65 196.75
L 104.05 199.6
Q 104.0630859375 199.6259765625 104.05 199.65 102.801953125 202.0517578125 100.35 203.25 100.312109375 203.273828125 100.25 203.3 99.9861328125 203.4857421875 99.6 203.6 99.300390625 203.698046875 99.1 203.95 98.8951171875 204.2431640625 98.9 204.55
L 99.05 209.55
Q 99.0640625 209.9306640625 99.3 210.2 99.5291015625 210.4658203125 99.85 210.5 100.21953125 210.592578125 100.5 210.4 100.8388671875 210.253125 100.95 209.9 102.1515625 206.976953125 104.45 205.4 104.9595703125 205.0826171875 105.35 205.45 106.4869140625 206.7109375 105.85 208.25
L 105.85 208.3
Q 105.075 210.4494140625 104.35 212.25 104.256640625 212.558203125 104.35 212.85 104.4373046875 213.1958984375 104.7 213.4 104.9673828125 213.6001953125 105.3 213.6
L 111 213.65
Q 111.281640625 213.6509765625 111.5 213.5 111.770703125 213.3533203125 111.9 213.1 112.0279296875 212.839453125 112 212.55 111.505859375 207.42421875 111.8 202.2 111.9021484375 199.8890625 112.2 197.7 112.2369140625 197.45234375 112.1 197.2 112.00859375 196.9412109375 111.75 196.75 111.54921875 196.6166015625 111.25 196.6
L 106.6 196.25
Q 106.3345703125 196.2326171875 106.05 196.35
M 62.05 169.95
L 62.05 169.95
Q 56.1162109375 174.8998046875 53.45 181.95 50.9294921875 188.6568359375 53.7 195.55 56.49921875 202.3482421875 63 206 65.174609375 207.2537109375 64.2 209.35 61.3498046875 215.525 58.3 221.8
L 58.3 221.8
Q 56.9763671875 224.49296875 56.55 227.45 55.5677734375 234.1919921875 57.8 240.65 58.3482421875 242.323046875 59.45 243.75
L 59.45 243.75
Q 62.59921875 247.75859375 67.4 249.35
L 67.45 249.35
Q 71.884375 250.79453125 76.5 250.95 79.5134765625 251.1490234375 82.55 251.35 86.3734375 251.944921875 87.9 248.8
L 89.35 247.85
Q 89.577734375 247.732421875 89.7 247.5 89.81875 247.2501953125 89.8 246.95 89.0189453125 235.571484375 93.55 225 93.71953125 224.655859375 93.6 224.3 93.2576171875 223.2041015625 93.3 221.85
L 93.3 221.8
Q 93.55234375 216.9115234375 94.1 211.8 94.4552734375 208.586328125 94.35 205.45 94.3060546875 203.6603515625 95.55 202.55 95.5748046875 202.5244140625 95.6 202.5 95.886328125 202.2240234375 96.25 202.05 96.51953125 201.9416015625 96.65 201.7 96.82890625 201.4990234375 96.85 201.2 97.119140625 198.084375 99.45 195.75
L 99.45 195.75
Q 101.8134765625 193.515625 102.5 190.35 102.543359375 190.298046875 102.55 190.2
L 102.6 189.5
Q 102.6169921875 189.349609375 102.55 189.15
L 101.9 186.8
Q 101.87109375 186.6482421875 101.75 186.5 98.5896484375 182.3390625 93.1 183.5
L 93.15 183.5
Q 92.4296875 183.61015625 92.05 183.1 91.05390625 181.5091796875 90.75 179.85
L 90.8 179.85
Q 89.2951171875 170.1736328125 80.4 166.8
L 80.35 166.8
Q 78.913671875 166.2828125 77.4 165.95
L 77.35 165.95
Q 68.6560546875 164.48828125 62.05 169.95
M 185 194.8
Q 184.8505859375 195.1052734375 184.9 195.45 185.6119140625 200.1744140625 186.55 205.1 186.937109375 206.939453125 186.7 208.8 186.6671875 209.1115234375 186.8 209.35 186.9263671875 209.644140625 187.15 209.8 187.4291015625 209.95546875 187.7 209.95
L 193.1 209.8
Q 193.51796875 209.785546875 193.8 209.5 194.0853515625 209.219140625 194.1 208.8
L 194.25 203.95
Q 194.259375 203.7244140625 194.15 203.5 194.0328125 203.2859375 193.8 203.15
L 191.65 201.6 186.7 194.7
Q 186.5017578125 194.4455078125 186.15 194.35 185.844140625 194.24921875 185.5 194.35 185.201171875 194.5021484375 185 194.8
M 202.25 174.2
L 202.25 174.2
Q 200.15390625 177.4322265625 200 181.15 199.9439453125 182.4392578125 198.9 183 198.874609375 183.0384765625 198.85 183.05 197.319921875 184.05390625 195.5 183.75 195.4349609375 183.7583984375 195.35 183.75 191.5603515625 183.613671875 190.65 187.4 189.9529296875 190.3615234375 191.2 193.05
L 191.15 193.05
Q 192.716015625 196.504296875 195.4 198.95
L 195.45 198.95
Q 196.53046875 199.88515625 196.95 201.25 197.052734375 201.60859375 197.35 201.8 199.638671875 203.161328125 199.55 205.9 199.444140625 210.19921875 200 214.55 200.12421875 215.6939453125 200.8 216.75
L 200.8 216.7
Q 204.7548828125 222.952734375 207.45 229.6 209.0583984375 233.6068359375 209.2 237.9
L 209.2 237.95
Q 209.3474609375 241.8009765625 209.1 245.8 209.083203125 246.0044921875 209.15 246.2 209.2275390625 246.384375 209.35 246.5 214.450390625 251.924609375 221.8 252.3 224.31640625 252.7056640625 226.7 251.7 235.20546875 248.265625 240.3 240.8 242.262109375 237.9966796875 242.1 234.45 242 232 241.85 229.55
L 241.85 229.5
Q 241.70078125 227.65 241.65 225.75
L 241.65 225.75
Q 241.4880859375 222.38125 240.25 219.25 238.2708984375 214.1345703125 234.85 210
L 234.85 210
Q 232.4880859375 207.1744140625 230.25 204.2
L 230.2 204.15
Q 229.76015625 203.576171875 230 202.8 230.213671875 202.1412109375 230.85 201.85 231.0353515625 201.784375 231.15 201.6 231.3232421875 201.48359375 231.4 201.3 232.7708984375 197.514453125 235.75 194.65
L 235.75 194.65
Q 237.205078125 193.2013671875 238.15 191.35
L 238.2 191.35
Q 240.6861328125 186.3068359375 239.65 180.55 239.3376953125 178.4875 239.05 176.45 238.2923828125 171.140234375 234.15 167.55 234.0681640625 167.476953125 233.95 167.4 226.5498046875 163.4984375 217.95 165.35
L 218 165.35
Q 216.325 165.675 214.6 165.95
L 214.6 165.95
Q 206.646484375 167.61171875 202.25 174.2
M 180.55 156.35
L 180.55 156.35
Q 171.4912109375 151.7509765625 165.1 143.7 159.6078125 136.697265625 158.55 127.9 158.5005859375 127.5453125 158.2 127.3 157.8943359375 127.03984375 157.5 127.05 156.3791015625 127.0908203125 155 126.9 146.2126953125 125.6359375 137.4 127.35 137.091015625 127.428125 136.85 127.65 136.65078125 127.8830078125 136.6 128.2 136.5 128.9 136.4 129.6
L 136.4 129.6
Q 135.4845703125 136.59609375 131.2 142.05 131.1873046875 142.10078125 131.15 142.1 126.96640625 148.29375 120.9 152.8 117.29453125 155.4765625 113.25 157.25 100.74140625 162.7447265625 87.15 162.7 86.15 162.7 85.15 162.7 84.8193359375 162.7029296875 84.55 162.9 84.2923828125 163.092578125 84.2 163.4 84.0982421875 163.71171875 84.2 164 84.3060546875 164.33515625 84.55 164.5 92.3591796875 170.0158203125 93.55 179.4 93.5833984375 179.7025390625 93.75 179.9 93.91953125 180.132421875 94.15 180.2 94.4298828125 180.3345703125 94.7 180.3 98.2734375 179.73046875 101.8 180.85
L 101.8 180.85
Q 105.4990234375 181.8966796875 107.2 185.25 107.303515625 185.439453125 107.45 185.55 107.6314453125 185.7140625 107.8 185.75 108.351171875 185.9134765625 108.9 186.1
L 108.95 186.1
Q 114.6490234375 187.77890625 120.55 187.9 122.649609375 188.1609375 124.7 187.85 126.2064453125 188.0521484375 127.6 188.3 127.7140625 188.348828125 127.8 188.35 130.278515625 188.3166015625 131.05 190.2 131.2603515625 190.68828125 131.45 191.15 131.4603515625 191.18828125 131.45 191.2 131.958203125 192.8259765625 131.6 194.4
L 131.6 194.45
Q 131.133203125 196.6005859375 128.95 196.1 128.837109375 196.0935546875 128.7 196.1
L 119.85 196.6
Q 119.468359375 196.623046875 119.2 196.9 118.9220703125 197.171484375 118.9 197.55
L 118.3 212.05
Q 118.28671875 212.3412109375 118.4 212.6 118.5703125 212.8423828125 118.8 212.95 119.07109375 213.1134765625 119.35 213.1
L 178.65 210.3
Q 178.92109375 210.2923828125 179.15 210.15 179.3775390625 209.9978515625 179.5 209.75 179.6201171875 209.5001953125 179.6 209.2
L 178.75 196.4
Q 178.7326171875 196.1306640625 178.55 195.9 178.364453125 195.653125 178.05 195.55 177.7759765625 195.448046875 177.45 195.5 174.687890625 196.301171875 171.8 195.85 171.3181640625 195.6951171875 170.85 195.5 170.66796875 195.442578125 170.45 195.45 169.9083984375 195.4591796875 169.6 194.95 168.2154296875 192.47734375 168.85 189.45 169.1083984375 188.4751953125 170.05 188.05 170.0974609375 188.0626953125 170.1 188.05 177.0248046875 184.9154296875 184.65 185.6 184.985546875 185.62890625 185.25 185.45 185.5568359375 185.267578125 185.65 184.95 185.905859375 184.3779296875 186.2 183.85
L 186.2 183.8
Q 188.885546875 179.026953125 194.5 178.4 194.8572265625 178.3599609375 195.1 178.1 195.3330078125 177.885546875 195.35 177.55 196.7564453125 169.0111328125 204.35 164.55 204.6361328125 164.3912109375 204.75 164.1 204.9001953125 163.796484375 204.8 163.45 204.7607421875 163.1625 204.5 162.95 204.277734375 162.7341796875 203.95 162.7 197.1759765625 162.005859375 190.6 160.2 185.3544921875 158.8630859375 180.55 156.35
M 157.25 165.6
Q 157.3515625 165.862109375 157.25 166.05
L 157.25 166.05
Q 157.0611328125 166.35078125 156.55 166.45 156.2341796875 166.5521484375 156 166.8 155.81875 167.05 155.8 167.35 155.5083984375 171.778515625 153.45 175.8
L 153.45 175.75
Q 152.98125 176.6591796875 151.2 179.55 150.1205078125 181.2998046875 149.35 181.8
L 149.35 181.8
Q 148.5720703125 182.3287109375 147.55 182.25
L 147.55 182.25
Q 146.5896484375 182.2185546875 145.85 181.6
L 145.8 181.55
Q 145.22421875 181.062109375 144.6 179.75 144.5873046875 179.7515625 144.55 179.7 142.5205078125 175.8576171875 141.2 171.55
L 141.2 171.5
Q 140.513671875 169.4623046875 140.35 169.15 140.3248046875 169.1119140625 140.3 169.05 139.609765625 167.9353515625 139.35 167.35 139.132421875 166.676953125 139.4 166.2
L 139.35 166.2
Q 139.4861328125 166.06640625 139.65 166
L 139.6 166
Q 139.7392578125 165.9994140625 139.85 166 140.087109375 166.002734375 140.3 165.9 140.3509765625 165.87578125 140.4 165.85
L 140.35 165.85
Q 142.7052734375 165.1880859375 147.55 165
L 154.35 164.75
Q 155.89765625 164.6626953125 156.65 165 157.048046875 165.2373046875 157.25 165.65
L 157.25 165.6 Z"/>

<path fill="#553831" stroke="none" d="
M 23.15 139.25
Q 22.862109375 139.4458984375 22.7 139.75 17.6748046875 151.925 12.6 164 9.3935546875 171.747265625 7.45 180 5.2609375 189.76875 8.85 199.1 10.430859375 203.1515625 13 206.4 19.746484375 214.8166015625 30.3 215.65 30.632421875 215.6791015625 30.9 215.5 31.169140625 215.362890625 31.3 215.05 31.430859375 214.7873046875 31.35 214.45
L 28.35 197.25
Q 28.3236328125 196.968359375 28.1 196.75 27.8671875 196.5255859375 27.55 196.45
L 25.1 196.05 25.15 196.05
Q 18.192578125 194.6244140625 15.25 188.2 13.5322265625 184.558984375 14.25 180.45 15.0078125 176.636328125 18.05 174.1
L 18.1 174.1
Q 21.3890625 171.34921875 23.45 167.45
L 23.45 167.5
Q 24.2796875 166.06171875 24.4 164.2 24.951953125 156.775 24.85 149.3 24.75 144.675 24.65 140.1 24.6361328125 139.770703125 24.4 139.5 24.1708984375 139.23515625 23.8 139.15 23.4826171875 139.107421875 23.15 139.25
M 270.4 139.5
Q 270.202734375 139.7720703125 270.2 140.1 270.1498046875 143.2873046875 270.15 146.5 270.1 154.5 270.15 162.45
L 270.15 162.45
Q 270.2099609375 165.6482421875 271.8 168.25
L 271.75 168.25
Q 273.5732421875 171.3615234375 276.35 173.55 280.15390625 176.67421875 280.7 181.55 281.01953125 184.6296875 280.1 187.2
L 280.1 187.2
Q 277.4423828125 194.436328125 269.7 196.05
L 269.75 196.05 267.3 196.45
Q 266.9826171875 196.5255859375 266.75 196.75 266.5263671875 196.968359375 266.45 197.25
L 263.45 214.45
Q 263.4125 214.7712890625 263.5 215.05 263.6466796875 215.3322265625 263.9 215.5 264.1638671875 215.6591796875 264.45 215.65 267.4765625 215.60234375 270.4 214.55 270.4482421875 214.5373046875 270.45 214.5 280.00703125 210.7458984375 284.9 201.55 289.1326171875 193.741796875 288.05 184.95 287.0271484375 176.4078125 283.95 168.5
L 283.95 168.45
Q 278.3251953125 153.962109375 272.1 139.75 271.972265625 139.432421875 271.65 139.25 271.34140625 139.1083984375 271 139.15 270.652734375 139.2369140625 270.4 139.5
M 212.15 38.5
L 212.2 38.5
Q 202.078125 34.221875 191.4 32.6 173.2498046875 29.978125 155.15 32.75 147.5869140625 33.92890625 139.95 32.9
L 140 32.9
Q 121.7115234375 29.8876953125 103.6 32.6 94.0841796875 34.0759765625 85.1 37.55
L 85.15 37.55
Q 77.9484375 40.221875 71.15 43.7 67.534375 45.4935546875 64.2 47.9
L 64.2 47.9
Q 55.201171875 54.7263671875 48.2 63.5 39.0625 75.111328125 34.25 89.05 30.9984375 98.5845703125 30.95 108.45 30.799609375 131.6623046875 31.55 154.85 31.69765625 158.9873046875 31.45 163.1 30.98359375 171.755859375 24.4 177.15 24.4015625 177.1876953125 24.35 177.2 23.39921875 178.0732421875 22.45 179.05
L 22.45 179.05
Q 21.6146484375 179.997265625 21.1 181.15
L 21.05 181.15
Q 19.648828125 184.7162109375 22.6 187.4 24.74609375 189.30625 27.1 190.8
L 27.15 190.8
Q 28.9919921875 191.871875 31.15 192.55
L 31.1 192.55
Q 32.384375 192.9703125 33 194.2 33.5734375 195.4412109375 33.75 197.15 33.8548828125 198.271484375 34.15 199.5
L 34.2 199.5
Q 34.405078125 200.24140625 34.4 201
L 34.4 201.05
Q 34.4470703125 202.4564453125 34.85 204 36.4232421875 209.5265625 37.5 215.4
L 37.5 215.45
Q 39.083203125 223.6140625 41.7 231.35 44.4220703125 239.471875 50.35 245.8 50.6203125 246.1009765625 50.95 246.15 51.3408203125 246.1865234375 51.65 245.95 51.9658203125 245.7736328125 52.05 245.4 52.164453125 245.0658203125 52 244.7 51.7130859375 244.1005859375 51.45 243.5 50.4322265625 241.0048828125 50.15 238.2 49.855859375 235.32578125 50 232.5 50.19609375 229.3998046875 50.95 226.3
L 50.95 226.25
Q 51.7318359375 223.123828125 53.3 220.45 54.788671875 217.924609375 56.5 215.35
L 56.55 215.35
Q 58.003515625 213.0548828125 59.7 211.1 59.9140625 210.8609375 59.95 210.55 59.9828125 210.231640625 59.8 209.95 59.6646484375 209.678515625 59.35 209.55 56.6142578125 208.258203125 54.4 206.3
L 54.4 206.3
Q 51.7669921875 203.994140625 49.9 200.85
L 49.9 200.9
Q 47.644921875 197.11171875 46.9 192.7 46.15703125 187.9275390625 47.05 183.3 48.230859375 177.504296875 51.75 172.6 55.3005859375 167.73671875 60.5 164.4
L 60.45 164.4
Q 65.7087890625 161.0890625 71.95 160.8 72.2904296875 160.7779296875 72.55 160.55 72.8078125 160.33046875 72.85 160 72.9478515625 159.674609375 72.8 159.35 72.6533203125 159.0599609375 72.35 158.9 69.7 157.6123046875 67.1 156.25
L 67.1 156.25
Q 61.5 153.2345703125 57 148.8
L 57 148.85
Q 53.6060546875 145.49921875 51.35 141.3 48.6685546875 136.1900390625 47.95 130.4 47.90625 130.14765625 47.7 129.9 47.5572265625 129.7154296875 47.3 129.6 47.0419921875 129.525 46.75 129.55 46.2673828125 129.665234375 45.8 129.75 44.418359375 129.87109375 43.2 129.15
L 43.2 129.2
Q 41.6068359375 128.176953125 41.45 126.3 41.3330078125 124.6244140625 42.5 123.4
L 42.5 123.35
Q 44.1296875 121.64609375 46.6 121.7 47.00546875 121.701171875 47.3 121.45 47.5921875 121.2126953125 47.65 120.85 48.0880859375 117.775 48.65 114.7
L 48.65 114.65
Q 49.9419921875 107.9126953125 53.45 102.1 57.3642578125 95.5845703125 63.45 90.85
L 63.45 90.8
Q 69.115625 86.3955078125 75.9 84.4
L 75.95 84.4
Q 79.0265625 83.4798828125 82.25 83
L 82.25 82.95
Q 89.1369140625 81.80703125 95.95 82.55
L 95.85 82.5
Q 99.375 83.125 102.9 83.7 110.2279296875 85.008203125 116.6 88.3
L 116.55 88.25
Q 123.0142578125 91.735546875 127.65 97 132.31875 102.3537109375 134.65 108.9 136.75 114.8779296875 136.9 121.05 136.91015625 121.4322265625 137.15 121.7 137.391796875 121.9830078125 137.75 122.05 142.1990234375 122.7525390625 146.8 123 150.67578125 123.252734375 154.5 122.45 154.5484375 122.464453125 154.6 122.45 156.223046875 121.963671875 157.6 121.6 157.9193359375 121.5390625 158.1 121.25 158.3369140625 121.01015625 158.35 120.65 158.4970703125 116.475 159.45 112.25 161.5173828125 103.8453125 166.9 97 170.5603515625 92.4767578125 175.6 89.55 178.9033203125 87.7224609375 182.45 86.6
L 182.45 86.6
Q 189.001953125 84.3689453125 195.85 83.2 202.798828125 81.9544921875 209.6 82.35
L 209.65 82.35
Q 216.3283203125 82.8421875 222.35 85.35
L 222.35 85.35
Q 230.9986328125 89.0884765625 237.35 96.1
L 237.35 96.1
Q 241.70078125 100.8458984375 244.25 107.05 247.1123046875 113.8818359375 247.65 121.3 247.6794921875 121.69296875 247.95 121.95 248.2224609375 122.221484375 248.6 122.25 251.03125 122.387109375 253.25 123.25
L 253.25 123.25
Q 255.1453125 124.0876953125 255 126.1 254.8810546875 127.61484375 253.55 128.4
L 253.6 128.35
Q 251.244921875 129.70859375 248.65 128.85 248.4013671875 128.7576171875 248.1 128.8 247.8369140625 128.89375 247.6 129.1 247.4302734375 129.300390625 247.35 129.55 246.6748046875 132.775 245.9 135.95 244.82421875 140.571875 241.95 144.45 238.5759765625 148.9998046875 234.2 152.45
L 234.2 152.45
Q 230.2796875 155.525 225.7 157.55 225.3861328125 157.7181640625 225.2 158 225.0630859375 158.3330078125 225.1 158.65 225.176953125 159.0173828125 225.4 159.25 225.6826171875 159.4791015625 226 159.5 229.815234375 159.7376953125 233.15 161.1 236.7212890625 162.546484375 239.25 165.15
L 239.3 165.15
Q 241.50234375 167.3556640625 242.6 170.1 243.9931640625 173.5517578125 244.75 177.1 245.691796875 181.27578125 245.4 185.45
L 245.4 185.5
Q 245.2078125 188.81328125 243.9 191.7
L 243.95 191.65
Q 242.43046875 194.9470703125 240.3 197.95
L 240.3 198
Q 238.371875 200.8908203125 235.35 202.95 235.1310546875 203.1470703125 235 203.4 234.9125 203.7181640625 234.95 204 235.0361328125 204.3166015625 235.25 204.5 238.1958984375 207.368359375 240.75 210.8 242.8591796875 213.651171875 244.55 216.65
L 244.55 216.6
Q 246.4326171875 220.022265625 247 223.85 247.648046875 228.2501953125 247.9 232.7 248.0408203125 235.79765625 247.6 238.75 247.557421875 239.0962890625 247.75 239.4 247.9248046875 239.7169921875 248.25 239.85 248.587109375 239.969140625 248.9 239.85 249.2595703125 239.73046875 249.45 239.4 250.228125 238.1759765625 250.85 236.85 255.1052734375 228.1072265625 256.8 218.3 257.525390625 214.2376953125 258.35 210.2 259.0779296875 207.062890625 259.8 203.85
L 259.8 203.9
Q 260.094140625 202.9375 260.2 201.95
L 260.2 201.9
Q 260.29609375 200.7591796875 260.6 199.5 260.8466796875 198.653125 260.9 197.75 261.07734375 195.5244140625 262.15 193.65 262.307421875 193.47265625 262.5 193.3 263.1744140625 192.9177734375 263.9 192.6 265.8763671875 191.852734375 267.7 190.85 271.920703125 188.678515625 273.85 184.7 274.8458984375 182.762109375 273.85 181
L 273.85 181
Q 272.6341796875 178.845703125 270.45 177.1
L 270.45 177.1
Q 267.6443359375 175.037109375 266.1 171.9 263.3564453125 166.42421875 263.45 160.25 263.95 134.8623046875 264 109.4 264.0064453125 104.776171875 263.25 100 260.5033203125 82.202734375 249.9 67.7 242.5361328125 57.603125 232.85 49.45
L 232.85 49.5
Q 229.35625 46.51171875 225.4 44.5 218.862890625 41.1853515625 212.15 38.5
M 243 78.25
Q 244.715234375 80.7318359375 245.85 83.55 246.5248046875 85.224609375 247.25 87 249.5146484375 92.419921875 250.1 98.2 244.948046875 91.3115234375 239.35 84.6 233.5861328125 77.6966796875 226.35 72.75
L 226.35 72.75
Q 220.3404296875 68.73125 213.75 65.75 208.42578125 63.27265625 202.85 61.35 196.6001953125 59.1994140625 190.25 57.35
L 190.25 57.3
Q 187.175 56.475 184.05 55.6
L 184.05 55.6
Q 181.2375 54.925 178.45 54.25
L 178.4 54.25
Q 176.525 53.925 174.65 53.55
L 174.65 53.55
Q 171.4 53.05 168.2 52.6
L 168.15 52.6
Q 160.737890625 51.648828125 153.1 51.2 142.662890625 50.548046875 132 50.8
L 132 50.8
Q 119.6869140625 51.3076171875 107.5 53.5
L 107.5 53.5
Q 100.735546875 54.883203125 94.3 57.1 89.6240234375 58.773046875 85.1 60.85
L 85.15 60.8
Q 82.0748046875 62.1365234375 79.05 63.65
L 79 63.65
Q 74.4724609375 66.046875 70.3 68.9 65.0599609375 72.6189453125 60.2 77.3 52.5953125 84.6240234375 47.4 93.85 43.8654296875 100.084375 41.4 106.6 41.2171875 106.571875 41 106.6
L 40.9 106.65 40.85 106.65 40.85 106.6
Q 40.3619140625 102.606640625 42.35 98.95 44.2177734375 95.5046875 45.55 91.55 49.39921875 80.238671875 56.7 70.8 60.433203125 66.0076171875 65.1 62.05
L 65.1 62.05
Q 70.88125 57.1197265625 77.65 53.3 90.8580078125 45.897265625 105.65 42.8
L 105.65 42.8
Q 111.5751953125 41.4900390625 117.55 40.75 117.598828125 40.7376953125 117.6 40.7 123.4876953125 39.738671875 129.4 39.15 133.875 38.898828125 138.35 38.7 143.4 38.5 148.45 38.3 155.95 38.0525390625 163.45 38.45
L 163.45 38.45
Q 168.0373046875 38.6013671875 172.55 39.1 182.6970703125 40.086328125 192.3 43.2 198.7720703125 45.1814453125 204.8 48.2 210.6611328125 51.1265625 216.15 54.55 218.8125 56.2 221.45 57.9 225.7873046875 60.687890625 230 63.65 234.6439453125 66.9283203125 237.95 71.3 239.48359375 73.3396484375 240.95 75.4
L 241 75.45
Q 241.16328125 75.6697265625 241.3 75.9
L 241.35 75.9
Q 242.1970703125 77.094140625 243 78.25 Z"/>

<path fill="#CC6699" stroke="none" d="
M 142.5 167
Q 142.1919921875 167.039453125 141.95 167.25 141.7029296875 167.5150390625 141.65 167.85 141.6060546875 168.180078125 141.75 168.45 143.2529296875 171.1498046875 145.35 176 146.26953125 178.1044921875 147.1 178.95 147.3314453125 179.2021484375 147.6 179.25 147.9181640625 179.3396484375 148.2 179.2 148.4921875 179.1205078125 148.65 178.85
L 149.9 177.05 149.9 177.05
Q 151.762109375 174.328515625 152.2 173.1 152.2373046875 173.0982421875 152.25 173.05
L 154.05 167.8
Q 154.1494140625 167.51328125 154.05 167.2 153.9564453125 166.8947265625 153.7 166.7 153.4453125 166.5064453125 153.1 166.5 147.901171875 166.344140625 142.5 167
M 167.1 48.85
L 167.05 48.8
Q 169.425 49.225 171.75 49.6 183.1005859375 51.6658203125 196.3 56 209.59765625 60.397265625 222.55 66.15 229.2158203125 69.094140625 233.95 73.65 234.2333984375 73.9423828125 234.6 73.95 235.008984375 73.958203125 235.3 73.7 235.5998046875 73.45234375 235.65 73.05 235.6873046875 72.691015625 235.45 72.35 234.059765625 70.4400390625 234 70.4 231.095703125 67.3279296875 227.55 64.95 225.65 63.7125 223.8 62.5 219.2376953125 59.55 214.55 56.65 197.3236328125 46.0607421875 177.45 41.8 167.475390625 39.7556640625 157.35 39.35 150.212890625 38.9982421875 142.9 39.25
L 142.9 39.25
Q 130.1150390625 39.7458984375 117.85 41.4 105.541796875 43.0685546875 88.1 51.15 70.62578125 59.2330078125 59.05 72.05 58.8013671875 72.353125 58.8 72.7 58.8001953125 73.106640625 59.05 73.4 59.2876953125 73.691015625 59.65 73.75 60.0251953125 73.8046875 60.35 73.6 77.93046875 62.2416015625 80.85 60.65 87.1259765625 57.2525390625 93.65 54.5 100.590234375 51.658984375 107.95 50.15 114.92578125 48.84140625 122.05 48.4
L 122.05 48.4
Q 128.9498046875 47.8505859375 135.8 47.65 143.6498046875 47.450390625 151.35 47.6 159.175390625 47.802734375 167.1 48.85 Z"/>
</g>

<g id="haven_0_Layer1_0_FILL">
<path fill="#CC6699" stroke="none" d="
M 191.5 233.45
Q 190.25 229.9 186.1 228.85 185.25 228.7 184.4 228.55 182.55 228.45 181.6 230 180.15 232.4 182.3 234.3 185.95 237.45 190.2 236.85 191.25 236.55 191.55 235.4 191.8 234.35 191.5 233.45
M 172.35 245.05
Q 170.55 245.35 169.9 246.95 168.8 249.8 171.4 251.55 171.8 251.8 172.2 252.05 174.5 253.75 177.3 254.15 179.6 254.1 180.25 251.7 180.45 251 180.2 250.3 178.9 246.65 174.75 245.55 173.55 245.3 172.35 245.05
M 150.3 259.5
Q 151.45 258.05 151.45 256 151.45 253.95 150.3 252.45 149.2 251 147.6 251 146 251 144.85 252.45 143.75 253.95 143.75 256 143.75 258.05 144.85 259.5 146 261 147.6 261 149.2 261 150.3 259.5
M 118.55 229.75
Q 117.25 227.2 114.45 227.9 111.65 228.65 108.9 230 106.2 231.4 105.25 234.1 104.3 237 106.8 238.65 107.85 239.25 109.05 238.85 113.75 237.3 117.7 233.9 119.7 232.15 118.55 229.75
M 129.45 246.4
Q 127.5 246.05 125.65 247.05 122.75 248.75 120.9 251.45 119.25 253.85 121.25 256.05 122.4 257.35 124.05 256.95 127.9 255.8 130.3 252.45 130.95 251.55 131.3 250.55 132.25 247.6 129.45 246.4
M 152.4 213.95
Q 150.5 214 148.65 214.05 142.25 214.15 135.85 214.4 129.05 214.65 122.4 214.95 116.5 215.3 110.6 215.7 105.1 215.7 100 217.35 96.15 218.75 96.25 222.7 96.3 224.15 97.5 224.95 101.35 227.5 106.05 226
L 117.35 224.65
Q 118.1 229.05 120.35 232.95 120.8 233.7 121.35 234.45 122.65 236.1 124.1 237.65 128.55 242.3 134.25 245.2 137.55 246.75 141.35 247.7 143.3 248.1 145.3 248.5 157.15 249.85 166.55 242.15 168.65 240.4 170.7 238.6 178.2 232.05 181.35 222.8 187.7 222.75 193.75 222.9 195.95 223 197.8 221.95 200.25 220.4 199.65 217.25 199.5 216.4 198.95 215.75 195.9 212.6 191.25 213.15 171.8 213.55 152.4 213.95
M 148.45 222.6
Q 151.9 219.7 156.25 219.7 159.35 220.25 159.65 223.7 159.9 226.15 158.4 228
L 159.65 231.5
Q 159.3 235.9 154.95 236.55 152.35 236.7 149.8 235.75 147.3 237.6 144.4 238.85 143.7 239.05 142.95 239.1 140.6 238.75 139.85 236.45 139.15 234.25 139.6 232.1 135.45 229.25 137 224.55 137.6 222.85 139.35 222.55 143.95 221.55 148.45 222.6
M 148.8 233.1
Q 150.4 233.1 151.5 231.95 152.65 230.85 152.65 229.25 152.65 227.65 151.5 226.5 150.4 225.4 148.8 225.4 147.2 225.4 146.05 226.5 144.95 227.65 144.95 229.25 144.95 230.85 146.05 231.95 147.2 233.1 148.8 233.1 Z"/>
</g>

<g id="haven_0_Layer0_0_FILL">
<path fill="#3C102A" stroke="none" d="
M 264.65 78.45
Q 259.1 67.3 251.15 57.55 239.75 43.45 223 36.2 211.65 31.3 199.55 29 185.25 26 170.9 27.15 163.25 28.05 155.85 30.2 151.5 31.4 147.45 32.95 139.45 30 131.3 28.3 122.15 26.35 112.9 26.9 104.15 27.2 95.45 29 83.35 31.3 71.85 36.1 64.6 39.15 58.3 43.7 50.2 49.6 43.7 57.5 38.7 63.65 34.75 70.3 30.65 77.1 27.65 84.85 26.15 88.8 25.1 92.75 23.75 100.15 23.6 107.65 23.45 114.65 23.45 121.6 23.45 124.5 22.9 127.25 22.2 130.5 20.8 133.6 17.65 140.7 14.15 147.75 10.95 154.1 7.7 160.65 4.35 167.55 2.2 174.9 0.25 181.55 0 188.6 -0.2 194.4 1.35 200.1 2.2 203.25 4.1 206 8.4 212.2 14.2 217.05 18.35 220.5 23.7 221.9 26.65 222.75 29.75 222.7 30.9 222.7 32.05 222.6 34 231.9 37.55 240.95 39.8 246.7 43.85 251.2 45.95 253.55 48.65 255.3 51.5 257.2 54.8 256.2 55.35 256.1 55.85 255.9 56.15 255.95 56.45 255.95 56.7 255.95 56.95 255.8 57.45 255.7 57.9 255.5 58.1 255.35 58.25 255.2 58.6 254.8 58.8 254.35 58.95 254 59.05 253.7 63.25 256.35 68.3 257.1 72.6 257.7 76.85 256.8 79 256.2 81.25 256.1 85.15 255.7 88.8 254.35 89.8 254.1 90.85 253.3 93.7 258.1 98.25 261.4 102.65 264.65 107.95 265.85 112 266.7 116 266.45 122.35 266.1 128.7 265.05 131.35 264.75 133.9 264.35 141.9 263.75 150.1 264.1 157.5 264.4 164.95 264.7 173.15 265.1 181.25 264.2 187.3 263.5 193.3 262.25 197.85 261.2 202.15 259.6 204.65 258.6 206.7 256.75 206.9 256.7 207.1 256.55 207.35 256.5 207.55 256.4 207.85 256.1 208.15 255.75 208.45 255.4 208.65 255.05 208.8 254.75 208.85 254.5 208.95 254.15 209.05 253.85 212.5 255.55 216.25 256.75 218.95 257.5 221.7 257.55 223.85 257.65 226.1 257.45 227.5 257.35 228.8 256.95 230.9 256.35 233.1 256 234.65 255.6 236.3 254.75 236.45 254.95 236.6 255.2 236.75 255.35 237 255.45 237.2 255.65 237.45 255.8 237.65 255.85 237.9 255.95 238.15 255.95 238.45 255.95 238.7 255.95 239 255.9 242 257.35 244.95 255.85 248.45 254.15 251.15 251.2 253.55 248.65 255.3 245.45 258.1 240.2 259.75 234.5 261.5 228.6 262.8 222.6 267.05 223.3 271.25 222.1 274.55 221 277.5 219.3 281.2 217.3 283.95 214.25 287.1 210.8 289.9 207.05 291.75 204.7 292.8 202 295.25 195.55 295 188.6 294.75 181.6 292.7 174.9 290.1 166.25 285.8 157.95 281.3 149.2 277 140.35 273.9 134 272.15 127.2 271.45 124.5 271.5 121.6 271.55 113.5 271.25 105.45 271.1 100.65 270.3 95.85 268.8 86.7 264.65 78.45
M 192.9 89.8
Q 197.45 88.95 202.15 88.5 208.85 87.8 215.15 89.6 222.25 91.5 228.15 95.9 234.05 100.35 237.35 107 240.65 113.65 241 120.95 241.3 126.5 240.95 132 239.4 139.6 233.85 145.1 229.75 149.15 224.7 152 218.45 155.4 211.4 156.45 204.4 157.6 197.6 156.65 189.95 155.35 183.2 151.45 176.65 147.65 171.7 141.7 166.5 135.55 165.55 127.55 164.65 120.2 166.35 112.7 167.95 105.8 172.55 100.4 177.6 94.5 184.9 91.8 188.8 90.35 192.9 89.8
M 169.7 187.15
Q 168.25 187.75 167.9 189.25 167.15 192.65 168.75 195.45 169.35 196.5 170.5 196.45 171 196.65 171.55 196.85 174.7 197.35 177.75 196.5
L 178.6 209.3 119.3 212.1 119.9 197.6 128.75 197.1
Q 131.9 197.8 132.6 194.65 133 192.75 132.4 190.85 132.2 190.35 132 189.85 131 187.3 127.8 187.35 126.3 187.05 124.7 186.85 122.7 187.15 120.7 186.9 114.85 186.8 109.25 185.15 108.65 184.95 108.1 184.8 106.2 181.05 102.1 179.9 98.35 178.7 94.55 179.3 93.3 169.45 85.15 163.7 86.15 163.7 87.15 163.7 100.95 163.75 113.65 158.2 117.8 156.35 121.5 153.6 127.7 149 132 142.7 136.45 137 137.4 129.75 137.5 129.05 137.6 128.35 146.25 126.65 154.9 127.9 156.35 128.1 157.55 128.05 158.65 137.1 164.35 144.35 170.85 152.55 180.1 157.25 185 159.8 190.35 161.2 197 163 203.85 163.7 195.85 168.4 194.4 177.4 188.25 178.1 185.35 183.35 185 183.95 184.75 184.6 176.85 183.9 169.7 187.15
M 199.4 183.9
Q 200.9 183.05 201 181.2 201.15 177.75 203.1 174.75 207.25 168.5 214.8 166.95 216.5 166.65 218.2 166.35 226.4 164.55 233.5 168.3 237.35 171.65 238.05 176.6 238.35 178.65 238.7 180.75 239.65 186.15 237.3 190.9 236.4 192.6 235.05 193.95 231.9 196.95 230.45 200.95 229.4 201.4 229.05 202.5 228.65 203.8 229.45 204.8 231.7 207.8 234.1 210.65 237.4 214.65 239.35 219.65 240.5 222.6 240.65 225.8 240.7 227.7 240.85 229.6 241 232.05 241.1 234.5 241.25 237.7 239.5 240.25 234.55 247.45 226.35 250.8 224.15 251.7 221.85 251.3 214.9 250.95 210.1 245.85 210.35 241.8 210.2 237.9 210.05 233.4 208.4 229.25 205.65 222.5 201.65 216.2 201.1 215.35 201 214.45 200.45 210.15 200.55 205.95 200.65 202.6 197.9 200.95 197.4 199.3 196.1 198.2 193.55 195.9 192.1 192.65 191 190.25 191.65 187.65 192.35 184.65 195.35 184.75 197.55 185.1 199.4 183.9
M 271.15 146.5
Q 271.15 143.3 271.2 140.15 277.4 154.35 283.05 168.85 286.05 176.65 287.05 185.1 288.1 193.55 284.05 201.1 279.3 209.95 270.1 213.6 267.3 214.6 264.45 214.65
L 267.45 197.45 269.9 197.05
Q 278.2 195.3 281.05 187.55 282.05 184.75 281.7 181.45 281.1 176.15 277 172.8 274.35 170.7 272.65 167.75 271.2 165.35 271.15 162.45 271.1 154.5 271.15 146.5
M 94.25 88.6
Q 101.65 89.7 108.95 91.5 116.6 93.45 121.95 99.3 127.4 105.2 129.2 113.1 130.85 120.25 129.85 127.6 128.8 135.7 123.55 141.75 118.6 147.6 112.05 151.45 105.35 155.3 97.65 156.65 92.4 157.5 87.3 156.8 80.3 156.45 74 153.65 66.85 150.45 61.45 145 56 139.5 54.25 132 53.8 126.5 54.25 120.95 54.85 113.75 58.1 107.15 61.35 100.5 67.15 96 72.9 91.55 80.05 89.7 87 87.8 94.25 88.6
M 23.85 149.35
Q 23.95 156.75 23.4 164.15 23.3 165.75 22.6 167 20.6 170.7 17.45 173.35 14.1 176.1 13.3 180.3 12.5 184.7 14.35 188.65 17.5 195.5 24.95 197.05
L 27.4 197.45 30.4 214.65
Q 20.25 213.85 13.8 205.8 11.3 202.65 9.8 198.75 6.3 189.7 8.45 180.25 10.35 172.05 13.55 164.4 18.6 152.3 23.65 140.15 23.75 144.7 23.85 149.35
M 77.2 166.95
Q 78.65 167.25 80.05 167.75 88.4 170.9 89.8 180 90.1 181.85 91.2 183.65 91.9 184.7 93.3 184.5 98.15 183.45 100.95 187.1
L 101.6 189.45 101.55 190.15
Q 100.9 193 98.75 195.05 96.15 197.65 95.85 201.15 95.3 201.4 94.9 201.8 93.3 203.2 93.35 205.5 93.45 208.55 93.1 211.7 92.55 216.85 92.3 221.8 92.25 223.35 92.65 224.6 88 235.4 88.8 247.05
L 87.15 248.15
Q 85.9 250.85 82.7 250.35 79.6 250.15 76.55 249.95 72.05 249.8 67.75 248.4 63.2 246.9 60.25 243.15 59.25 241.85 58.75 240.35 56.6 234.1 57.55 227.6 57.95 224.8 59.2 222.25 62.25 215.95 65.1 209.8 66.5 206.85 63.5 205.15 57.3 201.65 54.65 195.2 52 188.65 54.4 182.3 56.95 175.5 62.7 170.75 68.95 165.55 77.2 166.95
M 106.55 197.25
L 111.2 197.6
Q 110.9 199.8 110.8 202.15 110.5 207.45 111 212.65
L 105.3 212.6
Q 106 210.8 106.8 208.65 107.65 206.5 106.1 204.8 105.15 203.75 103.9 204.6 101.35 206.3 100.05 209.55
L 99.9 204.55
Q 100.4 204.4 100.8 204.15 103.55 202.8 104.95 200.1
L 106.55 197.25
M 123.65 216.1
Q 137.95 214.4 152.45 215.1 170 215.55 187.7 215.85 189.8 215.9 191.85 216.35 194.5 216.95 197.15 216.25 199.6 221.75 201.85 227.25 203.05 230.25 203.5 233.3 204.65 241.65 203.15 250.05 202.05 250.7 201.2 251.6 199.85 253.05 198.1 253.8 193.8 255.7 189 256.8 181.5 258.7 173.7 259.65 166.1 260.35 158.65 259.8 151.05 259.4 143.45 259.5 136.1 259.9 128.75 260 121.05 260.35 113.35 259 105.7 257.8 100.5 252.3 99.6 251.35 98.75 250.35 96.45 247.65 96.5 244.05 96.55 236.15 99.4 228.85
L 102.4 220.4
Q 105.65 220.3 108.85 219.4 116.15 217.3 123.65 216.1
M 193.25 203.95
L 193.1 208.8 187.7 208.95
Q 187.95 206.9 187.55 204.9 186.6 200 185.9 195.3
L 190.95 202.3 193.25 203.95
M 211.8 39.45
Q 218.45 42.1 224.95 45.4 228.8 47.35 232.2 50.25 241.8 58.3 249.1 68.3 259.55 82.6 262.25 100.15 263 104.85 263 109.4 262.95 134.85 262.45 160.25 262.35 166.65 265.2 172.35 266.85 175.7 269.85 177.9 271.85 179.5 273 181.5 273.7 182.8 272.95 184.25 271.15 187.95 267.25 190 265.45 190.95 263.55 191.7 262.65 192.05 261.85 192.55 261.55 192.8 261.35 193.1 260.1 195.2 259.9 197.7 259.85 198.5 259.65 199.25 259.3 200.6 259.2 201.85 259.1 202.75 258.85 203.65 258.1 206.85 257.4 210 256.55 214.05 255.85 218.15 254.15 227.8 249.95 236.45 249.35 237.7 248.6 238.9 249.05 235.85 248.9 232.65 248.65 228.15 248 223.7 247.4 219.7 245.45 216.15 243.7 213.1 241.55 210.2 238.95 206.7 235.95 203.8 239.1 201.6 241.15 198.55 243.3 195.45 244.85 192.1 246.2 189.05 246.4 185.55 246.7 181.2 245.75 176.9 244.95 173.25 243.55 169.75 242.35 166.8 240 164.45 237.3 161.7 233.55 160.2 230.05 158.75 226.1 158.5 230.8 156.4 234.85 153.25 239.3 149.7 242.75 145.05 245.75 141 246.9 136.2 247.65 133 248.35 129.8 251.35 130.8 254.1 129.25 255.85 128.2 256 126.2 256.2 123.45 253.65 122.35 251.25 121.4 248.65 121.25 248.1 113.65 245.2 106.7 242.55 100.3 238.1 95.45 231.6 88.25 222.75 84.45 216.55 81.85 209.7 81.35 202.75 80.95 195.7 82.25 188.75 83.4 182.15 85.65 178.5 86.8 175.1 88.7 169.9 91.7 166.15 96.4 160.6 103.4 158.5 112.05 157.5 116.35 157.35 120.65 155.95 121 154.3 121.5 150.6 122.25 146.85 122 142.3 121.75 137.9 121.05 137.75 114.7 135.6 108.6 133.2 101.85 128.4 96.35 123.65 90.95 117.05 87.4 110.55 84.05 103.1 82.75 99.55 82.15 96.05 81.55 89.1 80.8 82.1 82 78.8 82.5 75.65 83.45 68.65 85.5 62.85 90.05 56.6 94.9 52.6 101.6 49 107.55 47.7 114.5 47.1 117.6 46.65 120.7 43.7 120.65 41.8 122.7 40.3 124.25 40.45 126.4 40.65 128.75 42.7 130.05 44.2 130.9 45.9 130.75 46.4 130.65 46.95 130.55 47.7 136.5 50.5 141.8 52.8 146.1 56.3 149.55 60.9 154.05 66.65 157.15 69.25 158.5 71.9 159.8 65.4 160.1 59.95 163.55 54.6 167 50.95 172.05 47.3 177.1 46.1 183.1 45.15 187.9 45.95 192.85 46.7 197.45 49.05 201.4 51 204.65 53.75 207.05 56.05 209.1 58.95 210.45 57.2 212.45 55.7 214.8 53.95 217.4 52.45 219.95 50.8 222.75 50 226.05 49.2 229.25 49 232.45 48.85 235.35 49.15 238.3 49.45 241.25 50.55 243.9 50.8 244.5 51.1 245.15 45.3 238.95 42.65 231.05 40.05 223.35 38.5 215.25 37.4 209.3 35.85 203.75 35.45 202.3 35.4 201 35.4 200.1 35.15 199.25 34.85 198.1 34.75 197.05 34.55 195.15 33.9 193.8 33.1 192.15 31.45 191.6 29.4 190.95 27.65 189.95 25.35 188.5 23.3 186.65 20.85 184.45 22 181.55 22.45 180.55 23.2 179.75 24.1 178.8 25.05 177.95 31.95 172.25 32.45 163.15 32.7 159 32.55 154.85 31.8 131.65 31.95 108.45 32 98.75 35.2 89.4 39.95 75.6 49 64.15 55.9 55.45 64.8 48.7 68.05 46.35 71.6 44.6 78.35 41.15 85.5 38.5 94.35 35.05 103.75 33.6 121.7 30.9 139.85 33.9 147.6 34.95 155.3 33.75 173.25 31 191.25 33.6 201.8 35.2 211.8 39.45
M 246.8 83.2
Q 245.6 80.25 243.85 77.7 243.0095703125 76.506640625 242.15 75.3 241.97578125 75.08203125 241.8 74.85 240.2962890625 72.751953125 238.75 70.7 235.35 66.2 230.6 62.85 226.35 59.85 222 57.05 219.35 55.35 216.7 53.7 211.15 50.25 205.25 47.3 199.15 44.25 192.6 42.25 182.9 39.1 172.65 38.1 168.1 37.6 163.5 37.45 155.95 37.05 148.4 37.3 143.35 37.5 138.3 37.7 133.8 37.9 129.3 38.15 123.35 38.75 117.45 39.75 111.4 40.5 105.45 41.85 90.5 44.95 77.15 52.45 70.3 56.3 64.45 61.3 59.7 65.3 55.9 70.2 48.5 79.75 44.6 91.25 43.3 95.1 41.5 98.5 39.2 102.65 39.95 107.25
L 40.75 107.75 41.3 107.6 41.7 108.7
Q 44.3 101.35 48.3 94.35 53.4 85.25 60.9 78.05 65.7 73.4 70.9 69.75 75 66.9 79.5 64.55 82.5 63.05 85.55 61.75 90 59.7 94.65 58.05 101 55.85 107.7 54.5 114.82890625 53.20390625 122 52.5 122.574609375 56.657421875 122.45 58.65 122.2 63.5 119.5 67.7 118.6 69 117.85 69.6 115 72.05 110.2 71.05 108.8 70.65 108 70.75 107.4 70.85 107 71.3 106.55 71.7 106.6 72.25 106.65 73 107.55 73.45 108.25 73.7 109.1 73.8 110.1 74 112.05 74.45 113.75 74.8 114.95 74.7 116.25 74.55 118.9 73.5 121.25 72.45 122.15 71.8 123.3 70.95 124.65 69.25 128.25 64.45 129.3 58.9 129.8642578125 55.81875 129.75 51.9 130.8994140625 51.846875 132.05 51.8 142.65 51.55 153.05 52.2 160.65 52.65 168.05 53.6 171.25 54.05 174.5 54.55 176.35 54.9 178.25 55.25 181 55.9 183.8 56.6 186.9 57.45 190 58.3 196.3 60.15 202.55 62.3 208.05 64.2 213.35 66.65 219.85 69.6 225.8 73.6 232.9 78.45 238.6 85.25 245.25 93.25 251.3 101.5 251.15 93.75 248.2 86.65 247.45 84.85 246.8 83.2
M 171.95 48.65
Q 169.6 48.25 167.25 47.85 159.25 46.8 151.4 46.6 143.65 46.45 135.8 46.65 132.311328125 46.751171875 128.8 46.95
L 128.8 46.9
Q 128.25 46 127.25 45.45 126.3 44.85 125.25 44.85 124.15 44.85 123.2 45.45 122.25 46.1 121.85 47.05 121.7787109375 47.2208984375 121.7 47.4 114.6658203125 47.87578125 107.75 49.2 100.3 50.7 93.3 53.6 86.7 56.35 80.4 59.8 77.44375 61.36015625 59.8 72.75 71.24765625 60.048828125 88.5 52.05 105.7939453125 44.053515625 118 42.4 130.20390625 40.748046875 142.95 40.25 150.2 40 157.3 40.35 167.35 40.75 177.25 42.8 196.95 47 214.05 57.5 218.7 60.4 223.25 63.35 225.1 64.55 227 65.8 230.45 68.1 233.3 71.1 233.33203125 71.1333984375 234.65 72.95 229.791015625 68.246875 222.95 65.2 209.9607421875 59.4572265625 196.65 55.05 183.3455078125 50.696484375 171.95 48.65
M 156.8 167.45
Q 157.8 167.2 158.15 166.55 158.5 165.95 158.15 165.2 157.8 164.5 157.15 164.15 156.2 163.65 154.3 163.75
L 147.5 164
Q 142.5 164.2 140.1 164.9 139.95 164.95 139.85 165 139.65 165 139.4 165.05 138.85 165.2 138.55 165.65 138 166.5 138.45 167.7 138.7 168.35 139.45 169.6 139.6 169.9 140.25 171.85 141.6 176.25 143.7 180.2 144.45 181.75 145.2 182.35 146.2 183.2 147.5 183.25 148.85 183.35 149.9 182.65 150.8 182.1 152.05 180.1 153.85 177.15 154.35 176.25 156.5 172.05 156.8 167.45
M 153.1 167.5
L 151.3 172.75
Q 150.85 173.9 149.1 176.5
L 147.85 178.3
Q 147.1 177.5 146.3 175.6 144.15 170.7 142.65 168 147.95 167.35 153.1 167.5
M 164.95 15.5
Q 165.95 12.25 164.65 8.6 163.5 5.45 160.8 2.75 159.25 1.2 157.75 0.55 156.4 0 153.8 0 147.7 -0.1 144.45 1.7 143 2.5 140.6 4.8 137.8 7.5 137.1 9.55 136.6 11 136.7 12.85 136.8 16.8 138.7 20.25 139.2 21.2 141 23.65 142.95 26.25 144.6 27.1 146.4 28.1 147.85 27.3 149.3 26.45 149.05 24.8 148.9 23.75 147.2 22.05 143.05 17.95 142.4 14.05 142.05 12.45 142.55 11.3 142.8 10.6 144.1 9.2 146 7.3 147.05 6.8 148.75 5.95 152.7 6.05 154.55 6.15 155.4 6.5 157.6 7.45 158.9 11.4 159.25 12.45 159.15 13.1 158.95 14.1 157.25 15.05 155.85 15.9 154.9 16 154.2 16.05 153.65 15.75 153.05 15.4 152.85 14.85 152.8 13.85 152.75 13.35 152.7 12.45 152 11.75 151.3 11.1 150.4 11.05 148.95 11 147.9 12.2 147.05 13.25 146.9 14.85 146.75 16.55 147.4 17.95 148.05 19.25 149.25 20.2 151 21.6 153.3 22.05 155.6 22.5 157.75 21.8 159.45 21.25 161.2 20 162.95 18.9 163.75 17.85 164.55 16.8 164.95 15.5 Z"/>

<path fill="#CC6699" stroke="none" d="
M 108.3 116.1
Q 106.8 116.2 102.55 117.3 97.1 118.65 94.4 119.5 92.6 120.1 87.45 122.35 85.15 123.5 84.55 124.1 83.6 125.05 83.25 126.4 82.95 127.75 83.35 129.05 83.75 130.3 84.75 131.25 85.8 132.2 87.1 132.45 88.6 132.8 90.5 132.25 91.35 131.95 93.75 130.95 99.5 128.55 108.5 127.05 111.35 126.55 112.55 125.75 114.6 124.45 114.9 122.15 115.25 119.8 113.65 118.05 111.8 116 108.3 116.1
M 210.25 132.95
Q 211.7 132.75 212.85 131.7 213.95 130.65 214.25 129.2 214.6 127.8 214.05 126.35 213.5 124.9 212.35 124 211.05 123 207.4 122.15 203.85 121.3 199.3 119.7 198.5 119.45 191.3 116.8 188.4 115.85 187.25 115.75 184.9 115.6 183.3 116.8 181.95 117.9 181.8 119.85 181.65 121.7 182.7 123.15 183.55 124.3 185.15 125.15 186 125.6 188.2 126.4 188.95 126.65 193.2 128.3 196.2 129.45 198.2 130.05 200.85 130.85 206.3 132.3 209 133.15 210.25 132.95 Z"/>
</g>
</defs>

<g transform="matrix( 1, 0, 0, 1, 2.4,10.6) ">
<g transform="matrix( 1, 0, 0, 1, 0,0) ">
<use xlink:href="#haven_0_Layer2_0_FILL"/>
</g>

<g transform="matrix( 1, 0, 0, 1, 0,0) ">
<use xlink:href="#haven_0_Layer1_0_FILL"/>
</g>

<g transform="matrix( 1, 0, 0, 1, 0,0) ">
<use xlink:href="#haven_0_Layer0_0_FILL"/>
</g>
</g>
</svg>
