
<svg xmlns="http://www.w3.org/2000/svg" version="1.1" xmlns:xlink="http://www.w3.org/1999/xlink" preserveAspectRatio="none" x="0px" y="0px" width="150px" height="150px" viewBox="0 0 150 150">
<defs>
<g id="Layer0_0_FILL">
<path fill="#FFFFFF" stroke="none" d="
M 65.7 148.15
Q 66.45 148 69.25 147.9
L 71.7 147.85
Q 72.3 147.9 74.9 148.25
L 75.15 148.2
Q 75.55 148.1 75.3 147.65 75.1 147.45 74.75 147.35 74.3 147.2 72.8 146.95
L 70.4 146.6 67.5 146.6
Q 66.45 146.8 65.9 146.8 64.95 146.8 64.7 147 64.5 147.25 64.5 147.55 64.55 147.9 64.8 148.05 64.95 148.15 65.7 148.15
M 178.8 36.7
Q 176.6 32.35 169.8 29.65 164.85 27.7 157.55 26.35 149.1 25.05 144.9 24.3 138.8 23.2 124.6 19.8 117.35 18 111.9 16.9 111.7 16.8 111.55 16.8 106.35 15.1 99.85 14.65 95.25 14.4 88 14.7 75.7 15.2 68.4 17.05 67.15 16.55 66.25 16.3 64.1 15.65 59.75 15.1 54.25 14.5 51.55 14.5 48.25 14.5 44.2 15.4 32.95 18 24.35 25.7 24.1 25.75 23.9 25.8 21.9 26.35 17.9 28.45
L -9.15 42.65
Q -13.1 44.7 -15.1 46.1 -18.25 48.35 -19.85 50.9 -21.6 53.7 -21.8 57.15 -22 60.55 -20.5 63.55 -18.95 66.55 -15.5 69.3 -10.9 73 -5.15 74.7 0.4 76.35 6 75.9
L 5.45 82.25
Q 5.25 84.7 5 86.1 4.55 88.25 3.55 89.7 3 90.5 2.5 90.6 1.8 90.8 1.1 90.25 0.5 89.7 0.1 88.7 0.05 88.6 -0.5 86.85 -1.35 84.35 -2.95 84.3 -4.65 84.15 -5.75 86.75 -7.45 90.35 -7.8 94.5 -8.1 98.55 -7.1 102.5 -5.15 110.35 1.15 116.1 3.1 118 4.95 118.75 6.3 119.35 7.55 119.4 7.1 125.15 9.55 129.5 9.85 130.1 11.25 132.15
L 13.05 134.65
Q 13.95 135.9 14.6 136.5 15.25 137.15 16.8 138.2 17.15 138.55 17.9 139.15 18.55 139.65 19.1 139.95
L 19.15 139.95
Q 20.5 142.55 22.6 144.3 25.3 146.55 28.8 147.25 30.6302734375 147.6109375 32.35 147.45 29.5357421875 149.4751953125 27.2 152.15 25.05 154.6 24.95 156.5 24.95 157.4 24.9 157.55 24.8 157.9 24.6 158.5 24.5 159.15 25 159.3 25.3 159.35 25.65 159
L 26.1 158.45
Q 26.35 158.3 26.8 158.2 27.35 158.1 27.5 158 28 157.85 28.85 157
L 31.4 154.4
Q 33 152.65 34.35 151.65 36.4 150.4 37.35 149.7 39.1 148.55 39.65 147.05 40 146.1 40 144.5 40 144.21953125 39.95 143.95 40.0154296875 143.8962890625 40 143.85
L 40.05 143.8
Q 42.6 141.7 44.25 139.3 46.15 136.45 47.35 132.45 47.9 130.5 48.4 127.95
L 59.85 127.45
Q 60.25 129.05 61.5 130.5 62.6 131.8 64.25 132.7 66.95 134.05 71 134.15 76.1 134.25 79.8 132.2 81.85 131.05 83.3 129.35 84.85 127.5 85.4 125.4 92.65 123.6 100 124.15 99.99140625 124.201171875 99.95 124.25 99.6650390625 124.8962890625 99.45 125.9 97.55 134.7 97.55 145.75 97.55 148.9 97.8 150.45 98.3 153.45 98.25 154.2 98.15 155.15 97.75 157.05 97.75 158.1 98.35 158.15 98.95 158.15 99.05 156.95 99.1 155.65 99.55 153.8 100.15 151.8 100.4 150.75
L 101.45 143.8
Q 102.1275390625 142.162890625 102.4 141.3 102.7 140.05 102.9 137.55 103.4 130.6 104.75 123.35 105.7 118.35 105.65 116.1 105.65 115.1 105.3 114.5 104.9 113.6 104.05 113.6 103 113.6 102.35 115.3 101.95 116.3 101.6 117.4
L 99.4 117.35
Q 98.05 117.35 96.7 117.4 97.15 116.65 97.35 115.45 97.5 113.8 97.7 113
L 98.4 109.3
Q 98.4 109 98.4 108.65 100.65 108.2 102.15 107.7 102.3 107.7 102.45 107.65 103.85 107.8 105.7 107.55 106.7 107.35 109.7 106.6 114.75 105.2 117.65 106.4 119.0525390625 107.0197265625 120.1 108.2 120.20234375 108.7390625 120.4 109.35 120.75 110.3 121.55 112.2 122.45 114.65 122.3 118.2 122.25 120.25 121.8 124.4 121.7 125.65 121.55 128.1 121.538671875 128.348046875 121.5 128.55 120.93046875 131.5169921875 120.3 135.15 120.2255859375 135.6103515625 120.15 136.1 119.833984375 137.2705078125 119.45 138.6 118.75 141.65 118.45 147.9
L 118.25 152
Q 118.15 153.25 118.35 154.1 118.7 155.35 119.6 155.7 120.55 156.05 121.65 155.5 124.2 154.15 124.65 150.45 124.8 149.3 124.7 147.45 124.6 145.05 124.6 144.4 124.641796875 142.7681640625 125 140.4 127.49765625 139.3115234375 128.6 138.65 130.9 137.4 132.35 135.95 133.3 135 133.9 134.05 136.35 130.65 137.2 126.7 138 126.6 139 126.2 142.05 125 144.35 122.7 145.55 121.4 146.5 120 149.2 116.1 150.25 112.5 152.05 106.15 149.55 98.3 149.2 97.25 148.85 96.75 148.25 95.9 147.4 95.9 146.3 95.9 145.7 97.15 145.45 97.7 145.45 98.7 144.8 99.25 144.05 99.65 143.1 100.2 142.45 99.9 141.75 99.5 141.5 98.35 140.75 95.4 140.7 91.75 140.7 89.15 141.1 85.05 142 76 142.35 71.45 142.5 69.45 142.6 67.55 143.05 67.95 143.75 68.15 144.55 68.4 146.2 68.3 154.85 67.65 162.5 63.75 170.45 59.7 175.5 53.1 178.5 49.15 179.5 45.3 180.7 40.45 178.8 36.7
M 171.25 36.8
Q 173.15 38.15 173.75 39.85 174.75 42.7 172.5 46.65 168.7 53.4 161.25 57.7 154.8 61.45 146.35 62.9 144.2 63.25 143.3 63.85 142.95 64.05 142.75 64.25 142.9 60.75 142.75 57.8 142.5 50.9 140.55 46.7 139.75 43.25 138.3 40.25 137.1 37.85 135.25 35.15 130.9 29.05 125.5 24.55 138.85 27.7 149.9 30.15 156.35 31.6 158.85 32.25 163.8 33.55 167.55 34.95 169.9 35.85 171.25 36.8
M 113.05 52.25
Q 117.05 53.35 118.9 55.8 120.8 58.2 121.6 59.9 122.3 61.55 121.8 63.95 121.25 66.3 118.4 68.7 115.75 71 112.35 72.1 106.5 73.95 98.5 72.6 94.6 71.95 92.1 70.75 88.6 68.95 87.75 66.1 87.3 64.55 87.6 62.35 87.8 60.7 88.25 59.5 89.25 57.05 93.2 54.3 95.3 52.9 96.6 52.4 98.7 51.55 103.2 51.35 109.05 51.2 113.05 52.25
M 83.1 67.05
Q 83.85 69.95 86.2 72.35 88.4 74.55 91.5 75.8 96.15 77.6 103.95 77.2 105.2 77.15 106.35 77.05 106.35 77.2 106.3 77.3 105.85 80.75 105.55 85.45 105 94.3 104.8 100.65 104.8 101.95 105.05 102.75 103.85 103.05 102.95 103.2 101.75 103.05 99.65 103.55 98.3 103.8 95.8 104.2 93.1 104.6 92 104.85 89.7 105.3 88.55 105.9 86.75 106.95 86.35 108.6 86.15 109.3 86.35 109.95 86.7 110.95 87.85 111.15 88.8 111.3 89.75 110.7
L 90.35 110.2
Q 90.7 110 91.2 109.95 91.5 109.9 92.05 109.8
L 91.15 111.3 90.85 112.6
Q 90.8 112.75 90.8 112.95 90.2 113.1 89.2 113.5 87.95 114 87.45 114.1 86.85 114.35 86.7 114.4 86.35 114.65 86.4 115 86.5 115.4 87.05 115.5 87.4 115.5 87.85 115.3 89.25 114.75 90.7 114.25 90.65 115.25 90.75 115.9 90.9 116.75 91.3 117.45 74.45 117.5 56.45 117.05 57.25 115.55 58.25 113.75 59.2 114.05 61.15 114.15 63.15 114.2 64.05 114.5 64.6 114.7 64.85 114.65 65.1 114.6 65.25 114.45 65.35 114.2 65.25 114.05 65.2 113.9 64.85 113.8 61.5 112.7 59.05 112.3
L 60.25 110.1
Q 60.9 108.75 60.9 108.1 60.9 108 60.9 107.85 61.75 108 62.65 108.1 62.55 109.3 63.45 110.05 64.4 110.9 65.55 110.45 66.5 110.15 66.8 109.05 67.05 108.25 67 107 66.9 105.4 66.1 104.65 65.45 104.05 64 103.9 62.45 103.65 61.15 103.65 59.95 103.65 59.4 103.6 58.85 103.55 57.75 103.25
L 55 102.7
Q 54.4 100.4 53.15 98.4 51.15 95.4 47.8 93.8 44.4 92.2 40.9 92.6 39.85 92.7 38.8 93.05 38.7 92.7 38.45 92.35 38.25 92.05 37.85 91.75
L 37.1 91.15
Q 37.05 91.05 35.75 89.3 34.7 88 34.25 87.25 33.1 85.5 32.7 82.55 32.5 79.15 32.25 77.5 32.25 77.45 32.25 77.4 33.8 77.75 35.6 77.95 37.6 78.15 41.75 78.2 46.3 78.2 48.55 78 52.3 77.65 55.05 76.4 57.45 75.45 60.25 73.2 63.5 70.5 64.75 67.9 64.85 67.7 64.95 67.4 65.65 67.4 66.7 67.35 69.65 67.1 75.2 66.75 79.1 66.55 81.05 66.8 82.55 67.05 83.05 67.05
L 83.1 67.05
M 16.3 35.05
Q 15.05 37 13.9 39.05 10.3 45.7 8.65 53.15 7.85 56.75 7.3 61.35 7 64.15 6.6 69.8 6.55 70.4 6.5 71.05 5.55 70.85 4.2 70.8 -3.4 70.25 -9.5 65.7 -13.1 63.05 -14.4 59.95 -15.15 58.1 -15.05 56.2 -14.9 54.1 -13.8 52.65 -12.9 51.4 -9.9 49.7
L 16.3 35.05
M 28.35 59.8
Q 29 58.9 30.35 57.95 36.8 53.2 44.7 51.9 49.8 51.1 53.5 52.4 56.6 53.5 58.85 56 60.95 58.25 61.65 61.15 61.95 62.2 62 63.15 61.8 63.45 61.65 63.8 61.4 64.6 61.6 65.35 61.05 66.95 59.4 68.6 55.1 72.85 46 74.05 36.4 75.3 30.55 72.15 28.45 70.95 27.55 69.65 25.6 66.8 27.05 62.3 27.65 60.7 28.35 59.8
M 65.45 122.85
Q 65.65 122.2 66.15 121.75 66.7 121.25 67.4 121.1 68.15 120.9 69.95 121.5 71.65 122.15 72.7 122.55 73.65 121.95 74.8 121.3 76.3 120.4 77.05 120.35 78.6 120.2 79.45 121.4 79.85 121.95 79.95 122.7 80 123.45 79.7 124.05 79.4 124.5 78.75 125.05
L 78.85 125.1
Q 79.7 125.5 80.15 126.05 80.95 127.1 80.6 128.35 80.15 129.6 78.9 129.95 78.05 130.25 76.4 129.8 75.25 129.45 73.1 128.45
L 71.55 129.35
Q 70.55 129.95 69.6 130.3 68.75 130.6 68.1 130.6 67.3 130.65 66.55 130.05 65.8 129.5 65.8 128.6 65.8 127.5 66.7 126.7 66.9 126.5 67.4 126.15 67.05 126 67 125.95 66.45 125.75 66.1 125.4 65.6 124.9 65.45 124.2 65.25 123.5 65.45 122.85
M 56.6 106.9
Q 55.9 107.45 55.25 108.05 55.35 107.25 55.4 106.5 55.45 106.55 55.5 106.55
L 56.6 106.9
M 49.4 115.65
Q 49.35 115.6 49.35 115.55 49.4 115.55 49.45 115.55
L 49.4 115.65
M 132.05 39.95
Q 134.25 43.35 135.2 46.45 135.4 47.25 136.15 50.4 136.7 52.65 137.3 54.05 137.95 61.55 136.7 73.65 135.15 89.05 135.05 93.55 134.95 98.7 136.15 101.5 137.05 103.45 138.55 104.75 140.25 106.15 142.15 106.3 143.9 106.45 145.55 105.55 145.75 105.4 145.95 105.35 146.2 108.8 145.55 111.1 145.15 112.45 143.8 114.9 142.25 117.7 141.25 118.95 139.6 121.05 137.5 121.85 137.25 121.95 137.05 122
L 137 121.95
Q 136.1 121.3 135.3 122 135 122.3 134.75 123.1 134.15 123.55 134 124.2 133.85 124.7 134.1 125.2
L 133.6 126.75
Q 133.05 128.25 132.9 128.6 132.7 128.95 131.45 130.5 131.1 130.95 130.35 131.85 129.7 132.7 129.15 133.15 128.45 133.8 126.65 134.85 126.265234375 135.0857421875 125.9 135.3 126.0162109375 134.6525390625 126.05 134.45 126.25 133.1 126.4 130.95 126.6 128.2 126.7 127.4 127.4 122.6 127.55 120.2 127.7 116.2 127.1 113 126.2794921875 108.637890625 124.3 106.35 123.7369140625 105.4087890625 123.05 104.55 120.4 101.45 117 100.85 114.1 100.25 109.4 101.6 109.3 101.65 109.1 101.7 109.1 101.4 109 101.05 108.85 100.4 108.75 100.05 108.5 99.05 108.6 97.5
L 108.9 83.95
Q 109.15 79.5 109.35 78 109.4 77.15 109.4 76.65 114.8 75.8 118.45 73.6 123.45 70.6 125.65 65.5 126.05 65.65 126.55 65.8 128.05 66.15 128.95 65.9 130.25 65.7 130.95 64.7 131.65 63.5 130.95 62.4 130.45 61.8 129.35 61.45 128.05 61.05 126.75 60.85 126.75 60.45 126.7 60.1 126.45 56.8 123.55 53.8 119.5 49.7 112.05 48.25 103.25 46.6 94.75 49.3 87.05 51.75 84.4 56.75 83.1 59.15 82.9 62.55 80.65 62.1 77.55 62.25 73.6 62.6 71.6 62.65 68.65 62.7 65.8 62.25 65.7 61.5 65.6 60.75 64.95 57.05 62.5 54.05 59.1 49.9 53.85 48.5 50.55 47.7 46.85 48 43.95 48.15 41.15 48.9
L 40.7 47.95
Q 40.3 47.2 40.25 46.65 40.1 45.95 40.25 44.55
L 40.8 40.05
Q 40.9 39.15 41.1 38.75
L 41.6 37.75
Q 41.8 36.95 42.05 36.6 42.3 35.95 42.25 35.85 42.2 35.6 41.95 35.5 41.7 35.4 41.5 35.5 41.1 35.6 40.85 36.2
L 40.2 37.4 39.35 38.1
Q 39 38.4 38.6 39.1 36.85 42.25 36.45 45.6 36.2 47.25 36.55 48.6 36.65 49.05 37.2 50.2 36.75 50.4 36.3 50.55 31.15 52.7 27.15 56.4 24.75 58.55 23.55 60.65 22.05 63.35 22.05 66.55 22.05 67.05 22.15 67.55 21.65 67.75 21.1 68.15 19.7 69.05 19.4 69.5 18.85 70.45 19.3 71.55 19.8 72.7 20.9 72.8 21.75 73 22.8 72.45 23.15 72.25 23.65 71.9 23.8 72.1 23.9 72.3 25.7 74.9 28.85 76.3 28.55 76.9 28.45 77.9 27.95 83.5 29.4 87.25
L 30.05 88.65
Q 31.1 90.6 34.05 93.85 34.45 94.3 34.8 94.6 34.75 94.65 34.65 94.7 31.7 96.25 29.95 98.15 27.75 100.55 27.35 103.3 27.2 104.55 27.4 106 28.25 107.75 28.8 108.9 28.2 109.2 27.5 109.8 25.7 111.45 24.1 114.1 23.05 115.85 21.55 119.05 21.4 119.35 21.3 119.55 19.1 122.7 17.95 126.1 17.05 129.05 17.1 132.1 17.1 132.6 17.15 133.15 15.4 130.45 14.6 129 13.25 126.6 12.75 124.45 12.25 122.4 12.4 119.95 12.6 118 12.35 117.35 11.9 116.2 10.7 115.85 10.2 115.7 9.75 115.8 7.35 114.4 5.4 112.7 0.9 108.8 -1.25 103.9 -3.65 98.35 -2.65 93.05 -1.55 94.65 0.45 95.25 2.45 95.85 4.25 95.05 7.4 93.7 8.75 89.05 9.85 85.45 9.95 80.85 10 78.7 9.8 75.3 10.05 72.7 10.3 69.8 11.5 57.9 13.2 51.75 16.3 40.5 23.55 32.9 25.5 30.85 28.1 28.75 31.5 26.05 34.25 24.45 41.65 20.1 51.75 19.45 58.5 19.05 69.8 20.45 70.65 20.55 71.05 20.4 71.25 20.3 71.45 20.05 72.1 19.95 73.25 19.8 77.2 19.1 82.45 19.05 83.95 19 91.6 19.05 98 19.05 99.8 19.1 103.85 19.3 107.05 20 108.2 20.4 109.55 20.75 115.65 22.7 121.2 27.3 127.35 32.4 132.05 39.95
M 40.45 97.5
Q 43.2 96.9 45.95 98.2 48.6 99.5 49.9 102.05 51.15 104.55 50.6 107.55 50.05 110.45 48 112.4 47.4 113.05 46.55 113.55 45.95 113.85 45.85 114.1 45.7 114.7 46.35 114.95 46.5 115 47.05 115.1
L 46.6 115.8
Q 45.6 117.4 45.2 120.55 44.9 122.6 44.45 126.65 44 130.15 43.15 132.55 41.3 137.7 36.9 141 34.45 142.9 32.05 143.1 28.8 143.4 25.6 140.5 23.15 138.2 22.5 135.85 22.2 134.85 22.1 132.25 22.1 129.35 22.5 127.95 22.9 126.2 24.5 123.55 27.65 118.2 31.7 113.35 32.6 112.25 32.5 111.55 32.85 111.4 33.05 110.95 33.35 110.4 33.1 109.95 32.95 109.65 32.6 109.3 32.15 108.9 32.05 108.7 31.8 108.3 31.6 107.4 31.15 104.75 31.9 103.15 32.55 101.75 35.25 100 38.45 97.95 40.45 97.5
M 73.1 128.25
Q 73.75 128.1 74.25 127.55 75 126.8 75.15 126.05 75.35 125.05 74.7 124.4 74 123.7 72.5 123.9 71.75 123.9 71.4 124.15 70.9 124.45 70.7 124.95 70.25 125.8 70.45 126.6 70.6 127.5 71.4 128 72.15 128.5 73.1 128.25
M 37.5 66.05
Q 38.5 66.5 39.9 66.4 40.7 66.35 42.45 66.05 45.85 65.4 50.75 64.9 51.95 64.7 52.5 64.5 53.5 64.2 53.95 63.5 54.6 62.65 54.25 61.55 53.9 60.45 52.85 60.2 52.35 60 51.35 60.1 49.05 60.3 45.65 60.9
L 43 61.35
Q 39.8 61.9 38.2 62.5 37.3 62.8 36.85 63.25 36.15 63.9 36.25 64.65 36.4 65.55 37.5 66.05
M 68.9 91.55
Q 68.35 91.9 68.2 92.65 68 93.35 68.4 93.9 68.9 94.5 70.05 94.7 70.7 94.75 71.95 94.65 72.3 96.5 73.45 98.05 74.35 99.15 76.45 100.75 77.35 101.3 77.65 101.45 78.4 101.75 79 101.5 79.7 101.25 80.2 100.3 81.45 97.7 81.05 93.15 80.95 92.1 80.75 91.6 80.45 90.8 79.8 90.4 79.35 90 78.3 90 76.9 90 74.5 90.5 71.75 91.05 70.7 91.15 69.45 91.25 68.9 91.55
M 74.25 94.35
Q 75.85 93.95 77.5 93.8 77.7 95.15 77.6 97.05 77.5 97.75 77.3 97.95 75.65 95.4 74.25 94.35
M 111.2 60.5
Q 110.3 59.8 108.1 59.9 104.4 59.9 102.55 59.9 99.25 59.9 97.05 60.25 95.95 60.4 95.5 60.75 94.75 61.35 94.75 62.25 94.75 63.25 95.5 63.8 95.95 64.1 97.05 64.3 99.1 64.65 102.4 64.6 107.3 64.6 107.8 64.6 109 64.7 109.65 64.6 110.75 64.45 111.3 63.95 112.1 63.2 112.05 62.2 112.05 61.2 111.2 60.5
M 78 -2.75
Q 76.55 -3 74.3 -2.7 71.7 -2.3 69.95 -1.4 68.35 -0.6 66.85 0.85 65.7 2.05 65.15 3.05 64.3 4.6 64.3 6.85 64.3 9.4 65.45 11.75 66.05 12.95 66.95 13.6 68.05 14.5 70.05 14.5 71.6 14.5 72.35 13.75 72.9 13.15 72.75 12.25 72.5 11.35 71.7 11 70.9 10.85 70.55 10.65 69.95 10.4 69.55 9.6 68.8 8.15 69.1 6.5 69.4 4.8 70.7 3.75 71.9 2.75 74.55 2.25 77.2 1.7 78.4 2.4 79.15 2.8 79.95 4.1 80.4 4.75 80.3 5.15 80.25 5.7 79.5 5.9 79.15 6 78.35 6 77.85 6.1 77.55 6.1 77.1 6.15 76.8 6.05 76.5 5.95 76.05 5.6 75.45 5.2 75.3 5.1 74.6 4.75 73.7 5.05 72.85 5.35 72.45 6.1 72.05 6.8 72.1 7.7 72.2 8.55 72.7 9.2 73.65 10.55 75.5 10.85 76.95 11.2 78.8 10.85 83 10.2 84.35 7.65 85.1 6.35 84.95 4.6 84.8 3.05 83.95 1.6 82.95 -0.1 81.5 -1.25 79.85 -2.4 78 -2.75 Z"/>
</g>
</defs>

<g transform="matrix( 1, 0, 0, 1, 0,0) ">
<use xlink:href="#Layer0_0_FILL"/>
</g>
</svg>
