
<svg xmlns="http://www.w3.org/2000/svg" version="1.1" xmlns:xlink="http://www.w3.org/1999/xlink" preserveAspectRatio="none" x="0px" y="0px" width="300px" height="300px" viewBox="0 0 300 300">
<defs>
<g id="daniel_0_Layer1_0_FILL">
<path fill="#0F0035" stroke="none" d="
M 244.25 76
Q 243.8 73.2 243.25 72.25 242.75 71.4 242 70.85 241.3 70.45 240.55 70.45
L 241.4 68.55
Q 241.95 67.35 241.95 66.9 241.85 66.4 241.25 65.1 240.75 64.15 240.3 64 239.75 63.75 239.05 64.05 238.05 64.5 237.2 66.2 236.25 67.7 235.75 68.95 224.95 48.55 207.95 32.45 190.8 16.25 169.6 6.4 166.15 4.8 164 5.55 161.75 6.4 160.8 9.35
L 159.55 7.9
Q 156.3 4.05 154.25 2.55 152.6 1.5 152.35 1.35 150.85 0.3 150.55 0.2 149.1 -0.3 147.9 0.55 146.65 1.45 146.65 2.9 146.65 4.45 147.95 5.6 148.65 6.35 150.4 7.4 152.95 8.85 154.2 10.1 154.4 10.35 154.75 10.7 151.5 9.65 147.9 8.85 146 8.3 144.5 8.05 144.05 8 141.75 7.8 141.05 7.7 135.5 6.4 129.95 5.1 113.4 5 96.8 4.95 80.65 7.6 64.4 10.15 49 18 41.3 21.9 28.55 31.05 26.05 32.8 24.8 34.15 23 36.1 22.8 38.1 22.55 40.3 24.35 43.25 24 43.25 23.7 43.3 20.85 43.75 16.25 45.35 13.6 46.3 12.95 47.5 12.35 49 13.1 50.3 13.8 51.6 15.4 51.8 16.3 51.9 17.4 51.55 18.05 51.35 19.35 50.85 20.95 50.2 23.6 49.6 15.75 62.85 10.5 77.75 4.45 95 2.35 113.2 1.95 116.5 1.3 123.75 0.7 130.65 0.25 134.35 -0.1 136.85 0 138.2 0.15 140.3 1.1 141.55 2.45 143.25 5.25 143.55 6.85 143.75 10 143.5 8.9 145.15 8.2 147.05 7.6 148.9 7.75 149.9 8 151.15 9.05 151.95 10.05 152.75 11.3 152.7 13.2 152.55 14.5 150.75 14.7 150.45 14.95 150.1 15.4 151.1 15.9 151.8 18.75 156.3 26 161.3 39 170.3 50 171.35 50.55 171.4 51.1 171.4 52.5 172.4 54.75 172.15 56.25 172 59.05 171.2 59.1 171.2 64.55 170.7 66.45 170.5 67.9 170.05 67.6 171 67.25 172 65.15 178.95 61.3 192.95 60.9 194.4 60.65 195.7 60.45 195.75 60.25 195.85 59.25 196.45 58.8 197.45 58.45 198.1 58.2 199.6 58 201.45 58.4 202.75 58.95 204.9 61.55 207.05 64.5 209.6 69.9 212.05 77.95 215.75 83.65 214.6 84.5 214.35 85.1 214.15 86.05 214.65 87.15 215.2 90.2 216.6 94.4 217.1 97.15 217.4 102 217.4 113.65 217.4 128.15 216.8 138.75 216.3 145.25 215.45 148.7 215.05 155.55 214 161.6 213.2 165.75 213.1 169.6 213 170.9 212.85 173.1 212.55 174.6 211.7 175.25 211.85 176.2 211.9 177.95 211.9 180.1 211.6 188.8 210.4 193.45 207.95
L 199.85 203.95
Q 200.2 203.75 200.5 203.55 201.35 203.25 202.15 202.45 202.65 202 202.95 201.45 203.5 200.7 203.85 199.85 204.5 198.35 204.25 197.05 204.05 195.8 203.2 194.9 203.15 194.75 203.1 194.55 199.95 180.85 194.65 170.65 195.3 170.4 196.05 170 199.35 168.3 200.5 166.25 200.95 165.5 201.05 164.65 206.25 164 213.95 161.75 221.65 159.6 225.5 157.55 228.65 155.85 233.75 152 235.7 150.55 236.2 149.5 236.9 148 236.2 144.85
L 234.15 135.65
Q 235.05 136.1 236.15 136.3 238.25 136.65 239.35 136.2 240.95 135.55 241.4 133.85 241.85 132.3 240.9 130.7 240.25 129.75 238.3 128.6 236.45 127.55 235.15 127.25 242.4 116.75 244.4 102.55 245.95 91.25 244.25 76 Z"/>
</g>

<g id="daniel_0_Layer0_0_FILL">
<path fill="#0F0035" stroke="none" d="
M 244.25 76
Q 243.8 73.2 243.25 72.25 242.75 71.4 242 70.85 241.3 70.45 240.55 70.45
L 241.4 68.55
Q 241.95 67.35 241.95 66.9 241.85 66.4 241.25 65.1 240.75 64.15 240.3 64 239.75 63.75 239.05 64.05 238.05 64.5 237.2 66.2 236.25 67.7 235.75 68.95 224.95 48.55 207.95 32.45 190.8 16.25 169.6 6.4 166.15 4.8 164 5.55 161.75 6.4 160.8 9.35
L 159.55 7.9
Q 156.3 4.05 154.25 2.55 152.6 1.5 152.35 1.35 150.85 0.3 150.55 0.2 149.1 -0.3 147.9 0.55 146.65 1.45 146.65 2.9 146.65 4.45 147.95 5.6 148.65 6.35 150.4 7.4 152.95 8.85 154.2 10.1 154.4 10.35 154.75 10.7 151.5 9.65 147.9 8.85 146 8.3 144.5 8.05 144.05 8 141.75 7.8 141.05 7.7 135.5 6.4 129.95 5.1 113.4 5 96.8 4.95 80.65 7.6 64.4 10.15 49 18 41.3 21.9 28.55 31.05 26.05 32.8 24.8 34.15 23 36.1 22.8 38.1 22.55 40.3 24.35 43.25 24 43.25 23.7 43.3 20.85 43.75 16.25 45.35 13.6 46.3 12.95 47.5 12.35 49 13.1 50.3 13.8 51.6 15.4 51.8 16.3 51.9 17.4 51.55 18.05 51.35 19.35 50.85 20.95 50.2 23.6 49.6 15.75 62.85 10.5 77.75 4.45 95 2.35 113.2 1.95 116.5 1.3 123.75 0.7 130.65 0.25 134.35 -0.1 136.85 0 138.2 0.15 140.3 1.1 141.55 2.45 143.25 5.25 143.55 6.85 143.75 10 143.5 8.9 145.15 8.2 147.05 7.6 148.9 7.75 149.9 8 151.15 9.05 151.95 10.05 152.75 11.3 152.7 13.2 152.55 14.5 150.75 14.7 150.45 14.95 150.1 15.4 151.1 15.9 151.8 18.75 156.3 26 161.3 39 170.3 50 171.35 50.55 171.4 51.1 171.4 52.5 172.4 54.75 172.15 56.25 172 59.05 171.2 59.1 171.2 64.55 170.7 66.45 170.5 67.9 170.05 67.6 171 67.25 172 65.15 178.95 61.3 192.95 60.9 194.4 60.65 195.7 60.45 195.75 60.25 195.85 59.25 196.45 58.8 197.45 58.45 198.1 58.2 199.6 58 201.45 58.4 202.75 58.95 204.9 61.55 207.05 64.5 209.6 69.9 212.05 77.95 215.75 83.65 214.6 84.5 214.35 85.1 214.15 86.05 214.65 87.15 215.2 90.2 216.6 94.4 217.1 97.15 217.4 102 217.4 113.65 217.4 128.15 216.8 138.75 216.3 145.25 215.45 148.7 215.05 155.55 214 161.6 213.2 165.75 213.1 169.6 213 170.9 212.85 173.1 212.55 174.6 211.7 175.25 211.85 176.2 211.9 177.95 211.9 180.1 211.6 188.8 210.4 193.45 207.95
L 199.85 203.95
Q 200.2 203.75 200.5 203.55 201.35 203.25 202.15 202.45 202.65 202 202.95 201.45 203.5 200.7 203.85 199.85 204.5 198.35 204.25 197.05 204.05 195.8 203.2 194.9 203.15 194.75 203.1 194.55 199.95 180.85 194.65 170.65 195.3 170.4 196.05 170 199.35 168.3 200.5 166.25 200.95 165.5 201.05 164.65 206.25 164 213.95 161.75 221.65 159.6 225.5 157.55 228.65 155.85 233.75 152 235.7 150.55 236.2 149.5 236.9 148 236.2 144.85
L 234.15 135.65
Q 235.05 136.1 236.15 136.3 238.25 136.65 239.35 136.2 240.95 135.55 241.4 133.85 241.85 132.3 240.9 130.7 240.25 129.75 238.3 128.6 236.45 127.55 235.15 127.25 242.4 116.75 244.4 102.55 245.95 91.25 244.25 76
M 165.2 19.55
Q 165.65 19.5 166.1 19.4 168.45 18.8 168.9 16.85 188.65 26.05 204.4 41.4 220.15 56.7 229.9 76.1 231.3 79.05 232.55 80.05 233.45 80.85 234.65 81.15 235.9 81.45 236.95 80.9 239.65 92.05 237.85 103.95 235.95 115.8 229.95 126.2 228.9 128.1 229.15 129.15 228.25 129.75 227.9 130.75 227.45 132.05 227.95 135.05
L 229.95 145.25
Q 230.1 145.95 230 146.3 229.85 146.9 229.15 147.5 223 153.05 211.55 156.35 204.05 158.4 198.25 158.65 196.5 158.8 195.7 159.1 194.35 159.5 193.9 160.5 193.6 161.2 193.75 162.05 193.3 162.5 193 162.75 192.5 163.15 191.5 163.65 191 163.85 190.65 164.1 188.7 161.1 186.45 158.55 183.45 155.1 181 153.6 178.65 152.2 175.95 151.5 184.35 148.7 191.3 145.2 192 144.8 192.65 144.45 193.05 145.35 193.65 145.85 195.05 146.9 196.6 146.05 198.1 145.3 198.2 143.5 198.2 142.85 197.9 142.05 197.5 141.1 197.35 140.65 196.75 139.3 195.85 136.1
L 194.85 132.05
Q 194.3 129.9 193.8 127.65 193.2 124.15 193.05 119.25 193.05 118.05 192.95 117.15 196.7 117.15 199.8 116.4 205.55 114.85 206.85 110.8 207.55 108.25 206.25 105.3 204.45 101.5 200.15 99 197.1 97.3 191.8 95.85 191.15 95.7 190.5 95.55 190.3 94.75 189.9 93.4 189.55 92.1 189.45 90.1
L 189.2 86.7
Q 189.1 84.4 187.95 83.6 186.8 82.8 184.5 83.25 181.1 83.9 167.55 86.8
L 149.15 91
Q 148.95 90.95 148.7 90.9 147.75 90.8 145.35 91.15 136.5 92.9 126.7 93
L 129.6 88.05
Q 131.25 85.3 130.35 83.85 129.45 82.2 125.95 82.7 99.35 86.3 84.3 89.25 61.5 93.75 43.85 100.35 37.9 102.5 38 106.05 38.05 107.4 39.05 108.4 40.05 109.45 41.35 109.5 42.05 109.6 43.15 109.2 43.3 109.85 43.75 110.45 44.5 111.75 46.3 113 47.3 113.7 49.35 115.1 49.65 115.35 51.2 116.65 51.85 117.15 52.35 117.5
L 55.3 118.15
Q 56.45 118.45 57.2 118.8 58.35 118.9 60.1 119.25 60.15 119.85 60.25 120.85 60.65 123.8 59.85 129.55
L 59.4 132.7
Q 59.2 133.85 58.75 136.2 58.55 137.05 58.45 137.85 57.45 139.05 57.7 140.75 57.75 141.2 57.9 141.75 57.7 142.4 57.15 143.5 56.7 145.35 58 146.65 58.6 147.25 59.5 147.35 60.35 147.5 61.15 147.1 61.7 146.75 62.2 146 62.3 146.1 62.4 146.2 68.1 149.55 71.4 150.45 73.05 150.9 75.45 151.2 76.8 151.35 79.45 151.65 80 151.7 81 151.95 78.95 153.2 76.55 156 72.7 160.35 70.75 163.5 70.2 162.95 69.25 162.7 68.2 162.45 65.4 163.1 64.05 163.4 61.3 163.55 58.55 163.75 57.2 164.05 55.25 164.65 54.25 164.8 53.4 165 52.85 165.15 52.45 164.85 52 164.7 51.3 164.4 49.2 163.8 41.2 161.75 35.05 156.2 32.6 154.05 29 149.7 27.25 147.75 26.1 145.95 24.35 143.15 23.4 139.7 22.7 137.05 22.5 136.55 21.85 134.8 20.85 133.75 19.7 132.5 17.95 132.25 16.75 132.05 15.65 132.3 13.65 132.3 10.75 133.1 9.7 113.6 14.2 93.95 18.65 74.3 28.15 56.5 30.4 52.35 30.95 51.45 31.95 49.4 32.65 47.65 34 46.75 34.65 45.35 35.35 43.95 35.1 42.3 34.85 40.8 33.85 39.6 50.75 24.85 72 18.9 83.25 15.7 94.15 13.95 105.05 12.2 120.4 12.5 135.7 12.8 140.65 13.85 145.55 14.9 147.65 15.1 148.95 15.4 150.55 15.9
L 154.35 17
Q 156.65 17.7 157.7 18.15 157.85 18.25 159.3 19.1 160.35 19.6 161.05 19.9 163.3 20.8 164.85 19.8 165.05 19.65 165.2 19.55
M 170 91.85
Q 169.95 91.85 169.9 91.85 179.6 89.65 183.65 89.05
L 185 94.35
Q 178.8 93.1 170 91.85
M 193 105.65
Q 195.2 106.5 196.85 107.4 195.5 108.35 192.15 108.3 188.45 108.1 187.5 108.05 186.2 107.9 185.2 107.8 193.75 108.95 186.55 108.3 179.3 107.65 174.4 106.55 169.5 105.35 166 104.05
L 162.4 102.65
Q 158.1 101 156.4 99.5 165.8 99.95 174.95 101.85 179.95 102.85 180.5 102.9 182.05 103.15 185 103.45 186.3 103.6 188.75 104.3 191.95 105.3 193 105.65
M 187.65 116.75
Q 187.6 117.05 187.5 117.4 187 121.7 188.3 127.9
L 190.3 135.85
Q 189.6 136.1 188.9 136.5 188.5 136.8 186.6 138.25 182.95 141 175.65 143.45 161.7 148.05 147.35 149.6 145.45 149.85 144.2 150.25
L 143.25 159.25
Q 142.2 160.5 142.7 161.75 142.8 162 142.9 162.25 143.55 163.2 145.15 163.4 145.3 163.4 145.55 163.45 145.5 163.9 145.5 164.55 145.3 168.3 143.7 171.4 141.7 175.5 138.05 177.55 134.3 179.85 130 179.05 128.45 178.75 126.4 177.8 122.1 175.6 119 171.3 116.05 167.15 114.95 162.05 114.9 161.75 114.85 161.6 114.9 161.55 114.95 161.55 114.7 160.65 114.65 160.15
L 114.5 158.2 114 156.35
Q 113.85 154.35 113.75 153.35 113.15 150.95 113.05 149.75 113.05 149.7 113.05 149.6 112.15 149.35 110.85 149.2 103.55 148.65 99.9 148.3 93.4 147.75 89 147 76.55 144.8 68.65 138.95 66.45 137.3 66.15 137.05 65.1 136.45 64.15 136.15 65.1 130.45 65.35 127.3 65.7 122.65 65.05 118.85 79.5 117.75 92.3 113.2 102.05 109.7 105.5 104.45 107.3 101.75 107.3 99.15 107.3 95.85 105.05 94.1 102.75 92.4 97.9 93 94.25 93.35 88.8 94.15
L 80.15 95.4
Q 81.95 94.9 83.9 94.45 100.15 90.55 124.9 87.4 124.65 88.7 123.4 90 121.95 91.5 121.25 92.25 120.1 93.5 119.85 95.1 119.55 96.85 120.7 97.7 121.5 98.45 123.3 98.45 132.75 98.95 145.25 96.85 145.2 97.8 145.45 98.8 146.35 103.35 150.85 106.5 153.95 108.75 159.55 110.45 167.15 112.9 181.4 115.7 184.95 116.4 187.65 116.75
M 176.85 159.1
Q 179.1 160.25 181.15 162.65 182.55 164.2 184.5 167.2 189.9 175.7 191.7 182.15 192.5 184.9 193.2 189.85 193.95 195.4 194.4 197.55 194.45 197.85 194.6 198.15 193 199.25 190.65 200.65 186.7 202.85 184.55 203.6 181 204.6 179.25 205.15 179 205.2 178.75 205.3 178.9 204.65 178.95 204.05 179.4 199.85 177.65 194.35 175.4 188.05 174.25 184.9 173.15 181.55 172.05 180.45 171.1 179.5 169.85 179.3 168.45 179.05 167.55 179.85 166.85 183.05 168.5 187.5 169.4 190 171.6 195 173.2 199.65 172.75 204.5 172.65 206 172.1 206.65 171.35 207.65 169.05 208 160.5 208.95 156.25 209.7 148.35 211.6 144.4 212.15 138.7 212.95 128.15 212.25 111.9 211.35 104 209.85 98.4 208.9 93.2 207.35 90.95 206.65 90.25 205.65 89.5 204.6 89.75 201.95
L 92.3 179.05
Q 92.85 175.3 90.85 174.45 89.8 173.95 88.55 174.65 87.6 175.25 86.75 176.4 84.3 179.85 83.1 185.65 82.4 188.95 81.35 195.75 80.1 202.05 80.05 202.7 79.8 205.25 80.2 207.35 78.2 206.7 76 205.7 73.45 204.6 68.55 201.75 67.2 200.8 66.9 200.4
L 72.7 179.3
Q 74.5 172.95 75.35 170.95 77.9 165 82.25 160.55 83.8 158.95 85.1 158.45 86.05 158.15 88.05 158.15 94.8 158.15 98.55 158.4 104.35 158.75 108.9 159.8 109.3 159.9 109.65 159.95 109.25 161.35 109.95 163.7 111.55 168.75 112.6 170.65 113.9 173.05 116.4 175.6 120.85 180.25 125.3 182.3 131.05 184.95 136.15 183.4 138.75 182.65 141.75 180.5 147 176.6 149.15 171.35 150.85 167.1 150.2 162.75 150.2 162.5 150.15 162.35
L 159.2 159.65
Q 164.75 158.05 168 157.7 173.05 157.2 176.85 159.1
M 69.65 109.8
L 66.15 110.35
Q 65 110.45 62.6 110.45
L 59.65 110.5
Q 58.1 110.5 57.4 110.15 56.85 109.85 56.6 109.35 56.3 108.8 56.45 108.3 61.15 106.75 68.2 105.85 72.15 105.3 80.1 104.3 80.75 104.2 88.05 102.85 92.85 101.95 96.05 101.65 88.85 105.3 80.7 107.45 76.9 108.45 69.65 109.8
M 133.5 123.3
Q 131.9 123.25 131.05 123.25 129.65 123.3 127.35 123.75 124.7 124.25 123.6 124.35
L 115.9 124.45
Q 114.85 124.05 114.25 123.95 113.2 123.65 112.2 124.05 111.15 124.45 110.75 125.4 110.4 126.15 110.7 127.1 111 127.95 111.7 128.6 112.25 129.15 113.05 129.5 113.05 129.65 113.1 129.85 113.25 130.55 114 131.75 114.25 132.25 114.55 133.2 114.9 134.1 115.55 134.9 116.65 136.35 118.65 138.35 119.5 139.25 120.25 139.75 121.05 140.2 122.8 140.7 126.45 141.55 128.95 141.25 132.55 140.85 134.45 138.6 135.25 137.65 136.05 135.8 137.15 132.95 137.45 130.45 137.6 129.2 137.45 128.3 137.55 128.3 137.6 128.25 138.85 127.9 139.65 126.95 140.5 125.9 140.4 124.75 140.35 123.7 139.35 123 138.4 122.25 137.35 122.5 137.15 122.55 135.95 122.95 135 123.3 133.5 123.3
M 132.2 128.7
Q 132.1 128.95 132.05 129.3
L 131.5 132.25
Q 131 134.55 130 135.15 129.35 135.65 127.85 135.65 125.4 135.8 124.3 135.4 122.15 134.6 120.5 131.25
L 119.95 130.05
Q 122.2 130 123.65 129.9 123.6 130 123.6 130.2 123.35 131.75 123.65 132.5 124 133.2 124.65 133.55 125.45 134 126.4 133.75 127.35 133.45 127.9 132.7 128.95 131.4 128.65 129.25
L 128.65 129.2
Q 130.75 128.8 132.2 128.7 Z"/>

<path fill="#F1FFE1" stroke="none" d="
M 66.15 110.35
L 69.65 109.8
Q 76.9 108.45 80.7 107.45 88.85 105.3 96.05 101.65 92.85 101.95 88.05 102.85 80.75 104.2 80.1 104.3 72.15 105.3 68.2 105.85 61.15 106.75 56.45 108.3 56.3 108.8 56.6 109.35 56.85 109.85 57.4 110.15 58.1 110.5 59.65 110.5
L 62.6 110.45
Q 65 110.45 66.15 110.35
M 196.85 107.4
Q 195.2 106.5 193 105.65 191.95 105.3 188.75 104.3 186.3 103.6 185 103.45 182.05 103.15 180.5 102.9 179.95 102.85 174.95 101.85 165.8 99.95 156.4 99.5 158.1 101 162.4 102.65
L 166 104.05
Q 169.5 105.35 174.4 106.55 179.3 107.65 186.55 108.3 193.75 108.95 185.2 107.8 186.2 107.9 187.5 108.05 188.45 108.1 192.15 108.3 195.5 108.35 196.85 107.4 Z"/>

<path fill="#8B56A3" stroke="none" d="
M 181.15 162.65
Q 179.1 160.25 176.85 159.1 173.05 157.2 168 157.7 164.75 158.05 159.2 159.65
L 150.15 162.35
Q 150.2 162.5 150.2 162.75 150.85 167.1 149.15 171.35 147 176.6 141.75 180.5 138.75 182.65 136.15 183.4 131.05 184.95 125.3 182.3 120.85 180.25 116.4 175.6 113.9 173.05 112.6 170.65 111.55 168.75 109.95 163.7 109.25 161.35 109.65 159.95 109.3 159.9 108.9 159.8 104.35 158.75 98.55 158.4 94.8 158.15 88.05 158.15 86.05 158.15 85.1 158.45 83.8 158.95 82.25 160.55 77.9 165 75.35 170.95 74.5 172.95 72.7 179.3
L 66.9 200.4
Q 67.2 200.8 68.55 201.75 73.45 204.6 76 205.7 78.2 206.7 80.2 207.35 79.8 205.25 80.05 202.7 80.1 202.05 81.35 195.75 82.4 188.95 83.1 185.65 84.3 179.85 86.75 176.4 87.6 175.25 88.55 174.65 89.8 173.95 90.85 174.45 92.85 175.3 92.3 179.05
L 89.75 201.95
Q 89.5 204.6 90.25 205.65 90.95 206.65 93.2 207.35 98.4 208.9 104 209.85 111.9 211.35 128.15 212.25 138.7 212.95 144.4 212.15 148.35 211.6 156.25 209.7 160.5 208.95 169.05 208 171.35 207.65 172.1 206.65 172.65 206 172.75 204.5 173.2 199.65 171.6 195 169.4 190 168.5 187.5 166.85 183.05 167.55 179.85 168.45 179.05 169.85 179.3 171.1 179.5 172.05 180.45 173.15 181.55 174.25 184.9 175.4 188.05 177.65 194.35 179.4 199.85 178.95 204.05 178.9 204.65 178.75 205.3 179 205.2 179.25 205.15 181 204.6 184.55 203.6 186.7 202.85 190.65 200.65 193 199.25 194.6 198.15 194.45 197.85 194.4 197.55 193.95 195.4 193.2 189.85 192.5 184.9 191.7 182.15 189.9 175.7 184.5 167.2 182.55 164.2 181.15 162.65 Z"/>

<path fill="#FFD999" stroke="none" d="
M 187.5 117.4
Q 187.6 117.05 187.65 116.75 184.95 116.4 181.4 115.7 167.15 112.9 159.55 110.45 153.95 108.75 150.85 106.5 146.35 103.35 145.45 98.8 145.2 97.8 145.25 96.85 132.75 98.95 123.3 98.45 121.5 98.45 120.7 97.7 119.55 96.85 119.85 95.1 120.1 93.5 121.25 92.25 121.95 91.5 123.4 90 124.65 88.7 124.9 87.4 100.15 90.55 83.9 94.45 81.95 94.9 80.15 95.4
L 88.8 94.15
Q 94.25 93.35 97.9 93 102.75 92.4 105.05 94.1 107.3 95.85 107.3 99.15 107.3 101.75 105.5 104.45 102.05 109.7 92.3 113.2 79.5 117.75 65.05 118.85 65.7 122.65 65.35 127.3 65.1 130.45 64.15 136.15 65.1 136.45 66.15 137.05 66.45 137.3 68.65 138.95 76.55 144.8 89 147 93.4 147.75 99.9 148.3 103.55 148.65 110.85 149.2 112.15 149.35 113.05 149.6 113.05 149.7 113.05 149.75 113.15 150.95 113.75 153.35 113.85 154.35 114 156.35
L 114.5 158.2 114.65 160.15
Q 114.7 160.65 114.95 161.55 114.9 161.55 114.85 161.6 114.9 161.75 114.95 162.05 116.05 167.15 119 171.3 122.1 175.6 126.4 177.8 128.45 178.75 130 179.05 134.3 179.85 138.05 177.55 141.7 175.5 143.7 171.4 145.3 168.3 145.5 164.55 145.5 163.9 145.55 163.45 145.3 163.4 145.15 163.4 143.55 163.2 142.9 162.25 142.8 162 142.7 161.75 142.2 160.5 143.25 159.25
L 144.2 150.25
Q 145.45 149.85 147.35 149.6 161.7 148.05 175.65 143.45 182.95 141 186.6 138.25 188.5 136.8 188.9 136.5 189.6 136.1 190.3 135.85
L 188.3 127.9
Q 187 121.7 187.5 117.4
M 131.05 123.25
Q 131.9 123.25 133.5 123.3 135 123.3 135.95 122.95 137.15 122.55 137.35 122.5 138.4 122.25 139.35 123 140.35 123.7 140.4 124.75 140.5 125.9 139.65 126.95 138.85 127.9 137.6 128.25 137.55 128.3 137.45 128.3 137.6 129.2 137.45 130.45 137.15 132.95 136.05 135.8 135.25 137.65 134.45 138.6 132.55 140.85 128.95 141.25 126.45 141.55 122.8 140.7 121.05 140.2 120.25 139.75 119.5 139.25 118.65 138.35 116.65 136.35 115.55 134.9 114.9 134.1 114.55 133.2 114.25 132.25 114 131.75 113.25 130.55 113.1 129.85 113.05 129.65 113.05 129.5 112.25 129.15 111.7 128.6 111 127.95 110.7 127.1 110.4 126.15 110.75 125.4 111.15 124.45 112.2 124.05 113.2 123.65 114.25 123.95 114.85 124.05 115.9 124.45
L 123.6 124.35
Q 124.7 124.25 127.35 123.75 129.65 123.3 131.05 123.25
M 169.9 91.85
Q 169.95 91.85 170 91.85 178.8 93.1 185 94.35
L 183.65 89.05
Q 179.6 89.65 169.9 91.85 Z"/>

<path fill="#FF3366" stroke="none" d="
M 132.05 129.3
Q 132.1 128.95 132.2 128.7 130.75 128.8 128.65 129.2
L 128.65 129.25
Q 128.95 131.4 127.9 132.7 127.35 133.45 126.4 133.75 125.45 134 124.65 133.55 124 133.2 123.65 132.5 123.35 131.75 123.6 130.2 123.6 130 123.65 129.9 122.2 130 119.95 130.05
L 120.5 131.25
Q 122.15 134.6 124.3 135.4 125.4 135.8 127.85 135.65 129.35 135.65 130 135.15 131 134.55 131.5 132.25
L 132.05 129.3 Z"/>

<path fill="#2C0551" stroke="none" d="
M 166.1 19.4
Q 165.65 19.5 165.2 19.55 165.05 19.65 164.85 19.8 163.3 20.8 161.05 19.9 160.35 19.6 159.3 19.1 157.85 18.25 157.7 18.15 156.65 17.7 154.35 17
L 150.55 15.9
Q 148.95 15.4 147.65 15.1 145.55 14.9 140.65 13.85 135.7 12.8 120.4 12.5 105.05 12.2 94.15 13.95 83.25 15.7 72 18.9 50.75 24.85 33.85 39.6 34.85 40.8 35.1 42.3 35.35 43.95 34.65 45.35 34 46.75 32.65 47.65 31.95 49.4 30.95 51.45 30.4 52.35 28.15 56.5 18.65 74.3 14.2 93.95 9.7 113.6 10.75 133.1 13.65 132.3 15.65 132.3 16.75 132.05 17.95 132.25 19.7 132.5 20.85 133.75 21.85 134.8 22.5 136.55 22.7 137.05 23.4 139.7 24.35 143.15 26.1 145.95 27.25 147.75 29 149.7 32.6 154.05 35.05 156.2 41.2 161.75 49.2 163.8 51.3 164.4 52 164.7 52.45 164.85 52.85 165.15 53.4 165 54.25 164.8 55.25 164.65 57.2 164.05 58.55 163.75 61.3 163.55 64.05 163.4 65.4 163.1 68.2 162.45 69.25 162.7 70.2 162.95 70.75 163.5 72.7 160.35 76.55 156 78.95 153.2 81 151.95 80 151.7 79.45 151.65 76.8 151.35 75.45 151.2 73.05 150.9 71.4 150.45 68.1 149.55 62.4 146.2 62.3 146.1 62.2 146 61.7 146.75 61.15 147.1 60.35 147.5 59.5 147.35 58.6 147.25 58 146.65 56.7 145.35 57.15 143.5 57.7 142.4 57.9 141.75 57.75 141.2 57.7 140.75 57.45 139.05 58.45 137.85 58.55 137.05 58.75 136.2 59.2 133.85 59.4 132.7
L 59.85 129.55
Q 60.65 123.8 60.25 120.85 60.15 119.85 60.1 119.25 58.35 118.9 57.2 118.8 56.45 118.45 55.3 118.15
L 52.35 117.5
Q 51.85 117.15 51.2 116.65 49.65 115.35 49.35 115.1 47.3 113.7 46.3 113 44.5 111.75 43.75 110.45 43.3 109.85 43.15 109.2 42.05 109.6 41.35 109.5 40.05 109.45 39.05 108.4 38.05 107.4 38 106.05 37.9 102.5 43.85 100.35 61.5 93.75 84.3 89.25 99.35 86.3 125.95 82.7 129.45 82.2 130.35 83.85 131.25 85.3 129.6 88.05
L 126.7 93
Q 136.5 92.9 145.35 91.15 147.75 90.8 148.7 90.9 148.95 90.95 149.15 91
L 167.55 86.8
Q 181.1 83.9 184.5 83.25 186.8 82.8 187.95 83.6 189.1 84.4 189.2 86.7
L 189.45 90.1
Q 189.55 92.1 189.9 93.4 190.3 94.75 190.5 95.55 191.15 95.7 191.8 95.85 197.1 97.3 200.15 99 204.45 101.5 206.25 105.3 207.55 108.25 206.85 110.8 205.55 114.85 199.8 116.4 196.7 117.15 192.95 117.15 193.05 118.05 193.05 119.25 193.2 124.15 193.8 127.65 194.3 129.9 194.85 132.05
L 195.85 136.1
Q 196.75 139.3 197.35 140.65 197.5 141.1 197.9 142.05 198.2 142.85 198.2 143.5 198.1 145.3 196.6 146.05 195.05 146.9 193.65 145.85 193.05 145.35 192.65 144.45 192 144.8 191.3 145.2 184.35 148.7 175.95 151.5 178.65 152.2 181 153.6 183.45 155.1 186.45 158.55 188.7 161.1 190.65 164.1 191 163.85 191.5 163.65 192.5 163.15 193 162.75 193.3 162.5 193.75 162.05 193.6 161.2 193.9 160.5 194.35 159.5 195.7 159.1 196.5 158.8 198.25 158.65 204.05 158.4 211.55 156.35 223 153.05 229.15 147.5 229.85 146.9 230 146.3 230.1 145.95 229.95 145.25
L 227.95 135.05
Q 227.45 132.05 227.9 130.75 228.25 129.75 229.15 129.15 228.9 128.1 229.95 126.2 235.95 115.8 237.85 103.95 239.65 92.05 236.95 80.9 235.9 81.45 234.65 81.15 233.45 80.85 232.55 80.05 231.3 79.05 229.9 76.1 220.15 56.7 204.4 41.4 188.65 26.05 168.9 16.85 168.45 18.8 166.1 19.4 Z"/>
</g>
</defs>

<g transform="matrix( 1, 0, 0, 1, 27.45,41.3) ">
<g transform="matrix( 1, 0, 0, 1, 0,0) ">
<use xlink:href="#daniel_0_Layer1_0_FILL"/>
</g>

<g transform="matrix( 1, 0, 0, 1, 0,0) ">
<use xlink:href="#daniel_0_Layer0_0_FILL"/>
</g>
</g>
</svg>
