
<svg xmlns="http://www.w3.org/2000/svg" version="1.1" xmlns:xlink="http://www.w3.org/1999/xlink" preserveAspectRatio="none" x="0px" y="0px" width="150px" height="150px" viewBox="0 0 150 150">
<defs>
<g id="Layer0_0_FILL">
<path fill="#FFFFFF" stroke="none" d="
M 76.95 -3.4
Q 64.5 -4.7 53.8 -2.75 51.05 -2.25 50.1 -1 49.45 -0.15 49.3 2 49.2 3.1 49.25 4 47.55 4.05 45.55 4.3 23.5 7.15 4.4 18.25 1.9 19.7 1 20.9 -0.05 22.4 0 24.5 0.05 26.4 1 28.15 1.25 28.65 1.5 29.05 -0.65 29.45 -2.6 30.2
L -7.7 32.45
Q -8.85 33 -8.95 33.6 -9.05 34 -8.8 34.4 -8.55 34.75 -8.15 35 -7.6 35.25 -6.5 35.1 -5.05 34.9 -2.85 34.1 0.05 33 0.75 32.8 2 32.5 2.9 32.25 2.65 32.55 2.4 32.9 -5.5 43.9 -9.6 56.8 -10.05 58.35 -10.45 59.85 -10.55 60.55 -10.8 61.9 -11.05 63.15 -11.3 63.95 -11.55 64.85 -12.25 66.65 -12.75 68.15 -12.55 69.3 -12.4 70.35 -11.55 71.25 -10.9 72.05 -9.85 72.5 -9.3 73.25 -7.95 73.95 -7.2 74.4 -6.55 74.6 -6.65 75 -6.75 75.45 -9.2 89.95 -7.65 100.9 -5.65 114.8 2.35 124 3.7 125.4 4.6 125.8 5.25 126.05 6 125.95 6.25 125.9 6.45 125.85 6.6 126 6.85 126.05 7.75 126.45 8.6 126.25 9.5 126 10.15 125.5 10.4 127.6 11 129.65 11.45 131.2 12.1 132.2
L 13.4 133.85
Q 14.05 134.9 14.25 136 14.35 137 14.9 136.8 14.8 136.35 14.45 135.15 14.05 134.15 14.05 133.5 14.05 133.05 14.2 132.35 14.35 131.45 14.4 131.2 14.5 130.45 14.25 129.3 14.05 128 13.95 127.35 13.95 127.15 13.95 127 14 127.1 14.05 127.15 15.9 129.7 16.6 130.5 18.4 132.5 22.65 135.25 24.35 136.4 25.5 136.6 26.05 136.65 26.6 136.55 27.3 140.6 28.55 147.25 29 149.55 29.45 150.75 29.65 151.1 29.8 151.45 29.7 152.15 29.65 152.9 29.45 155.1 30.1 156.15 30.5 156.75 31.8 157.65
L 34.85 159.65
Q 36.6 160.75 38.05 161.25 39 161.55 40.5 161.85 41.35 162 43 162.35 43.95 162.55 45.9 163.05 47.55 163.35 48.75 163.3 49.7 163.3 51.4 163 51.55 162.95 51.75 162.95 52.4 163.45 53.3 163.85 53.6 163.85 53.5 163.45 53.5 162.75 53.5 162.15 54.05 161.6 54.15 160.7 54.2 159.6 53.5 158.9 53.35 158.75 53.2 158.6 53 157.85 52.6 156.15 50.7 149.05 49.95 145.4 48.6 139.45 48.1 134.55 47.85 132.35 47.15 131.6 46.45 130.8 45.3 130.95 44.15 131 43.55 131.85 43 132.7 43.1 134.8 43.65 142.3 45.3 149.3
L 46.35 153.35
Q 47.2 156.35 48.05 158.3 47.95 158.3 47.9 158.3 47.15 158.25 46 157.9 44.35 157.45 44.1 157.4 43.55 157.25 41.7 157 40.2 156.8 39.35 156.5 38.4 156.15 37.1 155.3 35.3 154.15 35 154 34.25 153.6 34.1 153.35 33.85 153 33.75 152.35
L 33.75 152.3
Q 33.75 152.15 33.8 152.05 34.15 150.05 33.65 146.55 32.25 138.05 31.65 133.8 30.5 126.3 30.7 121.05 30.7 119.95 30.95 119.35 31.45 118.6 32.7 118.15 34.95 117.35 38.95 117.8 43.4 118.25 45.95 119.35 47.4 119.95 47.8 120.05 48.8 120.35 49.6 120.05 50.25 119.75 50.65 119.05 50.85 118.6 50.9 118.2 55.15 119.35 60.3 120.45 61.8 121.15 63.45 120.9 63.65 122.1 64.1 123.2 64.55 124.25 65.2 124.7 65.45 124.85 65.8 124.95 65.85 125.1 65.9 125.3 66.3 126.45 67.15 127.1 67.65 127.55 68.95 128.2 74.15 130.55 76.75 131.2 81 132.1 84.1 131.2 86.5 130.55 87.75 129.15 88.2 128.75 88.65 128 89.25 127.1 89.45 126.85 90.55 125.65 91 125.05 91.3 124.55 91.9 123 92.35 121.75 92.3 121 92.75 120.65 93 120.1 93.6 118.85 92.9 117.15 93.55 116.85 94.85 116.45 96.2 116.05 96.8 115.8 97.9 115.35 98.6 114.7 98.7 114.7 98.8 114.7 99.45 114.7 100.8 114 109.2 109.55 118.2 106.45 121.35 105.35 123.15 105.25 126.1 105.15 127.95 106.7 130.45 108.75 130.35 114.2 130.3 120.6 128.7 127.95 127.4 133.85 124.85 141.3 124.05 143.65 123.75 145.2 123.65 145.15 123.5 145.15 111.5 144.45 99.75 148.85 101.2 145.75 102.25 140.75 103.95 133.15 104.2 132.3 104.5 131.2 104.45 130.55 104.4 129.45 103.55 129.05 103.15 128.9 102.65 129.05 102.15 129.15 101.85 129.5 101.25 130.1 100.9 131.1 100.1 133 99.15 136.75 98.15 140.7 97.5 142.45 96.85 144.2 95 147.75 93.3 151.15 92.6 153.1 91.65 155.75 92.7 157.1 93.2 157.7 94.1 157.95 94.9 158.15 95.75 157.95 96.6 157.8 98.8 156.6 104.15 153.55 110.25 152.2 116.3 150.8 122.45 151.2 123.9 151.3 124.5 151.25 125.6 151.15 126.3 150.75 127.6 149.85 127.65 148.35 127.65 147.75 127.5 147.25 128 146.25 128.55 144.75 131.8 136 133.25 130.4 134.5 125.8 135 121.55 135.4 121.45 135.8 121.25 137.05 120.8 139 119.55 141.15 118.2 141.7 117.6 142.45 116.95 143.4 115.7 145.85 112.5 147.8 108.7 148.5 107.4 148.85 106.15 149.15 104.9 149.15 103.25 149.2 101.8 149.1 100.05 150.35 100 152.05 99.65
L 157.35 98.6
Q 159.45 98.15 160.15 97.5 160.7 96.95 160.8 96.2 160.95 95.4 160.45 94.85 159.7 94.15 157.75 94.55
L 150.8 96.1
Q 152.75 93.15 153.7 91.55 155.4 88.6 156.4 86.1 157.75 82.55 158.35 78.1 158.85 74.8 159 69.85 159.25 62 158.35 57.05 157.85 54.5 156.3 49.85 156.05 49.05 155.8 48.55 155.8 48.35 155.8 48.2 155.65 47.1 154.95 46.35 153.8 45.25 151.15 45.25 149.3 45.25 147.55 45.65 147.5 44.5 147.15 43 144.5 31.85 139.3 23.4 138.05 21.4 136.35 18.95 131.1 11.15 127.75 7.45 125.75 5.2 124.15 4.8 123 4.5 121.75 4.9 120.55 5.3 119.65 6.15 118.8 7 118.45 8.1 118.4 8.2 118.35 8.3
L 118.3 8.3
Q 118.25 7.65 118 6.8 117.45 5.15 115.7 2.15 115.1 1.15 114.75 0.75 114.2 0.1 113.65 0.2 113 0.4 113.1 1.15 113.1 1.55 113.5 2.25 114.4 4 115.15 6.45 115.2 6.55 115.2 6.6 112.8 5.4 110.05 4.35 105.85 2.7 99.85 1.05 87.4 -2.35 76.95 -3.4
M 122 12.2
Q 122.65 11.85 122.95 11.85 123.35 11.85 123.95 12.45 125.5 14.05 128.2 17.7
L 130.95 21.45
Q 136.15 28.5 138.25 32.6 139.55 35.25 141.35 40.15 143.25 45.2 144.2 47.4 144.15 47.45 144.1 47.5 143.6 48.4 143.9 49.55 144.3 50.7 145.25 51.15 145.8 51.4 146.6 51.45 147.1 51.45 148.05 51.45 148.6 51.45 149.95 51.6 150.55 51.65 151 51.65 151.05 52.3 151.25 52.95 154.2 66.8 151.55 80.5 151.05 83.25 150.4 85.25 149 89 145.55 93.5 144.6 94.65 144.25 95.45 143.65 96.55 143.85 97.6
L 143.9 97.65
Q 143.35 98.65 143.3 100.4 143.3 101.55 143.25 103.8 143.2 105.75 142.75 107.1 142.2 108.55 141.05 110.25 139.85 112.2 139.1 113.1 138.45 113.9 136.3 115.9 135.8 116.3 135.4 116.7 135.4 116.15 135.4 115.6 135.4 110.9 134.4 107.95 132.95 103.8 129.8 101.9 126.8 100 122.45 100.5 120.7 100.7 118.55 101.4 118.65 100 119.1 97.6
L 119.4 95.9
Q 120 92.85 120.6 91.55 121 90.65 121.15 90.1 121.35 89.3 121.1 88.65 120.7 87.8 119.65 87.7 118.75 87.7 118.1 88.45 118.05 88.6 117.4 89.95
L 116.85 91.05
Q 116.65 91.55 116.4 92.5 116.1 93.3 116 93.7
L 115.7 95
Q 115.6 95.7 115.25 97.15 114.85 98.55 114.7 99.3 114.55 100.35 114.55 102.55 114.55 102.7 114.55 102.9 106.6 106.2 99.6 111 99.45 111 99.3 111 98.55 110.95 98.15 110.95 97.15 110.9 95.45 111.4
L 91.05 112.6
Q 89.7 113 89.25 113.45 88.6 114.2 88.6 115.75 88.6 117.5 88.9 118.9 89.05 119.6 89.25 120.1 88.55 120.65 87.2 121.7 86.65 122.35 85.6 123.55 85.4 123.85 82.75 127.4 82.45 127.95 81.9 128.1 81.45 128.2 80.95 128 79.4 127.55 77.1 126.55
L 73 124.8
Q 71.5 124.15 70.75 123.55 69.9 122.8 69.35 122.55 68.9 122.35 68.5 122.25 68.4 121.65 68.05 120.9 67.6 119.9 67.35 119.35 67.15 118.65 67.05 118.25 66.95 118 66.8 117.75 69.15 117.8 71.55 116.25 73.25 115.2 75.6 112.8 76.7 111.65 76.95 111.25 77.55 110.55 78.65 108.6 78.85 108.25 79 108.05 80 108.2 80.6 108.45 82.05 109.05 82.35 109.05 82.95 109.1 83.45 108.75 84 108.4 84.2 107.85 84.4 107.3 84.2 106.75 84.05 106.25 83.7 106 83.7 105.65 83 105.55
L 70.45 104.05
Q 66.7 103.55 64.65 103.4 63.45 103.3 62.85 103.2 61.95 102.95 61.5 102.9 60.7 102.85 60 103.45 59.35 104 59.15 104.8 59.05 105.6 59.5 106.35 59.85 106.95 60.5 107.3 60.45 107.55 60.4 107.8 59.95 110.05 60 111.45 60.2 113.95 62.1 115.85 62.6 116.3 63.15 116.7 61.65 116.45 60.85 116.5 60.8 116.5 60.75 116.5 52.3 115.2 42.7 111.5 38.2 109.85 35.4 108.25 28.55 104.35 24.35 97.35 20.1 90.35 19.9 82.5 19.8 80.45 19.5 79.65 19 78 17.5 77.8 16.85 77.7 16.15 78.1 15.5 78.55 15.15 79.2 14.5 80.25 14.5 82 14.5 84.9 15.35 88.3 17.1 95.25 22.15 101.3 26.8 106.9 33.45 110.9 34.85 111.75 36.35 112.55 32.75 112.35 30.2 113.4 27.45 114.5 26.2 116.7 25.4 118.2 25.25 121.25 25.1 125.35 25.7 130.5 22.45 128.65 20.35 126.25
L 14.95 119.1
Q 14.05 117.85 13.3 117.45 11.9 116.7 10.1 117.65 9.1 118.15 7.55 119.75 6.8 120.6 6.3 121.25 6 120.9 5.6 120.5 0.6 115.4 -1.8 104.75 -2.5 101.15 -2.7 99.35 -3.3 94.4 -2.5 88.1 -2.15 84.9 -0.65 76.9 -0.15 74.2 -0.85 72.9 -1.45 71.8 -2.9 71.6 -2.9 71.45 -2.95 71.4 -3.15 70.55 -3.75 70 -3.9 69.9 -4.3 69.65 -4.35 69.25 -4.5 68.8 -5.15 67.8 -5.3 67.3 -5.6 66.55 -5.35 65 -4.8 61.15 -4.15 58.45 -2.85 53 1.15 44.1 2.45 41.4 2.95 40.6 4.35 38.45 5.05 37.3 6 35.7 7.75 31.6 8.1 30.7 8.1 30.1 8.25 29.8 8.35 29.55 9.15 27.4 6.45 24.7 16.25 17.7 27.8 13.6 39.35 9.5 51.4 8.7 53.85 8.55 54.8 7.85 55.6 7.3 55.8 6.35 56 5.5 55.65 5 55.55 4.2 55.25 3.25 65.75 1.25 78.2 2.45 88.2 3.45 101 6.75 111.25 9.4 117.15 12.2 118.6 12.9 119.3 12.95 119.9 13.05 120.45 12.75 120.75 12.6 120.95 12.45 121.5 12.45 122 12.2
M 64.05 110.5
Q 64.1 110 64.55 108.1 64.7 107.65 64.75 107.3
L 64.9 107.3
Q 65.85 107.4 67.05 107.45 67.4 107.45 68.6 107.45 68.3 107.9 68 108.4 67.75 108.7 67.7 108.9 67.7 109.35 68 109.5 68.25 109.75 68.6 109.4
L 68.8 109.1
Q 69.1 108.85 69.15 108.7 69.4 108.05 69.6 107.8
L 69.95 107.4
Q 70.05 107.4 70.1 107.4 72.35 107.4 74.75 107.6 72.6 111.05 68.75 113.35 68.1 113.75 67.75 113.85 67.1 114 66.3 113.8 65.25 113.5 64.7 112.85 63.95 111.95 64.05 110.5
M 28.6 64.85
Q 28.75 64.85 28.9 64.85 26.6 64.35 25.6 64.5 24.05 64.75 23 66.05 22.2 67.05 22.2 68.15 21.95 70.35 23.8 71.35 25.55 72.25 26.7 72.5 26.85 72.5 28.75 72.9 36.8 74.1 44.15 75.75 49 76.8 51.55 78.15 52.1 78.5 53.25 79.1 54.2 79.6 55 79.6 56.7 79.6 57.6 78.15 58.45 76.7 57.7 75.25 57.2 74.2 55.8 73.35 51.75 70.6 44.3 68.25 43.2 67.9 28.6 64.85
M 90.6 80.05
Q 88.15 81.45 88.35 82.9 88.55 84.4 89.8 85.05 90.95 85.6 93.2 85.2 102.25 83.75 109.15 83.45 117.8 83.1 125.05 84.35 126.6 84.65 127.4 84.6 128.8 84.4 129.35 83.4 129.85 82.55 129.35 81.45 128.95 80.45 128 79.8 126.6 78.8 123.55 78.15 116.25 76.6 113.15 76.4 110.05 76.1 101.55 77.35 93.05 78.55 90.6 80.05
M 89.75 69.5
Q 90 70.05 90.35 70.3 91.35 71.2 92.85 70.65 93.8 70.3 95.05 69.25
L 99.55 65.55
Q 100.65 64.75 101 63.9 101.4 62.75 100.65 61.9 99.85 61 98.7 61.2 98.35 61.25 97.15 61.9 95 63 93.95 63.6 92.8 64.35 91.15 65.7 90.4 66.3 90.05 66.8 89.1 68.05 89.75 69.5
M 87.9 65.5
Q 87.65 63.4 84.25 62.5 79.05 61.05 70.5 61.15 67.35 61.15 64.3 61.25 64.2 61 64.1 60.8 63.6 59.85 63.35 59.35 62.7 57.7 62.35 56.9
L 60.9 54.3
Q 60.4 53.5 60.2 53.25 59.75 52.75 59.2 52.55 58.45 52.3 57.65 52.65 56.95 53.1 56.75 53.9 56.7 54.45 56.85 55.2 56.95 55.65 57.2 56.5 57.25 56.85 57.4 57.65 57.5 58.05 57.85 58.85 58.05 59.15 58.25 59.85
L 58.8 61.35
Q 58.85 61.45 58.9 61.55 48.75 62.2 38.75 63.95 35.95 64.45 33.35 65 57.65 65.65 70.85 65.65 78.2 65.65 82.55 66.65
L 76.85 73.6
Q 75.25 75.5 75.55 76.8 75.8 78.1 77.35 78.7 78.1 79 96.85 75.5 94.55 75.3 91.85 75.2 82.9 74.9 81.85 74.85 85 71.65 87.05 68.15 88 66.55 87.9 65.5 Z"/>
</g>
</defs>

<g transform="matrix( 1, 0, 0, 1, 0,0) ">
<use xlink:href="#Layer0_0_FILL"/>
</g>
</svg>
