
<svg xmlns="http://www.w3.org/2000/svg" version="1.1" xmlns:xlink="http://www.w3.org/1999/xlink" preserveAspectRatio="none" x="0px" y="0px" width="300px" height="300px" viewBox="0 0 300 300">
<defs>
<g id="pipit_0_Layer1_0_FILL">
<path fill="#4B0404" stroke="none" d="
M 125.2 204.45
L 126.35 198.75 121.3 200.75 122.95 204.5 125.2 204.45
M 93.5 184.3
L 92.65 182.65 92.05 184.35 93.5 184.3
M 232.85 40.75
Q 231.9 41 231 41.45 219.3 33.4 206.55 26.6 199.7 22.9 192.6 19.8 186.25 17.1 180.55 13.5 178.55 12.25 176.65 10.9 171.3 7.25 164.9 6.05 162.25 5.45 159.6 5.8 139.55 7.2 119.85 11 119 10.55 118.1 10.4 107.35 8.55 96.6 10 67.5 13.35 42.45 28.4 39.6 30.15 36.55 31.45 35.55 31.9 34.6 31.4 32.3 30.35 29.8 30.5 27.25 30.85 26.35 33.1 24.05 38.95 28.25 43.6 19.85 54.65 15.25 67.6 13.7 71.95 11.45 75.85 10.05 78.25 8.55 80.85 6.05 85.15 9.55 88.8 7.75 98.45 7.65 108.3 7.6 111.3 8.6 114.05 11.25 121.1 13.7 128.45 15.6 134.2 10.1 135.4
L 11.2 139.25
Q 9.45 139.85 8.3 141.35 6.85 143.35 7 145.9 7.25 151.1 11.5 154.1 13.75 155.6 16.25 156.7 20.8 158.65 23.2 163 29.05 173.35 35.4 183.4 36.85 185.65 39.2 186.75 43.4 188.6 45.75 184.6
L 59.6 192.6
Q 59.2 188.65 59.15 184.7 59.15 182.8 59.75 180.95 61.65 175.35 66.9 172.2 76.55 166.55 87.7 167.4 89.5 167.8 91.15 168.95 94.95 171.6 94.35 176.15 94.2 177.35 93.95 178.5 98 175.6 103.05 174.7 105.25 174.15 106.7 172.75 111.2 168.6 113.45 163 100.15 160.8 88.9 154.2 87.9 153.6 87.35 152.55 86.25 150.55 86.25 148.25 86.25 144.95 86.05 141.7 85.8 136.75 87.35 132.1 88.3 129.35 90.9 127.95 93.8 126.45 96.9 125.8 99.45 125.15 101.85 124.35 91.35 126.3 81.25 122.9 70.55 119.15 64.1 109.8 60.9 105.1 60.25 99.35 59.1 88.85 65.85 80.75 72.15 73.15 81.3 70.05 91.05 66.7 101.35 68.35 112.1 70.05 120.1 77.2 128.65 84.9 128.85 96.4 129 105.35 123.2 112.25 131.3 105.85 139.45 99.55 147.8 93.25 155.45 86.05 158.1 83.55 161.55 83.2 163.45 83.4 164.2 85.15 164.9 86.7 164.45 88.35 163.55 91.9 161.95 95.2 157.5 104.7 159.8 114.55 160.35 117.05 161.6 119.35 165.3 126.25 171.75 130.4 164.15 123.1 162.1 112.75 159.95 102.1 165.35 92.6 169.25 85.9 175.95 81.85 185.5 76.1 196.6 77.05 207.65 78.2 215.55 86.1 223.6 94.1 224.65 105.15 225.75 116.4 219.5 125.6 214.8 132.65 207.4 136.45 210 138.65 208.6 141.75 207.1 145.1 203.85 147 200.25 149 196.7 151.15 188.55 156.05 179.6 159.4 170.05 163.05 159.9 164.35 153.05 165.3 146.05 164.3 144.35 164 142.95 162.9 142.15 162.25 141.4 161.55 138.3 172.05 138.9 183.05 139.05 186.25 138.7 189.45 138.45 191.85 136.8 193.45 135.4 194.75 133.25 195.1 134.45 197.65 136.7 198.4 137.8 198.7 138.4 198 140.3 195.95 140.4 193 140.6 185.3 144.4 178.95 144.7 178.45 145.35 178.25 147.1 177.55 148.95 177.8 156.55 178.3 164.15 177.75 166.8 177.95 167.75 180.2 168.5 181.95 167.4 183.6 166.45 185.15 164.5 185.5 153.15 187.05 149.9 198.15 149.35 200.1 148.85 202.15
L 152.2 201.6
Q 154.3 197.95 155.55 193.9 156.05 192.3 157.15 191 159.25 188.6 162.2 187.25 168.95 184.4 176.05 182.65 177.85 182.1 179.75 181.2 184.4 178.95 189.55 178.2 196.85 177.45 200.75 183.55 202.3 186.1 202.1 189.05 202.55 190.2 203.6 190.95 207.85 194.15 212.2 190.85 219 185.85 221.2 178
L 222.6 177.25
Q 222.25 173.75 225.25 171.9 227.05 170.9 228.85 171.95 229.55 172.35 230.25 172.85 248.55 162.35 260.95 145.1 258.45 145.05 256 145.05 253 144.6 251.95 141.95 251.05 139.6 252.6 137.45 254.75 134.55 258 132.75 260.8 131.2 263.85 130.1 264.5 129.85 264.75 129.25 266.55 124.6 271.35 124.45 274.55 115.25 274.65 105.8 274.75 92.4 268.2 80.65 256.55 59.85 237.1 45.85 237.95 42.75 235.45 41.1 234.25 40.3 232.85 40.75 Z"/>

<path fill="#702819" stroke="none" d="
M 59.15 184.7
Q 59.2 188.65 59.6 192.6 59.45 194.4 58.8 196 56 203.3 53.2 210.65 51.45 215.15 49.75 219.45 45.9 229.45 46.4 240.05 46.55 243.5 49.25 245.65 54.75 249.95 61.8 250.85 71.85 252.45 81.95 252.85 92.45 253.3 101.9 248.6 107.8 245.8 114.2 244.8 120.85 244.2 122.25 237.95
L 122.3 236.6
Q 122.25 234.9 121.5 233.65 120.75 232.35 121.2 231.15 122.65 226.95 123.9 222.7
L 124.3 209.65 122.95 204.5 121.3 200.75
Q 116.55 199.25 114.75 194.1 114.35 192.95 113.6 192 110.75 188.7 106.55 187.8 102.2 187.1 97.75 186.65 95.2 186.15 93.5 184.3
L 92.05 184.35 92.65 182.65
Q 92.2 180.55 93.75 178.75 93.85 178.65 93.95 178.5 94.2 177.35 94.35 176.15 94.95 171.6 91.15 168.95 89.5 167.8 87.7 167.4 76.55 166.55 66.9 172.2 61.65 175.35 59.75 180.95 59.15 182.8 59.15 184.7
M 176.05 182.65
Q 168.95 184.4 162.2 187.25 159.25 188.6 157.15 191 156.05 192.3 155.55 193.9 154.3 197.95 152.2 201.6 152.1 201.8 152.05 202.05 148.75 212.7 151.7 223.5 154.9 228.6 157.4 233.9 158.35 235.85 157.7 237.95 160.4 239.45 163.2 240.55 164.2 240.95 165.45 241.2 174 241.8 182.55 240.05 186.75 239.2 190.8 240.35 194.15 241.15 197.55 242.2 203.1 243.75 206.1 239 207.55 236.75 206.45 234.3 205.25 231.5 205.25 228.5 205.3 220.75 200.55 214.7 195.6 208.3 188.45 204.2 185.85 202.65 184.45 201.55 185 201.4 185.55 201.25 190.8 200.1 195.95 197.95 201.7 195.45 202.1 189.05 202.3 186.1 200.75 183.55 196.85 177.45 189.55 178.2 184.4 178.95 179.75 181.2 177.85 182.1 176.05 182.65
M 166.8 206.65
Q 167.35 206.45 168.05 206.5 169.75 207.65 170 209.95 170.35 213 171.85 215.9
L 173.15 216.7
Q 175.9 219.6 173.85 223.2 173.3 224.2 172.25 224.45 168.05 224.4 166.85 220.1 165.65 215.85 164.5 211.7 163.55 208.15 166.8 206.65
M 140 159.2
Q 141.1 156.75 138.45 156 137.45 156.15 136.35 156.85 135.05 157.7 133.9 158.3 130.85 159.7 130.55 162.65 130.75 163.6 131.45 164.05 132.55 164.65 133.5 164.2 135.6 163.25 137.7 161.8 139.25 160.8 140 159.2 Z"/>

<path fill="#FFFFCC" stroke="none" d="
M 101.35 68.35
Q 91.05 66.7 81.3 70.05 72.15 73.15 65.85 80.75 59.1 88.85 60.25 99.35 60.9 105.1 64.1 109.8 70.55 119.15 81.25 122.9 91.35 126.3 101.85 124.35 111.9 121.1 120.25 114.5 121.7 113.35 123.2 112.25 129 105.35 128.85 96.4 128.65 84.9 120.1 77.2 112.1 70.05 101.35 68.35
M 168.05 206.5
Q 167.35 206.45 166.8 206.65 163.55 208.15 164.5 211.7 165.65 215.85 166.85 220.1 168.05 224.4 172.25 224.45 173.3 224.2 173.85 223.2 175.9 219.6 173.15 216.7
L 171.85 215.9
Q 170.35 213 170 209.95 169.75 207.65 168.05 206.5
M 167.75 180.2
Q 166.8 177.95 164.15 177.75 156.55 178.3 148.95 177.8 147.1 177.55 145.35 178.25 144.7 178.45 144.4 178.95 140.6 185.3 140.4 193 140.3 195.95 138.4 198 137.8 198.7 136.7 198.4 134.45 197.65 133.25 195.1
L 126.35 198.75 125.2 204.45 124.3 209.65 123.9 222.7 122.3 236.6 122.25 237.95
Q 122.4 240.5 124.3 241.8 124.8 242.2 125.4 242.45 129.1 242.7 132.65 241.7 142.85 238.75 153.45 240.5 156.65 240.9 157.7 237.95 158.35 235.85 157.4 233.9 154.9 228.6 151.7 223.5 151.35 222.75 151.05 221.95 147.45 212.35 148.85 202.15 149.35 200.1 149.9 198.15 153.15 187.05 164.5 185.5 166.45 185.15 167.4 183.6 168.5 181.95 167.75 180.2
M 175.95 81.85
Q 169.25 85.9 165.35 92.6 159.95 102.1 162.1 112.75 164.15 123.1 171.75 130.4 180.7 136.4 191.5 136.9 196.1 136.9 200.65 135.7 204.25 134.95 207.4 136.45 214.8 132.65 219.5 125.6 225.75 116.4 224.65 105.15 223.6 94.1 215.55 86.1 207.65 78.2 196.6 77.05 185.5 76.1 175.95 81.85 Z"/>

<path fill="#F5B683" stroke="none" d="
M 164.45 88.35
Q 164.9 86.7 164.2 85.15 163.45 83.4 161.55 83.2 158.1 83.55 155.45 86.05 147.8 93.25 139.45 99.55 131.3 105.85 123.2 112.25 121.7 113.35 120.25 114.5 111.9 121.1 101.85 124.35 99.45 125.15 96.9 125.8 93.8 126.45 90.9 127.95 88.3 129.35 87.35 132.1 85.8 136.75 86.05 141.7 86.25 144.95 86.25 148.25 86.25 150.55 87.35 152.55 87.9 153.6 88.9 154.2 100.15 160.8 113.45 163 111.2 168.6 106.7 172.75 105.25 174.15 103.05 174.7 98 175.6 93.95 178.5 93.85 178.65 93.75 178.75 92.2 180.55 92.65 182.65
L 93.5 184.3
Q 95.2 186.15 97.75 186.65 102.2 187.1 106.55 187.8 110.75 188.7 113.6 192 114.35 192.95 114.75 194.1 116.55 199.25 121.3 200.75
L 126.35 198.75 133.25 195.1
Q 135.4 194.75 136.8 193.45 138.45 191.85 138.7 189.45 139.05 186.25 138.9 183.05 138.3 172.05 141.4 161.55 142.15 162.25 142.95 162.9 144.35 164 146.05 164.3 153.05 165.3 159.9 164.35 170.05 163.05 179.6 159.4 188.55 156.05 196.7 151.15 200.25 149 203.85 147 207.1 145.1 208.6 141.75 210 138.65 207.4 136.45 204.25 134.95 200.65 135.7 196.1 136.9 191.5 136.9 180.7 136.4 171.75 130.4 165.3 126.25 161.6 119.35 160.35 117.05 159.8 114.55 157.5 104.7 161.95 95.2 163.55 91.9 164.45 88.35
M 138.45 156
Q 141.1 156.75 140 159.2 139.25 160.8 137.7 161.8 135.6 163.25 133.5 164.2 132.55 164.65 131.45 164.05 130.75 163.6 130.55 162.65 130.85 159.7 133.9 158.3 135.05 157.7 136.35 156.85 137.45 156.15 138.45 156 Z"/>
</g>

<g id="pipit_0_Layer0_0_FILL">
<path fill="#330000" stroke="none" d="
M 245.5 39.3
Q 245.75 38.15 245.6 37.1 245.3 35.9 244.6 35.2 243.55 34.25 241.75 34.3 240.55 34.25 238.5 34.75 234.6 35.85 232 36.25 228.4 36.85 225.4 36.45 219.8 35.6 212.75 30.7 208.7 27.8 202.7 22.6 199.5 19.95 197.3 18.1 196.85 17.05 195.85 15.9 191.95 11.3 185.3 7.95 180.6 5.55 172.65 3 167.05 1.2 163.75 0.6 156.65 -0.65 145.15 0.65 138.2 1.4 133.6 2.65 131.45 3.25 129.6 4.05 127.85 4.45 126.3 4.9 125.55 5.1 125 5.35 124.95 5.35 124.8 5.75 124.3 6 123.5 6.55 122.9 6.95 122.45 7.25 115.25 5.35 105.35 4.9 96.05 4.5 88.85 5.75 86.7 6.1 84.75 6.6 82.65 6.7 80.7 7.05 75 7.9 67.4 11.25 56.75 15.95 47.45 22.85 45.1 24.6 44.55 24.95 42.85 26.1 41.4 26.65 39.15 27.6 36.65 27.6 34.15 27.6 31.9 26.65 28.85 25.4 28.7 25.35 26.8 24.8 25.6 25.5 24.1 26.4 23.35 29.6 21.95 35.95 22.4 39.6 22.7 42.2 23.9 44.4 24.6 45.6 25.5 46.55 24.95 46.85 24.45 47.25 16.35 53.35 10.5 65.15 8.4 67.85 6.7 72.55 4.9 77.5 3.95 82.6 3.5 84.5 3.15 86.3 1.45 96.05 3.55 105.85 4.8 114.2 8.15 121.95 8.25 122.2 10.25 126.65 11.5 129.55 12.2 131.5 12.25 131.6 12.3 131.75 10.75 132.05 8.45 132.4 5.85 132.8 4.3 133.3 2.1 134.1 1.05 135.65 -0.1 137.35 0 140.25 0.05 144.45 2.05 148.55 3.95 152.4 7.15 155.55 12.2 160.7 21.6 164.85 23.35 165.6 23.75 166.45 24 166.9 24.05 168.5 24.2 173.05 27.25 177.85 29.3 181 33.75 185.85
L 38.3 190.75
Q 39.75 192.45 40.85 193.05 42.65 194.05 44.2 193.3 45.5 192.6 46.35 189.9
L 46.8 188.45
Q 47.4 189.15 48.25 190 49.95 191.8 51.05 192.65 52.8 193.95 54.5 194.3 54.7 194.35 55.05 194.4 54.15 196.15 53.9 198.1 53.8 198.9 53.8 200 52.3 202.85 50.9 206.15 48.95 210.8 45.75 220.45 43.75 226.45 43 229.4 41.6 234.45 41.25 238.55 40.95 242.75 42.4 244.6 43.65 246.2 46.5 246.8 50.05 249.15 56.75 250.4 71 253.05 85.25 252.6 97.75 252.15 105.5 249.05 107.7 248.1 109.05 247.05 111.15 247.25 115.55 247.25 116.2 247.95 117.15 248.3 118.2 248.65 119.6 248.6 120.35 248.55 122.05 248.3
L 139.6 245.45
Q 143.8 244.75 146 244.5 149.55 244.05 152.45 244.1 154.3 244.15 157.55 244.4 161.1 244.7 162.6 244.75 165.5 244.9 170.45 244.7 176.2 244.45 178.3 244.45 180.35 244.5 184.45 244.55 185.75 244.5 186.95 244.4 187.2 244.4 187.5 244.4 188.95 244.5 189.95 244.6 193.25 246 197.95 246.35 202.85 246.75 207.5 245.85 212 244.95 213.05 242.5 213.7 241.1 213.25 239.25 213 238.1 212.1 235.95 210.85 233.2 209.85 230.65 207.3 224.3 207 219.95
L 207.1 220.1
Q 207.4 220.6 207.7 221.1
L 207.7 220.25
Q 208 218.6 208.1 217.75 208.25 216.65 208.05 215 207.85 213.35 207.75 212.45
L 203.45 206.05
Q 202.95 205.25 202.4 204.85 201.35 203.55 200.05 202.55 201.9 201.6 203.05 200.15 203.75 199.3 204.45 197.8 204.55 197.5 204.7 197.3 205.25 197.25 206 197.15 212.3 196.1 217.75 190.35 218.55 189.55 219.9 187.85 220.95 186.5 221.35 185.65 221.8 184.65 222.3 182.55 222.9 180.1 223.1 179 223.45 177 223.4 175.4 223.25 174 223.25 172.95 225.15 173.45 227.45 173.4 232 173.3 237.25 171.2 243.95 168.5 249.75 164.1 255.65 159.6 259.95 153.8 263.55 149.25 261.85 146.3 260.6 144.15 256.75 143.75 254.75 143.7 253.75 143.65 252 143.45 250.8 142.9 264.95 134.8 272.35 122.95 276.35 116.5 278.05 109.35 279.75 101.8 278.65 94.7 277.5 87.4 272.5 78.05 266.6 66.75 259 59.05 250.45 50.3 240.55 46.75 241.95 45.3 243.4 43.2 245.15 40.7 245.5 39.3
M 253.6 64
Q 260.15 71.05 265.05 80.7 270.55 91.4 270.75 99.55 270.85 105.35 268.7 111.25 266.7 116.85 262.9 121.8 256.4 130.1 244.4 137.05 241.6 138.6 240.3 139.9 238.35 141.8 238.25 143.9 238.25 146 239.9 147.7 241.5 149.2 243.8 149.9 245 150.25 248.1 150.65 250.95 151.05 252.35 151.55 247.8 155.9 245.35 157.95 241.2 161.2 237.35 163 234.25 164.4 228.2 165.85 225.9 166.4 224.15 166.85 225.65 164.65 226.35 161.7 226.85 159.3 226.05 158.15 225.55 157.35 224.5 157.15 223.45 156.9 222.65 157.45 222.2 157.7 221.8 158.15
L 221.05 159
Q 220.15 160.05 218.15 160.85 216.25 161.6 214.65 161.85 213.35 162.1 212.8 161.65 211.95 161 212.3 159.1 213.05 155.35 215.5 148.05
L 217.95 140.85
Q 218.5 139.3 218.5 138.4 218.5 138 218.45 137.7 218.95 137.8 219.5 137.9 221.55 138.2 224.85 138.1 228.05 138.05 230 137.5 232.8 136.6 234.15 134.5 234.8 133.35 234.8 131.95 234.85 130.6 234.15 129.55 236.6 129.25 239.05 127.4 240.75 126.15 243.1 123.5 244.85 121.55 246.1 119.9 248.05 117 248.8 114.05 249.4 111.6 249.35 109.25 249.3 107.35 248.75 106.3 247.9 104.7 246.35 104.5 245.65 104.45 244.7 104.85 243.65 105.4 243.1 105.6 241.4 106.3 238.6 106.3 234.8 106.4 230.75 105.8 230.1 101.35 227.95 97.05 220.15 81.85 211.55 77.85 189.15 67.7 169.65 81.65 167.1 83.45 165 85.55 165.4 84.4 165.65 83.75 166.2 82.4 166.75 81.55 167 81.2 167.45 80.45 167.85 79.8 168 79.3 168.25 78.6 168.05 77.8 167.85 77 167.35 76.45 166.15 75.25 164.5 75.6 163.7 75.75 162.3 76.8 145.6 89.4 130.6 103.5 130.55 102.95 130.7 101.95 130.8 101.15 130.8 100.65 130.8 100.6 130.8 100.5 131.05 83.35 118.2 72.55 99.8 57.25 76.8 65.65 67.8 68.9 58.95 83.55 58.55 84.15 58.3 84.75
L 46.8 79.2
Q 42.3 76.95 40.05 78.4 38.9 79.1 37.95 81.15 36.7 84 36.2 87.8 35.85 90.6 35.9 94.75 35.9 98.1 36.2 100.15 36.6 102.45 37.65 104.7 39.35 108.4 42.85 111.75 45.55 114.3 49.9 117.2 49.1 118 49.05 119.25 49 120.45 49.65 121.45 50.65 123.05 53.3 124.1 57.9 126 63.45 125.2 66.15 124.8 67.35 123.55 67.5 123.4 67.6 123.3 74.8 128.75 86.25 129.35 85.4 132.65 84.95 136.75 84.6 140.05 84.35 145.45 84.2 150.7 84.55 153.3 85.2 157.75 87.3 160.55 87.75 161.15 87.75 161.55 87.75 162.1 86.95 162.5 85.95 163.05 83.65 163.25 83.55 163.25 83.5 163.3 83.4 163.25 83.3 163.3
L 78.8 163.55
Q 77.65 163.65 76.7 163.75 75.95 163.2 74.55 163 72.75 162.65 71.5 162.7 70.55 162.7 68.65 163.1 64.7 163.9 60.35 165.65 55.6 167.55 53.9 170.2 52.1 172.85 52.2 178.3 52.2 180.8 52.6 182.3 53.2 184.8 55.6 188.05 56.15 188.75 56.65 189.3 56.7 189.4 56.75 189.5 57.05 190.3 57.55 191 57.45 191 57.45 191.05 56.9 189.65 55.1 187.95
L 51.65 184.55
Q 51.05 183.95 50.95 183.45 50.85 183.1 51.1 182.6 51.4 182.05 51.5 181.7 52.05 180.3 51.2 179.05 50.75 178.45 50.1 178.15 49.4 177.8 48.7 177.85 47.8 177.9 47 178.45 46.15 178 45.05 178.15 43.85 178.3 42.95 179.1 41.5 180.4 40.85 183.15 36 178.6 34.25 176.05 31 171.6 30.75 167.2 30.7 165.8 30.6 165.1 30.55 163.9 30.15 163.1 29.6 162.1 28.45 161.35 27.75 160.85 26.2 160.15 19.3 157 15.15 152.85 9.9 147.7 8.8 141.45 13.45 140.45 17.6 138.15 17.4 137.7 17.25 137.25 17.95 137.15 18.65 136.85 20.15 136.1 20.6 134.6 20.95 133.2 20.05 130.55 19.3 128.4 14.55 118.3 11 110.85 10.1 105.7 9.4 101.9 9.5 96 9.6 86.85 11.2 79.45 12.75 76.35 14.75 73.35 15.8 70.95 17.05 68.55 21.8 59.65 29.2 51.7 31.8 48.95 31.05 47.15 30.7 46.25 29.75 45.85 29.05 45.55 28.3 45.6 29.95 40.75 29.75 35.7 29.75 34.5 30.2 34.2 30.6 34 31.45 34.3 34.4 35.35 37.55 35.25 40.7 35.2 43.6 34 45.7 33.15 48.2 31.4 48.6 31.15 52.5 28.25 60.9 22.1 70.7 18.1 75.5 16.1 79.65 15.15 82.8 14.1 85.45 13.3 104.4 10.15 119.45 14.4 120.35 14.7 121.05 14.85 122.3 14.7 123.5 14.2 124.2 13.85 124.7 13.65 124.65 13.55 124.65 13.45 125.3 13.25 126.1 12.85 126.6 12.6 127.6 12.05 130.3 10.6 134.85 9.65 151.55 5.95 163.45 8.15 168.9 9.15 176.65 12.25 180.7 13.85 183.1 15.15 182.5 15.15 181.75 15.1 181.65 15.1 181.5 15.1 184 16.65 186.6 18.55 189.15 20.45 199.85 29.4 207.9 36.05 213.5 39.6 218.3 42.55 222.15 43.4 225 44 228.65 43.75 230.95 43.6 235.2 42.95 233.9 45.2 234 47.75 233.95 47.95 233.9 48.2 233.55 50.4 237.5 52.15 246.25 56.05 253.6 64
M 164.65 94.8
Q 173.6 80.95 196.75 81.15 219.25 82.6 223.3 105.5 221.45 130.15 199.4 133.2 177.3 136.15 166.5 122.4 155.7 108.6 164.65 94.8
M 209.85 147.45
L 209.55 148.25
Q 208.15 152.2 207.6 154.35 206.75 157.75 206.8 160.6 206.85 163.1 207.75 164.35 208.6 165.6 210.5 166.35 212.3 167.15 213.9 167.3 214.25 167.05 214.6 166.9 215.8 166.4 216.9 166.8 217.2 166.65 217.7 166.45 218.6 166.05 219.15 166
L 218.05 167.65
Q 218.2 167.8 218.3 168 218.8 168.85 218.7 169.75 218.55 170.65 217.75 171.75 218.5 171.4 219.15 171.05 219.25 171.15 219.35 171.15 219.25 171.75 219.25 172.4 219.15 174.35 218.95 175.25 218.6 176.8 217.4 179.45 216.05 182.5 215 183.8 214.1 185.05 211.7 187 209.55 188.7 208.5 189.2 208.4 189.25 208.35 189.25 208.5 188.75 208.55 188.3 209.25 185.2 208 182 206.8 178.9 204.3 176.75 199.65 172.8 192.3 172.8 187.05 172.8 179.75 175.35 179.15 175.55 178.55 175.8 178.5 175.75 178.5 175.7 178.5 175.65 178.5 175.6 178.45 175.6 178.4 175.65 177.7 176.2 176.2 176.7 176.1 176.45 175.9 176.25 175 175.15 172.55 174.5 169.5 173.75 164.85 173.4 159.6 173.05 157 172.8 152.1 172.25 144.85 170.65 144.2 170.5 143.65 170.4 143.6 170.25 143.6 170.05 143.55 169.35 143.55 168.8 143.6 168.25 143.55 167.7 143.55 167.45 143.55 167.15 161.15 166.9 177.95 162.9 191.6 159.65 200.5 154.45 205.85 151.3 209.85 147.45
M 163.75 180.25
Q 165.95 180.35 167.55 180.75 163.45 182.9 159.65 185.55 159.3 185.45 158.85 185.45 157.8 185.5 156.55 186.4 150.05 190.65 148.3 201.65 146.7 211.95 149.6 222 150.4 224.65 152.3 229.75
L 155.55 238.1
Q 155.6 238.25 155.65 238.35 150.55 238.5 145.95 238.7 135.15 239.35 125.5 240.75 125.9 239.35 125.9 237.05 125.9 230.95 124.85 226.5 125.5 224.6 125.9 222.45 126.9 216.6 125.85 209.65 125.65 208.2 125.35 206.8 126.5 206.15 127.8 204.45 129.3 202.6 130 201.1 130.5 200.1 130.9 198.9 132.05 199.1 133.1 199.1 136.85 199.2 139.35 197.2 142.9 194.55 143.65 187.7 144 184.75 144 177.7 144 177.35 144 177.1 145.05 177.4 146.35 177.75 154.2 179.65 158.95 180 160.55 180.1 163.75 180.25
M 196.2 181.05
Q 198.45 182.05 199.85 183.75 200.95 185.3 200.9 186.6 200.9 187.35 200.25 188.75
L 198.35 192.9
Q 197.5 194.8 196.65 195.6 195.95 196.3 194.75 196.7 194.1 196.95 192.6 197.25 180.8 199.65 168.75 199.65 166.25 199.7 165.3 199.8 163.4 200 162.1 200.75 160.25 201.7 159.15 203.55 159.05 205.3 158.95 207.4 158.9 209.4 159.1 210.75
L 159.8 213.4
Q 160.2 214.95 161 220.25 160.95 220.5 160.95 220.8 160.9 222.9 161.45 226.2 162.2 230.55 162.3 231.65 162.35 232.25 162.5 234.3 162.6 235.75 162.75 236.75 161.7 237.2 160.7 236.95 160.5 236.9 160.35 236.85 157.45 231 155.95 227.2 154.55 223.6 153.7 220.4 153.6 219.2 153.45 217.85 153 212.5 153.1 210.35 153.15 209.2 153.35 206.65
L 154.05 199.45
Q 154.3 197.2 154.65 196.3 155.3 194.6 156.7 193.95 156.9 193.9 157.1 193.85 157.1 193.55 157.05 193.35 157 193.1 156.95 192.85 158.15 191.8 160.1 190.7 171 184.8 182.8 181.4 188.3 179.8 191.75 180 194.2 180.1 196.2 181.05
M 193.7 150.6
Q 184.35 155.6 170.65 158.2 155.4 161.2 139.8 161 141.65 159.4 142.75 157.85 143.4 157.05 143.55 156.25 143.8 155.25 143.3 154.65 142.7 153.85 141 153.9 137.65 154.05 134.6 155.75 131.6 157.45 129.7 160.25 128.9 161.45 129 162.35 129.1 163.25 129.95 163.85 130.8 164.4 131.8 164.5 134.3 164.75 137.4 162.85 137.2 163.7 137.1 164.6 137.25 165.25 137.4 165.8 137.35 166.05 137.3 166.25 137.1 167.75 137.15 168.75 136.85 171.35 137.45 172.5 137.65 172.95 138.05 173.3 137.75 173.75 137.8 174.3 137.85 174.8 138.1 175.2 138.05 175.9 138.15 176.9 138.8 184.8 137.4 190.15 136.9 191.95 136.15 192.5 135.35 193.15 133.95 193.25 132.95 193.3 131.95 193.15 132.05 190.1 131.4 187 130.4 182.35 127.75 178.6 125.05 174.8 120.95 172.45 117.35 170.3 113.5 169.75 113.75 167.3 113.65 164.85 113.75 164.9 113.85 164.9 113.75 164.3 113.55 163.65 113.55 163.3 113.5 162.95 113.35 161.3 112.9 160.35 112.8 160 112.7 159.65 112.55 158.85 112.45 158.15 102.15 156.1 92.2 152.65 90.75 152.15 89.5 152 89.4 151.25 89.3 150.5 89 147.65 89.2 143.5 89.45 136.5 90.7 129.4 95.85 129.25 101.65 128.3 118.35 125.35 125.85 113.45 126.45 113.95 127.35 114.05 128.3 114.1 129.25 113.7 130.4 113.2 132.25 111.25 132.5 110.95 132.85 110.65 134.5 110.85 136.75 111.2
L 145.15 112.6
Q 150.2 113.45 152.6 114.25 154.35 114.8 155 114.9 155.7 115.1 156.25 115 161.45 133.15 181.95 138.4 197 142.15 207.5 139.7 202.2 146.1 193.7 150.6
M 145.55 98.7
Q 151.25 93.8 159.7 87.05
L 160.8 89.5
Q 160.95 89.85 161.15 89.95 161.2 89.95 161.25 89.95 155.75 97.6 155 108.05 154.55 107.9 154 107.85 149.3 106.8 139.8 105.6 138.95 105.5 138.2 105.4 141.65 102.1 145.55 98.7
M 91.2 70.05
Q 114.3 71.6 122.2 86.05 130.05 100.6 118.25 113.45 106.4 126.35 84.6 121.7 62.85 117 62.8 92.4 68.65 69.75 91.2 70.05
M 68.1 172.6
Q 71.75 170.65 77.35 170.1 78.95 169.95 82.2 169.8 84.85 169.65 86.4 169.5 86.45 169.7 86.5 169.95 88.65 170.4 90.85 171.85 92.3 172.85 94.55 174.8 94.5 174.8 94.45 174.85 88.9 178.55 86.65 182.75 85.85 184.2 85.9 185.2 85.9 185.75 86.1 186.2 82.2 188.45 78.55 191.7 78.05 191.6 77.5 191.45 69.3 189.6 65.3 188 63.9 187.45 63.4 186.7 63.05 186.15 62.9 184.6 62.65 182.15 61.45 179.9 61.2 179.85 61.05 179.8 61.05 178.35 61.3 176.85 61.5 175.7 61.95 175.1 62.1 174.95 62.25 174.8 63.55 174.95 65.05 174.25 65.25 174.15 68.1 172.6
M 61.2 196.95
Q 61.75 196.05 62.05 195.6 62.2 195.35 62.3 195.15 62.45 194.85 62.6 194.6 63.35 194.85 64.2 195.15 67.7 196.3 73.2 197.15 72.75 197.7 72.3 198.25 66.65 202.4 61.95 207.7 56.3 214.15 52.55 221.7
L 54.15 215.65
Q 55.9 209 57.15 205.5 58.8 200.95 60.85 197.5 60.9 197.5 60.95 197.5 61.05 197.2 61.2 196.95
M 107.55 163.7
Q 107.25 165.6 106.85 168.45 106.4 168.2 105.95 168 103.7 166.95 101.4 166.35
L 98.3 165.75
Q 96 165.35 95.45 165.3 95.3 165.25 95.15 165.25 95.6 164.9 95.85 164.5 96.7 163.4 96.4 161.9 96.3 161.35 96.1 161 101.8 162.55 107.55 163.7
M 94.6 182.6
Q 97.1 180.7 99.45 179.45 99.9 179.2 100.3 179 102.8 177.75 105.25 177.1 106.25 176.85 107.3 176.7 109.55 176.35 111.8 176.6 112.6 176.7 113.35 176.85 115.5 177.3 117.5 178.3 120.2 179.75 121.95 182.1 124.05 184.95 124.8 189.65 124.9 190.15 125 190.65 125.35 193.5 124.8 195.45 124.65 196 124.4 196.7 123.9 197.95 122.9 199.5 121.6 196.75 119.9 194.8 118.35 193.05 115.55 190.9 113.1 189.05 111.95 188.15 111.15 187.5 110.95 187.35 108.6 185.2 107.35 184.25 105.2 182.6 103.35 182.05 102.45 181.75 101.3 181.65 99 181.5 95.95 182.25 95.25 182.4 94.6 182.6
M 92 190.25
Q 92.25 190.35 92.5 190.55 92.75 190.7 92.95 190.9 94.9 190 96.9 189.35 100.1 188.35 102.15 189.05 103.1 189.35 104.2 190.2 104.4 190.35 106.05 191.8 106.1 191.85 107.55 192.9 108.85 193.9 111.4 195.75 113.8 197.5 115.2 199.15 115.75 199.75 116.15 200.35 117.55 202.35 118.55 205.95 119.35 208.8 119.75 211.45 119.4 212.2 119.2 213.5 118.7 216.75 116.7 223.05 115.3 227.35 114.6 229.15 113.4 232.5 112.05 235 111.55 235.9 111.1 236.1 111 236.15 110.7 236.25 110.1 237.65 108.9 239.1 107.6 238.65 105.95 239.05 105 239.3 103.75 239.9 102.35 240.6 101.65 240.9 97.35 243 91.6 243.85 87.4 244.45 81 244.5 65.15 244.6 53.95 241.5 54.05 239.8 55.05 238.4
L 55 238.4
Q 59.25 223.45 66.15 214.45 68.85 210.95 72.85 207.05 75.15 204.85 80.3 200.4
L 90.6 191.5
Q 91.4 190.85 92 190.25
M 136.6 159.6
Q 136.1 160 135.9 160.05 135.55 160.3 134.75 160.55 134.3 160.9 134 161 133.55 161.2 132.75 161.2 135.25 158.05 139.1 157.15 138.9 157.3 138.8 157.85 138.75 158.45 138.6 158.6 138.45 158.85 138.05 159 137.55 159.05 137.3 159.15 137 159.25 136.6 159.6
M 118.1 239.9
Q 117.85 240.05 117.45 240.1 118.15 239 119.1 236.65 119.35 235.95 119.6 235.3
L 119.6 235.85
Q 119.6 237.4 119.4 238.1 119.05 239.4 118.1 239.9
M 203.85 235.2
Q 204.5 236.8 205.1 238.25 202.75 239.25 200.35 239.65 200.4 239.55 200.45 239.5 202.45 237.1 203.7 235.3 203.75 235.25 203.85 235.25 203.8 235.2 203.85 235.2
M 196.25 213.15
Q 198.6 216.05 199.4 219.8 200.2 223.55 199.2 227.15 198.1 231 194.5 235.35 193.45 236.75 192.3 237.4 191.4 237.85 190.1 238 189.45 238.05 187.75 238.05 186.25 238.05 177.95 238.95 172.55 239.55 169 238.95 167.9 238.15 167.5 237.25 167 236.3 167.25 235.15 167.4 234.45 167.75 233.85
L 166.35 227.9
Q 165.7 225.2 165.5 223.35 165.35 222.65 165.3 220 165.3 219.3 165.25 218.65 165.8 220.1 166.55 221.9
L 167.15 223.45
Q 167.9 225.15 168 225.35 168.5 226.35 168.95 226.7 169.55 227.2 170.8 227.25 173.65 227.4 175.95 225.45 177.1 224.45 177.45 223.4 177.85 222.1 177.2 220.3 176.8 219.25 176.4 218.7 175.65 217.8 175.3 217.3 175.1 216.85 174.85 216.05 174.5 215.05 174.45 214.8
L 173.35 212.85
Q 172.65 211.25 172.3 210.5 171.6 209.15 170.5 207.4
L 169.25 205.45
Q 169.15 205.25 169 205.05 171.75 205.05 180.7 205.05 183.6 205.05 186.2 205 188.45 206.35 191.85 209.05 195 211.55 196.25 213.15
M 170.05 221.9
Q 168.45 217.85 167.75 215.8 166.75 212.8 165.7 206.4
L 168.25 211
Q 172.55 218.9 174.2 222.05 173.2 223.05 172.65 223.25 171.6 223.8 170.8 223.15 170.4 222.85 170.05 221.9
M 112.2 84.2
Q 110.85 82.95 107.4 80.95 104.85 79.5 103.5 78.9 101.2 77.95 99.25 77.8 96.9 77.65 93.5 78.7 89.5 79.95 87.3 81.5 83.9 83.85 81.25 88.55 80.1 90.5 79.65 92.25 79.25 93.9 79.4 96.85 79.65 101.25 80.45 104.25 81.5 108.15 83.8 110.6 86.35 113.25 90.7 114.45 93.7 115.3 98.6 115.35 103.15 115.45 105.75 114.55 108.55 113.6 111.4 111.05 116.1 106.8 117.35 101.85 118.45 97.35 116.85 92.1 115.35 87.15 112.2 84.2
M 178.75 88.7
Q 174.8 89.95 172.6 91.5 169.2 93.85 166.55 98.55 165.4 100.5 164.95 102.25 164.55 103.9 164.7 106.85 164.9 111.25 165.75 114.25 166.8 118.15 169.1 120.6 171.65 123.25 175.95 124.5 179 125.3 183.85 125.35 188.45 125.45 191.05 124.55 193.85 123.6 196.65 121.05 201.4 116.8 202.6 111.85 203.75 107.35 202.15 102.1 200.65 97.15 197.5 94.2 196.15 92.95 192.7 90.95 190.15 89.5 188.75 88.9 186.5 87.95 184.5 87.8 182.15 87.65 178.75 88.7
M 126.65 13.1
Q 126.95 13.05 127.2 13.15 127.85 12.4 128.65 11.55 127.45 12.55 126.65 13.1 Z"/>
</g>
</defs>

<g transform="matrix( 1, 0, 0, 1, 11.7,23.7) ">
<g transform="matrix( 1, 0, 0, 1, 0,0) ">
<use xlink:href="#pipit_0_Layer1_0_FILL"/>
</g>

<g transform="matrix( 1, 0, 0, 1, 0,0) ">
<use xlink:href="#pipit_0_Layer0_0_FILL"/>
</g>
</g>
</svg>
