
<svg xmlns="http://www.w3.org/2000/svg" version="1.1" xmlns:xlink="http://www.w3.org/1999/xlink" preserveAspectRatio="none" x="0px" y="0px" width="150px" height="150px" viewBox="0 0 150 150">
<defs>
<g id="Layer0_0_FILL">
<path fill="#FFFFFF" stroke="none" d="
M 83.05 129.5
Q 82.2 130.2 82.6 131.2 82.85 131.7 83.3 132 83.7 132.3 83.95 132.25 84.25 132.25 84.5 132 84.95 131.65 85.15 131.25 85.6 130.2 84.75 129.55 84.4 129.25 83.9 129.25 83.45 129.25 83.05 129.5
M 75.2 125.6
Q 75.15 124.95 75 124.7 74.6 124.2 73.9 124.5
L 73.65 124.75
Q 73.55 124.85 73.55 125.05 73.4 125.9 74 126.75 74.2 127.1 74.5 127.15 74.9 127.25 75.1 127.05 75.35 126.9 75.45 126.5 75.25 125.9 75.2 125.6
M 85.2 117.95
Q 84.9 118.05 84.75 118.25 84.45 118.55 84.55 119 84.55 119.25 84.75 119.75
L 85.05 120.35
Q 85.25 120.6 85.6 120.7 85.95 120.7 86.2 120.45 86.8 119.85 86.6 118.85 86.5 118.35 86.3 118.15 85.9 117.65 85.2 117.95
M 165.05 113.75
Q 166.65 110.8 169.1 104.75 169.75 103.1 169.8 102.45 169.9 100.95 168.95 100.25 167.6 99.25 165.2 100.6 163.9 101.35 163.4 101.55 162.35 101.95 161.5 101.8
L 160.9 101.5
Q 160.45 101.2 160.35 100 160.2 97.35 161 93.1 162 87.8 162.1 86.15 162.4 81.3 160.95 76.9 159.95 73.65 158 71.55 155.95 69.4 152.85 68.7 150.769921875 68.180078125 148.7 68.4 148.732421875 68.3146484375 148.75 68.2 148.95 66.25 149 64.45
L 149 65.05
Q 149.40546875 59.19609375 145.45 53.45 141.552734375 47.6955078125 140 48.2 140.7 47.6 141.35 47 144 44.4 145.65 41 148.75 34.7 148.05 26.35 147.85 22.95 145.9 22.3 144.55 21.85 143.25 22.95 142.7 23.4 141.4 25.1 138.6 28.75 135.55 28.75 132.8 28.8 129.7 25.9 128.3 24.55 126.55 22.35 124.6 19.9 123.6 18.65 117.45 11.2 110.3 8.4 103.65 5.75 95.8 6.7 90.4 7.3 84.5 9.8 84.8 9.1 84.85 9.05 85.1 8.75 85.65 8.15 86.15 7.6 86.25 7.1 86.3 6.4 85.75 5.8 85.1 5.2 84.4 5.35 83.75 5.5 83.15 6.2 81.3 8.05 80.7 10.1 80.4 11 80.3 11.85 80.05 12 79.9 12.2 66.35 8.15 47.15 14.25 38 17.1 33.4 21.25 32.75 21.8 29.6 25.05 27.35 27.4 25.6 28.5 23.5 29.8 21.55 29.8 19.1 29.9 17.65 28.15 16.9 26.95 16.5 26.35 15.85 25.25 15.05 24.95 14.35 24.7 13.55 24.95 12.85 25.2 12.3 25.8 11.55 26.7 11.15 28.65 10.25 32.7 10.35 37.5 10.45 45.2 13.75 48.75 14.45 49.55 15.6 50.3 14.3 50.7 13.15 51.45 12.650390625 51.7552734375 12.2 52.1
L 11.9 52.1
Q 10.5 53.8 9.75 56.4 8 61.8 9.45 69.4 9.65 70.45 9.95 71.6 10.91484375 75.5708984375 13.35 81.5 13.26171875 81.60234375 13.15 81.7
L 11.3 83.2
Q 9.3 84.8 8.35 85.7 7.7072265625 86.3302734375 7.1 87 5.6419921875 86.664453125 5.25 86.7 4.4 86.65 3.75 87.15 3.1 87.65 2.95 88.4 2.85 88.75 2.95 89.35 3.1 90.25 3.7 91.65 3.80390625 91.88828125 3.9 92.1 2.5189453125 95.2341796875 2.15 98.6 1.8 102.25 2.75 105.85 3.7 109.45 5.75 112.45 7.05 114.35 10.1 117.8 12.7 121 13.4 123.65 12.3 124.8 10.15 123.8 9.1 123.3 8.6 123.05 7.65 122.7 6.95 122.75 6.05 122.85 5.35 123.5 4.7 124.2 4.6 125.05 4.5 126.45 6 128.25 9.05 131.9 13.15 134.05 17.4 136.35 21.9 136.4 25.45 136.4 27.65 135.05 27.79140625 134.9556640625 27.9 134.85 28.60703125 135.7236328125 29.4 136.5 32 138.95 35.1 139.85 38.4 140.8 41.75 139.8 42.1078125 139.691015625 42.45 139.55 43.2375 139.7880859375 44.45 139.4 46.2 138.9 48.9 137.35 51.6 135.85 53.15 134.7 54.6765625 133.58984375 55.75 132.35
L 54.55 135.15
Q 52.55 139.7 51.05 141.85 49.8 143.65 47.5 145.9 46.25 147.2 43.6 149.7 41.1 152.1 38.95 155.05 36.7 158 35.85 160.45 35.05 162.65 35.45 164.4 35.6 165.1 36.05 166.45 36.25 167.45 36.75 167.55 36.95 167.05 37.55 166.65 38.25 166.2 38.6 165.95 39.4 165.3 40.7 163.05 43.65 157.5 48.1 152.75 50 150.9 50.95 149.95 52.6 148.25 53.6 146.95 56.95 142.65 57.95 137.7 58.55 135.45 58.25 133.45 58.1625 133.0126953125 58 132.5 58.0765625 131.984765625 58.15 131.25 58.55 127.85 58.35 124.95
L 57.9 120.75
Q 57.8 119.2 57.95 118.45 58.15 117.35 59.3 115.75 60.6423828125 113.900390625 62.35 112.25 62.5083984375 112.32109375 62.65 112.3 62.9244140625 112.0255859375 63.25 111.7
L 65.5 109.1 66.1 108.5 67.1 106.6
Q 67.35 106.2 67.45 106.15 67.55 106.1 68.05 106.1
L 72.05 106.65
Q 73.55 106.8 73.9 106.75 74.4482421875 106.650390625 74.85 106.45 75.09140625 107.235546875 75.8 107.85 75.89765625 108.0828125 75.95 108.25 76.0271484375 108.9703125 76 109.95
L 76.1 111.15
Q 76.470703125 113.9306640625 76.85 115.8 76.9435546875 117.0513671875 77.1 118.65
L 77.35 120.6
Q 77.45 121.45 77.7 122.05 77.819921875 122.2630859375 77.95 122.4 77.9 123.8369140625 77.9 125.5
L 77.85 129.3 77.9 129.25 77.9 137.35
Q 77.8 143.3 78 147.55 78.2 151.7 79.2 153.9 79.85 155.3 79.95 155.6 80.25 156.6 79.9 157.3 80.25 157.4 80.4 157.1 80.05 156.55 80.3 155.65 80.7 154.6 80.85 154.1 81 153.6 81 151.95 80.5939453125 140.4455078125 80.65 128.9 80.712890625 128.9 80.75 128.9
L 80.8 128.9 80.75 128.75
Q 80.7025390625 128.5599609375 80.8 126.65 80.76953125 126.651171875 80.7 126.65 80.6984375 126.52578125 80.7 126.4 80.7 123.508984375 80.8 121.15 80.8607421875 121.1392578125 80.9 121.1 81.25 120.75 81.8 119.55 83.7869140625 115.2369140625 88.55 107.85 88.9615234375 107.6087890625 89.2 107.4 89.45 107.2 90.05 106.35
L 90.8 105.25
Q 91.0021484375 104.825390625 91.35 104.45 91.7384765625 104.85 92.35 104.85 92.85 104.75 93.2 104.55 95.2 103.7 99.8 102.25 101.1 101.85 101.7 101.55 102.5375 101.084765625 103.1 100.35 103.512109375 100.2865234375 103.95 100.4 103.9365234375 100.2244140625 103.9 100 104.280078125 100.571484375 104.75 101 105.7990234375 101.86171875 107.05 102.1 106.0515625 106.1666015625 106.3 110.45 106.1775390625 110.60859375 106.05 110.8 105.5 111.6 105.7 112.4 105.9236328125 113.339453125 106.75 113.85 107.8 120 111.15 125.35 111.2556640625 125.517578125 111.35 125.65 111.3306640625 125.7388671875 111.3 125.8
L 107 134.95
Q 105.6 137.65 106.05 139.3 106.35 140.4 108.15 142.1 113.95 147.5 115.6 149.15 119.7 153.2 122.4 156.75 123.05 157.6 127.25 163.65 128.1 164.85 128.8 165.3 129.95 166.05 130.9 165.35 131.75 164.75 131.65 163.05 131.45 159.85 128.3 155.35 122.05 146.55 112.25 138.95 111.4 138.35 111.15 137.75 110.95 137.2 111.35 135.95
L 112.65 131.85
Q 113.23828125 129.9779296875 113.55 128.6 113.8337890625 128.8837890625 114.1 129.15 116.35 131.45 119.35 132.85 124.95 135.35 129.3 133.5 129.3728515625 133.466796875 129.45 133.4 130.2330078125 133.6810546875 131.45 133.6 135.5 133.1 139.25 128.7 140.730078125 126.9240234375 141.6 125.15 143.6994140625 126.2326171875 147.35 126.05 151.45 125.8 154.45 124.5 157 123.4 159.15 121.45 162.4 118.55 165.05 113.75
M 105.8 47
Q 107.85 46.75 109.25 47.05 111.35 47.45 114.3 49.65 120.2 54.15 121.35 58.75 122.35 62.85 120.15 67.55 119.4 69.35 118.4 70.45 117.4 71.5 115.45 72.55 109.4 75.8 103.35 74.85 100.15 74.4 97.45 72.8 94.65 71.15 92.95 68.55 92.15 67.5 92.05 66.5 92 65.75 91.95 65.35 91.9 64.75 91.5 62.8 91 59.9 92.05 56.95 93 54.1 95.15 51.9 99.2 47.75 105.8 47
M 119.25 75.35
Q 119.336328125 75.42734375 119.4 75.5 119.3775390625 75.5224609375 119.35 75.55
L 119 75.95
Q 118.9 76 118.35 76 118.83125 75.6861328125 119.25 75.35
M 108.35 92.5
Q 109.2 91 110.9 89.55 115.75 85.25 121.75 83.3 122.1 84.8 121.6 87.2 120.9 90.4 120.85 91.15 120.823828125 91.359375 120.8 91.55 120.6369140625 91.8349609375 120.5 92.15 120 93.2 120.15 94.35 120.3037109375 95.3953125 121 96.5 120.8548828125 96.766015625 120.7 96.95 118.8 99.35 115.7 100.7 113.85 101.55 112.6 101.15 111.97109375 100.8041015625 111.55 100.6 111.5248046875 100.5078125 111.5 100.4 111.251953125 99.209765625 110.3 98.85 110.122265625 98.536328125 109.8 98.3 108.9 97.85 108.55 97.5 108.05 97.1 107.8 96.3 107.25 94.4 108.35 92.5
M 147.95 71.85
Q 150.096484375 71.63671875 152.1 72.4 154.35 73.3 155.45 75.1 156.5 76.7 156.8 79.75 157.1 83.25 156.7 86.35 156.6 87.3 155.6 92.6 154.85 96.4 154.95 98.9 155.05 102.25 156.6 103.85 157.7 105 159.65 105.4 160.95 105.7 163.3 105.75 159.15 115.95 151.95 119.05 148.8 120.45 143.35 120.7 143.1634765625 120.71171875 143 120.7 143.419140625 117.009765625 142.1 111.85 141.2572265625 108.133984375 140 105.75 142.3193359375 104.6294921875 144.5 102.1 147.35 98.7 149.25 92.85 149.95 90.75 150.8 87.65 151.7 84.05 152.2 82.3 152.55 80.9 152.75 79.9 152.85 79.15 152.85 78.7 152.8 76.5 151.35 76.25 150.6 76 149.6 76.7 149.1 77.05 147.95 78.15 145.9 80.4 144.6 79.65 146.827734375 75.845703125 147.95 71.85
M 13.3 84.95
Q 14.05 84.65 14.4 84.45 14.4876953125 84.4060546875 14.55 84.35 14.8998046875 85.1162109375 15.25 85.9 15.6 86.85 15.5 87.2 15.4 87.75 14.45 87.9 12.2966796875 88.187109375 10.15 87.75 11.734375 85.7564453125 13.3 84.95
M 5.95 97.35
Q 6.0087890625 96.9388671875 6.05 96.5 9.4689453125 102.676953125 13.6 106.15 16.9 108.9 20.6 109.8 21.168359375 109.891015625 21.7 109.95 21.6654296875 110.51640625 21.7 111 21.7 111.95 22.25 114.35
L 22.6 115.65
Q 22.8 116.4 22.9 116.55
L 23.45 117.35
Q 24.1 118.15 24.75 118.5 24.91953125 118.5998046875 25.1 118.65 24.805078125 119.358984375 24.6 120.05 23.228515625 124.8044921875 25.2 130 24.880078125 130.0787109375 24.5 130.15 21.8 130.8 19 130.35 16.2 129.95 13.8 128.6 16.6 128.8 17.8 127.3 18.8 126.2 18.6 124.3 18.4 123.05 17.6 121.3 16.05 117.9 14.3 115.6 13.7 114.8 10.8 111.55 8.65 109.1 7.65 107.3 5.15 102.85 5.95 97.35
M 38.7 95.3
Q 38.55 92.75 40.4 90.95 41.25 90.2 42.1 90.05 43.05 89.9 44.75 90.7
L 53.7 94.95
Q 56.5 96.3 57.6 97.35 59.65 99.2 59.35 101.45 59.25 102.4 58.35 104
L 56.85 106.9
Q 56.7232421875 107.153515625 56.65 107.3 56.187890625 107.4763671875 55.5 107.7 50.85 109.05 45.8 105.75 44.55 104.85 44.2 104.1 44.05 103.8 43.95 103.1 43.8 102.45 43.65 102.1 43.5 101.74375 43.25 101.5 43.216015625 101.3736328125 43.15 101.25 42.9 100.7 42.2 100.2 41.4 99.7 41 99.4 38.85 97.9 38.7 95.3
M 41 107.7
Q 41.2396484375 107.9771484375 41.5 108.25 43.1 109.85 45.95 111 52.055859375 113.48203125 57.15 112.15 56.1296875 112.9888671875 55.5 113.65 54.1939453125 115.0431640625 53.65 116.5 52.9603515625 116.694921875 52.05 117.15 50.15 118 49.25 118.05 48 118.1 46.05 116.95 43.4 115.55 42.05 114.35 40 112.55 39.3 110.5 39.1681640625 110.0515625 39.05 109.7 40.13984375 108.7384765625 40.45 108.4 40.7548828125 108.052734375 41 107.7
M 45 122.6
Q 46.9 123.25 48.2 123.35 49.85 123.5 51.7 122.9 52.648046875 122.6392578125 53.55 122.2 53.8373046875 124.8154296875 54.4 127.35 54.164453125 127.546484375 53.95 127.8 53.75 128 52.95 129.2 52.5 129.85 51.4 130.95
L 49.8 132.55 48.05 133.65
Q 45.7 135.05 44.25 135.65 41.761328125 135.7513671875 39.25 135.45 36.55 135.15 35 134.4 32.95 133.35 31.45 131.1 30.05 128.95 29.55 126.45 29.05 123.85 29.65 121.4 30.574609375 117.778515625 34.35 113.95 34.437109375 114.0740234375 34.5 114.2 37.4 119.9 45 122.6
M 121.5 102.75
Q 122.414453125 101.75234375 123.4 99.3 123.9888671875 99.827734375 124.6 100.35 124.5615234375 100.688671875 124.5 101.15 123.9 104.3 120.9 106.3 118.75 107.85 114.9 108.65 113.15859375 108.988671875 110.95 109.15 110.943359375 108.72578125 110.95 108.3 110.9783203125 107.028515625 111.1 105.3 112.28046875 105.836328125 113.65 105.9 115.6 105.95 117.6 105.25 120.15 104.3 121.5 102.75
M 128.9 103.65
Q 129.135546875 103.79375 129.35 103.95 132.4 106.15 133.75 107.95 135.85 110.9 136.5 116.4 136.8 119.3 136.35 120.85 135.65 123.2 133.05 125.45 131.6 126.7 130.85 127.3 130.823828125 127.3220703125 130.8 127.35 130.0611328125 127.0876953125 129 127.3 127.55 127.75 126.8 127.9 124.85 128.35 122.7 127.8 120.65 127.2 118.9 125.85 116.15 123.75 113.7 119.25 112.3419921875 116.7091796875 111.7 114.6 114.6349609375 114.487890625 118.05 113.45 120.1 112.85 121.5 112.15 126.6798828125 109.51015625 128.9 103.65
M 61.85 108.85
Q 61.802734375 108.949609375 61.75 109.05 61.0359375 109.496484375 60.25 110 60.2845703125 109.94765625 60.3 109.9 60.45 109.35 60.35 108.1
L 60.4 108.1
Q 61.6728515625 107.8947265625 62.75 107.05
L 61.85 108.85
M 82.8 106.55
L 82.1 106.55
Q 82.4533203125 106.525390625 82.7 106.55 82.7513671875 106.557421875 82.8 106.55
M 78.65 110.85
L 78.65 110.8
Q 78.449609375 110.0240234375 78.2 109.4
L 77.75 108.25
Q 78.2072265625 108.4130859375 78.65 108.45 79.5 108.6 81.2 108.7 82.589453125 108.7478515625 83.6 108.65 83.365625 109.143359375 83.1 109.7
L 82.75 110.4
Q 82.6783203125 110.5673828125 82.6 110.7 82.562890625 110.7248046875 82.5 110.7 81.4662109375 112.2533203125 79.95 114.8 79.875390625 114.306640625 79.75 113.8
L 79.2 112.05 78.65 110.85
M 36.55 69.45
Q 35.95 67.1 37.05 63.75 38.15 60.35 40.45 57.5 42.8 54.7 45.95 52.95 47.75 52.05 49.2 51.65 51.45 51.05 55 51.05 57.9 51.05 59.15 51.65 60.45 52.25 62.2 54.05 63.75 55.6 64.45 56.45 65.0552734375 57.2478515625 65.5 57.95 65.8279296875 60.9298828125 66.9 63.7 67.0921875 68.15859375 65.45 70.85 64.3 72.6 62 74.25 58.8 76.6 55.05 77.8 51.25 79 47.45 78.9 42.45 78.75 40 76.2 39.1 75.25 37.75 72.55 36.85 70.65 36.55 69.45
M 68.75 71.95
Q 69.4505859375 70.6576171875 69.85 69.15 70.7888671875 70.4890625 71.9 71.7 69.98203125 71.815625 69.5 71.85 69.116796875 71.8958984375 68.75 71.95
M 124.3 47.35
Q 124.65 48 124.45 48.75 124.3 49.5 123.7 49.85 123.35 50.1 122.7 50.1 121.75 50.15 120.75 49.75 120.5314453125 49.6544921875 120.35 49.55 119.41328125 48.642578125 118.25 47.7 113.6 43.9 109.7 43.25 107.1 42.75 103.85 43.35 99.75 44.1 96.55 46 93 48.05 91 51.15 89.5 53.5 88.75 56.8 88.337890625 58.482421875 88.1 60.75 85.99765625 67.536328125 86.75 72.75 86.65 73.1220703125 86.65 73.55 86.6962890625 74.05859375 86.9 74.45
L 87 75.4
Q 86.7234375 75.3611328125 86.4 75.3 82.55 74.65 79.15 72.4 75.8 70.2 73.6 66.95 72.2 64.85 71.05 61.85 69.65 58.35 69.55 55.95 69.45 54.2 69.85 51.65 70.4 48.8 70.55 47.35 70.65 46.4 70.45 45.75 70.2 44.85 69.3 44.7 68.35 44.65 67.5 46.2 66.0119140625 49.0771484375 65.55 52.35 63.032421875 49.6404296875 61.2 48.65 57.4 46.55 50.65 47.6 47.5 48.15 45.35 49.15 41.4 50.8 37.95 55.05 37.530078125 55.5689453125 37.15 56.1 36.184375 56.8328125 35.05 57.4 33.95 57.9 33.3 57.9 32.25 57.9 31.8 57.1 31.5 56.7 31.55 55.8 31.6 54.8 31.5 54.45 31.3 53.7 30.55 53.35 29.8 52.95 29.1 53.25 28.4 53.55 27.55 55 26.15 57.5 25.7 58.8 25.15 60.4 24.75 63.9 24.45 66.4 24.75 67.6 24.79375 67.775390625 24.85 67.95 24.8662109375 68.0001953125 24.85 68.05
L 25.15 68.85 25.5 69.5 26.85 71.3
Q 27.15 71.65 27.75 72.05
L 29.45 73.2
Q 28.8759765625 73.735546875 27.55 74.15 26 74.65 25.55 75.45 24.95 76.45 25.75 78.25 27.1 81.15 29.85 83.15 32.55 85.1 35.75 85.55 37.05 85.7 37.95 85.6 38.85 85.45 40.55 84.65 42.35 83.75 42.7 82.7 42.7494140625 82.502734375 42.75 82.3 45.9208984375 83.0833984375 50 82.55 55.35 81.95 59.95 79.6 61.9 78.65 63.7 77.35 64.6791015625 76.645703125 65.45 75.95 65.631640625 75.9740234375 65.8 76
L 67.05 76.2 68.8 76.2 74.5 75.65
Q 75.25 75.55 75.6 75.4 75.7056640625 75.3546875 75.8 75.25 78.4888671875 77.3033203125 81.65 78.75 81.2001953125 78.9998046875 80.5 79.7
L 79.55 80.7 78.6 82.1 78 83.3 77.7 84.2
Q 77.6 85.15 78.35 85.55
L 78.9 85.75
Q 79.25 85.85 79.55 85.75 79.75 85.7 80.35 85.35
L 81.45 84.55
Q 81.9 84.15 83.45 82.25 84.05 81.55 84.2 81.1 84.4455078125 80.3939453125 84.2 79.8 85.309375 80.1482421875 86.25 80.25 87.85 80.5 89 79.85 89.65 79.5 90 78.85 90.1708984375 78.5326171875 90.2 78.2 90.5951171875 77.8916015625 90.8 77.4 91.039453125 76.761328125 91 75.55 91.6720703125 75.5419921875 92.5 75.45 93.3 75.3 93.35 75.3 93.5640625 75.2572265625 94 75 95.6279296875 76.372265625 97.15 77.2 99.7166015625 78.687890625 102.85 79.15
L 102.6 79.35
Q 101.1 80.45 100.4 81.2 99.65 82.05 99.7 82.75 99.75 83.25 100.15 83.55 100.6 83.9 101.05 83.8 101.5 83.75 101.9 83.4
L 105.6 80.9 106.05 80.35
Q 106.8419921875 79.6767578125 107.05 79.35 110.1666015625 79.2853515625 113.35 78.3 114.433203125 77.95234375 115.4 77.55
L 114.7 78.25 114.05 78.75
Q 113.45 79.5 113.15 79.85 112.65 80.3 112.45 80.5 112.05 80.9 111.95 81.25 111.8869140625 81.534375 111.95 81.8 110.3134765625 82.8673828125 108.75 84.1 103.8 88.05 102.85 92.15 102.45 93.95 102.7 96.2 102.8 97.127734375 103 97.9
L 102.95 97.9
Q 102.891015625 97.8271484375 102.8 97.75 102.7669921875 97.4927734375 102.55 97.25 102.4580078125 96.9939453125 102.35 96.85 102.28125 96.78125 102.2 96.75 102.36640625 97.09921875 102.5 97.5 102.5470703125 97.6255859375 102.6 97.75 102.4486328125 97.75 102.3 97.75 101.65 97.7 100.75 98.05
L 98.95 98.65
Q 97.7 99.05 97.2 99.15 95.5 99.35 94.7 99.65 93.75 100.1 93.2 100.25
L 92.15 100.45
Q 91.45 100.7 90.9 101.3 90.4 101.9 90.3 102.65 90.2806640625 102.940625 90.3 103.2 89.7876953125 103.5470703125 89.1 104 86.328125 105.768359375 83.15 106.4 81.4001953125 106.4833984375 79.7 106.15
L 77.75 105.75
Q 77.65 104.65 76.7 104.25 76.25 104.1 75.75 104.25 75.671484375 104.2736328125 75.6 104.3 75.2626953125 103.766796875 74.55 103.45 74.1 103.25 72.9 103.05
L 70.1 102.5
Q 68.2 102.05 67.4 102.05 67.223828125 102.05 67.05 102.05 66.916015625 102.0255859375 66.75 102 66.3923828125 101.9591796875 66 101.9 65.6650390625 101.8390625 65.4 101.85 65.5005859375 99.926953125 64.75 97.8 63.7 94.9 61.7 93.1 60.3 91.85 56.5 90.1
L 53 88.55
Q 53.86171875 87.83828125 55.05 86.65 55.75 86.05 55.95 85.45 56.3 84.45 55.5 83.75 54.75 83.05 53.8 83.45 53.3 83.7 52.75 84.35 51.648828125 85.9447265625 51.3 87.75
L 47.95 86.25
Q 44.7 84.7 42.6 84.6 40.55 84.55 38.65 85.6 36.75 86.65 35.6 88.45 33.25 92.05 34.4 96.5 35.05 99.4 37 101.2 37.6427734375 101.80703125 38.85 102.55 38.625 102.9 38.4 103.35 37.65 104.7 36.25 106.1 35.5 106.9 33.6 108.5 30 111.6 28.2 113.7 27.9951171875 113.943359375 27.8 114.15
L 27.55 113.1
Q 27.15 111.5 26.8 110.8
L 26.15 109.45
Q 26.75234375 109.244921875 27.3 108.95 25.7 107.7 22.2 106.15 18.65 104.5 17.05 103.25 13.55 100.6 9.75 93.75 10.6 93.7 12.4 93.8 14.2 93.9 15.05 93.85 18.3 93.55 19.5 91.45 20.55 89.4 19.85 86.1 19.4 84.1 17.9 80.5 16.05 76.1 15.15 73.25 14.5 71.25 14.15 69.4 13.75 67.4 13.7 65.65 13.5 61.6 14.85 58.3 16.25 54.75 19.1 53.8 20.9 53.1 21.05 53 21.4 52.8 21.65 52.55 21.7544921875 52.55234375 21.95 52.65 21.834765625 52.534765625 21.75 52.45
L 21.8 52.45 21.75 52.4
Q 21.85859375 52.237109375 21.95 52.1
L 21.45 52.1
Q 19.58359375 50.1669921875 18.85 49.25 17.1 47 16.1 43.65 14.55 38.2 15.8 33.05 17.7 34.55 20.3 34.8 22.7 35.05 25.1 34.2 28.65 32.9 32.9 28.75 36.25 25.55 36.35 25.45 38.35 23.6 40.05 22.45 42.6 20.8 46.55 19.5 63.65 13.45 78.55 15.85 79.8 16 79.85 16 80 16 80.2 16 80.2 16.05 80.25 16.05 81.05 16.45 81.9 16.35 82.95 16.3 84.9 15.4 92.2 12 98.6 11.65 106.6 11.3 112.45 15.2 115.75 17.4 119.95 22.6 124.9 28.75 127 30.6 131.1 34.2 135 34.45 138.95 34.65 142.65 31.8 142.65 37 140.6 41.85 139.63203125 43.996484375 135.45 48.8 140.576171875 53.7931640625 142.35 58.6 144.1962890625 63.44921875 143.35 68.2 143.2 68.7 143.05 69.4 142.55 71.4 141.05 74.85 139.5 78.4 139.05 80.2 138.35 82.45 138.75 83.9 139.1 85 140.05 85.65 140.95 86.15 142.05 86.2 143.5 86.1 146.25 84.75 145.65 88.7 145.15 90.85 144.3 94.1 142.85 96.35 141.8 98 139.3 100.6 138.31015625 101.58984375 137.55 102.4 136.9802734375 101.8384765625 136.3 101.25 135.25 100.35 132.9 98.6
L 128.45 95.35
Q 127.15 94.35 126.8 93.7 126.6 93.35 126.4 92.6 126.279296875 92.237890625 126.15 91.95 126.8515625 90.7255859375 127.3 88.85 128.15 85.15 127.45 81.4 127.15 79.45 126.2 78.4 125.1 77.3 123.25 77.3 122.05 77.3 120.1 77.95 119.4142578125 78.178515625 118.75 78.4 119.185546875 77.6404296875 119.15 77 119.15 76.4 119.2 76.25
L 119.7 75.85
Q 119.7384765625 75.8244140625 119.75 75.8 119.9013671875 75.8814453125 120.05 75.95 121.1 76.4 122.7 76.15 124.05 75.95 125.9 75.35 129.4 73.95 131.55 71.45 132.95 69.9 134.5 66.95 135.1 65.7 134.9 65 134.65 64.1 132.8 63.55
L 132.4 63.45
Q 132.774609375 62.95703125 133.15 62.3 133.7 61.4 134 60.55 134.4 59.5 134.4 58.05 134.5 53.7 132.25 49.95 129.95 46.15 126.15 44.2 125.25 43.75 124.6 43.8 123.95 43.9 123.6 44.45 123.2 45 123.3 45.6 123.45 46.3 124.3 47.35
M 72.15 79.8
Q 71.65 79.55 71.1 79.65 70.55 79.8 70.15 80.2
L 69.6 81.05 68.6 82.2
Q 68.35 82.5 67.95 83.3 67.55 84.2 67.6 84.75
L 67.65 85.15
Q 67.6 85.3 67.35 85.55 66.9 86 67 86.55 67 86.9 67.2 87.1 67.5 87.3 67.7 87.05 67.7 86.05 68.55 85.7
L 69.1 85.5
Q 69.2 85.45 69.85 84.95
L 71.5 83.75 72.45 82.55
Q 72.9 81.9 72.95 81.65 73.1 81.15 72.85 80.6 72.65 80.05 72.15 79.8
M 59.8 83.2
Q 59.05 84.15 58.3 85.9
L 57.85 86.95
Q 57.65 87.35 57.65 87.55 57.65 88 57.95 88.05 58.25 88.15 58.85 87.55 59.35 86.95 60.5 86.25 61.8 85.45 62.25 85 62.85 84.5 63.05 83.85 63.25 83 62.8 82.5 62.2 81.8 61.15 82.15 60.45 82.35 59.8 83.2
M 86.55 90.4
Q 86.55 89.3 86.15 88.95 85.45 88.35 84.75 88.4 84.6 88.4 84.5 88.45 83.7 88.5 83.05 88.55 81.65 88.75 79.05 89.3 76.1 90.05 74.75 90.55 74.15 90.85 73.95 91.1 73.65 91.55 73.85 92.05 74.05 92.6 74.6 92.7 75 92.75 75.7 92.5 76.3 92.3 76.95 92.05 77.2 93.5 78.3 95.4 79.1 96.85 79.85 97.75 81 99 82.2 99.4 82.95 99.65 83.6 99.55 84.1 99.5 84.5 99.25 85.05 98.75 85.45 97.85 85.8 97.1 86.05 95.1
L 86.45 91.9
Q 86.55 91.05 86.55 90.4
M 83.45 95.65
Q 83.35 96.35 83.25 96.55 83.2 96.7 83.05 96.8 82.9 96.85 82.65 96.7 81.55 96.15 80.7 94.65 80.4 94.1 80.05 93.35
L 79.45 92
Q 79.35 91.85 79.3 91.75 81.05 90.75 84.05 90.35 83.9 92.65 83.45 95.65
M 95 78.8
Q 94.5 78.4 93.8 78.65 93.45 78.8 92.8 79.35 91.75 80.15 90.8 80.7 89.8 81.3 89.45 81.75 88.8 82.7 89.3 83.4 89.55 83.8 90.1 83.85 90.65 83.95 91.1 83.7 91.35 83.6 92.65 82.4 93.25 81.9 94.45 81 95.1 80.5 95.2 80 95.45 79.25 95 78.8
M 63.3 68.85
Q 65.55 67.75 66 66.7 66.4 65.8 66.05 64.75 65.7 63.75 64.85 63.1 63.7 62.2 61.1 61.7 55.8 60.85 50.05 61.3 48.5 61.4 47.7 61.8 46.4 62.5 46.3 63.7 46.3 64.7 47.05 65.35 47.65 65.9 48.7 66.25 49.45 66.5 51.9 66.85
L 55.7 67.3
Q 53.7 68.9 53.25 71.35 53.15 72 53.4 72.3 53.65 72.5 54.15 72.5 55.6 72.6 56.55 72.35 57.5 72.15 59.75 70.8 61.35 69.8 63.3 68.85
M 104.6 55.1
Q 104 55.1 103.1 55.6 101.05 56.85 100 57.4 98.15 58.45 96.75 58.85 95.05 59.3 94.55 59.55 93.05 60.3 92.6 61.85 92.1 63.45 92.9 64.85 93.2 65.5 93.7 65.9 94.05 66.25 94.95 66.65 98.2 68.1 101.8 68.35 103.45 68.45 104.55 68.05 106.05 67.45 106.5 66.15 106.95 64.5 105.4 63.1 104.45 62.2 102.3 61.7
L 105.25 59.4
Q 106.35 58.55 106.6 58 107.1 56.95 106.4 55.95 105.75 55 104.6 55.1
M 102.85 108.65
Q 102.95 107.95 102.85 107.6 102.5 106.45 101 106.15 100.2 106 98.5 106.2
L 96.75 106.3
Q 95.9 106.4 94.45 106.8 92.8 107.3 92.15 107.4 90.75 107.6 90.3 108.05 89.65 108.65 89.8 109.45 88.85 109.6 88.6 110.65 88.45 111.05 88.45 112.4 88.65 115.25 89.7 116.3 89.9 116.5 90.9 117.1 93.1 118.15 94.2 118.2 96.4 118.35 98.7 116.4 99.55 115.6 100 115 100.2 114.75 100.8 113.65
L 102.35 110.5
Q 102.7 109.7 102.85 108.65
M 93.25 110.8
Q 94.05 110.75 95.85 110.4 97.5 110.05 98.45 110.05 98.15 111.75 97.25 113.05 96.75 113.8 96.15 114.2 95.15 114.95 93.3 114.85 92.9 114.85 92.6 114.7 92.3 114.45 92.2 113.85 91.85 112.45 91.75 110.95 92.2 110.8 93.25 110.8
M 74 109.85
Q 73.6 109.5 72.5 109.4 68.95 109.2 67.2 109.45 66.3 109.65 65.85 109.9 65.25 110.35 64.95 110.5 64.15 110.85 64 111.05
L 63.8 111.5
Q 63.75 111.75 63.45 112.05 62.8 113.05 62.8 114.35 62.8 115.65 63.45 116.65 64.55 118.25 66.9 118.85 68.15 119.2 69 119.15 70.25 119.05 71 118.45 71.35 118.2 71.85 117.5
L 73.65 115.2
Q 73.85 114.9 74.45 113.6
L 74.7 112.8
Q 74.8 112.3 74.6 111.25 74.5 110.3 74 109.85
M 66.85 115.15
Q 66.5 114.85 66.5 114.15
L 66.15 112.65 71.25 112.65
Q 71.1 113.2 70.4 113.9 69.75 114.65 69.15 114.9 68.6 115.05 68.3 115.15 67.6 115.3 67.5 115.3 67.1 115.35 66.85 115.15
M 5.55 36
Q 5.6 35.3 4.85 34.8 4.3 34.45 3.4 34.35 1.35 34 -0.05 34.1 -2.95 34.4 -6.2 36.95 -12 41.4 -12.95 46.7 -13.2 47.9 -13 48.85 -12.5 51.15 -9.8 52.25 -8.15 52.9 -5 52.9 -1.15 53 0.75 51.8 1.55 51.25 1.95 51 2.65 50.55 3.25 50.55 3.6 50.55 3.65 50.35 1.8 50.2 -0.65 49.8 -5.05 49.2 -7.35 48.3 -8.05 48 -8.15 47.65 -8.25 47.45 -8.15 46.95 -7.65 44.8 -5.9 42.8 -4.4 41.25 -2.25 39.75 -0.65 38.65 0.25 38.25 1.35 37.75 3.2 37.5 4.2 37.4 4.65 37.15 5.55 36.8 5.55 36
M 28.65 4.35
Q 25.1 1.5 20.5 1.1 17.95 0.9 14.55 1.6 12.6 2.05 11.5 2.7 9.9 3.55 9.25 4.95 8.4 7 9.5 9.2 10.35 10.85 12.25 12.6 15.7 15.75 19.05 16.8 20.45 17.25 21.4 16.95 22.05 16.7 22.3 16.2 22.55 15.8 22.4 15.1 22.2 14.2 21.3 13.35 20.8 12.85 19.5 12 16.6 10.05 14.65 7.5 14.5 7.45 14.5 7.25 14.5 7 14.8 6.9 17.5 5.1 21.45 6 24.2 6.6 25.85 8.1 27.9 9.95 28 12.45 28 14 28.15 14.35 28.45 15.2 29.4 15.45 30.35 15.75 31.05 15.2 31.8 14.65 32.1 13 32.45 11.4 32.3 10.15 31.9 6.9 28.65 4.35
M 144.8 49.9
L 144.75 49.85 146.15 52
Q 145.548828125 50.8984375 144.8 49.9
M 162.3 23.3
Q 163.25 23.65 164.7 24.7 165.8 25.5 166.2 26 166.8 26.6 167.45 28 168.4 30.2 168.3 31.6 168.3 31.9 168.2 32 168.15 32.1 167.7 32.2 164.7 32.45 163.85 32.4 162 32.3 161.35 32.45 159.85 33.2 159.05 33.25
L 158.3 33.3
Q 157.85 33.5 157.8 33.8 158 34.1 158.45 34.4 158.75 34.55 159.25 34.85
L 160.35 35.65
Q 161.85 36.6 164.95 36.4 167.25 36.3 168.5 35.8 170.45 35.1 171.15 33.45 171.45 32.7 171.45 31.1 171.45 29.85 171.2 28.9 171.1 28.4 170.55 27 169.25 23.95 167.75 22.95 167 22.4 165.5 22.05 163.2 21.55 162.05 21.45 159.75 21.2 158.35 21.6 157.6 21.9 157.6 22.3 157.6 22.75 158.15 22.95
L 159.05 22.95
Q 160.75 22.7 162.3 23.3
M 130.05 -4.35
Q 136.65 -7.9 141.75 -7.8 140.3 -5.55 137.75 -3.3 136.15 -1.9 133 0.45 131.1 1.9 130.65 2.9 130.25 3.7 130.4 4.6 130.5 5.55 131.2 6 132 6.6 133.4 6.15 134.2 5.85 135.3 4.95 139.35 1.75 140.05 1.2 142.75 -1.15 144.5 -3.3 146.4 -5.75 146.45 -7.75 146.45 -8.95 145.85 -10.05 145.2 -11.15 144.15 -11.8 142.8 -12.55 140.5 -12.55 134.7 -12.5 129.2 -8.55 125 -5.5 120.8 0.2 120.3 0.9 120.2 1.3 120.05 2.1 120.65 2.4 121.4 2.8 122.3 1.55 125 -1.65 130.05 -4.35 Z"/>
</g>
</defs>

<g transform="matrix( 1, 0, 0, 1, 0,0) ">
<use xlink:href="#Layer0_0_FILL"/>
</g>
</svg>
