
<svg xmlns="http://www.w3.org/2000/svg" version="1.1" xmlns:xlink="http://www.w3.org/1999/xlink" preserveAspectRatio="none" x="0px" y="0px" width="300px" height="300px" viewBox="0 0 300 300">
<defs/>

<g id="Layer_1">
<g id="Layer_1" transform="matrix( 1, 0, 0, 1, 46.6,24.45) ">
<g>
<g>
<g>
<path fill="#2B0021" stroke="none" d="
M 183.7 46.8
Q 180.55 36.6 171.55 31.15 162.55 25.6 148.65 25.3 141.8 25.2 139.75 25.75 137.8 20.75 137.55 20.15 136.25 17.55 133.9 14.85 132.25 12.9 129.35 10.15 126.1 7.05 123.85 5.35 120.7 2.95 117.6 1.75 111.9 -0.55 103.75 0.15 97.7 0.65 93.45 2.45 87.15 5 83 22.7 79.45 23.1 73.65 24.45 62.5 26.95 51.05 33.4 50.1 34 49.05 34.7 43.2 38.7 39.75 41.35 34.75 45.2 31.15 48.9 26 54.25 23.05 59.85
L 22.45 59.1
Q 21.05 56.9 20.3 55.8 19.5 54.65 18.35 53.35 17.15 51.85 16.4 51.25 15 50.15 13.2 49.8 11.35 49.45 9.65 49.95 7.9 50.5 6.65 51.9 5.35 53.25 4.95 55 4.7 56.3 4.75 57.3 4.75 58.8 5.25 60.1 6.1 62.35 8.45 63.75 10.1 64.8 13.05 65.55 15.1 66 15.85 66.55 16.3 66.9 17.05 67.9 15.75 68.45 14.3 68.95 11.85 69.75 7.7 70.85 4.5 71.65 3.25 72.5 1.6 73.55 0.75 75.35 -0.15 77.15 0 79.1 0.2 81 1.4 82.6 2.65 84.25 4.45 84.9 6.3 85.55 8.25 85.15 10.25 84.7 11.6 83.35 12.15 82.8 12.8 81.85 13.75 80.4 13.85 80.3 15.35 78.3 17.9 76.55 18.3 76.25 18.8 75.95 18.6 79.05 18 87 17.4 94.9 17.95 98.65 18.45 102.45 20.05 109 21.65 115.55 31 127.5 30.15 128.6 29.9 129.05 28.4 131.6 27.9 135.25 27.55 137.65 27.55 141.95 27.55 143.85 27.8 144.75 28 145.45 28.7 146.75 29.8 148.85 30.8 150.1 31.3 151 32 151.75 34 153.9 37.2 154.95 37.95 155.2 39 155.45 38.8 155.85 38.65 156.25 36.85 161 36.85 165.8 34.6 168.1 34.1 169.85 33.8 170.85 33.8 172.4 33.7 174.5 34.1 176.05 34.6 178.05 36.2 179.6 37.7 181.15 39.75 181.7 41.35 182.2 44.75 182.1 46.65 182 47.95 181.7 51.3 181 53.8 178.5 55.25 177 55.75 175.5 56.1 174.55 56.4 172.45 56.75 170.25 56.75 169.55 56.8 166.9 55.15 164.6 53.55 162.35 51.05 161.35 49.6 160.75 48.1 160.65 48.75 158.45 49.8 156.6 55.55 156.95 58.8 157.05 62.55 157.15 65.9 157.1 75.6 157.2 82.85 156.3 90.5 155.4 96.9 153.3 97.95 153.5 99.6 153.8 102.95 154.35 107.5 154.3 109.55 154.3 113.15 154.15 116.45 157.8 118.4 161.45 119.45 163.4 120.65 166.6 122.65 171.7 122.95 175.3 122.95 175.95 123 176.55 122.9 176.6 122.85 176.7 122.9 176.85 122.95 177.05 123 177 123.05 176.95 123.65 176.15 122.15 181.3 120.65 186.45 116.9 192.2 113.1 197.9 109.75 200.2 107.65 201.65 102.65 203.6 99.35 204.9 97.45 205.5 94.55 206.35 92.1 206.45 89.9 206.5 87.15 205.95 85.6 205.65 82.3 204.7 78.6 203.75 76.95 202.3 76.5 201.9 75.35 200.5 74.4 199.3 73.65 198.8 70.95 196.9 65.95 198.8 56.15 202.5 50.1 210.95 47.55 214.5 46.95 217.6 46.1 221.8 48.4 224.7 49.9 226.55 52.5 227.3 54.75 228 57.45 227.7 63.55 227 67.85 222.45 71.1 219.05 73.4 212.1 78.6 214.1 82 215 86.8 216.3 90.9 216.4 98.25 216.6 107.3 212.95 111.9 211.15 115.2 208.8 120.55 204.95 125.1 197.55 128.6 191.8 130.1 186.5 130.75 184.3 130.8 182.45 131.05 182.3 131.3 182.15 132.75 181.15 133.2 179.6 133.35 179.1 133.4 178.4 136.8 178.3 141.2 177.25 144.7 176.4 151.7 174.65 157.05 173.7 167.15 173.8 171.8 173.8 174.05 174.45 177.05 175.3 178.6 177.4 179.75 179 180 181.5 180.9 188 176.75 196.3 175.9 198.05 173.1 203.05 170.7 207.25 169.6 209.9 169.4 210.35 169.25 210.8 168.3 211.15 167.55 211.75 166 213.1 164.65 216.35 163.65 218.9 163.4 220.1 163 221.9 162.95 224.45 162.95 225.9 162.95 228.85 162.95 231.95 163.1 232.7 163.3 233.95 164.3 236 165.65 239.2 166.9 240.65 168.3 242.3 170.55 243.6 174.8 246.1 177.95 244.75 179.95 243.85 181.05 241.55 181.9 239.75 182.15 237.15 182.5 233.8 182.1 231.25 181.9 229.65 181 226.65 179.15 220.25 177.85 216.95 177.75 216.75 177.7 216.6 177.75 216.5 177.8 216.45 178.6 215.45 179.75 213.35
L 182.35 208.4
Q 185.6 202.35 187 199.1 189.3 193.75 190.05 189.2 190.95 183.75 189.7 178.8 188.4 173.35 184.8 169.95 178.95 164.35 167.1 164.15 158.35 164 148.3 166.3 141.3 167.9 132.5 171 132.25 169.85 132.05 169 131.55 166.8 130.05 163.35 128.45 159.65 126.35 156.3 127.2 156.55 127.9 156.65 129.3 156.9 131.5 157
L 135.1 157.1
Q 136.35 157.15 140.8 157.65 144.35 158.05 146.5 158 149.45 157.95 154.3 156.8 162.85 154.6 168.25 151.45 174.15 148.05 178.55 142.9 180.45 145.15 182.5 146 184.25 146.75 187.25 146.75 192.2 146.65 195.1 144.65 196.85 143.45 197.75 141.55 198.75 139.55 198.3 137.6 197.95 135.75 196.55 135.1 196.35 135 196.15 134.95 196.3 134.85 196.5 134.7 198.15 133.3 197.85 131.2 197.7 129.9 196.2 128 194.4 125.75 192.65 124.75 191.1 123.9 189.2 123.8 187.3 123.7 185.6 124.35 185.3 124.45 185 124.6 185.2 122.3 185.35 119.65 185.45 118.05 185.4 117.2 185.35 116.2 184.85 114.4 184.05 111.05 182.2 110.3 180.5 109.65 179.05 110.9 178.1 111.75 177.5 113.85 176.5 117.35 175.9 120.55 175.75 121.45 175.5 123.2 174.65 122.05 173.15 119.25 172.6 118.05 172.1 117.45 170.55 115.5 168.05 115.75 167.15 115.85 166.45 116.25 165.65 116.7 165.05 117.55 164.3 118.6 164.15 119.9 163.95 121.2 164.4 122.35 164.7 123.15 165.55 124.6
L 166.3 126.35
Q 166.7 127.1 167.6 128.3 168.6 129.7 168.95 130.25 169.55 131.25 170.55 133.35 170.85 133.85 171.35 134.55 171 134.85 170.65 135.2 169.95 135.9 168.85 137.25 167.55 138.8 167.05 139.35 164.6 141.9 160.8 143.85 158 145.25 153.55 146.75 148.1 148.55 145.05 148.95 142.75 149.25 139.25 149.25 140.8 148.3 142.2 147.15 145.2 144.75 146.8 141.8 148.6 138.4 147.9 135.2 147.5 133.25 146.05 131.85 145.35 131.15 144.55 130.85 145.05 130.25 145.6 129.7 152.3 122.45 156.45 113.05 160 104.95 161.4 95.95 164.6 93.6 170.55 87.7 179.8 78.6 183.35 67.75 186.85 56.95 183.7 46.8
M 192.8 135.25
Q 193.05 135.35 193.35 135.45 192.55 135.85 191.7 136.5 190.25 137.65 189.45 138.05 188.1 138.7 186.95 138.45 185.7 138.15 184.35 136.45 184.3 136.35 184.25 136.3 184.85 135.65 185.5 134.6 186.8 132.4 187.75 131.8 188.45 131.4 189 131.6 189.45 131.75 189.85 132.5 191.3 134.75 192.8 135.25
M 31.95 126.25
L 31.85 126.4
Q 31.4 125.75 30.9 125 31.5 125.6 31.85 126.15 31.9 126.2 31.95 126.25 Z"/>
</g>
</g>
</g>
</g>

<g id="Layer_1_copy" transform="matrix( 1, 0, 0, 1, 46.6,24.45) ">
<g>
<g>
<g>
<path fill="#68152E" stroke="none" d="
M 29.55 96.25
Q 29.3 95.1 29.2 93.75 29.1 92.55 28.95 92.2 28.6 91.3 27.8 91.3 27.45 91.3 27.2 91.5 26.85 91.75 26.65 92.45 26.2 94.25 26.55 96.7 26.7 98.1 27.3 100.95 27.5 102.15 27.7 102.7
L 28.3 104.2 28.6 105.4 29 106.25 29.45 107.9
Q 29.8 109.35 30.9 111.55 32.1 114.05 32.25 114.35 32.8 115.65 33.4 116.2 34.45 117.15 35.85 116.9 37.25 116.65 37.9 115.35 38.3 114.5 38.3 113.25 38.4 111.15 37.55 110.1 38.45 109.85 39.1 109.35 39.9 108.75 39.95 107.95 40 107.15 39.2 105.95
L 37.05 102.8
Q 35.95 101.2 35.2 100.7 34.3 100.15 33.2 100.2 32.1 100.25 31.25 100.9 29.9 97.75 29.55 96.25
M 175.55 60.5
Q 177.65 54.7 175.95 51.55 175.4 50.4 174.5 50.35 173.2 50.2 172.65 52.4 172.15 54.4 172.25 56.3 172.1 55.2 171.05 54.5 169.85 53.65 168.65 54.1 167.5 54.75 166.9 54.95 165.75 55.15 165.25 55.35 164.5 55.65 164.05 56.4 163.6 57.15 163.65 58.05 163.7 59.65 165.2 60.85 166.2 61.75 166.35 61.95 166.6 62.45 166.6 63.6
L 166.55 67.2
Q 166.45 70.1 167.85 70.8 169.05 71.4 170.35 70.4 171.2 69.75 171.95 68.3 174.05 64.55 175.55 60.5 Z"/>

<path fill="#FFFAF4" stroke="none" d="
M 151.95 80.2
Q 151.45 80.4 150.9 80.5 149.2 80.8 145.25 80.05 121.55 75.65 94.7 81.3 74.85 85.5 52.7 95.3 52.75 95.55 52.85 95.8 52.6 95.85 52.35 96.05 52.15 96.2 52 96.4 53.8 101 55.05 106.15 57.55 112.9 60.9 121.4 63.3 127.45 65.25 132.5 61.4 132.65 57.95 132.55 57.75 132.55 57.55 132.55 56.2 132.6 53.9 133 52.65 133.2 51.75 133.35 52.25 133.6 52.8 133.75 53.2 133.9 53.8 134 53.75 134.05 53.7 134.1 54 134.1 54.3 134.1 56.3 134.05 60.3 134.15 61.75 134.2 64.55 134.25 67.35 134.45 70.35 135.45 72.45 135.35 74.9 135.4 77.5 135.45 82.7 135.65 91.8 136 94.2 136.3 98.05 136.7 101.2 137.7 101.25 137.7 101.3 137.7 102.4 137.9 104.55 138.5 104.85 138.35 105.25 138.3 106.5 138.1 108.2 138.75 109.65 139.3 111.45 140.6 121.1 138.15 126.85 134.55 133.3 130.45 138.8 124.25 144.25 118 147.6 110.45 153.7 96.5 151.95 80.2
M 135.05 88.8
Q 136.1 87.25 137.8 86.35 139.55 85.45 141.35 85.55 143.8 85.75 146.2 87.65 149 89.8 149.4 92.4 149.7 94.3 148.65 96.2 147.65 97.9 145.9 99.15 144.25 100.3 142.55 100.65 140.35 101.1 138.2 100.15 136 99.2 134.85 97.3 133.65 95.4 133.75 93 133.8 90.65 135.05 88.8
M 67.8 97.05
Q 69.6 96.85 71.35 97.75 73.05 98.6 74.1 100.2 76.05 103.15 75.55 107.35 75.1 110.75 73.15 112.45 71.9 113.6 69.75 114.05 67.35 114.55 65.55 113.65 62.65 112.25 61.8 107.75 61.15 103.95 62.55 101.05 63.3 99.45 64.7 98.35 66.1 97.25 67.8 97.05
M 105.1 122.15
Q 105.1 120.8 106.25 119.9 107.05 119.3 108.3 119.2 108.45 119.2 110.65 119.2 113 119.2 115.35 118.5 117.15 118 117.6 118.05 118.85 118.05 119.8 119.1 120.7 120.15 120.6 121.4 120.5 122.65 119.4 123.5 118.3 124.4 117.05 124.15 116.6 124.1 115.9 123.8 115.15 123.5 114.8 123.45 113.85 123.25 112.65 123.6 112.5 123.65 110.5 124.35 107.75 125.35 106.25 124.4 105.1 123.6 105.1 122.15 Z"/>

<path fill="#2B0021" stroke="none" d="
M 106.25 119.9
Q 105.1 120.8 105.1 122.15 105.1 123.6 106.25 124.4 107.75 125.35 110.5 124.35 112.5 123.65 112.65 123.6 113.85 123.25 114.8 123.45 115.15 123.5 115.9 123.8 116.6 124.1 117.05 124.15 118.3 124.4 119.4 123.5 120.5 122.65 120.6 121.4 120.7 120.15 119.8 119.1 118.85 118.05 117.6 118.05 117.15 118 115.35 118.5 113 119.2 110.65 119.2 108.45 119.2 108.3 119.2 107.05 119.3 106.25 119.9
M 71.35 97.75
Q 69.6 96.85 67.8 97.05 66.1 97.25 64.7 98.35 63.3 99.45 62.55 101.05 61.15 103.95 61.8 107.75 62.65 112.25 65.55 113.65 67.35 114.55 69.75 114.05 71.9 113.6 73.15 112.45 75.1 110.75 75.55 107.35 76.05 103.15 74.1 100.2 73.05 98.6 71.35 97.75
M 137.8 86.35
Q 136.1 87.25 135.05 88.8 133.8 90.65 133.75 93 133.65 95.4 134.85 97.3 136 99.2 138.2 100.15 140.35 101.1 142.55 100.65 144.25 100.3 145.9 99.15 147.65 97.9 148.65 96.2 149.7 94.3 149.4 92.4 149 89.8 146.2 87.65 143.8 85.75 141.35 85.55 139.55 85.45 137.8 86.35 Z"/>
</g>
</g>
</g>
</g>
</g>
</svg>
