
<svg xmlns="http://www.w3.org/2000/svg" version="1.1" xmlns:xlink="http://www.w3.org/1999/xlink" preserveAspectRatio="none" x="0px" y="0px" width="150px" height="150px" viewBox="0 0 150 150">
<defs>
<g id="Layer0_0_FILL">
<path fill="#FFFFFF" stroke="none" d="
M 93.7 19.05
Q 89.05 15.45 83.2 16.8 80.2 17.6 77.3 19.2 71.35 14.65 64.15 14 55.6 14.1 51.05 21.2 48.45 25.25 47.9 30.1 46.35 30.9 44.85 31.75 37.5 36.25 33.2 43.5
L 30.45 50.25
Q 28.5 48.4 26.75 46.4 25.55 45.05 23.7 45.15 22.65 45.3 22.2 46.2 21 48.75 23.05 51.2 24 52.35 25.15 53.25 23.4 54.55 21.75 55.95 21 56.55 20.85 57.4 20.6 59 22.1 59.55 24.1 60.25 25.95 59.4 27.8 58.65 29.65 57.75 29.65 58 29.65 58.25 29.05 68.3 34.1 76.95 36.15 80.45 39.2 83 38.35 85 38.15 87.2 38 88.55 38.3 89.85 39.1 93.5 43 94.55 44.65 95 46.4 94.65 45.3 96.35 44.3 98.05 42.2 101.55 43.4 105.3 45.55 112.2 52.8 112.25 58.05 112.25 61 107.9 62.15 106.2 61.7 104.25 60.5 99.2 55 98.5 52.7 98.45 50.5 99.35 55.7 91.6 64.7 89.05 65.55 88.85 66.45 88.45 68.3 87.45 70.25 87.5 70.6 88.5 71.3 88.95 77.15 93 80.2 99.45 81.05 101.3 82 103.35 80.8 108.5 77.8 112.9 77.2 113.8 76.1 114.45 72.15 116.55 67.55 116.05 65.15 116 63.6 117.5 61.15 119.8 59.45 122.7 56.9 127.2 57.7 132.1 58.05 134.2 60.25 134.95 63.45 136 66.05 133.8 68 132.1 68.9 129.85 70.5 125.9 70.2 121.6 71.4 121.3 72.65 121.3 77 120.95 80.25 118.2 81.95 116.8 83.15 114.95 86.074609375 110.5630859375 87.1 105.5 87.7873046875 105.3546875 88.6 105.05 91.4 104 96.95 101.55 102 99.6 105.8 99.85 106.85 99.85 107.3 100.35 107.55 100.75 107.65 101.3 107.9 102.85 107.5 104.4 107.2 105.3 106.6 106.5 106.25 107.15 105.5 108.5 104.0083984375 110.7546875 103.65 112.95 103.25 115.55 103.1 117.55 103.1 119.5 103.15 119.85
L 103.5 121.35
Q 104 123.45 104.8 124.5 105.55 125.55 106.75 126.1 107.95 126.6 109.25 126.45 110.5 126.35 111.6 125.55 112.65 124.75 113.15 123.55 113.55 122.75 113.6 121.9 114.05 119.3 113.25 116.6
L 112.7 115
Q 111.850390625 112.7568359375 110.85 111.6 112.6888671875 109.0052734375 113.45 106.05 114.4 102.45 113.55 99.25 113.05 97.45 112.1 96.2 110.6 94.35 107.85 93.75 105.8 93.3 102.9 93.65 95.3234375 94.5728515625 86.15 99.8 85.41796875 97.933203125 84.3 95.45 83.9376953125 94.7748046875 83.55 94.1 81.85 91 79.45 88.6 81.15 88.9 82.85 89.2 89.35 90.4 95.65 88.95 103 87.2 107.75 81.4 109.35 79.5 109.75 76.95 111.6 77.85 113.7 77.55 115.55 77.45 116.45 75.95 116.85 75.3 116.7 74.6 116.25 72.15 113.4 72.65 111.5 72.55 110.85 70.75 111.15 70.4 111.5 70.1 111.75 69.9 112 69.75 112.2 69.6 112.45 69.5 112.65 69.4 112.85 69.35 113 69.25 113.2 69.2 113.35 69.2 113.55 69.25 113.65 69.3 113.8 69.4 113.85 69.75 113.85 70.1 114 72.2 116.1 72.65 117.9 73.15 118.75 71.5 120.4 68.35 117.65 66.1 115.65 64.45 112.8 64.55 112.75 63.5 112.75 62.45 112.75 61.55 112.55 60.6 112.45 60.05 112.15 59.6 111.85 59.1 111.4 58.8 110.95 58.5 110.5 58.35 109.35 58.15 108.45 59.15 107.95 59.75 107.65 60.45 107.35 61.3 107.2 62.2 107.1 62.95 107.05 63.7 106.15 62.7 105.2 61.85 104.25 60.9 103.25 61.55 101.45 62.8 102.25 65.05 103.1 67.25 104.45 69.25 104.75 69.65 105.05 70
L 105.3 72.15
Q 104.95 73.5 104.65 74.9 104.45 75.65 104.15 76.35 101.35 82.25 95 84.3 90.5 85.75 85.85 84.6 82.9 84.1 79.95 83.3 82.55 81.85 85.1 80.35 87.5 78.95 89.85 77.35 97.5 71.9 99.75 62.9 100.95 58 100.3 52.85 101.8 52.15 103.05 50.95 105.3 48.8 106.45 46.1 107.65 43.15 107.45 39.95 106.85 29.6 98.75 23.1 96.3 21.1 93.7 19.05
M 92.65 44.85
Q 93.4 46.65 94 48.55 96.7 56.75 93.9 64.75 91.5 65.15 89.2 66.1 86.95 67.05 84.45 67.7 83.55 68 82.9 68.6 82.25 69.15 82.4 70 82.7 71.35 84.3 71.35 87.85 70.85 91.35 69.7 90.7 70.55 90 71.4 84.4 77.95 76.25 81.3 73.9 82.2 71.45 82.55 69.8 82.95 67.8 83.15 64.6 83.5 61.55 84.35 56.65 83.75 52.15 82.2
L 52.65 81.1
Q 52.55 80.1 51.95 79.45 46.1 72.5 43.6 63.9 52.3 55.6 63.4 50.7 77.35 44.5 92.65 44.85
M 54.9 60.1
Q 53.35 60.05 52 61.05 50.6 62 50.2 63.45 49.85 64.95 50.5 66.4 51.2 67.85 52.6 68.5 53.95 69.2 55.65 68.95 57.35 68.6 58.4 67.45 59.4 66.3 59.5 64.7 59.55 63.05 58.6 61.9 57.2 60.2 54.9 60.1
M 87.05 48
Q 85.5 47.95 84.15 48.95 82.75 49.9 82.35 51.35 82 52.85 82.65 54.3 83.35 55.75 84.75 56.4 86.1 57.1 87.8 56.85 89.5 56.5 90.55 55.35 91.55 54.2 91.65 52.6 91.7 50.95 90.75 49.8 89.35 48.1 87.05 48 Z"/>
</g>
</defs>

<g transform="matrix( 1, 0, 0, 1, 0,0) ">
<use xlink:href="#Layer0_0_FILL"/>
</g>
</svg>
