
<svg xmlns="http://www.w3.org/2000/svg" version="1.1" xmlns:xlink="http://www.w3.org/1999/xlink" preserveAspectRatio="none" x="0px" y="0px" width="300px" height="300px" viewBox="0 0 300 300">
<defs>
<g id="betty_0_Layer1_0_FILL">
<path fill="#1F0028" stroke="none" d="
M 174.95 22.75
Q 171.75 20.95 165.85 18.55 162.25 17.1 159.95 16.5 156.65 15.6 153.9 15.7 150.8 15.8 149.3 17.4 148.1 18.85 148.1 21.3
L 147.05 19.05
Q 146.6 17.35 146.3 16.55 145.8 15.2 145.75 14.9 145.75 13.65 145.65 13 145.55 11.8 144.6 10.9 143.7 10 142.5 9.9 141.3 9.85 140.25 10.6 139.2 11.35 138.9 12.5 138.75 13.05 138.75 14.25
L 138.95 15.7
Q 139.45 17.7 141.55 19.9
L 143.6 22.1
Q 144.1 22.7 144.25 23
L 144.25 23.05
Q 137.15 18.15 128.85 15.3 116.25 11 103.7 12.4 94 13.5 80.75 18.9 77.25 20.4 74.3 21.8
L 69.25 22.35
Q 67.6 22.55 66.4 22.4 64.5 22.1 62.8 20.9 61.8 20.2 61.3 19.85 60.4 19.3 59.7 19.1 58.55 18.8 57.35 19.35 56.2 19.9 55.65 21 55.15 22.1 55.4 23.35 55.7 24.6 56.65 25.35 57.2 25.8 58.6 26.3
L 60.2 26.8
Q 62.1 27.4 63.1 27.55 63.5 27.6 63.9 27.7 60.65 29.85 57.2 32.65 43.3 43.65 35.9 54.9 30.95 62.55 28.7 70.3 26.7 77.1 26.8 84 26.9 89.85 28.7 95.5 29.15 96.8 29.65 98.15 30.35 99.95 31.2 101.7
L 27.15 99.2
Q 25.8 98.4 25.25 98.3 23.55 97.9 22.35 99.25 21.85 99.9 21.75 100.75 21.65 101.6 22 102.3 22.45 103.1 23.65 103.85 25 104.75 27.9 106.3 28.25 106.5 28.7 106.8 29.45 107.3 30.6 108.05 31.1 108.3 31.7 108.55 29.85 108.65 28.7 108.85 28.55 108.85 28.45 108.9 25.75 109.45 24.65 111.2 24.25 111.9 24.05 113.1 23.7 115.45 24.7 117.9 24.95 119.7 26.1 121.95 27.1 123.85 28.7 125.9 31.2 129.1 35.2 132.7 40.35 137.35 44.6 139.55 44.6 139.75 44.6 141.2 44.6 141.45 44.6 142.9 44.6 143.95 44.7 144.6 44.9 146.15 46.3 148.4 47.4 150.1 48.1 150.8 49.35 152.15 52.6 154 51.95 154.65 51.4 155.35 50.4 156.7 49.8 158.3 49.75 158.4 49.7 158.55 49.55 158.55 49.4 158.55
L 49.4 158.6 49.35 158.6
Q 47.15 158.65 44.95 158.7 43.6 158.75 42.25 158.8
L 42.2 158.8
Q 42.05 158.9 41.95 159 41.85 159.1 41.75 159.2 41.65 159.3 41.45 159.3 41.2 159.3 41 159.3 40.8 159.3 40.6 159.3 40.4 159.3 40.2 159.3 39.95 159.3 39.75 159.3 39.55 159.3 39.35 159.3 39.15 159.3 38.95 159.3 38.7 159.3 38.5 159.3 38.3 159.3 38.1 159.3 37.9 159.3 37.7 159.3 37.45 159.3 37.25 159.3 37.05 159.3 36.85 159.3 36.65 159.3 36.55 159.2 36.45 159.1 36.35 159.05 36.2 158.9 36 158.9 35.8 158.9 35.6 158.9 35.4 158.9 35.2 158.9 34.95 158.9 34.75 158.9 34.55 158.9 34.35 158.9 34.15 158.9 33.95 158.9 33.7 158.9 33.5 158.9 33.3 158.9 33.1 158.9 32.9 158.9 32.7 158.9 32.45 158.9 32.25 158.9 32.05 159.1 31.8 159.2 31.65 159.3 31.55 159.4 31.45 159.5 31.35 159.6 31.2 159.7 31 159.7 30.8 159.7 30.7 159.8 30.6736328125 159.8263671875 30.65 159.85 29.0642578125 160.3693359375 27.9 163.3 25.8 168.95 23.75 176.25 22.6 180.5 20.35 189.35
L 16.4 205
Q 14.5 212.6 13.8 216.45 13.3 219.5 13.85 220.95 14.4 222.3 16.4 224 20.35 227.25 24.55 229.5 27.7 231.15 29.85 230.95 30.0791015625 230.933203125 30.3 230.9 30.3 231.05 30.3 231.2 30.3 231.35 30.3 231.5 30.3 231.7 30.3 231.85 30.3 232 30.3 232.15 30.3 232.3 30.3 232.45 30.3 232.6 30.3 232.75 30.3 232.95 30.3 233.1 30.3 233.25 30.3 233.4 30.3 233.55 30.3 233.7 30.3 233.85 30.3 234 30.3 234.2 30.3 234.35 30.3 234.5 30.3 234.65 30.3 234.8 30.3 234.95 30.3 235.1 30.3 235.25 30.3 235.45 30.3 235.6 30.3 235.75 30.3 235.9 30.3 236.05 30.3 236.2 30.3 236.35 30.3 236.5 30.3 236.7 30.3 236.85 30.3 237 30.3 237.15 30.3 237.3 30.3 237.45 30.3 237.6 30.3 237.75 30.3 237.95 30.3 238.1 30.3 238.25 30.3 238.4 30.3 238.55 30.3 238.7 30.3 238.85 30.3 239 30.3 239.2 30.3 239.35 30.3 239.5 30.3 239.65 30.3 239.8 30.3 239.95 30.3 240.1 30.3 240.25 30.3 240.45 30.3 240.6 30.3 240.75 30.3 240.9 30.3 241.05 30.3 241.2 30.3 241.35 30.3 241.5 30.3 241.7 30.3 241.85 30.3 242 30.3 242.15 30.3 242.3 30.3 242.45 30.3 242.6 30.3 242.75 30.3 242.95 30.3 243.1 30.3 243.25 30.3 243.4 30.3 243.55 30.3 243.7 30.3 243.85 30.3 244 30.3 244.2 30.3 244.35 30.3 244.5 30.3 244.65 30.35 244.8 30.4 244.95 30.4 245.1 30.4 245.25 30.4 245.45 30.4 245.6 30.4 245.75 30.4 245.9 30.4 246.05 30.4 246.2 30.4 246.35 30.4 246.5 30.4 246.7 30.4 246.85 30.4 247 30.4 247.15 30.4 247.3 30.4 247.45 30.4 247.6 30.4 247.75 30.4 247.95 30.4 248.1 30.4 248.25 30.4 248.4 30.4 248.55 30.4 248.7 30.4 248.85 30.4 249 30.4 249.2 30.4 249.35 30.4 249.5 30.4 249.65 30.4 249.8 30.4 249.95 30.4 250.1 30.4 250.25 30.4 250.45 30.4 250.6 30.4 250.75 30.4 250.9 30.4 251.05 30.4 251.2 30.4 251.35 30.4 251.5 30.4 251.7 30.4 251.85 30.4 252 30.4 252.15 30.45 252.3 30.5 252.45 30.5 252.6 30.5 252.75 30.5 252.95 30.5 253.1 30.5 253.25 30.5 253.4 30.5 253.55 30.5 253.7 30.5 253.85 30.5 254 30.5 254.2 30.5 254.35 30.5 254.5 30.5 254.65 30.5 254.8 30.5 254.95 30.5 255.1 30.5 255.25 30.5 255.45 30.5 255.6 30.55 255.75 30.6 255.9 30.6 256.05 30.6 256.2 30.6 256.35 30.6 256.5 30.6 256.7 30.6 256.85 30.6 257 30.6 257.15 30.65 257.3 30.7 257.45 30.7 257.6 30.7 257.75 30.7 257.95 30.7 258.1 30.75 258.25 30.8 258.4 30.8 258.55 30.8 258.7 30.75 258.85 30.7 259 30.75 259.2 30.8 259.35 30.75 259.5 30.7 259.65 30.75 259.8 30.8 259.95 30.8 260.1 30.8 260.25 30.85 260.45 30.9 260.6 30.95 260.75 31 260.9 31.1 261.05 31.25 261.2 31.35 261.35 31.45 261.5 31.55 261.7 31.65 261.85 31.75 262 31.85 262.15 31.95 262.3 32.05 262.45 32.2 262.6 32.35 262.75 32.6 262.95 32.8 263.1 33 263.25 33.2 263.4 33.5 263.55 33.85 263.7 34.2 263.8 34.55 263.9 35.05 263.95 35.5 264 35.95 263.95 36.45 263.9 36.65 263.85 36.85 263.8 37.05 263.7 37.25 263.6 37.6 263.45 37.9 263.3 38.1 263.15 38.3 263 38.35 262.95 38.4 262.9 75.7 262.95 113 263 115.4 263.05 117.8 263.1 119.05 263.15 120.3 263.2 121.3 263.25 122.35 263.3 123.8 263.35 125.3 263.4 130.2 263.45 135.05 263.5 137.55 263.55 140.05 263.6 140.9 263.65 141.75 263.7 144.45 263.75 147.15 263.8 164.8 263.8 182.45 263.8 182.75 263.8 183.1 263.8 184 263.8 184.95 263.8 187.2 263.8 189.45 263.8 189.65 263.8 189.85 263.8 190.5 263.8 191.1 263.8 191.2 263.8 191.3 263.8 192.25 263.8 193.2 263.8 193.4 263.8 193.6 263.8 197.35 263.8 201.1 263.8 203.6 263.8 206.1 263.8 206.45 263.8 206.85 263.8 207 263.8 207.15 263.8 208 263.8 208.8 263.8 209 263.8 209.25 263.8 209.4 263.8 209.55 263.8 213.35 263.8 217.15 263.8 217.6 263.75 218.1 263.65
L 218.1 263.7
Q 218.25 263.85 218.4 264 218.6 264.2 218.8 264.35 219.05 264.5 219.35 264.65 219.7 264.8 220.05 264.95 220.7 265.05 221.3 265.15 221.95 265.05 222.55 264.95 222.95 264.8 223.3 264.65 223.55 264.5 223.8 264.35 224 264.2 224.25 264 224.4 263.85 224.55 263.7 224.65 263.55 224.75 263.4 224.85 263.25 224.95 263.1 225 262.95 225.05 262.75 225.15 262.6 225.25 262.45 225.3 262.3 225.4 262.15 225.45 262 225.5 261.85 225.55 261.7 225.6 261.5 225.6 261.35 225.6 261.2 225.6 261.05 225.6 260.9 225.65 260.75 225.7 260.6 225.7 260.45 225.7 260.25 225.7 260.1 225.7 259.95 225.7 259.8 225.7 259.65 225.7 259.5 225.7 259.35 225.7 259.2 225.7 259 225.7 258.85 225.7 258.7 225.7 258.55 225.7 258.4 225.7 258.25 225.7 258.1 225.7 257.95 225.7 257.75 225.7 257.6 225.7 257.45 225.7 257.3 225.7 257.15 225.65 257 225.6 256.85 225.6 256.7 225.6 256.5 225.6 256.35 225.6 256.2 225.6 256.05 225.6 255.9 225.6 255.75 225.6 255.6 225.6 255.45 225.6 255.25 225.6 255.1 225.6 254.95 225.6 254.8 225.6 254.65 225.6 254.5 225.6 254.35 225.6 254.2 225.6 254 225.65 253.85 225.7 253.7 225.7 253.55 225.7 253.4 225.7 253.25 225.7 253.1 225.7 252.95 225.7 252.75 225.7 252.6 225.7 252.45 225.7 252.3 225.7 252.15 225.7 252 225.7 251.85 225.7 251.7 225.7 251.5 225.7 251.35 225.7 251.2 225.7 251.05 225.7 250.9 225.7 250.75 225.7 250.6 225.7 250.45 225.7 250.25 225.7 250.1 225.7 249.95
L 225.3 249.95 225.3 229.2
Q 225.946484375 229.1517578125 226.65 229 232.15 227.85 236.15 224 239 221.25 239.3 218.55 239.5 217.2 238.85 214.15 233.3408203125 190.699609375 227.2 169.5 226.6146484375 168.23984375 225.9 166.3 224.8 163.3 224.15 162 223.7572265625 161.12734375 222.75 159.5 221.375 159.578515625 220.15 159.3 217.65 159.55 215.95 159.05 215.55 158.9 215.15 158.8 214.1 158.8 213.1 158.8 210.9 158.8 208.75 158.8 206.95 154.1 202.75 150.25 201.25 148.9 199.8 148 200.3 147.7 200.8 147.35 204.5 144.7 205.5 139.6 205.65 138.8 205.6 138.15 205.85 138.1 206.1 138.05 206.4 137.95 206.7 137.9 206.8 137.85 206.95 137.8 210.4 136.65 215.8 132.5 221.35 128.2 224.25 125.2 228.5 120.8 230.4 116.2 231.65 113.3 231.3 110.95 231.05 109.6 230.2 108.5 229.25 107.4 228 107.1 227.4 107 226.85 107.1 225.9 106.75 224.7 106.6 223.55 106.5 222.8 106.4
L 226.9 104.65
Q 229.3 103.65 230.15 102.6 230.85 101.75 230.95 100.6 231.05 99.4 230.55 98.45 230 97.45 228.9 97.05 227.8 96.6 226.75 96.95 225.9 97.2 225.05 98.05 225 98.1 223.7 99.6 223.05 100.35 221.75 101.6 225.95 92.8 226.1 85.05 226.2 79.4 224.25 73.75 222.4 68.3 218.85 63.6 212.2 54.65 200.85 49.5 200.35 49.3 199.95 49.15 199.9 48.65 199.75 48.15 199.65 47.75 198.8 46.45
L 197.35 44.5 197.25 44.4
Q 196.45 43.1 195.4 41.7 185.7 28.7 174.95 22.75
M 246.85 31.3
Q 246.55 27 244.05 23.35 241.55 19.7 237.7 17.9 235.2 16.75 231.6 16.15 228.2 15.55 226 16.2 225.95 16 225.9 15.8 225.1 11.5 224.25 9.5 222.85 6.15 220.05 3.75 217.2 1.3 213.7 0.45 210.2 -0.4 206.55 0.4 202.95 1.2 200.15 3.45 197.75 5.35 195.75 8.65 194.2 11.15 193.55 13.3 192.55 16.5 192.95 22.35 193.3 26.45 194.2 29.5 194.7 31.05 195.5 32.75 198.1 38.5 201.95 43.35 202.75 44.4 203.5 44.65 203.55 44.8 203.65 44.95 204.15 45.95 205.15 46.5 205.95 46.95 207.2 47.2 207.4 47.25 209.35 47.5 210.65 47.65 216.5 48.8 220.9 49.65 223.7 49.65 226.2 49.65 229.35 49.05 235.85 48.05 239.5 45.7 243.05 43.45 245.1 39.5 247.1 35.55 246.85 31.3 Z"/>
</g>

<g id="betty_0_Layer0_0_FILL">
<path fill="#1F0028" stroke="none" d="
M 174.95 22.75
Q 171.75 20.95 165.85 18.55 162.25 17.1 159.95 16.5 156.65 15.6 153.9 15.7 150.8 15.8 149.3 17.4 148.1 18.85 148.1 21.3
L 147.05 19.05
Q 146.6 17.35 146.3 16.55 145.8 15.2 145.75 14.9 145.75 13.65 145.65 13 145.55 11.8 144.6 10.9 143.7 10 142.5 9.9 141.3 9.85 140.25 10.6 139.2 11.35 138.9 12.5 138.75 13.05 138.75 14.25
L 138.95 15.7
Q 139.45 17.7 141.55 19.9
L 143.6 22.1
Q 144.1 22.7 144.25 23
L 144.25 23.05
Q 137.15 18.15 128.85 15.3 116.25 11 103.7 12.4 94 13.5 80.75 18.9 77.25 20.4 74.3 21.8
L 69.25 22.35
Q 67.6 22.55 66.4 22.4 64.5 22.1 62.8 20.9 61.8 20.2 61.3 19.85 60.4 19.3 59.7 19.1 58.55 18.8 57.35 19.35 56.2 19.9 55.65 21 55.15 22.1 55.4 23.35 55.7 24.6 56.65 25.35 57.2 25.8 58.6 26.3
L 60.2 26.8
Q 62.1 27.4 63.1 27.55 63.5 27.6 63.9 27.7 60.65 29.85 57.2 32.65 43.3 43.65 35.9 54.9 30.95 62.55 28.7 70.3 26.7 77.1 26.8 84 26.9 89.85 28.7 95.5 29.15 96.8 29.65 98.15 30.35 99.95 31.2 101.7
L 27.15 99.2
Q 25.8 98.4 25.25 98.3 23.55 97.9 22.35 99.25 21.85 99.9 21.75 100.75 21.65 101.6 22 102.3 22.45 103.1 23.65 103.85 25 104.75 27.9 106.3 28.25 106.5 28.7 106.8 29.45 107.3 30.6 108.05 31.1 108.3 31.7 108.55 29.85 108.65 28.7 108.85 28.55 108.85 28.45 108.9 25.75 109.45 24.65 111.2 24.25 111.9 24.05 113.1 23.7 115.45 24.7 117.9 24.95 119.7 26.1 121.95 27.1 123.85 28.7 125.9 31.2 129.1 35.2 132.7 40.35 137.35 44.6 139.55 44.6 139.75 44.6 141.2 44.6 141.45 44.6 142.9 44.6 143.95 44.7 144.6 44.9 146.15 46.3 148.4 47.4 150.1 48.1 150.8 49.35 152.15 52.6 154 51.95 154.65 51.4 155.35 50.4 156.7 49.8 158.3 49.75 158.4 49.7 158.55 49.55 158.55 49.4 158.55
L 49.4 158.6 49.35 158.6
Q 47.15 158.65 44.95 158.7 43.6 158.75 42.25 158.8
L 42.2 158.8
Q 42.05 158.9 41.95 159 41.85 159.1 41.75 159.2 41.65 159.3 41.45 159.3 41.2 159.3 41 159.3 40.8 159.3 40.6 159.3 40.4 159.3 40.2 159.3 39.95 159.3 39.75 159.3 39.55 159.3 39.35 159.3 39.15 159.3 38.95 159.3 38.7 159.3 38.5 159.3 38.3 159.3 38.1 159.3 37.9 159.3 37.7 159.3 37.45 159.3 37.25 159.3 37.05 159.3 36.85 159.3 36.65 159.3 36.55 159.2 36.45 159.1 36.35 159.05 36.2 158.9 36 158.9 35.8 158.9 35.6 158.9 35.4 158.9 35.2 158.9 34.95 158.9 34.75 158.9 34.55 158.9 34.35 158.9 34.15 158.9 33.95 158.9 33.7 158.9 33.5 158.9 33.3 158.9 33.1 158.9 32.9 158.9 32.7 158.9 32.45 158.9 32.25 158.9 32.05 159.1 31.8 159.2 31.65 159.3 31.55 159.4 31.45 159.5 31.35 159.6 31.2 159.7 31 159.7 30.8 159.7 30.7 159.8 30.6736328125 159.8263671875 30.65 159.85 29.0642578125 160.3693359375 27.9 163.3 25.8 168.95 23.75 176.25 22.6 180.5 20.35 189.35
L 16.4 205
Q 14.5 212.6 13.8 216.45 13.3 219.5 13.85 220.95 14.4 222.3 16.4 224 20.35 227.25 24.55 229.5 27.7 231.15 29.85 230.95 30.0791015625 230.933203125 30.3 230.9 30.3 231.05 30.3 231.2 30.3 231.35 30.3 231.5 30.3 231.7 30.3 231.85 30.3 232 30.3 232.15 30.3 232.3 30.3 232.45 30.3 232.6 30.3 232.75 30.3 232.95 30.3 233.1 30.3 233.25 30.3 233.4 30.3 233.55 30.3 233.7 30.3 233.85 30.3 234 30.3 234.2 30.3 234.35 30.3 234.5 30.3 234.65 30.3 234.8 30.3 234.95 30.3 235.1 30.3 235.25 30.3 235.45 30.3 235.6 30.3 235.75 30.3 235.9 30.3 236.05 30.3 236.2 30.3 236.35 30.3 236.5 30.3 236.7 30.3 236.85 30.3 237 30.3 237.15 30.3 237.3 30.3 237.45 30.3 237.6 30.3 237.75 30.3 237.95 30.3 238.1 30.3 238.25 30.3 238.4 30.3 238.55 30.3 238.7 30.3 238.85 30.3 239 30.3 239.2 30.3 239.35 30.3 239.5 30.3 239.65 30.3 239.8 30.3 239.95 30.3 240.1 30.3 240.25 30.3 240.45 30.3 240.6 30.3 240.75 30.3 240.9 30.3 241.05 30.3 241.2 30.3 241.35 30.3 241.5 30.3 241.7 30.3 241.85 30.3 242 30.3 242.15 30.3 242.3 30.3 242.45 30.3 242.6 30.3 242.75 30.3 242.95 30.3 243.1 30.3 243.25 30.3 243.4 30.3 243.55 30.3 243.7 30.3 243.85 30.3 244 30.3 244.2 30.3 244.35 30.3 244.5 30.3 244.65 30.35 244.8 30.4 244.95 30.4 245.1 30.4 245.25 30.4 245.45 30.4 245.6 30.4 245.75 30.4 245.9 30.4 246.05 30.4 246.2 30.4 246.35 30.4 246.5 30.4 246.7 30.4 246.85 30.4 247 30.4 247.15 30.4 247.3 30.4 247.45 30.4 247.6 30.4 247.75 30.4 247.95 30.4 248.1 30.4 248.25 30.4 248.4 30.4 248.55 30.4 248.7 30.4 248.85 30.4 249 30.4 249.2 30.4 249.35 30.4 249.5 30.4 249.65 30.4 249.8 30.4 249.95 30.4 250.1 30.4 250.25 30.4 250.45 30.4 250.6 30.4 250.75 30.4 250.9 30.4 251.05 30.4 251.2 30.4 251.35 30.4 251.5 30.4 251.7 30.4 251.85 30.4 252 30.4 252.15 30.45 252.3 30.5 252.45 30.5 252.6 30.5 252.75 30.5 252.95 30.5 253.1 30.5 253.25 30.5 253.4 30.5 253.55 30.5 253.7 30.5 253.85 30.5 254 30.5 254.2 30.5 254.35 30.5 254.5 30.5 254.65 30.5 254.8 30.5 254.95 30.5 255.1 30.5 255.25 30.5 255.45 30.5 255.6 30.55 255.75 30.6 255.9 30.6 256.05 30.6 256.2 30.6 256.35 30.6 256.5 30.6 256.7 30.6 256.85 30.6 257 30.6 257.15 30.65 257.3 30.7 257.45 30.7 257.6 30.7 257.75 30.7 257.95 30.7 258.1 30.75 258.25 30.8 258.4 30.8 258.55 30.8 258.7 30.75 258.85 30.7 259 30.75 259.2 30.8 259.35 30.75 259.5 30.7 259.65 30.75 259.8 30.8 259.95 30.8 260.1 30.8 260.25 30.85 260.45 30.9 260.6 30.95 260.75 31 260.9 31.1 261.05 31.25 261.2 31.35 261.35 31.45 261.5 31.55 261.7 31.65 261.85 31.75 262 31.85 262.15 31.95 262.3 32.05 262.45 32.2 262.6 32.35 262.75 32.6 262.95 32.8 263.1 33 263.25 33.2 263.4 33.5 263.55 33.85 263.7 34.2 263.8 34.55 263.9 35.05 263.95 35.5 264 35.95 263.95 36.45 263.9 36.65 263.85 36.85 263.8 37.05 263.7 37.25 263.6 37.6 263.45 37.9 263.3 38.1 263.15 38.3 263 38.35 262.95 38.4 262.9 75.7 262.95 113 263 115.4 263.05 117.8 263.1 119.05 263.15 120.3 263.2 121.3 263.25 122.35 263.3 123.8 263.35 125.3 263.4 130.2 263.45 135.05 263.5 137.55 263.55 140.05 263.6 140.9 263.65 141.75 263.7 144.45 263.75 147.15 263.8 164.8 263.8 182.45 263.8 182.75 263.8 183.1 263.8 184 263.8 184.95 263.8 187.2 263.8 189.45 263.8 189.65 263.8 189.85 263.8 190.5 263.8 191.1 263.8 191.2 263.8 191.3 263.8 192.25 263.8 193.2 263.8 193.4 263.8 193.6 263.8 197.35 263.8 201.1 263.8 203.6 263.8 206.1 263.8 206.45 263.8 206.85 263.8 207 263.8 207.15 263.8 208 263.8 208.8 263.8 209 263.8 209.25 263.8 209.4 263.8 209.55 263.8 213.35 263.8 217.15 263.8 217.6 263.75 218.1 263.65
L 218.1 263.7
Q 218.25 263.85 218.4 264 218.6 264.2 218.8 264.35 219.05 264.5 219.35 264.65 219.7 264.8 220.05 264.95 220.7 265.05 221.3 265.15 221.95 265.05 222.55 264.95 222.95 264.8 223.3 264.65 223.55 264.5 223.8 264.35 224 264.2 224.25 264 224.4 263.85 224.55 263.7 224.65 263.55 224.75 263.4 224.85 263.25 224.95 263.1 225 262.95 225.05 262.75 225.15 262.6 225.25 262.45 225.3 262.3 225.4 262.15 225.45 262 225.5 261.85 225.55 261.7 225.6 261.5 225.6 261.35 225.6 261.2 225.6 261.05 225.6 260.9 225.65 260.75 225.7 260.6 225.7 260.45 225.7 260.25 225.7 260.1 225.7 259.95 225.7 259.8 225.7 259.65 225.7 259.5 225.7 259.35 225.7 259.2 225.7 259 225.7 258.85 225.7 258.7 225.7 258.55 225.7 258.4 225.7 258.25 225.7 258.1 225.7 257.95 225.7 257.75 225.7 257.6 225.7 257.45 225.7 257.3 225.7 257.15 225.65 257 225.6 256.85 225.6 256.7 225.6 256.5 225.6 256.35 225.6 256.2 225.6 256.05 225.6 255.9 225.6 255.75 225.6 255.6 225.6 255.45 225.6 255.25 225.6 255.1 225.6 254.95 225.6 254.8 225.6 254.65 225.6 254.5 225.6 254.35 225.6 254.2 225.6 254 225.65 253.85 225.7 253.7 225.7 253.55 225.7 253.4 225.7 253.25 225.7 253.1 225.7 252.95 225.7 252.75 225.7 252.6 225.7 252.45 225.7 252.3 225.7 252.15 225.7 252 225.7 251.85 225.7 251.7 225.7 251.5 225.7 251.35 225.7 251.2 225.7 251.05 225.7 250.9 225.7 250.75 225.7 250.6 225.7 250.45 225.7 250.25 225.7 250.1 225.7 249.95
L 225.3 249.95 225.3 229.2
Q 225.946484375 229.1517578125 226.65 229 232.15 227.85 236.15 224 239 221.25 239.3 218.55 239.5 217.2 238.85 214.15 233.3408203125 190.699609375 227.2 169.5 226.6146484375 168.23984375 225.9 166.3 224.8 163.3 224.15 162 223.7572265625 161.12734375 222.75 159.5 221.375 159.578515625 220.15 159.3 217.65 159.55 215.95 159.05 215.55 158.9 215.15 158.8 214.1 158.8 213.1 158.8 210.9 158.8 208.75 158.8 206.95 154.1 202.75 150.25 201.25 148.9 199.8 148 200.3 147.7 200.8 147.35 204.5 144.7 205.5 139.6 205.65 138.8 205.6 138.15 205.85 138.1 206.1 138.05 206.4 137.95 206.7 137.9 206.8 137.85 206.95 137.8 210.4 136.65 215.8 132.5 221.35 128.2 224.25 125.2 228.5 120.8 230.4 116.2 231.65 113.3 231.3 110.95 231.05 109.6 230.2 108.5 229.25 107.4 228 107.1 227.4 107 226.85 107.1 225.9 106.75 224.7 106.6 223.55 106.5 222.8 106.4
L 226.9 104.65
Q 229.3 103.65 230.15 102.6 230.85 101.75 230.95 100.6 231.05 99.4 230.55 98.45 230 97.45 228.9 97.05 227.8 96.6 226.75 96.95 225.9 97.2 225.05 98.05 225 98.1 223.7 99.6 223.05 100.35 221.75 101.6 225.95 92.8 226.1 85.05 226.2 79.4 224.25 73.75 222.4 68.3 218.85 63.6 212.2 54.65 200.85 49.5 200.35 49.3 199.95 49.15 199.9 48.65 199.75 48.15 199.65 47.75 198.8 46.45
L 197.35 44.5 197.25 44.4
Q 196.45 43.1 195.4 41.7 185.7 28.7 174.95 22.75
M 183.9 36.9
Q 185.4 38.65 187.75 41.15 191.7 45.35 193.25 48.15 194.55 50.5 195.05 51 195.55 51.5 196.1 51.8 196.25 52.2 196.5 52.55 197.05 53.4 198.75 54.5 208.1 60.55 212.95 66.9 219.45 75.25 219.4 84.35 219.35 88.8 217.55 93.95 216.25 97.6 213.5 102.95 211.85 106.1 212.4 107.95 213.15 110.3 216.75 111.1 217.65 111.35 219.55 111.65 220.75 111.9 221.6 112.3 221.5 112.7 221.4 113.55 221.15 115.15 220.05 117.25 218.45 120.2 215.5 123.8 211.55 128.65 207.4 131.35 206.95 131.65 206.55 131.95
L 206.45 132 206.25 132.2 205 133.05
Q 204 133.75 203.55 134.35
L 203.05 135.4
Q 202.4 135.7 201.75 136.1 201.75 136.2 201.75 136.3 201.85 136.7 202.05 137.05 201.85 137.5 201.65 138.65 201.05 141.55 197.9 143.9 195.8 145.55 195.35 146.15 195.3 146.2 195.25 146.25 194 146 192.5 145.95 186.8 145.55 181.4 147 179.4 147.55 177.55 148.3 177.5 148.25 177.5 148.2 175.5 143.15 172.1 138.6 170.65 136.55 169.3 135.65 167.25 134.15 163.85 133.9 170.9 132.65 171.6 132.3 171.75 132.45 171.9 132.6
L 173.85 134.35
Q 180.15 139.55 185.7 140.95 186.95 141.3 187.8 141.25 188.95 141.15 189.7 140.4 190.25 139.7 190.15 138.8 190.05 137.8 189.35 137.3 188.75 136.85 186.95 136.65 183.4 136.15 178.35 132.8 176.85 131.8 176.25 131 175.75 130.3 175.4 129.2 174.4 126.5 173.85 123.6 175.8 125.7 178.65 126.6 180.15 127.15 182.65 127.25 185.4 127.15 187.35 126.8 190.2 126.2 192.45 124.2 194.75 122.2 195.85 119.4 196.15 118.4 196.45 118.2 196.85 117.65 198.2 117.45 201.65 116.5 204.05 114.95 206.85 112.85 207.85 109.95 208.1 108.55 208.35 107.15 208.45 104.85 208.1 103.55 207.45 100.3 204.75 98.25 202.6 96.6 200.4 96.15 199.7 90.05 196.8 84.55 193.2 77.3 186.4 73 183.5 71.05 180.4 70.05 174.05 68.05 167.85 67.65 160.05 67.15 155.8 69.65 151.5 71.9 149.4 74.15 147.5 76.25 144.75 81.1 141.9 85.8 141.6 93.9 141.4 96.7 141.65 99.15 136.75 99.3 128.55 97.6
L 125.6 96.85 122.75 95.65
Q 120.1 94.5 117.5 93.85 117.05 85.8 114.35 81.1 111.6 76.25 109.6 74.15 107.55 71.9 103.3 69.6 98.9 67.15 91.25 67.65 84.95 68.05 79.2 69.9 78.7 69.1 78.05 67.7 77.75 66.9 77.3 64.8 76.85 62.65 77 60.65 77.15 58.6 80.05 50.35 72.9 58.2 74.3 71.2 74.45 71.5 74.6 71.8 73.55 72.35 72.6 73 66 77.3 62.2 84.55 59.35 90.05 58.7 96.15 56.25 96.6 54.35 98.25 51.65 100.3 50.95 103.55 50.55 104.75 50.7 107.1 50.7 108.55 51.25 109.95 52.15 112.8 55.05 115 57.3 116.45 60.9 117.45 62.1 117.65 62.65 118.2 62.85 118.5 63.25 119.4 64.25 122.2 66.6 124.2 68.8 126.2 71.75 126.8 73.6 127.2 76.45 127.2 78.95 127.2 80.45 126.6 80.5 126.6 80.55 126.6 80.55 127.25 80.2 128.3
L 78.85 132.3
Q 78.55 133.4 78.15 133.9 77.7 134.6 76.6 135.4 73.95 137.45 71.95 138.3 70.85 138.7 70.45 139.15 69.75 139.85 70.1 140.75 70.3 141.35 70.95 141.75 71.55 142.1 72.25 142.1 73.2 142.1 74.8 141.3
L 79.4 138.8
Q 80.6 138 80.75 137.85 81.35 137.05 81.7 136.65
L 83.15 135.25
Q 83.7 134.6 84.25 133.4 84.35 133.2 84.45 133 85.35 133 91.85 134.2 89.9 134.15 88.8 134.55 86.8 135.25 84.65 137.7 80.65 142.3 80.25 146.6 78.4 146.05 76.1 145.95 70.4 145.55 65 147 60.3 148.25 56.45 150.8 52.15 149 50.15 146 49.7 145.35 49.5 144.8 49.15 143.85 49.15 142.35
L 49.2 139.85
Q 49.2 139.15 49.05 138.7 49 138.35 48.85 137.95 48.45 136.75 47.35 135.45 47.1 135.15 45.35 133.25 42.8 130.55 39.1 125.9 36.75 123 36 121.65 35.05 119.8 34.65 118.4 34.55 118.1 34.5 117.85 34.75 117.45 35.15 117.2 34.9 116.85 34.65 116.55
L 41.3 113.85
Q 42 113.55 42.55 113.25 43.2 113.15 43.7 112.7 44.5 112.05 44.8 110.9 45.05 109.8 44.75 108.65 44.45 107.6 42.65 104.8 36.95 96.2 36.35 85.4 35.7 74.65 40.35 65.4 42.4 61.3 45.8 56.9 59.5 38.7 78.2 29.25 82.2 27.25 88.25 24.85 95.15 22.1 99.65 21.05 109.15 18.85 119.55 20.55 129.3 22.15 138.5 26.95 140.35 27.9 143.95 29.9 147.15 31.55 149.65 32.25 150.1 32.4 150.5 32.45 151 33.25 151.7 33.55 152.45 33.9 153.3 33.6 154.15 33.3 154.55 32.6 155 31.85 154.9 29.7 154.75 26.6 155.5 23.6 156.75 23.45 159.15 24.15 174.75 29.15 183.9 36.9
M 174.65 74.55
Q 174.4 76.1 174.5 78.85 174.45 81.7 174.55 82.55 174.8 83.55 174.8 84.75 174.9 85.55 174.8 87.15 174.5 89.25 174.55 91.5 174.5 93.35 174.6 93.75 174.6 93.85 174.6 93.95 171.55 93.5 168.5 93.4 168.6 92.95 168.85 92.65 169.2 91.65 169.15 89.85 169.35 84.05 169.15 81.05 168.9 76.85 168.4 73.6 171.55 73.9 174.65 74.55
M 201.65 105.05
Q 202.6 107.45 201.55 109.45 200 112.25 195.6 112.6 194.2 112.85 194 112.85 193.15 113 192.7 113.5 192.1 113.95 192.05 114.95 191.9 115.35 191.75 116.5 191.15 118.6 189.15 120.05 187.1 121.25 184.8 121.45 179.9 121.85 175.75 119 175 118.4 174.65 118.35 174 118 173.55 118.05 173.25 118.05 172.95 118.25
L 172.95 118.1
Q 171.6 118 170.25 117.85 158.5 116.5 154.15 112.15 149.6 107.8 148.45 105.8 147.65 104.4 147.1 102.7 146.25 100 145.95 96.7 145.9 96.3 145.9 95.9 147.6 95.65 152.7 95.4 161.5 94.9 177.1 98 180.65 98.65 183.35 99.15 192.65 100.75 192.2 100.6 191.75 100.3 194.05 100.8 194.05 100.75 194.2 100.85 194.2 100.9 194.2 100.95 194.9 101 195.6 101.05 195.95 101.15 196.3 101.4 197.65 101.65 198.4 102.05 200.75 102.95 201.65 105.05
M 165.3 119.8
Q 166.7 120 168.1 120.15
L 168.05 120.2
Q 167.3 121.35 167.7 124.25
L 168.75 127.8
Q 165.55 129.85 162.1 130.85 158.65 131.8 157.8 132.1 156.9 132.4 151.9 133.5 146.9 134.6 140 135.35 139.9 135.35 139.85 135.35 139.95 136 140 136.65 139.95 137.05 140 137.55 140.05 138.25 139.95 139.65 139.95 140.45 140 140.8 139.75 141.5 140.25 142.1 140.95 142.95 142.85 142.4 143.9 142.1 144.95 141.85 145.05 142.5 145.15 143.4
L 145.3 145.05
Q 145.4 146.1 145.55 148.2
L 145.8 149.55
Q 145.847265625 149.974609375 145.85 150.55 145.021875 150.5884765625 144.35 150.6 139.95 150.6 137.7 150.7 133.9 150.85 131.15 151.55 130.322265625 151.75234375 129.75 151.85 129.74140625 151.7158203125 129.7 151.55 129.55 150.85 129.1 150.45 128.55 149.95 127.75 150.05 126.95 150.15 126.5 150.75 126.05 151.3 126.15 152.1
L 126.15 152.15 108.85 150.4
Q 108.49140625 150.370703125 108.1 150.35 108.3126953125 149.4607421875 108.35 149.05
L 108.45 148.1 108.7 147.4 109.35 144.05
Q 109.55 142.85 109.5 142.25 109.5 141.8 109.3 140.9
L 109.25 140.6
Q 114.4 140.95 120.25 142.4
L 120.25 142.35
Q 120.65 141.5 120.2 140.7 120.15 139.45 120.1 138
L 120 135.2
Q 116.5 134.75 112.15 134.25 106.6 133.55 102.3 132.3 97.95 131.05 94.9 129.7 91.85 128.35 86.6 125.2 86.5 124.2 86.25 123.55 86.1 123.15 85.9 122.8 85.95 122.65 86.05 122.55 86.9 121.5 87.1 120.45 90.25 120.25 93.8 119.8 101.75 118.55 106.9 115.5 112 112.45 114.9 107.2 117.25 102.85 117.5 96.75 118.25 97.25 119.3 97.65
L 121.75 98.7
Q 124.6 99.9 125.8 100.25 126.85 100.55 129 101 136.45 102.45 141.6 102.8 142 102.85 142.35 102.85 142.95 105.2 144.1 107.2 147.05 112.45 152.2 115.5 157.35 118.55 165.3 119.8
M 165.55 140.15
Q 166.3 140.75 167.15 141.85 170.1 145.8 171.7 150.2 171.9 150.8 172.15 151.3 171.8 151.55 171.45 151.8 169.2 153.5 167.8 155.35 167.7 155.5 167.6 155.65 167.25 154.8 166.7 153.9 166.05 152.85 164.45 150.75
L 162.1 147.85
Q 160.95 146.4 160 146.45 159.2 146.45 158.7 147.2 158.2 147.95 158.3 148.8 158.4130859375 149.6298828125 159.25 150.8 156.5193359375 150.3 153.05 150.3 152.821875 150.309765625 152.6 150.3
L 152.55 149.45 152.3 148.55
Q 152.25 148.3 152.25 146.95 152.2 146.1 151.75 143.45 151.5 141.95 151.45 140.45 155.7 139.6 159.65 139.25 163.7 138.85 165.55 140.15
M 200.5 158.65
Q 200.55 158.7 200.6 158.8 201.6 160.2 202 161.2 202.4 162.3 202.8 164.6 201.9 166 200.95 167.15 200.9 167.25 200.8 167.35 200.25 168 199.65 168.6 197.35 170.9 194.7 172 192 173.1 187.85 173.3 184.75 173.55 182.35 173.15 179.25 172.55 177.35 171 176.35 170.15 175.25 168.6 174.9 168.2 174.6 167.7
L 174.55 167.6 173.6 166
Q 172.2 163.5 172.7 161.95 172.8 161.65 173.15 160.95 173.5 160.25 173.6 159.9 173.65 158.95 173.85 158.35
L 173.85 158.3
Q 173.9 157.95 174.05 157.75 174.35 157.25 175.45 156.65 181.25 153.95 184.4 153.35 186.8 152.9 190.95 152.9 193.85 152.9 195.3 153.55 196.8 154.15 199.05 156.85 199.85 157.8 200.5 158.65
M 162.5 157.15
Q 162.6986328125 157.646484375 162.75 158.05 162.232421875 158.1876953125 161.2 158 161.78671875 158.133984375 162.05 158.15 162.4380859375 158.1931640625 162.8 158.15 162.8125 158.238671875 162.8 158.3 157.42578125 158.3 152.05 158.3
L 151.85 158.3
Q 149.50234375 158.3 147.15 158.3 147.15 158.35 147.15 158.4 122.35 158.4 97.6 158.4
L 93.2 158.4
Q 92.7 158.4 92.2 158.4 92.0314453125 157.96171875 91.85 157.55 91.8365234375 157.5255859375 91.8 157.5 91.76015625 157.3703125 91.7 157.25 91.6736328125 157.1974609375 91.65 157.15
L 91.65 157.15
Q 91.5357421875 156.7673828125 91.6 156.35 91.6697265625 155.9548828125 91.95 155.45 92.020703125 155.4640625 96.15 154.05 100.326953125 152.69140625 106.75 152.5 113.168359375 152.303125 118.5 153 122.155078125 152.971875 126.3 153.9 127.15 154.2 127.65 154.05 127.696484375 154.0345703125 127.75 154 128.3818359375 154.2939453125 129.4 154.1 144.75 152.25 160.7 154.8 161.0537109375 154.8271484375 161.35 154.85 161.5564453125 155.2568359375 161.85 155.8
L 162.5 157.15
M 166.05 167.7
Q 166.25 168.15 166.45 168.6 166.7 169.15 167 169.7 168 171.45 169.8 173.25 175.15 178.85 181.25 179.95 183.85 180.4 187.8 180.1 194.4 179.7 197.85 178.1 199.7 177.2 203 174.7 205.85 172.45 207.3 170.8 208.2 169.7 208.8 168.6 209.2 167.9 209.45 167.15 211.25 167.15 213.1 167.15 215.65 167.2 218.2 167.25 218.2 167.35 218.2 167.45 218.2 167.6 218.2 167.8 218.2 167.95 218.2 168.1 218.15 168.25 218.1 168.4 218.05 168.5 218.05 168.6 218 168.65 218 168.7 218 168.85 218 169.05 218 169.2 218 169.35 217.95 169.5 217.9 169.65 217.9 169.8 217.9 169.95 217.8 170.1 217.75 170.3 217.75 170.45 217.75 170.6 217.75 170.75 217.75 170.9 217.7 171.05 217.65 171.2 217.65 171.35 217.65 171.55 217.65 171.7 217.65 171.85 217.65 172 217.65 172.15 217.6 172.3 217.55 172.45 217.55 172.6 217.55 172.8 217.55 172.95 217.55 173.1 217.55 173.25 217.55 173.4 217.55 173.55 217.55 173.7 217.55 173.85 217.55 174.05 217.5 174.2 217.45 174.35 217.45 174.5 217.45 174.65 217.45 174.8 217.45 174.95 217.45 175.1 217.45 175.3 217.45 175.45 217.45 175.6 217.45 175.75 217.45 175.9 217.45 176.05 217.45 176.2 217.45 176.35 217.45 176.55 217.4 176.7 217.35 176.85 217.35 177 217.35 177.15 217.35 177.3 217.35 177.45 217.35 177.6 217.35 177.8 217.35 177.95 217.35 178.1 217.35 178.25 217.35 178.4 217.35 178.55 217.35 178.7 217.35 178.85 217.35 179.05 217.35 179.2 217.35 179.35 217.35 179.5 217.35 179.65 217.35 179.8 217.35 179.95 217.35 180.1 217.35 180.3 217.35 180.45 217.35 180.6 217.35 180.75 217.35 180.9 217.35 181.05 217.35 181.2 217.35 181.35 217.35 181.55 217.35 181.7 217.35 181.85 217.35 182 217.35 182.15 217.35 182.3 217.35 182.45 217.35 182.6 217.35 182.8 217.35 182.95 217.35 183.1 217.35 183.25 217.35 183.4 217.35 183.55 217.35 183.7 217.35 183.85 217.35 184.05 217.35 184.2 217.35 184.35 217.35 184.5 217.35 184.65 217.35 184.8 217.35 184.95 217.35 185.1 217.35 185.3 217.35 185.45 217.35 185.6 217.35 185.75 217.35 185.9 217.35 186.05 217.35 186.2 217.35 186.35 217.35 186.55 217.35 186.7 217.35 186.85 217.35 187 217.35 187.15 217.3 187.3 217.25 187.45 217.25 187.6 217.25 187.8 217.25 187.95 217.25 188.1 217.25 188.25 217.25 188.4 217.25 188.55 217.25 188.7 217.25 188.85 217.25 189.05 217.25 189.2 217.25 189.35 217.25 189.5 217.25 189.65 217.25 189.8 217.25 189.95 217.25 190.1 217.25 190.3 217.25 190.45 217.25 190.6 217.25 190.75 217.25 190.9 217.2 191.05 217.15 191.2 217.15 191.35 217.15 191.55 217.15 191.7 217.15 191.85 217.15 192 217.15 192.15 217.15 192.3 217.15 192.45 217.15 192.6 217.15 192.8 217.15 192.95 217.15 193.1 217.15 193.25 217.15 193.4 217.15 193.55 217.15 193.7 217.15 193.85 217.15 194.05 217.15 194.2 217.15 194.35 217.15 194.5 217.15 194.65 217.15 194.8 217.15 194.95 217.15 195.1 217.15 195.3 217.15 195.45 217.15 195.6 217.15 195.75 217.15 195.9 217.15 196.05 217.15 196.2 217.15 196.35 217.15 196.55 217.15 196.7 217.15 196.85 217.15 197 217.15 197.15 217.15 197.3 217.15 197.45 217.15 197.6 217.15 197.8 217.15 197.95 217.15 198.1 217.1 198.25 217.05 198.4 217.05 198.55 217.05 198.7 217.05 198.85 217.05 199.05 217.05 199.2 217.05 199.35 217.05 199.5 217.05 199.65 217.05 199.8 217.05 199.95 217.05 200.1 217.05 200.3 217.05 200.45 217.05 200.6 217.05 200.75 217.05 200.9 217.05 201.05 217.05 201.2 217.05 201.35 217.05 201.55 217.05 201.7 217.05 201.85 217.05 202 217.05 202.15 217.05 202.3 217.05 202.45 217.05 202.6 217.05 202.8 217.05 202.95 217.05 203.1 217.05 203.25 217.05 203.4 217.05 203.55 217.05 203.7 217.05 203.85 217.05 204.05 217.05 204.2 217.05 204.35 217.05 204.5 217.05 204.65 217.05 204.8 217.05 204.95 217.05 205.1 217.05 205.3 217.05 205.45 217.05 205.6 217.05 205.75 217.05 205.9 217.05 206.05 217.05 206.2 217.05 206.35 217.05 206.55 217.05 206.7 217.05 206.85 217.05 207 217.05 207.15 217.05 207.3 217.05 207.45 217.05 207.6 217.05 207.8 217.05 207.95 217.05 208.1 217 208.25 216.95 208.4 216.95 208.55 216.95 208.7 216.95 208.85 216.95 209.05 217 209.2 217.05 209.35 217.05 209.5 217.05 209.65 217.05 209.8 217.05 209.95 217.05 210.1 217.05 210.3 217.05 210.45 217.05 210.6 217 210.75 216.95 210.9 216.95 211.05 216.95 211.2 216.95 211.35 216.95 211.55 216.95 211.7 216.95 211.85 216.95 212 216.95 212.15 216.95 212.3 216.95 212.45 216.95 212.6 216.95 212.8 216.95 212.95 216.95 213.1 216.95 213.25 216.95 213.4 216.95 213.55 216.95 213.7 216.95 213.85 216.95 214.05 216.95 214.2 216.95 214.35 216.95 214.5 216.95 214.65 216.95 214.8 216.95 214.95 216.95 215.1 216.95 215.3 217 215.45 217.05 215.6 217.05 215.75 217.05 215.9 217.05 216.05 217.05 216.2 217.05 216.35 217.05 216.55 217.05 216.7 217.05 216.85 217.05 217 217.05 217.15 217 217.3 216.95 217.45 216.95 217.6 216.95 217.8 217 217.95 217.05 218.1 217.05 218.25 217.05 218.4 217.05 218.55 217.05 218.7 217.05 218.85 217.05 219.05 217.05 219.2 217.05 219.35 217 219.5 216.95 219.65 216.95 219.8 216.95 219.95 216.95 220.1 216.95 220.3 216.95 220.45 216.95 220.6 216.95 220.75 216.95 220.9 217 221.05 217.05 221.2 217.05 221.35 217.05 221.55 217 221.7 216.95 221.85 216.95 222 216.95 222.15 216.95 222.3 216.95 222.45 216.95 222.6 216.95 222.8 217 222.95 217.05 223.1 217.05 223.25 217.05 223.4 217.05 223.55 217.05 223.7 217.05 223.85 217.05 224.05 217.05 224.2 217.05 224.35 217.05 224.5 217.05 224.65 217.05 224.8 217.05 224.95 217.05 225.1 217.05 225.3 217.05 225.45 217.05 225.6 217.05 225.75 217.05 225.9 217.05 226.05 217.05 226.2 217 226.35 216.95 226.55 216.95 226.7 216.95 226.85 216.95 227 216.95 227.15 216.95 227.3 216.95 227.45 216.95 227.6 216.95 227.75 216.95 227.95 216.95 228.1 216.95 228.25 216.95 228.4 216.95 228.55 216.95 228.7 216.95 228.85 216.95 229 216.95 229.2 216.95 229.35 216.95 229.5 216.95 229.65 216.95 229.8 216.95 229.95 216.95 230.1 216.95 230.25 216.95 230.45 216.95 230.6 216.95 230.75 216.95 230.9 216.95 231.05 216.95 231.2 216.95 231.35 216.95 231.5 216.95 231.7 216.95 231.85 216.95 232 216.95 232.15 216.95 232.3 216.95 232.45 216.95 232.6 216.95 232.75 216.95 232.95 216.95 233.1 216.95 233.25 216.95 233.4 216.95 233.55 216.95 233.7 216.95 233.85 216.95 234 216.95 234.2 216.95 234.35 216.95 234.5 216.95 234.65 216.95 234.8 216.95 234.95 216.95 235.1 216.95 235.25 216.95 235.45 216.95 235.6 216.95 235.75 216.95 235.9 216.95 236.05 216.95 236.2 216.95 236.35 216.95 236.5 216.95 236.7 216.95 236.85 216.95 237 216.95 237.15 216.95 237.3 216.95 237.45 216.95 237.6 216.95 237.75 216.95 237.95 216.95 238.1 216.95 238.25 216.95 238.4 216.95 238.55 216.95 238.7 216.95 238.85 216.95 239 216.95 239.2 216.95 239.35 216.95 239.5 216.95 239.65 216.95 239.8 216.95 239.95 216.95 240.1 216.95 240.25 216.95 240.45 216.95 240.6 216.95 240.75 216.95 240.9 216.95 241.05 216.95 241.2 216.95 241.35 216.95 241.5 216.95 241.7 216.95 241.85 216.95 242 216.95 242.15 216.95 242.3 216.95 242.45 216.95 242.6 216.95 242.75 216.95 242.95 216.95 243.1 216.95 243.25 216.95 243.4 216.95 243.55 216.95 243.7 216.95 243.85 216.95 244 216.95 244.2 216.95 244.35 216.95 244.5 216.95 244.65 216.95 244.8 216.95 244.95 216.95 245.1 216.95 245.25 216.95 245.45 216.95 245.6 216.95 245.75 216.95 245.9 216.95 246.05 216.95 246.2 216.95 246.35 216.95 246.5 216.95 246.7 216.95 246.85 216.95 247 216.95 247.15 216.95 247.3 216.95 247.45 216.95 247.6 216.95 247.75 216.95 247.95 216.95 248.1 216.95 248.25 216.95 248.4 216.95 248.55 216.95 248.7 216.95 248.85 216.95 249 216.95 249.2 216.95 249.35 216.95 249.5 216.95 249.65 216.95 249.8 216.95 249.95 216.95 250.1 216.95 250.25 216.95 250.45 216.95 250.6 216.95 250.75 216.95 250.9 216.95 251.05 216.95 251.2 216.95 251.35 216.95 251.5 216.95 251.7 216.95 251.85 216.95 252 216.95 252.15 216.95 252.3 216.95 252.45 216.95 252.6 216.95 252.75 216.95 252.95 216.95 253.1 216.95 253.25 216.95 253.4 216.95 253.55 216.95 253.7 216.95 253.85 216.95 254 216.95 254.2 216.95 254.35 217 254.5 217.05 254.65 217 254.8 216.95 254.95 216.95 255.1 216.95 255.25 213.25 255.25 209.55 255.25 209.4 255.25 209.25 255.25 209 255.25 208.8 255.25 208 255.25 207.15 255.25 207 255.25 206.85 255.25 206.45 255.25 206.1 255.25 203.6 255.25 201.1 255.25 197.35 255.25 193.6 255.25 193.4 255.25 193.2 255.25 192.25 255.25 191.3 255.25 191.2 255.25 191.1 255.25 190.5 255.25 189.85 255.25 189.65 255.25 189.45 255.25 187.2 255.25 184.95 255.25 184 255.25 183.1 255.25 182.75 255.25 182.45 255.25 164.8 255.25 147.15 255.25 147.15 255.3 147.15 255.4 144.45 255.4 141.75 255.4 140.9 255.45 140.05 255.5 137.55 255.55 135.05 255.6 130.2 255.65 125.3 255.7 123.8 255.75 122.35 255.8 121.3 255.85 120.3 255.9 119.05 255.95 117.8 256 115.4 256.05 113 256.1 76.7 256.15 40.4 256.2 40.4 256.15 40.4 256.1 40.4 255.95 40.4 255.8 40.45 255.65 40.5 255.5 40.5 255.3 40.5 255.15 40.5 255 40.5 254.85 40.5 254.7 40.5 254.55 40.5 254.4 40.5 254.25 40.5 254.05 40.5 253.9 40.5 253.75 40.5 253.6 40.5 253.45 40.5 253.3 40.5 253.15 40.5 253 40.5 252.8 40.5 252.65 40.5 252.5 40.5 252.35 40.5 252.2 40.5 252.05 40.55 251.9 40.6 251.75 40.6 251.55 40.6 251.4 40.6 251.25 40.6 251.1 40.6 250.95 40.6 250.8 40.6 250.65 40.6 250.5 40.6 250.3 40.6 250.15 40.6 250 40.6 249.85 40.6 249.7 40.6 249.55 40.6 249.4 40.6 249.25 40.6 249.1 40.6 248.9 40.6 248.75 40.6 248.6 40.6 248.45 40.6 248.3 40.6 248.15 40.6 248 40.6 247.85 40.6 247.65 40.6 247.5 40.6 247.35 40.6 247.2 40.6 247.05 40.6 246.9 40.6 246.75 40.6 246.6 40.6 246.4 40.6 246.25 40.6 246.1 40.6 245.95 40.6 245.8 40.6 245.65 40.6 245.5 40.6 245.35 40.6 245.15 40.6 245 40.6 244.85 40.65 244.7 40.7 244.55 40.7 244.4 40.7 244.25 40.7 244.1 40.7 243.9 40.7 243.75 40.7 243.6 40.7 243.45 40.7 243.3 40.7 243.15 40.7 243 40.7 242.85 40.7 242.65 40.7 242.5 40.7 242.35 40.7 242.2 40.7 242.05 40.7 241.9 40.7 241.75 40.7 241.6 40.7 241.4 40.7 241.25 40.7 241.1 40.7 240.95 40.7 240.8 40.7 240.65 40.7 240.5 40.7 240.35 40.7 240.15 40.7 240 40.7 239.85 40.7 239.7 40.7 239.55 40.7 239.4 40.7 239.25 40.7 239.1 40.7 238.9 40.7 238.75 40.7 238.6 40.7 238.45 40.7 238.3 40.7 238.15 40.7 238 40.7 237.85 40.7 237.65 40.7 237.5 40.7 237.35 40.7 237.2 40.7 237.05 40.7 236.9 40.7 236.75 40.7 236.6 40.7 236.4 40.7 236.25 40.7 236.1 40.7 235.95 40.7 235.8 40.7 235.65 40.7 235.5 40.7 235.35 40.7 235.15 40.7 235 40.7 234.85 40.7 234.7 40.7 234.55 40.7 234.4 40.7 234.25 40.7 234.1 40.7 233.9 40.7 233.75 40.7 233.6 40.7 233.45 40.7 233.3 40.7 233.15 40.7 233 40.7 232.85 40.7 232.65 40.7 232.5 40.7 232.35 40.7 232.2 40.7 232.05 40.7 231.9 40.7 231.75 40.7 231.6 40.7 231.4 40.7 231.25 40.7 231.1 40.7 230.95 40.7 230.8 40.7 230.65 40.7 230.5 40.7 230.35 40.7 230.15 40.7 230 40.7 229.85 40.7 229.7 40.7 229.55 40.7 229.4 40.7 229.25 40.7 229.1 40.7 228.9 40.7 228.75 40.7 228.6 40.7 228.45 40.7 228.3 40.7 228.15 40.7 228 40.7 227.85 40.7 227.65 40.7 227.5 40.7 227.35 40.75 227.2 40.8 227.05 40.8 226.9 40.8 226.75 40.8 226.6 40.8 226.4 40.8 226.25 40.8 226.1 40.8 225.95 40.8 225.8 40.8 225.65 40.8 225.5 40.75 225.35 40.7 225.15 40.7 225 40.7 224.85 40.7 224.7 40.7 224.55 40.7 224.4 40.7 224.25 40.7 224.1 40.7 223.9 40.7 223.75 40.7 223.6 40.7 223.45 40.7 223.3 40.7 223.15 40.7 223 40.7 222.85 40.7 222.65 40.7 222.5 40.7 222.35 40.7 222.2 40.7 222.05 40.7 221.9 40.7 221.75 40.75 221.6 40.8 221.4 40.8 221.25 40.8 221.1 40.8 220.95 40.8 220.8 40.8 220.65 40.8 220.5 40.8 220.35 40.8 220.15 40.75 220 40.7 219.85 40.7 219.7 40.7 219.55 40.7 219.4 40.7 219.25 40.7 219.1 40.7 218.9 40.7 218.75 40.7 218.6 40.7 218.45 40.7 218.3 40.7 218.15 40.7 218 40.7 217.85 40.7 217.65 40.7 217.5 40.7 217.35 40.7 217.2 40.7 217.05 40.7 216.9 40.7 216.75 40.7 216.6 40.7 216.4 40.75 216.25 40.8 216.1 40.8 215.95 40.8 215.8 40.8 215.65 40.8 215.5 40.8 215.35 40.8 215.15 40.8 215 40.8 214.85 40.8 214.7 40.8 214.55 40.75 214.4 40.7 214.25 40.7 214.1 40.7 213.9 40.7 213.75 40.7 213.6 40.7 213.45 40.7 213.3 40.7 213.15 40.7 213 40.7 212.85 40.7 212.65 40.7 212.5 40.7 212.35 40.7 212.2 40.7 212.05 40.7 211.9 40.7 211.75 40.7 211.6 40.7 211.4 40.7 211.25 40.7 211.1 40.7 210.95 40.7 210.8 40.7 210.65 40.7 210.5 40.7 210.35 40.7 210.15 40.7 210 40.7 209.85 40.7 209.7 40.7 209.55 40.7 209.4 40.7 209.25 40.7 209.1 40.7 208.9 40.7 208.75 40.7 208.6 40.7 208.45 40.7 208.3 40.7 208.15 40.7 208 40.7 207.85 40.7 207.65 40.7 207.5 40.7 207.35 40.7 207.2 40.7 207.05 40.7 206.9 40.7 206.75 40.7 206.6 40.7 206.4 40.7 206.25 40.7 206.1 40.7 205.95 40.7 205.8 40.7 205.65 40.7 205.5 40.7 205.35 40.7 205.15 40.7 205 40.7 204.85 40.7 204.7 40.7 204.55 40.7 204.4 40.7 204.25 40.7 204.1 40.7 203.9 40.7 203.75 40.7 203.6 40.7 203.45 40.7 203.3 40.7 203.15 40.7 203 40.7 202.85 40.7 202.65 40.7 202.5 40.7 202.35 40.7 202.2 40.7 202.05 40.7 201.9 40.7 201.75 40.7 201.6 40.7 201.4 40.7 201.25 40.7 201.1 40.7 200.95 40.7 200.8 40.7 200.65 40.7 200.5 40.7 200.35 40.7 200.15 40.7 200 40.7 199.85 40.7 199.7 40.7 199.55 40.7 199.4 40.7 199.25 40.7 199.1 40.7 198.9 40.7 198.75 40.7 198.6 40.7 198.45 40.7 198.3 40.7 198.15 40.7 198 40.7 197.85 40.7 197.65 40.7 197.5 40.7 197.35 40.7 197.2 40.7 197.05 40.7 196.9 40.7 196.75 40.7 196.6 40.7 196.4 40.7 196.25 40.7 196.1 40.7 195.95 40.7 195.8 40.7 195.65 40.7 195.5 40.7 195.35 40.7 195.15 40.7 195 40.7 194.85 40.7 194.7 40.7 194.55 40.7 194.4 40.7 194.25 40.7 194.1 40.7 193.9 40.7 193.75 40.7 193.6 40.7 193.45 40.7 193.3 40.7 193.15 40.7 193 40.7 192.85 40.7 192.65 40.7 192.5 40.7 192.35 40.7 192.2 40.7 192.05 40.7 191.9 40.7 191.75 40.7 191.6 40.7 191.4 40.7 191.25 40.7 191.1 40.7 190.95 40.7 190.8 40.7 190.65 40.7 190.5 40.7 190.35 40.7 190.15 40.7 190 40.7 189.85 40.7 189.7 40.7 189.55 40.7 189.4 40.7 189.25 40.7 189.1 40.7 188.9 40.7 188.75 40.7 188.6 40.7 188.45 40.7 188.3 40.7 188.15 40.7 188 40.7 187.85 40.7 187.65 40.7 187.5 40.7 187.35 40.7 187.2 40.7 187.05 40.7 186.9 40.7 186.75 40.7 186.6 40.7 186.4 40.7 186.25 40.7 186.1 40.7 185.95 40.7 185.8 40.7 185.65 40.7 185.5 40.7 185.35 40.7 185.15 40.7 185 40.7 184.85 40.7 184.7 40.7 184.55 40.7 184.4 40.7 184.25 40.7 184.1 40.7 183.9 40.7 183.75 40.7 183.6 40.7 183.45 40.7 183.3 40.7 183.15 40.7 183 40.7 182.85 40.7 182.65 40.7 182.5 40.7 182.35 40.7 182.2 40.7 182.05 40.7 181.9 40.7 181.75 40.7 181.6 40.7 181.4 40.7 181.25 40.7 181.1 40.7 180.95 40.7 180.8 40.7 180.65 40.7 180.5 40.7 180.35 40.7 180.2 40.7 180 40.7 179.85 40.7 179.7 40.7 179.55 40.7 179.4 40.7 179.25 40.7 179.1 40.7 178.95 40.7 178.75 40.7 178.6 40.7 178.45 40.7 178.3 40.65 178.15 40.6 178 40.6 177.85 40.6 177.7 40.6 177.5 40.6 177.35 40.6 177.2 40.6 177.05 40.6 176.9 40.6 176.75 40.6 176.6 40.6 176.45 40.6 176.25 40.6 176.1 40.6 175.95 40.6 175.8 40.6 175.65 40.6 175.5 40.6 175.35 40.6 175.2 40.55 175 40.5 174.85 40.5 174.7 40.5 174.55 40.5 174.4 40.5 174.25 40.5 174.1 40.5 173.95 40.45 173.75 40.4 173.6 40.4 173.45 40.4 173.3 40.4 173.15 40.4 173 40.4 172.85 40.4 172.7 40.4 172.5 40.4 172.35 40.35 172.2 40.3 172.05 40.3 171.9 40.3 171.75 40.3 171.6 40.3 171.45 40.25 171.25 40.2 171.1 40.2 170.95 40.2 170.8 40.2 170.65 40.2 170.5 40.15 170.35 40.1 170.2 40.1 170 40.1 169.85 40.1 169.7 40.1 169.55 40.05 169.4 40 169.25 40 169.1 40 168.95 39.9 168.75 39.85 168.6 39.85 168.45 39.85 168.3 39.85 168.15 39.85 168 39.8 167.85 39.75 167.7 39.75 167.5 39.75 167.35 39.75 167.2 39.75 167.05 40.8 167.1 41.85 167.15 43.4 167.2 44.95 167.25 47.15 167.3 49.35 167.35 49.4 167.35 49.5 167.35 49.5 167.3986328125 49.5 167.45 49.5015625 167.4015625 49.55 167.45 49.6 167.55 49.65 167.7 49.85 168.15 50.05 168.6 50.3 169.15 50.6 169.7 51.6 171.45 53.4 173.25 58.75 178.85 64.85 179.95 67.45 180.4 71.4 180.1 78 179.7 81.45 178.1 83.3 177.2 86.6 174.7 89.45 172.45 90.9 170.8 91.8 169.7 92.45 168.6 92.7 168.1 92.9 167.55 123.7 167.6 147.15 167.7 156.6 167.7 166.05 167.7
M 84.55 78.85
Q 84.4 76.1 84.45 74.55 87.55 73.9 90.6 73.6 89.95 76.85 89.9 81.05 89.8 84.05 89.9 89.85 89.8 91.65 90.25 92.65 90.35 92.95 90.6 93.4 87.45 93.5 84.45 93.95 84.4 93.85 84.5 93.75 84.45 93.35 84.55 91.5 84.35 89.3 84.3 87.1 84.15 85.55 84.2 84.75 84.4 83.55 84.4 82.55 84.4 81.7 84.55 78.85
M 106.4 95.4
Q 111.65 95.65 113.3 95.95 112.8 100.6 111.6 103.8 111.15 104.9 110.65 105.8 109.4 107.8 104.95 112.15 100.4 116.5 88.8 117.85 87.4 118 86.15 118.1
L 86.15 118.25
Q 85.85 118.05 85.55 118.05 85 118 84.4 118.35 83.9 118.4 83.35 119 79.1 121.85 74.25 121.45 71.8 121.25 69.95 120.05 67.85 118.6 67.35 116.5 67.2 115.4 67.05 114.9 66.65 114 66.4 113.5 65.95 113 65.1 112.85 64.8 112.85 63.5 112.65 58.95 112.25 57.55 109.45 56.35 107.45 57.35 105.05 58.3 102.9 60.6 102.1 61.25 101.75 62.7 101.4 63.1 101.15 63.5 101.05 64.1 101 64.9 100.95 64.9 100.9 64.9 100.85 64.9 100.75 65.05 100.8 67.25 100.3 66.85 100.6 66.35 100.75 77.45 98.8 79.5 98.45 82 98 97.6 94.9 106.4 95.4
M 30.3 183.45
Q 30.3 183.579296875 30.3 183.7 30.3 183.85 30.3 184.05 30.3 184.2 30.3 184.35 30.3 184.5 30.3 184.65 30.3 184.8 30.3 184.95 30.3 185.1 30.3 185.3 30.3 185.45 30.3 185.6 30.3 185.75 30.3 185.9 30.3 186.05 30.3 186.2 30.3 186.35 30.3 186.55 30.3 186.7 30.3 186.85 30.3 187 30.3 187.15 30.3 187.3 30.3 187.45 30.3 187.6 30.3 187.8 30.3 187.95 30.3 188.1 30.3 188.25 30.3 188.4 30.3 188.55 30.3 188.7 30.3 188.85 30.3 189.05 30.3 189.2 30.3 189.35 30.3 189.5 30.3 189.65 30.3 189.8 30.3 189.95 30.3 190.1 30.3 190.3 30.3 190.45 30.3 190.6 30.3 190.75 30.3 190.9 30.3 191.05 30.3 191.2 30.3 191.35 30.3 191.55 30.3 191.7 30.3 191.85 30.3 192 30.3 192.15 30.3 192.3 30.3 192.45 30.3 192.6 30.3 192.8 30.3 192.95 30.3 193.1 30.3 193.25 30.3 193.4 30.3 193.55 30.3 193.7 30.3 193.85 30.3 194.05 30.3 194.2 30.3 194.35 30.3 194.5 30.3 194.65 30.3 194.8 30.3 194.95 30.3 195.1 30.3 195.3 30.3 195.45 30.3 195.6 30.3 195.75 30.3 195.9 30.3 196.05 30.3 196.2 30.3 196.35 30.3 196.55 30.3 196.7 30.3 196.85 30.3 197 30.3 197.15 30.3 197.3 30.3 197.45 30.3 197.6 30.3 197.8 30.3 197.95 30.3 198.1 30.3 198.25 30.3 198.4 30.3 198.55 30.3 198.7 30.3 198.85 30.3 199.05 30.3 199.2 30.3 199.35 30.3 199.5 30.3 199.65 30.3 199.8 30.3 199.95 30.3 200.1 30.3 200.3 30.3 200.45 30.3 200.6 30.3 200.75 30.3 200.9 30.3 201.05 30.3 201.2 30.3 201.35 30.3 201.55 30.3 201.7 30.3 201.85 30.3 202 30.3 202.15 30.3 202.3 30.3 202.45 30.3 202.6 30.3 202.8 30.3 202.95 30.3 203.1 30.3 203.25 30.3 203.4 30.3 203.55 30.3 203.7 30.3 203.85 30.3 204.05 30.3 204.2 30.3 204.35 30.3 204.5 30.3 204.65 30.3 204.8 30.3 204.95 30.3 205.1 30.3 205.3 30.3 205.45 30.3 205.6 30.3 205.75 30.3 205.9 30.3 206.05 30.3 206.2 30.3 206.35 30.3 206.55 30.3 206.7 30.3 206.85 30.3 207 30.3 207.15 30.3 207.3 30.3 207.45 30.3 207.6 30.3 207.8 30.3 207.95 30.3 208.1 30.3 208.25 30.3 208.4 30.3 208.55 30.3 208.7 30.3 208.85 30.3 209.05 30.3 209.2 30.3 209.35 30.3 209.5 30.3 209.65 30.3 209.8 30.3 209.95 30.3 210.1 30.3 210.3 30.3 210.45 30.3 210.6 30.3 210.75 30.3 210.9 30.3 211.05 30.3 211.2 30.3 211.35 30.3 211.55 30.3 211.7 30.3 211.85 30.3 212 30.3 212.15 30.3 212.3 30.3 212.45 30.1544921875 212.373046875 30 212.3
L 30 219.9
Q 30.1201171875 219.9 30.25 219.9 30.2 219.9015625 30.2 219.95 30.2 220.1 30.2 220.3 30.2 220.45 30.2 220.6 30.2 220.75 30.2 220.9 30.2 221.05 30.2 221.2 30.2 221.35 30.2 221.55 30.2 221.5982421875 30.2 221.65 29.937109375 221.5015625 29.65 221.35
L 25.15 219.05
Q 23.7 218.3 23.3 217.5 22.9 216.65 23.3 215.05 26.88828125 198.4373046875 30.3 183.45
M 68 153.35
Q 70.4 152.9 74.55 152.9 77.45 152.9 78.9 153.55 80.4 154.15 82.65 156.85 83.35 157.65 83.9 158.4 84 158.55 84.1 158.65 85.2 160.15 85.6 161.2 86 162.3 86.4 164.6 85.45 166.1 84.4 167.35 84.3 167.45 84.25 167.55 83.75 168.1 83.3 168.6 80.95 170.95 78.3 172 75.6 173.1 71.45 173.3 68.35 173.55 65.95 173.15 62.85 172.55 60.95 171 59.95 170.15 58.85 168.6 58.5 168.2 58.2 167.7
L 57.2 166
Q 55.8 163.5 56.3 161.95 56.4 161.65 56.75 160.95 57.1 160.25 57.2 159.9 57.25 159 57.4 158.45 57.45 158.35 57.45 158.3 57.5 157.95 57.65 157.75 57.95 157.25 59.05 156.65 64.85 153.95 68 153.35
M 87.25 147.95
Q 87.75 145.5 87.95 144.95 88.4 143.85 89.95 142 90.8 140.95 91.5 140.6 92.3 140.2 94.15 140.2
L 99.55 140.35
Q 101.6 140.35 103.6 140.5 103.7 140.5 103.85 140.55 104.8 140.5 105.75 140.5 105.6 140.9 105.45 141.4 105.3 141.95 105.05 143.05 104.65 144.4 104 145.8
L 103 148.15
Q 102.6 149.15 102.3 149.6
L 101.85 150.3
Q 97.99375 150.5376953125 94.5 151.45 94.6345703125 151.2744140625 94.75 151.15 95.9 150.25 96.4 149.75 97.35 148.8 97.15 147.85 97.05 147.25 96.45 146.85 95.9 146.5 95.2 146.5 94.15 146.55 92.85 147.4 89.5 149.4 87.9 151.8 87.2 151.05 86.4 150.3 86.95 149.45 87.25 147.95
M 227.65 219.4
Q 227.1015625 219.628515625 225.3 220.2
L 225.3 193.75
Q 227.7892578125 204.2494140625 230.4 214.4 230.75 215.8 230.6 216.6 230.25 218.45 227.65 219.4
M 198.95 243.2
Q 200.75 243.2 202.05 241.9 203.35 240.6 203.35 238.75 203.35 236.9 202.05 235.6 200.75 234.3 198.95 234.3 197.15 234.3 195.85 235.6 194.55 236.9 194.55 238.75 194.55 240.6 195.85 241.9 197.15 243.2 198.95 243.2
M 168.25 222.1
Q 170.15 222.1 171.45 220.6 172.8 219.1 172.8 216.95 172.8 214.8 171.45 213.3 170.15 211.8 168.25 211.8 166.35 211.8 165 213.3 163.7 214.8 163.7 216.95 163.7 219.1 165 220.6 166.35 222.1 168.25 222.1
M 186.9 215
Q 185.1 215.5 184.8 217.2 184.25 220.7 184.7 224 184.4 223.95 184.2 223.8 180.8 222.65 177.6 224.35 171.4 227.75 172.25 234.9
L 171.5 234.65
Q 171.35 232.15 171.05 229.75 170.95 228.8 170.45 228.1 168.3 224.9 165.6 227.55 165.35 228.5 165.2 229.5 164.65 233.5 164.7 237.95 164.7 240.65 167.2 241.55 172.35 243.15 174 238.2 175.35 239.85 177.1 241.05 179.85 242.9 183.25 242.35 187 242.7 189 239.55 190.75 236.7 191.2 233.55 192.15 227.4 191.55 221 191.35 218.85 190.6 216.95 189.6 214.5 186.9 215
M 179.4 233.95
Q 178.05 231.25 180.5 229.85
L 184.1 230.3
Q 185 232.95 183.65 235.45 182.85 235.5 182.05 235.55 180.25 235.65 179.4 233.95
M 198.95 211.55
Q 195.8 211.8 194.4 215 192.7 218.95 193.3 223.35 193.65 225.65 193.75 227.95 193.9 231.5 196.5 233.15 199.2 233.55 199.8 230.9 201.25 224.7 202.45 218.7 202.6 218 202.75 217.3 203.55 212.55 198.95 211.55
M 86.85 243.15
Q 85 243.2 83.2 243.25 81.5 243.3 79.85 243.35 78.7 243.4 77.55 243.45 76.1 243.5 74.65 243.55 72.35 243.6 70.05 243.65 66.65 243.65 63.2 243.65 62.65 243.6 62.15 243.55 61.85 243.5 61.5 243.45 61.1 243.4 60.7 243.35 60.4 243.3 60.05 243.25 59.75 243.2 59.45 243.15 58.95 243.1 58.5 243 58 242.95 57.45 242.9 56.85 242.85 56.2 242.8 55.75 242.75 55.25 242.7 54.9 242.65 54.55 242.6 54.2 242.55 53.8 242.5 53.45 242.45 53.1 242.4 53.05 242.4 53 242.4 53 242.45 53 242.5 52.6 242.5 52.25 242.5 51.95 242.6 51.65 242.7 51.35 242.85 51.1 243 50.95 243.2 50.8 243.35 50.65 243.5 50.5 243.65 50.4 243.8 50.25 243.95 50.15 244.1 50.05 244.25 50 244.45 49.95 244.6 49.9 244.75 49.85 244.9 49.85 245.05 49.85 245.2 49.8 245.35 49.75 245.5 49.8 245.7 49.85 245.85 49.85 246 49.85 246.15 49.85 246.3 49.85 246.45 49.9 246.6 49.95 246.75 50 246.95 50.05 247.1 50.15 247.25 50.25 247.4 50.45 247.55 50.6 247.7 50.75 247.85 50.9 248 51.05 248.2 51.2 248.35 51.55 248.5 51.95 248.65 52.45 248.75 53 248.85 53.05 248.85 53.1 248.85 53.45 248.8 53.8 248.75 54.2 248.7 54.55 248.65 54.9 248.6 55.25 248.55 55.75 248.5 56.2 248.45 56.85 248.4 57.45 248.35 58 248.3 58.5 248.25 58.95 248.2 59.45 248.15 59.75 248.1 60.05 248 60.4 247.95 60.7 247.9 61.1 247.85 61.5 247.8 61.85 247.75 62.15 247.7 62.65 247.65 63.2 247.6 66.65 247.6 70.05 247.6 72.35 247.65 74.65 247.7 76.1 247.75 77.55 247.8 78.7 247.85 79.85 247.9 81.5 247.95 83.2 248 85 248.1 86.85 248.15 89.85 248.2 92.85 248.25 94.1 248.3 95.35 248.35 95.85 248.4 96.3 248.45 97.15 248.5 98 248.55 98.35 248.6 98.7 248.65 99.15 248.65 99.65 248.65 100.1 248.55 100.6 248.45 100.9 248.3 101.2 248.15 101.4 247.95 101.6 247.8 101.8 247.65 101.95 247.5 102.05 247.35 102.15 247.2 102.2 247.05 102.25 246.9 102.35 246.7 102.45 246.55 102.5 246.4 102.55 246.25 102.55 246.1 102.55 245.95 102.55 245.8 102.55 245.65 102.55 245.45 102.55 245.3 102.55 245.15 102.55 245 102.5 244.85 102.45 244.7 102.35 244.55 102.25 244.4 102.2 244.2 102.15 244.05 102.05 243.9 101.95 243.75 101.8 243.6 101.6 243.45 101.4 243.3 101.2 243.15 100.9 242.95 100.6 242.8 100.1 242.7 99.65 242.6 99.15 242.6 98.7 242.6 98.35 242.65 98 242.7 97.15 242.75 96.3 242.8 95.85 242.85 95.35 242.9 94.1 242.95 92.85 243 89.85 243.1 86.85 243.15
M 97.15 219.8
Q 96.4 218.75 94.8 216.75
L 86.6 206.85
Q 86.2 206.35 85.8 206.05 85.65 205.5 85.15 205.25 84.5 204.95 83.7 205.4 83.3 205.65 82.65 206.4 78.4 211.5 76.45 214.3 75.25 215.95 74.25 217.6 73.95 217.2 73.6 216.8
L 65.4 206.85
Q 65 206.35 64.6 206.05 64.5 205.5 63.95 205.25 63.3 204.95 62.5 205.4 62.1 205.65 61.45 206.45 57.2 211.55 55.25 214.3 52.05 218.8 50.3 222.85 49.3 225.1 49.8 226.45 50.4 228.3 53.15 229.05 53.75 229.2 59.3 229.05 59.1 230.9 59.1 232.5 59.1 234.9 59.55 237.3 59.75 238.35 59.95 238.8 60.55 240.15 61.9 240.95 63.25 241.7 64.8 241.5 66.4 241.35 67.45 240.25 68.3 239.35 68.6 237.8 68.8 236.75 68.85 234.95
L 68.9 232.1
Q 68.95 230.25 68.95 228.75 70.5 228.65 72.15 228.6
L 73 228.5
Q 73.55 228.8 74.35 229 74.95 229.2 80.5 229.05 80.3 230.85 80.3 232.45 80.3 234.9 80.75 237.25 80.95 238.35 81.15 238.8 81.75 240.15 83.1 240.95 84.45 241.65 86 241.5 87.6 241.3 88.65 240.25 89.5 239.3 89.8 237.8 90 236.75 90.05 234.95
L 90.1 232.05
Q 90.15 230.2 90.15 228.7 91.7 228.65 93.35 228.6
L 96.4 228.15
Q 97.35 228 97.75 227.85 98.45 227.65 98.85 227.25 99.5 226.55 99.35 225.45 99.25 225.05 99.1 224.75 99.1 224.05 98.8 223.2 98.3 221.55 97.15 219.8
M 134.7 227.2
Q 132.35 227.25 131.95 229.55 131.4 232.85 132.15 236.15 135.2 241.35 141.4 240.8 146.25 240.15 147.85 235.5 147.75 237.8 147.75 240.1 147.75 241.45 147.95 242.65 148.45 246.15 149.3 249.4 149.85 251.6 151.65 252.75 153.6 254.05 155.25 252.45 157 250.9 156.3 248.6 155.25 245.2 154.1 241.9 156.5 242.2 158.85 242.2 159.75 241.95 160.5 241.45 163.3 239.55 164.05 236.1 164.45 234.4 163.95 232.7 162.15 226.65 156 226.1 155.05 226.1 154.15 226.3 150.9 227.15 149.2 229.7 149 227.1 146.85 226.15 145 225.4 143.3 226.55 142.35 227.2 141.95 228.35 140.9 231.5 140.5 234.55 139.85 234.8 139.15 234.55 138.2 234.25 137.9 233.25 137.2 231 136.55 228.65 136.15 227.2 134.7 227.2
M 157.8 232.9
Q 158.45 233.55 158.45 234.5 158.45 235.45 157.8 236.1 157.15 236.75 156.25 236.75 155.35 236.75 154.7 236.1 154.05 235.45 154.05 234.5 154.05 233.55 154.7 232.9 155.35 232.25 156.25 232.25 157.15 232.25 157.8 232.9
M 126.4 221.15
Q 126.3 219 124.9 217.35 123.35 215.5 121.35 216.8 120.8 217.55 120.8 218.6 120.8 222.5 120.85 226.45
L 116.9 227.4
Q 113.85 224.9 109.75 225.7 108.05 225.95 107.2 227.35 105.3 230.5 106.6 234.15 105.3 234.6 104.8 235.75 103.55 238.5 106.05 240.7 107.4 241.95 109.05 242.35 113.25 243.45 117.25 241.6 117.95 240.85 118.5 240.05 120.75 236.7 118.65 233.35
L 121 233.3
Q 121.05 235.2 121.75 236.95 122.7 239.45 125.45 239.45 127.1 239.45 127.55 237.95 128.45 235.25 127.3 232.5 129.7 232.2 131 230.3 131.35 229.8 131.35 229.2 131.4 224.55 126.55 225.2 126.45 223.15 126.4 221.15
M 131.8 129.25
Q 132.7 130.1 133.5 130.2 134.4 130.35 134.95 129.8 135.35 129.45 135.45 128.85 135.5 128.25 135.2 127.8 134.8 127.2 133.65 126.7 132.45 126.2 131.3 126.1 130.1 125.95 129.65 126.05 129.15 126.1 128.3 126.3 127.45 126.45 126.5 127.05 125.5 127.6 125.55 128.75 125.65 129.75 126.55 130 127.3 130.25 128.35 129.6 128.75 129.4 130.05 128.3 130.15 128.2 130.25 128.1
L 130.8 128.45 131.8 129.25
M 245.1 39.5
Q 247.1 35.55 246.85 31.3 246.55 27 244.05 23.35 241.55 19.7 237.7 17.9 235.2 16.75 231.6 16.15 228.2 15.55 226 16.2 225.95 16 225.9 15.8 225.1 11.5 224.25 9.5 222.85 6.15 220.05 3.75 217.2 1.3 213.7 0.45 210.2 -0.4 206.55 0.4 202.95 1.2 200.15 3.45 197.75 5.35 195.75 8.65 194.2 11.15 193.55 13.3 192.55 16.5 192.95 22.35 193.3 26.45 194.2 29.5 194.7 31.05 195.5 32.75 198.1 38.5 201.95 43.35 202.75 44.4 203.5 44.65 203.55 44.8 203.65 44.95 204.15 45.95 205.15 46.5 205.95 46.95 207.2 47.2 207.4 47.25 209.35 47.5 210.65 47.65 216.5 48.8 220.9 49.65 223.7 49.65 226.2 49.65 229.35 49.05 235.85 48.05 239.5 45.7 243.05 43.45 245.1 39.5
M 222.85 19.4
Q 223.15 19.55 223.5 19.6
L 223.5 19.65
Q 224.15 20.85 226.7 20.85 234.7 21.15 238.35 25.05 239.7 26.55 240.4 28.55 241.1 30.55 240.9 32.55 240.75 34.55 239.75 36.4 238.8 38.25 237.2 39.5 235.3 40.95 231.9 41.95 228.7 42.85 225.8 42.9 223.25 42.95 219.55 42.35 215.45 41.6 213.35 41.3 210.8 40.95 208.15 40.85 206.3 40.85 205.4 41.1 205.25 41.15 205.15 41.2 205 40.85 204.8 40.5 203.15 37.1 202.4 35.4 201.1 32.45 200.5 30.05 200.15 28.8 199.75 26 199.25 22.35 199.3 20.05 199.35 16.75 200.35 14.25 202.1 10 206.1 8 208.25 6.9 210.65 6.75 213.1 6.55 215.3 7.4 217.55 8.3 219.1 10.2 220.7 12.1 221.05 14.45
L 221.35 17.15
Q 221.7 18.8 222.85 19.4 Z"/>

<path fill="#996666" stroke="none" d="
M 225.3 220.2
Q 227.1015625 219.628515625 227.65 219.4 230.25 218.45 230.6 216.6 230.75 215.8 230.4 214.4 227.7892578125 204.2494140625 225.3 193.75
L 225.3 220.2
M 30.3 183.7
Q 30.3 183.579296875 30.3 183.45 26.88828125 198.4373046875 23.3 215.05 22.9 216.65 23.3 217.5 23.7 218.3 25.15 219.05
L 29.65 221.35
Q 29.937109375 221.5015625 30.2 221.65 30.2 221.5982421875 30.2 221.55 30.2 221.35 30.2 221.2 30.2 221.05 30.2 220.9 30.2 220.75 30.2 220.6 30.2 220.45 30.2 220.3 30.2 220.1 30.2 219.95 30.2 219.9015625 30.25 219.9 30.1201171875 219.9 30 219.9
L 30 212.3
Q 30.1544921875 212.373046875 30.3 212.45 30.3 212.3 30.3 212.15 30.3 212 30.3 211.85 30.3 211.7 30.3 211.55 30.3 211.35 30.3 211.2 30.3 211.05 30.3 210.9 30.3 210.75 30.3 210.6 30.3 210.45 30.3 210.3 30.3 210.1 30.3 209.95 30.3 209.8 30.3 209.65 30.3 209.5 30.3 209.35 30.3 209.2 30.3 209.05 30.3 208.85 30.3 208.7 30.3 208.55 30.3 208.4 30.3 208.25 30.3 208.1 30.3 207.95 30.3 207.8 30.3 207.6 30.3 207.45 30.3 207.3 30.3 207.15 30.3 207 30.3 206.85 30.3 206.7 30.3 206.55 30.3 206.35 30.3 206.2 30.3 206.05 30.3 205.9 30.3 205.75 30.3 205.6 30.3 205.45 30.3 205.3 30.3 205.1 30.3 204.95 30.3 204.8 30.3 204.65 30.3 204.5 30.3 204.35 30.3 204.2 30.3 204.05 30.3 203.85 30.3 203.7 30.3 203.55 30.3 203.4 30.3 203.25 30.3 203.1 30.3 202.95 30.3 202.8 30.3 202.6 30.3 202.45 30.3 202.3 30.3 202.15 30.3 202 30.3 201.85 30.3 201.7 30.3 201.55 30.3 201.35 30.3 201.2 30.3 201.05 30.3 200.9 30.3 200.75 30.3 200.6 30.3 200.45 30.3 200.3 30.3 200.1 30.3 199.95 30.3 199.8 30.3 199.65 30.3 199.5 30.3 199.35 30.3 199.2 30.3 199.05 30.3 198.85 30.3 198.7 30.3 198.55 30.3 198.4 30.3 198.25 30.3 198.1 30.3 197.95 30.3 197.8 30.3 197.6 30.3 197.45 30.3 197.3 30.3 197.15 30.3 197 30.3 196.85 30.3 196.7 30.3 196.55 30.3 196.35 30.3 196.2 30.3 196.05 30.3 195.9 30.3 195.75 30.3 195.6 30.3 195.45 30.3 195.3 30.3 195.1 30.3 194.95 30.3 194.8 30.3 194.65 30.3 194.5 30.3 194.35 30.3 194.2 30.3 194.05 30.3 193.85 30.3 193.7 30.3 193.55 30.3 193.4 30.3 193.25 30.3 193.1 30.3 192.95 30.3 192.8 30.3 192.6 30.3 192.45 30.3 192.3 30.3 192.15 30.3 192 30.3 191.85 30.3 191.7 30.3 191.55 30.3 191.35 30.3 191.2 30.3 191.05 30.3 190.9 30.3 190.75 30.3 190.6 30.3 190.45 30.3 190.3 30.3 190.1 30.3 189.95 30.3 189.8 30.3 189.65 30.3 189.5 30.3 189.35 30.3 189.2 30.3 189.05 30.3 188.85 30.3 188.7 30.3 188.55 30.3 188.4 30.3 188.25 30.3 188.1 30.3 187.95 30.3 187.8 30.3 187.6 30.3 187.45 30.3 187.3 30.3 187.15 30.3 187 30.3 186.85 30.3 186.7 30.3 186.55 30.3 186.35 30.3 186.2 30.3 186.05 30.3 185.9 30.3 185.75 30.3 185.6 30.3 185.45 30.3 185.3 30.3 185.1 30.3 184.95 30.3 184.8 30.3 184.65 30.3 184.5 30.3 184.35 30.3 184.2 30.3 184.05 30.3 183.85 30.3 183.7
M 84.45 74.55
Q 84.4 76.1 84.55 78.85 84.4 81.7 84.4 82.55 84.4 83.55 84.2 84.75 84.15 85.55 84.3 87.1 84.35 89.3 84.55 91.5 84.45 93.35 84.5 93.75 84.4 93.85 84.45 93.95 87.45 93.5 90.6 93.4 90.35 92.95 90.25 92.65 89.8 91.65 89.9 89.85 89.8 84.05 89.9 81.05 89.95 76.85 90.6 73.6 87.55 73.9 84.45 74.55
M 166.45 168.6
Q 166.25 168.15 166.05 167.7 156.6 167.7 147.15 167.7 123.7 167.6 92.9 167.55 92.7 168.1 92.45 168.6 91.8 169.7 90.9 170.8 89.45 172.45 86.6 174.7 83.3 177.2 81.45 178.1 78 179.7 71.4 180.1 67.45 180.4 64.85 179.95 58.75 178.85 53.4 173.25 51.6 171.45 50.6 169.7 50.3 169.15 50.05 168.6 49.85 168.15 49.65 167.7 49.6 167.55 49.55 167.45 49.5015625 167.4015625 49.5 167.45 49.5 167.3986328125 49.5 167.35 49.4 167.35 49.35 167.35 47.15 167.3 44.95 167.25 43.4 167.2 41.85 167.15 40.8 167.1 39.75 167.05 39.75 167.2 39.75 167.35 39.75 167.5 39.75 167.7 39.8 167.85 39.85 168 39.85 168.15 39.85 168.3 39.85 168.45 39.85 168.6 39.9 168.75 40 168.95 40 169.1 40 169.25 40.05 169.4 40.1 169.55 40.1 169.7 40.1 169.85 40.1 170 40.1 170.2 40.15 170.35 40.2 170.5 40.2 170.65 40.2 170.8 40.2 170.95 40.2 171.1 40.25 171.25 40.3 171.45 40.3 171.6 40.3 171.75 40.3 171.9 40.3 172.05 40.35 172.2 40.4 172.35 40.4 172.5 40.4 172.7 40.4 172.85 40.4 173 40.4 173.15 40.4 173.3 40.4 173.45 40.4 173.6 40.45 173.75 40.5 173.95 40.5 174.1 40.5 174.25 40.5 174.4 40.5 174.55 40.5 174.7 40.5 174.85 40.55 175 40.6 175.2 40.6 175.35 40.6 175.5 40.6 175.65 40.6 175.8 40.6 175.95 40.6 176.1 40.6 176.25 40.6 176.45 40.6 176.6 40.6 176.75 40.6 176.9 40.6 177.05 40.6 177.2 40.6 177.35 40.6 177.5 40.6 177.7 40.6 177.85 40.6 178 40.65 178.15 40.7 178.3 40.7 178.45 40.7 178.6 40.7 178.75 40.7 178.95 40.7 179.1 40.7 179.25 40.7 179.4 40.7 179.55 40.7 179.7 40.7 179.85 40.7 180 40.7 180.2 40.7 180.35 40.7 180.5 40.7 180.65 40.7 180.8 40.7 180.95 40.7 181.1 40.7 181.25 40.7 181.4 40.7 181.6 40.7 181.75 40.7 181.9 40.7 182.05 40.7 182.2 40.7 182.35 40.7 182.5 40.7 182.65 40.7 182.85 40.7 183 40.7 183.15 40.7 183.3 40.7 183.45 40.7 183.6 40.7 183.75 40.7 183.9 40.7 184.1 40.7 184.25 40.7 184.4 40.7 184.55 40.7 184.7 40.7 184.85 40.7 185 40.7 185.15 40.7 185.35 40.7 185.5 40.7 185.65 40.7 185.8 40.7 185.95 40.7 186.1 40.7 186.25 40.7 186.4 40.7 186.6 40.7 186.75 40.7 186.9 40.7 187.05 40.7 187.2 40.7 187.35 40.7 187.5 40.7 187.65 40.7 187.85 40.7 188 40.7 188.15 40.7 188.3 40.7 188.45 40.7 188.6 40.7 188.75 40.7 188.9 40.7 189.1 40.7 189.25 40.7 189.4 40.7 189.55 40.7 189.7 40.7 189.85 40.7 190 40.7 190.15 40.7 190.35 40.7 190.5 40.7 190.65 40.7 190.8 40.7 190.95 40.7 191.1 40.7 191.25 40.7 191.4 40.7 191.6 40.7 191.75 40.7 191.9 40.7 192.05 40.7 192.2 40.7 192.35 40.7 192.5 40.7 192.65 40.7 192.85 40.7 193 40.7 193.15 40.7 193.3 40.7 193.45 40.7 193.6 40.7 193.75 40.7 193.9 40.7 194.1 40.7 194.25 40.7 194.4 40.7 194.55 40.7 194.7 40.7 194.85 40.7 195 40.7 195.15 40.7 195.35 40.7 195.5 40.7 195.65 40.7 195.8 40.7 195.95 40.7 196.1 40.7 196.25 40.7 196.4 40.7 196.6 40.7 196.75 40.7 196.9 40.7 197.05 40.7 197.2 40.7 197.35 40.7 197.5 40.7 197.65 40.7 197.85 40.7 198 40.7 198.15 40.7 198.3 40.7 198.45 40.7 198.6 40.7 198.75 40.7 198.9 40.7 199.1 40.7 199.25 40.7 199.4 40.7 199.55 40.7 199.7 40.7 199.85 40.7 200 40.7 200.15 40.7 200.35 40.7 200.5 40.7 200.65 40.7 200.8 40.7 200.95 40.7 201.1 40.7 201.25 40.7 201.4 40.7 201.6 40.7 201.75 40.7 201.9 40.7 202.05 40.7 202.2 40.7 202.35 40.7 202.5 40.7 202.65 40.7 202.85 40.7 203 40.7 203.15 40.7 203.3 40.7 203.45 40.7 203.6 40.7 203.75 40.7 203.9 40.7 204.1 40.7 204.25 40.7 204.4 40.7 204.55 40.7 204.7 40.7 204.85 40.7 205 40.7 205.15 40.7 205.35 40.7 205.5 40.7 205.65 40.7 205.8 40.7 205.95 40.7 206.1 40.7 206.25 40.7 206.4 40.7 206.6 40.7 206.75 40.7 206.9 40.7 207.05 40.7 207.2 40.7 207.35 40.7 207.5 40.7 207.65 40.7 207.85 40.7 208 40.7 208.15 40.7 208.3 40.7 208.45 40.7 208.6 40.7 208.75 40.7 208.9 40.7 209.1 40.7 209.25 40.7 209.4 40.7 209.55 40.7 209.7 40.7 209.85 40.7 210 40.7 210.15 40.7 210.35 40.7 210.5 40.7 210.65 40.7 210.8 40.7 210.95 40.7 211.1 40.7 211.25 40.7 211.4 40.7 211.6 40.7 211.75 40.7 211.9 40.7 212.05 40.7 212.2 40.7 212.35 40.7 212.5 40.7 212.65 40.7 212.85 40.7 213 40.7 213.15 40.7 213.3 40.7 213.45 40.7 213.6 40.7 213.75 40.7 213.9 40.7 214.1 40.7 214.25 40.75 214.4 40.8 214.55 40.8 214.7 40.8 214.85 40.8 215 40.8 215.15 40.8 215.35 40.8 215.5 40.8 215.65 40.8 215.8 40.8 215.95 40.8 216.1 40.75 216.25 40.7 216.4 40.7 216.6 40.7 216.75 40.7 216.9 40.7 217.05 40.7 217.2 40.7 217.35 40.7 217.5 40.7 217.65 40.7 217.85 40.7 218 40.7 218.15 40.7 218.3 40.7 218.45 40.7 218.6 40.7 218.75 40.7 218.9 40.7 219.1 40.7 219.25 40.7 219.4 40.7 219.55 40.7 219.7 40.7 219.85 40.75 220 40.8 220.15 40.8 220.35 40.8 220.5 40.8 220.65 40.8 220.8 40.8 220.95 40.8 221.1 40.8 221.25 40.8 221.4 40.75 221.6 40.7 221.75 40.7 221.9 40.7 222.05 40.7 222.2 40.7 222.35 40.7 222.5 40.7 222.65 40.7 222.85 40.7 223 40.7 223.15 40.7 223.3 40.7 223.45 40.7 223.6 40.7 223.75 40.7 223.9 40.7 224.1 40.7 224.25 40.7 224.4 40.7 224.55 40.7 224.7 40.7 224.85 40.7 225 40.7 225.15 40.75 225.35 40.8 225.5 40.8 225.65 40.8 225.8 40.8 225.95 40.8 226.1 40.8 226.25 40.8 226.4 40.8 226.6 40.8 226.75 40.8 226.9 40.8 227.05 40.75 227.2 40.7 227.35 40.7 227.5 40.7 227.65 40.7 227.85 40.7 228 40.7 228.15 40.7 228.3 40.7 228.45 40.7 228.6 40.7 228.75 40.7 228.9 40.7 229.1 40.7 229.25 40.7 229.4 40.7 229.55 40.7 229.7 40.7 229.85 40.7 230 40.7 230.15 40.7 230.35 40.7 230.5 40.7 230.65 40.7 230.8 40.7 230.95 40.7 231.1 40.7 231.25 40.7 231.4 40.7 231.6 40.7 231.75 40.7 231.9 40.7 232.05 40.7 232.2 40.7 232.35 40.7 232.5 40.7 232.65 40.7 232.85 40.7 233 40.7 233.15 40.7 233.3 40.7 233.45 40.7 233.6 40.7 233.75 40.7 233.9 40.7 234.1 40.7 234.25 40.7 234.4 40.7 234.55 40.7 234.7 40.7 234.85 40.7 235 40.7 235.15 40.7 235.35 40.7 235.5 40.7 235.65 40.7 235.8 40.7 235.95 40.7 236.1 40.7 236.25 40.7 236.4 40.7 236.6 40.7 236.75 40.7 236.9 40.7 237.05 40.7 237.2 40.7 237.35 40.7 237.5 40.7 237.65 40.7 237.85 40.7 238 40.7 238.15 40.7 238.3 40.7 238.45 40.7 238.6 40.7 238.75 40.7 238.9 40.7 239.1 40.7 239.25 40.7 239.4 40.7 239.55 40.7 239.7 40.7 239.85 40.7 240 40.7 240.15 40.7 240.35 40.7 240.5 40.7 240.65 40.7 240.8 40.7 240.95 40.7 241.1 40.7 241.25 40.7 241.4 40.7 241.6 40.7 241.75 40.7 241.9 40.7 242.05 40.7 242.2 40.7 242.35 40.7 242.5 40.7 242.65 40.7 242.85 40.7 243 40.7 243.15 40.7 243.3 40.7 243.45 40.7 243.6 40.7 243.75 40.7 243.9 40.7 244.1 40.7 244.25 40.7 244.4 40.7 244.55 40.65 244.7 40.6 244.85 40.6 245 40.6 245.15 40.6 245.35 40.6 245.5 40.6 245.65 40.6 245.8 40.6 245.95 40.6 246.1 40.6 246.25 40.6 246.4 40.6 246.6 40.6 246.75 40.6 246.9 40.6 247.05 40.6 247.2 40.6 247.35 40.6 247.5 40.6 247.65 40.6 247.85 40.6 248 40.6 248.15 40.6 248.3 40.6 248.45 40.6 248.6 40.6 248.75 40.6 248.9 40.6 249.1 40.6 249.25 40.6 249.4 40.6 249.55 40.6 249.7 40.6 249.85 40.6 250 40.6 250.15 40.6 250.3 40.6 250.5 40.6 250.65 40.6 250.8 40.6 250.95 40.6 251.1 40.6 251.25 40.6 251.4 40.6 251.55 40.6 251.75 40.55 251.9 40.5 252.05 40.5 252.2 40.5 252.35 40.5 252.5 40.5 252.65 40.5 252.8 40.5 253 40.5 253.15 40.5 253.3 40.5 253.45 40.5 253.6 40.5 253.75 40.5 253.9 40.5 254.05 40.5 254.25 40.5 254.4 40.5 254.55 40.5 254.7 40.5 254.85 40.5 255 40.5 255.15 40.5 255.3 40.5 255.5 40.45 255.65 40.4 255.8 40.4 255.95 40.4 256.1 40.4 256.15 40.4 256.2 76.7 256.15 113 256.1 115.4 256.05 117.8 256 119.05 255.95 120.3 255.9 121.3 255.85 122.35 255.8 123.8 255.75 125.3 255.7 130.2 255.65 135.05 255.6 137.55 255.55 140.05 255.5 140.9 255.45 141.75 255.4 144.45 255.4 147.15 255.4 147.15 255.3 147.15 255.25 164.8 255.25 182.45 255.25 182.75 255.25 183.1 255.25 184 255.25 184.95 255.25 187.2 255.25 189.45 255.25 189.65 255.25 189.85 255.25 190.5 255.25 191.1 255.25 191.2 255.25 191.3 255.25 192.25 255.25 193.2 255.25 193.4 255.25 193.6 255.25 197.35 255.25 201.1 255.25 203.6 255.25 206.1 255.25 206.45 255.25 206.85 255.25 207 255.25 207.15 255.25 208 255.25 208.8 255.25 209 255.25 209.25 255.25 209.4 255.25 209.55 255.25 213.25 255.25 216.95 255.25 216.95 255.1 216.95 254.95 217 254.8 217.05 254.65 217 254.5 216.95 254.35 216.95 254.2 216.95 254 216.95 253.85 216.95 253.7 216.95 253.55 216.95 253.4 216.95 253.25 216.95 253.1 216.95 252.95 216.95 252.75 216.95 252.6 216.95 252.45 216.95 252.3 216.95 252.15 216.95 252 216.95 251.85 216.95 251.7 216.95 251.5 216.95 251.35 216.95 251.2 216.95 251.05 216.95 250.9 216.95 250.75 216.95 250.6 216.95 250.45 216.95 250.25 216.95 250.1 216.95 249.95 216.95 249.8 216.95 249.65 216.95 249.5 216.95 249.35 216.95 249.2 216.95 249 216.95 248.85 216.95 248.7 216.95 248.55 216.95 248.4 216.95 248.25 216.95 248.1 216.95 247.95 216.95 247.75 216.95 247.6 216.95 247.45 216.95 247.3 216.95 247.15 216.95 247 216.95 246.85 216.95 246.7 216.95 246.5 216.95 246.35 216.95 246.2 216.95 246.05 216.95 245.9 216.95 245.75 216.95 245.6 216.95 245.45 216.95 245.25 216.95 245.1 216.95 244.95 216.95 244.8 216.95 244.65 216.95 244.5 216.95 244.35 216.95 244.2 216.95 244 216.95 243.85 216.95 243.7 216.95 243.55 216.95 243.4 216.95 243.25 216.95 243.1 216.95 242.95 216.95 242.75 216.95 242.6 216.95 242.45 216.95 242.3 216.95 242.15 216.95 242 216.95 241.85 216.95 241.7 216.95 241.5 216.95 241.35 216.95 241.2 216.95 241.05 216.95 240.9 216.95 240.75 216.95 240.6 216.95 240.45 216.95 240.25 216.95 240.1 216.95 239.95 216.95 239.8 216.95 239.65 216.95 239.5 216.95 239.35 216.95 239.2 216.95 239 216.95 238.85 216.95 238.7 216.95 238.55 216.95 238.4 216.95 238.25 216.95 238.1 216.95 237.95 216.95 237.75 216.95 237.6 216.95 237.45 216.95 237.3 216.95 237.15 216.95 237 216.95 236.85 216.95 236.7 216.95 236.5 216.95 236.35 216.95 236.2 216.95 236.05 216.95 235.9 216.95 235.75 216.95 235.6 216.95 235.45 216.95 235.25 216.95 235.1 216.95 234.95 216.95 234.8 216.95 234.65 216.95 234.5 216.95 234.35 216.95 234.2 216.95 234 216.95 233.85 216.95 233.7 216.95 233.55 216.95 233.4 216.95 233.25 216.95 233.1 216.95 232.95 216.95 232.75 216.95 232.6 216.95 232.45 216.95 232.3 216.95 232.15 216.95 232 216.95 231.85 216.95 231.7 216.95 231.5 216.95 231.35 216.95 231.2 216.95 231.05 216.95 230.9 216.95 230.75 216.95 230.6 216.95 230.45 216.95 230.25 216.95 230.1 216.95 229.95 216.95 229.8 216.95 229.65 216.95 229.5 216.95 229.35 216.95 229.2 216.95 229 216.95 228.85 216.95 228.7 216.95 228.55 216.95 228.4 216.95 228.25 216.95 228.1 216.95 227.95 216.95 227.75 216.95 227.6 216.95 227.45 216.95 227.3 216.95 227.15 216.95 227 216.95 226.85 216.95 226.7 216.95 226.55 217 226.35 217.05 226.2 217.05 226.05 217.05 225.9 217.05 225.75 217.05 225.6 217.05 225.45 217.05 225.3 217.05 225.1 217.05 224.95 217.05 224.8 217.05 224.65 217.05 224.5 217.05 224.35 217.05 224.2 217.05 224.05 217.05 223.85 217.05 223.7 217.05 223.55 217.05 223.4 217.05 223.25 217.05 223.1 217 222.95 216.95 222.8 216.95 222.6 216.95 222.45 216.95 222.3 216.95 222.15 216.95 222 216.95 221.85 217 221.7 217.05 221.55 217.05 221.35 217.05 221.2 217 221.05 216.95 220.9 216.95 220.75 216.95 220.6 216.95 220.45 216.95 220.3 216.95 220.1 216.95 219.95 216.95 219.8 216.95 219.65 217 219.5 217.05 219.35 217.05 219.2 217.05 219.05 217.05 218.85 217.05 218.7 217.05 218.55 217.05 218.4 217.05 218.25 217.05 218.1 217 217.95 216.95 217.8 216.95 217.6 216.95 217.45 217 217.3 217.05 217.15 217.05 217 217.05 216.85 217.05 216.7 217.05 216.55 217.05 216.35 217.05 216.2 217.05 216.05 217.05 215.9 217.05 215.75 217.05 215.6 217 215.45 216.95 215.3 216.95 215.1 216.95 214.95 216.95 214.8 216.95 214.65 216.95 214.5 216.95 214.35 216.95 214.2 216.95 214.05 216.95 213.85 216.95 213.7 216.95 213.55 216.95 213.4 216.95 213.25 216.95 213.1 216.95 212.95 216.95 212.8 216.95 212.6 216.95 212.45 216.95 212.3 216.95 212.15 216.95 212 216.95 211.85 216.95 211.7 216.95 211.55 216.95 211.35 216.95 211.2 216.95 211.05 216.95 210.9 217 210.75 217.05 210.6 217.05 210.45 217.05 210.3 217.05 210.1 217.05 209.95 217.05 209.8 217.05 209.65 217.05 209.5 217.05 209.35 217 209.2 216.95 209.05 216.95 208.85 216.95 208.7 216.95 208.55 216.95 208.4 217 208.25 217.05 208.1 217.05 207.95 217.05 207.8 217.05 207.6 217.05 207.45 217.05 207.3 217.05 207.15 217.05 207 217.05 206.85 217.05 206.7 217.05 206.55 217.05 206.35 217.05 206.2 217.05 206.05 217.05 205.9 217.05 205.75 217.05 205.6 217.05 205.45 217.05 205.3 217.05 205.1 217.05 204.95 217.05 204.8 217.05 204.65 217.05 204.5 217.05 204.35 217.05 204.2 217.05 204.05 217.05 203.85 217.05 203.7 217.05 203.55 217.05 203.4 217.05 203.25 217.05 203.1 217.05 202.95 217.05 202.8 217.05 202.6 217.05 202.45 217.05 202.3 217.05 202.15 217.05 202 217.05 201.85 217.05 201.7 217.05 201.55 217.05 201.35 217.05 201.2 217.05 201.05 217.05 200.9 217.05 200.75 217.05 200.6 217.05 200.45 217.05 200.3 217.05 200.1 217.05 199.95 217.05 199.8 217.05 199.65 217.05 199.5 217.05 199.35 217.05 199.2 217.05 199.05 217.05 198.85 217.05 198.7 217.05 198.55 217.05 198.4 217.1 198.25 217.15 198.1 217.15 197.95 217.15 197.8 217.15 197.6 217.15 197.45 217.15 197.3 217.15 197.15 217.15 197 217.15 196.85 217.15 196.7 217.15 196.55 217.15 196.35 217.15 196.2 217.15 196.05 217.15 195.9 217.15 195.75 217.15 195.6 217.15 195.45 217.15 195.3 217.15 195.1 217.15 194.95 217.15 194.8 217.15 194.65 217.15 194.5 217.15 194.35 217.15 194.2 217.15 194.05 217.15 193.85 217.15 193.7 217.15 193.55 217.15 193.4 217.15 193.25 217.15 193.1 217.15 192.95 217.15 192.8 217.15 192.6 217.15 192.45 217.15 192.3 217.15 192.15 217.15 192 217.15 191.85 217.15 191.7 217.15 191.55 217.15 191.35 217.15 191.2 217.2 191.05 217.25 190.9 217.25 190.75 217.25 190.6 217.25 190.45 217.25 190.3 217.25 190.1 217.25 189.95 217.25 189.8 217.25 189.65 217.25 189.5 217.25 189.35 217.25 189.2 217.25 189.05 217.25 188.85 217.25 188.7 217.25 188.55 217.25 188.4 217.25 188.25 217.25 188.1 217.25 187.95 217.25 187.8 217.25 187.6 217.25 187.45 217.3 187.3 217.35 187.15 217.35 187 217.35 186.85 217.35 186.7 217.35 186.55 217.35 186.35 217.35 186.2 217.35 186.05 217.35 185.9 217.35 185.75 217.35 185.6 217.35 185.45 217.35 185.3 217.35 185.1 217.35 184.95 217.35 184.8 217.35 184.65 217.35 184.5 217.35 184.35 217.35 184.2 217.35 184.05 217.35 183.85 217.35 183.7 217.35 183.55 217.35 183.4 217.35 183.25 217.35 183.1 217.35 182.95 217.35 182.8 217.35 182.6 217.35 182.45 217.35 182.3 217.35 182.15 217.35 182 217.35 181.85 217.35 181.7 217.35 181.55 217.35 181.35 217.35 181.2 217.35 181.05 217.35 180.9 217.35 180.75 217.35 180.6 217.35 180.45 217.35 180.3 217.35 180.1 217.35 179.95 217.35 179.8 217.35 179.65 217.35 179.5 217.35 179.35 217.35 179.2 217.35 179.05 217.35 178.85 217.35 178.7 217.35 178.55 217.35 178.4 217.35 178.25 217.35 178.1 217.35 177.95 217.35 177.8 217.35 177.6 217.35 177.45 217.35 177.3 217.35 177.15 217.35 177 217.35 176.85 217.4 176.7 217.45 176.55 217.45 176.35 217.45 176.2 217.45 176.05 217.45 175.9 217.45 175.75 217.45 175.6 217.45 175.45 217.45 175.3 217.45 175.1 217.45 174.95 217.45 174.8 217.45 174.65 217.45 174.5 217.45 174.35 217.5 174.2 217.55 174.05 217.55 173.85 217.55 173.7 217.55 173.55 217.55 173.4 217.55 173.25 217.55 173.1 217.55 172.95 217.55 172.8 217.55 172.6 217.55 172.45 217.6 172.3 217.65 172.15 217.65 172 217.65 171.85 217.65 171.7 217.65 171.55 217.65 171.35 217.65 171.2 217.7 171.05 217.75 170.9 217.75 170.75 217.75 170.6 217.75 170.45 217.75 170.3 217.8 170.1 217.9 169.95 217.9 169.8 217.9 169.65 217.95 169.5 218 169.35 218 169.2 218 169.05 218 168.85 218 168.7 218 168.65 218.05 168.6 218.05 168.5 218.1 168.4 218.15 168.25 218.2 168.1 218.2 167.95 218.2 167.8 218.2 167.6 218.2 167.45 218.2 167.35 218.2 167.25 215.65 167.2 213.1 167.15 211.25 167.15 209.45 167.15 209.2 167.9 208.8 168.6 208.2 169.7 207.3 170.8 205.85 172.45 203 174.7 199.7 177.2 197.85 178.1 194.4 179.7 187.8 180.1 183.85 180.4 181.25 179.95 175.15 178.85 169.8 173.25 168 171.45 167 169.7 166.7 169.15 166.45 168.6
M 124.9 217.35
Q 126.3 219 126.4 221.15 126.45 223.15 126.55 225.2 131.4 224.55 131.35 229.2 131.35 229.8 131 230.3 129.7 232.2 127.3 232.5 128.45 235.25 127.55 237.95 127.1 239.45 125.45 239.45 122.7 239.45 121.75 236.95 121.05 235.2 121 233.3
L 118.65 233.35
Q 120.75 236.7 118.5 240.05 117.95 240.85 117.25 241.6 113.25 243.45 109.05 242.35 107.4 241.95 106.05 240.7 103.55 238.5 104.8 235.75 105.3 234.6 106.6 234.15 105.3 230.5 107.2 227.35 108.05 225.95 109.75 225.7 113.85 224.9 116.9 227.4
L 120.85 226.45
Q 120.8 222.5 120.8 218.6 120.8 217.55 121.35 216.8 123.35 215.5 124.9 217.35
M 131.95 229.55
Q 132.35 227.25 134.7 227.2 136.15 227.2 136.55 228.65 137.2 231 137.9 233.25 138.2 234.25 139.15 234.55 139.85 234.8 140.5 234.55 140.9 231.5 141.95 228.35 142.35 227.2 143.3 226.55 145 225.4 146.85 226.15 149 227.1 149.2 229.7 150.9 227.15 154.15 226.3 155.05 226.1 156 226.1 162.15 226.65 163.95 232.7 164.45 234.4 164.05 236.1 163.3 239.55 160.5 241.45 159.75 241.95 158.85 242.2 156.5 242.2 154.1 241.9 155.25 245.2 156.3 248.6 157 250.9 155.25 252.45 153.6 254.05 151.65 252.75 149.85 251.6 149.3 249.4 148.45 246.15 147.95 242.65 147.75 241.45 147.75 240.1 147.75 237.8 147.85 235.5 146.25 240.15 141.4 240.8 135.2 241.35 132.15 236.15 131.4 232.85 131.95 229.55
M 94.8 216.75
Q 96.4 218.75 97.15 219.8 98.3 221.55 98.8 223.2 99.1 224.05 99.1 224.75 99.25 225.05 99.35 225.45 99.5 226.55 98.85 227.25 98.45 227.65 97.75 227.85 97.35 228 96.4 228.15
L 93.35 228.6
Q 91.7 228.65 90.15 228.7 90.15 230.2 90.1 232.05
L 90.05 234.95
Q 90 236.75 89.8 237.8 89.5 239.3 88.65 240.25 87.6 241.3 86 241.5 84.45 241.65 83.1 240.95 81.75 240.15 81.15 238.8 80.95 238.35 80.75 237.25 80.3 234.9 80.3 232.45 80.3 230.85 80.5 229.05 74.95 229.2 74.35 229 73.55 228.8 73 228.5
L 72.15 228.6
Q 70.5 228.65 68.95 228.75 68.95 230.25 68.9 232.1
L 68.85 234.95
Q 68.8 236.75 68.6 237.8 68.3 239.35 67.45 240.25 66.4 241.35 64.8 241.5 63.25 241.7 61.9 240.95 60.55 240.15 59.95 238.8 59.75 238.35 59.55 237.3 59.1 234.9 59.1 232.5 59.1 230.9 59.3 229.05 53.75 229.2 53.15 229.05 50.4 228.3 49.8 226.45 49.3 225.1 50.3 222.85 52.05 218.8 55.25 214.3 57.2 211.55 61.45 206.45 62.1 205.65 62.5 205.4 63.3 204.95 63.95 205.25 64.5 205.5 64.6 206.05 65 206.35 65.4 206.85
L 73.6 216.8
Q 73.95 217.2 74.25 217.6 75.25 215.95 76.45 214.3 78.4 211.5 82.65 206.4 83.3 205.65 83.7 205.4 84.5 204.95 85.15 205.25 85.65 205.5 85.8 206.05 86.2 206.35 86.6 206.85
L 94.8 216.75
M 83.2 243.25
Q 85 243.2 86.85 243.15 89.85 243.1 92.85 243 94.1 242.95 95.35 242.9 95.85 242.85 96.3 242.8 97.15 242.75 98 242.7 98.35 242.65 98.7 242.6 99.15 242.6 99.65 242.6 100.1 242.7 100.6 242.8 100.9 242.95 101.2 243.15 101.4 243.3 101.6 243.45 101.8 243.6 101.95 243.75 102.05 243.9 102.15 244.05 102.2 244.2 102.25 244.4 102.35 244.55 102.45 244.7 102.5 244.85 102.55 245 102.55 245.15 102.55 245.3 102.55 245.45 102.55 245.65 102.55 245.8 102.55 245.95 102.55 246.1 102.55 246.25 102.5 246.4 102.45 246.55 102.35 246.7 102.25 246.9 102.2 247.05 102.15 247.2 102.05 247.35 101.95 247.5 101.8 247.65 101.6 247.8 101.4 247.95 101.2 248.15 100.9 248.3 100.6 248.45 100.1 248.55 99.65 248.65 99.15 248.65 98.7 248.65 98.35 248.6 98 248.55 97.15 248.5 96.3 248.45 95.85 248.4 95.35 248.35 94.1 248.3 92.85 248.25 89.85 248.2 86.85 248.15 85 248.1 83.2 248 81.5 247.95 79.85 247.9 78.7 247.85 77.55 247.8 76.1 247.75 74.65 247.7 72.35 247.65 70.05 247.6 66.65 247.6 63.2 247.6 62.65 247.65 62.15 247.7 61.85 247.75 61.5 247.8 61.1 247.85 60.7 247.9 60.4 247.95 60.05 248 59.75 248.1 59.45 248.15 58.95 248.2 58.5 248.25 58 248.3 57.45 248.35 56.85 248.4 56.2 248.45 55.75 248.5 55.25 248.55 54.9 248.6 54.55 248.65 54.2 248.7 53.8 248.75 53.45 248.8 53.1 248.85 53.05 248.85 53 248.85 52.45 248.75 51.95 248.65 51.55 248.5 51.2 248.35 51.05 248.2 50.9 248 50.75 247.85 50.6 247.7 50.45 247.55 50.25 247.4 50.15 247.25 50.05 247.1 50 246.95 49.95 246.75 49.9 246.6 49.85 246.45 49.85 246.3 49.85 246.15 49.85 246 49.85 245.85 49.8 245.7 49.75 245.5 49.8 245.35 49.85 245.2 49.85 245.05 49.85 244.9 49.9 244.75 49.95 244.6 50 244.45 50.05 244.25 50.15 244.1 50.25 243.95 50.4 243.8 50.5 243.65 50.65 243.5 50.8 243.35 50.95 243.2 51.1 243 51.35 242.85 51.65 242.7 51.95 242.6 52.25 242.5 52.6 242.5 53 242.5 53 242.45 53 242.4 53.05 242.4 53.1 242.4 53.45 242.45 53.8 242.5 54.2 242.55 54.55 242.6 54.9 242.65 55.25 242.7 55.75 242.75 56.2 242.8 56.85 242.85 57.45 242.9 58 242.95 58.5 243 58.95 243.1 59.45 243.15 59.75 243.2 60.05 243.25 60.4 243.3 60.7 243.35 61.1 243.4 61.5 243.45 61.85 243.5 62.15 243.55 62.65 243.6 63.2 243.65 66.65 243.65 70.05 243.65 72.35 243.6 74.65 243.55 76.1 243.5 77.55 243.45 78.7 243.4 79.85 243.35 81.5 243.3 83.2 243.25
M 194.4 215
Q 195.8 211.8 198.95 211.55 203.55 212.55 202.75 217.3 202.6 218 202.45 218.7 201.25 224.7 199.8 230.9 199.2 233.55 196.5 233.15 193.9 231.5 193.75 227.95 193.65 225.65 193.3 223.35 192.7 218.95 194.4 215
M 184.8 217.2
Q 185.1 215.5 186.9 215 189.6 214.5 190.6 216.95 191.35 218.85 191.55 221 192.15 227.4 191.2 233.55 190.75 236.7 189 239.55 187 242.7 183.25 242.35 179.85 242.9 177.1 241.05 175.35 239.85 174 238.2 172.35 243.15 167.2 241.55 164.7 240.65 164.7 237.95 164.65 233.5 165.2 229.5 165.35 228.5 165.6 227.55 168.3 224.9 170.45 228.1 170.95 228.8 171.05 229.75 171.35 232.15 171.5 234.65
L 172.25 234.9
Q 171.4 227.75 177.6 224.35 180.8 222.65 184.2 223.8 184.4 223.95 184.7 224 184.25 220.7 184.8 217.2
M 171.45 220.6
Q 170.15 222.1 168.25 222.1 166.35 222.1 165 220.6 163.7 219.1 163.7 216.95 163.7 214.8 165 213.3 166.35 211.8 168.25 211.8 170.15 211.8 171.45 213.3 172.8 214.8 172.8 216.95 172.8 219.1 171.45 220.6
M 202.05 241.9
Q 200.75 243.2 198.95 243.2 197.15 243.2 195.85 241.9 194.55 240.6 194.55 238.75 194.55 236.9 195.85 235.6 197.15 234.3 198.95 234.3 200.75 234.3 202.05 235.6 203.35 236.9 203.35 238.75 203.35 240.6 202.05 241.9
M 180.5 229.85
Q 178.05 231.25 179.4 233.95 180.25 235.65 182.05 235.55 182.85 235.5 183.65 235.45 185 232.95 184.1 230.3
L 180.5 229.85
M 158.45 234.5
Q 158.45 233.55 157.8 232.9 157.15 232.25 156.25 232.25 155.35 232.25 154.7 232.9 154.05 233.55 154.05 234.5 154.05 235.45 154.7 236.1 155.35 236.75 156.25 236.75 157.15 236.75 157.8 236.1 158.45 235.45 158.45 234.5
M 162.75 158.05
Q 162.6986328125 157.646484375 162.5 157.15
L 161.85 155.8
Q 161.5564453125 155.2568359375 161.35 154.85 161.0537109375 154.8271484375 160.7 154.8 144.75 152.25 129.4 154.1 128.3818359375 154.2939453125 127.75 154 127.696484375 154.0345703125 127.65 154.05 127.15 154.2 126.3 153.9 122.155078125 152.971875 118.5 153 113.168359375 152.303125 106.75 152.5 100.326953125 152.69140625 96.15 154.05 92.020703125 155.4640625 91.95 155.45 91.6697265625 155.9548828125 91.6 156.35 91.5357421875 156.7673828125 91.65 157.15
L 91.65 157.15
Q 91.6736328125 157.1974609375 91.7 157.25 91.76015625 157.3703125 91.8 157.5 91.8365234375 157.5255859375 91.85 157.55 92.0314453125 157.96171875 92.2 158.4 92.7 158.4 93.2 158.4
L 97.6 158.4
Q 122.35 158.4 147.15 158.4 147.15 158.35 147.15 158.3 149.50234375 158.3 151.85 158.3
L 152.05 158.3
Q 157.42578125 158.3 162.8 158.3 162.8125 158.238671875 162.8 158.15 162.4380859375 158.1931640625 162.05 158.15 161.78671875 158.133984375 161.2 158 162.232421875 158.1876953125 162.75 158.05
M 174.5 78.85
Q 174.4 76.1 174.65 74.55 171.55 73.9 168.4 73.6 168.9 76.85 169.15 81.05 169.35 84.05 169.15 89.85 169.2 91.65 168.85 92.65 168.6 92.95 168.5 93.4 171.55 93.5 174.6 93.95 174.6 93.85 174.6 93.75 174.5 93.35 174.55 91.5 174.5 89.25 174.8 87.15 174.9 85.55 174.8 84.75 174.8 83.55 174.55 82.55 174.45 81.7 174.5 78.85 Z"/>

<path fill="#FFD5AA" stroke="none" d="
M 87.95 144.95
Q 87.75 145.5 87.25 147.95 86.95 149.45 86.4 150.3 87.2 151.05 87.9 151.8 89.5 149.4 92.85 147.4 94.15 146.55 95.2 146.5 95.9 146.5 96.45 146.85 97.05 147.25 97.15 147.85 97.35 148.8 96.4 149.75 95.9 150.25 94.75 151.15 94.6345703125 151.2744140625 94.5 151.45 97.99375 150.5376953125 101.85 150.3
L 102.3 149.6
Q 102.6 149.15 103 148.15
L 104 145.8
Q 104.65 144.4 105.05 143.05 105.3 141.95 105.45 141.4 105.6 140.9 105.75 140.5 104.8 140.5 103.85 140.55 103.7 140.5 103.6 140.5 101.6 140.35 99.55 140.35
L 94.15 140.2
Q 92.3 140.2 91.5 140.6 90.8 140.95 89.95 142 88.4 143.85 87.95 144.95
M 74.55 152.9
Q 70.4 152.9 68 153.35 64.85 153.95 59.05 156.65 57.95 157.25 57.65 157.75 57.5 157.95 57.45 158.3 57.45 158.35 57.4 158.45 57.25 159 57.2 159.9 57.1 160.25 56.75 160.95 56.4 161.65 56.3 161.95 55.8 163.5 57.2 166
L 58.2 167.7
Q 58.5 168.2 58.85 168.6 59.95 170.15 60.95 171 62.85 172.55 65.95 173.15 68.35 173.55 71.45 173.3 75.6 173.1 78.3 172 80.95 170.95 83.3 168.6 83.75 168.1 84.25 167.55 84.3 167.45 84.4 167.35 85.45 166.1 86.4 164.6 86 162.3 85.6 161.2 85.2 160.15 84.1 158.65 84 158.55 83.9 158.4 83.35 157.65 82.65 156.85 80.4 154.15 78.9 153.55 77.45 152.9 74.55 152.9
M 200.6 158.8
Q 200.55 158.7 200.5 158.65 199.85 157.8 199.05 156.85 196.8 154.15 195.3 153.55 193.85 152.9 190.95 152.9 186.8 152.9 184.4 153.35 181.25 153.95 175.45 156.65 174.35 157.25 174.05 157.75 173.9 157.95 173.85 158.3
L 173.85 158.35
Q 173.65 158.95 173.6 159.9 173.5 160.25 173.15 160.95 172.8 161.65 172.7 161.95 172.2 163.5 173.6 166
L 174.55 167.6 174.6 167.7
Q 174.9 168.2 175.25 168.6 176.35 170.15 177.35 171 179.25 172.55 182.35 173.15 184.75 173.55 187.85 173.3 192 173.1 194.7 172 197.35 170.9 199.65 168.6 200.25 168 200.8 167.35 200.9 167.25 200.95 167.15 201.9 166 202.8 164.6 202.4 162.3 202 161.2 201.6 160.2 200.6 158.8
M 167.15 141.85
Q 166.3 140.75 165.55 140.15 163.7 138.85 159.65 139.25 155.7 139.6 151.45 140.45 151.5 141.95 151.75 143.45 152.2 146.1 152.25 146.95 152.25 148.3 152.3 148.55
L 152.55 149.45 152.6 150.3
Q 152.821875 150.309765625 153.05 150.3 156.5193359375 150.3 159.25 150.8 158.4130859375 149.6298828125 158.3 148.8 158.2 147.95 158.7 147.2 159.2 146.45 160 146.45 160.95 146.4 162.1 147.85
L 164.45 150.75
Q 166.05 152.85 166.7 153.9 167.25 154.8 167.6 155.65 167.7 155.5 167.8 155.35 169.2 153.5 171.45 151.8 171.8 151.55 172.15 151.3 171.9 150.8 171.7 150.2 170.1 145.8 167.15 141.85
M 168.1 120.15
Q 166.7 120 165.3 119.8 157.35 118.55 152.2 115.5 147.05 112.45 144.1 107.2 142.95 105.2 142.35 102.85 142 102.85 141.6 102.8 136.45 102.45 129 101 126.85 100.55 125.8 100.25 124.6 99.9 121.75 98.7
L 119.3 97.65
Q 118.25 97.25 117.5 96.75 117.25 102.85 114.9 107.2 112 112.45 106.9 115.5 101.75 118.55 93.8 119.8 90.25 120.25 87.1 120.45 86.9 121.5 86.05 122.55 85.95 122.65 85.9 122.8 86.1 123.15 86.25 123.55 86.5 124.2 86.6 125.2 91.85 128.35 94.9 129.7 97.95 131.05 102.3 132.3 106.6 133.55 112.15 134.25 116.5 134.75 120 135.2
L 120.1 138
Q 120.15 139.45 120.2 140.7 120.65 141.5 120.25 142.35
L 120.25 142.4
Q 114.4 140.95 109.25 140.6
L 109.3 140.9
Q 109.5 141.8 109.5 142.25 109.55 142.85 109.35 144.05
L 108.7 147.4 108.45 148.1 108.35 149.05
Q 108.3126953125 149.4607421875 108.1 150.35 108.49140625 150.370703125 108.85 150.4
L 126.15 152.15 126.15 152.1
Q 126.05 151.3 126.5 150.75 126.95 150.15 127.75 150.05 128.55 149.95 129.1 150.45 129.55 150.85 129.7 151.55 129.74140625 151.7158203125 129.75 151.85 130.322265625 151.75234375 131.15 151.55 133.9 150.85 137.7 150.7 139.95 150.6 144.35 150.6 145.021875 150.5884765625 145.85 150.55 145.847265625 149.974609375 145.8 149.55
L 145.55 148.2
Q 145.4 146.1 145.3 145.05
L 145.15 143.4
Q 145.05 142.5 144.95 141.85 143.9 142.1 142.85 142.4 140.95 142.95 140.25 142.1 139.75 141.5 140 140.8 139.95 140.45 139.95 139.65 140.05 138.25 140 137.55 139.95 137.05 140 136.65 139.95 136 139.85 135.35 139.9 135.35 140 135.35 146.9 134.6 151.9 133.5 156.9 132.4 157.8 132.1 158.65 131.8 162.1 130.85 165.55 129.85 168.75 127.8
L 167.7 124.25
Q 167.3 121.35 168.05 120.2
L 168.1 120.15
M 133.5 130.2
Q 132.7 130.1 131.8 129.25
L 130.8 128.45 130.25 128.1
Q 130.15 128.2 130.05 128.3 128.75 129.4 128.35 129.6 127.3 130.25 126.55 130 125.65 129.75 125.55 128.75 125.5 127.6 126.5 127.05 127.45 126.45 128.3 126.3 129.15 126.1 129.65 126.05 130.1 125.95 131.3 126.1 132.45 126.2 133.65 126.7 134.8 127.2 135.2 127.8 135.5 128.25 135.45 128.85 135.35 129.45 134.95 129.8 134.4 130.35 133.5 130.2 Z"/>

<path fill="#FFFFCC" stroke="none" d="
M 66.85 100.6
Q 67.25 100.3 65.05 100.8 64.9 100.75 64.9 100.85 64.9 100.9 64.9 100.95 64.1 101 63.5 101.05 63.1 101.15 62.7 101.4 61.25 101.75 60.6 102.1 58.3 102.9 57.35 105.05 56.35 107.45 57.55 109.45 58.95 112.25 63.5 112.65 64.8 112.85 65.1 112.85 65.95 113 66.4 113.5 66.65 114 67.05 114.9 67.2 115.4 67.35 116.5 67.85 118.6 69.95 120.05 71.8 121.25 74.25 121.45 79.1 121.85 83.35 119 83.9 118.4 84.4 118.35 85 118 85.55 118.05 85.85 118.05 86.15 118.25
L 86.15 118.1
Q 87.4 118 88.8 117.85 100.4 116.5 104.95 112.15 109.4 107.8 110.65 105.8 111.15 104.9 111.6 103.8 108.35 107.15 103.75 108.35 101.05 109.05 97.55 108.9 95.1 108.8 91.25 108.25 87.6 107.65 86.35 107.05 85.05 106.45 82.5 104.5 79.9 102.55 78.75 100.9 77.55 99.2 77.45 98.8 66.35 100.75 66.85 100.6
M 201.55 109.45
Q 202.6 107.45 201.65 105.05 200.75 102.95 198.4 102.05 197.65 101.65 196.3 101.4 195.95 101.15 195.6 101.05 194.9 101 194.2 100.95 194.2 100.9 194.2 100.85 194.05 100.75 194.05 100.8 191.75 100.3 192.2 100.6 192.65 100.75 183.35 99.15 182.35 101.3 180.5 103.25 176.75 107.15 171.8 109.05 166.7 111.05 161.5 110.5 156.2 109.95 151.65 106.85 149 105.05 147.1 102.7 147.65 104.4 148.45 105.8 149.6 107.8 154.15 112.15 158.5 116.5 170.25 117.85 171.6 118 172.95 118.1
L 172.95 118.25
Q 173.25 118.05 173.55 118.05 174 118 174.65 118.35 175 118.4 175.75 119 179.9 121.85 184.8 121.45 187.1 121.25 189.15 120.05 191.15 118.6 191.75 116.5 191.9 115.35 192.05 114.95 192.1 113.95 192.7 113.5 193.15 113 194 112.85 194.2 112.85 195.6 112.6 200 112.25 201.55 109.45 Z"/>

<path fill="#4D647D" stroke="none" d="
M 113.3 95.95
Q 111.65 95.65 106.4 95.4 97.6 94.9 82 98 79.5 98.45 77.45 98.8 77.55 99.2 78.75 100.9 79.9 102.55 82.5 104.5 85.05 106.45 86.35 107.05 87.6 107.65 91.25 108.25 95.1 108.8 97.55 108.9 101.05 109.05 103.75 108.35 108.35 107.15 111.6 103.8 112.8 100.6 113.3 95.95
M 171.8 109.05
Q 176.75 107.15 180.5 103.25 182.35 101.3 183.35 99.15 180.65 98.65 177.1 98 161.5 94.9 152.7 95.4 147.6 95.65 145.9 95.9 145.9 96.3 145.95 96.7 146.25 100 147.1 102.7 149 105.05 151.65 106.85 156.2 109.95 161.5 110.5 166.7 111.05 171.8 109.05 Z"/>

<path fill="#260630" stroke="none" d="
M 187.75 41.15
Q 185.4 38.65 183.9 36.9 174.75 29.15 159.15 24.15 156.75 23.45 155.5 23.6 154.75 26.6 154.9 29.7 155 31.85 154.55 32.6 154.15 33.3 153.3 33.6 152.45 33.9 151.7 33.55 151 33.25 150.5 32.45 150.1 32.4 149.65 32.25 147.15 31.55 143.95 29.9 140.35 27.9 138.5 26.95 129.3 22.15 119.55 20.55 109.15 18.85 99.65 21.05 95.15 22.1 88.25 24.85 82.2 27.25 78.2 29.25 59.5 38.7 45.8 56.9 42.4 61.3 40.35 65.4 35.7 74.65 36.35 85.4 36.95 96.2 42.65 104.8 44.45 107.6 44.75 108.65 45.05 109.8 44.8 110.9 44.5 112.05 43.7 112.7 43.2 113.15 42.55 113.25 42 113.55 41.3 113.85
L 34.65 116.55
Q 34.9 116.85 35.15 117.2 34.75 117.45 34.5 117.85 34.55 118.1 34.65 118.4 35.05 119.8 36 121.65 36.75 123 39.1 125.9 42.8 130.55 45.35 133.25 47.1 135.15 47.35 135.45 48.45 136.75 48.85 137.95 49 138.35 49.05 138.7 49.2 139.15 49.2 139.85
L 49.15 142.35
Q 49.15 143.85 49.5 144.8 49.7 145.35 50.15 146 52.15 149 56.45 150.8 60.3 148.25 65 147 70.4 145.55 76.1 145.95 78.4 146.05 80.25 146.6 80.65 142.3 84.65 137.7 86.8 135.25 88.8 134.55 89.9 134.15 91.85 134.2 85.35 133 84.45 133 84.35 133.2 84.25 133.4 83.7 134.6 83.15 135.25
L 81.7 136.65
Q 81.35 137.05 80.75 137.85 80.6 138 79.4 138.8
L 74.8 141.3
Q 73.2 142.1 72.25 142.1 71.55 142.1 70.95 141.75 70.3 141.35 70.1 140.75 69.75 139.85 70.45 139.15 70.85 138.7 71.95 138.3 73.95 137.45 76.6 135.4 77.7 134.6 78.15 133.9 78.55 133.4 78.85 132.3
L 80.2 128.3
Q 80.55 127.25 80.55 126.6 80.5 126.6 80.45 126.6 78.95 127.2 76.45 127.2 73.6 127.2 71.75 126.8 68.8 126.2 66.6 124.2 64.25 122.2 63.25 119.4 62.85 118.5 62.65 118.2 62.1 117.65 60.9 117.45 57.3 116.45 55.05 115 52.15 112.8 51.25 109.95 50.7 108.55 50.7 107.1 50.55 104.75 50.95 103.55 51.65 100.3 54.35 98.25 56.25 96.6 58.7 96.15 59.35 90.05 62.2 84.55 66 77.3 72.6 73 73.55 72.35 74.6 71.8 74.45 71.5 74.3 71.2 72.9 58.2 80.05 50.35 77.15 58.6 77 60.65 76.85 62.65 77.3 64.8 77.75 66.9 78.05 67.7 78.7 69.1 79.2 69.9 84.95 68.05 91.25 67.65 98.9 67.15 103.3 69.6 107.55 71.9 109.6 74.15 111.6 76.25 114.35 81.1 117.05 85.8 117.5 93.85 120.1 94.5 122.75 95.65
L 125.6 96.85 128.55 97.6
Q 136.75 99.3 141.65 99.15 141.4 96.7 141.6 93.9 141.9 85.8 144.75 81.1 147.5 76.25 149.4 74.15 151.5 71.9 155.8 69.65 160.05 67.15 167.85 67.65 174.05 68.05 180.4 70.05 183.5 71.05 186.4 73 193.2 77.3 196.8 84.55 199.7 90.05 200.4 96.15 202.6 96.6 204.75 98.25 207.45 100.3 208.1 103.55 208.45 104.85 208.35 107.15 208.1 108.55 207.85 109.95 206.85 112.85 204.05 114.95 201.65 116.5 198.2 117.45 196.85 117.65 196.45 118.2 196.15 118.4 195.85 119.4 194.75 122.2 192.45 124.2 190.2 126.2 187.35 126.8 185.4 127.15 182.65 127.25 180.15 127.15 178.65 126.6 175.8 125.7 173.85 123.6 174.4 126.5 175.4 129.2 175.75 130.3 176.25 131 176.85 131.8 178.35 132.8 183.4 136.15 186.95 136.65 188.75 136.85 189.35 137.3 190.05 137.8 190.15 138.8 190.25 139.7 189.7 140.4 188.95 141.15 187.8 141.25 186.95 141.3 185.7 140.95 180.15 139.55 173.85 134.35
L 171.9 132.6
Q 171.75 132.45 171.6 132.3 170.9 132.65 163.85 133.9 167.25 134.15 169.3 135.65 170.65 136.55 172.1 138.6 175.5 143.15 177.5 148.2 177.5 148.25 177.55 148.3 179.4 147.55 181.4 147 186.8 145.55 192.5 145.95 194 146 195.25 146.25 195.3 146.2 195.35 146.15 195.8 145.55 197.9 143.9 201.05 141.55 201.65 138.65 201.85 137.5 202.05 137.05 201.85 136.7 201.75 136.3 201.75 136.2 201.75 136.1 202.4 135.7 203.05 135.4
L 203.55 134.35
Q 204 133.75 205 133.05
L 206.25 132.2 206.45 132 206.55 131.95
Q 206.95 131.65 207.4 131.35 211.55 128.65 215.5 123.8 218.45 120.2 220.05 117.25 221.15 115.15 221.4 113.55 221.5 112.7 221.6 112.3 220.75 111.9 219.55 111.65 217.65 111.35 216.75 111.1 213.15 110.3 212.4 107.95 211.85 106.1 213.5 102.95 216.25 97.6 217.55 93.95 219.35 88.8 219.4 84.35 219.45 75.25 212.95 66.9 208.1 60.55 198.75 54.5 197.05 53.4 196.5 52.55 196.25 52.2 196.1 51.8 195.55 51.5 195.05 51 194.55 50.5 193.25 48.15 191.7 45.35 187.75 41.15
M 223.5 19.6
Q 223.15 19.55 222.85 19.4 221.7 18.8 221.35 17.15
L 221.05 14.45
Q 220.7 12.1 219.1 10.2 217.55 8.3 215.3 7.4 213.1 6.55 210.65 6.75 208.25 6.9 206.1 8 202.1 10 200.35 14.25 199.35 16.75 199.3 20.05 199.25 22.35 199.75 26 200.15 28.8 200.5 30.05 201.1 32.45 202.4 35.4 203.15 37.1 204.8 40.5 205 40.85 205.15 41.2 205.25 41.15 205.4 41.1 206.3 40.85 208.15 40.85 210.8 40.95 213.35 41.3 215.45 41.6 219.55 42.35 223.25 42.95 225.8 42.9 228.7 42.85 231.9 41.95 235.3 40.95 237.2 39.5 238.8 38.25 239.75 36.4 240.75 34.55 240.9 32.55 241.1 30.55 240.4 28.55 239.7 26.55 238.35 25.05 234.7 21.15 226.7 20.85 224.15 20.85 223.5 19.65
L 223.5 19.6 Z"/>
</g>
</defs>

<g transform="matrix( 1, 0, 0, 1, 19.8,17.45) ">
<g transform="matrix( 1, 0, 0, 1, 0,0) ">
<use xlink:href="#betty_0_Layer1_0_FILL"/>
</g>

<g transform="matrix( 1, 0, 0, 1, 0,0) ">
<use xlink:href="#betty_0_Layer0_0_FILL"/>
</g>
</g>
</svg>
