
<svg xmlns="http://www.w3.org/2000/svg" version="1.1" xmlns:xlink="http://www.w3.org/1999/xlink" preserveAspectRatio="none" x="0px" y="0px" width="150px" height="150px" viewBox="0 0 150 150">
<defs>
<g id="Layer0_0_FILL">
<path fill="#FFFFFF" stroke="none" d="
M 131.15 20.05
Q 131.15 17.55 128.95 16 124.85 13.15 120.45 13.75 120.2 14.2 120.1 14.7 120.05 15.2 120.25 15.65 121.45 18.05 123.75 19.55 118.3 17.65 112.7 15.5 103.85 12.2 94.45 10.85 84.25 9.65 74.2 11.45 71.6 11.75 69.25 12.7 63.6 15 58.05 13.5 59.75 11.4 61.9 10.1 64.2 8.75 64 6.7 63.2 6.3 62.4 6.75 58.55 9.25 56.25 12.95
L 52.5 11.6 55.4 14.3 53.9 17.15
Q 52.5 12.65 47.9 12.05 46.65 12.2 45.55 12.7 32.85 18.4 24.7 29.9
L 17.4 41.25
Q 10.75 44 6.6 49.95 -2.35 62.65 4.05 77.05
L 3.1 78.55 -1.3 75.85 1.4 80.8 -4.65 86.8
Q -4.4 86.8 -4.15 86.65 -3 86.5 -2 86.15 -0.4 85.6 0.8 84.8 2.2 83.85 3.3 82.4
L 6.5 84.55
Q 5.7 84.75 4.9 85 2.85 85.3 1.7 86.8 -1.9 91.5 -0.15 97.2 3.3 108.25 12.8 114.9 11.65 115.7 10.8 116.75 9.25 118.7 8.65 120.8 7.9 123.25 7.8 125.7 8.45 125.5 9 123.75 9.5 122.25 10.05 120.75 11.1 117.85 13.9 116.75 13.05 121.6 14.4 126.1 14.5 126.5 14.8 126.85 20.418359375 132.1826171875 27.95 130.55 26.7875 132.4625 26.45 133.7 25.7 136.65 27.1 140.1 27.95 142.25 30.3 145.75
L 33.65 150.75
Q 35.25 153.5 36 156.55 36.0546875 156.78359375 36.1 157 36.1392578125 157.209765625 36.2 157.4 36.628515625 159.02734375 36.95 159.55 37.461328125 160.3759765625 38.4 161.15 38.4814453125 161.3470703125 38.5 161.55 42.25 167.25 45.6 170.5 47.55 172.45 50.15 173.6 54.15 175.4 61.15 175.6 64.9 175.75 68 175.35 71.6 174.85 77.8 172.65 79.1736328125 172.1921875 80 171.55 80.384375 172.06171875 80.85 172.5 81.6 173.2 82.6 173.85 85.75 175.9 88.75 176.4 89.65 176.55 91.25 176.65 92.5470703125 176.74609375 93.35 176.5 99.559375 177.1142578125 104.65 174.45 107.4 172.95 109.35 170.55 111.35 168.05 112.05 165.15 112.9 161.6 111.7 157.85 111.5458984375 157.367578125 111.35 156.9 111.682421875 156.851171875 112 156.8 117.25 155.95 116.45 151.15 116.95 151.4 117.5 151.45 123 152.65 128.45 150.45 133.45 148.35 136.2 143.85 137.35 141.9 138 139.95 142.15 126.95 134.1 115.6 135.45 115.05 136.7 114.35 143 111.1 146.95 105.05 148.75 102.4 148.8 99.15 148.85 97.6 148.2 96.25 145.95 91.65 140.4 89.95
L 144.15 88.25
Q 144.35 88.95 144.65 89.6 145.3 91.05 146.65 91.6 148.55 92.25 150.75 92.85 151.1 92.9 151.2 92.4 151.15 92.3 151.1 92.25 150.95 92.05 150.7 91.9 150.55 91.75 150.35 91.65 149.5 91.3 148.75 90.85 148.15 90.6 147.75 90.15 146.65 89.1 146.45 87.75
L 156.45 87.1
Q 156.55 86.6 155.9 86.55 154.25 86.1 152.5 86.1 149.4 86.05 146.25 86.45 146.2 85.9 146.2 85.4 146.1 83.3 146.9 81.6 154.25 66.25 148.4 49.8 142.05 32.05 126.4 22.15 127.3 22.2 128.1 22.5 132.05 24.2 136.35 25.7 137.05 26 136.9 25.35
L 131.15 20.05
M 127.9 18.75
L 128.05 18.95
Q 125.1 17.9 123.3 15.95
L 127.6 18.45
Q 127.75 18.55 127.9 18.75
M 104.25 55.1
L 110.3 55.1 110.3 62.45 104.25 62.45 104.25 55.1
M 120.65 86.15
Q 117.75 86.5 116.2 84.1
L 107.55 86.5
Q 97.3 87.15 91.85 78.95 96 82.9 101.65 81.95 104.85 81.5 107.5 79.6 114.5 74.3 115.35 65.55 120.6 66 125.8 65.85 128.8 65.8 130.65 67.8 131.2 69.4 130.95 70.9 130.85 71.65 130.5 72.25 128.25 76 124.95 79
L 125.15 84.7
Q 123.25 86.2 120.65 86.15
M 55.95 16.7
L 56.4 16
Q 56.55 15.8 56.75 15.65 57.8 15.75 58.85 15.85
L 55.95 16.7
M 29.5 74.15
Q 23.8 70.45 26.05 64.45
L 31.5 63.05
Q 29.75 68.45 32.05 73.85 32.9 75.8 34.4 77.15 41.6 83.8 50 78.1 58.3 72.5 57 62.7
L 65 64.05
Q 67.1 70.1 64.5 75.95 63.75 77.65 62.3 78.8 52.95 86.4 41.75 82
L 40.1 81.2
Q 39.4 82.3 38.05 82.7 34.45 83.95 31.4 81.6 30.5 80.85 30.95 79.95 32.8 76.3 29.5 74.15
M 52.05 52.2
L 52.05 59.5 46.05 59.5 46.05 52.2 52.05 52.2
M 105.55 114.4
L 103.05 114.95 96.95 112.5 95.8 112.25 105.05 109.7 105.55 114.4
M 103.65 120.1
L 102.15 119.45 106.95 119.05 106.9 121.05 103.65 120.1
M 97.75 117.45
L 96.3 117.1 93.25 115.5 98.25 116.8 97.75 117.45
M 144.15 86.85
L 142.05 87.85 144.35 84.35 144.15 86.85
M 7.2 82.25
L 5 80.05 5.5 79.35 7.2 82.25
M 100.75 17.6
Q 104.75 18.35 108.75 19.35 125.9 23.5 136.1 37.6 140.05 43.05 142.05 49.55 147.1 66.15 139.75 81.65 139.15 82.85 138.35 83.95 135.75 87.4 135.65 91.4
L 143.9 97.05
Q 144.3 97.8 144 98.8 141.85390625 105.3056640625 136.6 108.55 136.712109375 108.305078125 136.8 108.05 138.1 104.3 136.85 100.7 136 98.15 134.1 96.25 132.1 94.35 129.6 93.7 128 93.25 125.6 93.35 124.7248046875 93.3822265625 123.85 93.45
L 125.6 88.9
Q 126.45 88.3 127.15 87.55 129.85 84.85 129.3 81.05 135.95 76.05 135.35 67.75 135.25 66.5 134.5 65.75 130.6 61.75 124.55 62.55 120 55.95 112.15 53.55 103.85 51.05 96.45 55.5 86.45 61.6 86.6 73.25
L 69.25 64.7
Q 67.8 59.05 63.55 55 56.95 48.9 47.8 49.85 41.45 50.85 36.5 55.05 33.65 57.5 31.25 59.6 26.7 59.5 22.65 61.5 21.95 61.8 21.75 62.5 19.2 72.05 27.15 78.3 26.4 84.5 32.25 86.4 37.2 88 41.6 85.95
L 46.05 86.75
Q 46.45 86.75 46.85 86.9 46.95 87 47.05 87.2 49.7 92.95 49.35 99.45 49.2 101.75 49.3 104.1 49.45 106.85 47.7 107.1 37.75 106.1 32.05 114.7 32.3 111.45 32.35 108.25 32.4 105.95 32.55 103.7 32.75 99.85 30.4 98.2 28.9 106.7 27.85 115.75 27.2 121.2 29.1 125.05 27.85 125.4 26.6 125.5 22.15 126.05 19.35 123.05 19.1 119.8 18.75 116.4 18.35 112.9 15.45 111.5 11.5 109.75 9.6 105.8 8.55 103.65 7.2 101.8 4.45 98 4.8 93.25 4.85 92.2 5.45 91.5 8.4 87.9 13.2 88.9
L 15.35 87.8
Q 15.5 87.35 15.55 86.9 15.65 86.35 15.4 86.05 10.95 79.2 8.3 71.6 7.3 68.7 7.35 65.7 7.55 51.75 19.95 45.05 21.9 40.25 24.85 35.85 33.4 23.25 47.45 17.1 48.5 18.8 49.75 20 51.05 21.2 52.9 21.5 61.3 18.9 70.15 17.3 85.45 14.25 100.75 17.6
M 118.85 94.5
Q 116.0845703125 95.38359375 113.7 96.95 111 98.75 109.15 101.3 107.952734375 102.9271484375 107.2 104.65 94.319921875 109.7830078125 80.75 108.5
L 79.85 109.6
Q 79.3 113.25 82.45 114.5 84.2 115.3 86.25 115.15
L 94 124.35
Q 93.3 125.65 89.25 125.55 79.55 124.95 69.8 123.6
L 60.95 110.75 60.3 107.8 52.95 104.05
Q 52.55 101.6 52.75 97.9 53.05 92.1 50.5 86.75
L 59.95 84.5
Q 69.05 80.3 69.65 70.3 69.7 69.25 69.7 68.2 77.3 74.6 87.15 76.55 90.5 87.3 101.9 89.3 108.3 90.6 114.75 88.85
L 120.75 89.95
Q 120.0634765625 92.4544921875 118.85 94.5
M 129.55 100.15
Q 130.4498046875 100.8474609375 131.05 102.3 131.652734375 103.8091796875 131.45 107.75 131.2921875 111.6849609375 125.4 114.55 126.5822265625 116.652734375 127.75 118.75 129.269140625 121.4296875 130.75 124.1 135.35 132.4 131.95 141.35 130.85 142.25 129.7 143.05 125.5 145.85 120.3 146.05 120.3 145.95 120.3 145.9 124.2 137.25 119.8 129
L 111.35 121.9 112.8 115
Q 111.9455078125 114.13359375 111.45 113.25 111.47109375 110.4654296875 111.9 108.75 112.95 104.4 117.2 101.75 120.95 99.45 125.8 99.35 128.3 99.25 129.55 100.15
M 79.9 145.15
Q 72.582421875 146.12734375 66.55 147.95
L 63.1 128.3
Q 75.25 126.1 87.5 128.45 91.15 129.3 94.7 128.55 105.25 126.1 115.35 129.9 117.2 132.5 117.45 135.9 117.8 139.95 115.9 143.45 114 146.95 112.45 150.35 110.59375 151.53125 108.45 152.05 108.191015625 151.757421875 107.9 151.45 103 146.35 94.75 145 88.9 144.05 79.9 145.15
M 77.9 166.6
Q 77.919921875 166.7736328125 77.95 166.95 76.9671875 167.144921875 75.6 167.8 68.2 171.2 57.15 169.85 54.047265625 169.4447265625 51.8 168.5 49.605078125 167.5609375 47.15 165.5 44.69765625 163.4927734375 43.8 159.75 50.830859375 156.6724609375 55.75 154.85 57.2376953125 155.1525390625 59 154.8 60.1 154.6 62.6 153.8 73.2 150.5 84.1 149.95 87.614453125 149.76875 90.45 150.05 93.94921875 149.5998046875 96.95 150.1 98.95 150.35 101.25 151.3 104.45 152.65 105.7 154.8 107.15 157.25 106.4 161.2 106.05 163.1 105.4 164.5 104.7 165.8 102.6 167.9 100.4 170.1 99 170.8 96.9 171.95 93.55 171.95 91.544921875 171.95 89.75 171.55 88.9615234375 171.18515625 87.55 170.15 85.55 168.65 84.7 167.6 83.8 166.55 83.35 165.25 82.75 163.7 82.55 163.45 82 162.65 80.95 162.5 79.95 162.35 79.15 162.9 77.6 164 77.9 166.6
M 53.65 112.35
Q 54.65 112.85 55.3 113.8 58.55 118.6 60.8 124.4 47.5 120.85 34.4 125.7 34.4 124.65 34.45 123.65 34.6 121.55 35.35 119.8 39.1 111.2 48.05 112.2
L 53.65 112.35
M 45.1 127.4
Q 52.4 125.3 59.2 128.1 60.95 128.75 61.3 130.4 62.75 137.2 64.55 143.85 65.45 147.15 64.45 147.95
L 41.05 154.3
Q 40.5591796875 153.6556640625 40.15 152.95 39.23671875 152.4240234375 38.35 150.7
L 35.2 144.85
Q 34.3 143.25 34.1 143.05 33.95 142.85 32.1 140.75 30.9 139.35 30.6 138.2 30.4 137.5 30.5 136.05 30.5 135 30.75 134.35 31.35 132.4 34.1 130.85 35.3099609375 130.102734375 36.25 130
L 36.35 129.95
Q 40.7 128.65 45.1 127.4
M 76.8 104.35
L 78 106 81.85 105.3 82.7 105.85 83.95 105.35 83.55 102.7 81.25 101.7
Q 77.7 101.05 76.8 104.35
M 100.35 43.35
L 99.55 42.55 97.35 39.7
Q 95.6 42.05 97.85 44.55 100.7 47.75 103.3 45.45
L 103 43.9 100.35 43.35
M 10.9 4.4
Q 9.55 3.85 7.9 4.1 -2.1 6.25 -1.95 16.9 -7.15 19.05 -10.2 23.6 -13.15 27.95 -10.45 32.35 -8.65 35.4 -5.4 36.6 5.45 40.7 15.85 35.4 21.3 26.45 19.85 15.95 18.65 7.5 10.9 4.4
M 4.85 12.2
Q 6.15 9.6 8.95 10 12.05 10.65 13.4 13.4 17.1 20.8 14.75 29.4 14.35 30.75 13.25 31.3 8.55 33.55 3.2 33.65 -1.65 33.9 -5.45 30.75 -7.9 28.7 -5.9 26.15 -2.5 21.7 3.35 20.65
L 3.9 17.2
Q 3.65 14.55 4.85 12.2 Z"/>
</g>
</defs>

<g transform="matrix( 1, 0, 0, 1, 0,0) ">
<use xlink:href="#Layer0_0_FILL"/>
</g>
</svg>
