
<svg xmlns="http://www.w3.org/2000/svg" version="1.1" xmlns:xlink="http://www.w3.org/1999/xlink" preserveAspectRatio="none" x="0px" y="0px" width="300px" height="300px" viewBox="0 0 300 300">
<defs>
<g id="melissa_0_Layer2_0_FILL">
<path fill="#660033" stroke="none" d="
M 210.75 198.45
Q 208.7642578125 198.141796875 207.6 198.5 206.6 198.8 205.3 199.75 203.3 201.2 203.1 201.35 200.2 203.15 195.8 202.8 195.3244140625 202.7697265625 194.7 202.7 195.381640625 203.594140625 195.75 204.9 195.951953125 205.6787109375 196.05 206.75 199.7857421875 205.233984375 203.4 203.45 204.508203125 201.941796875 205.35 201.1 207.552734375 198.9890625 210.75 198.45
M 132.05 200.8
Q 136.05 201.2 144 202 147.8 202.2 152.7 201.85 154.75 201.7 161.4 201 172.027734375 199.946875 180.15 199.9 173.8341796875 198.9626953125 166.55 198.6 159.3 198.25 144.75 198.4
L 108.6 198.75
Q 110.4 201.05 111.25 202.4 112.5 204.55 112.85 206.5 113.3 208.8 112.25 210.95 111.7830078125 211.95078125 111.1 212.6 114.66796875 213.23125 118.25 213.7 119.1208984375 212.1365234375 120.15 210.65 117.7 210.55 116.15 208.95 115.4 208.15 115.1 207.05 114.85 205.9 115.2 204.85 116.05 202.25 120.3 201.25 124.95 200.15 132.05 200.8
M 155.4 169.15
Q 156.25 165.6 156.35 163.85 149.1296875 165.3580078125 140 165.65 141.6609375 166.5794921875 143.25 167.65 144.75 168.65 147.65 170.75 150.25 172.5 152.35 173.3 152.65 173.4 155.8 174.3 156.423046875 174.46328125 156.95 174.65 156.7212890625 174.44140625 156.5 174.2 154.9 172.5 155.4 169.15
M 267.4 91.95
Q 265.6 75.8 257.25 61.95 251.95 53.15 243.8 46.55 231.65 36.85 216.95 31.3 216.95 30.45 216.85 29.7 216.65 28.5 216.1 27.5 210.25 16.95 200.65 9.05 197.65 6.55 194 7.9 193.15 8.15 192.8 8.85 191.2 11.85 188.1 11.2 183 11.45 178.2 10.3 154.2 4.75 129.65 4.85 107.95 4.9 87.9 13.7 82.45 16 77.9 19.55 74.2 22.55 69.9 24.7 51.95 33.7 37.7 47.75 35.75 46.15 33.2 45.8 28.75 45.8 27.45 50.05 26.2 54.2 27.9 58.2 21.95 65.35 17.15 73.5 3.9 96.05 6.1 122.15 8.1 146.4 21.85 166.6 20.2 166.85 18.7 167.25 15.8 168 14.3 170.55 13.55 171.85 13.5 173.3 13.25 178.25 17.05 181.55 31.35 193.75 49.65 196.4 51 196.7 52.1 197.6 54.15 199.35 56.5 200.45 61 202.4 64.1 199.05 68.2091796875 200.7509765625 72.35 202.25 76.4580078125 201.402734375 79.7 201.75 81.101171875 201.89375 83.45 202.5 80.694921875 199.2751953125 79.35 197.2 76.5 192.8 76.1 188.65 75.75 184.95 77.45 182.55 78.4 181.2 79.9 180.55 81.5 179.9 83 180.35 84.75 180.9 86 182.9 86.7 184 87.75 186.75 89.75 192.25 93.2 192.25 95.8 192.25 97.95 188.95 98.95 187.2 99.45 186.3 100.35 184.8 101.3 183.95 103.55 182 108.4 181.7 114.9 181.3 121.1 182.65 124.5 183.35 125.15 183.45 127.45 183.75 129.15 183.25 131.35 182.6 132.8 180.7 134.25 178.75 134.3 176.45 129.3 178.55 121.45 177 112.75 175.35 104.7 171.15 99.35 168.25 98.95 164.9 98.844921875 163.9802734375 99.05 163.05 98.3169921875 162.20390625 98 160.8 97.8 159.8 97.75 157.9 97.75 153.9 98.7 152.2 100.05 149.9 104.6 148.2 109.85 146.25 110.8 145.85 114.3 144.45 116.85 143.05 122.6767578125 139.7939453125 125.5 135.5 124.756640625 136.3203125 123.9 137.1 120.6 140.2 113.95 143.55 102 149.5 92 150.65 86 151.3 80.45 150.35 74.45 149.25 69.65 146.4 66.1 144.25 62.5 140.65 56.8 134.95 56.35 129.7 56.4 127 56.4 125.7 56.4 123.25 56.65 122.55 57.25 120.8 60.05 119 70.6 112.15 80.95 109.7 84.65 108.85 89.45 108.25 104 106.3 118.65 106 122.7875 105.9109375 124.85 107.05 124.419921875 106.7080078125 124.05 106.25 123.15 104.75 122.45 104.25 122.2 104.05 120.35 103.4 119 102.85 118.15 101.6 117.3 100.35 117.3 98.9 117.25 97.45 118.1 96.15 118.9 94.9 120.2 94.3 121.05 93.9 122.6 93.7 124.6 93.5 125.1 93.35 126.05 93.1 128.95 91.75 131.3 90.65 132.85 90.7 134.15 90.7 135.4 91.35 136.6 92.05 137.3 93.15 138 94.25 138.1 95.65 138.2 97.05 137.65 98.25 137.2 99.2 136.05 100.4 134.45 102.15 134.25 102.4 132.95 104.25 132.3 105.15 131.15 106.8 129.95 107.45 128.55 108.25 126.8 107.9 126.03984375 107.7435546875 125.4 107.4 126.866015625 108.544140625 127.65 110.7 128.15 111.95 128.7 114.9 128.765625 115.2509765625 128.8 115.55 129.2474609375 113.884375 130.35 112.9 131.25 112.05 132.85 111.65 132.95 111.6 135.7 111.1 139.45 110.45 145.7 107.8 152.6 104.85 155.65 104.1 159.3 103.1 161.2 104.45 164 106.55 162.25 113.15 159.8 122.45 161.6 128.1 163.7 134.7 171.05 138.95 175.85 141.7 184.95 143.8 187 144.25 187.9 144.6 189.45 145.2 190.35 146.2 191.35 147.3 191.85 149.3 192.15 150.5 192.6 152.85 193 154.35 194.05 157.3 194.75 159.9 194.15 161.65 193.4 163.6 191.1 164.9 189.55 165.7 186.55 166.55 176 169.45 165.95 174 162.7 175.45 161.15 175.65 160.0482421875 175.778515625 159.1 175.6 160.706640625 176.56640625 161.4 178.3 162.2 180.15 161.3 181.6 164.55 182.6 169.1 181.15 171.7 180.3 176.85 178.1 182.05 176.2 192.15 175.55 203.05 174.9 207.65 173.6 212.5 172.25 214.1 172.05 217.75 171.65 219.9 173.45 222 175.2 222.35 179.05 222.6 181.25 222.55 185.8 222.6 186.7 223.1 189.6 223.5 191.95 223.45 193.4 223.401171875 195.3994140625 222.6 197.05 224.8349609375 197.618359375 226.85 198.75 233.1 202.15 240.1 199.85 246.35 197.9 252.05 194.9 256.7 192.4 262 191.5 266.9 191 268.4 186.6 268.95 185 268.3 183.6 266 178.7 260.25 179.25 255.85 179.95 251.4 179.4 261.7 174.75 266.85 164.6 271.7 155.1 269.3 144.85 268.05 139.6 263.65 137
L 265.85 129.45
Q 267.4 128.45 269.35 128 273.5 127.05 275.55 123.25 277.45 119.65 274.75 116.5 272.25 113.5 268.25 114.3
L 268.45 102.9
Q 268 97.4 267.4 91.95
M 221.45 104.75
Q 225.4 105.1 227.9 106.05 231.3 107.3 232.85 109.75 234.35 112.1 234.25 115.95 234.1 121.35 231.1 126.45 228.25 131.2 223.6 134.65 215.65 140.45 202.85 142.2 196.6 143.05 190.55 142.9 179.75 142.65 173.55 138.65 169.4 136.05 166.8 131.7 164.2 127.35 163.8 122.45 163.75 121.75 163.75 118.7 163.75 116.4 163.5 114.95 163.2 113.65 163.1 113 162.95 111.9 163.15 111.05 163.7 108.25 168.25 106.75 173.2 105.05 179.65 104.4 183.85 104 191.4 103.9 211 103.7 221.45 104.75
M 74.8 151.3
Q 76.3 150.8 79.05 150.8 84.55 150.7 86.95 152.8 88 153.85 88.5 153.95 88.75 154.05 90.05 153.9 92.75 153.5 94.8 154.75 96.25 155.65 97.05 157.25 97.85 158.85 97.65 160.55 97.45 162.25 96.35 163.65 95.3 165.05 93.7 165.65 92.7 166 92.5 166.25 92.25 166.5 92.15 167.5 91.85 169.85 89.6 172.85 87.4 175.8 85.3 176.5 84.15 176.95 81.95 177 79.55 177.05 78.55 177.3 76.8 178.05 75.85 178.3 73.75 178.85 71.65 177.8 69.55 176.75 68.7 174.7 66.8 175.35 64.8 174.75 62.75 174.15 61.6 172.55 60.45 170.9 60.65 168.8 60.9 166.65 62.4 165.35 63.05 164.9 63.35 164.65 63.85 164.25 64.1 163.8 64.35 163.4 64.45 162.7 64.6 161.65 64.65 161.55 65 160.05 66.85 158.2
L 69.9 154.95
Q 72.85 152 74.8 151.3
M 100.1 118.3
Q 100.5 118.3 100.65 118.15
L 97.2 118.15
Q 96.7 118.15 96.5 118.3
L 100.1 118.3 Z"/>

<path fill="#00A6A4" stroke="none" d="
M 144 202
Q 136.05 201.2 132.05 200.8 124.95 200.15 120.3 201.25 116.05 202.25 115.2 204.85 114.85 205.9 115.1 207.05 115.4 208.15 116.15 208.95 117.7 210.55 120.15 210.65 119.1208984375 212.1365234375 118.25 213.7 117.23671875 215.5923828125 116.45 217.6 114.5 222.85 116.9 225.2 117.65 225.95 118.95 226.4 119.45 226.55 121.35 226.95 123.25 227.35 127.05 228.35 138.25 231 152.7 230.3 161.5 229.9 178.55 227.5 183.2 226.8 185.25 225.75 187.15 224.6 188.15 224.05 190.6 223.05 191.7 222.35 194.8 220.4 195.85 216.1 196.55 213.3 196.25 208.5 196.1865234375 207.5478515625 196.05 206.75 195.951953125 205.6787109375 195.75 204.9 195.381640625 203.594140625 194.7 202.7 194.3962890625 202.246875 194 201.9 192.4 200.45 188.55 200.15 184.7521484375 199.8607421875 180.15 199.9 172.027734375 199.946875 161.4 201 154.75 201.7 152.7 201.85 147.8 202.2 144 202 Z"/>

<path fill="#C28F6B" stroke="none" d="
M 187.9 144.6
Q 187 144.25 184.95 143.8 175.85 141.7 171.05 138.95 163.7 134.7 161.6 128.1 159.8 122.45 162.25 113.15 164 106.55 161.2 104.45 159.3 103.1 155.65 104.1 152.6 104.85 145.7 107.8 139.45 110.45 135.7 111.1 132.95 111.6 132.85 111.65 131.25 112.05 130.35 112.9 129.2474609375 113.884375 128.8 115.55 128.713671875 116.0400390625 128.65 116.55 128.5 117.8 128.65 120.9 129.1 129 126.35 134.05 125.9634765625 134.7943359375 125.5 135.5 122.6767578125 139.7939453125 116.85 143.05 114.3 144.45 110.8 145.85 109.85 146.25 104.6 148.2 100.05 149.9 98.7 152.2 97.75 153.9 97.75 157.9 97.8 159.8 98 160.8 98.3169921875 162.20390625 99.05 163.05 98.844921875 163.9802734375 98.95 164.9 99.35 168.25 104.7 171.15 112.75 175.35 121.45 177 129.3 178.55 134.3 176.45 134.25 178.75 132.8 180.7 131.35 182.6 129.15 183.25 127.45 183.75 125.15 183.45 124.5 183.35 121.1 182.65 114.9 181.3 108.4 181.7 103.55 182 101.3 183.95 100.35 184.8 99.45 186.3 98.95 187.2 97.95 188.95 95.8 192.25 93.2 192.25 89.75 192.25 87.75 186.75 86.7 184 86 182.9 84.75 180.9 83 180.35 81.5 179.9 79.9 180.55 78.4 181.2 77.45 182.55 75.75 184.95 76.1 188.65 76.5 192.8 79.35 197.2 80.694921875 199.2751953125 83.45 202.5 84.2896484375 203.473828125 85.25 204.55 85.5333984375 204.8564453125 85.8 205.1 86.428515625 205.0857421875 87.5 205 88.3 204.9 89.85 204.6 91.2 204.4 92.15 204.5 93.3 204.65 95.3 205.65
L 98.75 207.4
Q 100.75 208.5 101.65 209.15 103.1 210.3 103.65 211.7 103.8341796875 212.2064453125 103.9 212.7 105.555859375 213.5857421875 106.9 213.85 108.1203125 214.0654296875 109.1 213.8 110.266015625 213.466796875 111.1 212.6 111.7830078125 211.95078125 112.25 210.95 113.3 208.8 112.85 206.5 112.5 204.55 111.25 202.4 110.4 201.05 108.6 198.75
L 144.75 198.4
Q 159.3 198.25 166.55 198.6 173.8341796875 198.9626953125 180.15 199.9 184.7521484375 199.8607421875 188.55 200.15 192.4 200.45 194 201.9 194.3962890625 202.246875 194.7 202.7 195.3244140625 202.7697265625 195.8 202.8 200.2 203.15 203.1 201.35 203.3 201.2 205.3 199.75 206.6 198.8 207.6 198.5 208.7642578125 198.141796875 210.75 198.45 212.1173828125 198.7060546875 213.85 199.25 216.674609375 200.145703125 218.5 200 219.3279296875 199.964453125 219.95 199.7 221.6 199 222.55 197.15 222.57109375 197.1080078125 222.6 197.05 223.401171875 195.3994140625 223.45 193.4 223.5 191.95 223.1 189.6 222.6 186.7 222.55 185.8 222.6 181.25 222.35 179.05 222 175.2 219.9 173.45 217.75 171.65 214.1 172.05 212.5 172.25 207.65 173.6 203.05 174.9 192.15 175.55 182.05 176.2 176.85 178.1 171.7 180.3 169.1 181.15 164.55 182.6 161.3 181.6 162.2 180.15 161.4 178.3 160.706640625 176.56640625 159.1 175.6 160.0482421875 175.778515625 161.15 175.65 162.7 175.45 165.95 174 176 169.45 186.55 166.55 189.55 165.7 191.1 164.9 193.4 163.6 194.15 161.65 194.75 159.9 194.05 157.3 193 154.35 192.6 152.85 192.15 150.5 191.85 149.3 191.35 147.3 190.35 146.2 189.45 145.2 187.9 144.6
M 156.35 163.85
Q 156.25 165.6 155.4 169.15 154.9 172.5 156.5 174.2 156.7212890625 174.44140625 156.95 174.65 156.423046875 174.46328125 155.8 174.3 152.65 173.4 152.35 173.3 150.25 172.5 147.65 170.75 144.75 168.65 143.25 167.65 141.6609375 166.5794921875 140 165.65 149.1296875 165.3580078125 156.35 163.85
M 118.1 96.15
Q 117.25 97.45 117.3 98.9 117.3 100.35 118.15 101.6 119 102.85 120.35 103.4 122.2 104.05 122.45 104.25 123.15 104.75 124.05 106.25 124.419921875 106.7080078125 124.85 107.05 125.120703125 107.2435546875 125.4 107.4 126.03984375 107.7435546875 126.8 107.9 128.55 108.25 129.95 107.45 131.15 106.8 132.3 105.15 132.95 104.25 134.25 102.4 134.45 102.15 136.05 100.4 137.2 99.2 137.65 98.25 138.2 97.05 138.1 95.65 138 94.25 137.3 93.15 136.6 92.05 135.4 91.35 134.15 90.7 132.85 90.7 131.3 90.65 128.95 91.75 126.05 93.1 125.1 93.35 124.6 93.5 122.6 93.7 121.05 93.9 120.2 94.3 118.9 94.9 118.1 96.15 Z"/>

<path fill="#FFFFCC" stroke="none" d="
M 237.75 210.05
Q 237.15 207.35 235.5 205.9 233.85 204.45 231.4 204.3 230.5 204.25 230.05 204.2 229.25 204.1 228.75 203.9 227.65 203.1 227.05 202.75 226.2 202.25 224.55 202.1 222.45 201.95 221.9 201.8 221 201.55 219.8 200.85 219.0517578125 200.3607421875 218.5 200 216.674609375 200.145703125 213.85 199.25 212.1173828125 198.7060546875 210.75 198.45 207.552734375 198.9890625 205.35 201.1 204.508203125 201.941796875 203.4 203.45 203.327734375 203.5431640625 203.25 203.65 201.8 205.75 201.25 206.35 200.9 206.8 200.1 207.65 199.4 208.45 199.05 209.05 197.6 211.65 199 216.4 199.5 218 200.05 218.6 200.45 219.1 201.25 219.6 201.65 219.9 202.55 220.45 203.6 221.15 205.55 222.8 207.3 224.1 208.8 224.15 208.95 224.15 210.15 224.05 211 223.95 211.5 224.1 211.75 224.2 213.2 225.1 214.6 226.05 216.35 226.2 218.05 226.35 219.6 225.65 220.25 225.35 221.9 224.25 223.3 223.3 224.3 223 225.05 222.8 226.15 222.8 226.75 222.8 227.95 222.8 230.25 222.65 232.35 221.55 234.45 220.45 235.8 218.65 237.2 216.85 237.7 214.6 238.2 212.3 237.75 210.05
M 111.3 216.5
Q 110.7 216 109.25 215.3 107.8 214.55 107.15 214.05 107.0822265625 213.9958984375 106.9 213.85 105.555859375 213.5857421875 103.9 212.7 103.8341796875 212.2064453125 103.65 211.7 103.1 210.3 101.65 209.15 100.75 208.5 98.75 207.4
L 95.3 205.65
Q 93.3 204.65 92.15 204.5 91.2 204.4 89.85 204.6 88.3 204.9 87.5 205 86.428515625 205.0857421875 85.8 205.1 85.5333984375 204.8564453125 85.25 204.55 84.2896484375 203.473828125 83.45 202.5 81.101171875 201.89375 79.7 201.75 76.4580078125 201.402734375 72.35 202.25 71.1388671875 202.5349609375 69.85 202.9 64.75 204.35 61.95 206.8 58.65 209.85 57.45 215.05 56.8 218.2 57.6 220.2 58.2 221.55 60.05 223.4 63.3 226.4 67.35 229 68.85 229.95 71.95 231.65
L 74.7 233.15
Q 77.9 234.9 78.35 235.1 84.9 238.15 88.9 236 90.8 235 91.25 234.9 91.85 234.85 92.65 235.1 93.1 235.25 94.05 235.55 95.15 235.85 96.9 235.8 99.5 235.75 99.85 235.75 101.15 235.8 103.75 236.05 106.7 236.15 109.35 234.7 112.1 233.2 113.25 230.6 114.25 228.4 114.25 224.95 114.25 218.9 111.3 216.5
M 227.9 106.05
Q 225.4 105.1 221.45 104.75 211 103.7 191.4 103.9 183.85 104 179.65 104.4 173.2 105.05 168.25 106.75 163.7 108.25 163.15 111.05 162.95 111.9 163.1 113 163.2 113.65 163.5 114.95 163.75 116.4 163.75 118.7 163.75 121.75 163.8 122.45 164.2 127.35 166.8 131.7 169.4 136.05 173.55 138.65 179.75 142.65 190.55 142.9 196.6 143.05 202.85 142.2 215.65 140.45 223.6 134.65 228.25 131.2 231.1 126.45 234.1 121.35 234.25 115.95 234.35 112.1 232.85 109.75 231.3 107.3 227.9 106.05
M 56.4 125.7
Q 56.4 127 56.35 129.7 56.8 134.95 62.5 140.65 66.1 144.25 69.65 146.4 74.45 149.25 80.45 150.35 86 151.3 92 150.65 102 149.5 113.95 143.55 120.6 140.2 123.9 137.1 124.756640625 136.3203125 125.5 135.5 125.9634765625 134.7943359375 126.35 134.05 129.1 129 128.65 120.9 128.5 117.8 128.65 116.55 128.713671875 116.0400390625 128.8 115.55 128.765625 115.2509765625 128.7 114.9 128.15 111.95 127.65 110.7 126.866015625 108.544140625 125.4 107.4 125.120703125 107.2435546875 124.85 107.05 122.7875 105.9109375 118.65 106 104 106.3 89.45 108.25 84.65 108.85 80.95 109.7 70.6 112.15 60.05 119 57.25 120.8 56.65 122.55 56.4 123.25 56.4 125.7
M 100.65 118.15
Q 100.5 118.3 100.1 118.3
L 96.5 118.3
Q 96.7 118.15 97.2 118.15
L 100.65 118.15 Z"/>

<path fill="#CC3366" stroke="none" d="
M 79.05 150.8
Q 76.3 150.8 74.8 151.3 72.85 152 69.9 154.95
L 66.85 158.2
Q 65 160.05 64.65 161.55 64.6 161.65 64.45 162.7 64.35 163.4 64.1 163.8 63.85 164.25 63.35 164.65 63.05 164.9 62.4 165.35 60.9 166.65 60.65 168.8 60.45 170.9 61.6 172.55 62.75 174.15 64.8 174.75 66.8 175.35 68.7 174.7 69.55 176.75 71.65 177.8 73.75 178.85 75.85 178.3 76.8 178.05 78.55 177.3 79.55 177.05 81.95 177 84.15 176.95 85.3 176.5 87.4 175.8 89.6 172.85 91.85 169.85 92.15 167.5 92.25 166.5 92.5 166.25 92.7 166 93.7 165.65 95.3 165.05 96.35 163.65 97.45 162.25 97.65 160.55 97.85 158.85 97.05 157.25 96.25 155.65 94.8 154.75 92.75 153.5 90.05 153.9 88.75 154.05 88.5 153.95 88 153.85 86.95 152.8 84.55 150.7 79.05 150.8 Z"/>
</g>

<g id="melissa_0_Layer1_0_FILL">
<path fill="#660033" stroke="none" d="
M 117.95 96.9
Q 115.95 95.3 113.4 95.9 109.85 96.6 109.7 100.3 108.35 103.2 105.3 104.3 95.4 108.1 84.75 109 81.3 109 77.9 110.15 77.1 110.4 76.65 111.05 73.45 115.4 75.25 120.75 77.1 126.35 81.3 130.7 88.75 138.3 99.4 138.6 109.95 138.9 118.1 132.3 126.75 125.35 129.6 114.45 130.8 109.8 127.9 106.45 123.4 101.2 117.95 96.9
M 176.15 93.85
Q 174.85703125 93.6724609375 173.7 94.05 170.6234375 98.6578125 168.15 102.95 163.6 110.75 163.05 116.05 162.905078125 117.6921875 162.75 121.05 165.9197265625 126.8 171.45 130.7 179.6 136.5 190.15 135.15 200.8 133.8 208.25 125.45 212.45 120.65 214.3 114.9 216.1 109.35 212.9 105.3 212.45 104.7 211.65 104.55 208.25 103.75 204.8 104.1 194.15 104.25 184.25 101.4 181.2 100.65 179.85 97.85 179.7 94.2 176.15 93.85 Z"/>
</g>

<g id="melissa_0_Layer0_0_FILL">
<path fill="#330033" stroke="none" d="
M 271.85 84.9
Q 269.9 70.75 262.7 59.1 262.3 58.45 261.9 57.85 254.7 46.9 243.4 39.75 232.85 33.15 221.3 31.45 220.95 29.95 219.5 28 218.35 26.35 217.1 24.8 209.9 12.65 196.25 2.4 191.85 -0.95 189.25 0.65 187.6 1.6 187.35 4.15 187.15 6.05 187.8 8.6 165.75 0.6 141.25 0.05 117.45 -0.5 94.15 6.05 85 8.65 79.2 11.75 75.15 13.95 71.35 16.95 66.3 20.05 63.55 21.95 58.2 25.7 54.5 29.45 54.25 29.75 53.95 30.1 52 32.05 48.75 35.9 47.3 37.55 44.35 40.75 43.3 42.05 42.45 43.25 40.25 41.8 37.2 41 34.05 40.15 29.5 39.95 26.35 39.75 25.05 41 23.75 42.25 23.95 45.8
L 24.3 53.7
Q 24.4 56.45 24.1 57.85 24.05 57.95 24.05 58 23.95 58.3 23.85 58.65 22.8 59.3 21.5 61.1 14.2 70.85 9.85 78.7 4.4 88.7 2.25 98.2 1.35 102.15 0.6 109.05 -0.1 116.05 0.05 120.2 0.35 132.4 6.25 144.4 11.35 154.85 20 163.55 19.95 163.55 19.9 163.55 19.5 163.65 15.3 164.3 9.35 165.05 7.5 168.4 5.55 172 8.65 177.6 12.65 184.55 22.4 191.4 28.1 195.45 32.95 197.45 39.1 200.05 44.65 200 46.2 199.95 47.5 199.55 47.6 199.65 47.7 199.7 48.05 200.1 49.9 201.5 52.2 203.35 53.1 203.8 53.15 203.85 53.2 203.9 52.7 204.4 52.3 205 50.9 207.05 50.7 209.45 50.45 212.1 51.85 213.95 52 214.25 52.2 214.5 49.55 218.4 50.1 221.65 50.7 224.6 53.95 227.05 56.2 228.75 59.15 229.7 61.45 230.45 64.2 230.85 64.6 231.3 64.95 231.7 67.65 234.45 71.55 235.45 72.15 235.6 72.75 235.65 73.2 236.45 73.6 237.05 74.35 237.85 75.6 238.75 76.4 239.35 77.45 239.95 79.25 241.05 80.25 241.4 82.05 242.05 85.6 242.05 89.1 242.15 90.9 241.6 92.4 241.15 94.55 239.9 95 239.6 95.4 239.4 97.3 239.75 99.15 239.9 104.15 240.2 108.2 238.75 110.55 237.9 112.7 236.4 113.35 236.5 114.1 236.2 115.3 235.65 116.3 234.35 116.8 233.7 117.2 233.05
L 137.35 233.05
Q 146.6 233.05 151.25 232.9 168.2 232.35 190.45 229.2 191.15 229.1 191.8 228.95 191.9 229 192.05 229.05 192.95 229.25 193.75 228.95 194.6 228.65 195.2 228 195.35 227.75 195.65 227.4 196.4 226.7 196.75 225.7 197 225.1 197 224.6 198.1 225.05 199.6 225.55
L 204.65 227.15
Q 208.5 228.45 210.4 228.95 222.1 232 230.5 228.45 232.55 227.65 236.35 225.35 239.85 223.25 241.15 221.75 242.95 219.7 243.65 216.75 244.55 213.3 243.85 209.5 243.3 206.75 242.05 204.25 243.55 204.25 245.6 203.7 254.7 201.4 262.95 195.5 267.8 191.95 272 187.45 274.5 184.8 276.75 181.8 278.4 179.55 278.1 178.1 277.9 177 276.9 176.3 275.9 175.7 274.75 175.65 273.8 175.6 272.55 175.85 271.05 176.3 270.35 176.45 265.5 177.8 260.55 176.95 264.75 175.5 268.45 172.15 271.8 169.05 274.15 164.8 277.05 159.75 277.5 155 278.1 149.65 275.8 144.35 273.6 139.2 269.4 135.55 273.85 132.35 283.25 121.3 284.3 119 283.2 117.45 283 115.45 281.95 114.25 280.45 112.55 276.35 112.8 271.6 113.05 270 112.35 273.7 98.9 271.85 84.9
M 257.5 65.25
Q 265.45 79.95 265.1 96.45 265.05 103.65 262.8 108.15 262.25 109.3 261.05 111.5 260.2 113.55 260.4 115.05 260.65 117.05 262.55 118.45 264.25 119.7 266.5 120.05 267.65 120.3 270.7 120.45 273 120.5 274.45 120.75 269.45 127 262.3 130.3 260.2 131.3 259.9 131.45 258.55 132.2 257.75 133 256.75 134 256.35 135.3 255.95 136.8 256.6 137.9 257.1 138.95 258.55 139.65 259.4 140.05 261.25 140.7 264 141.85 265.95 144.3 268 146.7 268.7 149.6 269.35 152.55 268.55 155.8 267.75 158.8 265.9 161.5 262.8 166.05 256.35 169.25 254.95 169.95 252.6 170.95 251.3 171.5 250.45 171.8 249.3 172.3 248.8 172.5 243.8 174.75 243.6 177.9 243.55 179.05 244.15 180.2 244.8 181.25 245.85 182 247.35 183.1 250.4 183.75 257.4 185.4 264.6 184.6 254.3 193.2 244.6 195.05 242.9 195.3 242.05 195.5 240.6 195.75 239.6 196.25 238.4 196.9 237.65 197.95 237.25 198.5 237.05 199.05 236.1 198.8 234.55 198.85 232.55 198.9 232 198.85 230.55 198.7 228.9 197.95 227.8 197.4 227 197 227.5 194.3 227.65 191.65 228.15 184.15 226.05 177.65 224.6 173.45 222.45 171.55 219.15 168.5 211.55 168.6 207.55 168.6 203.3 169 203.2 168.85 203.1 168.7 202.75 168.25 201.55 167.45 200.35 166.6 199.3 165.45 196.95 162.95 195.55 159.25 195.45 159.05 195.4 158.8 194.05 155 193.6 149.2 193.5 148.05 193.45 147 198.25 147.25 202.95 146.7 209.8 145.85 216 143.25 222.4 140.55 227.45 136.2 233.05 131.3 235.6 125.55 236 125.6 236.6 125.6 240.25 125.75 243.5 124.7 247.05 123.65 249.55 121.35 250.55 120.5 251.45 119.4 252.85 117.55 253.75 115.3 254.45 113.45 254.7 111.3 255.55 104.8 252.7 99.45 251.55 97.5 251.25 96.6 250.9 94.65 250.45 93.8 249.95 93.1 249.05 92.9 248.1 92.65 247.45 93.2 246.6 94 247.05 96.45 247.8 101 246.3 103.5 244.95 105.5 242.45 106.3 240.3 106.95 237.7 106.65 236.6 106.5 235.85 106.2 234.6 102.05 232.4 97.9 229.85 93.3 227.4 90.85 224.8 88.25 220.05 85.75 210.3 80.35 201.5 79 190.65 77.35 182.05 81.6 178.55 83.3 174.2 86.8 167.75 92.05 164.45 97.15 163.95 98.05 163.45 98.9 161.5 99.45 159.45 100.1 156.25 101.05 153.5 101.9 138.05 106.7 134.4 107.5
L 141.65 94.75
Q 141.95 94.2 142.15 93.7 142.8 92.55 143.05 91.85 143.8 90.15 143.85 88.7 143.9 87 142.95 85.65 141.95 84.1 140.45 83.9 139.55 83.75 138.35 84.15 138.1 84.25 136.4 85.05 134.65 85.85 132.4 86.7 131.75 86.9 131.1 87.15 127.5 88.35 125.65 88.95 121.55 90.25 117.35 92 114 89.75 109.55 87.75 104.4 85.5 100.6 84.7 91.2 82.9 81.1 87.35 72.9 90.95 64.9 98.75 60.95 102.35 59.15 105.6 57.4 108.55 56.15 113.7 56.05 114.05 56 114.4 55.75 114.45 55.55 114.55 53.25 115.5 50.25 115.4 48.5 115.3 47.15 114.75 46.15 114.3 44.95 113.35 43.6 112.1 42.9 111.55 41.45 110.5 41.15 109.85 40.75 108.6 40.5 108.05 39.95 107 38.65 106.8 37.35 106.6 36.5 107.4 36.05 107.9 35.4 109.6 34.3 113.25 34.05 114.85 33.35 120.5 36.5 126.1 37.4 127.7 39.3 130.15 40.9 132.1 41.9 132.95 42.85 133.7 45.1 134.85 47.5 136.15 49.05 136.55 50 136.8 51.25 136.95 51.1 137.55 51.3 138.1 51.6 138.9 52.3 139.15 53.35 139.5 55.05 138 55.6 137.5 56.25 137 56.9 136.95 57.45 136.85 58.1 138.2 58.95 139.5 62.45 144.9 69.05 148.45 67.65 149.5 66.5 150.85 63.4 154.55 62.7 159.5 62.5 160.35 62.35 160.6 62.1 161 61.45 161.35 60 162.05 59.4 162.7 58.2 164.15 58.4 167.2 58.55 170.3 59.4 171.9 59.75 172.75 60.75 174.25 61.25 175.05 62.15 176.6 63 177.95 63.95 178.5 64.45 178.7 65.6 179.05 66.7 179.35 67.2 179.7 67.95 180.15 69.15 181.5 70.45 182.8 71.95 182.6 71.4 184.25 71.5 187 71.55 190.25 71.7 191.9 70.65 194.15 69.3 197.5 64.55 197.9 60.05 199.6 59.25 199.9 58.55 200.25 57.85 199.4 56.8 198.7 56.25 198.25 54.35 197.1 52.65 195.95 52 195.1 51.35 193.8 50.95 193.25 50.3 192.5 49.3 192.3 48.85 192.25 48.35 192.3 48.15 192.25 47.95 192.2 46.95 191.8 45.55 191.65 43.85 191.5 43 191.4 35 190.6 27.5 185.2 20.85 180.35 15.6 172.65 22.35 170.45 29.4 167.7 32.9 166.4 33.55 164.5 34.6 161.6 30.1 157.95 23.7 152.55 20.05 148.25 15.05 142.4 12.65 136.5 10.25 130.6 9 118.75 7.7 106.85 12.9 92.35 18.05 77.75 25.8 66.9 27.65 64.3 27.8 64.05 28.9 62.4 29.4 61 29.85 59.75 30.1 57.85 30.25 56.3 30.3 54.3 30.35 49.6 30.9 47.55 36.15 47.85 40.6 50.65 41.85 51.45 42.1 51.5 42.95 51.95 43.7 51.9 44 51.9 44.25 51.8 44.25 51.95 44.2 52.05
L 44.2 52.1
Q 44.5 51.9 44.85 51.5 44.9 51.5 44.95 51.45 45.3 51.15 45.65 50.7 45.9 50.25 46.1 49.75 46.4 49.35 46.7 48.85 47.65 47.45 49.95 44.95
L 58.35 35.7
Q 59.1 34.95 59.7 34.3 61.15 32.7 62.05 31.9 64.35 29.85 68.75 27 70.85 25.7 73.1 24.6 73.75 23.95 74.45 23.35
L 80.55 19.4
Q 82 18.4 82.75 17.85 82.9 17.7 83.1 17.55 87.35 15.4 93.5 13.45 116.95 6.05 141.2 6.45 166.2 6.8 188.5 15.3 191.5 16.5 193.05 16.35 194.35 16.25 195.3 15.45 196.35 14.6 196.4 13.45 196.9 13.85 197.4 14.35 197.5 14.15 197.6 14.05 197.85 13.85 198.15 13.8 198.6 14.2 199.2 14.65 202.8 17.5 206.75 21.25 212.05 26.4 214.45 30.7 215.4 32.3 215.5 32.5 215.55 32.65 215.7 32.8 215.75 33.25 216.05 33.65 216.6 34.5 218.35 35.25 221.2 36.45 226.95 38.75 232.05 40.75 235.4 42.55 245.65 48.15 252.8 57.85 255.35 61.3 257.5 65.25
M 201.2 84.7
Q 201.1 84.85 201 85 200.5 85.9 199.65 86.95 198.6 88.2 198.15 88.85 197.15 90.1 195.65 92.85 194.05 95.65 193.15 96.85 192 98.4 191.65 99.15 187.35 99.15 183.05 99.4 183.55 98 184.75 95.9
L 190.75 86
Q 191.35 85 191.75 84.15 193.3 83.95 194.95 83.95 197.7 83.95 201.2 84.7
M 200.2 95.2
Q 198.7 97.05 198.3 97.85 198.05 98.6 197.95 99.3 197.25 99.25 196.6 99.25
L 202.05 89.4
Q 203.45 87 204.1 85.5 204.1 85.45 204.15 85.45 205.35 85.75 207 86.25 205.4 88.4 204.45 89.7 202 93 200.2 95.2
M 228.15 111.4
Q 230.35 112.6 231.35 112.7 231.4 112.7 231.5 112.7 232 116.05 231.6 118.75 230.75 124.65 226.05 129.55 222.45 133.4 216.25 136.6 212.5 138.5 209.35 139.5 202.4 141.65 193.35 141 190.65 140.8 187.7 140.35 186.65 140.15 185.5 139.9 180.2 138.85 176.8 137.35 172.15 135.25 169.6 132 167 128.75 166 123.8 165.25 120.2 165.1 114.5 165.05 111.9 165.25 109.8 165.65 109.5 166.25 109.05 169.6 106.7 174.55 105.65 178 104.95 183.65 104.65 197.5 103.95 206.4 105.05 218.9 106.6 228.15 111.4
M 168.85 139.35
Q 171.55 141.5 176.4 143.3 182.2 145.4 187.8 146.35 188 149.65 188.45 152.35 189.25 157.95 191.35 162.2 185.05 166.85 176.95 169.95 169.1 172.9 159.15 174.55 159.65 177.45 160.15 180.75 160.1 181.45 160.55 181.95 161.4 183.05 163.8 182.65 169.4 181.95 180.1 179.6 190.95 177.25 196.25 176.45 205.1 175.15 214.3 175.45 216.2 175.55 217 176 218.2 176.7 219.2 179 221.7 185.6 220.15 194.35 219.3 194.1 218.45 194 213.85 193.2 209.25 194.5 204.65 195.7 201.15 198.75 200 199.7 199.4 200.15 199.3 199.2 199.15 198.45 198.45 194.95 196.8 192.5 195.25 190.65 194.7 189.6 194.15 188.75 194 188.5 193.55 187.9 192.95 187.85 192.45 187.75 191.95 188.2 191.5 188.55 191.35 189.1 191.1 190 191.55 191.4 192.05 193 193.25 196.2 193.4 196.6 193.55 197 193.75 198.3 194 199.85 191.4 199.25 188.25 198.65 177.7 196.4 171.95 196.3 169.35 196.25 165.45 196.6 157.5 197.1 152.75 198.2 150.95 198.6 148.2 198.75 148 198.3 147.55 198 146.85 197.4 145.95 197.35 145.9 197.55 145.55 197.4 144.5 197.3 143.2 198.65
L 143.15 198.7
Q 139.9 198.6 135.9 198.15 136 198.2 136.2 198.3 134.7 197.95 133.3 197.75 131.55 197.55 128 197.45 122.6 197.4 117.6 197.85 116.75 195.95 115.45 194.35 114.45 193.05 112.7 191.7 111.25 190.45 109.85 189.75 108.65 189.1 105.75 188.55 102.75 188 101.5 188 101.15 188.05 100.7 188.05 100.45 187.4 100.1 186.65
L 99.5 185.45 124.4 186.6
Q 127.65 186.75 129.35 186.55 132.15 186.1 133.8 184.8 134.9 183.9 135.4 182.7 135.8 181.95 135.9 181.2 136.85 178.9 138.2 176.1 126.8 176.05 117.55 173.75 109.55 171.75 102.7 167.9 101.2 167.05 99.85 166.15 100.25 165.6 100.5 165.25 101.4 163.8 101.15 161 100.65 156.65 98.7 152.85 102.5 152.15 106.3 150.9 108.9 150 111.55 148.8 116.8 146.4 121.8 142.9 126.1 139.85 128.1 137.05 131.45 132.55 132.15 125.15 132.65 120.25 131.95 115.45 132.45 115.35 133.05 115.2 141.75 112.7 159 107.05 159.6 106.9 160.15 106.75 160.3 106.7 160.45 106.65 159.75 109.55 159.5 112.65 158.9 121 161.9 128.95 164.45 135.85 168.85 139.35
M 196.15 168.65
Q 196.85 169.2 197.55 169.65 194.85 170.05 192 170.55 193.95 169.4 195.7 168.25 195.95 168.4 196.15 168.65
M 99.55 89.95
Q 98.95 92.15 97.85 95.3 97.2 97.05 95.95 100.6 95.25 102.8 95.75 103.95 94.35 104.1 92.95 104.35 93.05 104.05 93.1 103.75 94.35 96.5 95.9 89.6 97.7 89.65 99.55 89.95
M 88.65 90.4
Q 91.2 89.7 93.75 89.6 93.25 92.2 92.2 95.5 91.45 97.95 89.75 102.75 89.3 104.1 89.4 105 84.2 106 79.3 107.55 79.7 107.1 79.95 106.55 80.4 105.5 80.55 103.3 80.95 99.3 82.05 95.75 82.65 93.9 82.9 93.05 82.95 92.85 83 92.65 86.1 91.15 88.65 90.4
M 122.15 95.8
Q 128.4 93.6 134.35 92.55 130.9 98.2 128.4 104.3 128.1 103.75 127.85 103.3 125.8 99.55 122.95 96.6 122.55 96.2 122.15 95.8
M 71.7 143.35
Q 70.95 142.95 70.3 142.55 64.55 139.1 62.2 133.6 61.9 133 61.7 132.3 61.1 130.5 60.85 128.25 60.7 127.45 60.7 126.75 60.45 123.9 60.7 121.1 62.8 119.6 65.65 118.05 80.1 110.2 96.6 108 111.05 106.15 123.45 109.35 124.15 109.55 124.7 109.65 125.1 110.75 125.45 112.1 126.75 117.6 126.85 121.25 127.15 126.35 125.5 130.2 123.85 134.1 119.95 137.2 117 139.6 112.1 142 111.1 142.5 110.1 142.95 107.45 144.15 104.85 145.05 96.3 148.1 89 147.85 88.4 147.8 87.8 147.8 86.2 147.1 84.05 147 83.25 146.9 82.1 146.95 82 146.9 81.9 146.9 81.8 146.85 81.65 146.8 75.8 145.55 71.7 143.35
M 71.25 154.35
Q 72.4 153.3 74.75 152.8 75.6 152.6 76.5 152.5 77.55 152.35 78.8 152.3 81.1 152.9 83.55 153.2 85.2 153.45 86.85 153.55 87.6 153.95 88.8 154.75 90.45 155.5 93.8 155.15 94.85 157.75 95.5 160 95.9 161.5 95.6 162.25 95.45 162.55 95.3 162.85 94.8 163.35 94.05 163.85 92.7 164.8 92.3 165.25 91.7 165.95 91.55 167.25 91.35 168.35 91.15 168.95 91.05 169.3 91 169.45 90.05 171.95 86.3 173.2 84.25 173.85 83.3 174.2 82.85 174.35 82.5 174.55 80.8 174 79.15 174.3 78 174.6 76.9 175.15 76.5 175.15 75.85 175.15 73.85 175.3 73.05 174.8 72.75 174.65 72.2 174.05 71.65 173.45 71.35 173.2 70.4 172.55 68.75 172.75 68.05 172.85 67.85 172.85 67.35 172.85 67.05 172.7 66.75 172.5 66.25 171.9 65.05 170.2 64 168.35 63.7 167.6 63.7 167.2 63.75 166.6 64.25 166.05 64.95 165.45 65.3 165.1 65.9 164.5 66.25 163.5 66.75 162.25 66.95 161.6 67.55 160 69.3 156.95 70.4 155.05 71.25 154.35
M 78.6 184.6
Q 78.95 183 80.2 181.95 81.75 182.35 83.1 183.9 83.95 184.9 85.15 186.8 85.15 186.85 85.2 186.9 86.6 189.4 86.8 189.75 88.15 192.45 88.45 193
L 88.45 193.05
Q 89.4 194.65 90.55 195.4 92.2 196.3 93.7 195.6 94.05 195.4 94.45 195.1 94.7 194.95 95.1 194.8 95.9 194.6 97.45 194.6 100.95 194.8 103.9 195.6 104.4 195.7 104.75 195.8 105.5 196.05 106.1 196.35 106.9 196.85 107.9 197.75 108.5 198.3 108.95 198.85 109.65 199.5 109.95 200.15 109.6 200.4 109.25 200.85 108.75 201.45 108.7 202.4 108.7 203.1 109 203.8 109.05 203.9 109.1 204 109.65 204.95 111.2 206.5 112.25 207.55 112.9 208.5 114.35 210.65 113.95 212.65 113.25 212 112.55 211.35 110.15 209.45 107.3 208.5 106.55 208.25 105.7 208.05 105.05 207.85 104.4 207.75 103.6 206.5 102.3 204.9 100.9 203.1 99.9 202.45 98.65 201.6 96.25 200.85 95.1 200.35 93.95 200.2 93.25 200.05 91.8 200.05
L 89.55 200.05
Q 90.45 199.9 91.45 199.85 92.65 199.85 93.65 200.05 90.85 197.05 87.35 196.1 83.95 195.15 80.45 195.95 80.2 196 79.95 196.1 79.85 195.85 79.65 195.6 79.45 195.3 79.3 195.1 79.15 194.85 79.1 194.75 78.55 193.5 78.45 191.4 78.3 189.35 78.3 187.25 78.3 185.4 78.6 184.6
M 95 176.6
L 94.25 175.1
Q 95.65 173.65 96.35 172 103.35 175.25 113.55 178.05 114 178.15 114.4 178.3
L 96.2 176.7
Q 95.6 176.65 95 176.6
M 92.7 181.7
Q 93.7 183.6 94.45 185.3 95.15 186.9 95.6 188.3 95.7 188.55 95.8 188.8 95.15 188.85 94.7 189 94.5 188.6 94.2 188.05 93.45 186.5 92.7 185.25 91.6 183.25 90.75 181.95 89.55 180.15 88.35 178.7 88.8 178.55 89.45 178.2 90.05 177.9 90.55 177.65 91.45 179.3 92.7 181.7
M 133.25 202.65
Q 140.25 204.15 157 202.2 173.8 200.2 189.95 204.25 191.55 204.7 192.55 205.1 192.95 205 193.45 205 193.9 205 194.35 205.05 194.3 205.45 194.2 205.95 194.2 207.05 194.5 209.05 194.5 210.1 194.15 212.15 193.75 214.95 193.25 216.25 192.9 217.6 191.9 219.45 191.55 220.2 190.85 221.65 190.65 221.65 190.45 221.7 168 225.75 139.55 226.45 138.25 226.5 136.95 226.55 129.4 226.7 119.15 226.6 119.2 225.75 119.15 224.8 119.05 221.95 118.1 219.35 118.15 219.25 118.2 219.2 119.95 217.15 120.5 214.45 121.1 211.7 120.4 209.15 120.35 208.85 120.25 208.5 119.4 205.6 117.25 203.3 117.5 203.1 117.7 202.85 119 202.7 120.4 202.6 125.9 202.3 133.25 202.65
M 106.65 215.65
Q 109.2 216.85 110.75 219.15 112.25 221.4 112.6 224.25 112.7 225.45 112.65 226.55 112.55 227.35 112.35 228.2 112.05 228.2 111.85 228.25 111.15 228.45 110.4 229.1 109.95 229.4 109.1 230.15 107 232.05 104 232.8 103.45 232.95 102.9 233.05 100.65 233.35 98.2 233.1 98 233.1 97.9 233.05 97.1 232.9 96.3 232.8 96.15 233.3 95.9 233.95 95.6 233.75 95.25 233.65 94 233.25 92.3 234.15 90.55 235.3 89.5 235.7 88.7 236.05 87.5 236.15 86.1 236.2 85.35 236.2 83.6 236.3 83 236.2 81.95 236.05 80.95 235.45 78.4 234.15 77.45 232.6 77.45 232.55 76.65 230.65 76.1 229.5 75.45 229 74.9 228.6 74.2 228.55 73.5 228.45 72.85 228.8 72.65 228.85 72.5 228.95 72.35 228.9 72.2 228.85 70.6 228.35 69.4 227.2 68.15 226 67.8 224.45 67.7 224.15 67.65 223.75 68 223.4 68.15 222.9 68.35 222.4 68.4 221.7 68.45 221.15 68.35 220.2 68.3 219.1 68.3 218.65 68.15 215.15 71.25 210.9 72.15 209.55 73.15 208.5 74.75 206.6 76.65 205.4 77.95 204.4 79.4 203.75 81.2 202.95 82.9 202.8 82.85 203 82.9 203.15 83.05 204.2 83.75 204.8 84.5 205.4 86.15 205.6 88.05 205.8 91.85 205.85 95.35 206 97.3 207.6 97.85 208 98.35 208.5 99.6 209.85 100.5 212.15 101.2 213.9 101.8 214.45 102.4 215 103.35 215.05 104 215.05 104.45 214.75 105.6 215.1 106.65 215.65
M 60.95 208.5
Q 64.2 207 67.2 206.2 67 206.5 66.8 206.85 66.25 207.7 65.85 208.5 63.3 212.95 62.95 217.15 62.65 217.35 62.4 217.7 61.65 218.75 61.35 220.8 61.3 221.35 61.25 221.95 60.1 221.45 59.15 220.85 58.3 220.3 58.2 219.7 58.05 219.25 58.45 218.65 58.85 218 59.05 217.7 59.1 217.65 59.15 217.55 59.65 216.7 59.8 215.7 60.05 215.5 60.15 215.25 60.6 214.7 60.7 213.95 60.7 213.25 60.3 212.7 60.15 212.55 59.15 211.75 58.45 211.2 58.4 210.65 58.35 209.95 59.15 209.4 59.4 209.25 59.75 209.1 60.4 208.8 60.95 208.5
M 233.1 206.9
Q 233.9 207.05 234.1 207.1 234.4 207.25 234.75 207.9 236.55 210.9 235.95 214.35 235.85 215.1 235.65 215.5 235.4 215.8 234.5 216.25 233.5 216.8 230.7 218.85 228.35 220.45 226.8 221 224.95 221.65 221.2 221.65 217.75 221.7 215.9 221.5 213 221.25 210.85 220.3 208 218.85 206.45 218.5 205.75 218.4 204.45 218.4 203 218.4 202.5 218.35 200.25 218 199.5 216.6 199.8 214.7 200.05 212.1 200.2 210.5 200.15 209.25 200.3 208.9 200.45 208.55 201.8 205.95 202.55 204.95 203.8 203.4 205.6 202.45 208.1 201.05 212.55 200.85 215 200.8 216.8 201.15 218.6 201.45 222.15 203 224.1 203.9 224.95 204.6 225.05 204.7 225.9 205.45 226.4 205.95 226.8 206.2 227.8 206.8 229.85 206.8
L 233.1 206.9
M 144.1 169.2
L 147.4 171.6
Q 149.6 173.05 150.8 173.7 152.75 174.7 154.55 174.75 155.95 174.85 156.7 174.1 157.45 173.35 157.35 171.35
L 157.25 165.75
Q 157.15 163 156 162.25 155.2 161.75 153.15 162.15 144.7 164.1 136.05 165.45 134.7 165.6 134.45 166.25 134.3 166.65 134.45 167.1 134.65 167.5 135.05 167.75 135.6 168.15 136.65 168.05 137 168.05 138.75 167.75 140.05 167.5 140.85 167.65 142 167.8 144.1 169.2
M 147.05 166.95
Q 149 166.7 151.55 166.05 152.9 165.7 153.5 165.95
L 153.4 170.85
Q 152.6 171.1 151.7 170.45
L 150.5 169.2
Q 149.2 167.9 147.05 166.95 Z"/>
</g>
</defs>

<g transform="matrix( 1, 0, 0, 1, 9.6,29.35) ">
<g transform="matrix( 1, 0, 0, 1, 0,0) ">
<use xlink:href="#melissa_0_Layer2_0_FILL"/>
</g>

<g transform="matrix( 1, 0, 0, 1, 0,0) ">
<use xlink:href="#melissa_0_Layer1_0_FILL"/>
</g>

<g transform="matrix( 1, 0, 0, 1, 0,0) ">
<use xlink:href="#melissa_0_Layer0_0_FILL"/>
</g>
</g>
</svg>
