
<svg xmlns="http://www.w3.org/2000/svg" version="1.1" xmlns:xlink="http://www.w3.org/1999/xlink" preserveAspectRatio="none" x="0px" y="0px" width="150px" height="150px" viewBox="0 0 150 150">
<defs>
<g id="Layer0_0_FILL">
<path fill="#FFFFFF" stroke="none" d="
M 89.4 -1.9
Q 88.55 -2.9 87.2 -3.1 83.5 -3.95 79.6 -3.5 67.05 -2.8 56.3 3.15 54.95 2.85 53.65 2.55 39.2 -0.05 27.1 7.9 26.6 8.4 26.2 8.95 25.55 9.9 25.1 10.95 24.1 13.1 25.7 14.95 11 19.8 -0.15 30.4 -7.75 37.55 -10.1 47.55 -11.55 53.65 -6.65 56.85 -12.55 71.9 -11.7 88.1 -11.35 94.55 -8.6 100.15 -3.7 110.1 6.35 115.2 5.75 116.75 5.25 118.4 4.35 121.25 6.7 123.1 8.6 124.7 10.95 125.5 16.15 127.3 21.75 127.1 22.45 128.55 23.3 129.9 24.5 131.8 26.15 132.95 27.95 134.25 30.05 133.9 26.1 138.95 21.3 143.5 18.65 146 15.75 148.1 9.2 152.8 5.9 159.9 5.7 160.15 6.85 159.75 8.3 159.35 9.4 158.8 23.45 151.25 33.2 138.15 32.75 142.05 32.35 146 31.75 152.3 34.45 157.7 35.45 159.65 36.6 161.25
L 36.45 159.4
Q 36.6 159.05 36.65 158.65 37.45 150.45 37.45 142 37.45 135.5 43.1 132.2 47.5 129.7 51.05 126.6
L 50.8 125.4
Q 49.95 124.55 48.95 124.9 43.4 126.8 39.2 130.05 41.05 127.6 43.1 125.35 49.8 117.8 58.75 120.2 56.2 121.75 54.45 124.15 51.6 127.9 55.35 131 60.45 135.3 66.8 137.65 70.95 139.3 74.35 137.6 74.45 137.45 74.5 137.3 74.6 137.1 74.7 137 74.8 137 75 137.15
L 76.65 137.25 77.7 136.45
Q 89.4 132.75 98 123.95 102.1 119.75 98.5 116.1
L 105.6 113.85
Q 106.8 125.9 117.95 128.95 120.95 129.75 123.9 129.55 133.15 128.15 138.1 120 139.55 129.3 138.05 138.5 136.35 148.6 129.45 156.2 127.45 158.45 124.5 158.9 115.4 159.5 109.4 152.3 110.75 149.95 112 147.65 115.55 140.85 112.7 133.85 110.8 129.15 108 124.9
L 106 124.95
Q 105.05 125.75 105.4 127 106.9 132.4 108.55 137.95 108.75 138.6 108.55 139.25 105.85 148.2 100.45 155.65 97.7 159.5 98.95 163.55 99.1 163.55 99.3 163.6 100.9 163.15 102.35 162 104.9 159.9 106.55 157.1 108.25 160.1 111.5 161.75 116.75 164.35 122.65 165.1 132.2 165.95 136.95 157.45 143.7 145.2 143.25 131.05 143.1 126.55 142.1 122.25 140.8 116.5 141.1 110.75 143 109.25 144.55 107 145.65 105.5 144.9 103.55 143.7 100.6 140.5 99.9 142.85 97.95 144.4 95.45 148.5 88.75 147.85 80.95 150.6 81.2 152.9 79.75 155.15 78.25 156.35 75.8 159.8 68.75 158.9 60.95 156.75 42 143.05 28.3 141.05 26.3 138.75 24.75 135.55 22.65 135.05 20.8 135.75 19.8 135.4 18.8 133.25 13.2 127.75 10.25 109.95 0.75 89.85 0.3
L 89.4 -1.9
M 127.75 21.3
Q 127.9 21.9 128.4 22.25 141.25 32.2 148.95 46.6 155.65 59.1 152 72.5 151.5 74.2 149.9 74.75 148.35 75.1 146.75 74.8 141.7 75.3 142.1 80.65 142.95 91.2 134.35 97.4 132.3 95.95 130.2 95.4 119.95 93.1 112.2 100.5
L 114.2 90.95
Q 116.2 93.9 119.55 93.05
L 121.2 90.95 119.05 85.95
Q 122.25 84.2 124.35 81.05 128.8 74.5 126.7 66.8 126 64.3 126.8 63.9 128.05 63.85 129.3 63.4 131.8 63.7 130.5 62.5
L 123.45 58.6
Q 122.05 56.4 120.1 54.6 118.95 53.6 117.65 53 110.9 50.1 107.1 43.55 106.55 42.6 106.4 41.65 105.6 37.35 101.6 38.5
L 95.6 51.8
Q 82.95 58.6 82.35 72.9 80.9 73.75 79.65 74.9 73.7 80.55 67.4 85.8 58.45 93.2 47.25 96.25 41.9 97.85 37 95.65 35.1 94.75 35.45 92.4 36.1 88.2 34.1 84.85 27 85.1 21.5 81.05 19.95 79.9 19.6 78.3 18.6 73.8 21.35 69.95 23 67.65 25.55 66.4 28.7 65 28.45 62.25 27.45 61.15 25.85 61.6 15.3 65.25 13.7 76.15 13.45 77.95 14.25 79.4 19.2 88 29.55 88.05 29.4 90.05 29.3 92.1 29.15 94.35 30.05 96.2 33.1 102.4 40.4 101.7 38.95 111.35 31 115.45 31.15 115.8 31.4 116.2 32.05 117.25 33.2 117.6 37.5 118.35 39.95 114.25
L 46.5 116.2
Q 38.45 121.1 33.8 129.35 32.5 131.55 31.6 130.85 31.2 129.9 30.4 129.3 28.85 128.25 28.15 126.7 27.25 124.75 26.3 122.65 26.05 122.2 25.6 121.85 18.25 121.65 11.3 119 12.4 116.85 13 114.55 13.45 112.7 12 111.5 10.15 109.85 8.05 108.65 0.55 104.55 -3.2 97.35 -3.85 96.05 -4.1 94.7 -7.75 75.9 -1.25 57.7 -0.4 55.35 -1.9 53.45 -2.4 52.7 -3 51.85 -5.7 48.05 -3.2 43.8 4.6 30.45 18.45 23.25 21.85 21.55 25.3 20.45 30.3 18.85 33.75 15.55
L 33.7 14.15 31.45 13.15 30.7 12.35
Q 41.6 4.25 55.45 7.35 56.15 7.4 56.8 7.1 69.7 0.9 83.75 1.1
L 83.35 2.95
Q 83.9 3.8 84.75 3.95 92.15 4.05 99.25 5.05 116.55 7.4 130.15 17.75 127.15 18.45 127.75 21.3
M 102.3 46.1
L 104.95 49.45 100.75 49.45 102.3 46.1
M 126.75 100.55
Q 132.2 101.4 134.5 106.4 135.95 109.65 136.2 113.3 133 119.95 126.6 122.95 122.3 124.9 117.85 122.8 110.65 119.6 111.5 111.85 111.7 109.75 112.75 108.1 117.15 99.4 126.75 100.55
M 87.85 121.65
L 90.55 118.55 95.95 119.85 81.45 131 87.85 121.65
M 94.95 113.25
L 94.85 112.3 95.95 112.15 94.95 113.25
M 58.6 127
L 65.55 121.35 73.05 134.8 58.6 127
M 81.4 78.75
Q 82.75 76.95 83.35 76.7 83.595703125 80.225 87 83.75 87.4 84.15 87.85 84.55 95.15 90.15 104.35 90.2
L 109.55 89.5 106.6 102.75 90.75 110.25 90.55 112.8 89.4 113.65 89.15 115.3 75.85 131.35 68.55 118.15 68.55 112.8 42 110.85
Q 42.75 109 43.5 107.1 44.65 104.4 44.3 101.4 49.05 100.9 53.25 99.25 66.8 93.9 77.25 83.55 79.5 81.35 81.4 78.75
M 87.1 69.45
Q 88.1 65.55 90.65 62.15 92.95 59 95.3 58.15 94.9 66.6 99.65 73.65 101.75 76.75 104.95 78.6 113.7 83.65 121.25 76.95
L 117.9 81.3
Q 116.45 82.65 114.6 83.5 112.5 84.45 110.4 85.2 104.5 87.15 98.2 84.95 95.8 84.25 93.7 83 85.9 78.6 87.1 69.45
M 78.5 103.85
Q 75.1 104.9 71.4 103.55
L 70 104.5 70.3 106.25
Q 70.45 106.4 70.7 106.5 74.9 108.75 79.4 107.15 80.7 106.5 82.05 105.95 84.9 105 85.45 102.4
L 84.1 101.3
Q 83.2 101.25 82.35 101.9 80.5 103.2 78.5 103.85 Z"/>
</g>
</defs>

<g transform="matrix( 1, 0, 0, 1, 0,0) ">
<use xlink:href="#Layer0_0_FILL"/>
</g>
</svg>
