<?xml version="1.0" encoding="UTF-8" standalone="no"?>
<svg xmlns:ffdec="https://www.free-decompiler.com/flash" xmlns:xlink="http://www.w3.org/1999/xlink" ffdec:objectType="frame" height="2107.65px" width="2526.4px" xmlns="http://www.w3.org/2000/svg">
  <g transform="matrix(1.0, 0.0, 0.0, 1.0, 447.3, 0.0)">
    <use ffdec:characterId="17" height="202.2" transform="matrix(1.0, 0.0, 0.0, 1.0, -263.05, 156.0)" width="385.7" xlink:href="#shape0"/>
    <use ffdec:characterId="18" height="1533.35" transform="matrix(1.0, 0.0, 0.0, 1.0, 0.0, 0.0)" width="1523.2" xlink:href="#shape1"/>
    <use ffdec:characterId="19" height="323.85" transform="matrix(1.0, 0.0, 0.0, 1.0, 377.75, 149.55)" width="765.8" xlink:href="#shape2"/>
    <use ffdec:characterId="20" height="930.35" transform="matrix(1.0, 0.0, 0.0, 1.0, -278.0, 357.55)" width="1255.9" xlink:href="#shape3"/>
    <use ffdec:characterId="18" height="1533.35" transform="matrix(0.7321, 0.0, 0.0, 0.7321, -447.3, 985.15)" width="1523.2" xlink:href="#shape1"/>
    <use ffdec:characterId="18" height="1533.35" transform="matrix(0.7916, 0.0, 0.0, 0.7916, 873.4, 744.75)" width="1523.2" xlink:href="#shape1"/>
  </g>
  <defs>
    <g id="shape0" transform="matrix(1.0, 0.0, 0.0, 1.0, 263.05, -156.0)">
      <path d="M14.95 358.2 L8.25 306.85 117.4 156.0 122.65 202.35 14.95 358.2" fill="#cc3366" fill-rule="evenodd" stroke="none"/>
      <path d="M8.25 306.85 L14.95 358.2 -246.9 358.2 -263.05 306.85 8.25 306.85" fill="#fd9c7c" fill-rule="evenodd" stroke="none"/>
      <path d="M117.4 156.0 L8.25 306.85 -263.05 306.85 -95.15 156.0 117.4 156.0" fill="#ffd9ba" fill-rule="evenodd" stroke="none"/>
    </g>
    <g id="shape1" transform="matrix(1.0, 0.0, 0.0, 1.0, 0.0, 0.0)">
      <path d="M7.05 352.9 Q-22.45 267.85 71.65 182.85 172.65 91.4 384.25 41.4 559.45 0.0 761.55 0.0 963.65 0.0 1138.9 41.4 1350.5 91.4 1451.6 182.85 1538.8 261.7 1519.8 340.55 1507.55 391.05 1451.8 441.55 1249.7 624.55 761.55 624.55 273.4 624.55 71.4 441.55 22.4 397.2 7.05 352.9" fill="#ffd9ba" fill-rule="evenodd" stroke="none"/>
      <path d="M1519.8 340.55 L1320.95 1293.6 Q1327.15 1346.2 1269.05 1398.8 1120.5 1533.35 761.55 1533.35 402.65 1533.35 254.15 1398.8 204.35 1353.7 201.8 1308.6 L7.05 352.9 Q22.4 397.2 71.4 441.55 273.4 624.55 761.55 624.55 1249.7 624.55 1451.8 441.55 1507.55 391.05 1519.8 340.55" fill="url(#gradient0)" fill-rule="evenodd" stroke="none"/>
    </g>
    <radialGradient color-interpolation="linearRGB" cx="0" cy="0" gradientTransform="matrix(2.2974, 0.0, 0.0, 2.2974, 712.45, -340.85)" gradientUnits="userSpaceOnUse" id="gradient0" r="819.2" spreadMethod="pad">
      <stop offset="0.4470588235294118" stop-color="#ec62a9"/>
      <stop offset="0.4980392156862745" stop-color="#ff7265"/>
      <stop offset="0.596078431372549" stop-color="#fbd19e"/>
      <stop offset="0.6862745098039216" stop-color="#fef9ea"/>
      <stop offset="0.7725490196078432" stop-color="#fffaec" stop-opacity="0.39215687"/>
      <stop offset="1.0" stop-color="#fffaec" stop-opacity="0.0"/>
    </radialGradient>
    <g id="shape2" transform="matrix(1.0, 0.0, 0.0, 1.0, -377.75, -149.55)">
      <path d="M533.65 180.2 Q614.45 163.85 705.35 163.75 723.05 163.65 738.3 164.5 774.4 166.45 824.35 176.35 860.85 183.6 885.7 191.5 918.45 201.95 943.1 216.8 979.3 238.65 992.5 267.55 1000.25 284.55 998.95 302.8 997.55 322.1 986.35 335.45 981.4 341.3 973.9 346.65 968.35 350.55 959.45 355.5 912.5 381.6 869.3 388.95 L848.15 391.7 826.85 393.35 765.15 397.0 Q730.8 398.1 703.45 395.85 634.05 390.2 586.0 361.4 570.6 352.15 562.75 342.8 557.7 336.8 554.85 330.1 551.75 322.85 551.7 315.65 551.65 306.2 556.95 294.8 562.85 282.2 572.75 272.1 582.65 262.0 595.1 255.75 606.5 250.15 625.65 245.65 663.95 236.7 703.45 234.95 742.95 233.2 781.85 238.65 796.55 240.75 806.05 243.85 818.95 248.05 827.3 255.45 833.6 260.95 835.65 267.1 837.5 272.8 835.85 279.15 834.25 285.25 830.05 290.0 822.8 298.3 808.95 302.05 802.6 303.7 794.45 304.5 L779.7 305.45 Q761.25 306.2 751.7 305.45 736.2 304.2 725.05 298.95 718.5 295.8 718.8 291.55 719.0 288.7 722.25 286.9 724.45 285.65 728.55 284.75 735.8 283.25 742.35 280.5 739.0 277.05 733.55 276.25 728.65 275.5 723.45 277.05 715.55 279.35 711.55 284.9 709.35 287.95 708.8 291.6 708.2 295.45 709.6 298.7 711.95 304.05 720.5 308.0 733.35 314.0 750.5 315.55 762.9 316.65 781.9 315.55 L797.35 314.25 Q805.75 313.15 812.45 311.2 829.25 306.3 838.45 295.25 843.55 289.15 845.6 281.6 847.75 273.7 845.85 266.4 843.55 257.35 834.85 249.15 824.35 239.3 807.8 233.9 795.3 229.85 776.55 227.6 712.85 219.95 647.4 230.85 630.9 233.55 618.45 237.05 603.1 241.3 590.85 247.45 576.95 254.4 566.45 264.2 555.0 274.85 548.85 287.65 541.85 302.25 542.65 318.25 543.55 335.1 552.95 347.05 557.95 353.5 568.2 360.95 591.4 377.85 621.0 388.6 647.85 398.35 679.2 402.85 706.25 406.7 738.85 406.95 L798.8 405.05 839.7 402.35 860.7 400.4 Q872.25 399.05 881.45 397.05 891.3 394.9 903.0 391.0 911.05 388.35 924.05 383.4 936.1 378.8 942.25 375.9 948.7 372.9 958.7 367.35 972.4 359.7 979.9 354.15 991.0 346.0 997.45 336.85 1005.05 326.1 1007.75 312.25 1010.3 299.0 1007.85 285.4 1005.5 272.55 998.95 260.15 992.85 248.5 983.45 238.15 967.4 220.45 940.85 205.6 926.9 197.8 911.65 191.6 897.9 186.05 881.3 181.2 868.0 177.35 850.15 173.25 776.2 156.4 714.45 156.0 702.35 155.9 684.75 156.5 650.6 157.65 620.35 160.4 686.55 149.55 759.8 149.55 861.15 149.55 949.1 170.35 1055.25 195.4 1105.95 241.3 1139.55 271.75 1141.75 302.15 1142.35 311.25 1140.2 320.4 1134.0 345.75 1106.05 371.1 1004.65 462.9 759.8 462.9 514.9 462.9 413.55 371.1 389.0 348.8 381.3 326.6 L379.6 320.9 Q369.65 281.1 413.7 241.3 455.1 203.75 533.65 180.2" fill="#ffffcc" fill-rule="evenodd" stroke="none"/>
      <path d="M379.6 320.9 L381.3 326.6 Q389.0 348.8 413.55 371.1 514.9 462.9 759.8 462.9 1004.65 462.9 1106.05 371.1 1134.0 345.75 1140.2 320.4 1142.35 311.25 1141.75 302.15 1145.3 316.55 1141.85 330.9 1135.7 356.25 1107.75 381.6 1006.35 473.4 761.5 473.4 516.6 473.4 415.25 381.6 390.65 359.3 383.0 337.15 380.15 329.0 379.6 320.9" fill="#993366" fill-rule="evenodd" stroke="none"/>
      <path d="M620.35 160.4 Q650.6 157.65 684.75 156.5 702.35 155.9 714.45 156.0 776.2 156.4 850.15 173.25 868.0 177.35 881.3 181.2 897.9 186.05 911.65 191.6 926.9 197.8 940.85 205.6 967.4 220.45 983.45 238.15 992.85 248.5 998.95 260.15 1005.5 272.55 1007.85 285.4 1010.3 299.0 1007.75 312.25 1005.05 326.1 997.45 336.85 991.0 346.0 979.9 354.15 972.4 359.7 958.7 367.35 948.7 372.9 942.25 375.9 936.1 378.8 924.05 383.4 911.05 388.35 903.0 391.0 891.3 394.9 881.45 397.05 872.25 399.05 860.7 400.4 L839.7 402.35 798.8 405.05 738.85 406.95 Q706.25 406.7 679.2 402.85 647.85 398.35 621.0 388.6 591.4 377.85 568.2 360.95 557.95 353.5 552.95 347.05 543.55 335.1 542.65 318.25 541.85 302.25 548.85 287.65 555.0 274.85 566.45 264.2 576.95 254.4 590.85 247.45 603.1 241.3 618.45 237.05 630.9 233.55 647.4 230.85 712.85 219.95 776.55 227.6 795.3 229.85 807.8 233.9 824.35 239.3 834.85 249.15 843.55 257.35 845.85 266.4 847.75 273.7 845.6 281.6 843.55 289.15 838.45 295.25 829.25 306.3 812.45 311.2 805.75 313.15 797.35 314.25 L781.9 315.55 Q762.9 316.65 750.5 315.55 733.35 314.0 720.5 308.0 711.95 304.05 709.6 298.7 708.2 295.45 708.8 291.6 709.35 287.95 711.55 284.9 715.55 279.35 723.45 277.05 728.65 275.5 733.55 276.25 739.0 277.05 742.35 280.5 735.8 283.25 728.55 284.75 724.45 285.65 722.25 286.9 719.0 288.7 718.8 291.55 718.5 295.8 725.05 298.95 736.2 304.2 751.7 305.45 761.25 306.2 779.7 305.45 L794.45 304.5 Q802.6 303.7 808.95 302.05 822.8 298.3 830.05 290.0 834.25 285.25 835.85 279.15 837.5 272.8 835.65 267.1 833.6 260.95 827.3 255.45 818.95 248.05 806.05 243.85 796.55 240.75 781.85 238.65 742.95 233.2 703.45 234.95 663.95 236.7 625.65 245.65 606.5 250.15 595.1 255.75 582.65 262.0 572.75 272.1 562.85 282.2 556.95 294.8 551.65 306.2 551.7 315.65 551.75 322.85 554.85 330.1 557.7 336.8 562.75 342.8 570.6 352.15 586.0 361.4 634.05 390.2 703.45 395.85 730.8 398.1 765.15 397.0 L826.85 393.35 848.15 391.7 869.3 388.95 Q912.5 381.6 959.45 355.5 968.35 350.55 973.9 346.65 981.4 341.3 986.35 335.45 997.55 322.1 998.95 302.8 1000.25 284.55 992.5 267.55 979.3 238.65 943.1 216.8 918.45 201.95 885.7 191.5 860.85 183.6 824.35 176.35 774.4 166.45 738.3 164.5 723.05 163.65 705.35 163.75 614.45 163.85 533.65 180.2 516.75 183.6 500.3 187.7 L496.45 187.9 Q494.35 187.45 494.1 185.8 493.95 184.4 495.35 183.3 496.5 182.45 498.3 181.95 541.0 170.0 590.65 163.65 L620.35 160.4" fill="#ffd9ba" fill-rule="evenodd" stroke="none"/>
    </g>
    <g id="shape3" transform="matrix(1.0, 0.0, 0.0, 1.0, -315.0, 109.0)">
      <path d="M617.0 438.25 L647.3 499.45 436.2 518.85 405.45 445.15 617.0 438.25 M378.9 413.7 L364.95 346.4 588.1 346.4 619.0 405.2 378.9 413.7 M341.7 305.1 L339.05 242.15 568.7 242.15 587.1 305.1 341.7 305.1 M320.4 172.25 L337.1 129.3 573.7 129.3 568.7 172.25 320.4 172.25 M316.8 62.2 L345.5 10.15 580.55 10.15 566.6 62.2 316.8 62.2 M315.0 -56.95 L346.7 -109.0 601.9 -109.0 568.65 -56.95 315.0 -56.95 M1227.1 697.4 L887.5 541.35 Q1173.05 556.85 1570.9 409.7 L1471.8 547.75 Q1364.5 580.9 1227.1 697.4" fill="#ffd9ba" fill-rule="evenodd" stroke="none"/>
      <path d="M619.0 405.2 L617.0 438.25 405.45 445.15 392.4 429.75 Q385.85 419.95 379.45 414.35 L378.9 413.7 619.0 405.2 M647.3 499.45 L639.1 534.25 439.2 547.4 436.2 518.85 647.3 499.45 M364.95 346.4 L341.7 305.1 587.1 305.1 588.1 346.4 364.95 346.4 M339.05 242.15 L338.95 242.15 320.4 172.25 568.7 172.25 568.7 242.15 339.05 242.15 M337.1 129.3 L316.8 62.2 566.6 62.2 573.7 129.3 337.1 129.3 M345.5 10.15 L315.0 -56.95 568.65 -56.95 580.55 10.15 345.5 10.15 M1471.8 547.75 L1478.6 577.1 Q1325.75 649.7 1203.7 821.35 L1227.1 697.4 Q1364.5 580.9 1471.8 547.75" fill="#fd9c7c" fill-rule="evenodd" stroke="none"/>
      <path d="M601.9 -109.0 L618.6 -29.75 612.55 4.3 Q564.75 295.15 619.0 405.2 L588.1 346.4 587.1 305.1 568.7 242.15 568.7 172.25 573.7 129.3 566.6 62.2 580.55 10.15 568.65 -56.95 601.9 -109.0 M439.2 547.4 Q415.1 463.6 392.4 429.75 L405.45 445.15 436.2 518.85 439.2 547.4" fill="#cc6666" fill-rule="evenodd" stroke="none"/>
    </g>
  </defs>
</svg>
