
<svg xmlns="http://www.w3.org/2000/svg" version="1.1" xmlns:xlink="http://www.w3.org/1999/xlink" preserveAspectRatio="none" x="0px" y="0px" width="300px" height="300px" viewBox="0 0 300 300">
<defs>
<g id="_unknown_0_Layer0_0_FILL">
<path fill="#FFFFFF" stroke="none" d="
M 80.5 118.45
Q 79.6 116.15 77.9 114.35 73 109.1 65.8 108.65 63 108.7 60.15 109.05 51.1 110.5 45.55 117.6 43.75 122.55 44.8 127.7 45.25 130.1 46.6 132.2 47.85 134.2 49.35 136.05 55.55 143.5 65.05 142.6 69.7 142.35 73.95 140.15 77.9 138.05 79.8 134.1 83.5 126.5 80.5 118.45
M 119.45 28.15
Q 115 20.1 107.6 15.05 101 10.6 93.7 7.6 85.6 4.35 77.05 2.5 71.1 1.1 65.1 0.45 56.6 -0.45 48.1 0.5 40 1.45 32.45 4.05 24.7 6.75 17.7 11.45 11.1 15.85 6.4 22.15 1.5 28.75 0.3 36.95 -0.95 45.1 2.95 52.35 5.6 57.15 10.35 59.85 16.2 63.2 23.05 63.6 31.8 64.6 39.65 61.15 44.2 59.05 48.3 56.15 52.95 52.8 58.05 50.65 66.05 47.45 74.55 49.35 78.7 50.15 81.55 53.1 83.1 54.6 83.65 56.7 85.4 63.3 80.8 68.4 77.9 71.65 73.55 72.7 66.75 74.4 60.05 76.1 54.2 77.75 51.7 83.15 50.15 86.6 51.3 90.05 53.55 96.55 60.45 97.1 67.05 97.2 73.75 96.3 82.7 95.45 91.3 92.5 99.25 89.8 105.95 84.7 112.35 79.8 116.95 73.15 121.45 66.6 123.4 58.9 125.35 51.2 124.35 43.2 123.35 35.2 119.45 28.15
M 111.55 49.8
L 111.55 52.25 111.3 53.45 111.55 49.8 Z"/>
</g>
</defs>

<g transform="matrix( 1, 0, 0, 1, 89.65,73.95) ">
<g transform="matrix( 1, 0, 0, 1, 0,0) ">
<use xlink:href="#_unknown_0_Layer0_0_FILL"/>
</g>
</g>
</svg>
