
<svg xmlns="http://www.w3.org/2000/svg" version="1.1" xmlns:xlink="http://www.w3.org/1999/xlink" preserveAspectRatio="none" x="0px" y="0px" width="300px" height="300px" viewBox="0 0 300 300">
<defs>
<g id="kinne_0_Layer1_0_FILL">
<path fill="#FFFEBF" stroke="none" d="
M 184.2 207.45
L 182.65 207.45
Q 181.237109375 207.4470703125 180.6 207.8
L 180.6 207.8
Q 179.3138671875 208.3923828125 178.8 210 178.8111328125 210.03671875 178.8 210.05 178.50390625 210.8345703125 178.5 212.45 178.49453125 213.7734375 179.05 214.4 179.546875 215.2009765625 181.15 215.35
L 181.15 215.35
Q 184.5369140625 215.5810546875 186.35 213.7 186.3744140625 213.6755859375 186.4 213.65 187 212.95 187.3 212.6
L 187.3 212.6
Q 187.58984375 212.2712890625 187.8 212.15 188.110546875 212.125 188.3 211.9 188.547265625 211.7279296875 188.6 211.45 188.8716796875 210.4994140625 188.4 209.55 188.387890625 209.5263671875 188.35 209.5 187.8697265625 208.646484375 187.05 208.2
L 187.15 208.25
Q 186.1369140625 207.5662109375 184.25 207.45 184.236328125 207.448828125 184.2 207.45
M 203.15 228.05
L 203.15 227.95
Q 203.05625 225.2150390625 201.25 222.35 200.110546875 220.5626953125 197.6 217.85
L 194.3 214.3
Q 194.0591796875 214.03671875 193.65 214 193.3 213.9658203125 193 214.2 191.7806640625 215.1400390625 190.35 215.8 189.442578125 216.249609375 188.65 216.2 188.4296875 216.09765625 188.1 216.1 187.7349609375 216.096484375 187.45 216.3 187.18515625 216.5498046875 186.85 216.75 185.97109375 217.4123046875 185.45 217.65 183.6330078125 218.4828125 180.85 217.8
L 180.85 217.8
Q 179.98125 217.6455078125 179.25 217.35 178.88671875 217.2314453125 178.5 217.35 177.537890625 217.7685546875 176.15 217.9 175.871484375 217.9251953125 175.65 218.1 175.4103515625 218.2783203125 175.3 218.55 175.1541015625 218.9486328125 174.9 219.25 174.6720703125 219.587109375 174.7 219.95 174.718359375 220.2091796875 174.8 220.4 176.1412109375 224.9064453125 177.35 227.45
L 177.75 228.4 178.05 229.55 178.05 229.45
Q 178.1044921875 229.680078125 178.1 229.85 178.098046875 230.13359375 178.25 230.35 179.1125 231.7380859375 179.95 233
L 179.95 233
Q 180.92109375 234.392578125 182 235.55
L 182.05 235.55
Q 185.8451171875 239.25625 191.05 239.25
L 191.05 239.25
Q 196.3767578125 239.1369140625 200 235.45
L 200 235.45
Q 203.3259765625 232.0294921875 203.15 228.05
M 84.8 218.55
Q 84.6896484375 218.2783203125 84.45 218.1 84.228515625 217.9251953125 83.95 217.9 82.562109375 217.7685546875 81.55 217.35 81.2130859375 217.2314453125 80.85 217.35 80.1185546875 217.6455078125 79.25 217.8
L 79.2 217.8
Q 76.466796875 218.4828125 74.6 217.65 74.1287109375 217.4123046875 73.2 216.75 72.91484375 216.5498046875 72.65 216.3 72.3650390625 216.096484375 72 216.1 71.6705078125 216.09765625 71.4 216.2 70.6576171875 216.2498046875 69.7 215.8 68.319140625 215.1400390625 67.1 214.2 66.8 213.9658203125 66.4 214 66.0408203125 214.03671875 65.75 214.3
L 62.45 217.85
Q 59.9892578125 220.5626953125 58.85 222.35 57.0435546875 225.2150390625 56.95 227.95
L 56.95 228.05
Q 56.773828125 232.0294921875 60.05 235.45
L 60.1 235.45
Q 63.723046875 239.1369140625 69 239.25
L 69.05 239.25
Q 74.2548828125 239.25625 78.05 235.55
L 78.05 235.55
Q 79.17890625 234.392578125 80.1 233
L 80.1 233
Q 80.9873046875 231.7380859375 81.85 230.35 82.0017578125 230.13359375 82 229.85 81.9955078125 229.680078125 82 229.45
L 82 229.55 82.3 228.4 82.75 227.45
Q 83.9587890625 224.90625 85.25 220.4 85.381640625 220.2091796875 85.4 219.95 85.4279296875 219.587109375 85.2 219.25 84.945703125 218.9486328125 84.8 218.55
M 81.3 210.05
Q 81.290234375 210.035546875 81.25 210 80.7861328125 208.3923828125 79.45 207.8
L 79.5 207.8
Q 78.862890625 207.4470703125 77.45 207.45
L 75.9 207.45
Q 75.863671875 207.448828125 75.8 207.45 73.962890625 207.5662109375 72.95 208.25
L 73 208.2
Q 72.230078125 208.646484375 71.7 209.5 71.712109375 209.5263671875 71.7 209.55 71.2283203125 210.4994140625 71.45 211.45 71.5525390625 211.7279296875 71.75 211.9 71.989453125 212.125 72.25 212.15 72.5099609375 212.2712890625 72.75 212.6
L 72.8 212.6
Q 73.1 212.95 73.7 213.65 73.725390625 213.6755859375 73.75 213.7 75.5630859375 215.5810546875 78.9 215.35
L 78.95 215.35
Q 80.553125 215.2009765625 81.05 214.4 81.6052734375 213.7734375 81.6 212.45 81.5958984375 210.834765625 81.3 210.05
M 99.15 203.15
Q 99.1873046875 202.902734375 99.05 202.65 98.9578125 202.389453125 98.7 202.2 98.4861328125 202.0662109375 98.2 202.05 94.200390625 201.8099609375 90.25 201.15 90.199609375 201.1599609375 90.15 201.15 89.2740234375 201.0990234375 88.45 201.1 88.117578125 201.101171875 87.85 201.3 87.590234375 201.4908203125 87.5 201.8 86.8998046875 203.7095703125 85.05 205.45
L 85.05 205.45
Q 84.1666015625 206.269140625 83.5 206.55 83.45078125 206.59765625 83.4 206.6 83.16640625 206.7578125 82.9 206.8 82.55546875 206.91953125 82.35 207.2 82.1271484375 207.5177734375 82.15 207.85 82.185546875 208.2392578125 82.45 208.5
L 82.65 208.7
Q 83.5966796875 210.025390625 83.6 212.95 83.5978515625 213.9359375 83.55 214.45 83.5232421875 214.7380859375 83.65 215 83.780078125 215.25234375 84 215.4 84.2671875 215.55 84.55 215.55 84.7 215.55 84.9 215.55 85.4 215.55 85.85 215.55 86.2205078125 215.5486328125 86.5 215.3 86.670703125 215.166796875 86.9 215.15
L 86.95 215.15
Q 87.233984375 215.1037109375 87.45 215.25 87.78671875 215.445703125 88.15 215.35 92.4990234375 214.679296875 95.65 211.1
L 95.65 211.1
Q 98.5564453125 207.848828125 99.15 203.15
M 161.9 202.05
Q 161.6138671875 202.0662109375 161.35 202.2 161.1419921875 202.389453125 161 202.65 160.9126953125 202.902734375 160.95 203.15 161.5435546875 207.848828125 164.45 211.1
L 164.45 211.1
Q 167.60078125 214.679296875 171.95 215.35 172.31328125 215.445703125 172.6 215.25 172.866015625 215.1037109375 173.15 215.15
L 173.2 215.15
Q 173.430859375 215.1630859375 173.6 215.3 173.8794921875 215.5486328125 174.25 215.55 174.7 215.55 175.2 215.55 175.4 215.55 175.55 215.55 175.8328125 215.55 176.05 215.4 176.319921875 215.25234375 176.45 215 176.5765625 214.7380859375 176.55 214.45 176.501953125 213.9359375 176.5 212.95 176.503125 210.025390625 177.45 208.7
L 177.65 208.5
Q 177.9142578125 208.2392578125 177.95 207.85 177.9728515625 207.5177734375 177.75 207.2 177.5443359375 206.91953125 177.2 206.8 176.9333984375 206.7583984375 176.7 206.6 176.64921875 206.59765625 176.6 206.55 175.933203125 206.269140625 175.05 205.45
L 175 205.45
Q 173.2 203.709375 172.6 201.8 172.5095703125 201.4908203125 172.25 201.3 171.982421875 201.101171875 171.65 201.1 170.82578125 201.0990234375 169.95 201.15 169.900390625 201.1599609375 169.85 201.15 165.899609375 201.8099609375 161.9 202.05
M 64.85 196.6
Q 64.49609375 196.57109375 64.2 196.75 63.884765625 196.984765625 63.65 197.3
L 63.7 197.25
Q 63.2 197.7919921875 63.2 199.4
L 63.2 199.45
Q 63.4103515625 202.8796875 63.7 204.65 64.2607421875 207.7205078125 65.5 209.8
L 65.45 209.75
Q 65.857421875 210.48984375 66.35 211.15 66.508984375 211.366015625 66.75 211.45 66.86015625 211.5248046875 66.95 211.6
L 67 211.65 67 211.65 67.05 211.7
Q 67.1583984375 211.9046875 67.25 212.1 67.33046875 212.23984375 67.45 212.35 68.3158203125 213.2318359375 69.4 213.95 69.7220703125 214.1529296875 70.1 214.1 70.461328125 214.0404296875 70.7 213.75 70.9482421875 213.4708984375 70.95 213.1 70.9513671875 211.800390625 70.9 211.1
L 70.9 211.1
Q 70.815625 210.257421875 70.85 209.8
L 70.85 209.8
Q 71.061328125 208.4294921875 72.6 207.15
L 72.6 207.1
Q 73.6201171875 206.3923828125 74.4 206.15 74.43671875 206.1630859375 74.45 206.15 74.577734375 206.1134765625 74.75 206.05 75.14296875 205.99921875 75.35 205.65 75.6076171875 205.346484375 75.55 204.95 75.4904296875 204.5501953125 75.15 204.3 74.7916015625 204.004296875 74.45 203.6
L 74.4 203.6
Q 72.21328125 201.28203125 71.4 197.65 71.350390625 197.3400390625 71.05 197.1 70.7998046875 196.901171875 70.45 196.9 67.846484375 196.897265625 64.85 196.6
M 56.1 132.95
Q 55.8716796875 133.12890625 55.75 133.35 55.630078125 133.61171875 55.65 133.85
L 56.6 145.45
Q 56.6341796875 145.8623046875 56.9 146.1 57.21171875 146.3958984375 57.6 146.4 67.216796875 146.3501953125 72 146.2 80.13046875 145.9517578125 86.4 145.2 87.95625 145.0458984375 93.4 144.25 97.616015625 143.7 100.2 143.45 100.5720703125 143.40859375 100.8 143.1 101.087890625 142.8505859375 101.1 142.45 101.2009765625 137.7423828125 100.95 131.15 100.933984375 130.76875 100.65 130.5 100.36796875 130.215625 99.95 130.2 91.0849609375 129.94609375 78.15 131
L 78.15 131
Q 63.780078125 132.34921875 56.6 132.8 56.3267578125 132.8205078125 56.1 132.95
M 189.65 196.9
Q 189.3001953125 196.901171875 189 197.1 188.749609375 197.3400390625 188.65 197.65 187.8865234375 201.28203125 185.65 203.6
L 185.65 203.6
Q 185.3083984375 204.004296875 184.9 204.3 184.6095703125 204.5501953125 184.55 204.95 184.4923828125 205.346484375 184.7 205.65 184.9568359375 205.99921875 185.35 206.05 185.5220703125 206.1134765625 185.6 206.15 185.66328125 206.1630859375 185.7 206.15 186.4798828125 206.3923828125 187.45 207.1
L 187.5 207.15
Q 189.051953125 208.4408203125 189.25 209.8 189.2841796875 210.2576171875 189.2 211.1
L 189.2 211.1
Q 189.1484375 211.800390625 189.15 213.1 189.1517578125 213.4708984375 189.4 213.75 189.638671875 214.0404296875 190 214.1 190.3779296875 214.1529296875 190.7 213.95 191.784375 213.2318359375 192.65 212.35 192.7693359375 212.23984375 192.85 212.1 192.94140625 211.9046875 193.05 211.7 193.06171875 211.675 193.05 211.65
L 193.1 211.6
Q 193.2404296875 211.524609375 193.35 211.45 193.5908203125 211.366015625 193.75 211.15 194.2423828125 210.4900390625 194.6 209.75
L 194.6 209.8
Q 195.8390625 207.7205078125 196.35 204.65 196.689453125 202.8796875 196.9 199.45
L 196.9 199.4
Q 196.9 197.7919921875 196.4 197.25
L 196.4 197.3
Q 196.215234375 196.984765625 195.9 196.75 195.6037109375 196.57109375 195.25 196.6 192.2533203125 196.897265625 189.65 196.9
M 194.85 154.85
Q 194.734765625 154.623046875 194.5 154.45 194.261328125 154.311328125 193.95 154.3
L 191.55 154.25
Q 183.793359375 154.0498046875 180.9 153.9 174.9421875 153.6486328125 170.3 153.1 167.6830078125 152.79921875 162.35 152.05
L 162.3 152.05
Q 157.566796875 151.446484375 154.15 151.35 151.73515625 151.3060546875 150.7 151.1 149.0736328125 150.7880859375 148.25 149.9
L 148.2 149.9
Q 147.494921875 149.1021484375 147.3 147.65 147.2876953125 147.65234375 147.25 147.6 147.1001953125 146.50859375 147.2 144.55
L 147.8 131.55
Q 147.8154296875 131.15234375 147.55 130.85 147.2919921875 130.543359375 146.9 130.5 146.49765625 130.4572265625 146.15 130.7
L 135 139.35
Q 134.3271484375 139.0984375 133.55 138.95
L 133.5 138.95
Q 132.6759765625 138.84296875 130.95 138.9
L 130.95 138.9
Q 129.5037109375 138.99453125 128.75 138.85
L 128.75 138.85
Q 128.0919921875 138.7578125 126.45 138.25 124.7109375 137.6869140625 123.7 137.7
L 123.65 137.7
Q 122.326953125 137.7443359375 121.1 138.4
L 110.05 130.8
Q 109.75546875 130.6013671875 109.35 130.65 108.983984375 130.701953125 108.7 131 108.4791015625 131.3072265625 108.5 131.7
L 109.05 144.55
Q 109.1498046875 146.50859375 108.95 147.6 108.962109375 147.65234375 108.95 147.65 108.7548828125 149.1021484375 108 149.9
L 108 149.9
Q 107.1701171875 150.7943359375 105.5 151.1 104.4859375 151.306640625 102.05 151.35 98.6830078125 151.446484375 93.9 152.05
L 93.9 152.05
Q 88.579296875 152.79921875 85.95 153.1
L 85.9 153.1
Q 81.3078125 153.6486328125 75.35 153.9 73.0611328125 154 67.7 154.2 67.5025390625 154.2041015625 67.3 154.3 67.10859375 154.401171875 66.95 154.55 65.768359375 156.0810546875 64.1 159.3 63.162109375 161.1875 62.1 163.1 61.9455078125 163.4583984375 62 163.8 62.1041015625 164.1828125 62.4 164.4 63.4671875 165.19609375 64.7 166.75
L 64.7 166.8
Q 66.729296875 169.1984375 67.25 169.7 69.439453125 171.90859375 73.2 173.85
L 73.15 173.8
Q 77.0416015625 175.8646484375 82 177.65 85.4439453125 178.848828125 91.15 180.55 95.607421875 181.8865234375 98.05 182.25
L 98 182.2
Q 100.4818359375 182.6431640625 104.45 182.7 109.4818359375 182.800390625 110.7 182.9 112.8455078125 183.0701171875 113.75 183.7 114.2904296875 184.1513671875 114.7 184.95
L 114.7 184.95
Q 114.9306640625 185.41484375 115.4 186.7 115.9869140625 188.479296875 116 189.6 115.9970703125 190.28984375 115.75 190.8 115.6189453125 191.060546875 115.65 191.35 115.6865234375 191.64296875 115.85 191.85 116.108203125 192.1625 116.4 192.45
L 116.3 192.4
Q 117.14453125 193.370703125 118.45 194.75 119.1537109375 195.65234375 120.95 198.4 123.8783203125 202.8302734375 127.75 206.7 128.74765625 207.698828125 129.5 207.35 130.1724609375 207.3416015625 130.75 206.35
L 130.75 206.35
Q 135.0162109375 198.78984375 137.5 195.55 139.2623046875 193.36328125 139.55 192.75
L 139.6 192.75
Q 139.725 192.490625 139.85 192.25
L 139.85 192.25
Q 140.22578125 191.6490234375 140.4 191.3
L 140.4 191.3
Q 140.7197265625 190.816015625 141.05 190.5 141.2224609375 190.3517578125 141.3 190.15 141.394140625 189.95859375 141.4 189.75 141.4 189.625 141.4 189.5 141.731640625 186.598046875 142.85 185.65
L 142.9 185.65
Q 143.4498046875 185.2685546875 144.3 185.2 144.3599609375 185.2005859375 144.4 185.2 145.043359375 185.1087890625 146.35 185.15 154.6744140625 185.4623046875 166.95 182.5
L 167 182.5
Q 173.713671875 180.8869140625 179 178.9 181.09921875 178.71875 182.85 177.75 182.8755859375 177.738671875 182.9 177.7 183.546484375 177.394921875 185 176.35 185.3640625 176.2140625 185.7 176.05 187.23671875 175.25859375 188.7 174.35 189.3984375 174.1880859375 190.3 174
L 190.3 174.05
Q 192.4263671875 173.7267578125 193.2 173.45
L 193.15 173.45
Q 196.6169921875 172.451953125 198.45 169 200.4341796875 165.5234375 198.95 162.25
L 198.95 162.2
Q 198.2078125 160.5994140625 196.75 159.4
L 196 157.6
Q 195.3615234375 155.996484375 194.85 154.85
M 133.05 180.75
L 133.2 184.95
Q 133.274609375 186.5501953125 132.85 187.2 132.2669921875 188.0109375 130.7 188.3 128.4736328125 188.7466796875 126.2 188.6
L 126.3 188.6
Q 125.3013671875 188.4591796875 124.9 188.2
L 124.9 188.2
Q 124.53984375 187.752734375 124.4 186.45
L 123.65 179.25
Q 123.5880859375 178.244921875 123.75 177.8 124.0185546875 177.4453125 124.6 177.3
L 124.6 177.35
Q 125.18203125 177.2603515625 126.35 177.3
L 126.4 177.3
Q 126.9 177.3 128.55 177.3
L 128.6 177.3
Q 129.7931640625 177.257421875 130.5 177.35 131.7546875 177.491796875 132.35 177.95
L 132.35 177.95
Q 132.975390625 178.739453125 133.05 180.75
M 162.85 144.25
Q 168.337890625 145.05234375 169.85 145.2 176.13515625 145.9521484375 184.2 146.2 189.033203125 146.3501953125 198.65 146.4 199.03828125 146.3958984375 199.3 146.1 199.6158203125 145.8623046875 199.65 145.45
L 200.6 133.85
Q 200.6197265625 133.61171875 200.5 133.35 200.3783203125 133.12890625 200.15 132.95 199.923046875 132.8205078125 199.65 132.8 192.4697265625 132.34921875 178.1 131
L 178.05 131
Q 165.1650390625 129.94609375 156.25 130.2 155.88203125 130.215625 155.6 130.5 155.316015625 130.76875 155.3 131.15 155.048828125 137.7423828125 155.15 142.45 155.162109375 142.8505859375 155.4 143.1 155.6779296875 143.40859375 156.05 143.45 158.6337890625 143.7 162.85 144.25 Z"/>

<path fill="#541DC3" stroke="none" d="
M 102.75 18.4
L 102.75 18.4
Q 102.46328125 17.593359375 100.9 16.9 88.5916015625 11.3046875 75.05 7.95 74.638671875 7.878515625 74.25 8.1 73.919921875 8.3193359375 73.8 8.7 73.555859375 9.7767578125 73.9 11.2 73.9529296875 11.302734375 74 11.4 74.0400390625 11.4955078125 74.65 13.25 75.336328125 15.292578125 74.6 16.3 74.5994140625 16.351171875 74.55 16.35 74.0814453125 16.9427734375 72.45 17.3
L 72.45 17.3
Q 65.8328125 19.0224609375 62.4 19.7 56.8318359375 20.80625 52.3 21.05 49.8384765625 21.1556640625 48.4 21.45 48.041796875 21.566796875 47.8 21.9 47.6060546875 22.230859375 47.65 22.6 47.725 22.925 47.75 23.2
L 47.75 23.2
Q 48.5185546875 28.0392578125 50.05 32.65 50.1546875 32.98671875 50.4 33.15 50.696484375 33.3619140625 51 33.35 53.258203125 33.30546875 63.55 34.15 71.4767578125 34.8181640625 76.35 33.55 77.2515625 33.348828125 77.7 33.3
L 77.7 33.3
Q 78.2375 33.2384765625 78.6 33.4
L 78.65 33.4
Q 79.309765625 33.80390625 79.9 35.3
L 82.05 41.35
Q 82.0625 41.3978515625 82.05 41.4 82.175 41.675 82.25 41.9 82.3947265625 42.2306640625 82.65 42.4 82.966015625 42.578515625 83.3 42.55 83.6279296875 42.5091796875 83.85 42.25 93.743359375 33.1705078125 102 21.85 103.5619140625 19.72265625 102.75 18.4
M 124.95 182.6
Q 125.1974609375 184.0244140625 125.2 184.3 125.196875 184.3478515625 125.2 184.4 125.2330078125 184.7720703125 125.15 185.45 125.126953125 185.7466796875 125.25 186 125.3564453125 186.259765625 125.55 186.4 125.800390625 186.5814453125 126.05 186.6 128.4107421875 186.7609375 130.5 185.9 130.8056640625 185.8083984375 130.95 185.55 131.1494140625 185.30078125 131.15 185 131.151171875 182.78671875 131.3 180.45 131.3154296875 180.1837890625 131.15 179.9 131.044921875 179.669921875 130.8 179.5 130.5416015625 179.384375 130.25 179.4
L 125.85 179.6
Q 125.511328125 179.609375 125.25 179.8 124.9923828125 180.0572265625 124.9 180.4 124.7302734375 181.2416015625 124.95 182.6 Z"/>

<path fill="#FFD16D" stroke="none" d="
M 162.25 197.4
Q 162.6140625 197.34140625 162.85 197.05 163.1005859375 196.757421875 163.1 196.35 163.0990234375 196.0013671875 162.85 195.7 162.597265625 195.444140625 162.2 195.4 156.8935546875 194.798828125 153.95 194.6
L 153.95 194.6
Q 150.2669921875 194.4 148.4 194.25 146.5529296875 194.0486328125 144.95 193.85 144.71796875 193.823828125 144.45 193.9 144.0994140625 194.07421875 143.8 194.3 143.761328125 194.3255859375 143.7 194.35 143.276171875 194.748828125 142.2 195.7
L 142.2 195.7
Q 140.1361328125 197.643359375 138 201.05 136.8517578125 202.9341796875 134.6 206.75
L 134.6 206.7
Q 133.3439453125 208.7607421875 131.7 210.7
L 131.65 210.7
Q 130.225 212.4775390625 129 212.5 128.1369140625 212.3986328125 126.9 211.25
L 126.95 211.25
Q 123.0796875 207.558203125 117.3 200.3
L 112.6 194.45
Q 112.4373046875 194.23828125 112.15 194.15 111.8494140625 194.0595703125 111.55 194.15 110.491796875 194.4615234375 108.65 194.55
L 96.85 195.3
Q 96.4919921875 195.3205078125 96.2 195.6 95.9552734375 195.884375 95.95 196.25 95.941796875 196.673828125 96.2 196.95 96.4603515625 197.263671875 96.85 197.3 98.7966796875 197.4896484375 100.5 197.8
L 100.55 197.8
Q 102.8861328125 198.21171875 103.9 199.25
L 103.85 199.25
Q 104.77578125 200.362890625 104.95 202.5 105.1806640625 205.7716796875 104.05 208.9 102.9689453125 212.09140625 100.85 214.55 98.6765625 216.9974609375 95.7 218.5
L 95.65 218.5
Q 95.2623046875 218.74765625 94.85 218.9 94.65 219.015234375 94.5 219.15 94.3626953125 219.328515625 94.3 219.5 94.02265625 220.34375 93.45 221.3 92.4125 223.151171875 92.3 223.3 92.2845703125 223.3494140625 92.25 223.4 91.5466796875 224.81328125 91.55 226
L 91.55 226.05
Q 91.49140625 227.1462890625 92.1 228.45 92.2642578125 228.9009765625 92.5 229.3 92.5353515625 229.351171875 92.55 229.35 93.661328125 231.47421875 93.85 231.9 94.051171875 232.44140625 94.4 233.45
L 94.4 233.45
Q 94.8068359375 234.7318359375 95.55 235.3
L 95.6 235.35
Q 96.369921875 235.9701171875 98.05 236.3 120.0740234375 240.8037109375 142.45 239.6 150.201953125 239.190234375 157.4 238
L 157.4 238
Q 160.4955078125 237.465625 161.65 236.35
L 161.65 236.35
Q 162.59921875 235.5623046875 163.5 233.5
L 163.5 233.5 167.95 223.9
Q 168.6013671875 222.5326171875 169.25 221.65 169.4548828125 221.3701171875 169.45 221 169.4408203125 220.6875 169.2 220.4 169.0087890625 220.1576171875 168.65 220.05 166.48984375 219.54921875 164.4 218.5 161.4234375 216.9974609375 159.25 214.55 157.130859375 212.09140625 156.05 208.9 154.919140625 205.7716796875 155.15 202.5 155.3240234375 200.362890625 156.2 199.25
L 156.15 199.25
Q 157.213671875 198.21171875 159.55 197.8
L 159.6 197.8
Q 160.87578125 197.587890625 162.25 197.4 Z"/>

<path fill="#66CC99" stroke="none" d="
M 186.15 64.1
Q 173.601171875 54.8642578125 167.35 51.05 156.5646484375 44.50234375 147.35 42.35 135.3611328125 39.5255859375 118.15 42.65 108.562109375 44.3326171875 99.05 47.35 98.9740234375 47.36875 98.9 47.4 74.984765625 59.69140625 61.95 68.4 59.6265625 69.9400390625 57.55 71.35 54.5037109375 70.3591796875 51.45 71.3
L 51.45 71.3
Q 47.1546875 72.551953125 45 77.05 43.803515625 79.5541015625 43.8 81.95 40.6048828125 84.977734375 38.1 88.3 34.312890625 93.2734375 30.8 97.45
L 30.85 97.4
Q 21.3470703125 107.55234375 15.5 116.9 12.1275390625 122.358203125 10.2 127.4 9.4328125 128.366796875 8.65 129.45
L 8.65 129.45
Q 5.0955078125 134.396484375 4.8 138.3 4.518359375 141.72265625 6.3 144.9
L 6.35 144.9
Q 7.3685546875 146.6181640625 8.75 147.8 9.45234375 150.094921875 10.65 152.6
L 10.6 152.6
Q 11.5912109375 154.7892578125 13.65 158.5
L 13.65 158.45
Q 16.50625 163.6431640625 18.2 166.05 21.076953125 170.21953125 24.35 172.55
L 24.35 172.55
Q 24.94609375 172.976953125 26 173.65
L 25.9 173.65
Q 26.7095703125 174.2484375 27.15 174.8 27.1986328125 174.8525390625 27.25 174.9 27.2806640625 174.9439453125 27.3 175 27.4091796875 175.2076171875 27.6 175.35 27.7783203125 175.485546875 28 175.5 28.9333984375 175.7068359375 29.55 176.45 30.2501953125 177.437109375 30.6 179.9
L 30.6 179.9
Q 32.252734375 189.448828125 36.5 196 36.9625 196.7130859375 37.4 197.35 42.356640625 204.2744140625 49.55 207.15 53.273046875 208.6767578125 58.85 209.35 59.19140625 209.3796875 59.45 209.2 59.7541015625 209.0771484375 59.9 208.8 60.0416015625 208.5291015625 60 208.2 59.2091796875 202.1263671875 59.4 197.75 59.5728515625 194.5052734375 60.85 193.3
L 60.85 193.3
Q 61.2990234375 192.9119140625 61.85 192.65 62.8109375 192.3072265625 64.1 192.35
L 64.15 192.35
Q 64.817578125 192.3546875 66.15 192.5
L 66.15 192.5
Q 67.62421875 192.601953125 68.35 192.6 69.290625 192.601171875 71.1 192.5
L 71.15 192.5
Q 72.015625 192.5560546875 72.65 192.7
L 72.7 192.7
Q 72.810546875 192.752734375 72.9 192.8 73.136328125 192.9185546875 73.4 192.9 73.6712890625 192.87890625 73.9 192.7
L 73.95 192.7
Q 74.01171875 192.70390625 74.05 192.65 74.1693359375 192.6482421875 74.3 192.65 74.490234375 192.6455078125 74.65 192.7 74.874609375 192.7826171875 75.05 192.95
L 75.1 193
Q 75.506640625 193.4771484375 75.65 194.1
L 75.7 194.1
Q 75.821875 194.58671875 75.95 195.7 76.0111328125 196.32890625 76.1 196.8 76.200390625 197.1837890625 76.5 197.4 76.8162109375 197.6291015625 77.2 197.6 77.5685546875 197.557421875 77.8 197.25 78.65546875 196.408203125 79.75 195.35
L 79.8 195.3
Q 81.7802734375 193.535546875 82.7 192.85 82.8673828125 192.7251953125 83.05 192.6
L 83.1 192.55
Q 84.534375 191.6103515625 85.85 191.15 87.5787109375 190.5953125 91.2 190.5
L 109.45 190.3
Q 109.748046875 190.3021484375 110 190.15 110.235546875 189.9892578125 110.35 189.7 110.525390625 189.3703125 110.85 189.1 110.9859375 189.069921875 111.1 189 111.3375 188.8416015625 111.45 188.55 111.5822265625 188.2974609375 111.55 188 111.505859375 187.73046875 111.5 187.5 111.503515625 187.0931640625 111.2 186.8 110.93515625 186.5107421875 110.5 186.5 88.284375 185.762109375 68.15 176.6
L 68.15 176.6
Q 62.3125 173.96875 59.05 171.15 58.8212890625 170.9462890625 58.5 170.9 58.2361328125 170.86484375 57.95 171 57.7052734375 171.136328125 57.55 171.4 56.4 173.3375 55.2 175.3
L 55.15 175.35
Q 53.8515625 177.6896484375 52.5 177.95
L 52.45 177.95
Q 51.8025390625 178.0341796875 51.25 177.55 51.2244140625 177.562890625 51.2 177.55 50.6224609375 177.1181640625 50.55 176.45 50.5216796875 175.5724609375 51.35 174
L 56.05 165.5
Q 56.1388671875 165.4169921875 56.15 165.3 56.3560546875 164.580859375 56.8 164.05 56.825 164.025 56.85 164 56.953125 163.898046875 57 163.75
L 59.75 158.75 59.75 158.8
Q 60.662109375 157.20078125 61.45 155.85 61.639453125 155.534765625 61.55 155.15 61.5115234375 154.810546875 61.2 154.55 60.940234375 154.33984375 60.55 154.35
L 56.55 154.45
Q 54.4197265625 154.4998046875 53.25 154.25
L 53.2 154.25
Q 51.565234375 153.9837890625 50.6 153.05
L 50.6 153
Q 49.7466796875 152.197265625 49.35 150.8 49.138671875 149.8412109375 48.9 147.85
L 47.65 134.95
Q 47.476953125 132.921875 47.5 131.5 47.7376953125 131.374609375 47.9 131.25 51.3673828125 128.589453125 53.75 125.9 53.9806640625 125.871484375 54.2 125.85 62.1994140625 125.05 78.1 123.4 91.765625 122.1548828125 102 122.55 104.9001953125 122.7216796875 106.05 123.5
L 106.05 123.5
Q 106.3576171875 123.7173828125 106.6 123.95 106.7001953125 124.055078125 106.8 124.1 107.7166015625 124.596875 108.75 125.35
L 108.75 125.35
Q 118.4388671875 132.2388671875 126.65 137.6 126.6994140625 137.626953125 126.75 137.65 126.85 137.7 126.95 137.75 127.14140625 137.84375 127.35 137.85 127.5671875 137.8568359375 127.75 137.75 127.955859375 137.7224609375 128.15 137.8 128.518359375 137.91796875 128.75 138.15 128.9466796875 138.378125 129.2 138.45 129.5 138.5408203125 129.75 138.45 130.46171875 138.3005859375 131.45 137.55
L 140.15 131.1
Q 144.2646484375 128.0564453125 146.5 125.9 147.615625 124.8541015625 148.05 124.5
L 148.05 124.5
Q 148.7091796875 124.048828125 149.3 124 149.525390625 123.9828125 149.7 123.85 149.9171875 123.7734375 150.05 123.6 150.12734375 123.555078125 150.2 123.5 151.349609375 122.7216796875 154.25 122.55 164.4841796875 122.1548828125 178.15 123.4 194.050390625 125.05 202.05 125.85 203.9443359375 126.037890625 204.95 126.25 206.3796875 126.654296875 207.2 127.4
L 207.2 127.35
Q 208.3634765625 128.490234375 208.65 130.6 208.83515625 132.17578125 208.6 134.95
L 207.35 147.9
Q 207.1095703125 149.847265625 206.85 150.8 206.503125 152.197265625 205.65 153
L 205.65 153.05
Q 204.6845703125 153.9837890625 203 154.25
L 203 154.25
Q 201.830078125 154.4998046875 199.65 154.45
L 198.05 154.4
Q 197.7314453125 154.3916015625 197.45 154.6 197.1693359375 154.8 197.05 155.1 196.987109375 155.4548828125 197.1 155.75
L 199.7 162.05 199.7 162.1
Q 200.6748046875 164.35 201.5 166.35 201.60859375 166.5205078125 201.75 166.65 201.8 166.7 201.9 166.8 202.5490234375 167.4599609375 202.5 168.25 202.4984375 168.312890625 202.5 168.35
L 202.5 168.4
Q 202.4951171875 168.6072265625 202.55 168.8 204.4380859375 173.0140625 205.8 175.9
L 205.75 175.9
Q 206.3611328125 177.2205078125 206.2 177.9
L 206.2 177.85
Q 206.0859375 178.18671875 205.7 178.3
L 205.65 178.3
Q 205.2783203125 178.4392578125 204.95 178.25 204.9236328125 178.2623046875 204.9 178.25 204.373046875 177.890625 203.7 176.4
L 203.7 176.4 201.85 171.85
Q 201.7509765625 171.5755859375 201.45 171.4 201.2103515625 171.229296875 200.9 171.25 200.57890625 171.2705078125 200.3 171.45 197.2279296875 173.9865234375 193.05 176.45
L 193.05 176.4
Q 174.5181640625 187.2673828125 146.65 189.65 146.272265625 189.68046875 146 189.95 145.7357421875 190.27578125 145.75 190.65 145.765234375 191.0708984375 146.05 191.35 146.3294921875 191.6349609375 146.7 191.65 151.1908203125 191.7515625 156.6 192.25
L 156.6 192.25
Q 157.2111328125 192.3013671875 161.1 192.75
L 161.15 192.75
Q 164.3384765625 193.1 169.85 193.75
L 169.9 193.75
Q 173.536328125 194.101171875 174.8 194.05
L 174.85 194.05
Q 177.4630859375 194.05390625 178.2 194.2
L 178.15 194.2
Q 179.8505859375 194.742578125 182.05 197.2
L 182.05 197.2
Q 182.21015625 197.4892578125 182.45 197.6 182.7587890625 197.783984375 183.05 197.75 183.391015625 197.70078125 183.6 197.45 183.860546875 197.2595703125 183.9 196.95 184.0373046875 196.4279296875 184.15 195.75
L 184.15 195.7
Q 184.278125 194.58671875 184.4 194.1
L 184.4 194.1
Q 184.5931640625 193.4771484375 185 193
L 185 192.95
Q 185.2404296875 192.7806640625 185.45 192.7 185.6248046875 192.6505859375 185.8 192.65 185.975390625 192.6478515625 186.1 192.7 186.1619140625 192.708203125 186.2 192.7 186.4287109375 192.87890625 186.7 192.9 186.963671875 192.9185546875 187.2 192.8 187.289453125 192.752734375 187.4 192.7
L 187.45 192.7
Q 188.07734375 192.5578125 188.9 192.5 188.95 192.502734375 189 192.5 190.809375 192.601171875 191.75 192.6 192.4755859375 192.601953125 193.9 192.5
L 193.95 192.5
Q 195.2822265625 192.3546875 195.95 192.35
L 195.95 192.35
Q 197.2890625 192.3072265625 198.2 192.65 198.8009765625 192.9119140625 199.2 193.3
L 199.25 193.3
Q 200.526953125 194.5052734375 200.7 197.75 200.8439453125 201.4341796875 200.35 206.25 200.3125 206.635546875 200.55 206.95 200.7892578125 207.2583984375 201.15 207.3 201.5490234375 207.40234375 201.85 207.2 202.6615234375 206.7078125 204.3 205.8
L 204.35 205.8
Q 207.4072265625 204.0458984375 210.35 200.05 213.159765625 196.3171875 215.1 192.15 216.4296875 189.36484375 217.35 186.35
L 217.35 186.35
Q 217.8990234375 184.74765625 218.35 184.15 218.4001953125 184.1486328125 218.4 184.1 219.1767578125 183.240234375 220.4 183.45 220.6498046875 183.51875 220.85 183.6 221.0978515625 183.6724609375 221.3 183.65 221.5376953125 183.6201171875 221.7 183.5 222.5927734375 182.9802734375 224.85 182
L 224.8 182
Q 230.7865234375 179.5654296875 235.85 175
L 235.85 174.95
Q 240.7435546875 170.47734375 244 164.7 250.405859375 153.6138671875 250.1 139.95 249.9912109375 134.833203125 248.85 130.85
L 248.85 130.9
Q 247.6515625 126.203515625 244.1 119.8
L 244.1 119.8
Q 240.783984375 113.8330078125 238.15 110.4 234.1109375 104.8822265625 226.35 97.9 223.6666015625 94.626171875 214 86.25 202.666796875 76.415625 196.2 71.65
L 186.15 64.1 Z"/>
</g>

<g id="kinne_0_Layer0_0_FILL">
<path fill="#1A0066" stroke="none" d="
M 196.4 63.45
Q 195.05 62.45 184 54.55 170 44.45 162.2 40.6 149.85 34.6 136.25 33.8 123.05 32.95 109.9 37 102.6 39.15 88.45 45.7 91.8 42.05 97 36.75 103.75 29.5 107 23.55 109.4 19.15 108.15 16.45 107.6 15.3 106.25 14.3 105.45 13.7 103.75 12.8 94.05 7.9 89.15 6.3 84.5 4.9 82.2 4.2 78.05 2.95 75.5 1.5 73.8 0.5 73.05 0.25 71.65 -0.25 70.55 0.2 68.15 1.15 68.6 6.05
L 69.15 11.6
Q 69.25 12.7 68.9 13.1 68.65 13.45 67.8 13.75 58.85 16.65 50.15 16.95 47.35 16.95 46.05 17.35 44.6 17.75 43.85 18.6 43.4 18.8 43 19.1 41.15 20.7 41.8 25.05 41.8 25.2 41.85 25.3 41.2 25.35 40.45 25.5 32.3 26.9 24.9 31.7 17.85 36.25 12.55 43.15 8.45 48.55 7.1 53.4 6 57.25 6.3 61.4 6.4 62.25 6.55 64 6.65 65.5 6.4 66.6 6.15 67.6 5.45 68.95 5.05 69.65 4.25 71.1 1.55 76.2 2.15 82.25 2.75 88.3 6.4 92.7 10.05 97.15 15.85 98.9 18.3 99.65 20.65 99.75 15.6 105.65 11.15 112 7 117.9 4.55 122.75 1.5 128.85 0.5 134.55 -0.55 140.75 0.6 147.2 1.7 153.55 4.8 159.25 10.65 170.2 22.2 177.6 22.85 178 23.4 178.25 23.2 179.65 23.5 181.5 24.95 190.2 29.75 197.7 32.25 201.65 35.15 204.05 35.85 204.65 38.25 206.3 38.85 206.7 39.55 207.15 44.45 210.25 47.1 211.4 51.7 213.45 58.95 214.35 57 216.15 54.15 219.5 51.9 222.15 51.25 223.9 50.65 225.7 50.7 228.05 50.7 228.4 50.7 228.8 51.2 234.4 54.4 238.5 57.2 242.05 61.7 243.8 66.1 245.45 70.75 245 74.6 244.6 77.5 243 80.85 241.2 83.6 237.45 85.25 235.3 86.8 232.2 87.5 233.6 88.95 235.8 90.2 237.7 90.85 238.55 92.05 239.95 93.35 240.7 94.55 241.35 96.2 241.65 97.2 241.8 99.25 241.95 122.5 243.35 147.3 243.1 151.6 243.05 154.2 242.9 158 242.7 161.05 242.25 164.45 241.75 165.9 240.5 166.8 239.7 167.45 238.3 167.75 237.65 168.5 235.7 169.9 232.1 171.8 228.8 172.05 229.4 172.35 230.1 174.35 234.6 176.5 237.45 179.25 241.2 182.6 243 185.5 244.6 189.35 245 194 245.45 198.4 243.8 202.9 242.05 205.7 238.5 208.9 234.4 209.4 228.8 209.4 228.4 209.45 228.05 209.45 225.7 208.85 223.9 208.2 222.15 205.95 219.5 203.05 216.05 201.05 214.25 200.75 213.95 200.45 213.7 201.6 214.5 203.15 214.5 204.75 214.5 206.6 213.65 210.15 212.05 214.15 207.4 218.2 202.75 219.9 198.65 220.9 196.35 221.85 192.2
L 222.5 189.6
Q 223.75 189.5 225.4 188.8 234.85 185.05 242.35 177.75 249.85 170.45 253.9 161.15 257.9 151.85 257.9 141.7 257.95 131.5 254 122.7 252.15 118.55 248.55 113.15 242.25 103.75 235.7 97.45 235.05 96.8 233.95 95.95 236.9 97.2 220.35 83.1 203.6 68.8 196.4 63.45
M 185.55 64.9
L 195.6 72.45
Q 202.05 77.2 213.35 87 223.1 95.45 225.7 98.65 233.35 105.55 237.35 111 239.95 114.4 243.25 120.3 246.7 126.55 247.9 131.15 249 135 249.1 140 249.4 153.35 243.15 164.2 239.95 169.85 235.2 174.25 230.25 178.7 224.45 181.1 222.1 182.1 221.2 182.65 220.9 182.55 220.6 182.5 218.75 182.15 217.65 183.5 217.05 184.15 216.4 186.05 215.5 189 214.2 191.75 212.3 195.8 209.55 199.45 206.75 203.25 203.85 204.95 202.15 205.85 201.35 206.35 201.85 201.45 201.7 197.7 201.5 193.9 199.9 192.55 199.35 192.05 198.6 191.75 197.5 191.3 195.95 191.35 195.25 191.35 193.85 191.5 192.45 191.6 191.75 191.6 190.8 191.6 188.95 191.5 187.95 191.55 187.2 191.75 186.95 191.8 186.75 191.9 186.6 191.8 186.45 191.75 186.15 191.65 185.8 191.65 185.45 191.65 185.15 191.75 184.7 191.9 184.3 192.3 183.7 192.95 183.45 193.85 183.3 194.35 183.15 195.6 183.05 196.25 182.95 196.75 182.9 196.65 182.8 196.55 180.35 193.8 178.45 193.25 177.65 193.05 174.8 193.05 173.6 193.1 170 192.75 164.45 192.1 161.25 191.75 157.3 191.3 156.7 191.25 151.25 190.75 146.75 190.65 174.85 188.25 193.55 177.3 197.8 174.8 200.95 172.25
L 202.8 176.8
Q 203.65 178.75 204.45 179.15 205.15 179.55 206 179.25 206.85 179 207.15 178.25 207.5 177.3 206.7 175.5 205.35 172.6 203.5 168.4
L 203.5 168.35
Q 203.6 167.1 202.6 166.1 202.5 166 202.45 165.95 201.6 163.95 200.65 161.7
L 198.05 155.4 199.65 155.45
Q 201.95 155.5 203.2 155.25 205.2 154.9 206.35 153.75 207.4 152.75 207.85 151.05 208.1 150.05 208.35 148
L 209.6 135.05
Q 209.85 132.1 209.65 130.45 209.3 127.95 207.9 126.65 206.9 125.75 205.2 125.3 204.15 125.05 202.15 124.85 194.15 124.05 178.25 122.4 164.5 121.15 154.2 121.55 150.9 121.75 149.6 122.7 149.4 122.8 149.25 123 148.4 123.05 147.5 123.7 147 124.05 145.8 125.2 143.6 127.3 139.55 130.3
L 130.85 136.75
Q 130.05 137.35 129.5 137.5 129.4 137.5 129.35 137.5 128.65 137.6 127.4 136.85 127.3 136.8 127.2 136.75 119 131.4 109.35 124.55 108.25 123.75 107.3 123.25 107 122.95 106.65 122.7 105.35 121.75 102.05 121.55 91.75 121.15 78 122.4 62.1 124.05 54.1 124.85 52.1 125.05 51.05 125.3 49.35 125.75 48.35 126.65 46.95 127.95 46.6 130.45 46.4 132.1 46.65 135.05
L 47.9 148
Q 48.15 150.05 48.4 151.05 48.85 152.75 49.9 153.75 51.05 154.9 53.05 155.25 54.3 155.5 56.6 155.45
L 60.6 155.35
Q 59.8 156.7 58.9 158.3
L 56.15 163.3
Q 56.1 163.35 56.05 163.4 55.45 164.1 55.2 165.05
L 50.5 173.55
Q 49.45 175.45 49.55 176.55 49.65 177.65 50.6 178.35 51.5 179.1 52.6 178.95 54.4 178.75 56.05 175.85 57.25 173.85 58.4 171.9 61.75 174.8 67.75 177.5 88.05 186.75 110.5 187.5 110.5 187.8 110.55 188.15 110.45 188.15 110.4 188.2 109.75 188.65 109.45 189.3
L 91.2 189.5
Q 87.35 189.6 85.55 190.2 84.1 190.7 82.55 191.75 82.3 191.9 82.1 192.05 81.15 192.75 79.1 194.6 77.95 195.7 77.1 196.6 77 196.15 76.95 195.6 76.8 194.35 76.65 193.85 76.4 192.95 75.8 192.3 75.4 191.9 75 191.75 74.65 191.65 74.3 191.65 73.95 191.65 73.7 191.75 73.5 191.8 73.35 191.9 73.15 191.8 72.9 191.75 72.15 191.55 71.15 191.5 69.3 191.6 68.35 191.6 67.65 191.6 66.25 191.5 64.85 191.35 64.15 191.35 62.6 191.3 61.5 191.75 60.75 192.05 60.2 192.55 58.6 193.9 58.4 197.7 58.2 202.15 59 208.35 53.55 207.7 49.95 206.25 43 203.45 38.25 196.8 37.8 196.15 37.35 195.45 33.2 189.05 31.6 179.75 31.2 176.95 30.35 175.85 29.5 174.8 28.2 174.55 28.1 174.35 27.95 174.2 27.45 173.55 26.55 172.85 25.5 172.15 24.95 171.75 21.8 169.5 19.05 165.5 17.35 163.1 14.55 158 12.5 154.35 11.55 152.2 10 148.9 9.35 146.05 8.85 143.85 8.7 141.5 8.55 138.25 9.2 134.8 10.6 126.7 16.35 117.45 22.15 108.15 31.6 98.1 35.1 93.9 38.9 88.9 42.7 83.85 48.15 79.45 48.4 79.25 48.65 79.05 50.25 77.8 52.1 76.4 56.55 73.15 62.5 69.25 75.5 60.55 99.35 48.3 108.8 45.3 118.35 43.65 135.3 40.55 147.15 43.35 156.2 45.45 166.85 51.9 173.05 55.7 185.55 64.9
M 169.95 144.2
Q 168.45 144.05 163 143.25 158.75 142.7 156.15 142.45 156.05 137.75 156.3 131.2 165.15 130.95 178 132 192.4 133.35 199.6 133.8
L 198.65 145.4
Q 189.05 145.35 184.25 145.2 176.2 144.95 169.95 144.2
M 193.95 155.3
Q 194.45 156.4 195.1 158
L 196.75 161.95 197.95 164.95 198.35 165.9
Q 197.8 166.25 196.6 167.3 191.5 171.95 185.25 175.15 178 178.8 166.75 181.55 154.6 184.45 146.4 184.15 144.95 184.1 144.25 184.2 143.05 184.3 142.3 184.85 140.8 185.9 140.4 189.4 140.4 189.55 140.4 189.75 139.95 190.15 139.55 190.8 139.35 191.15 139 191.75 138.85 192 138.7 192.3 138.4 192.85 136.75 194.95 134.2 198.2 129.9 205.85 129.6 206.35 129.3 206.4 128.95 206.5 128.45 206 124.65 202.2 121.8 197.85 119.85 194.9 119.2 194.05 117.9 192.7 117.1 191.75 116.85 191.5 116.65 191.25 117 190.55 117 189.6 117 188.35 116.35 186.4 115.85 185 115.6 184.5 115.05 183.45 114.35 182.9 113.3 182.1 110.8 181.9 109.55 181.8 104.5 181.7 100.6 181.65 98.2 181.25 95.8 180.9 91.45 179.6 85.75 177.9 82.35 176.7 77.45 174.95 73.65 172.95 70.05 171.1 67.95 169 67.45 168.5 65.5 166.15 64.15 164.45 63 163.6 64.05 161.65 65 159.75 66.6 156.65 67.75 155.2 73.1 155 75.4 154.9 81.4 154.65 86.05 154.1 88.7 153.8 94.05 153.05 98.75 152.45 102.1 152.35 104.65 152.3 105.7 152.1 107.75 151.7 108.75 150.6 109.7 149.6 109.95 147.8 110.15 146.6 110.05 144.5
L 109.5 131.65 124.95 142.3
Q 125.65 142.8 126.3 143.15 127.65 143.9 128.6 143.95 129.6 144.05 130.75 143.6 131 143.45 131.3 143.3 132.2 142.85 133.7 141.7
L 146.8 131.5 146.2 144.5
Q 146.1 146.6 146.3 147.8 146.55 149.6 147.5 150.6 148.5 151.7 150.55 152.1 151.6 152.3 154.15 152.35 157.5 152.45 162.2 153.05 167.55 153.8 170.2 154.1 174.85 154.65 180.85 154.9 183.75 155.05 191.55 155.25
L 193.95 155.3
M 195.35 197.6
Q 195.5 197.7 195.6 197.85 195.9 198.25 195.9 199.4 195.7 202.75 195.4 204.5 194.9 207.35 193.75 209.3 193.4 209.95 192.95 210.55 192.6 210.7 192.3 211.05 192.1 211.35 191.95 211.65 191.15 212.45 190.15 213.1 190.15 211.85 190.2 211.2 190.3 210.2 190.25 209.7 190.05 207.95 188.1 206.35 186.9 205.45 185.95 205.2 185.8 205.15 185.55 205.1 186 204.75 186.4 204.3 188.8 201.8 189.65 197.9 192.3 197.9 195.35 197.6
M 83.2 41.55
Q 83.1 41.3 83 41.05
L 80.85 35
Q 80.05 32.95 79.05 32.5 78.45 32.2 77.6 32.3 77.1 32.35 76.1 32.6 71.35 33.8 63.65 33.15 53.25 32.3 51 32.35 49.5 27.8 48.75 23.05 48.7 22.75 48.65 22.45 50 22.15 52.35 22.05 56.95 21.8 62.6 20.7 66.05 20 72.7 18.3 74.8 17.8 75.4 16.95 76.5 15.6 75.6 12.95 74.95 11.05 74.9 10.95 74.6 9.8 74.8 8.95 88.25 12.25 100.5 17.8 101.6 18.3 101.85 18.85 102.3 19.75 101.2 21.25 93 32.5 83.2 41.55
M 41.95 33.4
Q 42.5 33.3 43.55 33.15 43.8 34.15 44.1 35.2 45.05 38 46.25 38.8 47.3 39.4 49.75 39.4 62.65 39 74.95 37.4 75.35 40.15 75.9 42.35 76.65 45.6 78.2 46.8 77.95 47.4 77.9 47.95 77.8 49.1 78.5 50.1 68.5 54.9 58.2 62 50 67.65 39 78.35 29.35 87.7 25.75 92.6 21.15 93.5 16.4 90.65 12.65 88.45 11.05 84.95 9.2 80.9 10.75 77.3 12.75 79.95 16.15 81.3 19.3 82.55 22.85 82.35 25.8 82.2 28.25 80.9 30.9 79.5 32 77.15 33.15 74.8 32.6 71.45 32.1 68.35 30.4 65.75 28.7 63.05 26.1 61.45 23.45 59.85 20.3 59.6 17.05 59.35 14.3 60.6 13.55 54.8 18.95 47.9 23.45 42.15 29.15 38.4 35.3 34.35 41.95 33.4
M 20.95 67.8
Q 21.5 68 22.15 68.55 23 69.3 24.05 70.5 25.05 71.7 25.1 72.6 25.2 73.15 24.9 73.5 24.75 73.85 24.1 74.05 21.5 75 19.1 73.85 16.65 72.6 15.85 70.05 15.65 69.3 15.8 68.95 16.05 68.5 16.8 68.2 18.1 67.65 19.75 67.65 20.55 67.65 20.95 67.8
M 57.6 145.4
L 56.65 133.8
Q 63.85 133.35 78.25 132 91.1 130.95 99.95 131.2 100.2 137.75 100.1 142.45 97.5 142.7 93.25 143.25 87.8 144.05 86.3 144.2 80.05 144.95 72 145.2 67.2 145.35 57.6 145.4
M 64.5 197.85
Q 64.6 197.7 64.75 197.6 67.8 197.9 70.45 197.9 71.3 201.8 73.7 204.3 74.1 204.75 74.55 205.1 74.3 205.15 74.15 205.2 73.2 205.45 72 206.35 70.05 207.95 69.85 209.7 69.8 210.2 69.9 211.2 69.95 211.85 69.95 213.1 68.95 212.45 68.15 211.65 68 211.35 67.8 211.05 67.5 210.7 67.15 210.55 66.7 209.95 66.35 209.3 65.2 207.35 64.7 204.5 64.4 202.75 64.2 199.4 64.2 198.25 64.5 197.85
M 100.7 196.85
Q 98.95 196.5 96.95 196.3
L 108.7 195.55
Q 110.7 195.45 111.85 195.1
L 116.55 200.95
Q 122.35 208.25 126.25 212 127.8 213.45 128.95 213.5 130.6 213.6 132.45 211.35 134.15 209.35 135.45 207.25 137.7 203.45 138.85 201.6 140.9 198.3 142.9 196.45 143.95 195.5 144.4 195.1 144.6 194.95 144.85 194.85 146.45 195.05 148.35 195.25 150.2 195.4 153.9 195.6 156.8 195.8 162.1 196.4 160.7 196.6 159.4 196.85 156.65 197.3 155.45 198.6 154.35 199.9 154.15 202.45 153.9 205.9 155.1 209.25 156.25 212.6 158.5 215.2 160.8 217.8 163.95 219.4 166.15 220.5 168.45 221.05 167.75 222 167.05 223.5
L 162.6 233.1
Q 161.8 234.9 161 235.6 159.95 236.55 157.25 237.05 150.1 238.2 142.4 238.6 120.15 239.8 98.25 235.35 96.85 235.05 96.2 234.55 95.65 234.1 95.35 233.15 95 232.1 94.8 231.55 94.65 231.2 93.4 228.85 93.15 228.45 93 228.05 92.5 226.95 92.55 226.05 92.55 225.05 93.15 223.85 93.25 223.7 94.35 221.8 94.95 220.75 95.25 219.85 95.7 219.65 96.15 219.4 99.3 217.8 101.6 215.2 103.85 212.6 105 209.25 106.2 205.9 105.95 202.45 105.75 199.9 104.65 198.6 103.45 197.3 100.7 196.85
M 83.45 208.1
L 83.15 207.8
Q 83.55 207.7 83.9 207.5 84.7 207.15 85.75 206.2 87.8 204.25 88.45 202.1 89.25 202.1 90.1 202.15 94.1 202.8 98.15 203.05 97.6 207.4 94.9 210.45 92 213.75 88 214.4 87.45 214.05 86.8 214.15 86.25 214.2 85.85 214.55 85.4 214.55 84.9 214.55 84.7 214.55 84.55 214.55 84.6 214 84.6 212.95 84.6 209.6 83.45 208.1
M 81.2 218.3
Q 82.3 218.75 83.85 218.9 84.05 219.45 84.4 219.9 84.35 219.95 84.35 220 83.05 224.5 81.85 227.05
L 81.35 228.15 81.05 229.3
Q 81 229.6 81 229.85 80.15 231.2 79.3 232.45 78.4 233.75 77.35 234.85 73.85 238.25 69.05 238.25 64.15 238.15 60.8 234.75 57.8 231.65 57.95 228.05
L 57.95 228
Q 58.05 225.5 59.7 222.9 60.8 221.15 63.2 218.55
L 66.5 215
Q 67.8 216 69.3 216.7 70.65 217.35 71.75 217.15 71.85 217.1 72 217.1 72.3 217.35 72.65 217.6 73.65 218.3 74.2 218.55 76.3 219.55 79.45 218.8 80.4 218.6 81.2 218.3
M 72.6 210
Q 72.95 209.4 73.5 209.1 74.35 208.55 75.9 208.45
L 77.45 208.45
Q 78.55 208.45 79.05 208.7 80 209.15 80.35 210.35 80.6 211 80.6 212.45 80.6 213.35 80.25 213.8 79.9 214.25 78.85 214.35 76 214.55 74.45 213 73.85 212.3 73.55 211.95 73 211.3 72.45 211.2 72.3 210.6 72.6 210
M 186.6 209.1
Q 187.15 209.4 187.5 210 187.8 210.6 187.65 211.2 187.1 211.3 186.55 211.95 186.25 212.3 185.65 213 184.1 214.55 181.25 214.35 180.2 214.25 179.85 213.8 179.5 213.35 179.5 212.45 179.5 211 179.75 210.35 180.1 209.15 181.05 208.7 181.55 208.45 182.65 208.45
L 184.2 208.45
Q 185.75 208.55 186.6 209.1
M 187.45 217.6
Q 187.8 217.35 188.1 217.1 188.25 217.1 188.35 217.15 189.45 217.35 190.8 216.7 192.3 216 193.6 215
L 196.9 218.55
Q 199.3 221.15 200.4 222.9 202.05 225.5 202.15 228
L 202.15 228.05
Q 202.3 231.65 199.3 234.75 195.95 238.15 191.05 238.25 186.25 238.25 182.75 234.85 181.7 233.75 180.8 232.45 179.95 231.2 179.1 229.85 179.1 229.6 179.05 229.3
L 178.75 228.15 178.25 227.05
Q 177.05 224.5 175.75 220 175.75 219.95 175.7 219.9 176.05 219.45 176.25 218.9 177.8 218.75 178.9 218.3 179.7 218.6 180.65 218.8 183.8 219.55 185.9 218.55 186.45 218.3 187.45 217.6
M 199.9 213.3
Q 199.75 213.2 199.6 213.1 199.6 213.05 199.65 213.05 199.75 213.15 199.9 213.3
M 176.95 207.8
L 176.65 208.1
Q 175.5 209.6 175.5 212.95 175.5 214 175.55 214.55 175.4 214.55 175.2 214.55 174.7 214.55 174.25 214.55 173.85 214.2 173.3 214.15 172.65 214.05 172.1 214.4 168.1 213.75 165.2 210.45 162.5 207.4 161.95 203.05 166 202.8 170 202.15 170.85 202.1 171.65 202.1 172.3 204.25 174.35 206.2 175.4 207.15 176.2 207.5 176.55 207.7 176.95 207.8
M 134.2 184.9
L 134.05 180.7
Q 133.95 178.15 133.05 177.25 132.3 176.55 130.65 176.35 129.85 176.25 128.55 176.3 126.9 176.3 126.4 176.3 125.1 176.25 124.45 176.35 123.35 176.55 122.9 177.25 122.55 177.85 122.65 179.35
L 123.4 186.6
Q 123.6 188.35 124.25 188.95 124.75 189.4 126.15 189.6 128.55 189.75 130.9 189.3 132.95 188.9 133.7 187.8 134.3 186.95 134.2 184.9
M 125.95 182.45
Q 125.75 181.3 125.9 180.6
L 130.3 180.4
Q 130.15 182.75 130.15 185 128.25 185.75 126.15 185.6 126.25 184.75 126.2 184.3 126.2 184 125.95 182.45 Z"/>

<path fill="#FFD16D" stroke="none" d="
M 158.75 169.65
Q 157.7 169.25 156.65 169.75 155.9 170.2 155.6 170.7 155.3 171.4 155.3 171.8 155.25 172.25 155.4 172.85 155.65 173.65 156.45 174.2 157.2 174.7 158.05 174.6 158.9 174.55 159.6 173.9 160.25 173.25 160.4 172.4 160.5 171.55 160.05 170.8 159.55 170 158.75 169.65
M 144.55 169.8
Q 143.85 168.95 142.85 168.7 141.85 168.5 140.85 169.05 139.85 169.6 139.45 170.55 139.25 171 139.25 171.7 139.25 172.35 139.45 172.8 139.8 173.75 140.8 174.3 141.8 174.85 142.8 174.65 143.8 174.45 144.55 173.6 145.25 172.75 145.25 171.7 145.25 170.65 144.55 169.8
M 176.4 167.75
L 175.35 167.9
Q 174.4 168.3 173.85 169.3 173.35 170.3 173.6 171.3 173.85 172.3 174.8 172.95 175.75 173.55 176.75 173.35 177.8 173.2 178.5 172.3 179.25 171.4 179.15 170.4 179.1 169.35 178.25 168.55 177.4 167.8 176.4 167.75
M 197.95 164.95
L 196.75 161.95
Q 196.25 161.9 195.65 161.95 181.3 163.3 175.95 163.65 164.9 164.4 156.25 164 149.55 163.55 146.2 163.35 140.15 162.95 136.1 163.15 135 163.15 134.55 163.1 133.7 162.95 133.25 162.5 132.65 161.9 132.45 160.3 131.45 151.95 130.75 143.6 129.6 144.05 128.6 143.95 127.65 143.9 126.3 143.15 126.45 152.65 128.1 162 128.6 164.45 129.4 165.4 130.85 167 134.6 166.9 137.4 166.75 142.95 166.15 146.5 165.9 152.5 166.3 159.6 166.7 162.1 166.7 163.85 166.7 172.2 166.05 183.95 165.2 194.75 165.55 196.7 165.65 197.55 165.2 197.75 165.1 197.95 164.95
M 127.4 136.85
Q 128.65 137.6 129.35 137.5 129.4 137.5 129.5 137.5 129.1 137.05 128.5 136.85 127.9 136.65 127.4 136.85 Z"/>

<path fill="#541DC3" stroke="none" d="
M 52.65 78.2
Q 52.4 77.25 52.1 76.4 50.25 77.8 48.65 79.05
L 52.3 101.45
Q 52.65 103.7 52.65 104.85 52.65 106.75 52 108.1 51.3 109.45 48.95 111.4 40.7 117.85 29.4 124.25 22.5 128.15 9.2 134.8 8.55 138.25 8.7 141.5 9.35 141.3 10.1 140.9 24.05 133.9 32.55 128.65 44.45 121.3 52.85 113.35 55.5 110.8 56.05 109.05 56.45 107.95 56.45 106.4 56.4 105.65 56.2 103.7
L 53.5 82.95
Q 53.05 79.7 52.65 78.2
M 27.2 139.55
Q 26.95 138.5 26.15 137.9 25.35 137.3 24.3 137.3 23.25 137.3 22.5 137.95 21.55 138.85 21.45 140.1 21.4 141.1 22.05 141.95 22.7 142.85 23.7 143.05 24.7 143.3 25.65 142.8 26.6 142.35 27 141.45 27.45 140.55 27.2 139.55
M 32.5 133.35
Q 32.9 134.4 33.85 135 34.9 135.6 35.95 135.4 37 135.25 37.75 134.35 38.5 133.5 38.55 132.4 38.55 131.25 37.7 130.35 36.85 129.4 35.75 129.3 34.6 129.2 33.6 129.95 32.65 130.7 32.4 131.85 32.25 132.55 32.5 133.35
M 11.45 143.9
Q 11.2 144.8 11.3 145.45 11.5 146.4 11.95 146.95 12.7 147.9 13.95 148.05 15.2 148.25 16.15 147.55 17.15 146.9 17.4 145.65 17.65 144.4 17 143.4 16.4 142.4 15.2 142.05 13.95 141.7 12.95 142.25 11.95 142.75 11.45 143.9
M 61.85 103.45
Q 62.6 103.15 63 102.4 63.4 101.7 63.3 100.9 63.15 100.1 62.5 99.6 61.85 99.05 61.05 99.05 60.65 99.05 60.25 99.2 59.6 99.45 59.2 100 58.8 100.6 58.8 101.25 58.75 101.9 59.15 102.5 59.55 103.15 60.35 103.45 61.15 103.7 61.85 103.45
M 57.2 91.9
Q 56.9 93.55 58.2 94.6 59.5 95.65 61.05 95 61.95 94.65 62.45 93.7 62.95 92.8 62.75 91.85 62.55 90.9 61.75 90.2 60.95 89.55 59.95 89.55 58.95 89.6 58.2 90.25 57.4 90.95 57.2 91.9
M 57.9 77.8
Q 57.1 77.35 56.1 77.55 55.1 77.75 54.5 78.45 53.95 79.05 53.9 79.75 53.85 80.2 53.9 80.6 54 81.5 54.75 82.2 55.45 82.9 56.4 82.95 57.35 83 58.15 82.4 59 81.85 59.25 80.95 59.5 80.05 59.1 79.15 58.75 78.2 57.9 77.8 Z"/>
</g>
</defs>

<g transform="matrix( 1, 0, 0, 1, 25.55,23.1) ">
<g transform="matrix( 1, 0, 0, 1, 0,0) ">
<use xlink:href="#kinne_0_Layer1_0_FILL"/>
</g>

<g transform="matrix( 1, 0, 0, 1, 0,0) ">
<use xlink:href="#kinne_0_Layer0_0_FILL"/>
</g>
</g>
</svg>
