
<svg xmlns="http://www.w3.org/2000/svg" version="1.1" xmlns:xlink="http://www.w3.org/1999/xlink" preserveAspectRatio="none" x="0px" y="0px" width="150px" height="150px" viewBox="0 0 150 150">
<defs>
<g id="Layer0_0_FILL">
<path fill="#FFFFFF" stroke="none" d="
M 28.6 -14.85
Q 22 -10.85 19.7 -4.9 18.95 -3 18.6 -2.55 18.2 -2.05 17 -1.05 14.6 0.95 13.25 3.55 11.7 6.3 11.6 9.1 11.5 12.15 13.05 14.8 14.6 17.55 17.25 18.7 19.05 19.45 21.7 19.5 13.8 26 7.95 31.95 2.253515625 37.7177734375 -2.15 43.55 -2.204296875 43.58359375 -2.25 43.6 -3.2 43.95 -3.5 45.1 -3.54453125 45.2962890625 -3.6 45.5 -4.5697265625 46.891796875 -5.5 48.3 -7.1814453125 50.783984375 -8.4 53.15 -12.2076171875 59.6755859375 -13.5 65.85 -15.2 73.95 -12.8 82.2 -10.35 90.4 -4.5 96.25 -3 97.75 0.3 100.45 1.5828125 101.514453125 2.6 102.1 2.1779296875 108.38671875 2.65 111.55 2.95 113.5 3.75 116.25 4.41875 118.548828125 5.1 120.1 0.0671875 124.693359375 -1.95 130.35 -2.95 133.2 -2.9 135.95 -2.8 138.95 -1.45 141.3 -0.95 142.2 -0.15 143.05 -1.6 144.65 -2.65 146.7 -4.15 149.55 -4.55 152.7 -4.9 155.85 -4.15 159 -3.35 162.15 -1.55 164.75 -0.35 166.5 0.85 167.25 2.5 168.3 4.2 167.95 5.5 167.6 5.8 167.6 6.4 167.6 6.5 167.35 6.55 167.15 6.4 166.9 6.15 165.65 6 165.05 5.75 164 4.85 162.55 3.5 160.35 3.4 160.15 2.35 158 2.25 154.95 2.15 152.45 2.75 150.7 3.4 148.6 4.95 146.9 8.85 149.1 16.4 152.3 20.55 154.1 22.1 155.3 25.15 157.55 25.7 160.55 26.05 162.2 25.5 164.3 25.05 165.9 25.25 166.6 25.5 167.45 26.45 167.85 27.3 168.2 28.2 167.95 29.8 167.55 30.7 165.55 32 163 31.65 158.9 31.25 155.8 30.4 154.1 29.35 151.95 27.05 150.1 23.7 147.35 17.15 144.95 13.65 143.65 11.25 142.75 13.65 141.8 16.9 141 21.05 140 21.25 139.95 23.75 139.3 25.5 138.55 26.55 138.15 27.3 137.65 27.65 138.35 28.1 138.95 30 141.7 34.1 143.7 36.65 144.9 38.35 145.05 42.4 145.5 46.6 142.4 48.4 141.1 49.8 139.5 51.15 141.85 53.3 144.9 50.7 149.2 49.1 151.3 46.45 154.65 43.6 156.5 41.9 157.55 41.45 157.9 40.4 158.85 40.2 159.95 40 161.25 41 162.55 41.85 163.5 43.4 164.35 47.55 166.6 53.2 167.5 57.35 168.2 63.7 168.35 68.75 168.4 73.5 168.25 78 169 84.85 168.8 93.2 168.55 98.05 167.6 101.7 166.85 107.65 164.9 113.95 162.8 117.15 161.2 126.4 156.45 133.1 146.35 134.05 144.85 134.35 143.75 134.75 142 133.7 140.95 132.9 140.1 130.35 139.9 126.4 139.6 119.5 137.25 117.75 136.65 116.25 136.2 117.1 136.05 117.55 135.85 118.3 135.55 118.8 135.1 120.8 135.4 122.55 135.65 122.9 136.15 123.55 136.6 126.15 138.65 131.85 139.6 135.25 140.1 136.25 140.35 138.25 140.75 139.75 141.4 139.5 142.85 139.2 144.55 137.95 151.1 138.5 154.8 139.4 161 144.25 165.95 146.05 167.75 147.55 168.4 148.35 168.75 150 169.25 151.3 169.75 153.3 171 153.3 170.5 152.8 169.95 152.15 169.35 151.85 169 151.4 168.5 151.05 167.65 150.65 166.65 150.4 166.15 149.75 164.75 148.1 162.85 145.95 160.3 145.5 159.7 143.3 156.65 143 153.05 142.8 150.9 143.2 148.05 143.65 145.65 143.95 144.1 146.5 146.4 148.85 150.35 150.1 152.35 150.9 153.05 151.2 153.35 152.45 154.15 152.6 154.3 152.85 154.3 153.15 154.3 153.35 153.85 153.85 152.75 153.9 152.5 154.2 151.15 152.9 148.7 149.1 142.25 144.6 139.2 144.7 136.05 143.85 133.8 143.95 133.75 144.05 133.7 145.15 133.15 145.85 132.45 145.6 133.2 145.5 134.1 145.35 136 146.1 137.85 147.45 141.1 151.25 143.35 155.7 145.95 159.55 144.8 161 144.45 162.95 143.15 165.3 141.5 167.6 139 169.55 137 170.25 135.25 171.25 132.65 169.95 130.8 169.2 129.75 167.1 128.8 164.9 127.8 162.3 127.05 161.35 126.8 160.7 126.8 161.25 125.35 161.15 123.15 161.05 121.45 160.8 120.3 160.15 117.7 158.3 115.85 158.8 115.35 159.6 114.2 160.5 112.95 162.25 110.9 164.3 108.6 164.95 107.75 166.15 106.25 166.2 105.1 166.25 103.7 165.05 102.5 164.1 101.65 162.45 101.15 160.65 100.55 158.3 100.25 162.3 95.8 164 90.35 166.1 83.4 164.55 74.45 163.8 70.05 162.5 66.45 161 62.35 157.5 55.9 147.25 37.45 134.2 24.55 119.2 9.8 101.75 3.2 97 1.4 96.5 1.35 92.3 0.25 92 0.1 91.35 -0.3 89.75 -0.5 72.9 -2.55 61.4 -0.05 56.1 1.05 50 3.6 46.1 5.15 39.1 8.5 33.25 11.25 30.45 12.95 30.25 13.1 30 13.3 29.35 13.25 28.15 13.35 25.2 13.75 22.2 13.75 19.9 13.7 19 13 17.6 11.9 17.6 9.65 17.6 6.2 20.25 4 21.95 5.9 24.45 6.9 26.9 7.85 29.5 7.65 34.75 7.3 38.65 3.3 40.75 1.2 40.9 -0.95 41 -2.85 39.6 -4.5 38.25 -6.05 36.25 -6.65 34.6 -7.2 32.35 -7.15 31 -7.1 28.4 -6.75 31.25 -9.95 36.65 -11.85 38.25 -12.4 41.35 -13.35 43.2 -13.9 44.5 -14.3 44.6 -14 44.75 -13.7 45.6 -11.7 46.5 -10.85 47.95 -9.6 50.9 -9.45 56.2 -9 61.45 -10.4 62.2 -7.75 63.5 -7.1 63.75 -7 63.9 -6.9 64.15 -6.7 64.4 -6.45 65.9 -5.4 67.85 -5.95 69.3 -6.35 71.05 -7.6 77.2 -11.95 80.15 -17.4 81.1 -19.1 81.3 -20.5 81.7 -22.45 80.85 -24.6 80 -26.55 78.4 -28.1 76.3 -30.2 71.25 -32.65 67.75 -34.35 65.9 -34.6 62.5 -35.05 60.55 -33.05 58.9 -31.35 58.95 -27.7 58.15 -27.75 55.95 -27.8 53.85 -27.9 52.5 -27.65 51.7 -27.55 50.3 -27.2 48.8 -26.75 47.9 -26.3 47.15 -25.9 46 -24.85 45.65 -24.45 45.4 -24.1 45 -23.95 44.75 -23.6 44.1 -22.9 43.85 -21.2 43.8 -20.7 43.75 -20.25 42.65 -20.1 41.3 -19.75 33.25 -17.7 28.6 -14.85
M 64.2 -29.6
Q 65 -30 66.3 -29.3
L 71 -26.95
Q 72.65 -26.1 73.4 -25.65 74.65 -24.8 75.3 -23.8 76.05 -22.75 76.05 -21.85 76.05 -21.3 75.6 -20.2 74.75 -18.45 72.45 -16.05 70.75 -14.3 69.7 -13.45 68.1 -12.1 66.5 -11.4 66.4 -11.6 66.35 -11.8 65.5 -13.8 64.15 -14.55 63.3 -15 62 -15.05 61.55 -15.05 59.65 -14.95 56.35 -14.8 50.55 -15.8 49.55 -17.35 49.1 -20.9 49.05 -21.15 49.05 -21.4 49.9 -22 51.75 -22.5 53.35 -22.85 54.15 -22.95 55.25 -23.1 57.3 -23.05 59.1 -23.15 60.4 -23.55 62.05 -24 62.45 -24.85 62.75 -25.35 62.7 -25.85 62.85 -26.15 62.9 -26.5 63.1 -27.15 63.4 -28.55 63.75 -29.4 64.2 -29.6
M 163.05 132.75
Q 163.3 132.85 163.35 133.05 163.4 133.25 163.2 133.55 161.55 136.35 158.95 138.15 157.45 139.2 156.4 139.15 155.35 139.1 153.7 137.8 150.85 135.6 150.35 133.75 150.25 133.2 150.2 132.75 151.2 132.75 152.45 132.55 154.5 132.2 155.5 131.8 157.15 131.2 158.75 129.65 158.75 129.7 158.85 129.85 159.35 130.6 161.1 131.45 162.25 132.1 163.05 132.75
M 112.5 79.2
Q 106.4 78 101.5 77.9 98.8 77.85 97.55 77.55
L 96.75 67.15
Q 103.85 66.95 112.1 68.95 118.5 70.45 127 73.55 124.35 77.35 123.35 81.6 115.9 79.8 112.5 79.2
M 33.1 0.85
Q 32.55 1.35 31.75 1.65 31.3 1.85 30.35 1.9 28.75 2.1 27.6 1.8 26 1.3 25.3 0.3 30.15 -2 35.4 -1.2 34.75 -0.3 33.1 0.85
M 34.75 61.7
Q 35.8 61.15 36.5 60.7 44.3 60.05 50.1 60.25 58.55 60.5 65.4 62.5
L 61.9 72.35
Q 60.65 72.25 58.05 71.65 53.25 70.45 47.05 70 43.6 69.75 36 69.55 36.05 65.55 34.75 61.7
M 62.7 113.3
Q 63.65 114.15 65.4 115.15 70.75 118.25 74.85 119.55
L 77.45 120.25
Q 80 120.9 81.2 120.45 82.95 119.75 83.55 117.55 83.95 116.3 83.95 113.7 83.95 112.05 83.75 111.1 84.05 111.05 84.4 111.05 85.6 111.45 88.05 111.8 91.9 112.3 97.9 112.3 106.95 112.35 107.7 112.4
L 105.85 117.05
Q 105.45 117.95 105.2 118.7 103.95 117.9 102.35 117.15 97.6 115 91.75 113.4 90.9 113.2 90.45 113.35 89.8 113.65 89.8 114.3 89.8 114.8 90.45 115.55 91.7 116.95 93.9 118.05 94.85 118.6 97.85 119.85 100.5 121.05 102.85 122.3 103.7 122.7 104.15 123.15 104.5 123.5 104.8 124 105 124.45 105.25 125.1 105.35 125.3 105.45 125.65 106 127.5 106.1 128.75 106.2 129.55 106.25 131.15 106.4 132.5 106.85 133.8 106.4 134.2 105.6 135.05 103.8 137.05 99.7 139.6 96.6 141.55 94.55 142.65 84.3 146.1 71.15 145.45 63.6 144.7 59.25 144.45 58.95 143.5 57.7 142.1 54.95 138.95 52.45 134.95 52.85 133.85 53.1 132.75 53.65 130.2 52.8 128.3 52.75 128.1 52.7 127.95 52.95 127.9 53.2 127.8 55.5 126.8 57.4 123.8 58.45 122.1 58.9 120.55 59.4 118.95 59.5 116.55 59.6 112.75 58.45 109.4 59.35 109.6 60.25 109.8 60.25 109.9 60.25 109.95 60.25 110.35 60.9 111.25 62.2 112.85 62.7 113.3
M 47.15 105.65
Q 46.25 106.15 45.4 106.8 44.15 106.05 42.65 105.8 43.25 105.15 43.4 103.9 45.25 104.85 47.15 105.65
M 41.25 115.9
Q 41.65 115.05 42.75 114.5
L 50.9 110.8
Q 52.55 113.6 52.45 117.2 52.35 118.5 52.2 119.15 51.65 120.9 49.95 122.3 49.45 122.85 48.8 123.15 48 123.55 46.45 123.65 43.65 123.8 41.3 123.3 41.3 120.2 41.35 119.6 41.45 117.95 41.45 117.75 41.45 116.7 41.25 115.9
M 47.2 128.75
Q 48.35 128.65 49.65 128.5 49.75 128.5 49.85 128.5 49.8 128.6 49.7 128.7 49.25 129.5 48.9 131.05 48.75 131.9 48.55 132.4 48.45 132.45 48.4 132.5 47.5 133.1 47.7 134.5 46.6 136.3 44.55 137.85 42.9 139.2 41.55 139.55 38.6 140.35 34.9 138.1 32.5 136.7 31.65 134.9 30.8 133.25 30.8 129.95 30.8 126.85 31.1 125.65 32.9 127.05 35.65 127.45 36.85 127.55 38.2 127.5 39 127.95 40.2 128.3 41.5 128.6 43.2 128.75
L 43.55 130.65
Q 43.8 132.3 44.45 132.75 45.05 133.1 45.75 132.9 46.5 132.7 46.9 132.1 47.6 131.1 47.35 129.45 47.3 129.05 47.2 128.75
M 37.4 106
Q 33.9 106.85 31.7 108.85 29.05 111.15 28.3 114.2 28.25 114.4 28.2 114.7 26.8 112 25.15 107.95 24.45 106 24.3 105.3 24.15 104.25 24.45 103.7 24.65 103.25 25.55 102.65
L 30.5 99.3
Q 33.9 97.1 35.9 96.4 37.85 101.85 38.65 103.65 39.2 105 39.9 105.6 38.7 105.65 37.4 106
M 39.55 112.4
Q 39.15 113.05 38.45 114.45 37.5 116.15 37.4 116.4 36.7 117.8 36.5 119.65 36.45 120.6 36.4 122.3 36.2 122.25 36.05 122.2 34.65 121.8 34 120.85 33.75 120.45 33.45 119.6 32.5 116.95 31.8 115.65 31.65 115.4 31.55 115.05 31.5 114.7 31.85 114.15 33.5 111.9 37.4 110.8 39.6 110.15 41.05 110.35 40.1 111.35 39.55 112.4
M 66.8 149.6
Q 72.2 149.45 74.2 149.15 77.3 148.8 83.5 147.5 84.35 147.35 88.7 146.75 91.85 146.3 93.85 145.85 99.25 144.6 104.15 141.85 104.3 141.75 104.5 141.65 104.55 141.65 104.6 141.65 105.9 140.7 106.8 140 108 138.95 108.8 137.95 110.3 138.9 112.9 139.95 120.65 143 128.3 144.6 124.35 149.9 118.5 153.95 113 157.8 106.35 160.15 101.95 161.7 97.15 162.6 97.2 162.55 97.25 162.5 93.15 162.05 87.15 162.65 82.05 163.4 78.85 163.7 73.75 163.45 71.15 163.3 66.2 163.05 62.75 163.45 62.85 163.5 62.95 163.65 55.65 162.7 48.55 160.25 51 157.7 53.1 155.15 54.15 153.8 57.3 149.45 60.6 149.8 66.8 149.6
M 154.2 106.3
Q 156.65 106.25 159.05 106.55 156.9 108.55 155.3 111 154.5 112.3 154.25 113.35 151.95 112.7 148.35 113.3 147.9 113.4 147.5 113.45 147.7 112.65 148.15 111.75 149.05 109.95 149.75 108.95 150.8 107.3 151.7 106.8 152.45 106.4 154.2 106.3
M 148.55 123.05
Q 148.85 121.35 148.9 120.45 148.9 119.35 148.55 118.7 149.3 118.45 150.3 118.4 150.75 118.4 152.1 118.45
L 152.8 118.5 153.6 118.8
Q 154.3 119.25 154.65 119.6 155.3 120.25 155.8 121.8 156.3 123.35 156.45 124.9 156.45 125.4 156.4 125.5 156.4 125.7 156.1 125.95 154.6 127.45 153.15 127.7 152.3 127.8 151.9 127.85 150.7 128 150.3 127.95 149.8 127.8 149.35 127.25 149.1 126.85 148.9 126.15
L 148.65 125
Q 148.5 124.6 148.5 124.15 148.5 123.8 148.55 123.05
M 142.3 121.2
Q 143 121.7 143.75 121.6 142.65 124.85 143.15 127.4 143.2 127.65 143.25 127.95 142.7 128.1 141.5 128.6 135.05 131.3 126.55 130.95 120.4 130.6 111.4 128.4 110.3 128.15 109.5 128.15 109.55 126.15 109.4 124.7 109.55 124.25 109.7 123.7 109.95 122.5 110.1 121.9 110.5 120.35 111.55 118.35 111.8 118.5 112.15 118.65 114.25 119.55 118.75 120.6 123.9 121.8 126 122.05 133.95 123.1 141.7 120.8 141.75 120.8 141.8 120.8 142 121 142.3 121.2
M 141.05 109.5
Q 141.1 109.3 141.15 109.1 141.8 109.2 142.55 109.2 141.55 111.25 141.4 113.1 141.25 114.3 141.4 115.4 140.6 115.45 139.75 115.65 138.95 115.8 138.35 116 138.75 115.25 139.2 114.15 139.25 113.9 140.15 111.9
L 141.05 109.5
M 136.2 136.05
Q 138.45 135.7 140.45 135.15 140.45 136 140.35 137.1 138.55 136.5 136.2 136.05
M 17.65 135.05
Q 17.840234375 135.026171875 18 134.95 18.109375 135.012890625 18.2 135.05 17.4 135.2 16.55 135.35 11.65 136.3 8.35 137.5 6.25 138.3 4.55 139.3 3.85 138.7 3.55 138.15 2.75 136.75 2.95 134.5 3.3 129.8 6.95 125.3 7.2865234375 124.900390625 7.55 124.55 8.0044921875 125.23515625 8.5 126 11.8 130.95 14.05 133.25 16.1 135.3 17.65 135.05
M 109.65 12
Q 115.6 15.3 119.85 18.6 121.5 19.9 124.65 22.8 139.75 37.05 152 58.3 155.1 63.5 156.3 67.05 157.9 71.5 158.6 77.45 159.3 84.15 157.9 88.3 156.9 91.35 154.35 94.6 148.25 102.5 138.9 106.45 138.85 106.45 138.85 106.5
L 138.8 106.5
Q 138.15 106.7 137.75 107.2 137.7 107.3 137.35 107.8
L 134.3 113.8
Q 133.85 114.55 133.7 115.25 133.6 116.1 134 116.75 130 117.1 125.25 116.5 122.2 116.1 113.8 114.3 113.95 113.9 114.1 113.6 115.05 111.7 115 110.15 114.9 109.2 114.4 108.45 113.85 107.65 113.05 107.35 112.45 107.2 110.75 107.35 109.65 107.5 107.4 107.5
L 103.45 107.5
Q 108.7 106 112.25 104.2 116.95 101.9 121 98.05 126.2 92.95 129 86.35 129.95 84.3 129.8 82.9
L 131.55 77.3
Q 131.85 76.45 132.15 76.15 132.4 76 132.85 75.8 133.35 75.6 133.55 75.45 134.25 74.95 134.35 74 134.45 73.1 134.05 72.35 133.4 71.3 131.45 70.15 127.15 67.75 122.05 66 121.95 65.45 121.65 65 121.2 64.25 119.65 63.35 117.1 61.65 113.35 58.85 109.5 55.95 107.55 54.15 105.05 51.95 103.5 49.7 106.35 44.3 104.9 38.9 104 35.6 101.55 33.15 101.05 32.65 100.7 32.65 100.3 32.6 100 32.95 99.75 33.25 99.65 33.65 99.55 34.2 99.9 35.25 100.95 38.5 101 41.95 101 43.8 100.55 45 100.15 46.1 98.85 47.6 93.05 54.5 84.4 57.25 82.95 57.75 82.45 58.05 81.95 58.25 81.65 58.55 80.1 56.15 76.75 50.25 73.65 44.9 71.7 41.95 71.2 41.15 70.8 40.9 70.1 40.4 69.45 40.65 68.9 40.95 68.7 41.7 68.65 41.9 68.7 42.3 68.3 42.45 67.85 42.75 66.5 43.8 65.75 44.25 64.25 44.9 63.55 45.2 62.75 45.5 60.85 46.5 58.1 47.85 49.7 51.4 45.35 53.2 42.2 54.75 36.3 55.05 31.1 56.4 28.9 56.95 28 57.85 27.4 58.5 27.3 59.4 27.2 60 27.4 60.55 24.9 61.6 22.45 62.5 20.1 63.25 18.8 63.95 18.05 64.3 16.7 65.15 15.6 65.6 15.4 66 15.1 66.5 15.45 67.1 15.7 67.65 16.25 67.85 17.05 68.2 18.5 67.85 18.6 67.8 18.8 67.8 18.65 68.55 18.7 69.5 18.75 72.4 19.45 75.95 19.85 78.05 20.95 82.25 21.95 86.2 22.95 88.25 23.9 90.1 26.1 92.75 26.95 93.75 27.75 94.35 27.7 94.35 27.65 94.4 23.95 96.65 22.3 98 20.3 99.5 19.6 100.8 18.6 102.65 18.95 105.15 19.15 107 20.2 109.5 22.8 115.75 26.8 119.9 27.7 120.8 28.4 121.15 28.45 121.5 28.6 121.85 27.75 122.25 27.25 123.45 26 125.85 25.9 129.25 25.8 130.65 25.9 131.9 24.9 131.45 22.9 130.7 20.8 129.85 19.7 129.15 18.7943359375 128.5396484375 18 127.7 17 127.7017578125 16 127.25 12.3064453125 122.8875 10.35 116.55 8.55 110.7 8.2 102.5 8.2 101.5611328125 8.1 100.85 8.513671875 99.5044921875 7.5 98.05 7.1 97.45 5.2 95.65 -1.55 89.95 -4.65 82.65 -8.2 74.5 -6.5 66.5 -5.85 63.3 -2.95 56.7 -1.3494140625 53.17890625 -0.05 50.35 0.2796875 50.0830078125 0.6 49.8 5.9994140625 51.9169921875 13.85 52.25 19.05 52.5 22.35 51.5 26.2 50.35 30 47.05 32.45 44.95 36.25 40.5 39.85 36.3 41.45 34.05 43.05 31.75 45.75 26.85
L 55.5 9.25
Q 55.65 8.95 55.6 8.65 55.6 8.3 55.35 8.3 55.3 8.3 54.9 8.55 52.25 12 48.4 17.8 43.4 25.4 42.15 27.2 38.4 32.5 35.2 36.15 31.1 40.7 26.85 43.75 23.45 46.3 20.35 47.05 17.85 47.65 13.7 47.35 8.103515625 47.1140625 4.3 45.9 11.485546875 36.443359375 20.15 28.55 23.05 25.95 27.4 22.3 31.85 18.6 35 16.6 38.25 14.5 43.55 12 55.8 6.05 64.35 4.35 67.4 3.75 73.05 3.65
L 80.7 3.65
Q 88.3 3.65 97.1 6.35 97.8 6.55 98.5 6.9 103.65 8.7 109.65 12
M 111.75 62.7
Q 112.35 63.1 112.95 63.55 108.95 62.7 104.7 62.2 99.2 61.6 95.35 61.75 93.25 62.05 92.5 62.6 91.5 63.4 91.2 64.95 90.95 66.1 91.15 67.9
L 92.05 77.3
Q 92.35 80.05 93.2 81.25 94.15 82.5 96.15 82.95 97.25 83.25 99.75 83.4 109.35 83.8 120.4 87.55 121.85 87.95 122.75 88.2 121.6 90.6 119.75 92.8 119.3615234375 93.2806640625 118.95 93.75
L 96.6 89.05
Q 90.25 87.8 87.3 85.85 85.25 84.5 84.3 82.85 83.55 81.45 83 77.75 82.35 72.4 82.25 69.7 82.0822265625 66.64765625 82.3 64.05 83.0275390625 63.8220703125 83.8 63.35 84.2 63.05 84.5 62.8 85.15 62.65 85.85 62.45 92.1 60.3 95.95 57.7 99 55.7 101.05 53.3 103 55.7 105.85 58.1 108.05 60 111.75 62.7
M 81.5 78.25
Q 81.8 82 82.65 83.8 83.4 85.4 85.15 86.95 87.75 89.2 91.8 90.55 94.65 91.45 99.4 92.2 109.1048828125 93.6603515625 118.55 94.2 115.958203125 96.958984375 112.5 99.05 108.7 101.4 103.75 103 99.85 104.3 94.45 105.4 87.45 106.75 81.85 106.85 81.25 106.85 80.75 106.9 80.65 107.15 80.55 107.4 80.45 107.75 80.15 108.5 79.65 110.5 79.6 110.6 79.5 110.9 79.25 111.35
L 79.3 111.35
Q 79.2 111.9 79.2 112.55
L 79.15 116.4
Q 78.4 116.5 76.95 115.95 74.15 114.75 70.25 112.55 68.95 111.75 67.8 111.2 68.05 111.05 68.2 110.9 67.45 110.75 66.8 110 66.4 109.25 66.1 108.95 65.35 108.1 65 107.65 64.6 107.1 64.5 106.4 64.3 106.4 64.2 106.4 60.65 105.8 56.4 104.2 54 103.25 49 100.9 45.05 99 43.3 97.65 41.8 96.5 41.5 96.35 41.4 96.3 41.35 96.3 40.75 94.85 40.3 94 39.45 92.3 38.45 91.6 36.75 90.5 34.1 91.25 33.2 91.5 32.1 91.95 32.1 91.8 32.05 91.65 31.85 91.05 31.3 90.35 30.65 89.6 30.35 89.2 27.75 86.2 26.5 80.35 25.35 75.05 25.25 69.5 25.25 67.05 24.65 66
L 29.15 64.4 29.45 70
Q 29.5 73.1 30.5 74.35 31.65 75.65 33.65 76 34.45 76.1 37.3 76.05 48.9 75.3 58.3 77.4 60.7 77.9 61.9 77.9 63.9 77.95 65.15 77 66.3 76.1 67.25 73.5
L 70.6 64.7
Q 71.2 62.95 71.3 61.8 71.45 60.2 70.7 59.2 70.05 58.45 68.15 57.65 64.45 56.45 58.95 55.65 54.7 55.05 50.75 54.8 56.1 52.65 61.45 50.2
L 69.15 46.65
Q 69.5 46.45 69.85 46.3 70.35 47.6 71.05 49.2
L 72.5 52.4
Q 73.1 53.7 74.3 56.25 75.6 58.9 77.25 61.35 78.85 63.85 80.55 64.2 80.7142578125 64.2283203125 80.85 64.25 81.0443359375 66.54765625 81.15 69.4 81.45 77.2 81.5 78.25
M 103.5 96.2
L 103.5 96.3
Q 103.15 96.3 103 96.5
L 102.9 96.7
Q 102.8 97.05 103 97.3
L 103.15 97.45
Q 103.45 97.6 103.75 97.45
L 103.95 97.3
Q 104.15 97 104.1 96.8 104.1 96.65 103.9 96.45
L 103.5 96.2
M 81.3 88.85
L 81.5 89.45
Q 81.65 89.8 82.05 89.95
L 82.4 90.05
Q 82.55 90.1 82.75 90 83.1 89.9 83.35 89.55 83.6 89.2 83.55 88.8 83.5 88.4 83.2 88.1 82.85 87.8 82.45 87.8 82.45 87.85 82.25 87.85 82 87.8 81.65 88.15 81.45 88.35 81.45 88.5 81.4 88.6 81.3 88.85
M 75.55 72.8
L 75.55 73.2
Q 75.55 73.45 75.95 73.55
L 76.2 73.5 76.45 73.3 76.5 73.15 76.5 72.9
Q 76.4 72.5 76 72.5
L 76 72.55
Q 75.7 72.55 75.65 72.65
L 75.55 72.8
M 83 98.65
Q 82.65 98.5 82 98.45 80.45 98.2 78.1 97.2 75.1 95.95 74.25 95.7 73.1 95.35 71.6 95.1 70.35 95 69.8 95.35 69.1 95.8 68.75 97
L 68.55 98 68.95 101.7
Q 69.15 103.05 69.25 103.35 69.45 104.2 70.15 104.65 70.75 105.05 71.65 104.85 72.1 104.75 73.15 104.25
L 74.2 103.65
Q 74.7 103.3 75.25 102.75
L 77.15 100.85
Q 77.35 100.55 77.5 100.45 77.65 100.35 78 100.45 78.3 100.5 79.85 100.85 80.95 101.15 81.7 101.15 82.7 101.15 83.1 100.9 83.75 100.45 83.65 99.75 83.65 99 83 98.65
M 73.8 99.4
Q 75.05 99.7 75.55 99.95
L 72.65 102.6
Q 72.4 102.85 71.85 103.35 71.3 103.75 70.8 103.7 70.6 103.25 70.7 102.05
L 70.9 100.4
Q 71 99.65 71.2 99.35 71.35 99.1 71.55 99.05
L 72 99.05 73.8 99.4
M 112.9 89.1
L 112.9 89.15 112.65 89.15
Q 112.65 89.25 112.45 89.35
L 112.4 89.5 112.35 89.8
Q 112.45 90.05 112.65 90.1 112.85 90.25 113.1 90.15
L 113.3 89.9 113.35 89.55 113.25 89.35
Q 113.2 89.2 112.9 89.1
M 87.2 76.35
Q 86.95 76.8 87.3 77.05 87.6 77.45 87.95 77.25 88.2 77.1 88.3 76.85
L 88.35 76.6
Q 88.35 76.35 88.15 76.2
L 87.75 76 87.75 76.05
Q 87.45 76.05 87.35 76.15 87.2 76.25 87.2 76.35
M 43.4 37.25
Q 44.35 36.85 44.45 35.8 44.45 34.75 43.5 34.25 42.55 33.85 41.75 34.55 41.2 35.15 41.25 35.8 41.25 36.1 41.4 36.4
L 41.65 36.8
Q 42.35 37.6 43.4 37.25
M 52.45 18.2
L 52.4 18.4 52.5 18.65
Q 52.8 18.95 52.85 18.95 53.05 19.1 53.35 19
L 53.6 18.75
Q 53.65 18.7 53.8 18.45
L 53.75 18.1
Q 53.6 17.7 53.1 17.6
L 53 17.65 52.9 17.65
Q 52.85 17.65 52.6 17.9
L 52.45 18.05 52.45 18.2
M 41.3 21.05
Q 40.85 21.05 40.7 21.4
L 40.6 21.55
Q 40.5 22.15 41.15 22.35 41.5 22.55 41.75 22.2 41.85 22.15 41.95 21.95
L 42 21.7 41.9 21.5 41.85 21.3
Q 41.5 21.1 41.3 20.95
L 41.3 21.05
M 29.85 36.15
Q 28.9 36 28.35 36.7 27.75 37.4 28.15 38.2 28.5 39 29.35 39.1 30.3 39.1 30.75 38.4 31.25 37.65 30.75 36.8
L 30.35 36.35 29.85 36.15
M 25.45 55.65
Q 25.85 55.35 25.85 54.9 25.9 54.7 25.85 54.4 25.75 53.85 25.2 53.6 24.7 53.35 24.15 53.6 23.7 53.8 23.55 54.3
L 23.45 54.75
Q 23.45 55.25 23.9 55.7 24.25 55.95 24.7 55.95 25.15 55.95 25.45 55.65
M 4.5 55.9
Q 5 56.65 5.85 56.45 6.3 56.35 6.5 56.1 7.25 55.5 6.9 54.55 6.65 53.65 5.65 53.55
L 5.65 53.65
Q 4.8 53.5 4.4 54.45 4.05 55.2 4.5 55.9 Z"/>
</g>
</defs>

<g transform="matrix( 1, 0, 0, 1, 0,0) ">
<use xlink:href="#Layer0_0_FILL"/>
</g>
</svg>
