
<svg xmlns="http://www.w3.org/2000/svg" version="1.1" xmlns:xlink="http://www.w3.org/1999/xlink" preserveAspectRatio="none" x="0px" y="0px" width="300px" height="300px" viewBox="0 0 300 300">
<defs>
<g id="fish_0_Layer2_0_FILL">
<path fill="#CC3366" stroke="none" d="
M 242.8 138
L 242.3 140.45
Q 241.35 145.2 240.6 147.7 240.15 149.25 239.1 152.3 237.8 156.35 236.95 161.1 236.65 162.6 237.2 163.25 238.45 161.95 239.55 158.35
L 241.65 151.65
Q 242.15 149.75 242.2 149.45 242.35 148.75 242.45 147.3 242.8 143.85 243.45 141.3 244.05 138.85 244.1 138.15 244.2 137.1 243.65 137.05 243.05 136.95 242.8 138
M 55.85 220.55
Q 49.7 219.9 46.4 219.1 43.75 218.4 38.55 216.5 31.7 214 29.35 212.9 26.35 211.55 22.2 209.3 17.5 206.65 15.15 205.35 14.05 204.8 13.75 205.35 16.2 207.65 21.2 210.9 29.8 216.65 34.35 219.2 41.9 223.3 48.4 224.8 52.2 225.7 56.75 225.9 60.25 226.1 65.05 225.9 65.123828125 225.9 65.2 225.9 66.677734375 225.879296875 67.25 225.45 67.8 225 67.85 224.25 67.95 223.45 67.5 222.9 66.85 222.15 65.35 221.85 62.8271484375 221.294140625 57.65 220.75 56.7986328125 220.644140625 55.85 220.55
M 158.5 242
Q 158.25 242.15 158.1 242.35 157.95 242.65 158.1 242.8 159.45 242.8 161.2 242.05 162.15 241.65 164.1 240.65 165.3 240.1 167.65 239.4 170.15 238.65 171.25 238.2 172.7 237.6 175.4 236 179.8 233.4 181.7 231.7 184.95 228.95 186.15 225.6 186.58359375 224.4658203125 186.45 223.6 186.36640625 223.1662109375 186.15 222.8 185.65 222.05 184.6 221.95 183.6 221.9 182.85 222.55 182.4 222.95 182.05 223.75 181.8 224.15 181.4 225.05 180.85 226.1 179.4 227.65 178.596484375 228.4744140625 177.7 229.3 174.2873046875 232.4140625 169.5 235.5 167.55 236.75 158.5 242
M 131.8 236.05
Q 131.815625 235.978515625 131.8 235.9 131.65 235.1 130.7 234.9 130.2 234.75 129.2 234.9 124.35 235.6 118.1 235.75 114.35 235.8 106.8 235.7 101.9 235.6 99.25 235.45 94.1 235.05 91.55 234.9 90.674609375 234.7783203125 90.1 234.95 89.55546875 235.136328125 89.35 235.65 103.9 238.75 118 239.15 126.3 239.45 130.6 237.5 131.8900390625 236.9470703125 131.8 236.05
M 6.1 193.45
Q 7.95 194.85 9.6 195.05 10.6 195.15 11.55 194.75 12.5 194.35 12.95 193.5 13.85 191.75 12.45 189.8 12 189.1 11.15 188.35 10.15 187.45 9.65 187 7.25 184.7 5.35 181 4.1 178.6 2.45 174.1 -0.85 165.15 -1.7 159.85 -1.7693359375 159.434375 -1.85 158.8 -2.126953125 156.676171875 -2.55 152.1 -2.84609375 149.1228515625 -3.3 146.2 -4.1408203125 140.2044921875 -5.55 134.4 -10.75 143.45 -10 155.6 -9.4 165 -4.9 176.9 -2.7 182.5 -0.5 186.05 2.4 190.8 6.1 193.45
M 22.45 37.2
Q 34.4 17.85 37.65 11.6 31.95 16.35 26.3 23.35 22.2 28.5 16.75 36.7 7.6 50.5 3.65 59.55 -0.6140625 69.27734375 -0.3 76.6 -2.862890625 94.51171875 -1.25 112.35 -0.9126953125 116.06015625 -0.4 119.75 -0.3 120.7 0.2 120.8 0.65 120.9 0.9 120.4 1.15 119.95 1.15 119.35 1.1 116.85 0.75 112.95 0.25 107.35 0.2 106.55 0.061328125 104.7982421875 -0.05 103 -0.52265625 92.8126953125 0.6 81.05 0.74375 81.33125 0.9 81.55 1.4 82.25 2.2 82.6 3 82.95 3.75 82.75 4.2294921875 82.6451171875 4.6 82.35 5.469921875 81.740625 5.75 80.2 5.8455078125 79.5796875 5.8 78.6 5.80234375 78.548046875 5.8 78.5 5.7 77.4 5.65 76.8 5.15 71.45 8.45 63.35 12.7 52.95 22.45 37.2
M 231.4 159.5
Q 231.4044921875 159.4099609375 231.4 159.3 231.4 158.2 231.05 157.55
L 231 157.5
Q 230.437890625 156.5533203125 229.55 156.8 229.343359375 156.8517578125 229.15 157 228.6337890625 157.400390625 228.3 158.55 225.55 168.2 220.25 180.55 219.121484375 183.1708984375 217.5 186.7 214.7474609375 192.9189453125 210.55 201.95 210.05 203.1 210.3 203.7 212.75 203 215.5 199.35 228.5 182.3 231.15 162.95 231.4236328125 160.7611328125 231.4 159.5
M 184.95 7.8
Q 185.95 8 186.4 7.55 174.3 3 161.65 2 157.7333984375 1.6998046875 153.9 1.75 144.953515625 1.8703125 136.45 3.9 134.65 4.35 134.2 5.2 133.9 5.75 134.1 6.4 134.3 7.05 134.85 7.35 135.5 7.7 136.35 7.5 136.8 7.4 137.9 6.95 141.05 5.6 145.6 5 153.8 3.95 165.3 5.2 165.892578125 5.2677734375 166.55 5.35 173.0353515625 6.1173828125 184.95 7.8
M 207.1 35.65
Q 208.15 36.45 211.75 39.4 214.6 41.7 216.45 43.05 220.6 46.15 225 48.6 223.3423828125 45.9224609375 220.9 43.1 217.5935546875 39.3248046875 212.85 35.3 207.15 30.5 199.45 25.35 196.4669921875 23.3203125 191.85 20.35 188.9416015625 18.5134765625 185.4 16.3 184.1 15.55 183.45 15.4 182.1 15.1 181.5 16.05 181.01953125 16.736328125 181.25 17.55 181.3833984375 17.9080078125 181.65 18.3 182.1 18.85 183.55 19.8 188.65 22.8 197.45 28.8 199.7611328125 30.405078125 201.55 31.65 205.4365234375 34.3939453125 207.1 35.65
M 223.7 65.15
Q 223.6 66 224.4 67.2
L 234.35 82.95
Q 236.75 86.75 237.85 88.75 238.85 90.65 239.3 91.3 240.25 92.65 241.4 93.25 241.15 92.25 240.05 90.1 239.15 88.3 235.5 79.8 232.8 73.4 230.35 69.85 228.2 67 227.35 65.45 226.6 64.3 226.2 64 225.5 63.6 224.65 64 223.8 64.35 223.7 65.15
M 80.5 -0.65
Q 82.45 -2.35 83.7 -3.8 79.8 -1.9 73.9 3.35 73.7556640625 3.4759765625 73.6 3.6 66.72890625 9.6150390625 63.3 12.75 61.627734375 14.2998046875 60.25 15.65 59.0458984375 16.84765625 58.05 17.9 57.377734375 18.6 56.8 19.25 53.45 22.95 51.35 26.6 50.3150390625 28.4400390625 50.5 29.65 50.575 30.0349609375 50.75 30.35 51.15 31.05 52 31.3 52.2017578125 31.3474609375 52.4 31.35 53.0162109375 31.405078125 53.55 31.1 54.25 30.7 54.9 29.55 60.740234375 19.9337890625 66.7 12.7 68.4865234375 10.6041015625 70.25 8.7 73.5412109375 5.155078125 76.85 2.3 76.9095703125 2.284375 76.95 2.25 78.15 1.3 80.5 -0.65 Z"/>

<path fill="#FF6666" stroke="none" d="
M 76.85 2.3
Q 73.5412109375 5.155078125 70.25 8.7 76.9505859375 4.5068359375 84.7 0.75 81.265234375 0.7865234375 76.85 2.3
M 211.75 39.4
Q 208.15 36.45 207.1 35.65 205.4365234375 34.3939453125 201.55 31.65 195.644921875 29.0193359375 188.85 26.75 186.3193359375 25.900390625 183.9 25.15 181.028125 23.8388671875 177.85 22.6 161.45 16.25 147.6 16.2 140.12734375 16.2 135.8 18.75 126.091015625 15.5541015625 116.15 14.9 104.25 14.05 93.35 17 92.95546875 17.1076171875 92.55 17.2 97.2671875 14.883203125 103 13.45 109.65 11.75 118.45 11.05 137 9.7 157.8 12.8 169.005859375 14.485546875 181.25 17.55 181.01953125 16.736328125 181.5 16.05 182.1 15.1 183.45 15.4 184.1 15.55 185.4 16.3 188.9416015625 18.5134765625 191.85 20.35 194.10234375 21.01015625 196.4 21.7 188.6951171875 15.21953125 178.85 10.95 173.0166015625 7.694140625 166.55 5.35 165.892578125 5.2677734375 165.3 5.2 153.8 3.95 145.6 5 141.05 5.6 137.9 6.95 136.8 7.4 136.35 7.5 135.5 7.7 134.85 7.35 134.3 7.05 134.1 6.4 133.9 5.75 134.2 5.2 134.65 4.35 136.45 3.9 144.953515625 1.8703125 153.9 1.75 151.97265625 1.3419921875 150 1 151.797265625 1.0640625 153.6 1.15 135.5 -6.3 108.65 -2.3 82.958203125 1.5216796875 66.7 12.7 60.740234375 19.9337890625 54.9 29.55 54.25 30.7 53.55 31.1 53.0162109375 31.405078125 52.4 31.35 52.8859375 34.625390625 55.9 38.1 56.2099609375 38.4828125 56.55 38.75 49.689453125 45.205859375 43.9 52.85 43.65 53.17890625 43.4 53.5 42.50390625 51.32421875 42.2 49.75 41.5 46.05 42.5 42.1 43.45 38.35 45.75 35 47.68046875 32.2279296875 50.5 29.65 50.3150390625 28.4400390625 51.35 26.6 53.45 22.95 56.8 19.25 57.377734375 18.6 58.05 17.9 56.98359375 18.5181640625 55.95 19.15 58.0181640625 17.3896484375 60.25 15.65 61.627734375 14.2998046875 63.3 12.75 66.72890625 9.6150390625 73.6 3.6 73.556640625 3.6251953125 73.5 3.65 63.39375 7.9953125 54.4 15 51.43203125 15.5826171875 47.7 18.7 33.25 30.85 23.6 52.35 20.91640625 58.3720703125 19.05 64.15 16.3498046875 70.1669921875 14.1 77.05 9.3556640625 91.3349609375 8.2 103.85 7.8494140625 103.99140625 7.45 104.3 7.17890625 104.5259765625 6.95 104.8 6.856640625 102.352734375 6.75 99.75 8.2740234375 91.8720703125 10.85 82.7 12.9 75.55 17.35 61.7
L 21.55 48.6
Q 11.6365234375 61.240625 5.8 78.6 5.8455078125 79.5796875 5.75 80.2 5.469921875 81.740625 4.6 82.35 1.694921875 92.001953125 -0.05 103 0.061328125 104.7982421875 0.2 106.55 0.25 107.35 0.75 112.95 1.1 116.85 1.15 119.35 1.15 119.95 0.9 120.4 0.65 120.9 0.2 120.8 -0.3 120.7 -0.4 119.75 -0.9126953125 116.06015625 -1.25 112.35 -2.212109375 121.7845703125 -1.85 129.55 -1.3 141.3 2.3 150.75 2.5373046875 151.339453125 2.8 151.8 3.57578125 157.8923828125 4.8 163.4 1.7615234375 156.028125 0.35 148.5 -0.05 145.95 -1.4 145.55 -2.1 145.35 -2.85 145.85 -3.0833984375 146 -3.3 146.2 -2.84609375 149.1228515625 -2.55 152.1 -2.126953125 156.676171875 -1.85 158.8 0.4978515625 166.710546875 4.55 174.75 11.970703125 189.52421875 22.15 199.3 24.751953125 202.1515625 27.7 204.65 37.2 212.65 48.25 215.1 48.7201171875 215.2025390625 49.2 215.3 49.74140625 215.4759765625 50.3 215.65 52.1869140625 216.8671875 54.3 218.1 55.9953125 219.47578125 57.65 220.75 62.8271484375 221.294140625 65.35 221.85 66.85 222.15 67.5 222.9 67.95 223.45 67.85 224.25 67.8 225 67.25 225.45 66.677734375 225.879296875 65.2 225.9 72.5986328125 230.4626953125 79.6 232.7 84.5220703125 234.230078125 90.1 234.95 90.674609375 234.7783203125 91.55 234.9 94.1 235.05 99.25 235.45 101.9 235.6 106.8 235.7 114.35 235.8 118.1 235.75 124.35 235.6 129.2 234.9 130.2 234.75 130.7 234.9 131.65 235.1 131.8 235.9 131.815625 235.978515625 131.8 236.05
L 131.85 236.05
Q 135.5 235.55 136.1 233.55 136.317578125 232.75234375 136 231.9 143.9779296875 230.575390625 152.15 227.95 147.355859375 231.43515625 142.25 234.6 155.053515625 231.8064453125 166.85 224.5 167.77578125 224.4052734375 168.7 224.3 173.18125 223.76015625 176.85 223.15 176.6560546875 223.35625 176.45 223.55 167.55 231.85 158.2 238.55 169.5 234.05 177.7 229.3 178.596484375 228.4744140625 179.4 227.65 180.85 226.1 181.4 225.05 181.8 224.15 182.05 223.75 182.4 222.95 182.85 222.55 183.6 221.9 184.6 221.95 185.65 222.05 186.15 222.8 186.36640625 223.1662109375 186.45 223.6 189.0142578125 221.694140625 191.3 219.65 193.6478515625 218.8505859375 195.75 217.9 197.65 217 198.3 216.25 199.6 214.85 199 213.4 198.7681640625 212.86484375 198.35 212.5 202.07734375 208.15390625 205.65 202.6 208.1390625 200.2984375 210.45 197.45 214.151171875 192.867578125 217.5 186.7 219.121484375 183.1708984375 220.25 180.55 225.55 168.2 228.3 158.55 228.6337890625 157.400390625 229.15 157 231.1875 148.906640625 231.95 140.9 234.1 118.5 226.6 99.4 225.9 97.65 224.9 96.6 223.6 95.3 222.25 95.75 221.4 96 220.9 96.9 220.4 97.75 220.4 98.75 220.45 99.95 221.5 102.35 224.6 109.85 225.45 119.95 226.5763671875 133.321875 223.65 147.4 223.677734375 144.3626953125 223.45 141.35 223.3 139.25 222.6 137.85 222.1107421875 136.871484375 221.4 136.4 221.1431640625 131.9564453125 220.65 127.35 219.15 113 215.2 94.6 214.55 91.45 212.85 91 211.85 90.75 210.95 91.4 210.05 92 209.7 93.05 209.25 94.25 209.65 97.15 212.65 116.7 213.7 128.8 215.15 146.25 213.85 160.55 213.5880859375 163.5193359375 213.15 166.75 210.605859375 175.9490234375 206 185.1 206.1134765625 184.84921875 206.2 184.6 212.3 167.15 213.6 149.6 214.95 131.05 210.8 114.15 210.3 112.05 209.35 110.7 208.15 109.05 206.5 109.15 206.0056640625 109.19296875 205.55 109.4 205.416015625 108.134375 205.25 106.8 203.85 95.45 202.25 88.35 200.05 78.4 196.5 70.75 190.45 57.7 177.05 44.75 167.86328125 35.8669921875 158.1 29.55 161.8587890625 29.5900390625 165.95 30.7 171 32.05 177.4 35.3 183.0072265625 38.1646484375 188.95 42.05 189 43.15 189.65 44.05 190.2 44.75 191.2 45.45 191.4 45.6 193 46.6 203.9 52.95 215.2 66.55 230.8 85.3 235.05 102.65 235.83359375 105.867578125 236.3 109.3 236.1357421875 111.2560546875 235.9 113.75
L 235.15 120.85
Q 236.1306640625 119.4328125 236.95 117.95 237.1388671875 125.283984375 236.05 133.45 234.8533203125 142.4048828125 231 157.5
L 231.05 157.55
Q 231.4 158.2 231.4 159.3 231.4044921875 159.4099609375 231.4 159.5 232.5666015625 157.1572265625 234.15 154.2 237.8 147.35 239.15 144.2 244.95 130.55 244 114.5 243.5736328125 107.6556640625 241.95 101 242.0171875 100.248046875 242.05 99.45 242.2673828125 94.3203125 241.4 89.45 243.1830078125 79.8869140625 239.9 69.6 236.4 58.6 228.2 49.8 224.9197265625 46.2880859375 220.9 43.1 223.3423828125 45.9224609375 225 48.6 220.6 46.15 216.45 43.05 214.6 41.7 211.75 39.4
M 206.7 44.2
Q 206.4486328125 43.765625 206.15 43.3 207.052734375 43.83359375 207.9 44.35 219.1 51.2 226.3 60 229.8703125 64.36640625 232.7 69.5 231.1 67.2505859375 229.2 65 225.1 60.2 218.85 54.45 212.809375 48.9126953125 206.7 44.2
M 188.7 73.4
Q 193.05 82 195.65 93.15 197.65 101.75 199.05 113.95 200.6 127.7 199.9 136.5 199.05 147.8 194.25 161.25 188.35 177.85 179.65 187.7 168.7 200 150.55 206.25 133.2 212.2 113.6 210.9 94.95 209.7 77.1 202.2 61.4 195.65 52.1 186.2 41.05 175.15 36.7 158.55 32.65 142.9 35.5 126.4 40.5 97.85 64.75 69.8 75.6 57.15 85.45 51.15 91.7 47.3 98.3 45.5 105.35 43.5 112.1 44.1 122.2 45.05 134.7 52.6 157.05 65.95 172.05 87.8 185.35 107.3 184.55 124.4 184 137.15 175.8 149.55 166.85 163.2 151.6 171.95 137.05 180.35 120 182.45 102.4 184.6 88.5 179.55 80.8 176.75 74.7 171.7 68.2 166.4 64.6 159.55 60.6 152 59.5 141.5 57.8 124.9 63.6 108.75 69.4 92.55 81.2 80.85 90.1 72.05 100.9 67.7 112.7 63 123.8 64.95 135.05 66.95 147.2 76.55 158.1 85.2 166.15 96.65 178.65 114.65 176.3 130.3 175.15 137.75 170.55 144.45 166.2 150.85 159.55 155.25 147.55 163.2 130.2 164.05 117.1 164.6 106.45 160.75 94.2 156.25 86.95 146.95 83.4 142.35 81.95 137.2 80.3 131.55 81.75 126.55 83.65 119.85 90.35 115.5 96.05 111.85 103.85 110.95 113.1 109.8 123.25 112.35 132.3 114.65 141.5 119.8 146.25 122.5 147.6 125.25 148.6 127.3 148.2 129.75 147.85 132.15 146.4 134.05 143.65 137.6 138.5 138.6 134.4 139.4 130.2 138.15 126.05 136.95 123.05 134.05 121.5 132.6 121.55 131.2 121.6 130.3 122.7 129 123.95 127.55 124.2 126.85 122.2 125.3 119.5 126.55 116.85 127.75 116.7 130.25 116.5 132.9 119.35 135.85 122.05 138.6 125.65 140.15 129.25 141.75 133.1 141.85 136.95 142 140.65 140.65 144.35 139.3 147.2 136.75 149.75 134.45 151.1 131.6 152.55 128.45 152.15 125.4 151.3 119.35 142.85 114.05 134.1 108.55 124.35 106.05 114.2 103.4 104.35 104.35 94.7 105.25 87.55 109.45 83.65 111.8 80.7 115 77.6 118.45 76.05 122.45 74.2 127.05 74.4 132.4 74.6 137.45 76.55 142.3 80.25 151.25 89.1 158 96.25 163.45 105.45 166.35 114.1 169.15 123.65 169.45 137.4 169.95 148.35 165.35 157 161.7 165.25 154.1 177.6 142.8 180.4 130.4 182.7 120.1 178.75 108.6 175.7 99.55 168.3 89.2 158.15 74.85 146.5 66.85 132.3 57.05 117.2 56.85 109.8 56.7 102.25 59.05 95.15 61.25 88.5 65.5 76.6 73.05 66.9 86.7 58.4 98.65 54.15 111.8 49.6 125.9 50.65 139.45 51.75 153.85 59.35 166.1 67.25 178.8 79.6 184.9 90.35 190.25 105.05 190.65 116.7 191.05 128.15 188.35 139.65 185.7 149.85 180.15 160.15 174.55 168.55 166.4 177.05 158.1 182.7 148 187.85 138.9 189.6 130.15 191.5 120.5 189.65 110 187.9 100.15 183.05 90.75 175.05 75.1 157.65 59.2 144.5 47.1 132.95 41.35 117.65 33.85 103.4 35.3 83.85 37.3 64 57.15 51 70.1 41.75 85.8 32.35 101.8 27.7 119.15 28.4 95.45 40.05 73.55 51.5 51.9 70.7 37.4 75.2533203125 33.940234375 79.75 31.3 81.1994140625 33.8994140625 83.9 36.6 85.9 38.6 87.3 37.9 88 37.6 88.25 36.75 88.5 35.95 88.25 35.15 88.05 34.5 87.5 33.75 86.85 32.9 86.5 32.45 84.92265625 30.613671875 84.25 28.85 88.77578125 26.640625 93.25 25.25 102.25 22.45 112.25 22.65 121.75 22.85 131.25 25.7 131.3537109375 25.73125 131.45 25.75 131.5359375 25.984375 131.65 26.2 132.05 27.1 132.85 27.45 134.1 28.05 135.8 27.25
L 135.8 27.2
Q 141.8228515625 29.42734375 147.65 32.6 148.437109375 33.5580078125 149.6 33.9 149.8400390625 33.9599609375 150.05 33.95 157.4818359375 38.333984375 164.65 44.3 180.95 57.85 188.7 73.4
M 224.4 67.2
Q 223.6 66 223.7 65.15 223.8 64.35 224.65 64 225.5 63.6 226.2 64 226.6 64.3 227.35 65.45 228.2 67 230.35 69.85 232.8 73.4 235.5 79.8 239.15 88.3 240.05 90.1 241.15 92.25 241.4 93.25 240.25 92.65 239.3 91.3 238.85 90.65 237.85 88.75 236.75 86.75 234.35 82.95
L 224.4 67.2
M 186.05 191.7
Q 192.2 184.65 197.35 173.05 197.528125 172.6544921875 197.7 172.25 196.594140625 177.7138671875 193.7 183.4 190.4 189.95 184.15 197.7 182.0373046875 200.3138671875 179.8 202.8 179.4759765625 202.755859375 179.1 202.8 178.15 202.95 177.3 204 177.15 204.15 176.05 205.9 174.6 208.35 170.65 211.25 165.9162109375 214.6927734375 160.25 217.65 148.4029296875 219.914453125 141 221.2 134.2025390625 221.798828125 124.5 222.6
L 115.9 223.3
Q 116.6701171875 223.946875 117.7 224.35 113.26484375 224.7880859375 109.25 224.95 102.20390625 225.2123046875 89.85 224.75 90.896875 224.4796875 91.45 223.65 92.15 222.7 91.8 221.35 91.45 220.1 90.45 219.2 89.15 218.1 85.8 217.3 75.75 214.55 65.5 207.95 57.25 202.65 47.7 194.05 36.8 183.7 31.3 178.55 23.71953125 171.475 17.5 166.65 17.5044921875 166.5357421875 17.45 166.4 18.4669921875 165.43671875 18.3 163.6 18.15 162.4 17.05 160.2 16.4068359375 158.875 15.8 157.5 15.61640625 156.1359375 15.45 154.65 13.88125 142.3322265625 13.4 129.95 13.996875 129.76953125 14.5 129.3 15.2 128.6 15.45 127.6 15.7 126.5 15.4 123.75 13.80234375 112.1314453125 15.6 99.05 15.8626953125 99.66640625 16.2 100.1 16.95 101.05 18.1 101.3 19.3 101.6 20.15 100.9 20.9 100.3 21.05 99.1 21.15 98.35 21.05 96.85 19.88046875 84.2865234375 24.15 69.1 24.0818359375 71.3701171875 24.1 73.75 24.1 75.4 24.6 76.55 25.2 77.95 26.4 78.1 27.2 78.2 27.95 77.65 28.65 77.15 28.95 76.3 29.35 75.25 29.25 72.95 28.95 61.3 33.65 49.55 35.330078125 45.35 37.55 41.35 37.3072265625 42.371875 37.15 43.4 36.45 47.9 37.55 51.95 38.18828125 54.3435546875 40.1 58.1 32.5203125 69.4287109375 27.95 82.25 20.05 104.3 23.5 123.8 23.7 124.85 24.45 128.7 25.05 131.7 25.3 133.6 25.55 135.9 25.6 139.25 25.65 141.1 25.7 144.9 26.35 163.5 35.25 178.6 40.35 187.2 48.2 194.4 55.65 201.2 64.95 206.2 81.7 215.15 104.05 217.95 126.3 220.7 144.15 215.9 155.7 212.75 167.7 205.9 179.35 199.25 186.05 191.7
M 204.5 162.1
Q 204.422265625 162.5224609375 204.35 162.95 203.91015625 162.209375 203.2 161.75 202.60390625 161.352734375 201.95 161.25 205.729296875 150.1056640625 206.7 139.6 206.66796875 150.3171875 204.5 162.1
M 148.55 23.8
Q 149.256640625 23.8365234375 149.95 23.85 149.5560546875 24.1142578125 149.2 24.4 148.5865234375 24.0783203125 147.95 23.75 148.2625 23.786328125 148.55 23.8
M 82.3 13.7
Q 85.468359375 12.8005859375 88.85 12 87.52421875 12.79296875 86.25 13.65 82.0015625 16.5279296875 79.95 19.65 79.06015625 18.0447265625 79.55 16.5 80.0421875 14.9787109375 82.3 13.7
M 77.35 23.2
Q 77.4736328125 23.3236328125 77.6 23.45 72.765234375 26.091015625 67.9 29.55 63.7486328125 32.4892578125 59.9 35.75 59.621484375 35.3669921875 59.1 34.65 58.4 33.75 58.1 33.1 56.6 29.6 61.15 25.05 64.78984375 21.41015625 69.2 18.3 71.7826171875 17.221484375 74.5 16.2 74.331640625 17.52734375 74.6 18.75 75.15 21.1 77.35 23.2
M 7.4 116.85
Q 7.632421875 115.503125 7.9 114.2 8.1267578125 120.151171875 9.25 125.65 9.6 127.5 10.4 128.65 10.7443359375 129.1494140625 11.15 129.45 10.7849609375 135.3568359375 10.65 141 10.6267578125 141.815625 10.6 142.6 9.1658203125 136.935546875 8.4 131 7.7859375 126.229296875 7.4 116.85
M 16.85 169.9
Q 16.9068359375 169.863671875 16.95 169.8 18.97265625 173.281640625 21.7 176.8 25.45 181.6 31.7 187.85 35.8060546875 191.9826171875 40.05 195.95 40.0578125 195.973046875 40.05 196 39.65 197.15 41.4 198.8 42.65 200 48.75 205.45 52.0173828125 208.334375 54.8 210.55 46.215625 206.7400390625 39.6 205.45 35.7841796875 203.203125 32.95 201.05 28.873046875 197.948046875 24.8 193.7 22.5830078125 190.8205078125 20.6 187.6 13.88359375 176.5701171875 10.3 161.8 10.652734375 162.5056640625 11 163.2 12.09609375 165.3447265625 13.25 166.3 13.53671875 168.251953125 14.1 169.05 14.55 169.75 15.35 170 16.2 170.3 16.85 169.9
M 116.15 229.6
Q 115.69921875 229.6892578125 115.2 229.75 114.719140625 229.726953125 114.2 229.7 115.1814453125 229.66875 116.15 229.6
M 191.75 205.6
Q 191.219921875 207.0654296875 190.7 208.35 187.8919921875 211.8181640625 184.75 215.2 181.506640625 215.9826171875 177.65 216.65 184.327734375 211.063671875 190.05 204.1 192.30859375 201.348046875 194.2 198.6 193.0658203125 201.932421875 191.75 205.6 Z"/>
</g>

<g id="fish_0_Layer1_0_FILL">
<path fill="#330033" stroke="none" d="
M 186.9 32.25
Q 183.25 29.65 179.6 27.6 179.45 25.65 176.8 23.25 166.55 14 160.05 9.6 150.15 2.85 140.8 0.95 130.65 -1.2 118.2 1.55 109.25 3.65 96.3 9.1 85 13.9 77.7 18.1 68.45 23.45 62.1 29.75 52.3 34.95 43.8 42 32.15 51.65 24 63.75 19.6 70.4 16.95 76.95 14.3 83.55 13 91.85 12.45 92.1 11.9 92.35 11.2 92.65 11 93 10.65 93.55 10.95 94.2 11.3 94.85 11.9 95.1 12.15 95.15 12.5 95.2 11.75 101.5 11.55 109.8 11.45 113.1 11.45 116.3 11.45 138.85 15.5 158.6 15.7 160.8 15.9 162.75 15.15 162.95 14.6 163.5 13.8 164.3 13.05 166.5 11.15 172.25 7.15 183.65 3.65 193.9 1.7 200.95 0.55 205.1 0.2 207.75 -0.3 211.6 0.45 214.6 1.45 218.8 4.75 222 7.95 225.1 12.2 226.35 15.4 227.3 19.4 227.25 22.4 227.2 26.7 226.55 31.8 225.85 34.5 224.7 36.45 223.85 37.6 222.65 38.9 223.45 40.7 223.95 42.5 224.55 45.55 224.9 54.3 226 65.3 226.35 71.95 226.6 85.15 226.7
L 114.1 226.95
Q 135.25 227.15 147.85 226.8 152.4 226.65 172.85 225.7 188.1 225 197.8 225.05 200.85 225.05 202.35 224.6 202.7 224.9 203.1 225.05 203.6 225.2 204.15 225.3 205.25 227.45 208.15 228.4 210 228.95 213.9 228.95 217.7 228.95 220 228.65 223.4 228.25 225.85 227.1 228.3 225.95 231.95 222.65 235.2 219.75 236.35 218.2 238.95 214.85 239.95 210.2 240.8 206 240.3 201.3 239.9 197.35 238.4 192.7 237.45 189.55 235.35 184.35 232.9 178.35 232 176.1 230.35 171.45 229.55 167.6 229.25 165.65 228.8 164.65 229 163.6 229.2 162.5 231.55 149.75 232.25 140.6 233.3 128.7 232.2 118.65 232.1 117.55 231.9 116.3 231.15 110.8 229.2 101.65 226.75 90.25 225.35 85.65 220.5 69.6 210.55 55.75 200.6 41.9 186.9 32.25
M 176.2 135.9
Q 186.45 139.25 196.75 146.3 205.25 152.15 214.65 161.15 217.05 163.45 218.2 164.95 219.95 167.2 220.6 169.4 221.35 172.15 220.6 175.8 220.25 177.55 218.75 182.2 217.6 185.75 215.3 192.95 213 198.95 209.75 202.5 208.35 204 207.95 204.55 207.1 205.8 207.05 206.95 207.05 207.75 207.55 209 208.1 210.5 208.2 211.05 208.5 212.95 207.25 214.8 206.05 216.5 204.05 217.35 202.45 218.05 200.15 218.25 199.75 218.25 196.05 218.4 192.65 218.45 187.8 218.95 182.3 219.5 179.55 219.75 173.2560546875 220.3673828125 165.7 220.75 164.5484375 221.125390625 163.75 221.35 161.1 222.05 158.85 222.05 156.33125 222.0974609375 154.15 221.15 141.6640625 221.441015625 126.45 221.2 126.2427734375 221.2478515625 126.05 221.3 123.15 222.15 120.4 221.7 119.083984375 221.5025390625 117.95 221 80.862890625 220.383984375 68.8 220.8 62.75 221 60.4 220.95 55.7 220.85 52.1 220 49.9 219.5 45.6 217.9 44.9638671875 217.6482421875 44.4 217.4 43.9763671875 217.6634765625 43.45 217.8 42.15 218.15 40.85 217.85 38.55 217.4 36.55 215.1 35.65 214.05 33.75 210.7
L 28.3 200.3
Q 25.75 195.3 24.55 192.25 23.1279296875 188.5119140625 22.65 185.2 21.7361328125 183.9580078125 21.65 182.35 21.55 179.6 24.4 175.65 32.4 164.4 44.55 153.05 50.3 147.65 54.9 144.25 59.75 140.6 65.9 137.4 85.05 127.6 111.2 127.2 121.85 127.05 134.55 128.45 143.9 129.45 157.75 131.8 169.95 133.85 176.2 135.9 Z"/>

<path fill="#FF6666" stroke="none" d="
M 196.75 146.3
Q 186.45 139.25 176.2 135.9 169.95 133.85 157.75 131.8 143.9 129.45 134.55 128.45 121.85 127.05 111.2 127.2 85.05 127.6 65.9 137.4 59.75 140.6 54.9 144.25 50.3 147.65 44.55 153.05 32.4 164.4 24.4 175.65 21.55 179.6 21.65 182.35 21.7361328125 183.9580078125 22.65 185.2 23.1279296875 188.5119140625 24.55 192.25 25.75 195.3 28.3 200.3
L 33.75 210.7
Q 35.65 214.05 36.55 215.1 38.55 217.4 40.85 217.85 42.15 218.15 43.45 217.8 43.9763671875 217.6634765625 44.4 217.4 44.9638671875 217.6482421875 45.6 217.9 49.9 219.5 52.1 220 55.7 220.85 60.4 220.95 62.75 221 68.8 220.8 80.862890625 220.383984375 117.95 221 119.083984375 221.5025390625 120.4 221.7 123.15 222.15 126.05 221.3 126.2427734375 221.2478515625 126.45 221.2 141.6640625 221.441015625 154.15 221.15 156.33125 222.0974609375 158.85 222.05 161.1 222.05 163.75 221.35 164.5484375 221.125390625 165.7 220.75 173.2560546875 220.3673828125 179.55 219.75 182.3 219.5 187.8 218.95 192.65 218.45 196.05 218.4 199.75 218.25 200.15 218.25 202.45 218.05 204.05 217.35 206.05 216.5 207.25 214.8 208.5 212.95 208.2 211.05 208.1 210.5 207.55 209 207.05 207.75 207.05 206.95 207.1 205.8 207.95 204.55 208.35 204 209.75 202.5 213 198.95 215.3 192.95 217.6 185.75 218.75 182.2 220.25 177.55 220.6 175.8 221.35 172.15 220.6 169.4 219.95 167.2 218.2 164.95 217.05 163.45 214.65 161.15 205.25 152.15 196.75 146.3 Z"/>
</g>

<g id="fish_0_Layer0_0_FILL">
<path fill="#330033" stroke="none" d="
M 68.6 117.4
Q 65.75 117.6 64.95 117.7 55.2 118.6 48.05 120.4 43.9 121.45 43.45 121.55 40.85 122.05 38.8 122.1 36.65 122.05 35.55 122.1 33.65 122.15 32.4 122.75 31.05 123.4 30.2 124.65 29.4 125.95 29.3 127.45 29.25 128.9 29.95 130.25 30.75 131.6 32.05 132.4 33.65 133.3 35.9 133.05 37.8 132.85 39.65 131.75 41.05 131 42.95 129.45 45.8 127.05 46.05 126.85 51.3 122.9 60.55 120.75 64.45 119.9 69.05 119.25 68.8 118.3 68.6 117.4
M 39.55 71.3
Q 38.95 70.8 38.6 70.55 37.35 69.65 35.7 69.7 33.95 69.75 32.75 70.8 31.55 71.85 31.25 73.5 30.95 75.15 31.65 76.55 32.55 78.3 34.65 79.1 36.5 79.85 38.65 79.6 40.35 79.45 42.6 78.65 43.85 78.25 46.4 77.25 48.85 76.4 53.8 75.5 55.45 74.45 56.3 73.5 57.4 72.45 58.5 70.45 54.55 70.95 52.55 71.1 49.25 71.2 47.65 71.3 44.75 71.4 42.8 71.85 41.25 72.15 40.65 71.95 40.15 71.8 39.55 71.3
M 97.2 69.2
Q 94.7 68.6 92.35 68.55 90.5 68.45 86.9 68.65 78.4 69.1 72.7 69.45 72.75 69.6 72.85 69.75 73.8 71.25 74.85 72.45 76 72.4 77.3 72.35
L 87.3 71.95
Q 90.6 71.8 91.95 71.65 94.55 71.35 96.5 70.75 97.2 70.4 97.4 70.15 97.6 69.9 97.5 69.6 97.45 69.25 97.2 69.2
M 166.1 116.75
L 165.1 111.8
Q 155.35 111.2 144.4 111.5 132.15 111.9 113.25 113.6 89.25 115.8 83.35 116.3 82.6 116.35 82.1 116.4 77.9 116.7 74.7 116.9 74.75 117.7 74.8 118.5 74.8 118.55 74.8 118.6 79.15 118.2 87 117.75 102.95 116.8 113.65 116.3 119.15 116.05 123.35 115.9 143.55 115.35 159.75 116.25 160.15 116.25 160.6 116.3 163.45 116.5 166.1 116.75
M 210.65 122.2
Q 209.35 120.8 206.05 119.6 200.85 117.75 195.3 116.3 186.05 113.9 175.65 112.7 174.1 112.5 172.45 112.35 172 114.85 171.75 117.4 173.8 117.7 175.5 118.05 181.7 119.3 189.75 122.3 194.4 124.05 203.6 127.8 206.2 128.9 207.85 128.9 209 128.95 210.05 128.5 211.1 128 211.6 127.05 212.25 125.95 211.95 124.5 211.6 123.15 210.65 122.2
M 163.9 71.05
Q 166.3 69.15 167.25 68.05
L 144.55 66.45
Q 143.2 66.4 142.75 66.4 141.7 66.45 140.95 66.8 140.1 67.15 139.55 67.95 139 68.75 139.2 69.65 139.45 71.1 141.35 71.55 141.95 71.7 142.9 71.7 143.4 71.7 144.4 71.65 146.2 71.6 148.7 71.9 150.1 72.1 152.95 72.4 155.7 72.7 159.75 72.55 160.3 72.55 161 72.55 161.95 72.1 162.8 71.65 163.35 71.35 163.85 71.1
L 163.9 71.05
M 185.55 71.2
Q 187.3 72.65 189.5 73.75
L 198.8 74.6
Q 200.5 74.7 201.05 74.5 202.45 74.15 202.6 72.95 202.75 71.7 201.45 71 200.8 70.65 199.1 70.45 194.4 70 183.35 69.2 185.25 71.05 185.55 71.2
M 115.5 52.1
Q 111.25 52.15 102.7 52.95
L 99.4 53.2
Q 98.8 53.2 98.55 53.5 98.25 54.15 98.85 54.45 99.2 54.65 99.9 54.65 103.35 54.7 110.25 54 113.5 53.8 120.05 53.85 122.9 53.85 128.5 53.65
L 133.2 53.5
Q 134.3 53.5 134.3 52.9 133.95 52.55 133.2 52.55
L 123.65 52.25
Q 118.25 52.05 115.5 52.1
M 121.7 44.5
Q 122.05 44.5 122.05 43.9 121.95 43.55 121.7 43.55
L 118.7 43.25
Q 116.95 43.05 116.1 43.1 114.75 43.15 112.05 43.95
L 111 44.2
Q 110.85 44.2 110.75 44.5 110.65 45.15 110.85 45.45 110.95 45.65 111.2 45.65 112.25 45.7 114.45 45 115.5 44.8 117.55 44.85 118.45 44.85 120.2 44.65
L 121.7 44.5
M 186.9 32.25
Q 183.25 29.65 179.6 27.6 179.45 25.65 176.8 23.25 166.55 14 160.05 9.6 150.15 2.85 140.8 0.95 130.65 -1.2 118.2 1.55 109.25 3.65 96.3 9.1 85 13.9 77.7 18.1 68.45 23.45 62.1 29.75 52.3 34.95 43.8 42 32.15 51.65 24 63.75 19.6 70.4 16.95 76.95 14.3 83.55 13 91.85 19.3 88.9 22.2 87.65 23 87.3 23.85 86.95 24.45 84.35 25.2 82.15 28.5 73.1 35.8 63.9 49.35 46.85 70.5 36.75 90.7 27.05 113.45 25.75 123.1 25.2 136.05 26.2 150.15 27.2 159.55 30 169.9 32.95 179 38.85 183.8 42.05 188.55 46.25 198 54.6 204.9 65.35 207.95 70.05 210.4 75.05 211.25 75.5 211.6 76.35 211.95 77.15 211.8 78.05 213.95 83 215.6 88.15 217.65 94.65 219.8 105.55 221.05 111.7 221.75 116.3 222.3 119.8 222.45 122.45 223 129.1 222.3 138.75 220.95 155.65 216.65 172.75 211.45 193.5 202.1 214.55 201.8 215.4 201.6 215.95 199.6 215.55 196.5 215.85 159.1 219.1 133.7 220 99.5 221.2 70.95 218.95 56.45 217.8 46.75 215.7 43.15 214.95 41.6 213.7 40.95 213.2 40.35 212.4 39.8 211.1 39.25 209.8 36.2 203.9 34.7 200.95 30.95 192.9 27.85 181.25 27.3 179.05 26.7 176.7 19.85 147.1 20.7 116.3 20.85 109.85 21.4 103.4 21.8 97.75 22.6 93.1 18.9 93.9 14.5 95 13.25 95.25 12.5 95.2 11.75 101.5 11.55 109.8 11.45 113.1 11.45 116.3 11.45 138.85 15.5 158.6 15.7 160.8 15.9 162.75 15.15 162.95 14.6 163.5 13.8 164.3 13.05 166.5 11.15 172.25 7.15 183.65 3.65 193.9 1.7 200.95 0.55 205.1 0.2 207.75 -0.3 211.6 0.45 214.6 1.45 218.8 4.75 222 7.95 225.1 12.2 226.35 15.4 227.3 19.4 227.25 22.4 227.2 26.7 226.55 31.8 225.85 34.5 224.7 36.45 223.85 37.6 222.65 38.9 223.45 40.7 223.95 42.5 224.55 45.55 224.9 54.3 226 65.3 226.35 71.95 226.6 85.15 226.7
L 114.1 226.95
Q 135.25 227.15 147.85 226.8 152.4 226.65 172.85 225.7 188.1 225 197.8 225.05 200.85 225.05 202.35 224.6 202.7 224.9 203.1 225.05 203.6 225.2 204.15 225.3 205.25 227.45 208.15 228.4 210 228.95 213.9 228.95 217.7 228.95 220 228.65 223.4 228.25 225.85 227.1 228.3 225.95 231.95 222.65 235.2 219.75 236.35 218.2 238.95 214.85 239.95 210.2 240.8 206 240.3 201.3 239.9 197.35 238.4 192.7 237.45 189.55 235.35 184.35 232.9 178.35 232 176.1 230.35 171.45 229.55 167.6 229.25 165.65 228.8 164.65 229 163.6 229.2 162.5 231.55 149.75 232.25 140.6 233.3 128.7 232.2 118.65 232.1 117.55 231.9 116.3 231.15 110.8 229.2 101.65 226.75 90.25 225.35 85.65 220.5 69.6 210.55 55.75 200.6 41.9 186.9 32.25
M 225 180.85
Q 225.7 183.1 226.95 186.35 228.85 191.2 229.4 192.8 231.75 199.75 231.4 205.9 231.15 209.3 230.15 211.4 229.15 213.5 226.65 215.7 224.2 217.8 222 218.75 219.9 219.65 217.1 219.9 213.85 220.25 210.65 219.6 210.85 219.1 211.05 218.6
L 217.3 202.65
Q 220.5 194.2 221.95 190.15 223.7 185.2 225 180.85
M 142.9 9.5
Q 149.85 11.75 157.45 17.25 158.65 18.2 160.9 19.95 154.75 18.4 146.3 17.25 134.75 15.7 126.2 15.45 111.2 14.95 96.85 17.65 90.7 18.8 84.85 20.5 88.8 18.65 93.8 16.6 101.1 13.6 105.65 12.1 112.25 9.8 117.85 8.7 131.95 5.95 142.9 9.5
M 14.9 185.15
Q 16.35 178.7 17.35 173.25 19.8 187.25 24.35 198.35 25.5 201.2 27.9 206.25 30.5 211.8 31.55 214.2 32.1 215.35 32.45 216.25 32.2 216.25 31.85 216.3 25.95 217.15 19.2 217.25 16.9 217.25 15.55 217 13.55 216.65 12.3 215.65 9.85 213.75 9.65 209.95 9.5 207.55 10.55 203.55 13.5 191.3 14.9 185.15 Z"/>

<path fill="#FFFFCC" stroke="none" d="
M 91.9 77.8
Q 87 77.8 86 77.75 82.7 77.5 80.35 76.55 77.25 75.3 74.85 72.45 73.8 71.25 72.85 69.75 72.75 69.6 72.7 69.45 70.5 65.95 68.5 59.95 67.2 56.25 65.15 56.65 63.85 56.85 62.95 59.2
L 60.05 66.7
Q 59.25 68.85 58.5 70.45 57.4 72.45 56.3 73.5 55.45 74.45 53.8 75.5 52.9 76 51.8 76.6 47.65 78.75 44.15 80.1 41.95 80.85 38.45 81.9 34 83.2 32.75 83.6 28.65 84.9 23.85 86.95 23 87.3 22.2 87.65 19.3 88.9 13 91.85 12.45 92.1 11.9 92.35 11.2 92.65 11 93 10.65 93.55 10.95 94.2 11.3 94.85 11.9 95.1 12.15 95.15 12.5 95.2 13.25 95.25 14.5 95 18.9 93.9 22.6 93.1 28.2 91.85 32.35 91.35 42.3 90 50.35 91.25 57.55 92.35 60.75 95.85 62.45 97.8 64.05 102.15 66.8 109.7 68.6 117.4 68.8 118.3 69.05 119.25 69.85 123.1 70.45 126.95 70.85 129.8 72.4 129.85 73.2 129.85 73.8 128.95 74.25 128.25 74.4 127.25 75.05 123.7 74.8 118.6 74.8 118.55 74.8 118.5 74.75 117.7 74.7 116.9 74.4 112.25 74.3 109.7 73.85 98.65 78 92.9 82.85 86.2 94.25 84.4 97.2 83.95 103.6 83.55 109.75 83.15 112.9 82.65 114 82.5 114.7 81.95 115.55 81.35 115.3 80.55 115 79.55 113.15 79.4 99.5 77.8 91.9 77.8
M 66.25 78.95
L 67.35 78.6
Q 69.4 78.85 70.2 80.7 70.6 81.5 70.45 82.45 70.35 83.4 69.75 84.15 69.25 84.85 68.35 85.15 67.4 85.5 66.5 85.3 65.4 84.95 64.85 84.2 64.25 83.35 64.25 82 64.25 80.65 64.85 79.8 65.25 79.35 66.25 78.95
M 189.5 73.75
Q 187.3 72.65 185.55 71.2 185.25 71.05 183.35 69.2 183.3 69.15 183.25 69.1
L 178.7 64.7
Q 176.65 62.7 175.9 61.5 175.1 60.15 174.65 59.5 173.9 58.4 173 58 172.15 57.7 171.2 57.95 170.3 58.3 169.8 59.1 169.1 60.25 169.4 61.65 169.5 62.2 169.8 62.75 169.55 63.9 168.7 65.6 167.9 67.3 167.4 67.85 167.35 67.95 167.25 68.05 166.3 69.15 163.9 71.05
L 163.85 71.1
Q 163.35 71.35 162.8 71.65 161.95 72.1 161 72.55 159.4 73.25 157.5 73.9 152.35 75.75 145.5 76.8 141.3 77.45 133.2 78.25 132.1 78.3 131.85 78.8 131.75 79.05 131.75 79.25 130.2 79.75 130.15 80.85 130.05 81.9 131.15 82.4 131.85 82.75 133.1 82.75 133.8 82.75 134.7 82.65
L 134.75 82.7
Q 136 83.45 139.15 83.55 150.75 84.25 156.75 90.35 159.9 93.6 161.9 98.95 163.1 102.35 164.5 108.9
L 165.1 111.8 166.1 116.75 166.95 121.05
Q 167.65 124.35 169.5 124.2 171.5 124.05 171.6 120.5 171.65 118.95 171.75 117.4 172 114.85 172.45 112.35 173 109.2 173.9 106.1 175.4 100.6 177.75 97.15 181.95 90.7 190.75 86.9 194.25 85.45 198.7 84.3 201.65 83.5 206.95 82.45 209.2 81.95 210.1 81.25 210.75 80.7 210.95 79.8 211 79.65 211 79.55 211.45 79.1 211.65 78.5 211.75 78.3 211.8 78.05 211.95 77.15 211.6 76.35 211.25 75.5 210.4 75.05 210.05 74.85 209.55 74.75 208.3 74.5 207.1 75.25 206.45 74.95 205.2 75 197.8 75.35 190.75 74.3 190.1 74.05 189.5 73.75
M 174.35 77.95
Q 175.4 78.85 175.6 80.15 175.85 81.45 175.3 82.75 174.65 84 173.45 84.55 172.3 85.2 170.9 84.95 169.5 84.65 168.6 83.7 167.85 82.9 167.6 81.7 167.4 80.55 167.8 79.45 168.3 78.25 169.45 77.45 170.65 76.75 171.95 76.85 173.3 77 174.35 77.95 Z"/>

<path fill="#FF9966" stroke="none" d="
M 67.35 78.6
L 66.25 78.95
Q 65.25 79.35 64.85 79.8 64.25 80.65 64.25 82 64.25 83.35 64.85 84.2 65.4 84.95 66.5 85.3 67.4 85.5 68.35 85.15 69.25 84.85 69.75 84.15 70.35 83.4 70.45 82.45 70.6 81.5 70.2 80.7 69.4 78.85 67.35 78.6
M 152.4 212.25
Q 145.45 212.15 142.7 209.25 141.6 207.9 141 207.25 139.95 206.2 138.9 206.05 137.9 205.95 136.8 206.7 136.25 207.05 134.95 208.2 131.9 211.15 127.85 212.8 123.8 214.35 119.55 214.4 115.25 214.45 111.25 212.95 107.15 211.45 104 208.6 102.75 207.45 102 207.35 101.2 207.25 99.75 208.1 91.7 212.6 85.05 212.3 81 212.15 77.6 210.25 73.95 208.2 72.3 204.8 71.7 203.45 71.2 203.05 70.8 202.65 70.3 202.55 69.7 202.45 69.35 202.8 68.8 203.3 68.9 204.45 69.2 207.65 72.15 210.2 74.7 212.35 78.45 213.35 83.25 214.7 88.35 214.2 93.45 213.7 97.9 211.45 99.6 210.6 100.3 210.6 101.35 210.65 103.1 212.1 106.45 214.75 110.5 216.15 114.65 217.6 118.85 217.6 123.15 217.55 127.25 216.1 131.3 214.65 134.6 211.95 135.9 210.85 136.6 210.35 137.75 209.4 138.65 208.9 140.25 211.95 144.1 213.5 147.3 214.75 151.55 214.85 158.05 215.05 162.2 213 164.75 211.8 166.5 209.7 168.35 207.5 168.75 204.85 168.85 204.4 168.7 204.1 168.5 203.75 168.05 203.75 167.55 203.75 167.25 204.05 167 204.3 166.55 205.5 165.85 207.4 164.25 208.9 162.7 210.3 160.65 211.1 157.5 212.25 152.4 212.25
M 170.95 173
Q 170.55 172.6 170.05 173.1 169.55 173.5 169.35 174.15 168.05 178.1 165.2 181.4 162.35 184.65 158.65 186.6 155.45 188.3 152.8 188.25 151.2 188.2 149.8 187.55 148.3 186.8 147.5 185.6 146.65 184.05 146.2 183.25 145.4 181.95 144.35 181.75 143.35 181.65 142.35 182.4 141.7 182.9 140.7 184.1 137.3 188.2 132.25 190.55 127.25 192.9 121.85 192.8 116.45 192.75 111.55 190.3 106.55 187.8 103.2 183.6 101.8 181.75 100.65 181.75 99.85 181.8 98.55 182.95 95.65 185.4 91.65 186.45 87.75 187.4 83.85 186.75 76.3 185.55 70.25 179.35 66.6 175.65 67.15 172.3 67.5 170.3 67.5 170.25 67.55 169.05 66.85 168.55 66.05 168.05 65.1 168.7 64.2 169.4 63.85 170.45 63.15 172.6 63.6 175.05 64.1 177.4 65.55 179.35 67.75 182.6 72.7 185.35 79.9 189.45 86.4 189.6 90.05 189.7 93.5 188.5 97.1 187.2 99.55 184.65 103.2 189.8 109 192.85 114.75 195.95 121.05 196.15 127.3 196.4 133.3 193.75 139.3 191.2 143.4 186.35 144.75 189 147.7 190.55 150.45 191.95 153.65 191.85 159.25 191.6 164.65 187 167.8 184.3 169.5 181.05 171.5 177.4 171.25 173.8 171.25 173.25 170.95 173
M 175.6 80.15
Q 175.4 78.85 174.35 77.95 173.3 77 171.95 76.85 170.65 76.75 169.45 77.45 168.3 78.25 167.8 79.45 167.4 80.55 167.6 81.7 167.85 82.9 168.6 83.7 169.5 84.65 170.9 84.95 172.3 85.2 173.45 84.55 174.65 84 175.3 82.75 175.85 81.45 175.6 80.15 Z"/>

<path fill="#FF6666" stroke="none" d="
M 200.4 177.9
Q 200.2 175.9 201.8 173.6 202.65 172.3 204.55 169.9 205.35 168.75 206.3 166.45 207.35 163.9 207.9 162.9 208.15 162.5 208.4 162.2 207.85 161.65 207.35 161.15 189.1 143.65 160.65 137.05 135.95 131.25 106.7 134.25 91.55 135.8 79.9 138.95 65.8 142.8 55.1 149.35 45.25 155.4 38.25 163.75 38.5 164.3 38.85 165
L 42.85 173.45
Q 43.45 174.8 43.75 175.75 44.2 177.25 44.45 177.7 45.25 178.55 45.05 179 44.7 179.6 43.95 179.25
L 43.1 178.35
Q 42.75 178 42.1 177.55
L 41.05 176.8
Q 40.1 175.9 39.15 174.3 38.45 173.15 37.3 170.75
L 35.6 167.15
Q 35.35 167.4 35.1 167.75 30.4 174.3 27.85 181.25 30.95 192.9 34.7 200.95 36.2 203.9 39.25 209.8 39.8 211.1 40.35 212.4 40.95 213.2 41.6 213.7 43.15 214.95 46.75 215.7 56.45 217.8 70.95 218.95 99.5 221.2 133.7 220 159.1 219.1 196.5 215.85 199.6 215.55 201.6 215.95 201.8 215.4 202.1 214.55 211.45 193.5 216.65 172.75 214.65 169.25 211.65 165.7 209.05 171.7 206.9 174.55 205.5 176.5 204.15 177.3 202.25 178.55 200.4 177.9
M 170.05 173.1
Q 170.55 172.6 170.95 173 171.25 173.25 171.25 173.8 171.5 177.4 169.5 181.05 167.8 184.3 164.65 187 159.25 191.6 153.65 191.85 150.45 191.95 147.7 190.55 144.75 189 143.4 186.35 139.3 191.2 133.3 193.75 127.3 196.4 121.05 196.15 114.75 195.95 109 192.85 103.2 189.8 99.55 184.65 97.1 187.2 93.5 188.5 90.05 189.7 86.4 189.6 79.9 189.45 72.7 185.35 67.75 182.6 65.55 179.35 64.1 177.4 63.6 175.05 63.15 172.6 63.85 170.45 64.2 169.4 65.1 168.7 66.05 168.05 66.85 168.55 67.55 169.05 67.5 170.25 67.5 170.3 67.15 172.3 66.6 175.65 70.25 179.35 76.3 185.55 83.85 186.75 87.75 187.4 91.65 186.45 95.65 185.4 98.55 182.95 99.85 181.8 100.65 181.75 101.8 181.75 103.2 183.6 106.55 187.8 111.55 190.3 116.45 192.75 121.85 192.8 127.25 192.9 132.25 190.55 137.3 188.2 140.7 184.1 141.7 182.9 142.35 182.4 143.35 181.65 144.35 181.75 145.4 181.95 146.2 183.25 146.65 184.05 147.5 185.6 148.3 186.8 149.8 187.55 151.2 188.2 152.8 188.25 155.45 188.3 158.65 186.6 162.35 184.65 165.2 181.4 168.05 178.1 169.35 174.15 169.55 173.5 170.05 173.1
M 201.85 189.05
Q 201.35 188.65 201.45 187.75 201.6 186.7 202 185.95 202.5 185.15 203.4 184.15 205.25 182 206.8 180.55 207.9 179.65 208.15 179.2 208.3 179 208.5 178.5 208.7 178.05 208.9 177.85 209.1 177.55 209.5 177.5 209.95 177.4 210.2 177.7 210.4 178 210.25 178.65 209.9 180.05 208.4 182.8 207.55 184.4 206.65 185.65 205.6 186.95 204 188.45 203.45 188.95 203 189.15 202.25 189.45 201.85 189.05
M 204.7 195
Q 205.55 193.9 206.3 193.6 207.1 193.25 207.9 193.7 208.8 194.05 209.05 194.9 209.3 195.85 208.65 197.6 207.75 200.1 206.9 201.3 205.6 203.2 203.7 204.2 202.35 204.85 199.4 205.45 199.2 205.55 198.95 205.45 198.65 205.2 199.05 204.6 199.5 203.85 200 202.4 200.6 200.8 200.85 200.2 201.4 199.2 202.5 197.8
L 204.7 195
M 37.9 185.6
L 33.05 176.85
Q 32.4 175.85 32.35 175.05 32.25 173.75 33.25 173.45 34 173.2 34.75 173.85 35.05 174.1 35.75 175.25 36.5 176.6 38.6 179.55 40.55 182.3 41.35 184 42.6 186.55 42.35 188.5 42.25 189.05 42 189.25 41.75 189.45 41.2 189.2 39.5 188.6 37.9 185.6
M 36.3 192.05
Q 37.1 191.65 37.9 191.95 38.55 192.3 39.1 193.25 39.4 193.75 40 194.9
L 40.95 196
Q 41.55 196.85 42 198.55 42.1 199.1 42.05 199.25 41.95 199.55 41.45 199.75 40.5 199.95 39.4 199.4 38.5 198.9 37.8 198.05 36.5 196.5 35.85 194.95 35.4 194.1 35.45 193.4 35.55 192.55 36.3 192.05
M 142.7 209.25
Q 145.45 212.15 152.4 212.25 157.5 212.25 160.65 211.1 162.7 210.3 164.25 208.9 165.85 207.4 166.55 205.5 167 204.3 167.25 204.05 167.55 203.75 168.05 203.75 168.5 203.75 168.7 204.1 168.85 204.4 168.75 204.85 168.35 207.5 166.5 209.7 164.75 211.8 162.2 213 158.05 215.05 151.55 214.85 147.3 214.75 144.1 213.5 140.25 211.95 138.65 208.9 137.75 209.4 136.6 210.35 135.9 210.85 134.6 211.95 131.3 214.65 127.25 216.1 123.15 217.55 118.85 217.6 114.65 217.6 110.5 216.15 106.45 214.75 103.1 212.1 101.35 210.65 100.3 210.6 99.6 210.6 97.9 211.45 93.45 213.7 88.35 214.2 83.25 214.7 78.45 213.35 74.7 212.35 72.15 210.2 69.2 207.65 68.9 204.45 68.8 203.3 69.35 202.8 69.7 202.45 70.3 202.55 70.8 202.65 71.2 203.05 71.7 203.45 72.3 204.8 73.95 208.2 77.6 210.25 81 212.15 85.05 212.3 91.7 212.6 99.75 208.1 101.2 207.25 102 207.35 102.75 207.45 104 208.6 107.15 211.45 111.25 212.95 115.25 214.45 119.55 214.4 123.8 214.35 127.85 212.8 131.9 211.15 134.95 208.2 136.25 207.05 136.8 206.7 137.9 205.95 138.9 206.05 139.95 206.2 141 207.25 141.6 207.9 142.7 209.25 Z"/>

<path fill="#CC3366" stroke="none" d="
M 37.9 191.95
Q 37.1 191.65 36.3 192.05 35.55 192.55 35.45 193.4 35.4 194.1 35.85 194.95 36.5 196.5 37.8 198.05 38.5 198.9 39.4 199.4 40.5 199.95 41.45 199.75 41.95 199.55 42.05 199.25 42.1 199.1 42 198.55 41.55 196.85 40.95 196
L 40 194.9
Q 39.4 193.75 39.1 193.25 38.55 192.3 37.9 191.95
M 33.05 176.85
L 37.9 185.6
Q 39.5 188.6 41.2 189.2 41.75 189.45 42 189.25 42.25 189.05 42.35 188.5 42.6 186.55 41.35 184 40.55 182.3 38.6 179.55 36.5 176.6 35.75 175.25 35.05 174.1 34.75 173.85 34 173.2 33.25 173.45 32.25 173.75 32.35 175.05 32.4 175.85 33.05 176.85
M 206.3 193.6
Q 205.55 193.9 204.7 195
L 202.5 197.8
Q 201.4 199.2 200.85 200.2 200.6 200.8 200 202.4 199.5 203.85 199.05 204.6 198.65 205.2 198.95 205.45 199.2 205.55 199.4 205.45 202.35 204.85 203.7 204.2 205.6 203.2 206.9 201.3 207.75 200.1 208.65 197.6 209.3 195.85 209.05 194.9 208.8 194.05 207.9 193.7 207.1 193.25 206.3 193.6
M 201.45 187.75
Q 201.35 188.65 201.85 189.05 202.25 189.45 203 189.15 203.45 188.95 204 188.45 205.6 186.95 206.65 185.65 207.55 184.4 208.4 182.8 209.9 180.05 210.25 178.65 210.4 178 210.2 177.7 209.95 177.4 209.5 177.5 209.1 177.55 208.9 177.85 208.7 178.05 208.5 178.5 208.3 179 208.15 179.2 207.9 179.65 206.8 180.55 205.25 182 203.4 184.15 202.5 185.15 202 185.95 201.6 186.7 201.45 187.75
M 198.7 84.3
Q 194.25 85.45 190.75 86.9 181.95 90.7 177.75 97.15 175.4 100.6 173.9 106.1 173 109.2 172.45 112.35 174.1 112.5 175.65 112.7 186.05 113.9 195.3 116.3 200.85 117.75 206.05 119.6 209.35 120.8 210.65 122.2 211.6 123.15 211.95 124.5 212.25 125.95 211.6 127.05 211.1 128 210.05 128.5 209 128.95 207.85 128.9 206.2 128.9 203.6 127.8 194.4 124.05 189.75 122.3 181.7 119.3 175.5 118.05 173.8 117.7 171.75 117.4 171.65 118.95 171.6 120.5 171.5 124.05 169.5 124.2 167.65 124.35 166.95 121.05
L 166.1 116.75
Q 163.45 116.5 160.6 116.3 160.15 116.25 159.75 116.25 143.55 115.35 123.35 115.9 119.15 116.05 113.65 116.3 102.95 116.8 87 117.75 79.15 118.2 74.8 118.6 75.05 123.7 74.4 127.25 74.25 128.25 73.8 128.95 73.2 129.85 72.4 129.85 70.85 129.8 70.45 126.95 69.85 123.1 69.05 119.25 64.45 119.9 60.55 120.75 51.3 122.9 46.05 126.85 45.8 127.05 42.95 129.45 41.05 131 39.65 131.75 37.8 132.85 35.9 133.05 33.65 133.3 32.05 132.4 30.75 131.6 29.95 130.25 29.25 128.9 29.3 127.45 29.4 125.95 30.2 124.65 31.05 123.4 32.4 122.75 33.65 122.15 35.55 122.1 36.65 122.05 38.8 122.1 40.85 122.05 43.45 121.55 43.9 121.45 48.05 120.4 55.2 118.6 64.95 117.7 65.75 117.6 68.6 117.4 66.8 109.7 64.05 102.15 62.45 97.8 60.75 95.85 57.55 92.35 50.35 91.25 42.3 90 32.35 91.35 28.2 91.85 22.6 93.1 21.8 97.75 21.4 103.4 20.85 109.85 20.7 116.3 19.85 147.1 26.7 176.7 27.3 179.05 27.85 181.25 30.4 174.3 35.1 167.75 35.35 167.4 35.6 167.15
L 37.3 170.75
Q 38.45 173.15 39.15 174.3 40.1 175.9 41.05 176.8
L 42.1 177.55
Q 42.75 178 43.1 178.35
L 43.95 179.25
Q 44.7 179.6 45.05 179 45.25 178.55 44.45 177.7 44.2 177.25 43.75 175.75 43.45 174.8 42.85 173.45
L 38.85 165
Q 38.5 164.3 38.25 163.75 45.25 155.4 55.1 149.35 65.8 142.8 79.9 138.95 91.55 135.8 106.7 134.25 135.95 131.25 160.65 137.05 189.1 143.65 207.35 161.15 207.85 161.65 208.4 162.2 208.15 162.5 207.9 162.9 207.35 163.9 206.3 166.45 205.35 168.75 204.55 169.9 202.65 172.3 201.8 173.6 200.2 175.9 200.4 177.9 202.25 178.55 204.15 177.3 205.5 176.5 206.9 174.55 209.05 171.7 211.65 165.7 214.65 169.25 216.65 172.75 220.95 155.65 222.3 138.75 223 129.1 222.45 122.45 222.3 119.8 221.75 116.3 221.05 111.7 219.8 105.55 217.65 94.65 215.6 88.15 213.95 83 211.8 78.05 211.75 78.3 211.65 78.5 211.45 79.1 211 79.55 211 79.65 210.95 79.8 210.75 80.7 210.1 81.25 209.2 81.95 206.95 82.45 201.65 83.5 198.7 84.3
M 188.55 46.25
Q 183.8 42.05 179 38.85 169.9 32.95 159.55 30 150.15 27.2 136.05 26.2 123.1 25.2 113.45 25.75 90.7 27.05 70.5 36.75 49.35 46.85 35.8 63.9 28.5 73.1 25.2 82.15 24.45 84.35 23.85 86.95 28.65 84.9 32.75 83.6 34 83.2 38.45 81.9 41.95 80.85 44.15 80.1 47.65 78.75 51.8 76.6 52.9 76 53.8 75.5 48.85 76.4 46.4 77.25 43.85 78.25 42.6 78.65 40.35 79.45 38.65 79.6 36.5 79.85 34.65 79.1 32.55 78.3 31.65 76.55 30.95 75.15 31.25 73.5 31.55 71.85 32.75 70.8 33.95 69.75 35.7 69.7 37.35 69.65 38.6 70.55 38.95 70.8 39.55 71.3 40.15 71.8 40.65 71.95 41.25 72.15 42.8 71.85 44.75 71.4 47.65 71.3 49.25 71.2 52.55 71.1 54.55 70.95 58.5 70.45 59.25 68.85 60.05 66.7
L 62.95 59.2
Q 63.85 56.85 65.15 56.65 67.2 56.25 68.5 59.95 70.5 65.95 72.7 69.45 78.4 69.1 86.9 68.65 90.5 68.45 92.35 68.55 94.7 68.6 97.2 69.2 97.45 69.25 97.5 69.6 97.6 69.9 97.4 70.15 97.2 70.4 96.5 70.75 94.55 71.35 91.95 71.65 90.6 71.8 87.3 71.95
L 77.3 72.35
Q 76 72.4 74.85 72.45 77.25 75.3 80.35 76.55 82.7 77.5 86 77.75 87 77.8 91.9 77.8 99.5 77.8 113.15 79.4 115 79.55 115.3 80.55 115.55 81.35 114.7 81.95 114 82.5 112.9 82.65 109.75 83.15 103.6 83.55 97.2 83.95 94.25 84.4 82.85 86.2 78 92.9 73.85 98.65 74.3 109.7 74.4 112.25 74.7 116.9 77.9 116.7 82.1 116.4 82.6 116.35 83.35 116.3 89.25 115.8 113.25 113.6 132.15 111.9 144.4 111.5 155.35 111.2 165.1 111.8
L 164.5 108.9
Q 163.1 102.35 161.9 98.95 159.9 93.6 156.75 90.35 150.75 84.25 139.15 83.55 136 83.45 134.75 82.7
L 134.7 82.65
Q 133.8 82.75 133.1 82.75 131.85 82.75 131.15 82.4 130.05 81.9 130.15 80.85 130.2 79.75 131.75 79.25 131.75 79.05 131.85 78.8 132.1 78.3 133.2 78.25 141.3 77.45 145.5 76.8 152.35 75.75 157.5 73.9 159.4 73.25 161 72.55 160.3 72.55 159.75 72.55 155.7 72.7 152.95 72.4 150.1 72.1 148.7 71.9 146.2 71.6 144.4 71.65 143.4 71.7 142.9 71.7 141.95 71.7 141.35 71.55 139.45 71.1 139.2 69.65 139 68.75 139.55 67.95 140.1 67.15 140.95 66.8 141.7 66.45 142.75 66.4 143.2 66.4 144.55 66.45
L 167.25 68.05
Q 167.35 67.95 167.4 67.85 167.9 67.3 168.7 65.6 169.55 63.9 169.8 62.75 169.5 62.2 169.4 61.65 169.1 60.25 169.8 59.1 170.3 58.3 171.2 57.95 172.15 57.7 173 58 173.9 58.4 174.65 59.5 175.1 60.15 175.9 61.5 176.65 62.7 178.7 64.7
L 183.25 69.1
Q 183.3 69.15 183.35 69.2 194.4 70 199.1 70.45 200.8 70.65 201.45 71 202.75 71.7 202.6 72.95 202.45 74.15 201.05 74.5 200.5 74.7 198.8 74.6
L 189.5 73.75
Q 190.1 74.05 190.75 74.3 197.8 75.35 205.2 75 206.45 74.95 207.1 75.25 208.3 74.5 209.55 74.75 210.05 74.85 210.4 75.05 207.95 70.05 204.9 65.35 198 54.6 188.55 46.25
M 122.05 43.9
Q 122.05 44.5 121.7 44.5
L 120.2 44.65
Q 118.45 44.85 117.55 44.85 115.5 44.8 114.45 45 112.25 45.7 111.2 45.65 110.95 45.65 110.85 45.45 110.65 45.15 110.75 44.5 110.85 44.2 111 44.2
L 112.05 43.95
Q 114.75 43.15 116.1 43.1 116.95 43.05 118.7 43.25
L 121.7 43.55
Q 121.95 43.55 122.05 43.9
M 102.7 52.95
Q 111.25 52.15 115.5 52.1 118.25 52.05 123.65 52.25
L 133.2 52.55
Q 133.95 52.55 134.3 52.9 134.3 53.5 133.2 53.5
L 128.5 53.65
Q 122.9 53.85 120.05 53.85 113.5 53.8 110.25 54 103.35 54.7 99.9 54.65 99.2 54.65 98.85 54.45 98.25 54.15 98.55 53.5 98.8 53.2 99.4 53.2
L 102.7 52.95
M 17.35 173.25
Q 16.35 178.7 14.9 185.15 13.5 191.3 10.55 203.55 9.5 207.55 9.65 209.95 9.85 213.75 12.3 215.65 13.55 216.65 15.55 217 16.9 217.25 19.2 217.25 25.95 217.15 31.85 216.3 32.2 216.25 32.45 216.25 32.1 215.35 31.55 214.2 30.5 211.8 27.9 206.25 25.5 201.2 24.35 198.35 19.8 187.25 17.35 173.25
M 157.45 17.25
Q 149.85 11.75 142.9 9.5 131.95 5.95 117.85 8.7 112.25 9.8 105.65 12.1 101.1 13.6 93.8 16.6 88.8 18.65 84.85 20.5 90.7 18.8 96.85 17.65 111.2 14.95 126.2 15.45 134.75 15.7 146.3 17.25 154.75 18.4 160.9 19.95 158.65 18.2 157.45 17.25
M 226.95 186.35
Q 225.7 183.1 225 180.85 223.7 185.2 221.95 190.15 220.5 194.2 217.3 202.65
L 211.05 218.6
Q 210.85 219.1 210.65 219.6 213.85 220.25 217.1 219.9 219.9 219.65 222 218.75 224.2 217.8 226.65 215.7 229.15 213.5 230.15 211.4 231.15 209.3 231.4 205.9 231.75 199.75 229.4 192.8 228.85 191.2 226.95 186.35 Z"/>
</g>
</defs>

<g transform="matrix( 1, 0, 0, 1, 30.65,26.55) ">
<g transform="matrix( 1, 0, 0, 1, 0,0) ">
<use xlink:href="#fish_0_Layer2_0_FILL"/>
</g>

<g transform="matrix( 1, 0, 0, 1, 0,0) ">
<use xlink:href="#fish_0_Layer1_0_FILL"/>
</g>

<g transform="matrix( 1, 0, 0, 1, 0,0) ">
<use xlink:href="#fish_0_Layer0_0_FILL"/>
</g>
</g>
</svg>
