
<svg xmlns="http://www.w3.org/2000/svg" version="1.1" xmlns:xlink="http://www.w3.org/1999/xlink" preserveAspectRatio="none" x="0px" y="0px" width="150px" height="150px" viewBox="0 0 150 150">
<defs>
<g id="Layer0_0_FILL">
<path fill="#FFFFFF" stroke="none" d="
M 45.1 -1.05
Q 44.95 -0.8 44.9 -0.4 44.85 0 44.75 0.5 43.75 8.05 42.5 21.8 42.3 21.95 42.15 22.15 40.75 23.3 38.1 26 36.45 27.65 36.2 28.85 36.1 29.6 36.4 30.3 33.85 31.4 31.9 32.5 26.8 35.2 23.3 38.35 19.15 42.05 15.25 47.8 14.1 49.55 13 51.45 7.1 61.7 4 73.2 0.85 84.75 0.8 96.5 0.8 98.55 0.95 101.7 0.25 102.4 -0.45 103.65 -2.9 107.9 -9.45 120.05 -15.15 130.45 -17.2 136.35 -19 141.75 -18.9 145.2 -18.9 147.65 -18.25 149.1 -17.2 151.2 -15.45 151.8 -15 152 -12.7 152.15 -9.7 152.45 -9.05 152.45 -5.85 152.45 -0.45 150 2 148.85 3.15 148.25 5 147.05 6 145.55 7.15 143.7 7.4 143.5 4.9 142.85 2.5 143.25 1.05 143.5 -0.85 144.35 -2.95 145.3 -4.1 145.7 -7.05 147 -11.05 147.75 -11.75 147.75 -11.95 147.6 -12.3 147.35 -12.3 146.6 -12.85 142 -12.3 139.4 -11.9 136.8 -10 132.9 -7.5 127.65 -3.1 119.55 -0.45 114.75 1.25 111.7 1.35 115.4 1.45 121.25 1.8 128 3.2 132.85 4.5359375 137.558984375 7 141.65 7.50390625 143.8298828125 8 146.1
L 9.1 151.1
Q 9.75 153.75 10.45 155.95 11.15 158.25 12.2 159 13.25 159.75 14.65 159.35 16.05 158.9 16.5 157.7 17 156.25 15.85 153.6
L 11.4 142.95
Q 11.1970703125 142.4705078125 11 142.05 10.978125 139.632421875 10.4 136.8 9.05 131.1 8.4 128.25 7.2 122.85 6.2 111.8 5.3 102.65 5.2 97.6 5 89.75 5.95 83.5 6.9 77.15 10.55 66.2 10.85 65.25 11.25 64.4 11.35 64.45 11.5 64.6 12.35 65.15 13.55 65.6 13.7 65.7 13.85 65.9 14.1 66.15 14.45 66.35 16.7 66.65 19.25 67.4 24.5 68.9 28.5 71.45 31.6 73 33.45 75.25 34.4 76.2 35.3 77.2 36.3 77.9 37.1 78.6 44.65 84.75 48.6 96.05 48.85 96.75 49.1 97.55 49.2 96.1 49.4 95 49.75 92.85 50.25 90.75 50.35 88.95 50.5 87.15 51 82.1 51.25 80.7 52.3 76.6 54.95 73.1 56.9 70.75 58.65 69.55 60.9 68.05 65.25 67.05 67.1 66.45 67.75 66.05 67.85 65.95 67.95 65.95
L 73.9 65
Q 74.1 65.1 74.4 65.15 74.45 65.35 74.65 65.45 76 66.65 79.5 67.45 85.25 69 88.65 70.65 93.35 73 95.5 76.65 95.65 76.85 95.7 77 99.7 81.5 102.25 88.25 103.9 92.9 105.05 98.95 105.05 99 106 99.2 108.15 89.35 111.9 81.35 112 80.65 112.1 80.3 113.1 76.15 115.75 72.75 117.75 70.35 119.45 69.15 119.55 69.05 119.75 69 126.2 62.05 136.9 59.7 137 59.7 137.15 59.6 140.05 66.7 141.35 71.3 143.75 79.7 143.4 86.8 143.3 89.35 142.55 94.35 139.45 114.05 135.4 126.2 132.6 134.5 132.55 134.6 132.4546875 134.922265625 132.35 135.25
L 131 137.7
Q 127.8 143.7 125.7 150.5 125.05 152.65 125.05 153.95 125 155.35 125.65 156.95 125.9 157.7 125.9 157.9
L 125.8 158.75
Q 125.8 159.4 126.25 159.4 126.5 159.4 126.7 159.1 126.9 158.7 127 158.5 127.2 158.15 127.65 157.9 129.15 156.7 130.15 154.1 130.95 151.15 131.4 149.7 131.897265625 148.145703125 133 145.9 132.8359375 147.40859375 133.25 149.35 134.2 153.05 136.65 155.95 139.2 158.95 142.65 160.1 146.55 161.4 149.45 159.85 153.2 157.85 154.35 151.05 155.8 142.85 154.55 132.35 153.7 126.05 150.95 113.7 148.65 103.9 148.05 101.7 147.5 99.65 146.4 99.65 146.3 99.65 146.25 99.65 147 95.6 147.3 92.85 148.45 84.1 147.4 77.2 146.65 72.3 144.7 66.65 143.55 63.45 141.65 58.95 143.7 58.7 145.85 58.6 144.75 57.95 142.5 57.65
L 141.05 57.5
Q 140.85 57 140.6 56.5 138.4 51.2 136.6 48.15 134.95 45.45 132.95 42.85 128.1 36.8 120.9 31.65 120.7 31.55 120.5 31.4 120.4 31 120.2 30.55
L 117.25 22.75
Q 115.85 19.35 114.6 18.1 113.8 17.25 112.55 16.6
L 111.6 -0.55
Q 111.5 -2.5 110.75 -3.5 110 -4.55 108.55 -4.5
L 108.5 -4.5
Q 108.3 -2 108.2 0.5 107.65 7.6 106.7 14.55 99.6 12.75 91.05 12.65 83.55 12.45 72.85 13.65 65.45 14.55 60.1 15.4 57.6 15.85 55.5 16.2 51 17.05 48.2 18.25 47.1 10 45.45 1.3 45.4 0.9 45.35 0.5 45.2 -0.3 45.1 -1.05
M 126.2 40.9
Q 129.65 44.65 131.7 47.8 131.75 48 131.85 48.15 133.4 50.6 135.85 56.4 135.9 56.6 136 56.85
L 129.15 55.9
Q 125.6 55.5 123.25 54.9 120.75 53.55 117.85 52.5 116.8 51.75 116.1 50.85 115.3 49.75 114.8 47.8 114.2 45.95 114.05 43.15
L 113.35 30.65
Q 114.85 31.5 116.3 32.5 116.3 32.55 116.35 32.6 117 33.7 117.8 34.25 118.6 34.8 119.35 34.7 122.9 37.4 126.2 40.9
M 106 19.1
Q 105.6 21.5 105.2 23.95 101.05 22.75 94.75 22 83.5 20.75 72.5 21.35 72.5 20.6 71.5 20.1 70.9 19.85 69.45 20 65.1 20.5 60.1 21.75 55 23 49.15 25.15 48.9 23.8 48.8 22.9 48.7 22.5 48.7 22.2 49.3 21.9 49.9 21.65 53 20.45 58.65 19.6
L 69.9 18.1
Q 81.15 16.75 89.05 16.8 98.35 17 106 19.1
M 99.15 48.2
Q 98.95 48.75 98.85 49.25 98.7 49.65 98.65 50 97.7 49.95 96.75 49.95 76.3 49.8 56 52.1 55.65 51.7 55.3 51.25 54.35 50 53.85 47.8 53.7 47.1 53.55 46.35 52.85 44.1 51.55 37.65 50.35 32.05 49.75 28.35 52.1 27.45 54.7 26.7 57.15 25.95 60.1 25.25 60.8 25.1 61.55 24.9 64.9 24.75 72.4 24.45 80.2 24.1 85.1 24.15 96.2 24.4 104.55 26.95 103.9 30.1 103.15 33.3 100.55 44.55 99.6 47.8 99.55 48 99.45 48.2 99 49.75 99.1 48.75 99.1 48.5 99.15 48.2
M 113.9 27.4
Q 113.55 27.2 113.15 27.05
L 113.05 24.65
Q 113.15 25.1 113.3 25.6 113.6 26.5 113.9 27.4
M 105.75 61.7
Q 106.1 60.9 107.05 60.45
L 107.7 60.35
Q 107.9 60.35 107.9 60.3 109.5 60.3 110.1 61.95 110.5 63.6 109.15 64.5 108.5 64.95 107.75 64.9 106.95 64.9 106.35 64.4 105.8 63.95 105.6 63.15 105.5 62.4 105.75 61.7
M 94.75 56.4
Q 92.85 57.85 88.55 58.6 87.05 58.95 85.45 59.3 84.25 58.45 81.65 58.1
L 68.3 56.35
Q 65.3 55.9 63.1 55.5 79.6 54.7 95.8 55.4 95.3 56 94.75 56.4
M 41.35 28.15
Q 41.3 28.2 41.25 28.2 41.55 27.7 42 27.3 41.95 27.6 41.95 27.95 41.6 28.05 41.35 28.15
M 19.85 47.8
Q 27.1 38.7 39.5 32.55 40.45 32.05 41.45 31.6 40.25 40.9 38.55 47.8 38.3 48.75 38.05 49.65 37.1 52.9 35.8 54.9 33.85 55.15 31.9 55.55 30.5 55.85 30.75 56.6 30.9 57 31.75 57.1 32.5 57.15 33.35 57.25 31.45 58.35 27.75 59.05 21.55 60.35 14.5 60.8 13.3 60.9 12.4 61.05 14.1 56.8 15.6 54.1 17.45 50.75 19.85 47.8
M 46.45 63.5
Q 46.85 64.1 46.5 64.75 46.1 65.8 45.1 65.45 44.85 65.45 44.65 65.25 44.2 65 44.05 64.35 44.05 63.65 44.4 63.35 44.7 62.75 45.35 62.9
L 45.4 62.8
Q 46.15 62.8 46.45 63.5
M 139.2 131.85
Q 139.5197265625 130.6671875 139.4 129.85 140.2080078125 126.9716796875 141 123.5
L 144.35 108.85
Q 145.55 120.85 148.45 132.8 150 139.05 150.4 141.6 151.1 146.55 150.1 150.35 149.5 152.45 148.55 153.65 147.15 155.2 145.3 155 144.3 154.9 142.9 153.8 141.15 152.4 139.7 150.05 138.25 147.35 137.4 146.15 135.9896484375 144.2392578125 134.15 143.7 134.35234375 143.3533203125 134.55 143 137.1 138.5 137.9 136.35 138.45 134.75 139.2 131.85
M 100.1 43.25
Q 100.2 42.5 100.4 41.65 83.3 38.45 66 40.45
L 53.95 42.2
Q 54.05 43.15 54.1 43.9 56.55 43.75 60.1 43.75 62.3 43.75 64.9 43.85 79 44.3 94.5 43.4 97.65 43.25 100.1 43.25
M 59.4 99.65
Q 47 99.2 44.5 99.2 39.5 99.25 27.3 100.55 24.5 100.95 23.4 101.75 22.35 102.65 22.45 104.15 22.6 105.6 23.9 106.3 25.35 107.1 28.45 106.7 41.8 105.35 46.9 104.6 49.75 104.15 55.4 103.15 60.45 102.35 63.9 102 69.95 101.5 82.15 102 102.15 102.9 120.45 104.35 121.55 104.4 122.4 104.1 123.35 103.75 123.2 103.1 123.15 102.4 121.45 101.95 120.25 101.7 119.05 101.5 102.05 99.65 90.6 99.65 69.8 100 59.4 99.65 Z"/>
</g>
</defs>

<g transform="matrix( 1, 0, 0, 1, 0,0) ">
<use xlink:href="#Layer0_0_FILL"/>
</g>
</svg>
