
<svg xmlns="http://www.w3.org/2000/svg" version="1.1" xmlns:xlink="http://www.w3.org/1999/xlink" preserveAspectRatio="none" x="0px" y="0px" width="300px" height="300px" viewBox="0 0 300 300">
<defs>
<g id="sprout_0_Layer1_0_FILL">
<path fill="#2B0054" stroke="none" d="
M 227.55 4.35
Q 226.4 3.7 224.3 4.6 219.85 6.4 217.9 8.05 216.85 9 215.55 10.65 215.5 10.65 215.5 10.7 214.6 11.95 214 13.1 213.95 13.15 213.9 13.2 213.4 14.55 213.3 15.65 213.2 16.4 213.25 18.75 213.4 21.6 213.8 22.75
L 213.85 22.8
Q 213.85 22.85 213.9 22.9 210.2 24.55 206.95 27.7 205 29.65 203.45 32 200.5 26 195.15 21.05 188.85 15.2 180.4 11.6 172.85 8.45 163.75 7.2 156.2 6.05 146.45 6 141.15 5.95 137.55 6.35 132.55 6.8 128.7 8.2 127.4 8.65 125.9 9.35 124.6 8.4 123.3 7.6
L 123.25 7.6
Q 119.5 5.4 114.75 3.85 107.35 1.4 95.4 0.35 88.75 -0.2 84.05 0.1 81.65 0.2 79.75 0.45
L 79.7 0.45
Q 73.5 1.35 65.2 4.9 45.15 13.3 37.7 24.85
L 37.75 24.85
Q 36.45 26.7 35.45 28.9 35 29.45 34.65 30.1
L 34.65 30.15
Q 34.2 31.15 33.55 33.1
L 32.55 36
Q 32.15 37.2 31.4 39.55
L 30.5 42.3
Q 29.85 44.4 29.8 45.9 29.8 46.6 29.95 47.2 29.65 47.25 29.4 47.35 21.1 50.2 14.5 56.15 6.5 63.25 3.3 72.35
L 3.35 72.3
Q 1.45 77.25 1.25 82.55 1.05 86.55 1.8 90.8 2.75 95.95 5 100.7 4.75 101.2 4.7 101.7
L 4.7 101.75
Q 4.55 103.85 6.5 106.5 9.2 110.3 12.95 113.2 12.9 113.5 12.85 113.9
L 12.85 113.95
Q 12.15 126.3 11.7 150.75 9.4 150.35 8.15 150.25 5 150.05 3.05 151.5
L 3 151.5
Q 1.35 152.65 0.55 154.75
L 0.5 154.8
Q -0.1 156.65 0 158.75 0.15 162 2.1 164.65 4.15 167.4 7.2 168.15 8.7 168.5 10.45 168.45 11.6 168.4 13.6 168.1
L 13.65 168.1
Q 15.8 167.7 16.6 166.9
L 16.6 166.85
Q 17.8 165.85 17.85 162.95
L 18.25 145.1
Q 19.35 144.9 20.65 144.3 23.05 143.2 24.95 141.65 26.1 140.7 26.85 139.7 28.3 140.95 30.15 142.3
L 30.2 142.35
Q 36.3 146.65 42.9 149.7
L 42.3 154.05
Q 42.1 155.45 42 156.9 40.25 156.5 38.75 156.8
L 38.7 156.8
Q 36.3 157.25 35.1 159.15 35.1 159.2 35.1 159.25 34.4 160.35 34.35 162.25 34.15 164.15 34.75 165.7
L 34.75 165.65
Q 35.55 168.45 38.85 171.05 39.9 171.85 40.8 172.3 40.75 172.5 40.75 172.75 40.6 172.95 40.5 173.15 36.95 179.5 37.3 184.4 37.5 187.65 39.2 190.75 41.1 194.3 44.35 197.05 47.45 199.65 51.35 201.2 58.45 204.1 67.4 203.25 75.65 202.45 82.2 198.75 88.2 195.35 91.7 190.2 95.85 189.2 99.15 186.75 99.55 186.75 100.05 186.75 124.1 187.45 148.3 185.85 156.15 185.35 159.5 185.5 161.7 185.6 162.3 185.6 164 185.6 165.3 185.15 166.5 184.7 167.4 183.85 167.7 183.9 168.1 183.85
L 168.15 183.85
Q 170.45 183.8 171.65 181.25 171.65 181.2 171.7 181.2 172.25 179.8 172.4 177.4 172.95 170.9 173 167.3
L 173 167.25
Q 173.05 163.45 172.75 160.2 173 160.2 173.3 160.25 175.9 160.55 178.1 159.15
L 178.05 159.2
Q 179.85 158.15 181.2 156.15 182.4 156.3 184 156.3 192.3 156.2 197.9 155.4 201.25 154.85 204.2 154
L 204.25 155.5
Q 204.35 157.25 204.3 160.9
L 204.25 163.35
Q 203.15 163.15 202.05 163.25
L 202 163.25
Q 198.85 163.5 196.55 165.35 194.7 166.8 193.9 168.95
L 193.95 168.95
Q 193.05 171.35 193.9 173.45 195.05 176.3 200.35 178.15
L 202.85 179.15 202.9 179.15
Q 205.5 180 206.75 179.45 207.5 179.2 208 178.75 208.75 178.45 209.3 177.85 210.25 176.9 210.25 174.55
L 210.6 164.4
Q 211.25 164.45 212.15 164.3 215.2 163.75 217.6 161.45
L 217.6 161.4
Q 218.85 160.2 219.3 158.9 219.7 157.65 219.55 155.7 219.25 153.2 218.1 152.2
L 218.15 152.2
Q 216.95 150.85 214.45 151
L 214.4 151
Q 212.25 151.1 210.4 152 210.35 151.75 210.3 151.55 210.65 151.35 211.05 151.2
L 211.1 151.2
Q 218.8 147.05 223.7 139.3 224.1 138.6 224.5 137.95 228.5 131 228.8 123.15 229.7 122.4 230.55 121.6
L 229.85 138.8
Q 228.65 138.7 227.8 138.75 225.7 138.9 224.5 140
L 224.45 140.05
Q 222.95 141.45 222.7 144.25 222.4 148.15 224.5 151.05 224.75 151.4 225.05 151.75
L 225.05 151.8
Q 226.45 153.3 228.35 154.2
L 228.4 154.25
Q 230.4 155.05 232.4 154.95
L 232.45 154.95
Q 234.7 154.7 235.75 153.55
L 235.75 153.5
Q 236.65 152.55 236.95 150.15
L 236.95 150.1
Q 237.5 144.8 237.65 134.1 237.75 126.3 237.7 121.95 237.5 115.7 236.8 110.65 237.35 109.05 237.8 107.3 241.2 94.1 238.8 82.65 237.85 78.5 235 70.5 231.45 61.25 229 56.7 227 53.05 224.5 49.75 223.55 48.5 222.55 47.35 220.1 44.5 217.2 41.95 211.7 37.1 206.55 35.55 208.4 32.55 212.05 29.5 211.9 31.05 212.35 32.95
L 212.35 33
Q 213.3 36.4 216 39.15 218.7 41.85 222.2 42.7 223.05 42.9 223.65 42.85 224.95 43.55 226.45 42.95 226.45 42.9 226.5 42.9 227.5 42.45 228.45 41.1
L 228.45 41.05
Q 230.4 38.05 229.8 34.6
L 229.8 34.65
Q 229.7 33.8 229.4 32.95 228.95 31.05 228.6 30.35 228.1 29 227.55 28 226.9 26.8 226.3 26 226.25 25.95 226.2 25.9 226.15 25.85 226.1 25.8 226.5 25.55 226.85 25.3
L 226.9 25.3
Q 228.2 24.2 229.3 22.2 230.05 21.2 230.3 20.2 230.65 19.15 230.75 17.75 231.25 11.45 229.05 6.25 228.55 4.9 227.65 4.4
L 227.55 4.35
M 180.2 80.65
Q 187.9 86.9 187.9 95.1 187.9 103.25 180.2 108.55 172.55 113.95 161.7 113.3 150.85 112.65 143.15 106.35 135.5 100.15 135.5 92 135.5 83.8 143.15 78.45 150.85 73.15 161.7 73.8 172.55 74.45 180.2 80.65
M 91.6 85
Q 99.2 90.25 99.2 98.45 99.2 106.6 91.6 112.9 84.05 119.3 73.4 120.05 62.7 120.8 55.1 115.5 47.6 110.3 47.6 102.15 47.6 93.95 55.1 87.6 62.7 81.3 73.4 80.55 84.05 79.8 91.6 85
M 47.55 32.85
Q 52.65 27.8 59.8 27.8 66.95 27.8 72 32.85 77.1 37.95 77.1 45.1 77.1 52.25 72 57.3 66.95 62.4 59.8 62.4 52.65 62.4 47.55 57.3 42.5 52.25 42.5 45.1 42.5 37.95 47.55 32.85
M 63.75 155.15
Q 63.45 155.45 63.2 155.75 62.9 155.85 62.6 156 61.65 156.45 60.6 157 58.9 157.9 55.6 159.85 54.2 160.7 51.3 162.25 50.15 162.9 49.2 163.5
L 49.95 152.5
Q 57.1 154.85 63.75 155.15 Z"/>

<path fill="#F2FFE7" stroke="none" d="
M 59.8 27.8
Q 52.65 27.8 47.55 32.85 42.5 37.95 42.5 45.1 42.5 52.25 47.55 57.3 52.65 62.4 59.8 62.4 66.95 62.4 72 57.3 77.1 52.25 77.1 45.1 77.1 37.95 72 32.85 66.95 27.8 59.8 27.8
M 99.2 98.45
Q 99.2 90.25 91.6 85 84.05 79.8 73.4 80.55 62.7 81.3 55.1 87.6 47.6 93.95 47.6 102.15 47.6 110.3 55.1 115.5 62.7 120.8 73.4 120.05 84.05 119.3 91.6 112.9 99.2 106.6 99.2 98.45
M 187.9 95.1
Q 187.9 86.9 180.2 80.65 172.55 74.45 161.7 73.8 150.85 73.15 143.15 78.45 135.5 83.8 135.5 92 135.5 100.15 143.15 106.35 150.85 112.65 161.7 113.3 172.55 113.95 180.2 108.55 187.9 103.25 187.9 95.1 Z"/>
</g>

<g id="sprout_0_Layer0_0_FILL">
<path fill="#2B0054" stroke="none" d="
M 227.55 4.35
Q 226.4 3.7 224.3 4.6 219.85 6.4 217.9 8.05 216.85 9 215.55 10.65 215.5 10.65 215.5 10.7 214.6 11.95 214 13.1 213.95 13.15 213.9 13.2 213.4 14.55 213.3 15.65 213.2 16.4 213.25 18.75 213.4 21.6 213.8 22.75
L 213.85 22.8
Q 213.85 22.85 213.9 22.9 210.2 24.55 206.95 27.7 205 29.65 203.45 32 200.5 26 195.15 21.05 188.85 15.2 180.4 11.6 172.85 8.45 163.75 7.2 156.2 6.05 146.45 6 141.15 5.95 137.55 6.35 132.55 6.8 128.7 8.2 127.4 8.65 125.9 9.35 124.6 8.4 123.3 7.6
L 123.25 7.6
Q 119.5 5.4 114.75 3.85 107.35 1.4 95.4 0.35 88.75 -0.2 84.05 0.1 81.65 0.2 79.75 0.45
L 79.7 0.45
Q 73.5 1.35 65.2 4.9 45.15 13.3 37.7 24.85
L 37.75 24.85
Q 36.45 26.7 35.45 28.9 35 29.45 34.65 30.1
L 34.65 30.15
Q 34.2 31.15 33.55 33.1
L 32.55 36
Q 32.15 37.2 31.4 39.55
L 30.5 42.3
Q 29.85 44.4 29.8 45.9 29.8 46.6 29.95 47.2 29.65 47.25 29.4 47.35 21.1 50.2 14.5 56.15 6.5 63.25 3.3 72.35
L 3.35 72.3
Q 1.45 77.25 1.25 82.55 1.05 86.55 1.8 90.8 2.75 95.95 5 100.7 4.75 101.2 4.7 101.7
L 4.7 101.75
Q 4.55 103.85 6.5 106.5 9.2 110.3 12.95 113.2 12.9 113.5 12.85 113.9
L 12.85 113.95
Q 12.15 126.3 11.7 150.75 9.4 150.35 8.15 150.25 5 150.05 3.05 151.5
L 3 151.5
Q 1.35 152.65 0.55 154.75
L 0.5 154.8
Q -0.1 156.65 0 158.75 0.15 162 2.1 164.65 4.15 167.4 7.2 168.15 8.7 168.5 10.45 168.45 11.6 168.4 13.6 168.1
L 13.65 168.1
Q 15.8 167.7 16.6 166.9
L 16.6 166.85
Q 17.8 165.85 17.85 162.95
L 18.25 145.1
Q 19.35 144.9 20.65 144.3 23.05 143.2 24.95 141.65 26.1 140.7 26.85 139.7 28.3 140.95 30.15 142.3
L 30.2 142.35
Q 36.3 146.65 42.9 149.7
L 42.3 154.05
Q 42.1 155.45 42 156.9 40.25 156.5 38.75 156.8
L 38.7 156.8
Q 36.3 157.25 35.1 159.15 35.1 159.2 35.1 159.25 34.4 160.35 34.35 162.25 34.15 164.15 34.75 165.7
L 34.75 165.65
Q 35.55 168.45 38.85 171.05 39.9 171.85 40.8 172.3 40.75 172.5 40.75 172.75 40.6 172.95 40.5 173.15 36.95 179.5 37.3 184.4 37.5 187.65 39.2 190.75 41.1 194.3 44.35 197.05 47.45 199.65 51.35 201.2 58.45 204.1 67.4 203.25 75.65 202.45 82.2 198.75 88.2 195.35 91.7 190.2 95.85 189.2 99.15 186.75 99.55 186.75 100.05 186.75 124.1 187.45 148.3 185.85 156.15 185.35 159.5 185.5 161.7 185.6 162.3 185.6 164 185.6 165.3 185.15 166.5 184.7 167.4 183.85 167.7 183.9 168.1 183.85
L 168.15 183.85
Q 170.45 183.8 171.65 181.25 171.65 181.2 171.7 181.2 172.25 179.8 172.4 177.4 172.95 170.9 173 167.3
L 173 167.25
Q 173.05 163.45 172.75 160.2 173 160.2 173.3 160.25 175.9 160.55 178.1 159.15
L 178.05 159.2
Q 179.85 158.15 181.2 156.15 182.4 156.3 184 156.3 192.3 156.2 197.9 155.4 201.25 154.85 204.2 154
L 204.25 155.5
Q 204.35 157.25 204.3 160.9
L 204.25 163.35
Q 203.15 163.15 202.05 163.25
L 202 163.25
Q 198.85 163.5 196.55 165.35 194.7 166.8 193.9 168.95
L 193.95 168.95
Q 193.05 171.35 193.9 173.45 195.05 176.3 200.35 178.15
L 202.85 179.15 202.9 179.15
Q 205.5 180 206.75 179.45 207.5 179.2 208 178.75 208.75 178.45 209.3 177.85 210.25 176.9 210.25 174.55
L 210.6 164.4
Q 211.25 164.45 212.15 164.3 215.2 163.75 217.6 161.45
L 217.6 161.4
Q 218.85 160.2 219.3 158.9 219.7 157.65 219.55 155.7 219.25 153.2 218.1 152.2
L 218.15 152.2
Q 216.95 150.85 214.45 151
L 214.4 151
Q 212.25 151.1 210.4 152 210.35 151.75 210.3 151.55 210.65 151.35 211.05 151.2
L 211.1 151.2
Q 218.8 147.05 223.7 139.3 224.1 138.6 224.5 137.95 228.5 131 228.8 123.15 229.7 122.4 230.55 121.6
L 229.85 138.8
Q 228.65 138.7 227.8 138.75 225.7 138.9 224.5 140
L 224.45 140.05
Q 222.95 141.45 222.7 144.25 222.4 148.15 224.5 151.05 224.75 151.4 225.05 151.75
L 225.05 151.8
Q 226.45 153.3 228.35 154.2
L 228.4 154.25
Q 230.4 155.05 232.4 154.95
L 232.45 154.95
Q 234.7 154.7 235.75 153.55
L 235.75 153.5
Q 236.65 152.55 236.95 150.15
L 236.95 150.1
Q 237.5 144.8 237.65 134.1 237.75 126.3 237.7 121.95 237.5 115.7 236.8 110.65 237.35 109.05 237.8 107.3 241.2 94.1 238.8 82.65 237.85 78.5 235 70.5 231.45 61.25 229 56.7 227 53.05 224.5 49.75 223.55 48.5 222.55 47.35 220.1 44.5 217.2 41.95 211.7 37.1 206.55 35.55 208.4 32.55 212.05 29.5 211.9 31.05 212.35 32.95
L 212.35 33
Q 213.3 36.4 216 39.15 218.7 41.85 222.2 42.7 223.05 42.9 223.65 42.85 224.95 43.55 226.45 42.95 226.45 42.9 226.5 42.9 227.5 42.45 228.45 41.1
L 228.45 41.05
Q 230.4 38.05 229.8 34.6
L 229.8 34.65
Q 229.7 33.8 229.4 32.95 228.95 31.05 228.6 30.35 228.1 29 227.55 28 226.9 26.8 226.3 26 226.25 25.95 226.2 25.9 226.15 25.85 226.1 25.8 226.5 25.55 226.85 25.3
L 226.9 25.3
Q 228.2 24.2 229.3 22.2 230.05 21.2 230.3 20.2 230.65 19.15 230.75 17.75 231.25 11.45 229.05 6.25 228.55 4.9 227.65 4.4
L 227.55 4.35
M 225.05 16.45
Q 225 17.95 224.8 18.65 224.2 20.15 222.6 20.95
L 222.55 21
Q 221.7 21.45 220 22.05 219.35 22 218.65 22.05 218.6 21.95 218.6 21.8
L 218.6 21.75
Q 218.65 20.6 218.9 18.3 219.2 16.35 219.4 15.7 220.5 12.95 224.2 11.2 224.95 13.7 225.05 16.45
M 221 28.15
L 221 28.2
Q 222.1 29.5 222.85 30.85
L 222.85 30.9
Q 223.2 31.4 223.35 32 223.45 32.65 223.65 34 223.65 34.05 223.7 34.1
L 224.05 35.45 224.05 35.5
Q 224.2 35.95 224.15 36.3 224.1 36.35 224.1 36.45 224 37 223.25 38 223.2 38 223.15 38.1 223.1 38.1 223.1 38.2 220.6 36.4 219.5 33.85
L 219.5 33.9
Q 218.8 32.25 218.85 30.6 218.9 29.1 219.45 27.95 219.95 27.85 220.6 27.75 220.8 27.95 221 28.15
M 202.95 41.5
Q 207.95 43.8 212.1 47.35 215.1 49.9 217.65 53.1 220.9 57.2 223.6 62.8 224.05 63.7 224.5 64.7 226.2 68.5 227.95 73.55 230.5 80.75 231.35 85.4 232.9 95.45 229.75 106.9 228.3 112.15 225.9 114.65 225.85 114.65 225.85 114.7 225.1 115.35 224.5 115.85 223.75 116.5 223.3 116.9 221.5 118.5 221 119.95
L 221 119.9
Q 220.4 121.2 220.5 123.4
L 220.65 126.4
Q 220.5 129.05 218.9 131.85 217.6 133.9 215.15 136.6
L 215.1 136.6
Q 209.85 142.35 205.2 144.75
L 205.25 144.75
Q 200.8 146.85 194.6 147.5 190.55 147.8 183.25 147.5 179.5 147.3 177.9 148.65 177.5 148.75 177.15 148.9 176.5 149.1 175.75 149.85 174.85 150.55 174.75 150.6 174.65 150.65 174.55 150.75 174.1 151.1 172 152.05
L 171.95 152.05
Q 171.45 152.3 171.1 152.55 170.6 151.3 170 150.25
L 170 150.3
Q 167.95 146.5 164.55 145.3
L 164.6 145.3
Q 162.45 144.4 158.15 144.5 155.15 144.5 151.85 144.6 156.8 142.45 162.05 139.55
L 162 139.55
Q 164.45 138.3 166.6 136.75 166.85 136.9 167.1 137.05
L 167.05 137.05
Q 172.3 140.45 177.9 141.1 181.1 141.45 183.8 140.65 185.25 140.2 186.4 139.55 186.3 139.45 186.2 139.4 171.8 131.6 171.75 131.6 171.45 131.45 171.15 131.3 168.35 129.65 166.05 127.2
L 166 127.15
Q 165.3 126.45 164.7 125.65 161.9 122.1 160.1 117.5 169.25 118.1 177.7 114.85 184.6 112.25 188.25 107.9 190.65 105.1 191.8 101.45 192.15 100.4 192.35 99.4 194.25 100.25 197.2 101.3 202.85 103.45 207.65 105.85 208.2 106.2 208.3 106.4 208.45 106.7 208.25 107.4 207.1 110.55 206.95 111.5 206.65 114.1 208.25 115.4 209.1 116.1 210.3 116.1 211.5 116.1 212.45 115.45 214.25 114.35 214.8 111.75 215.1 109.95 214.65 107.25 214.35 105.45 213.75 104.55 213.1 103.65 210.9 102.5 207.45 100.85 200.45 97.75
L 197.65 96.6
Q 195.15 95.8 194.4 95.35 193.6 94.85 193.2 94.65 192.9 94.45 192.65 94.3 192.6 94.25 192.6 94.15 192.45 92 191.5 88.65 190.45 84.5 189.25 82.35 186.85 78.15 181.65 75.35 177.8 73.35 171.8 71.95 162.7 69.7 156.25 69.9 147.4 70.15 141.35 74.2 139.1 75.65 136.8 78 131.5 76.95 125.1 75.4 121 74.4 118.85 73.55
L 118.8 73.55
Q 108 69.1 103.6 67.05 102.55 67.7 101.25 69.55
L 101.25 69.6
Q 97.25 74.95 91.8 80.35 88.3 78.75 84.1 77.85 75 76 65.7 78.4 56.35 80.75 49.25 86.75 45.75 89.6 44.15 92.6 42.3 96.05 42.15 100.6 41.95 105.9 44 110.75 46.1 115.75 50.1 118.8 53.35 121.25 58.05 122.75 62.5 124.2 66.85 124.75 66.7 125.5 66.55 126.1
L 66.55 126.05
Q 65.9 128 60.35 141.6 61.7 142.6 62.35 142.15 63.95 141 66.05 138.05
L 66.05 138 68.45 134.3
Q 68.75 133.8 69 133.4 70.85 136.3 77.6 140.3 87.4 146.15 105.15 148.45 105.4125 148.49375 105.65 148.55 105.4125 148.5 105.15 148.5 104.45 148.45 103.7 148.5 103.4 148.4 103.1 148.3
L 103.05 148.3
Q 101.2 147.85 99.75 148.65 98.35 148.7 96.85 148.85 96.65 148.85 96.5 148.9 93.3 147.3 89.9 146.7 87.95 146.4 85.95 146.4 84.4 146.4 82.55 146.7 80.4 147.05 77.85 147.7 76.2 146.75 74.55 147.25 73.8 147.2 72.95 147.3 63.35 148.05 54.25 145.75 44.9 143.35 37.55 138 31.2 133.45 29 128.1 27.3 123.95 27.9 118.3 28.15 115.8 28.1 115.15
L 28.1 115.1
Q 28.05 113 27.1 111.8 26.9 111.5 26.65 111.25 25.6 110.2 23.95 109.95 23.75 109.9 23.5 109.9 21.55 109.1 19.85 108.15 19.8 108.1 19.8 108.05 19.4 106.8 18 105.4
L 18.05 105.4
Q 16.7 104.05 16.05 103.35 13.75 100.6 12.65 95.75 10.35 85.95 12.65 76.75 15.1 66.85 22.5 60.1 25 57.7 28.8 55.25 28.85 55.2 28.9 55.2 29.65 54.55 35.8 50.7 38.05 49.3 37.8 47.9 37.9 47.65 38.05 47.35 38.3 46.7 38.45 45.85
L 38.4 46
Q 38.85 44.45 39.3 42.7
L 40 39.75
Q 40.2 39.6 40.25 39.35 42 33.7 43.3 30.95 46.3 25.05 52.75 19.8 58.65 14.85 66.8 11.15
L 66.75 11.2
Q 73.2 8.35 78.8 7.15
L 78.75 7.15
Q 86.2 5.75 96.95 6.65 111.5 7.85 120.45 12.65 120.65 12.75 120.9 12.75 121.1 12.75 121.25 12.8 121.4 12.85 121.55 12.85 121.85 12.85 122.55 12.95
L 122.4 12.9
Q 122.575390625 12.955078125 122.8 13 122.85 13.1 122.95 13.2
L 123 13.25
Q 123.45 14.05 124.55 14.25 124.6 14.4 124.75 14.55 125 14.8 125.4 14.85 126.35 14.9 127.8 14.6 132.1 13.6 137.5 13.3 141.35 13.15 147.5 13.35 156.15 13.55 162 14.4
L 162.05 14.4
Q 169.85 15.4 176.05 17.75 183.1 20.35 188.45 25 194.25 29.95 196.95 36.25 197.75 38.15 197.8 38.25 198.35 39.45 199.15 40.25
L 199.2 40.3
Q 200.25 41.25 201.6 41.5
L 201.55 41.5
Q 202.25 41.65 202.95 41.5
M 171.15 76.85
Q 176 78 179.2 79.7 183.4 82.05 185.25 85.6 186.2 87.35 187 90.9 187.75 94.35 187.55 96.65 187.1 101.55 182.9 105.35 179.7 108.3 174.15 110.1 166.55 112.5 158.45 111.55 158.3 111.5 158.1 111.5 154.8 111.05 151.8 110.15 147.1 108.7 142.95 106.1 137.4 102.6 136.05 98.25 135.45 96.25 135.55 93.05
L 135.8 87.65
Q 135.8 86.25 136.15 85.5 136.35 84.95 137.05 84.2 137.25 83.95 137.55 83.65 140.5 80.75 142.9 79.1 143 79 143.1 78.9 146.35 76.55 149.5 75.75 152 75.1 155.9 75.1 159.75 75.1 163.65 75.55 167.4 76 171.15 76.85
M 164 156.85
Q 164.95 160.9 164.65 166.55 164.5 169.8 163.85 176.35 162.5 176.35 160.3 176.75 149.85 178.55 134.1 179.25 119.55 179.85 105.1 179.5 106.35 177.05 107.05 174.05 107.35 172.75 107.55 171.5 107.6 171 107.7 170.55 126.35 167.1 140.95 158.95 147.35 155.25 149.45 154.35 150.95 153.7 151.55 153.4
L 151.6 153.4
Q 152.65 152.75 153.25 152 155.65 152 158.25 152 159.9 152 160.9 152.3 163.1 153.3 164 156.85
M 105.75 73.3
Q 106.15 73.3 106.55 73.6 106.6 73.6 106.6 73.65 106.9 73.8 107.7 74.45
L 107.7 74.5
Q 111.25 77.65 116.9 79.65 120.25 80.8 127.1 82.25 129.9 82.8 132.35 83.3 130.4 86.05 129.8 88.2 129.3 90.05 129.4 92.55 128.05 92.45 126.45 92.45 114.05 92.6 104.85 96.7 104.75 96.15 104.65 95.6 103.75 90.8 100.6 87 98.75 84.75 96.35 83 100.4 78.95 104.1 74.55
L 104.1 74.6
Q 105.1 73.45 105.75 73.3
M 92.85 86.35
Q 96.2 88.8 97.85 91.85 99.95 95.6 99.2 99.5 98.8 101.45 97.35 103.85 96.45 105.25 95.2 106.85 90.2 113.15 85.75 115.75 82.5 117.65 78 118.65 76.3 119 74.6 119.2 71.05 119.6 67.45 119.2 67.35 119.15 67.25 119.15 61.75 118.5 56.9 116.2 53.7 114.65 52.1 113 48.65 109.65 47.85 102.9 47.45 99.65 48.35 97.9 48.8 97.05 50.05 95.65 51.35 94.2 51.75 93.35 52 92.85 52.3 91.7 52.6 90.65 52.9 90.1 53.65 88.8 56.05 87.35 65.5 81.9 76.65 81.75 77.35 81.75 78 81.75 81.75 81.85 84.55 82.55 86.4 82.95 88.15 83.7 90.4 84.65 92.5 86.1 92.65 86.2 92.85 86.35
M 127.85 97.1
Q 129 97.1 129.95 97.2 130.45 99.85 131.3 101.75 133.35 106.4 139.25 110.4 145.35 114.5 152.5 116.3 153.3 120.1 154.95 123.5 156.2 126 158.6 129.2
L 158.65 129.25
Q 159.4 130.2 160.2 131.15 154.7 135.4 147.15 138.1
L 147.1 138.1
Q 140.9 140.35 134.35 141.8 133.2 142.05 132.05 142.3 131.7 142.35 131.5 142.6 131.25 142.85 131.25 143.25 131.15 146.05 131 149.1 130.8 149.65 130.8 150.5 130.7 151.1 130.85 151.75 130.9 152.1 131.25 152.3 131.55 152.55 131.9 152.5 132.3 152.45 132.7 152.45 133.85 152.45 135.25 152.65 135.2 152.9 135.2 153.15
L 135.2 153.2
Q 135.2 153.4 135.2 153.65 122.9 160.05 107.3 163 106.75 160.3 105.6 157.95 106.2 156.6 106.5 155.6
L 108.7 155.15
Q 110.05 154.85 110.85 154.45 111.75 154.15 112.5 153.45
L 112.55 153.45
Q 113.5 152.6 113.85 151.15
L 113.85 151.1
Q 114.05 149.95 113.85 148.85 114.35 146.35 114.85 144 114.9 143.7 114.8 143.45 114.7 143.2 114.45 143 114.25 142.85 113.95 142.8 99.55 141.4 86.7 135.2 74.8 129.4 74.05 124.95 75.4 124.85 76.8 124.65 86.75 123.25 94 117.1 96.65 114.85 99.95 110.7 102.6 107.5 103.75 104.95 104.45 103.4 104.75 101.7 113.6 96.9 127.85 97.1
M 72.55 157.6
Q 73.45 157.2 74.3 156.9 78.3 155.3 81.15 154.75 86.15 153.75 90.2 154.85 92.25 155.35 93.8 156.4 95 157.2 96.1 158.35 98.3 160.65 99.1 163.3 99.65 165.3 99.55 168.35 99.55 170.2 99.35 171.5 99.3 171.65 99.25 171.85 99.2 171.95 99.2 172.05 99 173 98.05 175.05 96.75 177.75 95.4 179.15 94.8 179.75 94.25 180.1 93.4 180.6 91.85 181.1 88.9 182.05 87 182.2 81.4 182.7 76.05 179.25 74.25 178.1 72.7 176.5 72.55 176.35 72.45 176.2 70.65 174.1 69.8 171.5 69.4 170.35 69.2 169.05 68.85 166.6 69.55 161.65 69.75 160 70.3 159.15 70.8 158.45 72.55 157.6
M 63.2 155.75
Q 62.9 155.85 62.6 156 61.65 156.45 60.6 157 58.9 157.9 55.6 159.85 54.2 160.7 51.3 162.25 50.15 162.9 49.2 163.5
L 49.95 152.5
Q 57.1 154.85 63.75 155.15 63.45 155.45 63.2 155.75
M 58 165.2
Q 58.65 164.7 59.25 164.3 58.9 166.8 59.5 169.1 59.8 170.15 60.45 171.65
L 61.7 174.4
Q 64.6 180.65 67.7 183.65 70 185.9 73.6 187.65 78.25 189.95 82.85 190.55 78.5 193.45 72.95 194.7 66.2 196.25 59.2 195 53.3 193.95 49.9 191.3 47.8 189.65 46.6 187.45 45.5 185.4 45.35 183.3 45.35 183 45.35 182.65 45.4 180.1 47.1 176.8 47.7 175.75 48.35 174.75 49.75 172.7 51.5 170.8 53.5 168.7 58 165.2
M 123.6 143.75
Q 123.85 143.1 123.35 141.8 121 136.45 115.9 133.65 114.75 132.9 114.05 133.4 113.7 133.7 113.5 134.45 113.25 135.7 113.65 136.9 113.9 137.85 114.7 139
L 116.15 141.45
Q 116.85 142.7 117.55 143.45 119.1 145 121.35 145 123.2 144.9 123.6 143.75
M 115.5 135.4
L 115.5 134.45
Q 115.5 134.25 115.65 134.15 115.8 134.15 115.9 134.4 116.2 135.05 117.05 135.75 117.5 136.1 118.45 136.85 118.6 137 119.7 138.2 120.5 139.25 120.65 139.5 121.55 140.95 121.55 142.65
L 120.8 142.8
Q 119.4 141.8 119.2 141.6
L 118.1 140.45
Q 116.65 138.9 116.1 137.8 115.6 136.7 115.5 135.4
M 188.95 134.5
Q 188.75 134.45 188.7 134.45 188.65 134.6 188.6 134.8 188.75 134.65 188.95 134.5 Z"/>

<path fill="#76149B" stroke="none" d="
M 59.25 164.3
Q 58.65 164.7 58 165.2 53.5 168.7 51.5 170.8 49.75 172.7 48.35 174.75 47.7 175.75 47.1 176.8 45.4 180.1 45.35 182.65 45.35 183 45.35 183.3 45.5 185.4 46.6 187.45 47.8 189.65 49.9 191.3 53.3 193.95 59.2 195 66.2 196.25 72.95 194.7 78.5 193.45 82.85 190.55 78.25 189.95 73.6 187.65 70 185.9 67.7 183.65 64.6 180.65 61.7 174.4
L 60.45 171.65
Q 59.8 170.15 59.5 169.1 58.9 166.8 59.25 164.3
M 97.85 91.85
Q 96.2 88.8 92.85 86.35 92.65 86.2 92.5 86.1 90.4 84.65 88.15 83.7 86.4 82.95 84.55 82.55 81.75 81.85 78 81.75 77.35 81.75 76.65 81.75 74.75 83.45 73.7 85.8 72.4 89 72.95 92.7 73.5 96.3 75.6 99.15 77.7 101.95 80.95 103.7 84.1 105.4 87.7 105.8 92.25 106.3 96.25 104.4 96.8 104.15 97.35 103.85 98.8 101.45 99.2 99.5 99.95 95.6 97.85 91.85
M 164.65 166.55
Q 164.95 160.9 164 156.85 163.1 153.3 160.9 152.3 159.9 152 158.25 152 155.65 152 153.25 152 152.65 152.75 151.6 153.4
L 151.55 153.4
Q 150.95 153.7 149.45 154.35 147.35 155.25 140.95 158.95 126.35 167.1 107.7 170.55 107.6 171 107.55 171.5 107.35 172.75 107.05 174.05 106.35 177.05 105.1 179.5 119.55 179.85 134.1 179.25 149.85 178.55 160.3 176.75 162.5 176.35 163.85 176.35 164.5 169.8 164.65 166.55
M 179.2 79.7
Q 176 78 171.15 76.85 167.4 76 163.65 75.55 161.95 77.15 160.75 79.35 158.1 84.2 159.2 89.15 160.55 95.05 165.6 98.65 168.25 100.65 171.45 101.6 174.7 102.5 177.95 102.15 181.3 101.75 184.1 99.95 186.2 98.55 187.55 96.65 187.75 94.35 187 90.9 186.2 87.35 185.25 85.6 183.4 82.05 179.2 79.7
M 55.7 43.85
Q 55.8 45.4 56.35 46.05 56.9 46.75 57.9 46.9 58.8 47.05 59.7 46.75 61.55 46.15 62.3 44.6 63.2 42.85 62.15 41.35 61.35 40.05 59.8 39.9 58.4 39.75 57.1 40.65 56.45 41.1 56.05 41.85 55.7 42.55 55.7 43.85 Z"/>

<path fill="#DD9248" stroke="none" d="
M 74.3 156.9
Q 73.45 157.2 72.55 157.6 70.8 158.45 70.3 159.15 69.75 160 69.55 161.65 68.85 166.6 69.2 169.05 69.4 170.35 69.8 171.5 70.65 174.1 72.45 176.2 72.55 176.35 72.7 176.5 74.25 178.1 76.05 179.25 81.4 182.7 87 182.2 88.9 182.05 91.85 181.1 93.4 180.6 94.25 180.1 94.8 179.75 95.4 179.15 96.75 177.75 98.05 175.05 99 173 99.2 172.05 99.2 171.95 99.25 171.85 99.3 171.65 99.35 171.5 99.55 170.2 99.55 168.35 99.65 165.3 99.1 163.3 98.3 160.65 96.1 158.35 95 157.2 93.8 156.4 92.25 155.35 90.2 154.85 86.15 153.75 81.15 154.75 78.3 155.3 74.3 156.9
M 129.95 97.2
Q 129 97.1 127.85 97.1 113.6 96.9 104.75 101.7 104.45 103.4 103.75 104.95 102.6 107.5 99.95 110.7 96.65 114.85 94 117.1 86.75 123.25 76.8 124.65 75.4 124.85 74.05 124.95 74.8 129.4 86.7 135.2 99.55 141.4 113.95 142.8 114.25 142.85 114.45 143 114.7 143.2 114.8 143.45 114.9 143.7 114.85 144 114.35 146.35 113.85 148.85 114.05 149.95 113.85 151.1
L 113.85 151.15
Q 113.5 152.6 112.55 153.45
L 112.5 153.45
Q 111.75 154.15 110.85 154.45 110.05 154.85 108.7 155.15
L 106.5 155.6
Q 106.2 156.6 105.6 157.95 106.75 160.3 107.3 163 122.9 160.05 135.2 153.65 135.2 153.4 135.2 153.2
L 135.2 153.15
Q 135.2 152.9 135.25 152.65 133.85 152.45 132.7 152.45 132.3 152.45 131.9 152.5 131.55 152.55 131.25 152.3 130.9 152.1 130.85 151.75 130.7 151.1 130.8 150.5 130.8 149.65 131 149.1 131.15 146.05 131.25 143.25 131.25 142.85 131.5 142.6 131.7 142.35 132.05 142.3 133.2 142.05 134.35 141.8 140.9 140.35 147.1 138.1
L 147.15 138.1
Q 154.7 135.4 160.2 131.15 159.4 130.2 158.65 129.25
L 158.6 129.2
Q 156.2 126 154.95 123.5 153.3 120.1 152.5 116.3 145.35 114.5 139.25 110.4 133.35 106.4 131.3 101.75 130.45 99.85 129.95 97.2
M 123.35 141.8
Q 123.85 143.1 123.6 143.75 123.2 144.9 121.35 145 119.1 145 117.55 143.45 116.85 142.7 116.15 141.45
L 114.7 139
Q 113.9 137.85 113.65 136.9 113.25 135.7 113.5 134.45 113.7 133.7 114.05 133.4 114.75 132.9 115.9 133.65 121 136.45 123.35 141.8
M 106.55 73.6
Q 106.15 73.3 105.75 73.3 105.1 73.45 104.1 74.6
L 104.1 74.55
Q 100.4 78.95 96.35 83 98.75 84.75 100.6 87 103.75 90.8 104.65 95.6 104.75 96.15 104.85 96.7 114.05 92.6 126.45 92.45 128.05 92.45 129.4 92.55 129.3 90.05 129.8 88.2 130.4 86.05 132.35 83.3 129.9 82.8 127.1 82.25 120.25 80.8 116.9 79.65 111.25 77.65 107.7 74.5
L 107.7 74.45
Q 106.9 73.8 106.6 73.65 106.6 73.6 106.55 73.6 Z"/>

<path fill="#CC3366" stroke="none" d="
M 115.5 134.45
L 115.5 135.4
Q 115.6 136.7 116.1 137.8 116.65 138.9 118.1 140.45
L 119.2 141.6
Q 119.4 141.8 120.8 142.8
L 121.55 142.65
Q 121.55 140.95 120.65 139.5 120.5 139.25 119.7 138.2 118.6 137 118.45 136.85 117.5 136.1 117.05 135.75 116.2 135.05 115.9 134.4 115.8 134.15 115.65 134.15 115.5 134.25 115.5 134.45 Z"/>

<path fill="#F2FFE7" stroke="none" d="
M 51.75 93.35
Q 51.35 94.2 50.05 95.65 48.8 97.05 48.35 97.9 47.45 99.65 47.85 102.9 48.65 109.65 52.1 113 53.7 114.65 56.9 116.2 61.75 118.5 67.25 119.15 67.35 119.15 67.45 119.2 71.05 119.6 74.6 119.2 76.3 119 78 118.65 82.5 117.65 85.75 115.75 90.2 113.15 95.2 106.85 96.45 105.25 97.35 103.85 96.8 104.15 96.25 104.4 92.25 106.3 87.7 105.8 84.1 105.4 80.95 103.7 77.7 101.95 75.6 99.15 73.5 96.3 72.95 92.7 72.4 89 73.7 85.8 74.75 83.45 76.65 81.75 65.5 81.9 56.05 87.35 53.65 88.8 52.9 90.1 52.6 90.65 52.3 91.7 52 92.85 51.75 93.35
M 177.95 102.15
Q 174.7 102.5 171.45 101.6 168.25 100.65 165.6 98.65 160.55 95.05 159.2 89.15 158.1 84.2 160.75 79.35 161.95 77.15 163.65 75.55 159.75 75.1 155.9 75.1 152 75.1 149.5 75.75 146.35 76.55 143.1 78.9 143 79 142.9 79.1 140.5 80.75 137.55 83.65 137.25 83.95 137.05 84.2 136.35 84.95 136.15 85.5 135.8 86.25 135.8 87.65
L 135.55 93.05
Q 135.45 96.25 136.05 98.25 137.4 102.6 142.95 106.1 147.1 108.7 151.8 110.15 154.8 111.05 158.1 111.5 158.3 111.5 158.45 111.55 166.55 112.5 174.15 110.1 179.7 108.3 182.9 105.35 187.1 101.55 187.55 96.65 186.2 98.55 184.1 99.95 181.3 101.75 177.95 102.15
M 51.8 33.1
Q 51.2 34.35 51.2 36.5 51.2 38.05 51.6 40.05 50.4 40.6 49.2 41.15 46.6 42.4 45.85 43.65 45.1 44.8 45.1 46.8 45.1 47.1 45.15 47.35 45.25 49.9 46.6 51 47.65 51.8 49.65 51.9 52.3 52.05 55.3 51.35 56.25 53.2 57.35 54.45 58.05 55.4 59 55.9 60.45 56.5 62.3 55.9 64.15 55.4 64.95 54.15 65.6 53.15 65.7 51.15 65.8 49.25 65.7 47.35
L 65.7 47.3
Q 66.5 46.95 67.35 46.55 69.25 45.7 70.15 45.05 71.6 44.05 72.15 42.75 72.55 41.8 72.45 40.35 72.4 38.75 71.8 37.45 71.1 36 69.8 35.45 69.15 35.15 68.15 35.1
L 66.45 35
Q 64.4 34.9 63.7 35 63.1 35.15 62.3 35.45 62.15 35.25 62.05 35.1 61.5 34.25 60.1 32.75 58.95 31.6 58.5 31.3 56.7 30.15 54.75 30.7 52.75 31.25 51.8 33.1
M 56.35 46.05
Q 55.8 45.4 55.7 43.85 55.7 42.55 56.05 41.85 56.45 41.1 57.1 40.65 58.4 39.75 59.8 39.9 61.35 40.05 62.15 41.35 63.2 42.85 62.3 44.6 61.55 46.15 59.7 46.75 58.8 47.05 57.9 46.9 56.9 46.75 56.35 46.05 Z"/>

<path fill="#009933" stroke="none" d="
M 212.1 47.35
Q 207.95 43.8 202.95 41.5 202.25 41.65 201.55 41.5
L 201.6 41.5
Q 200.25 41.25 199.2 40.3
L 199.15 40.25
Q 198.35 39.45 197.8 38.25 197.75 38.15 196.95 36.25 194.25 29.95 188.45 25 183.1 20.35 176.05 17.75 169.85 15.4 162.05 14.4
L 162 14.4
Q 156.15 13.55 147.5 13.35 141.35 13.15 137.5 13.3 132.1 13.6 127.8 14.6 126.35 14.9 125.4 14.85 125 14.8 124.75 14.55 124.6 14.4 124.55 14.25 123.45 14.05 123 13.25
L 122.95 13.2
Q 122.85 13.1 122.8 13 122.575390625 12.955078125 122.4 12.9
L 122.55 12.95
Q 121.85 12.85 121.55 12.85 121.4 12.85 121.25 12.8 121.1 12.75 120.9 12.75 120.65 12.75 120.45 12.65 111.5 7.85 96.95 6.65 86.2 5.75 78.75 7.15
L 78.8 7.15
Q 73.2 8.35 66.75 11.2
L 66.8 11.15
Q 58.65 14.85 52.75 19.8 46.3 25.05 43.3 30.95 42 33.7 40.25 39.35 40.2 39.6 40 39.75
L 39.3 42.7
Q 38.85 44.45 38.4 46
L 38.45 45.85
Q 38.3 46.7 38.05 47.35 37.9 47.65 37.8 47.9 38.05 49.3 35.8 50.7 29.65 54.55 28.9 55.2 28.85 55.2 28.8 55.25 25 57.7 22.5 60.1 15.1 66.85 12.65 76.75 10.35 85.95 12.65 95.75 13.75 100.6 16.05 103.35 16.7 104.05 18.05 105.4
L 18 105.4
Q 19.4 106.8 19.8 108.05 19.8 108.1 19.85 108.15 21.55 109.1 23.5 109.9 23.75 109.9 23.95 109.95 25.6 110.2 26.65 111.25 26.9 111.5 27.1 111.8 28.05 113 28.1 115.1
L 28.1 115.15
Q 28.15 115.8 27.9 118.3 27.3 123.95 29 128.1 31.2 133.45 37.55 138 44.9 143.35 54.25 145.75 63.35 148.05 72.95 147.3 73.8 147.2 74.55 147.25 76.2 146.75 77.85 147.7 80.4 147.05 82.55 146.7 84.4 146.4 85.95 146.4 87.95 146.4 89.9 146.7 93.3 147.3 96.5 148.9 96.65 148.85 96.85 148.85 98.35 148.7 99.75 148.65 101.2 147.85 103.05 148.3
L 103.1 148.3
Q 103.4 148.4 103.7 148.5 104.45 148.45 105.15 148.5 105.4125 148.5 105.65 148.55 105.4125 148.49375 105.15 148.45 87.4 146.15 77.6 140.3 70.85 136.3 69 133.4 68.75 133.8 68.45 134.3
L 66.05 138 66.05 138.05
Q 63.95 141 62.35 142.15 61.7 142.6 60.35 141.6 65.9 128 66.55 126.05
L 66.55 126.1
Q 66.7 125.5 66.85 124.75 62.5 124.2 58.05 122.75 53.35 121.25 50.1 118.8 46.1 115.75 44 110.75 41.95 105.9 42.15 100.6 42.3 96.05 44.15 92.6 45.75 89.6 49.25 86.75 56.35 80.75 65.7 78.4 75 76 84.1 77.85 88.3 78.75 91.8 80.35 97.25 74.95 101.25 69.6
L 101.25 69.55
Q 102.55 67.7 103.6 67.05 108 69.1 118.8 73.55
L 118.85 73.55
Q 121 74.4 125.1 75.4 131.5 76.95 136.8 78 139.1 75.65 141.35 74.2 147.4 70.15 156.25 69.9 162.7 69.7 171.8 71.95 177.8 73.35 181.65 75.35 186.85 78.15 189.25 82.35 190.45 84.5 191.5 88.65 192.45 92 192.6 94.15 192.6 94.25 192.65 94.3 192.9 94.45 193.2 94.65 193.6 94.85 194.4 95.35 195.15 95.8 197.65 96.6
L 200.45 97.75
Q 207.45 100.85 210.9 102.5 213.1 103.65 213.75 104.55 214.35 105.45 214.65 107.25 215.1 109.95 214.8 111.75 214.25 114.35 212.45 115.45 211.5 116.1 210.3 116.1 209.1 116.1 208.25 115.4 206.65 114.1 206.95 111.5 207.1 110.55 208.25 107.4 208.45 106.7 208.3 106.4 208.2 106.2 207.65 105.85 202.85 103.45 197.2 101.3 194.25 100.25 192.35 99.4 192.15 100.4 191.8 101.45 190.65 105.1 188.25 107.9 184.6 112.25 177.7 114.85 169.25 118.1 160.1 117.5 161.9 122.1 164.7 125.65 165.3 126.45 166 127.15
L 166.05 127.2
Q 168.35 129.65 171.15 131.3 171.45 131.45 171.75 131.6 171.8 131.6 186.2 139.4 186.3 139.45 186.4 139.55 185.25 140.2 183.8 140.65 181.1 141.45 177.9 141.1 172.3 140.45 167.05 137.05
L 167.1 137.05
Q 166.85 136.9 166.6 136.75 164.45 138.3 162 139.55
L 162.05 139.55
Q 156.8 142.45 151.85 144.6 155.15 144.5 158.15 144.5 162.45 144.4 164.6 145.3
L 164.55 145.3
Q 167.95 146.5 170 150.3
L 170 150.25
Q 170.6 151.3 171.1 152.55 171.45 152.3 171.95 152.05
L 172 152.05
Q 174.1 151.1 174.55 150.75 174.65 150.65 174.75 150.6 174.85 150.55 175.75 149.85 176.5 149.1 177.15 148.9 177.5 148.75 177.9 148.65 179.5 147.3 183.25 147.5 190.55 147.8 194.6 147.5 200.8 146.85 205.25 144.75
L 205.2 144.75
Q 209.85 142.35 215.1 136.6
L 215.15 136.6
Q 217.6 133.9 218.9 131.85 220.5 129.05 220.65 126.4
L 220.5 123.4
Q 220.4 121.2 221 119.9
L 221 119.95
Q 221.5 118.5 223.3 116.9 223.75 116.5 224.5 115.85 225.1 115.35 225.85 114.7 225.85 114.65 225.9 114.65 228.3 112.15 229.75 106.9 232.9 95.45 231.35 85.4 230.5 80.75 227.95 73.55 226.2 68.5 224.5 64.7 224.05 63.7 223.6 62.8 220.9 57.2 217.65 53.1 215.1 49.9 212.1 47.35
M 188.7 134.45
Q 188.75 134.45 188.95 134.5 188.75 134.65 188.6 134.8 188.65 134.6 188.7 134.45
M 51.2 36.5
Q 51.2 34.35 51.8 33.1 52.75 31.25 54.75 30.7 56.7 30.15 58.5 31.3 58.95 31.6 60.1 32.75 61.5 34.25 62.05 35.1 62.15 35.25 62.3 35.45 63.1 35.15 63.7 35 64.4 34.9 66.45 35
L 68.15 35.1
Q 69.15 35.15 69.8 35.45 71.1 36 71.8 37.45 72.4 38.75 72.45 40.35 72.55 41.8 72.15 42.75 71.6 44.05 70.15 45.05 69.25 45.7 67.35 46.55 66.5 46.95 65.7 47.3
L 65.7 47.35
Q 65.8 49.25 65.7 51.15 65.6 53.15 64.95 54.15 64.15 55.4 62.3 55.9 60.45 56.5 59 55.9 58.05 55.4 57.35 54.45 56.25 53.2 55.3 51.35 52.3 52.05 49.65 51.9 47.65 51.8 46.6 51 45.25 49.9 45.15 47.35 45.1 47.1 45.1 46.8 45.1 44.8 45.85 43.65 46.6 42.4 49.2 41.15 50.4 40.6 51.6 40.05 51.2 38.05 51.2 36.5
M 221 28.2
L 221 28.15
Q 220.8 27.95 220.6 27.75 219.95 27.85 219.45 27.95 218.9 29.1 218.85 30.6 218.8 32.25 219.5 33.9
L 219.5 33.85
Q 220.6 36.4 223.1 38.2 223.1 38.1 223.15 38.1 223.2 38 223.25 38 224 37 224.1 36.45 224.1 36.35 224.15 36.3 224.2 35.95 224.05 35.5
L 224.05 35.45 223.7 34.1
Q 223.65 34.05 223.65 34 223.45 32.65 223.35 32 223.2 31.4 222.85 30.9
L 222.85 30.85
Q 222.1 29.5 221 28.2
M 224.8 18.65
Q 225 17.95 225.05 16.45 224.95 13.7 224.2 11.2 220.5 12.95 219.4 15.7 219.2 16.35 218.9 18.3 218.65 20.6 218.6 21.75
L 218.6 21.8
Q 218.6 21.95 218.65 22.05 219.35 22 220 22.05 221.7 21.45 222.55 21
L 222.6 20.95
Q 224.2 20.15 224.8 18.65 Z"/>
</g>
</defs>

<g transform="matrix( 1, 0, 0, 1, 31.65,48.7) ">
<g transform="matrix( 1, 0, 0, 1, 0,0) ">
<use xlink:href="#sprout_0_Layer1_0_FILL"/>
</g>

<g transform="matrix( 1, 0, 0, 1, 0,0) ">
<use xlink:href="#sprout_0_Layer0_0_FILL"/>
</g>
</g>
</svg>
