
<svg xmlns="http://www.w3.org/2000/svg" version="1.1" xmlns:xlink="http://www.w3.org/1999/xlink" preserveAspectRatio="none" x="0px" y="0px" width="150px" height="150px" viewBox="0 0 150 150">
<defs>
<g id="Layer0_0_FILL">
<path fill="#FFFFFF" stroke="none" d="
M 141.25 37.1
Q 135.3 29.85 125.75 26.6 117.05 23.7 107 24.7 106.2 24.8 105.6 24.95 105.45 24.5 105.25 23.95 103.15 19 98.8 14.95 94.8 11.25 89.45 8.75 82.25 5.4 73.45 4.7 65.45 4.1 56.9 5.75 47.5 7.6 40.8 11.65 34.55 15.25 28.9 21.85 24.65 26.8 19.65 34.75 19.55 34.9 19.5 35.05 19.3 34.7 19.1 34.3 18.75 33.55 17.85 32.25 16.9 30.85 16.55 30.1 15.9 28.85 15.25 25.9
L 14.75 23.2
Q 14.55 21.8 14.5 18.7 15.8 19.6 17.45 20.1 21 21.1 24.3 19.9 25.65 19.35 27.45 18.3 30.05 16.65 31.4 15.4 32.7 14.3 33.15 13.15 33.35 12.75 33.35 12.3 33.85 11.8 33.95 11.05 34.05 10.2 33.3 8.65 31.6 5.15 29.65 3.95 27.3 2.55 23.75 3.15 22.05 3.4 20.4 4 19.5 4.35 17.85 5.35 14.95 7.25 13.3 9.45 12.85 8.95 12.35 8.45 9.95 5.85 8.3 4.85 4.75 2.7 0.3 3.3 -3.8 3.9 -7.3 6.6 -8.45 7.45 -8.6 8.1 -8.8 8.75 -8.4 10.15 -7.45 13.1 -6.7 14.45 -5.65 16.25 -3.05 18.7 -1.5 20.2 -0.45 20.9 2.55 22.85 6.2 22.25 8.95 21.8 10.85 20.1 10.95 23.55 11.55 26.75 11.95 28.75 12.65 30.35 13.55 32.5 15.75 34.95 16.4 35.7 16.95 36.05 16.75 36.05 16.55 36 12.75 35.45 9 37.45 5.45 39.3 3.1 42.7 -0.7 48.2 -1.3 57.7 -1.9 65.95 0.1 72.3 0.9 74.55 1.85 75.65 2.15 76.05 2.55 76.35 1.3 77.6 0.35 79.15 -2.15 83.05 -2.95 87.8 -3.75 92.45 -2.65 97.05 -1.65 101.55 1.05 105.45 3.75 109.4 7.55 112.05 9.1 113.1 10.5 113.75 11.8 115.25 13.75 116.3 16.6578125 117.776953125 20.3 117.8
L 19.65 145.15
Q 18.95 144.75 17.9 143.45 16.9 142.15 16.15 141.75 15.2 141.2 13.95 141.35 12.85 141.45 11.8 142.1 10.5 142.85 9.65 144.1 8.8 145.4 8.55 146.85 8.3 148.3 8.7 149.8 9.1 151.25 10.1 152.4 11.4 153.85 14.15 155.1 16.25 156.05 17.55 156.05 19.05 156.1 20.4 155.25 21.7 154.45 22.35 153.1 22.8 152.1 23 149.9 23.652734375 143.76484375 23.65 137.3 23.990234375 137.317578125 24.35 137.3 25.9 137.25 27.7 136.3 29.1552734375 135.6087890625 30.25 134.75 30.3435546875 138.1326171875 30.7 141.85 31.15 146.6 32.55 156.05 33 158.45 33.65 159.25 34.45 160.35 35.9 160.5 35.7 160.15 36.3 159.2 36.85 158.4 36.75 156.5 35.55 146 35 140.75 34.35 134.25 34.55 129.25 34.75 129.2 34.95 129.1 38.1 127.9 41.85 127.35 46.6 126.6 53.55 126.8 57.5 126.9 65.35 127.2 68.2 127.25 73.95 127.25 83.4 127.55 94.05 130.35 94.15 133.5 95.05 138.45 97.15 150.65 98.85 157.7 99.25 159.45 99.8 160.3 100.15 160.8 100.9 161.75 101.5 162.6 101.45 163.3 101.35 163.95 101.65 164.05 101.95 164.2 102.2 163.45 102.9 159.55 102.85 157.6 102.8 156.5 102.25 153.25
L 98.9 135.85
Q 98.4 133.3 97.9 131.45 102.35 132.8 107.05 134.55 107.55 134.7 108 134.85
L 111.85 150.15
Q 112.5 152.65 112.7 154.05 113 156.2 112.65 157.95 112.55 158.55 112.6 158.85 112.85 159.45 113.25 159.3 113.55 159.25 113.75 158.75 114.2 157.45 114.4 155.4 115.1 149.25 114.75 145 114.45 141.8 113.15 136.3 112.9 135.25 112.65 134.3 112.8 134.2 113 134.15 114.2 133.75 115.5 132.35 115.95 131.9 116.75 130.9 117.55 129.7 118.2 127.35 118.45 126.7 118.45 126.15
L 118.45 126.1
Q 119.3 126.5 120.5 126.55 123.05 126.8 127.85 125.35 131.8 124.15 133.45 122.75 134.85 121.6 136.05 119.55 136.5060546875 118.735546875 137.1 117.4
L 137 119.05
Q 136.4 124.35 135.95 129.6 135.829296875 130.86171875 135.75 132 132.95625 130.6943359375 131.45 130.5 128.7 130.05 127.05 131.7 126.15 132.6 125.95 133.95 125.75 135.3 126.25 136.5 127.2 138.8 129.9 140 132 140.9 134.95 140.8 136.85 140.8 137.85 140.15 138.6 139.65 138.95 138.8 139.3 137.9 139.1 137 139 136.65 138.7 136 138.5580078125 135.66875 138.45 135.4
L 140.4 119.45
Q 141.2814453125 119.3947265625 142.55 118.8 144.7 117.8 146.45 116.5 148.35 115.15 149.05 113.95 150.15 112.05 149.15 110.45 148.3 109.1 146.45 109 145.15 108.95 143.35 109.65 141.82109375 110.2779296875 140.85 111.1 140.846875 110.9828125 140.85 110.85 140.949609375 107.017578125 140.55 105.1 140.79375 105.1587890625 141 105.2 143.1 105.5 146.25 103.8 150.65 101.4 152.5 99.1 153.45 97.95 154.4 96.1 154.95 95.1 155.95 92.95 156.5 91.9 157.65 89.9 158.6 88.05 159.05 86.7 160.25 82.95 159.55 78 158.65 72.1 155.35 66.7 152.2 61.5 147.35 57.65 147.15 57.55 147 57.4 147.05 57.15 147.05 56.95 147.45 49.5 145.4 44.15 144.05 40.55 141.25 37.1
M 128.65 32.9
Q 133.5 35.8 136.8 40.3 140.15 44.95 141.15 50.35 141.65 53.5 141.4 57.4 141.2 60.95 142.75 61.75 143.55 62.2 144.6 61.8
L 144.65 61.8
Q 148.4 64.75 151.1 69 154.1 73.7 155.05 79.1 155.85 83.35 155.05 87.2 154.15 91.5 151.55 94.3 149.95 95.95 147.65 97.4 144.45 99.4 139 101.9 138.8 101.85 138.6 101.8 137.9 101.8 137.35 102.1 136.85 102.45 136.55 103.2
L 136.5 103.2
Q 136.3 103.55 136.4 103.75 136.35 103.85 136.35 103.95 136.3 104.3 136.3 106.05 136.3 109.2 134.1 113.8 133.3 115.45 132.7 116.2 131.9 117.1 130.35 118.15 126 120.95 122.3 121.55 120.9 121.75 120.2 121.8 118.95 122 118.2 122.35 117.35 122.65 117.05 122.6 116.7 122.5 116.5 122.45 116.25 122.4 116.1 122.5 115.7 122.7 116.05 123.4 115.6 123.4 115.15 123.7 114.7 124 114.15 125
L 113.6 126.05
Q 112.8 127.4 112.45 127.8
L 110.95 129.2
Q 110.7 128.65 110.45 128.15 108.35 123.85 104.9 121.7 102.7 120.35 99.6 119.8 98.05 119.5 95.5 119.3 99.1 118.45 102.2 117.25 111.3 113.6 116.55 107.1 119.2 103.85 122.15 97.8 122.95 96.25 123.05 95.2 123.15 94.55 123 94.05 123.9 93.5 124.7 92.85 128.9 89.55 130.65 84.1 132.4 78.7 130.85 73.45 129.3 68.15 124.85 64.35 120.4 60.55 114.95 59.95 110.45 59.35 105.25 61.05 101.35 62.25 97.9 64.55 97.45 64.8 97 65.15 94.2 68.65 92.55 71.45 92.2 71.25 91.75 71.15 89.9 70.5 88.9 70.05 83.1 67.65 78.2 60.35 76.8 58.2 76.3 56.8 75.8 55.65 75.7 55.3 75.25 54.55 74.65 54.2 73.4 53.45 71.25 54.95 68.6 56.7 66.25 59.4 65.1 60.75 65 60.9 64.85 61.1 64.65 61.2 63.7 60.4 62.45 59.35 58.7 56.05 53.75 55.45 49.25 54.9 44 56.6 40.15 57.75 36.7 60.1 33.3 62.3 31.45 64.95 28.65 68.95 28.95 73.75 29.05 75.35 29.55 77.3
L 28.35 76.95
Q 27.75 76.9 26.9 77.05 25.95 77.3 25.45 77.4 24.35 77.55 23.8 77.65 22.85 77.8 22.25 78.15 21.5 78.6 21.15 79.45 20.75 80.35 20.95 81.2 21.2 82.05 21.95 82.65 22.75 83.25 23.6 83.2 23.85 83.2 25.1 82.8 26 82.5 27.75 82.05 29.55 81.6 30.4 81.3 30.65 81.2 30.85 81.15 31.6 82.9 32.55 84.3 35.75 89.15 41.65 91.35 41.75 91.4 41.85 91.45 41.85 94.2 42.3 98.85 42.65 104.25 41.2 107.55 40.65 108.9 39.9 109.85 39.75 110.05 39.6 110.25 39.4 110.45 39.2 110.7 38.65 111.3 37.95 112
L 36.55 113.4
Q 36.15 113.7 36.1 113.95 36.1 114.35 36.4 114.5 36.65 114.6 37.15 114.5 37.65 114.5 38.65 114.8 39.4 114.8 40.5 114 40.6 113.95 40.65 113.9 41.2 114.1 42.55 114.35 43.95 114.65 46.65 115.45 46.7 115.45 46.75 115.5 44.95 115.6 43.45 115.85 42.45 115.75 41.5 115.75 37.35 115.65 35.3 116.7 32.7 118.1 31.4 121.45 31.25 121.8 31.15 122.2 30.95 122.05 30.9 122 30.7 121.75 30.6 121.35 30.3 120.55 29.6 119.65 29.6 119.6 28.3 118.1 27 116.7 25.85 114.85 25 113.55 24.35 113.25 23.7 113 22.35 113.2 20.6 113.35 18.4 113 17.95 112.95 17.2 112.8 17.2 112.7 17.25 112.6 16.4 112.25 15.3 111.65 9.95 108.4 7.75 106.25 5.05 103.55 3.45 99.95 1.95 96.4 1.8 92.5 1.65 88.75 2.9 84.95 4.1 81.25 6.4 78.2 7.7 76.4 7.4 75.45 7.3 75.25 7.2 75.1 7.15 74.8 7 74.6 6.85 74.2 6.25 73.8 5.4 73.15 5.35 73.1 4.7 72.5 4.25 70.9 3 66.45 3 59.65 3.2 51.4 5.6 46.75 7.2 43.65 9.9 41.7 12.85 39.6 16.05 39.55 16.85 39.55 18.45 39.65 19.8 39.6 20.65 39.15 21.6 38.6 22.75 36.95 28 29.45 31.65 25.3 37.05 19.3 42.7 15.9 53.35 9.6 68.65 9.75 77.5 9.85 84.05 12.25 92.2 15.05 97.05 20.7 98.8 22.8 100.55 25.8 101.35 27.25 102.1 27.9 103.05 28.75 104.1 28.6 104.5 28.85 105.1 28.95 105.85 29.1 107.35 28.9 112.95 28.2 118.35 29.2 124.05 30.2 128.65 32.9
M 112.9 67.7
Q 110.55 65.25 106.85 64.85 108.85 64.3 111.1 64.1 113.35 63.85 115.25 64.15 119.4 64.7 122.85 68.05 125.85 71 127.25 75.45 128 77.6 128.05 79.4 128.2 84.2 124.75 88.1 121.8 91.45 116.85 93.05 113.95 94 110.95 94.05 107.85 94.1 105.05 93.2 102.1 92.25 99.75 90.3 97.3 88.3 95.95 85.65 95.1 83.9 94.55 81.2 95.3 82.55 96.65 83.9 97.95 85.25 99.5 86 102.8 87.65 107.15 86.45 112.45 84.95 114.5 80.95 116 78.05 115.45 73.7 114.9 69.9 112.9 67.7
M 92.25 86.55
Q 92.35 86.5 92.45 86.5 93.05 87.7 93.75 88.8 97 93.6 102.9 95.85 108.15 97.75 114.3 96.95 116.05 96.7 117.65 96.3 115.9 100.8 112.65 104.65 109.15 108.75 104.5 111.45 95.4 116.75 84.05 116.2 82.05 116.1 81.3 116.55 80.5 117 80.3 118 80.2 118.45 80.25 118.9 80.2 119.05 80.15 119.25 80.05 119.8 80.1 120.25 81.95 120.55 84.1 121.05
L 87 121.85
Q 87.2 121.9 87.4 122
L 95.05 122.85
Q 98.15 123.2 99.8 123.65 102.35 124.35 103.9 125.8 105.35 127.15 106.35 129.45 106.6 130 106.85 130.75 105.8 130.5 104.45 130.3
L 97.1 129
Q 96.9 128.6 96.75 128.25 96.25 127.2 95.65 127.1 94.85 126.95 94.35 127.85 94.2 128.1 94.15 128.5
L 84.65 126.8
Q 81.25 126.3 78.7 125.7 73.35 124.4 72.45 124.25 70.45 123.95 64.75 123.6 59.9 123.3 57.5 123.2 53.25 123 50.2 123.05 48.5 123.1 42.3 123.55 37.25 124 35 124.4 35.3 122.65 36 121.7 36.2 121.55 36.45 121.35 37.05 120.9 37.75 120.5 38.2 120.35 38.75 120.3 40.55 119.3 43.6 118.85 49.85 118 58 119.15 59.85 119.4 63.3 120.05 63.25 119.9 63.25 119.75 63.1 117.7 63.2 116
L 63.15 116
Q 62.15 115.65 61.7 115.55 60.15 115.45 59.4 115.3 58.95 115.2 58.25 114.95 57.3 114.55 57.05 114.5 56.15 114.15 54.7 113.85 53.15 113.55 52.35 113.35
L 43.45 110.6
Q 44.55 108.6 45.15 106 45.9 102.45 45.35 96.65 45.15 94.65 44.75 93.45 44.6 93 44.2 92.15 48.35 93.1 53.1 92.5 59.3 91.65 63.45 88.4 66.05 86.4 67.7 83.6 68 83.85 68.5 83.95 69.05 84.1 70.1 84 73.15 83.8 76.8 84.05 79.3 84.2 83.5 84.65 85.5 84.85 86.5 85.05 87.35 85.25 89.75 86.15 91.4 86.85 92.25 86.55
M 85.75 81.25
Q 84.7 81.05 82.3 80.85
L 78.9 80.55
Q 72.95 80.05 69.95 80.5 69.5 80.55 69.1 80.7 69.3 80.15 69.45 79.65 71.2 74.2 69.65 68.95 68.55 65.25 66.15 62.35 65.95 62.25 65.75 62.1 66.75 61.65 68.1 61.15 70.95 60 72.05 58.7 74.95 64.65 78.45 68.3 82.85 73 88.15 74.4 89.6 74.8 90.85 74.8 90.05 76.8 90.15 78.2 90.25 80.25 91.05 82.8 90.95 82.75 90.85 82.7 87.35 81.6 85.75 81.25
M 23.1 7.55
Q 23.95 7.4 25.55 7.3 26.75 7.2 27.4 7.5 28.1 7.9 28.85 9.3
L 29.75 11.05
Q 29.9 11.45 30.1 11.75 30 11.8 29.85 11.9 28.65 12.95 28.05 13.45 27 14.3 24.7 15.6 23.4 16.35 22.75 16.55 20.5 17.25 18.2 16.3 16.3 15.55 14.8 13.8 14.85 13.45 14.9 13.2 16.85 11.05 18.25 9.95 20.6 8.15 23.1 7.55
M 5.25 7.85
Q 6.15 8.2 7.3 9.15 9.15 10.5 10.75 12.5
L 11 12.85
Q 10.95 13 10.95 13.2
L 10.9 13.35
Q 9.6 16.6 8.05 17.55 7.6 17.85 6.7 18.2 5.85 18.5 5.45 18.55 3.7 18.85 1.85 17.75 0.65 17.05 -1.05 15.35 -3.2 13.2 -3.85 11.65 -4.25 10.9 -4.55 9.5
L -4.6 9.15
Q -4.55 8.95 -4.35 8.85 -3.7 8.3 -2.9 8.1 -1.7 8 -1.1 7.8 0 7.25 0.65 7.1 1.15 7 2.25 7.1 4.2 7.4 5.25 7.85
M 37.55 83.3
Q 38.75 83.85 40.45 83.95 41.45 83.95 43.4 83.75 45.85 83.5 47.35 83.2 49.45 82.65 50.9 81.6 54.4 79 54.9 73.5 55.45 67.5 52.2 63.25 50.45 61 48.3 60.45 47.5 60.2 46.25 60.25 48 59.85 49.85 59.65 52.15 59.35 54.05 59.7 58.15 60.3 61.65 63.6 64.6 66.5 66.05 71 66.8 73.2 66.85 75 66.95 79.8 63.55 83.65 60.6 87 55.65 88.6 52.75 89.55 49.75 89.6 46.65 89.65 43.85 88.8 40.9 87.8 38.55 85.85 36.1 83.85 34.75 81.15 34.55 80.8 34.45 80.45 35.75 82.5 37.55 83.3
M 25.65 121.85
Q 27.65 123.55 29.3 123.55
L 30.85 123.45
Q 30.715625 124.0544921875 30.6 124.75 29.0015625 124.1013671875 26.8 124.85 24.89609375 125.4724609375 23.45 126.85
L 23.15 119.15
Q 24.271875 120.709375 25.65 121.85
M 80.05 111.85
Q 79.25 111.6 77.6 112
L 76 112.35
Q 75 112.55 74.55 112.75 73.85 113.1 73.45 113.5 72.7 114.15 72.85 114.8 73 115.7 74.25 115.8 75.5 115.95 77.8 115.15 79.65 114.5 80.9 113.9 81.5 113.4 81 112.6 80.8 112.05 80.05 111.85
M 76.85 113.75
Q 77.75 113.55 78.3 113.8 77.05 114.05 76.4 114.25 75.8 114.45 75.5 114.4 76.45 113.85 76.85 113.75
M 58.1 22.85
Q 57.1 21.8 55.8 21.4 53.4 20.6 50.35 22.1 46.7 23.85 44.55 27.2 43.95 28.2 43.4 28.4 43.05 28.55 42.2 28.5 39.35 28.2 37.95 28.4 35.4 28.8 34.2 30.4 33.35 31.6 33.35 33.25 33.35 34.8 34.15 36.2 35.4 38.4 38.7 40.15 37.75 42.5 38.7 44.75 39.75 47.05 42.05 47.95 43.4 48.5 45.45 48.4 48.8 48.15 51.55 46.15 52.2 45.7 52.55 45.6 52.85 45.55 53.7 45.75 56.05 46.4 58.1 46.2 60.5 45.9 62.15 44.65 63.55 43.5 64.2 41.7 64.85 39.85 64.55 38 64.25 36.25 63.15 34.65 62 33.15 60.4 32.25 59.55 31.65 59.45 31.25 59.4 31.05 59.55 30.5 60.4 27.6 59.5 25.2 59.05 23.85 58.1 22.85
M 52.95 34.4
Q 53.25 35.55 53.25 36.1 53.25 38.1 51.7 39.35 50.2 40.6 48.2 40.35 47.5 40.25 46.9 39.9 46.35 39.6 45.9 39.05 45.55 38.75 45.15 38.15 44.9 37.8 44.8 37.2 44.5 35.95 44.65 35 44.95 33.75 45.75 33.1 46.25 32.7 46.9 32.4 48.55 31.65 49.9 31.85 51.7 32.05 52.55 33.4 52.8 33.9 52.95 34.4
M 52.5 128.1
Q 52.1 127.1 51.5 127 50.8 126.85 50.35 127.5 50 127.9 49.9 128.75 49.8 130.1 50.2 132.7 51.45 139.95 53.25 154.9 53.75 159.25 54.8 161.4 55.05 161.85 55.5 162.75 55.8 163.5 55.75 164.15 55.75 164.9 56 165 56.45 165.15 56.55 164.7 56.6 164.6 56.6 163.95 56.55 163.2 56.9 162.15 57.4 161 57.6 160.4 58.4 158.05 57.7 153.45
L 55.75 140.7
Q 55.05 136.35 54.55 134.25 53.75 130.75 52.5 128.1 Z"/>
</g>
</defs>

<g transform="matrix( 1, 0, 0, 1, 0,0) ">
<use xlink:href="#Layer0_0_FILL"/>
</g>
</svg>
