
<svg xmlns="http://www.w3.org/2000/svg" version="1.1" xmlns:xlink="http://www.w3.org/1999/xlink" preserveAspectRatio="none" x="0px" y="0px" width="300px" height="300px" viewBox="0 0 300 300">
<defs>
<g id="vivi_0_Layer3_0_FILL">
<path fill="#330066" stroke="none" d="
M 274.95 23.15
Q 271.85 15.65 268.4 12.2 264.85 8.65 258.3 6.25 242.4 0.2 224.3 3.25 206.95 6.25 192.3 16.65 191.15 17.4 190.55 18.3 181.25 17.2 171.2 17.6 170.45 17.65 169.9 17.8 169.2 16.25 166.75 14.9 157.4 9.55 144.6 8.35 134.65 7.4 121 8.9 102.35 11.05 89.75 15.95 89.15 16.2 88.5 16.45 87.95 15.65 86.55 14.85 66.3 2.95 43.2 0.45 35.3 -0.45 29.7 0.55 19.75 2.3 11.95 10.25 4.5 17.95 1.65 28.35 -1 38.15 0.6 49.15 2.05 59.35 6.9 69.25 8.05 71.5 10.4 75.95 12.4 79.95 13.3 82.95 14.65 87.25 14.95 93.5 15.15 97.1 15.25 104.35 15.35 107.15 16.1 108.55 16.55 109.55 17.4 110.15 16.75 118.7 17.35 126.95 18.4 141.8 23.35 154.45 24.3 157 26.4 162 28.15 166.4 28.8 169.7 29.5 173.35 28.85 175.6 28.45 177.1 27.5 178.25 26.45 179.45 25.1 179.9 23.2 180.4 20.9 179.3 19.5 178.65 17.1 176.85 14.55 174.85 12.9 175.5 11 176.25 10.7 180.2 10.25 186.25 10.25 189.15 10.3 194.1 11.3 197.95 12.5 202.55 15.25 207.3 18.95 213.7 23.85 217.65 29.11484375 221.8064453125 34.7 222.15 37.6349609375 223.5625 42.2 224.6 55.05 227.65 68.2 227.7 76.7 227.7 81.5 226 83.75 225.25 84.65 224.1 85.3498046875 223.1927734375 85.45 222.2 86.014453125 222.701953125 86.55 223.25 87.8560546875 224.4923828125 88.55 225.7 89.1103515625 225.6388671875 89.55 225.5 93.3 228.25 97.9 230.1 105.15 233.1 113.4 233.6 118.85 233.9 122.25 232.55 124.4 231.7 125.95 230.05 127.65 228.3 128.15 226.15 128.2 225.7 128.15 225.35 132.6 226.6 137 227.35 147.65 229.2 158.15 228.3 169.1 227.45 178.8 223.6 186.5654296875 220.626953125 192.1 216.2 193.9115234375 217.115234375 197.85 218.95 206.9154296875 223.13515625 216.8 224 226.6947265625 224.8548828125 236.4 223.1 250.15 220.6 259.85 213.65 265.15 209.8 269.05 204.7 273.1 199.35 274.95 193.25 275.5 191.2 275.4 189.9 275.15 187.8 273.55 187.25 272.7 186.9 271.6 187.3
L 271.6 187.35
Q 270.65 187.4 269.75 187.9 269.1 188.3 268 189.2 266.85 190.1 266.2 190.45 264 191.65 261.2 191.05 258.55 190.45 256.7 188.5 253.3 184.85 253.55 178.6 253.7 174.65 255.9 168.25 256.25 167.1 261.35 152.8 264.6 143.55 266.4 137.3 271.6 119.1 270.25 105 269.7 98.85 267.35 89.55 265.9 83.8 264.3 78.75 266 72.5 270.45 61.55 275.4 49.3 276.95 42.8 278.35 36.65 277.85 32.45 277.5 29 274.95 23.15
M 238.65 189.5
Q 238.75 189.85 239.35 190.6 239.65 190.95 240.25 191.95 240.75 192.85 241.15 193.25 241.55 193.65 242.65 194.25
L 245.2 195.55
Q 245 195.55 242.4 195.55 240.7 195.6 239.75 195.1 238.95 194.65 238.65 193.95 238.45 193.6 238.35 192.7 238.25 191.7 238.35 188.75 238.4 188.8 238.65 189.5
M 125.35 20.75
Q 128.15 20.7 130.3 20.75
L 106.65 25.3
Q 113.2 21.65 120.5 20.95 121.35 20.9 125.35 20.75 Z"/>
</g>

<g id="vivi_0_Layer2_0_FILL">
<path fill="#99CCFF" stroke="none" d="
M 123.75 224.45
Q 124.3 224.4 124.95 224.4 111.2 220.05 97.75 211.35 93.95 208.85 91.65 206.8 88.6 204 87.05 200.85 86.9 200.4 86.7 200 86.5 200.75 86.45 201.45 85.65 206.75 87.45 210.8 89.25 215 94.75 218.75 99.9 222.3 105.4 224.05 111.45 225.9 117.05 225.35 118 225.25 120.4 224.9 122.55 224.55 123.75 224.45
M 169.85 192.9
Q 168.05 192.4 165.05 191.15 161.6 189.75 160.3 189.3 157.05 188.25 152.4 187.55 152.05 187.6 151.75 187.65 150.45 187.8 149.5 187.1 145.2 186.65 139.85 186.4 125.9 185.85 119.6 184.15 119.5 184.3 119.45 184.45 118.9 185.75 117.5 188.4 116.2 190.65 115.6 191.35 114.25 192.9 111.75 194.05 108.35 195.65 104.6 195.9 100.8 196.2 97.25 195.05 96.65 194.85 95.95 194.6 95.8 195.3 95.8 195.75 95.85 197.55 97.5 199.85 100.2 203.7 104.65 207.05 108.15 209.65 113.35 212.35 129.7 220.7 146 222.1 164.25 223.6 179.35 216.4 188.6 211.95 193.2 205.65 195.9 201.85 196.95 197.5 198.1 192.9 197.05 188.65 196.65 187.4 196.35 186.4 196.1 187.15 195.45 187.95 194.5 189.3 192.1 191.05 189.75 192.95 188.4 193.65 186.4 194.65 183.8 195.1 182.05 195.5 180.15 195.5 176.05 195.45 173.25 193.05 173 193.2 172.6 193.2 171.65 193.35 169.85 192.9
M 170.6 184.5
Q 167.6 181.8 167.35 177.25 167.35 177.05 167.35 176.85 167 177.15 166.5 177.55
L 156.5 184.95 170.5 187.7
Q 172.55 188.05 173.5 188.7 174.85 188.2 175.65 188.05 176.4 187.9 177.45 187.9 178.05 187.85 179.25 187.85 180.1 187.8 180.95 187.75 180.05 187.7 179.1 187.6 173.45 187.05 170.6 184.5 Z"/>

<path fill="#FFECE1" stroke="none" d="
M 103.2 163.7
Q 102.55 163.6 101.25 163.6 99.2 163.6 98.25 163.95 97.2 164.35 95.9 165.7 94.4 167.3 93.35 168.9 92.4 170.25 91.9 171.55 90.85 174.1 90.65 178.55 90.65 180.3 91.2 180.9 91.4 181.15 92.1 181.65 92.25 181.75 92.45 181.9 92.75 182.2 92.9 182.55 93.3 183.05 93.75 183.9 94.75 185.8 95.15 186.3 95.2 186.35 95.3 186.45 95.75 186.95 96.45 187.4 98.05 188.4 100.75 188.8 103.35 189.3 105.5 189.1 108.1 188.75 109.9 187.3 111.15 186.25 112.45 183.8 113.8 181.15 113.9 179.5
L 113.9 179.45
Q 113.95 179.1 113.95 178.55 113.9 177.95 113.8 177.15 113.3 173.35 112.05 170.95 110.2 167.45 105.75 164.8 104.25 163.95 103.2 163.7
M 80 107.6
Q 79.15 108.95 78.45 109.85
L 77.4 111.25 77.35 111.45
Q 78.4 112.25 80.35 112.95 86.95 115.3 94.05 115.1 101.1 114.9 107.55 112.25 110.65 111.05 112.9 109.45 111.7 109.25 110.45 109.05 106.2 108.35 103.45 107.55 100 106.6 93.1 103.5 87.6 101 83.8 99.05 83.4 100.5 82.75 102.1 81.7 104.8 80 107.6
M 195.1 156.5
Q 194.1 155.8 192.55 155.8 187.8 155.65 183.2 159.25 180 161.7 176.5 166.95 174.5 169.8 173.5 172.25 173.15 173.2 173.25 173.6 173.3 174.05 173.75 174.8
L 174.85 176.55
Q 175.55 177.65 176.05 178.15 177.1 179.1 179.3 179.35 180.65 179.55 182.4 179.55 185.6 179.65 187.15 179.35 192.4 178.45 195.4 174.35 196.45 172.95 197.9 169.85 198.05 169.5 198.2 169.2 198.55 166.6 199 163.95 198.85 163.3 198.65 162.6 198.1 160.5 196.45 158.05 195.75 157 195.1 156.5
M 210.75 120.85
Q 210.75 120.8 210.7 120.75 205 121.9 199.2 122 190.85 122.1 183.05 119.95 179.85 119.15 177.15 117.75 173.25 115.75 170.1 112.1 163.7 112 161.35 111.9 155.8 111.75 151.55 111.3 146.5 110.8 142.95 109.75 142.75 109.85 142.6 109.95 141.6 110.4 139.65 110.4
L 131.2 110.5
Q 126.1 110.5 122.95 110.4 115.05 119 102.45 122.15 92.25 124.7 79.8 123.25 80.35 125.45 81.1 128.8 81.3 128.3 81.55 127.9 82.45 126.7 84 126.25 85.55 125.85 86.9 126.5 88.25 127.1 88.95 128.6 89.6 130.1 89.2 131.6 88.85 133.1 87.55 134 86.25 135 84.75 134.85 83.3 134.8 82.2 133.75
L 82.85 136.8
Q 85.8 151.3 86.15 166 87.7 163.3 90.15 160.75 92.4 158.3 94.75 157.05 98.15 155.25 102.45 155.75 103 155.8 103.55 155.9 102.6 151.05 104.5 145.75 106.45 140.3 110.9 135.55 120.5 125.3 135.65 123 150.45 120.8 163.4 127.15 172.85 131.75 177.65 138.8 180.35 142.65 181.45 147.2 182 149.45 182.1 151.65 184.2 150.3 186.35 149.5 189.8 148.2 193.3 148.5 197.05 148.8 199.75 150.95 200.55 151.6 201.3 152.45 203 145.1 205.45 137 208.1 128.05 210.75 120.85
M 207.65 127.75
Q 207.9 129.25 207.2 130.6 206.55 131.95 205.3 132.55 204.15 133.15 202.75 132.85 201.45 132.5 200.5 131.55 199.65 130.6 199.4 129.2 199.25 127.75 199.8 126.55 200.3 125.35 201.5 124.65 202.65 123.9 203.9 123.95 205.35 124.1 206.4 125.25 207.45 126.3 207.65 127.75
M 215.75 109.65
Q 215.75 109.55 215.8 109.55 200.1 111.9 184.4 112.15 183.55 112.15 182.6 112.2 191.7 115.25 201.35 114.1 209.2 113.2 215.75 109.65 Z"/>

<path fill="#FF99FF" stroke="none" d="
M 61.1 39.2
Q 61.353515625 38.603515625 61.95 37.75 61.7662109375 36.2873046875 63.5 34.25 70.85 25.25 82.35 19.35 71.45 15.25 66.85 13.75 57.85 10.85 50.55 9.65 37.25 7.45 28.45 11.15 21.4 14.15 16.35 21 11.6 27.5 10.05 35.6 8.6 43.15 9.9 51.55 11.1 59.25 14.45 66.95 14.55 67.1 17.55 73.55 19.45 77.5 20.35 80.25 21.15 82.6 21.75 85.2 23.8 78.45 26.75 73.3 29.45 68.6 34.95 62.05 42.25 53.3 48.3 48 54.66953125 42.4265625 61.1 39.2
M 267.35 45.1
Q 268.45 41.85 268.85 40.1 269.5 37.35 269.45 35.05 269.4 31.25 267.25 26.4 265.15 21.3 262.5 18.6 259.55 15.65 254.5 13.8 248.6 11.6 241 10.9 235.3 10.35 227.1 10.65 217.65 11 212.3 12.55 208.35 13.75 203.75 16.2 201.65 17.3 198.15 19.5 207.1 21.15 215.4 24.4 226.15 28.65 235.15 35.35 244.5 42.4 251.05 51.45 256 58.3 259.9 67.05
L 267.35 45.1 Z"/>

<path fill="#9999FF" stroke="none" d="
M 260.5 89.2
Q 260.25 87.95 259.95 86.75 260.5 85.7 260.5 84.85 260.5 83.65 259.2 81.5
L 256.95 77.95
Q 256.7 77.6 256.5 77.25 256.6 76.9 256.7 76.45
L 257.05 75.6
Q 256.9 75.25 256.8 74.9 254.35 67.25 251.15 61.4 245.8 51.45 236.85 43.6 228.3 36.1 217.6 31.3 198.35 22.7 173.25 22.85 170.5 22.85 169.35 22.15 169 21.9 168.75 21.65 167.6 21.95 165.35 20.6 156.7 15.15 144.55 13.85 135.2 12.8 122.15 14.1 104.65 15.9 93.6 20 79.3345703125 25.3263671875 70.75 34.8 70.4640625 35.5939453125 69.6 36.65 68 38.75 67.8 39.15 67.62734375 39.5818359375 67.45 39.95 67.5849609375 39.923046875 67.7 39.9 67.65 40.3 67.5 40.7 67.141796875 41.48125 66.05 42.4 65.75 42.696875 65.35 43 65.0701171875 43.2244140625 64.75 43.45 51.6 52.75 41.4 65.75 33.25 76.1 30.3 85.7 28.7 90.5 27.7 98.55 23.75 129.45 31.2 151.2 32.5 155.1 35.35 163 37.45 169.8 36.75 175.05 36.05 180.35 32.95 183.4 30.1 186.25 25.6 186.6 21.4 186.95 17.5 185.05 17.1 195.5 21.35 203.3 23.6 207.5 27.1 210.6 28.2458984375 211.6203125 29.45 212.45 29.97578125 211.628515625 30.8 211.2 32.5 210.45 34.05 211.3 34.65 211.65 35.3 212.4 35.7 212.8 36.4 213.65 37.62578125 214.96328125 39.55 215.9 40.01484375 215.9634765625 40.45 216.15 40.6572265625 216.245703125 40.85 216.4 40.8482421875 216.436328125 40.8 216.45 42.28828125 217.0369140625 44.5 217.6 56.8 220.75 68.35 220.7 74.1826171875 220.608203125 78 219.3 78.3740234375 219.222265625 78.7 219.1 79.3 218.9 80.45 218.45 81.39921875 218.165234375 82.15 218.2 80.4849609375 215.85 79.55 213.4 78.15 209.7 78.35 205.4 78.5 201.4 79.95 197.35 81.5 193 85.1 187.8 84.75 187.15 84.5 186.4 84.2 186.65 83.85 186.85 83.1 187.3 82.35 187.15 81.35 185.45 81.05 182.95 80.85 181.55 80.8 178.4 80.45 151.5 74.5 125.65 70.05 128.75 64.15 128.55 61.75 128.5 59.95 127.7 57.8 126.75 57 124.9 56.3 123.25 56.95 121.4 57.55 119.5 59.2 118.7 60.55 118 63.2 118.2 65.7 118.35 66.9 118.3 65.7 116.9 65.05 115.25 64.3 113.2 64.75 111.05 65.25 108.85 66.75 107.5 68.3 106.2 70.45 106.25 72.5 106.3 73.95 107.5 74.05 105.85 74.3 105.05 74.45 104.45 75.05 103.1 76.2 100.3 77 97.6 77.3 96.7 77.45 95.7 77.45 95.6 77.45 95.55 71.35 91.65 67.45 87.2 64.8 84.15 65.1 81.85 65.25 80.75 66.05 79.8 66.8 78.9 67.9 78.55 69 78.2 70.15 78.5 71.3 78.75 72.1 79.6 72.7 80.2 73.2 81.15 73.5 81.75 74 82.95 75.95 87.15 80.45 90.6 83.75 93.15 89.3 95.9 104.2 103.2 116.3 105.3 116.5 105.35 116.75 105.4 117.6 104.25 118.15 103.65 119.8 101.9 121.55 101.75 122.95 101.65 124.1 102.6 125.25 103.6 125.4 104.95 125.5 105.6 125.4 106.3 130.35 106.55 135.6 106.2 134.9 105.65 134.25 105 132.35 103.15 131.6 100.85 130.75 98.3 131.85 96.3 132.65 94.8 134.4 94.15 136.1 93.55 137.7 94.1 138.65 94.45 139.7 95.3 139.8 95.4 141.5 96.95 146.55 101.6 154.55 104.05 159.65 105.6 167.2 106.5 167.2 106.2 167.25 105.95 167.45 104.8 168.5 104 169.45 103.25 170.65 103.3 172.35 103.5 173.9 105.4 174.2 105.8 175.05 107 175.15 107.15 175.25 107.25 187.1 108.15 196.4 107.4 204.75 106.75 216.25 104.4 218.8 103.8 220.15 104.25 221.45 103.35 222.6 103.7 223.6 103.95 224.1 105 224.15 105.05 224.2 105.15 225.7 105.1 227.05 106.25 228.65 107.65 228.7 109.65 228.7 113.15 224.15 115.85 223.95 115.95 223.8 116.1 224.75 116.15 226.35 116.2 228.05 116.35 228.95 117 230.1 117.75 230.45 119.25 230.85 120.75 230.35 122.1 229.35 124.75 226.2 125.65 223.8 126.25 220.65 125.55 218.55 125.1 215.35 123.7 208.2 138.9 205 158.4 205.45 159.45 205.7 160.25 206.9 164 206 168.4 205.3 172.25 203.1 176.15 203 176.35 202.9 176.55 202.8 177.6 202.75 178.7 202.6 181.2 202.45 182.65 203.2 183.9 203.7 185.45 205.5 191.35 204.1 197.9 202.75 204.1 198.85 209.35 197.95 210.55 196.95 211.75 198.05 211.7 199.3 212.35 199.6 212.5 201.9 213.95 205.85 216.55 211.25 217.55 215.55 218.4 221.4 218.35 237.65 218.2 249 212.65 255.65 209.4 260.6 204.25 264.3 200.45 266.6 196.15 263.3 196.95 259.8 196.45 253.25 195.55 249.8 190.75 246.3 185.8 246.8 177.4 247.15 172.6 248.8 166.8 249.8 163.45 252.3 156.55 258.25 140.2 260.6 130.4 264.05 115.65 262.95 103.45 262.5 97.9 260.5 89.2
M 240.75 181.65
Q 241.65 182.3 242.15 183.45 242.7 184.6 242.7 185.6 242.85 187.3 242.9 187.55 243.1 188 243.5 188.95 243.7 189.45 243.85 190.6 244.1 191.2 244.9 191.95 246.3 193.15 249.75 193.8 250.8 193.95 251.4 194.35 252.1 194.85 252.25 195.75 252.45 196.65 252 197.4 251.45 198.25 250.1 198.75 247.25 200.05 242.35 200.05 240.55 200.15 238.8 199.9 237.2 199.6 236.5 199.1 236.2 198.9 235.3 198.1 234.65 197.65 234.35 197.35 233.8 196.9 233.55 196.4 233.25 195.85 233.25 194.6
L 233.25 188.05
Q 233.25 186.75 233.45 186.1 233.8 185.25 234.45 184.25 235.45 182.95 236 182.35 237 181.4 238.05 181.15 239.4 180.75 240.75 181.65
M 145.4 21.95
Q 145.05 22.7 144.3 23.05 143.55 23.4 142.55 23.15 142.45 23.1 142.3 23.1 141.55 23.5 140.5 23.6 139.75 23.7 137.7 23.35 137.05 23.5 135.9 23.55 132.65 23.75 131.15 23.95 128.95 24.2 126.95 24.65
L 100.45 29.8
Q 99.1 30.1 98.3 29.8 97.75 29.65 97.45 29.15 97.05 28.65 97.25 28.1 97.35 27.75 97.7 27.5 97.95 26.85 98.8 25.85 104.8 19.5 114.4 17.1 121.95 15.2 132.4 15.95 135.2 16.15 137.1 16.45 139.8 17.05 142.4 17.95 145.1 18.85 145.5 20.4 145.75 21.15 145.4 21.95 Z"/>
</g>

<g id="vivi_0_Layer1_0_FILL">
<path fill="#CC99FF" stroke="none" d="
M 147.65 66.6
Q 147.65 65.15 147.3 64.35 146.75 63.1 145.6 63 145.2529296875 62.9841796875 144.85 63.15 144.584765625 61.9173828125 144.05 61.65 143.4 61.35 142.05 61.95 142.15 60.1 141.5 59.4 140.75 58.65 139.7 58.9 138.7 59.15 138.2 60.1 138.17578125 59.783984375 138.1 59.5 138.35 58.7328125 138.35 58.2 138.35 57.64609375 138.1 57.25 138.713671875 56.4591796875 138.75 56.35 139.3 55.15 138.55 54.45 138.0083984375 53.9083984375 137.2 54.05 137.4580078125 53.87109375 137.7 53.7 138.35 53.2 138.5 53 138.85 52.45 138.55 52.05 138.05 51.35 137 52.05 136.1 52.65 134.95 53.9 133.2 55.9 133.1 56 132.05 56.95 131.8 57.45 131.75 57.5 131.3 58.75 131.1 59.35 130.5 60.45 129.4 62.7 128.75 65.05 127.95 68 127.8 71.45 127.7 74.65 128.4 77.75
L 129.05 80.5
Q 129.3 81.5 129.4 81.7 129.8 82.4 130.4 82.35 131.15 82.35 131.6 81.05 132.25 79.1 132.5 77.05 132.6 75.8 133.05 75.45 133.4 75.2 134.3 75 135.376953125 74.657421875 136 73.2 136.056640625 73.456640625 136.2 73.6 136.65 74.15 137.3 73.75 137.6 73.65 138.15 72.95 139 71.75 139.5 70.4 140.45 71.5 141.95 71.35 143.45 71.2 144.1 69.9 144.6 70.5 145.5 70.4 146.35 70.3 146.9 69.65 147.65 68.65 147.65 66.6
M 224.45 181.8
Q 223.5 181.85 222.95 183.55 220.65 190.75 220.05 198.15 218.3 197.75 216.7 198.85 215.05 199.95 214.8 201.7 212.85 198.25 210.75 198.25 209.35 198.25 208.05 199.75 206.65 201.7 205.9 202.55 205.35 203.2 204.9 203.2 204.25 203.25 203.7 202.35 202.9 201.05 202.7 200.85 201.35 199.65 198.6 201.95 197.9 202.55 196.5 203.75 195.3 204.85 194.8 205.9 193.8 207.9 194.45 210.35 195 212.6 196.75 214.3 198.2 215.75 200.5 216.9 201.95 217.6 204.8 218.65 210.7 220.7 214.45 221.5 219.9 222.6 224.35 222 226 221.8 229 221.05 232.15 220.3 233.65 220.1 235.1 219.95 237.95 219.85 240.8 219.75 242.2 219.55 249.2 218.6 256.1 213.45 260.35 210.35 267.2 203 269.15 200.95 269.85 199.4 270.85 196.85 269.55 195.15 268 193.05 263.25 193.8
L 259.95 194.25
Q 257.75 194.55 256.65 194.05 255.6 193.5 254.75 191.95 253.9 189.6 253.35 188.5 252.45 186.6 251.05 186.2 249.95 185.9 248.75 186.5 247.65 187.1 247.05 188.2 246.2 189.75 246.1 192.9 246 196.35 245.4 197.65 244.7 199.35 243.05 200.35 241.4 201.3 239.6 201.2 238 200.95 237.2 200.8 235.75 200.6 234.85 200.95 234.55 200.35 234.35 199.25 234.1 197.85 234 197.5 233.7 196.6 233.05 196.05 232.25 195.4 231.45 195.65 230.1 196.1 230.2 198.45 230.25 199 230.35 200.15 230.4 201.1 230.05 201.7
L 226.15 183.9
Q 225.7 181.75 224.45 181.8
M 39.95 172.75
Q 39.5 172.25 38.75 172.2 38 172.15 37.65 172.7
L 36.45 162.1
Q 36.1 159.85 34.9 159.9 34.2 159.9 33.85 160.75 33.55 161.4 33.6 162.3 33.7 165 34.7 170.3 35.1419921875 172.9025390625 35.75 174.55 34.67265625 174.7130859375 33.85 175.5 33.2 176 32.85 176.85 32.55 177.55 32.2 178.95 31.45 181 28.8 182.15 27.9 182.55 26.55 182.9 25 183.25 24.2 183.45 23.26171875 183.6142578125 22.6 183.65 22.0818359375 182.5853515625 21.1 181.8 19.8 180.75 18.35 180.95 17.25 181.1 16.3 182 15.45 182.85 15.1 184.05 14.55 185.7 14.75 188.75 15.35 196.65 16.75 200.9 18.4 205.95 21.9 210.15 25.35 214.3 30.05 216.8 33.85 218.85 39.95 220.35 55.95 224.55 72.6 223.65 78.15 223.35 81.3 222.25 83.75 221.45 84.3 219.95 84.9 218.6 83.75 215.9
L 80.75 208.95
Q 80 207.4 79.35 207 78.25 206.45 76.95 207.3 75.95 207.95 75 209.3 74 207.15 71.35 206.8 68.7 206.4 67.15 208.2
L 64.65 200.75
Q 63.55 197.3 61.55 197.4 60.35 197.45 59 199.35
L 54.6 205.55
Q 51.65 197.9 50.35 190.3 49.95 187.95 49.3 187.1 48.8 186.4 47.95 186.1 47.05 185.8 46.35 186.2 45.7 186.55 45 188.25
L 42.5 195.7
Q 41.5 191.85 41.3 185.55 41.05 177.25 40.8 175.2 40.7 173.5 39.95 172.75 Z"/>

<path fill="#CCFFCC" stroke="none" d="
M 207.9 178.4
Q 207.7755859375 178.342578125 207.65 178.3 207.116015625 178.119140625 206.55 178.2 205.8 178.3 205.3 178.8 204.95 179.15 204.45 180.05
L 203.75 181.35
Q 203.35 182.15 203.35 183.3 203.3 183.85 203.55 184.55 203.95 185.35 204.75 185.65 205.6 185.95 206.4 185.65 207.35 185.25 207.95 184.15 208.5 182.85 208.8 182.15 209.15 181.05 209.2 180.7 209.2892578125 180.0751953125 208.95 179.5 208.94296875 179.419921875 208.9 179.35 208.55 178.7 207.9 178.4
M 251.15 61.75
Q 250.7 59.55 249.65 59.2 248.9 58.95 248.15 59.5 247.45 60 247.2 60.85 247 61.85 247.5 64.15 248 66.05 248.6 70.05
L 249.8 77.85
Q 249.15 77.9 248.7 78.4 248.2 78.9 248.15 79.55 248.15 79.8 248.2 80.25 248.15 80.65 247.95 80.85 247.3 80.65 246.85 80.85 246.15 81.15 246.3 81.8 246.4 82.35 247.45 82.65 247.92421875 82.7748046875 248.35 82.85 249.587109375 83.1375 250.3 83.1 250.9765625 83.0248046875 251.5 82.8 252.3630859375 82.448828125 252.8 81.7 253.15 83.85 255.5 90.4 257.35 95.75 257.25 99.15 257.15 100.75 258.05 100.75 258.45 100.8 258.7 100.3 258.9 99.9 258.9 99.35
L 259.05 96.45
Q 259.25 93.2 259.1 90.95 258.95 87.45 257.45 82.2 255.9 76.4 254.1 72.25 252.75 69.05 252.65 68.7 252.05 67.05 251.15 61.75
M 224.25 63.6
Q 223.9 64.4 224 66.15 224.15 69.85 223.8 74.45 222.55 74 221.2 74.15 221.2 73.5 220.6 73.1 220.05 72.7 219.3 72.65 217.5 72.85 216.65 72.6 216.45 71.3 215.2 70.35 214.6634765625 69.9353515625 214 69.65 213.368359375 69.4267578125 212.6 69.35 211.949609375 69.2734375 211.25 69.3 210.1921875 69.3603515625 209.05 69.7 209.0134765625 69.2984375 208.65 69.05 208.525390625 68.967578125 208.35 68.9 207.7 68.7 207.15 69 206.75 69.2 206.25 69.7 205.75 70.3 205.45 70.55 204.85 71.05 204.8 71.4 204.75 71.8 205.1 72.05 205.45 72.3 205.85 72.3 205.962109375 72.31875 206.1 72.3 206.3181640625 72.2939453125 206.6 72.2
L 207.35 72
Q 207.8 71.95 208.4 72 208.75 72.05 209.5 72.1 210.25 72.15 211.75 72.15 213 72.25 213.65 72.9 214.05 73.35 214.7 74.45 215.75 75.7 218.95 75.4 219.1 76.1 220 76.7 220.5 77 221.6 77.55 222.55 78.15 222.85 78.25 223.75 78.45 224.85 77.7 225.45 84.1 228.05 89.7 228.55 90.7 228.6 91.3 228.6 92.2 228.75 92.4 229 92.9 229.65 92.85 230.3 92.8 230.65 92.3 231.05 91.7 231.05 90.05 231 87.2 231.5 84.4 232.8 84.2 233.65 82.85 234.15 82.15 234.65 80.35 235.15 80.9 236.05 80.75 236.95 80.55 237.3 79.85 237.65 79.15 237.3 78.35 237 77.6 236.3 77.2 234.75 76.45 233.35 77.6 233.15 77.1 232.95 75.2 232.8 73.7 232.15 73 231.5 72.3 230.45 72.3 229.35 72.35 228.75 73.1 228.15 69.6 228.15 65.95 228.15 64.35 227.9 63.6 227.35 62.2 226.2 62.1 225.55 62.05 225 62.5 224.5 62.95 224.25 63.6
M 105 70.45
Q 103.7 70.45 103.3 70.2 102.6 69.65 102.2 69.4 101.7 69.1 100.15 69.1 98.8 69.1 98.3 68.55 98.1 68.35 97.9 67.95 97.7 67.45 97.55 67.3 97.05 66.45 95.95 66.35 94.9 66.25 94 66.85 93.45 67.2 93.2 67.05 93.1 67 92.9 66.7 92.55 65 92.35 64.15 92.05 62.6 91.15 62 90.1 61.3 88.9 61.8 87.8 62.3 87.3 63.45 86.95 64.2 86.7 64.25 86.6 64.3 86 64.3 85.15 64.2 84.55 65 84.25 65.45 84.15 66.55 84 67.65 83.75 68.1 83.2 68.8 82.95 69.15 82.45 69.95 82.8 70.4 82.9 70.6 83.2 70.9 83.3 71.1 83.2 71.75 82.9 73 83.8 74 84.6 75.05 85.95 74.95 87.45 74.8 88.5 73.35 89.1 72.6 89.85 70.6 90.85 71.85 92.5 71.75 94.1 71.6 94.9 70.2
L 95.35 70.2
Q 96 71.4 97.75 71.85 98.75 72.05 100.75 71.85
L 102.85 71.7
Q 105.184375 71.4970703125 106.7 71.55 107.41640625 71.6029296875 107.95 71.7 108.95 71.9 109.35 71.8 109.75 71.7 110 71.45 110.25 71.15 110.15 70.8 110.1 70.35 109.45 70.15 109.1 70.05 108.45 70.15
L 106.35 70.3 105 70.45
M 35.2 71.85
Q 34.2 72 33.55 73.8 31.5 79.8 30.4 87.6 29.7 92.45 28.95 101.75
L 28.5 107.15
Q 28.3 109.15 28.55 110.1 28.9 111.85 30.2 112.4 31.2 112.85 32.3 112.4 33.4 111.95 34.05 111 34.95 109.8 35.45 106.85 37.15 96.6 39.5 88.05 40 89.05 41.1 89.55 42.15 90 43.25 89.8 45.3 89.45 46.7 87.35 47.55 86.15 48.55 83.35
L 51.7 84.5
Q 50.8 88.55 50.6 92.1 50.4 95.1 51.85 96.05 52.6 96.55 53.65 96.35 54.6 96.15 55.35 95.45 56.2 94.65 57.25 92.2
L 59.65 86.15
Q 61.15 86.6 62.55 85.3 63.3 84.65 64.25 82.65 65.05 80.85 65.8 78.6 66.15 77.5 66.4 77.15 66.8 76.65 68.45 75.9 69.8 75.3 70.05 74.45 69.95 74 69.4 73.9 68.95 73.75 68.4 73.9
L 62.4 75.1
Q 62.15 73.95 61 73.35 59.85 72.7 58.75 73.05 58.7 72.4 58.85 71.45 59.05 70.15 59.05 69.8 59.05 68.95 58.65 68.2 58.25 67.4 57.5 67.2 56.9 67.05 56.25 67.4 55.65 67.7 55.3 68.3 54.8 69.05 54.5 70.8 53.55 76.05 51.55 81.05 50.85 82.55 50 82.25 50.35 81.65 49.7 81.05 49.1 80.5 48.35 80.65 47.4 80.85 46.15 82.5 44.95 84 43.8 84 43.4 83.3 42.8 80.7 42.35 78.55 41.35 77.75 40.45 77.05 39.1 77.1 37.85 77.2 36.8 77.95 36.6 77.25 36.75 76.2 37 75 37.05 74.4 37.1 73.4 36.6 72.6 36 71.75 35.2 71.85
M 79.15 185.1
Q 79 185.25 78.55 185.45 78.25 185.65 78.25 185.9 78.2 186.05 78.45 186.5
L 78.7 187.2
Q 79.05 188.05 79.95 188.2 79.9 189.35 80.5 190.35 81.2 191.55 82.2 191.4 83.15 191.25 83.35 190.05 83.45 189.4 83.15 188.2
L 82.45 185.5
Q 82.25 184.6 82 184.3 81.65 183.65 80.95 183.65 80.3 183.75 79.95 184.1 79.65 184.4 79.15 185.1 Z"/>

<path fill="#66CCFF" stroke="none" d="
M 200.15 169.65
L 199.75 172.65
Q 199.15 177.05 198.65 179.3 198.25 181 198.3 181.9 198.3 183.45 199.35 184.25 199.9 184.65 200.6 184.6 201.3 184.5 201.7 184 201.9 185.8 201.9 188 201.8 189.95 201.95 190.9 202.2 192.55 203.25 193.45 204.1 194.15 205.3 194.05 206.5 193.9 207.25 193.1 208 192.2 208.3 189.95
L 208.65 187.6
Q 209.3 187.95 210.15 187.9 210.95 187.85 211.55 187.4 212.15 186.9 212.4 186.15 212.7 185.35 212.5 184.6 211.75 183.2 211.4 182.45 211.1 181.3 210.8 180.75 210.2 179.75 209.05 179.5 209.014453125 179.4953125 208.95 179.5 209.2892578125 180.0751953125 209.2 180.7 209.15 181.05 208.8 182.15 208.5 182.85 207.95 184.15 207.35 185.25 206.4 185.65 205.6 185.95 204.75 185.65 203.95 185.35 203.55 184.55 203.3 183.85 203.35 183.3 203.35 182.15 203.75 181.35
L 204.45 180.05
Q 204.95 179.15 205.3 178.8 205.8 178.3 206.55 178.2 207.116015625 178.119140625 207.65 178.3 207.6197265625 177.9935546875 207.65 177.6 207.95 173 207.1 168.4 206.9 167.4 206.7 166.85 205.9 165.3 204.2 165.05 202.45 164.8 201.3 166.15 200.45 167.15 200.15 169.65
M 249.65 59.2
Q 250.7 59.55 251.15 61.75 252.05 67.05 252.65 68.7 252.75 69.05 254.1 72.25 255.9 76.4 257.45 82.2 258.95 87.45 259.1 90.95 259.25 93.2 259.05 96.45
L 258.9 99.35
Q 258.9 99.9 258.7 100.3 258.45 100.8 258.05 100.75 257.15 100.75 257.25 99.15 257.35 95.75 255.5 90.4 253.15 83.85 252.8 81.7 252.3630859375 82.448828125 251.5 82.8 252.3515625 87.2431640625 253.05 91.7 254.1 98.35 254.35 105.1 254.6 111.6 256.8 117.5 258.85 115.75 258.85 112.9
L 261.05 121.5 262.25 122.2
Q 262.75 122.2 262.95 121.6 263.3 120.45 263.7 119.4 264.65 116.7 264.45 113.9 263.9 106.6 263.2 99.3 263 97.4 262.6 95.5 260.95 87.4 258.75 79.3 257.4 74.4 256.45 69.45 256.15 68.05 255.65 66.8 252.35 58.1 246.45 50.75 245.5 49.55 244.9 48.1 243.9 45.4 241.25 45.7
L 240.15 46.85
Q 240.4 51.6 242.45 55.75 247.8 66.65 246.2 78.65
L 245.05 78.45
Q 243.65 74.05 239.05 74.9 238.4 74.35 238.5 73.5 238.6 72.4 238.05 71.7 234.95 68.05 232.9 63.65 231.9 61.45 230.7 59.4 229.45 57.35 229.05 55 228.75 53.25 226.95 52.85 223.35 52.85 223.8 56.4 222.05 55.9 220.65 56.9 219.8 57.5 219.7 58.45 218.95 63.75 219.15 69.4 218.25 68.95 217.3 68.85 215.1251953125 68.4771484375 214 69.65 214.6634765625 69.9353515625 215.2 70.35 216.45 71.3 216.65 72.6 217.5 72.85 219.3 72.65 220.05 72.7 220.6 73.1 221.2 73.5 221.2 74.15 222.55 74 223.8 74.45 224.15 69.85 224 66.15 223.9 64.4 224.25 63.6 224.5 62.95 225 62.5 225.55 62.05 226.2 62.1 227.35 62.2 227.9 63.6 228.15 64.35 228.15 65.95 228.15 69.6 228.75 73.1 229.35 72.35 230.45 72.3 231.5 72.3 232.15 73 232.8 73.7 232.95 75.2 233.15 77.1 233.35 77.6 234.75 76.45 236.3 77.2 237 77.6 237.3 78.35 237.65 79.15 237.3 79.85 236.95 80.55 236.05 80.75 235.15 80.9 234.65 80.35 234.15 82.15 233.65 82.85 232.8 84.2 231.5 84.4 231 87.2 231.05 90.05 231.05 91.7 230.65 92.3 230.3 92.8 229.65 92.85 229 92.9 228.75 92.4 228.6 92.2 228.6 91.3 228.55 90.7 228.05 89.7 225.45 84.1 224.85 77.7 223.75 78.45 222.85 78.25 222.55 78.15 221.6 77.55 220.5 77 220 76.7 219.1 76.1 218.95 75.4 215.75 75.7 214.7 74.45 214.05 73.35 213.65 72.9 213 72.25 211.75 72.15 210.25 72.15 209.5 72.1 208.75 72.05 208.4 72 207.8 71.95 207.35 72
L 206.6 72.2
Q 206.3181640625 72.2939453125 206.1 72.3 205.95625 72.8654296875 205.9 73.5 205.6 76.75 208.55 76.7 209 77.05 209.45 77.45 212.55 80.45 215.45 77.35 215.95 78.8 216.15 80.15 216.45 81.9 217.5 83.2 219.55 85.95 222.05 83.85 222.35 84.2 222.5 84.65 223.85 89.7 224.6 94.7 225.2 98.55 228.7 98.95 228.9 100.15 229 101.4 229.2 103.85 230.7 105.85 231.7 107.1 233.3 106.7 234.7 106.35 235.2 104.9 238 96.55 237.45 87.85
L 241.05 86.55
Q 241.95 88.05 243.65 88.45 246.85 88.25 247.35 85.25
L 246.85 82.95
Q 247.4 83 248 83.05 248.1833984375 82.971484375 248.35 82.85 247.92421875 82.7748046875 247.45 82.65 246.4 82.35 246.3 81.8 246.15 81.15 246.85 80.85 247.3 80.65 247.95 80.85 248.15 80.65 248.2 80.25 248.15 79.8 248.15 79.55 248.2 78.9 248.7 78.4 249.15 77.9 249.8 77.85
L 248.6 70.05
Q 248 66.05 247.5 64.15 247 61.85 247.2 60.85 247.45 60 248.15 59.5 248.9 58.95 249.65 59.2
M 211.25 69.3
L 210.75 68.6
Q 210.25 68.5 209.8 68.65 209.1796875 68.8072265625 208.65 69.05 209.0134765625 69.2984375 209.05 69.7 210.1921875 69.3603515625 211.25 69.3
M 103.3 70.2
Q 103.7 70.45 105 70.45
L 106.35 70.3
Q 106.216796875 69.855078125 106 69.4 105.65 68.55 105 68.05 102.9 66.35 100 66.75 100 65.2 99.45 63.7 99 62.35 97.95 61.8 95.1 60.35 92.95 63.05 92.65 59.05 92.2 55.3 91.95 53.05 90 52.65 87.6 52.7 86.35 54.65 82.35 60.85 76.8 65.65 76.5 65.7 76.2 65.75 75.7 65.95 75.4 66.35 73.7 68.7 71.2 70.05 70.6 69.9 70.1 70 65.95 71 63.75 74.45 63.85 66.5 65.65 58.8 66.35 55.65 63.9 54.4 63.7 54.45 63.6 54.6 61.8 56.5 61.5 59.25
L 60.25 55.75 59.4 56 58.8 57.45 56.7 58.2 55.15 57.4
Q 53 58.65 53.25 61.5 53.75 66.65 50.65 70.6 50 71.45 49.2 72.15 47.35 73.95 46.25 76.1
L 42.8 78.65
Q 43.3 70.55 44.8 62.7 45.3 60.25 43.4 58.7
L 43.6 57.55
Q 43.65 57.1 43.6 56.75 43.6 56.85 43.45 57
L 41.05 58.85
Q 34.45 66.95 28.85 75.95 27.7 77.8 27.4 79.85 25.9 89.3 24.4 98.85 23.8 102.5 23 106.25 21.8 111.7 26.9 113.55 26.1 117.05 25.55 120.35 24.8 124.95 24.7 129.5 24.65 132.55 27.45 132.9 28.45 132.7 28.8 132 29.35 130.85 29.3 129.65
L 30.2 133.1 31.45 133.25
Q 32 132.85 32.1 132.25 33.55 123.4 34.15 114.6 35.65 114.2 35.95 112.45 37.05 106.45 39.7 101.1 40.05 101.2 40.45 101.35 41 101.1 41.25 100.7 43.75 97.3 45.4 93.4
L 46.3 94.4
Q 47.4 98.85 48.2 103.35 48.35 104.2 48.95 105.05 49.25 105.4 49.7 105.75 52.15 107.4 54.05 105.15
L 55.75 107.75 56.55 107.4
Q 58.1 103.65 58.3 99.35 58.6 94 61.55 89.85 61.95 90.3 62.4 90.65 63.3 91.3 64.1 90.85 64.55 90.6 64.7 90.15 66.5 85.15 67.8 80.2 70.8 79.55 71.95 76.65 72.2 76.05 72.7 75.8 75.35 75.5 77.1 74.15
L 79.25 76.35
Q 79.65 80.65 80.15 85 80.35 86.7 81.9 87.15 82.15 87.1 82.35 87 83 86.7 83.6 86.25 84.15 85.8 84.55 85.15 85.75 83.5 86.25 81.45
L 90.9 74.5
Q 91.9 75.1 92.65 76.15 93.75 77.65 95.6 78.2 97.55 78.65 98.85 77.1 99.3 76.6 99.9 76.3 102.65 74.75 104.55 72.75 105.05 72.7 105.6 72.7 106.15 72.55 106.3 72.25 106.5 71.95 106.7 71.6
L 106.7 71.55
Q 105.184375 71.4970703125 102.85 71.7
L 100.75 71.85
Q 98.75 72.05 97.75 71.85 96 71.4 95.35 70.2
L 94.9 70.2
Q 94.1 71.6 92.5 71.75 90.85 71.85 89.85 70.6 89.1 72.6 88.5 73.35 87.45 74.8 85.95 74.95 84.6 75.05 83.8 74 82.9 73 83.2 71.75 83.3 71.1 83.2 70.9 82.9 70.6 82.8 70.4 82.45 69.95 82.95 69.15 83.2 68.8 83.75 68.1 84 67.65 84.15 66.55 84.25 65.45 84.55 65 85.15 64.2 86 64.3 86.6 64.3 86.7 64.25 86.95 64.2 87.3 63.45 87.8 62.3 88.9 61.8 90.1 61.3 91.15 62 92.05 62.6 92.35 64.15 92.55 65 92.9 66.7 93.1 67 93.2 67.05 93.45 67.2 94 66.85 94.9 66.25 95.95 66.35 97.05 66.45 97.55 67.3 97.7 67.45 97.9 67.95 98.1 68.35 98.3 68.55 98.8 69.1 100.15 69.1 101.7 69.1 102.2 69.4 102.6 69.65 103.3 70.2
M 33.55 73.8
Q 34.2 72 35.2 71.85 36 71.75 36.6 72.6 37.1 73.4 37.05 74.4 37 75 36.75 76.2 36.6 77.25 36.8 77.95 37.85 77.2 39.1 77.1 40.45 77.05 41.35 77.75 42.35 78.55 42.8 80.7 43.4 83.3 43.8 84 44.95 84 46.15 82.5 47.4 80.85 48.35 80.65 49.1 80.5 49.7 81.05 50.35 81.65 50 82.25 50.85 82.55 51.55 81.05 53.55 76.05 54.5 70.8 54.8 69.05 55.3 68.3 55.65 67.7 56.25 67.4 56.9 67.05 57.5 67.2 58.25 67.4 58.65 68.2 59.05 68.95 59.05 69.8 59.05 70.15 58.85 71.45 58.7 72.4 58.75 73.05 59.85 72.7 61 73.35 62.15 73.95 62.4 75.1
L 68.4 73.9
Q 68.95 73.75 69.4 73.9 69.95 74 70.05 74.45 69.8 75.3 68.45 75.9 66.8 76.65 66.4 77.15 66.15 77.5 65.8 78.6 65.05 80.85 64.25 82.65 63.3 84.65 62.55 85.3 61.15 86.6 59.65 86.15
L 57.25 92.2
Q 56.2 94.65 55.35 95.45 54.6 96.15 53.65 96.35 52.6 96.55 51.85 96.05 50.4 95.1 50.6 92.1 50.8 88.55 51.7 84.5
L 48.55 83.35
Q 47.55 86.15 46.7 87.35 45.3 89.45 43.25 89.8 42.15 90 41.1 89.55 40 89.05 39.5 88.05 37.15 96.6 35.45 106.85 34.95 109.8 34.05 111 33.4 111.95 32.3 112.4 31.2 112.85 30.2 112.4 28.9 111.85 28.55 110.1 28.3 109.15 28.5 107.15
L 28.95 101.75
Q 29.7 92.45 30.4 87.6 31.5 79.8 33.55 73.8
M 72.3 175.6
Q 72.15 175.95 72.05 177.4 71.85 181.45 70.95 185.95 70.1 186.15 69.85 186.5 69.5 187 69.75 187.8 69.9 188.45 70.2 189.7 70.25 190 70.2 190.75 70.1 191.45 70.2 191.8 70.45 192.65 71.35 193 72.25 193.35 73 192.85 73.1 193.3 73.1 194.45 73.15 195.45 73.3 196 73.65 197.1 74.65 197.75 75.65 198.35 76.8 198.25 77.9 198.15 78.75 197.35 79.65 196.55 79.9 195.45 80.15 195.45 80.85 196.05 81.65 196.8 82.9 196.8 84.15 196.75 85.05 196.05 85.95 195.35 86.3 194.2 86.6 193.05 86.35 191.9
L 85.75 190.05
Q 85.65 189.65 85.4 187.9 84.9 183.75 84.05 180.75 83.8 179.75 83.3 178.85 82.1 176.95 79.5 176.95 78.9 176.95 78.75 176.8 78.65 176.7 78.5 176.2 78.3 175.15 77.5 174.4 76.65 173.6 75.6 173.5 74.55 173.4 73.6 174 72.65 174.6 72.3 175.6
M 78.55 185.45
Q 79 185.25 79.15 185.1 79.65 184.4 79.95 184.1 80.3 183.75 80.95 183.65 81.65 183.65 82 184.3 82.25 184.6 82.45 185.5
L 83.15 188.2
Q 83.45 189.4 83.35 190.05 83.15 191.25 82.2 191.4 81.2 191.55 80.5 190.35 79.9 189.35 79.95 188.2 79.05 188.05 78.7 187.2
L 78.45 186.5
Q 78.2 186.05 78.25 185.9 78.25 185.65 78.55 185.45 Z"/>
</g>

<g id="vivi_0_Layer0_0_FILL">
<path fill="#330066" stroke="none" d="
M 274.95 23.15
Q 273.751171875 20.2498046875 272.5 17.95 270.5158203125 14.3158203125 268.4 12.2 265.4197265625 9.2197265625 260.3 7.05 259.3513671875 6.63515625 258.3 6.25 242.4 0.2 224.3 3.25 217.0490234375 4.5037109375 210.25 7.05 200.82734375 10.596484375 192.3 16.65 191.15 17.4 190.55 18.3 181.25 17.2 171.2 17.6 170.45 17.65 169.9 17.8 169.2 16.25 166.75 14.9 157.4 9.55 144.6 8.35 134.65 7.4 121 8.9 102.35 11.05 89.75 15.95 89.15 16.2 88.5 16.45 87.95 15.65 86.55 14.85 78.9982421875 10.412109375 71.05 7.25 57.6853515625 2.0177734375 43.2 0.45 35.3 -0.45 29.7 0.55 19.75 2.3 11.95 10.25 4.5 17.95 1.65 28.35 -1 38.15 0.6 49.15 2.05 59.35 6.9 69.25 8.05 71.5 10.4 75.95 12.4 79.95 13.3 82.95 14.65 87.25 14.95 93.5 15.15 97.1 15.25 104.35 15.35 107.15 16.1 108.55 16.55 109.55 17.4 110.15 16.75 118.7 17.35 126.95 18.4 141.8 23.35 154.45 24.2189453125 156.782421875 26.05 161.15 26.2208984375 161.5734375 26.4 162 28.15 166.4 28.8 169.7 29.5 173.35 28.85 175.6 28.45 177.1 27.5 178.25 26.83515625 179.009765625 26.05 179.45 25.5953125 179.7349609375 25.1 179.9 23.2 180.4 20.9 179.3 19.5 178.65 17.1 176.85 14.55 174.85 12.9 175.5 11 176.25 10.7 180.2 10.25 186.25 10.25 189.15 10.3 194.1 11.3 197.95 12.5 202.55 15.25 207.3 18.95 213.7 23.85 217.65 24.9427734375 218.5126953125 26.05 219.2 30.279296875 221.8830078125 34.7 222.15 37.6349609375 223.5625 42.2 224.6 55.05 227.65 68.2 227.7 76.7 227.7 81.5 226 83.75 225.25 84.65 224.1 85.3498046875 223.1927734375 85.45 222.2 86.014453125 222.701953125 86.55 223.25 87.8560546875 224.4923828125 88.55 225.7 89.1103515625 225.6388671875 89.55 225.5 93.3 228.25 97.9 230.1 105.15 233.1 113.4 233.6 118.85 233.9 122.25 232.55 124.4 231.7 125.95 230.05 127.65 228.3 128.15 226.15 128.2 225.7 128.15 225.35 132.6 226.6 137 227.35 147.65 229.2 158.15 228.3 169.1 227.45 178.8 223.6 186.5654296875 220.626953125 192.1 216.2 193.9115234375 217.115234375 197.85 218.95 206.9154296875 223.13515625 216.8 224 226.6947265625 224.8548828125 236.4 223.1 250.15 220.6 259.85 213.65 264.9671875 209.9328125 268.75 205.05 268.9154296875 204.87578125 269.05 204.7 271.0408203125 202.0701171875 272.5 199.25 274.009375 196.3513671875 274.95 193.25 275.5 191.2 275.4 189.9 275.15 187.8 273.55 187.25 273.065625 187.0505859375 272.5 187.1 272.0732421875 187.1279296875 271.6 187.3
L 271.6 187.35
Q 270.65 187.4 269.75 187.9 269.1 188.3 268 189.2 266.85 190.1 266.2 190.45 264 191.65 261.2 191.05 258.55 190.45 256.7 188.5 253.3 184.85 253.55 178.6 253.7 174.65 255.9 168.25 256.25 167.1 261.35 152.8 264.6 143.55 266.4 137.3 271.6 119.1 270.25 105 269.7 98.85 267.35 89.55 265.9 83.8 264.3 78.75 266 72.5 270.45 61.55 271.561328125 58.7998046875 272.5 56.35 272.65234375 55.9408203125 272.8 55.55 275.804296875 47.604296875 276.95 42.8 278.35 36.65 277.85 32.45 277.5 29 274.95 23.15
M 254.5 13.8
Q 259.55 15.65 262.5 18.6 265.15 21.3 267.25 26.4 269.4 31.25 269.45 35.05 269.5 37.35 268.85 40.1 268.45 41.85 267.35 45.1
L 259.9 67.05
Q 257.122265625 60.8181640625 253.8 55.55 252.474609375 53.4212890625 251.05 51.45 244.5 42.4 235.15 35.35 226.15 28.65 215.4 24.4 207.1 21.15 198.15 19.5 201.65 17.3 203.75 16.2 208.35 13.75 212.3 12.55 217.65 11 227.1 10.65 235.3 10.35 241 10.9 248.6 11.6 254.5 13.8
M 215.8 109.55
Q 215.75 109.55 215.75 109.65 209.2 113.2 201.35 114.1 191.7 115.25 182.6 112.2 183.55 112.15 184.4 112.15 200.1 111.9 215.8 109.55
M 195.1 156.5
Q 195.75 157 196.45 158.05 198.1 160.5 198.65 162.6 198.85 163.3 199 163.95 198.55 166.6 198.2 169.2 198.05 169.5 197.9 169.85 196.45 172.95 195.4 174.35 192.4 178.45 187.15 179.35 185.6 179.65 182.4 179.55 180.65 179.55 179.3 179.35 177.1 179.1 176.05 178.15 175.55 177.65 174.85 176.55
L 173.75 174.8
Q 173.3 174.05 173.25 173.6 173.15 173.2 173.5 172.25 174.5 169.8 176.5 166.95 180 161.7 183.2 159.25 187.8 155.65 192.55 155.8 194.1 155.8 195.1 156.5
M 166.5 177.55
Q 167 177.15 167.35 176.85 167.35 177.05 167.35 177.25 167.6 181.8 170.6 184.5 173.45 187.05 179.1 187.6 180.05 187.7 180.95 187.75 180.1 187.8 179.25 187.85 178.05 187.85 177.45 187.9 176.4 187.9 175.65 188.05 174.85 188.2 173.5 188.7 172.55 188.05 170.5 187.7
L 156.5 184.95 166.5 177.55
M 77.4 111.25
L 78.45 109.85
Q 79.15 108.95 80 107.6 81.7 104.8 82.75 102.1 83.4 100.5 83.8 99.05 87.6 101 93.1 103.5 100 106.6 103.45 107.55 106.2 108.35 110.45 109.05 111.7 109.25 112.9 109.45 110.65 111.05 107.55 112.25 101.1 114.9 94.05 115.1 86.95 115.3 80.35 112.95 78.4 112.25 77.35 111.45
L 77.4 111.25
M 101.25 163.6
Q 102.55 163.6 103.2 163.7 104.25 163.95 105.75 164.8 110.2 167.45 112.05 170.95 113.3 173.35 113.8 177.15 113.9 177.95 113.95 178.55 113.95 179.1 113.9 179.45
L 113.9 179.5
Q 113.8 181.15 112.45 183.8 111.15 186.25 109.9 187.3 108.1 188.75 105.5 189.1 103.35 189.3 100.75 188.8 98.05 188.4 96.45 187.4 95.75 186.95 95.3 186.45 95.2 186.35 95.15 186.3 94.75 185.8 93.75 183.9 93.3 183.05 92.9 182.55 92.75 182.2 92.45 181.9 92.25 181.75 92.1 181.65 91.4 181.15 91.2 180.9 90.65 180.3 90.65 178.55 90.85 174.1 91.9 171.55 92.4 170.25 93.35 168.9 94.4 167.3 95.9 165.7 97.2 164.35 98.25 163.95 99.2 163.6 101.25 163.6
M 165.05 191.15
Q 168.05 192.4 169.85 192.9 171.65 193.35 172.6 193.2 173 193.2 173.25 193.05 176.05 195.45 180.15 195.5 182.05 195.5 183.8 195.1 186.4 194.65 188.4 193.65 189.75 192.95 192.1 191.05 194.5 189.3 195.45 187.95 196.1 187.15 196.35 186.4 196.65 187.4 197.05 188.65 198.1 192.9 196.95 197.5 195.982421875 201.50859375 193.6 205.05 193.4119140625 205.3517578125 193.2 205.65 188.6 211.95 179.35 216.4 164.25 223.6 146 222.1 129.7 220.7 113.35 212.35 108.15 209.65 104.65 207.05 103.35 206.0712890625 102.2 205.05 99.411328125 202.575390625 97.5 199.85 95.85 197.55 95.8 195.75 95.8 195.3 95.95 194.6 96.65 194.85 97.25 195.05 100.8 196.2 104.6 195.9 108.35 195.65 111.75 194.05 114.25 192.9 115.6 191.35 116.2 190.65 117.5 188.4 118.9 185.75 119.45 184.45 119.5 184.3 119.6 184.15 125.9 185.85 139.85 186.4 145.2 186.65 149.5 187.1 150.45 187.8 151.75 187.65 152.05 187.6 152.4 187.55 157.05 188.25 160.3 189.3 161.6 189.75 165.05 191.15
M 66.85 13.75
Q 68.5298828125 14.2978515625 71.05 15.2 75.43046875 16.747265625 82.35 19.35 76.083984375 22.56484375 71.05 26.7 66.8451171875 30.15390625 63.5 34.25 61.7662109375 36.2873046875 61.95 37.75 61.353515625 38.603515625 61.1 39.2 54.66953125 42.4265625 48.3 48 44.69140625 51.161328125 40.65 55.55 37.895703125 58.519140625 34.95 62.05 29.45 68.6 26.75 73.3 26.393359375 73.9224609375 26.05 74.55 23.5521484375 79.266015625 21.75 85.2 21.15 82.6 20.35 80.25 19.45 77.5 17.55 73.55 14.55 67.1 14.45 66.95 11.1 59.25 9.9 51.55 8.6 43.15 10.05 35.6 11.6 27.5 16.35 21 21.4 14.15 28.45 11.15 37.25 7.45 50.55 9.65 57.85 10.85 66.85 13.75
M 124.95 224.4
Q 124.3 224.4 123.75 224.45 122.55 224.55 120.4 224.9 118 225.25 117.05 225.35 111.45 225.9 105.4 224.05 99.9 222.3 94.75 218.75 89.25 215 87.45 210.8 86.2880859375 208.185546875 86.2 205.05 86.16640625 203.3287109375 86.45 201.45 86.5 200.75 86.7 200 86.9 200.4 87.05 200.85 88.1248046875 203.0341796875 89.9 205.05 90.71484375 205.94140625 91.65 206.8 93.95 208.85 97.75 211.35 111.2 220.05 124.95 224.4
M 247.55 55.55
Q 249.5251953125 58.378125 251.15 61.4 254.35 67.25 256.8 74.9 256.9 75.25 257.05 75.6
L 256.7 76.45
Q 256.6 76.9 256.5 77.25 256.7 77.6 256.95 77.95
L 259.2 81.5
Q 260.5 83.65 260.5 84.85 260.5 85.7 259.95 86.75 260.25 87.95 260.5 89.2 262.5 97.9 262.95 103.45 264.05 115.65 260.6 130.4 258.25 140.2 252.3 156.55 249.8 163.45 248.8 166.8 247.15 172.6 246.8 177.4 246.3 185.8 249.8 190.75 253.25 195.55 259.8 196.45 263.3 196.95 266.6 196.15 264.3 200.45 260.6 204.25 260.209765625 204.6560546875 259.8 205.05 255.12578125 209.65625 249 212.65 237.65 218.2 221.4 218.35 215.55 218.4 211.25 217.55 205.85 216.55 201.9 213.95 199.6 212.5 199.3 212.35 198.05 211.7 196.95 211.75 197.95 210.55 198.85 209.35 200.3919921875 207.27421875 201.5 205.05 203.2837890625 201.6486328125 204.1 197.9 205.5 191.35 203.7 185.45 203.2 183.9 202.45 182.65 202.6 181.2 202.75 178.7 202.8 177.6 202.9 176.55 203 176.35 203.1 176.15 205.3 172.25 206 168.4 206.9 164 205.7 160.25 205.45 159.45 205 158.4 208.2 138.9 215.35 123.7 218.55 125.1 220.65 125.55 223.8 126.25 226.2 125.65 229.35 124.75 230.35 122.1 230.85 120.75 230.45 119.25 230.1 117.75 228.95 117 228.05 116.35 226.35 116.2 224.75 116.15 223.8 116.1 223.95 115.95 224.15 115.85 228.7 113.15 228.7 109.65 228.65 107.65 227.05 106.25 225.7 105.1 224.2 105.15 224.15 105.05 224.1 105 223.6 103.95 222.6 103.7 221.45 103.35 220.15 104.25 218.8 103.8 216.25 104.4 204.75 106.75 196.4 107.4 187.1 108.15 175.25 107.25 175.15 107.15 175.05 107 174.2 105.8 173.9 105.4 172.35 103.5 170.65 103.3 169.45 103.25 168.5 104 167.45 104.8 167.25 105.95 167.2 106.2 167.2 106.5 159.65 105.6 154.55 104.05 147.836328125 101.9939453125 143.2 98.35 143.2 98.5625 143.2 98.7 143.2 98.9 143.2 99.1 143.2 99.3 143.2 99.45 143.2 99.65 143.2 99.85 143.2 100.05 143.2 100.2 143.2 100.4 143.2 100.6 143.2 100.8 143.2 100.95 143.2 101.15 143.2 101.35 143.2 101.55 143.2 101.7 143.2 101.9 143.2 102.1 143.2 102.3 143.2 102.45 143.2 102.65 143.2 102.85 143.2 103.05 143.2 103.2 143.2 103.4 143.2 103.6 143.2 103.8 143.2 103.95 143.2 104.15 143.2 104.35 143.2 104.55 143.2 104.7 143.2 104.9 143.2 105.1 143.2 105.3 143.2 105.45 143.2 105.65 143.2 105.85 143.2 106.05 143.2 106.2 143.2 106.4 143.2 106.6 143.2 106.8 143.2 106.95 143.2 107.15 143.2 107.35 143.2 107.55 143.2 107.7 143.2 107.9 143.2 108.1 143.2 108.3 143.2 108.45 143.2 108.65 143.2 108.85 143.2 109.05 143.2 109.2 143.2 109.4 143.2 109.6 143.2 109.7205078125 143.2 109.8 146.6765625 110.817578125 151.55 111.3 155.8 111.75 161.35 111.9 163.7 112 170.1 112.1 173.25 115.75 177.15 117.75 179.85 119.15 183.05 119.95 190.85 122.1 199.2 122 205 121.9 210.7 120.75 210.75 120.8 210.75 120.85 208.1 128.05 205.45 137 203 145.1 201.3 152.45 200.55 151.6 199.75 150.95 197.05 148.8 193.3 148.5 189.8 148.2 186.35 149.5 184.2 150.3 182.1 151.65 176.4 155.35 171.45 163.35 169.25 166.7 168.4 169.45 168.1 170.6 167.8 171.9 166.95 171.3 165.85 171.45
L 164.45 172.05 158.4 175.3
Q 154.55 177.5 150.9 180 148.45 181.65 148 183.2 148 183.25 148 183.3 143.7 182.4 141.3 181.9 131.35 179.8 120.5 176.85 120.45 176.15 120.35 175.5 119.65 171.1 118.1 167.75 115.4 161.9 109.95 158.45 106.9 156.5 103.55 155.9 103 155.8 102.45 155.75 98.15 155.25 94.75 157.05 92.4 158.3 90.15 160.75 87.7 163.3 86.15 166 85.8 151.3 82.85 136.8
L 82.2 133.75
Q 83.3 134.8 84.75 134.85 86.25 135 87.55 134 88.85 133.1 89.2 131.6 89.6 130.1 88.95 128.6 88.25 127.1 86.9 126.5 85.55 125.85 84 126.25 82.45 126.7 81.55 127.9 81.3 128.3 81.1 128.8 80.35 125.45 79.8 123.25 92.25 124.7 102.45 122.15 115.05 119 122.95 110.4 126.1 110.5 131.2 110.5
L 139.65 110.4
Q 140.85703125 110.4 141.7 110.2 141.7 110.1666015625 141.7 110.1 141.7 109.9 141.7 109.7 141.7 109.55 141.7 109.35 141.7 109.15 141.7 108.95 141.7 108.8 141.7 108.6 141.7 108.4 141.7 108.2 141.7 108.05 141.7 107.85 141.7 107.65 141.7 107.45 141.7 107.3 141.7 107.1 141.7 106.9 141.7 106.7 141.7 106.55 141.7 106.35 141.7 106.15 141.7 105.95 141.7 105.8 141.7 105.6 141.7 105.4 141.7 105.2 141.7 105.05 141.7 104.85 141.7 104.65 141.7 104.45 141.7 104.3 141.7 104.1 141.7 103.9 141.7 103.7 141.7 103.55 141.7 103.35 141.7 103.15 141.7 102.95 141.7 102.8 141.7 102.6 141.7 102.4 141.7 102.2 141.7 102.05 141.7 101.85 141.7 101.65 141.7 101.45 141.7 101.3 141.7 101.1 141.7 100.9 141.7 100.7 141.7 100.55 141.7 100.35 141.7 100.15 141.7 99.95 141.7 99.8 141.7 99.6 141.7 99.4 141.7 99.2 141.7 99.05 141.7 98.85 141.7 98.65 141.7 98.45 141.7 98.3 141.7 98.1 141.7 97.9 141.7 97.7 141.7 97.55 141.7 97.35 141.7 97.241015625 141.7 97.1 141.5994140625 97.0416015625 141.5 96.95 139.8 95.4 139.7 95.3 138.65 94.45 137.7 94.1 136.1 93.55 134.4 94.15 132.65 94.8 131.85 96.3 130.75 98.3 131.6 100.85 132.35 103.15 134.25 105 134.9 105.65 135.6 106.2 130.35 106.55 125.4 106.3 125.5 105.6 125.4 104.95 125.25 103.6 124.1 102.6 122.95 101.65 121.55 101.75 119.8 101.9 118.15 103.65 117.6 104.25 116.75 105.4 116.5 105.35 116.3 105.3 104.2 103.2 89.3 95.9 83.75 93.15 80.45 90.6 75.95 87.15 74 82.95 73.5 81.75 73.2 81.15 72.7 80.2 72.1 79.6 71.634375 79.1052734375 71.05 78.8 70.6306640625 78.6044921875 70.15 78.5 69 78.2 67.9 78.55 66.8 78.9 66.05 79.8 65.25 80.75 65.1 81.85 64.8 84.15 67.45 87.2 69.062109375 89.039453125 71.05 90.75 73.871484375 93.262109375 77.45 95.55 77.45 95.6 77.45 95.7 77.3 96.7 77 97.6 76.2 100.3 75.05 103.1 74.45 104.45 74.3 105.05 74.05 105.85 73.95 107.5 72.7169921875 106.4794921875 71.05 106.3 70.7568359375 106.257421875 70.45 106.25 68.3 106.2 66.75 107.5 65.25 108.85 64.75 111.05 64.3 113.2 65.05 115.25 65.7 116.9 66.9 118.3 65.7 118.35 63.2 118.2 60.55 118 59.2 118.7 57.55 119.5 56.95 121.4 56.3 123.25 57 124.9 57.8 126.75 59.95 127.7 61.75 128.5 64.15 128.55 67.8916015625 128.6767578125 71.05 127.45 72.8720703125 126.783984375 74.5 125.65 80.45 151.5 80.8 178.4 80.85 181.55 81.05 182.95 81.35 185.45 82.35 187.15 83.1 187.3 83.85 186.85 84.2 186.65 84.5 186.4 84.75 187.15 85.1 187.8 81.5 193 79.95 197.35 78.5634765625 201.2228515625 78.35 205.05 78.356640625 205.225 78.35 205.4 78.15 209.7 79.55 213.4 80.4849609375 215.85 82.15 218.2 81.39921875 218.165234375 80.45 218.45 79.3 218.9 78.7 219.1 78.3740234375 219.222265625 78 219.3 74.1826171875 220.608203125 68.35 220.7 56.8 220.75 44.5 217.6 42.28828125 217.0369140625 40.8 216.45 40.8482421875 216.436328125 40.85 216.4 40.6572265625 216.245703125 40.45 216.15 40.01484375 215.9634765625 39.55 215.9 37.62578125 214.96328125 36.4 213.65 35.7 212.8 35.3 212.4 34.65 211.65 34.05 211.3 32.5 210.45 30.8 211.2 29.97578125 211.628515625 29.45 212.45 28.2458984375 211.6203125 27.1 210.6 26.56015625 210.121875 26.05 209.6 23.2529296875 206.8521484375 21.35 203.3 17.1 195.5 17.5 185.05 21.4 186.95 25.6 186.6 25.8271484375 186.582421875 26.05 186.55 30.2439453125 186.1060546875 32.95 183.4 36.05 180.35 36.75 175.05 37.45 169.8 35.35 163 32.5 155.1 31.2 151.2 23.75 129.45 27.7 98.55 28.7 90.5 30.3 85.7 33.25 76.1 41.4 65.75 45.6541015625 60.328125 50.4 55.55 57.084375 48.8712890625 64.75 43.45 65.0701171875 43.2244140625 65.35 43 65.75 42.696875 66.05 42.4 67.141796875 41.48125 67.5 40.7 67.65 40.3 67.7 39.9 67.5849609375 39.923046875 67.45 39.95 67.62734375 39.5818359375 67.8 39.15 68 38.75 69.6 36.65 70.4640625 35.5939453125 70.75 34.8 70.9119140625 34.673046875 71.05 34.5 79.5626953125 25.2412109375 93.6 20 104.65 15.9 122.15 14.1 135.2 12.8 144.55 13.85 156.7 15.15 165.35 20.6 167.6 21.95 168.75 21.65 169 21.9 169.35 22.15 170.5 22.85 173.25 22.85 198.35 22.7 217.6 31.3 228.3 36.1 236.85 43.6 243.0818359375 49.0658203125 247.55 55.55
M 202.75 132.85
Q 204.15 133.15 205.3 132.55 206.55 131.95 207.2 130.6 207.9 129.25 207.65 127.75 207.45 126.3 206.4 125.25 205.35 124.1 203.9 123.95 202.65 123.9 201.5 124.65 200.3 125.35 199.8 126.55 199.25 127.75 199.4 129.2 199.65 130.6 200.5 131.55 201.45 132.5 202.75 132.85
M 236 182.35
Q 235.45 182.95 234.45 184.25 233.8 185.25 233.45 186.1 233.25 186.75 233.25 188.05
L 233.25 194.6
Q 233.25 195.85 233.55 196.4 233.8 196.9 234.35 197.35 234.65 197.65 235.3 198.1 236.2 198.9 236.5 199.1 237.2 199.6 238.8 199.9 240.55 200.15 242.35 200.05 247.25 200.05 250.1 198.75 251.45 198.25 252 197.4 252.45 196.65 252.25 195.75 252.1 194.85 251.4 194.35 250.8 193.95 249.75 193.8 246.3 193.15 244.9 191.95 244.1 191.2 243.85 190.6 243.7 189.45 243.5 188.95 243.1 188 242.9 187.55 242.85 187.3 242.7 185.6 242.7 184.6 242.15 183.45 241.65 182.3 240.75 181.65 239.4 180.75 238.05 181.15 237 181.4 236 182.35
M 238.35 188.75
Q 238.4 188.8 238.65 189.5 238.75 189.85 239.35 190.6 239.65 190.95 240.25 191.95 240.75 192.85 241.15 193.25 241.55 193.65 242.65 194.25
L 245.2 195.55
Q 245 195.55 242.4 195.55 240.7 195.6 239.75 195.1 238.95 194.65 238.65 193.95 238.45 193.6 238.35 192.7 238.25 191.7 238.35 188.75
M 145.5 20.4
Q 145.1 18.85 142.4 17.95 139.8 17.05 137.1 16.45 135.2 16.15 132.4 15.95 121.95 15.2 114.4 17.1 104.8 19.5 98.8 25.85 97.95 26.85 97.7 27.5 97.35 27.75 97.25 28.1 97.05 28.65 97.45 29.15 97.75 29.65 98.3 29.8 99.1 30.1 100.45 29.8
L 126.95 24.65
Q 128.95 24.2 131.15 23.95 132.65 23.75 135.9 23.55 137.05 23.5 137.7 23.35 139.75 23.7 140.5 23.6 141.55 23.5 142.3 23.1 142.45 23.1 142.55 23.15 143.55 23.4 144.3 23.05 145.05 22.7 145.4 21.95 145.75 21.15 145.5 20.4
M 125.35 20.75
Q 128.15 20.7 130.3 20.75
L 106.65 25.3
Q 113.2 21.65 120.5 20.95 121.35 20.9 125.35 20.75 Z"/>

<path fill="#FFFFCC" stroke="none" d="
M 143.6 129.45
Q 143.6 129.65 143.6 129.85 143.6 130 143.6 130.2 143.6 130.4 143.6 130.6 143.6 130.75 143.6 130.95 143.6 131.15 143.6 131.35 143.6 131.5 143.6 131.7 143.6 131.8296875 143.6 131.95 143.940625 131.8404296875 144.25 131.65 145 131.2 145.4 130.5 145.6625 129.975 145.65 129.45 145.3833984375 129.45 145.1 129.45 144.3482421875 129.4359375 143.6 129.4
L 143.6 129.45
M 139.85 129.35
Q 139.6 129.25 139.35 129.2 138.9970703125 129.1607421875 138.65 129.1 138.516015625 129.84609375 138.9 130.55 139.45 131.5 141.1 132 141.2263671875 132.0306640625 141.35 132.05 141.35 131.9431640625 141.35 131.85 141.35 131.65 141.35 131.45 141.35 131.25 141.35 131.1 141.35 130.9 141.35 130.7 141.35 130.5 141.35 130.35 141.35 130.15 141.35 129.95 141.35 129.75 141.35 129.6 141.35 129.489453125 141.35 129.35 140.5978515625 129.364453125 139.85 129.35 Z"/>

<path fill="#FF9999" stroke="none" d="
M 141.35 122.85
Q 141.35 122.65 141.35 122.45 138.5353515625 122.57109375 135.65 123 125.220703125 124.5833984375 117.4 129.9 116.75 131.2982421875 116.75 132.75 116.75 134.8 118.1 136.75 119.4 138.55 121.35 139.6 123 140.5 125.4 141.05 126.65 141.3 129.75 141.75 136.715234375 142.612109375 141.35 142.85 141.35 142.78984375 141.35 142.7 141.35 142.5 141.35 142.35 141.35 142.15 141.35 141.95 141.35 141.75 141.35 141.6 141.35 141.4 141.35 141.2 141.35 141 141.35 140.85 141.35 140.65 141.35 140.45 141.35 140.25 141.35 140.1 141.35 139.9 141.35 139.7 141.35 139.5 141.35 139.35 141.35 139.15 141.35 138.95 141.35 138.75 141.35 138.6 141.35 138.4 141.35 138.2 141.35 138 141.35 137.85 141.35 137.65 141.35 137.45 141.35 137.25 141.35 137.1 141.35 136.9 141.35 136.7 141.35 136.5 141.35 136.35 141.35 136.15 141.35 135.95 141.35 135.75 141.35 135.6 141.35 135.4 141.35 135.2 141.35 135 141.35 134.85 141.35 134.65 141.35 134.45 141.35 134.25 141.35 134.1 141.35 133.9 141.35 133.7 141.35 133.5 141.35 133.35 141.35 133.15 141.35 132.95 141.35 132.75 141.35 132.6 141.35 132.4 141.35 132.2 141.35 132.12421875 141.35 132.05 141.2263671875 132.0306640625 141.1 132 139.45 131.5 138.9 130.55 138.516015625 129.84609375 138.65 129.1 138.5470703125 129.1107421875 138.45 129.1 137.95 129 137.45 128.95 134 128.85 130.6 128.7 130.4 128.5 130.2 128.35 130.15 128.15 130.1 127.95 130.15 127.75 130.2 127.6 130.4 127.4 130.6 127.2 134 127.1 137.45 126.95 137.95 126.9 138.45 126.85 138.9 126.75 139.35 126.7 139.6 126.65 139.85 126.6 140.5978515625 126.6 141.35 126.6 141.35 126.4 141.35 126.2 141.35 126 141.35 125.85 141.35 125.65 141.35 125.45 141.35 125.25 141.35 125.1 141.35 124.9 141.35 124.7 141.35 124.5 141.35 124.35 141.35 124.15 141.35 123.95 141.35 123.75 141.35 123.6 141.35 123.4 141.35 123.2 141.35 123 141.35 122.85
M 167.1 134.5
Q 167.9525390625 131.9875 166.8 129 165.200390625 128.0263671875 163.4 127.15 153.988671875 122.53515625 143.6 122.4 143.6 122.5546875 143.6 122.7 143.6 122.9 143.6 123.1 143.6 123.25 143.6 123.45 143.6 123.65 143.6 123.85 143.6 124 143.6 124.2 143.6 124.4 143.6 124.6 143.6 124.75 143.6 124.95 143.6 125.15 143.6 125.35 143.6 125.5 143.6 125.7 143.6 125.9 143.6 126.1 143.6 126.25 143.6 126.45 143.6 126.525 143.6 126.6 144.3478515625 126.6 145.1 126.6 145.1 126.5 145.1 126.45 148.6 126.45 152.1 126.45 152.4 126.5 152.7 126.6 153.1 126.7 153.45 126.85 153.65 127 153.85 127.2 153.95 127.4 154.1 127.6 154.1 127.75 154.1 127.95 154.1 128.15 154.1 128.35 153.95 128.5 153.85 128.7 153.65 128.9 153.45 129.1 153.1 129.2 152.7 129.35 152.4 129.4 152.1 129.45 148.8833984375 129.45 145.65 129.45 145.6625 129.975 145.4 130.5 145 131.2 144.25 131.65 143.940625 131.8404296875 143.6 131.95 143.6 132.0296875 143.6 132.1 143.6 132.25 143.6 132.45 143.6 132.65 143.6 132.85 143.6 133 143.6 133.2 143.6 133.4 143.6 133.6 143.6 133.75 143.6 133.95 143.6 134.15 143.6 134.35 143.6 134.5 143.6 134.7 143.6 134.9 143.6 135.1 143.6 135.25 143.6 135.45 143.6 135.65 143.6 135.85 143.6 136 143.6 136.2 143.6 136.4 143.6 136.6 143.6 136.75 143.6 136.95 143.6 137.15 143.6 137.35 143.6 137.5 143.6 137.7 143.6 137.9 143.6 138.1 143.6 138.25 143.6 138.45 143.6 138.65 143.6 138.85 143.6 139 143.6 139.2 143.6 139.4 143.6 139.6 143.6 139.75 143.6 139.95 143.6 140.15 143.6 140.35 143.6 140.5 143.6 140.7 143.6 140.9 143.6 141.1 143.6 141.25 143.6 141.45 143.6 141.65 143.6 141.85 143.6 142 143.6 142.2 143.6 142.4 143.6 142.6 143.6 142.75 143.6 142.95
L 143.6 142.95
Q 144.3673828125 143 145.05 143 153.5 143.05 159.85 140.6 165.65 138.55 167.1 134.5 Z"/>

<path fill="#FFFFFF" stroke="none" d="
M 141.7 96.95
Q 141.7 97.041015625 141.7 97.1 141.7 97.241015625 141.7 97.35 141.7 97.55 141.7 97.7 141.7 97.9 141.7 98.1 141.7 98.3 141.7 98.45 141.7 98.65 141.7 98.85 141.7 99.05 141.7 99.2 141.7 99.4 141.7 99.6 141.7 99.8 141.7 99.95 141.7 100.15 141.7 100.35 141.7 100.55 141.7 100.7 141.7 100.9 141.7 101.1 141.7 101.3 141.7 101.45 141.7 101.65 141.7 101.85 141.7 102.05 141.7 102.2 141.7 102.4 141.7 102.6 141.7 102.8 141.7 102.95 141.7 103.15 141.7 103.35 141.7 103.55 141.7 103.7 141.7 103.9 141.7 104.1 141.7 104.3 141.7 104.45 141.7 104.65 141.7 104.85 141.7 105.05 141.7 105.2 141.7 105.4 141.7 105.6 141.7 105.8 141.7 105.95 141.7 106.15 141.7 106.35 141.7 106.55 141.7 106.7 141.7 106.9 141.7 107.1 141.7 107.3 141.7 107.45 141.7 107.65 141.7 107.85 141.7 108.05 141.7 108.2 141.7 108.4 141.7 108.6 141.7 108.8 141.7 108.95 141.7 109.15 141.7 109.35 141.7 109.55 141.7 109.7 141.7 109.9 141.7 110.1 141.7 110.1666015625 141.7 110.2 141.7 110.35 141.7 110.45 141.65 110.65 141.6 110.85 141.6 111.05 141.6 111.2 141.6 111.4 141.6 111.6 141.6 111.8 141.6 111.95 141.6 112.15 141.6 112.35 141.6 112.55 141.6 112.7 141.6 112.9 141.6 113.1 141.6 113.3 141.6 113.45 141.6 113.65 141.6 113.85 141.6 114.05 141.6 114.2 141.6 114.4 141.6 114.6 141.6 114.75 141.6 114.95 141.6 115.15 141.6 115.35 141.6 115.5 141.6 115.7 141.5 115.9 141.45 116.1 141.45 116.25 141.45 116.45 141.45 116.65 141.45 116.85 141.45 117 141.45 117.2 141.45 117.4 141.45 117.6 141.45 117.75 141.45 117.95 141.45 118.15 141.45 118.35 141.45 118.5 141.45 118.7 141.45 118.9 141.45 119.1 141.45 119.25 141.45 119.45 141.4 119.65 141.35 119.85 141.35 120 141.35 120.2 141.35 120.4 141.35 120.6 141.35 120.75 141.35 120.95 141.35 121.15 141.35 121.35 141.35 121.5 141.35 121.7 141.35 121.9 141.35 122.1 141.35 122.25 141.35 122.45 141.35 122.65 141.35 122.85 141.35 123 141.35 123.2 141.35 123.4 141.35 123.6 141.35 123.75 141.35 123.95 141.35 124.15 141.35 124.35 141.35 124.5 141.35 124.7 141.35 124.9 141.35 125.1 141.35 125.25 141.35 125.45 141.35 125.65 141.35 125.85 141.35 126 141.35 126.2 141.35 126.4 141.35 126.6 140.5978515625 126.6 139.85 126.6 139.6 126.65 139.35 126.7 138.9 126.75 138.45 126.85 137.95 126.9 137.45 126.95 134 127.1 130.6 127.2 130.4 127.4 130.2 127.6 130.15 127.75 130.1 127.95 130.15 128.15 130.2 128.35 130.4 128.5 130.6 128.7 134 128.85 137.45 128.95 137.95 129 138.45 129.1 138.5470703125 129.1107421875 138.65 129.1 138.9970703125 129.1607421875 139.35 129.2 139.6 129.25 139.85 129.35 140.5978515625 129.364453125 141.35 129.35 141.35 129.489453125 141.35 129.6 141.35 129.75 141.35 129.95 141.35 130.15 141.35 130.35 141.35 130.5 141.35 130.7 141.35 130.9 141.35 131.1 141.35 131.25 141.35 131.45 141.35 131.65 141.35 131.85 141.35 131.9431640625 141.35 132.05 141.35 132.12421875 141.35 132.2 141.35 132.4 141.35 132.6 141.35 132.75 141.35 132.95 141.35 133.15 141.35 133.35 141.35 133.5 141.35 133.7 141.35 133.9 141.35 134.1 141.35 134.25 141.35 134.45 141.35 134.65 141.35 134.85 141.35 135 141.35 135.2 141.35 135.4 141.35 135.6 141.35 135.75 141.35 135.95 141.35 136.15 141.35 136.35 141.35 136.5 141.35 136.7 141.35 136.9 141.35 137.1 141.35 137.25 141.35 137.45 141.35 137.65 141.35 137.85 141.35 138 141.35 138.2 141.35 138.4 141.35 138.6 141.35 138.75 141.35 138.95 141.35 139.15 141.35 139.35 141.35 139.5 141.35 139.7 141.35 139.9 141.35 140.1 141.35 140.25 141.35 140.45 141.35 140.65 141.35 140.85 141.35 141 141.35 141.2 141.35 141.4 141.35 141.6 141.35 141.75 141.35 141.95 141.35 142.15 141.35 142.35 141.35 142.5 141.35 142.7 141.35 142.78984375 141.35 142.85 141.35 142.98984375 141.35 143.1 141.35 143.25 141.35 143.45 141.35 143.65 141.35 143.85 141.35 144 141.35 144.2 141.35 144.4 141.35 144.6 141.35 144.75 141.35 144.95 141.4 145.15 141.45 145.35 141.45 145.5 141.45 145.7 141.45 145.9 141.45 146.1 141.45 146.25 141.45 146.45 141.5 146.65 141.6 146.85 141.6 147 141.6 147.2 141.6 147.4 141.6 147.6 141.65 147.75 141.7 147.95 141.7 148.15 141.7 148.35 141.7 148.5 141.7 148.7 141.75 148.9 141.85 149.1 141.85 149.25 141.85 149.45 141.9 149.65 141.95 149.85 141.95 150 141.95 150.2 141.95 150.4 141.95 150.6 142 150.75 142.1 150.95 142.1 151.15 142.1 151.35 142.15 151.5 142.2 151.7 142.2 151.9 142.2 152.1 142.2 152.25 142.2 152.45 142.15 152.65 142.1 152.85 142 153 141.95 153.2 141.95 153.4 141.95 153.6 141.95 153.75 141.95 153.95 141.95 154.15 141.95 154.35 142 154.5 142.1 154.7 142.1 154.9 142.1 155.1 142.1 155.25 142.1 155.45 142.1 155.65 142.1 155.85 142.1 156 142.1 156.2 142.2 156.4 142.35 156.6 142.45 156.5 142.6 156.45 142.65 156.25 142.7 156.1 142.75 155.9 142.85 155.7 142.85 155.5 142.85 155.35 142.85 155.15 142.85 154.95 142.85 154.75 142.85 154.6 142.9 154.4 142.95 154.2 142.95 154 142.95 153.85 142.95 153.65 142.95 153.45 142.9 153.25 142.85 153.1 142.85 152.9 142.85 152.7 142.75 152.5 142.7 152.35 142.7 152.15 142.7 151.95 142.7 151.75 142.7 151.6 142.75 151.4 142.85 151.2 142.85 151 142.85 150.85 142.9 150.65 142.95 150.45 142.95 150.25 142.95 150.1 142.95 149.9 142.95 149.7 143 149.5 143.1 149.35 143.1 149.15 143.1 148.95 143.15 148.75 143.2 148.6 143.2 148.4 143.2 148.2 143.2 148 143.2 147.85 143.25 147.65 143.35 147.45 143.35 147.25 143.35 147.1 143.35 146.9 143.35 146.7 143.4 146.5 143.45 146.35 143.45 146.15 143.45 145.95 143.45 145.75 143.45 145.6 143.45 145.4 143.45 145.2 143.5 145 143.6 144.85 143.6 144.65 143.6 144.45 143.6 144.25 143.6 144.1 143.6 143.9 143.6 143.7 143.6 143.5 143.6 143.35 143.6 143.163671875 143.6 142.95
L 143.6 142.95
Q 143.6 142.75 143.6 142.6 143.6 142.4 143.6 142.2 143.6 142 143.6 141.85 143.6 141.65 143.6 141.45 143.6 141.25 143.6 141.1 143.6 140.9 143.6 140.7 143.6 140.5 143.6 140.35 143.6 140.15 143.6 139.95 143.6 139.75 143.6 139.6 143.6 139.4 143.6 139.2 143.6 139 143.6 138.85 143.6 138.65 143.6 138.45 143.6 138.25 143.6 138.1 143.6 137.9 143.6 137.7 143.6 137.5 143.6 137.35 143.6 137.15 143.6 136.95 143.6 136.75 143.6 136.6 143.6 136.4 143.6 136.2 143.6 136 143.6 135.85 143.6 135.65 143.6 135.45 143.6 135.25 143.6 135.1 143.6 134.9 143.6 134.7 143.6 134.5 143.6 134.35 143.6 134.15 143.6 133.95 143.6 133.75 143.6 133.6 143.6 133.4 143.6 133.2 143.6 133 143.6 132.85 143.6 132.65 143.6 132.45 143.6 132.25 143.6 132.1 143.6 132.0296875 143.6 131.95 143.6 131.8296875 143.6 131.7 143.6 131.5 143.6 131.35 143.6 131.15 143.6 130.95 143.6 130.75 143.6 130.6 143.6 130.4 143.6 130.2 143.6 130 143.6 129.85 143.6 129.65 143.6 129.45
L 143.6 129.4
Q 144.3482421875 129.4359375 145.1 129.45 145.3833984375 129.45 145.65 129.45 148.8833984375 129.45 152.1 129.45 152.4 129.4 152.7 129.35 153.1 129.2 153.45 129.1 153.65 128.9 153.85 128.7 153.95 128.5 154.1 128.35 154.1 128.15 154.1 127.95 154.1 127.75 154.1 127.6 153.95 127.4 153.85 127.2 153.65 127 153.45 126.85 153.1 126.7 152.7 126.6 152.4 126.5 152.1 126.45 148.6 126.45 145.1 126.45 145.1 126.5 145.1 126.6 144.3478515625 126.6 143.6 126.6 143.6 126.525 143.6 126.45 143.6 126.25 143.6 126.1 143.6 125.9 143.6 125.7 143.6 125.5 143.6 125.35 143.6 125.15 143.6 124.95 143.6 124.75 143.6 124.6 143.6 124.4 143.6 124.2 143.6 124 143.6 123.85 143.6 123.65 143.6 123.45 143.6 123.25 143.6 123.1 143.6 122.9 143.6 122.7 143.6 122.5546875 143.6 122.4 143.6 122.391015625 143.6 122.35 143.6 122.15 143.6 121.95 143.6 121.75 143.6 121.6 143.6 121.4 143.6 121.2 143.6 121 143.6 120.85 143.6 120.65 143.6 120.45 143.6 120.25 143.6 120.1 143.5 119.9 143.45 119.7 143.45 119.5 143.45 119.35 143.45 119.15 143.45 118.95 143.45 118.75 143.45 118.6 143.45 118.4 143.45 118.2 143.45 118 143.45 117.85 143.45 117.65 143.45 117.45 143.45 117.25 143.45 117.1 143.45 116.9 143.45 116.7 143.45 116.5 143.45 116.35 143.4 116.15 143.35 115.95 143.35 115.75 143.35 115.6 143.35 115.4 143.35 115.2 143.35 115 143.35 114.85 143.35 114.65 143.35 114.45 143.35 114.3 143.35 114.1 143.35 113.9 143.35 113.7 143.35 113.55 143.35 113.35 143.35 113.15 143.35 112.95 143.35 112.8 143.35 112.6 143.35 112.4 143.35 112.2 143.35 112.05 143.35 111.85 143.35 111.65 143.35 111.45 143.35 111.3 143.35 111.1 143.35 110.9 143.35 110.7 143.25 110.55 143.2 110.35 143.2 110.15 143.2 109.95 143.2 109.8904296875 143.2 109.8 143.2 109.7205078125 143.2 109.6 143.2 109.4 143.2 109.2 143.2 109.05 143.2 108.85 143.2 108.65 143.2 108.45 143.2 108.3 143.2 108.1 143.2 107.9 143.2 107.7 143.2 107.55 143.2 107.35 143.2 107.15 143.2 106.95 143.2 106.8 143.2 106.6 143.2 106.4 143.2 106.2 143.2 106.05 143.2 105.85 143.2 105.65 143.2 105.45 143.2 105.3 143.2 105.1 143.2 104.9 143.2 104.7 143.2 104.55 143.2 104.35 143.2 104.15 143.2 103.95 143.2 103.8 143.2 103.6 143.2 103.4 143.2 103.2 143.2 103.05 143.2 102.85 143.2 102.65 143.2 102.45 143.2 102.3 143.2 102.1 143.2 101.9 143.2 101.7 143.2 101.55 143.2 101.35 143.2 101.15 143.2 100.95 143.2 100.8 143.2 100.6 143.2 100.4 143.2 100.2 143.2 100.05 143.2 99.85 143.2 99.65 143.2 99.45 143.2 99.3 143.2 99.1 143.2 98.9 143.2 98.7 143.2 98.5625 143.2 98.35
L 143.2 98.35
Q 143.2 98.15 143.2 97.95 143.2 97.8 143.2 97.6 143.2 97.4 143.2 97.2 143.2 97.05 143.2 96.85 143.2 96.65 143.2 96.45 143.2 96.3 143.2 96.1 143.15 95.9 143.1 95.7 142.9 95.55 142.7 95.35 142.6 95.35 142.45 95.35 142.2 95.4 141.95 95.45 141.85 95.65 141.7 95.85 141.7 96.05 141.7 96.2 141.7 96.4 141.7 96.6 141.7 96.8 141.7 96.95 Z"/>

<path fill="#FF66CC" stroke="none" d="
M 166.8 129
Q 167.9525390625 131.9875 167.1 134.5 165.65 138.55 159.85 140.6 153.5 143.05 145.05 143 144.3673828125 143 143.6 142.95 143.6 143.163671875 143.6 143.35 143.6 143.5 143.6 143.7 143.6 143.9 143.6 144.1 143.6 144.25 143.6 144.45 143.6 144.65 143.6 144.85 143.5 145 143.45 145.2 143.45 145.4 143.45 145.6 143.45 145.75 143.45 145.95 143.45 146.15 143.45 146.35 143.4 146.5 143.35 146.7 143.35 146.9 143.35 147.1 143.35 147.25 143.35 147.45 143.25 147.65 143.2 147.85 143.2 148 143.2 148.2 143.2 148.4 143.2 148.6 143.15 148.75 143.1 148.95 143.1 149.15 143.1 149.35 143 149.5 142.95 149.7 142.95 149.9 142.95 150.1 142.95 150.25 142.95 150.45 142.9 150.65 142.85 150.85 142.85 151 142.85 151.2 142.75 151.4 142.7 151.6 142.7 151.75 142.7 151.95 142.7 152.15 142.7 152.35 142.75 152.5 142.85 152.7 142.85 152.9 142.85 153.1 142.9 153.25 142.95 153.45 142.95 153.65 142.95 153.85 142.95 154 142.95 154.2 142.9 154.4 142.85 154.6 142.85 154.75 142.85 154.95 142.85 155.15 142.85 155.35 142.85 155.5 142.85 155.7 142.75 155.9 142.7 156.1 142.65 156.25 142.6 156.45 142.45 156.5 142.35 156.6 142.2 156.4 142.1 156.2 142.1 156 142.1 155.85 142.1 155.65 142.1 155.45 142.1 155.25 142.1 155.1 142.1 154.9 142.1 154.7 142 154.5 141.95 154.35 141.95 154.15 141.95 153.95 141.95 153.75 141.95 153.6 141.95 153.4 141.95 153.2 142 153 142.1 152.85 142.15 152.65 142.2 152.45 142.2 152.25 142.2 152.1 142.2 151.9 142.2 151.7 142.15 151.5 142.1 151.35 142.1 151.15 142.1 150.95 142 150.75 141.95 150.6 141.95 150.4 141.95 150.2 141.95 150 141.95 149.85 141.9 149.65 141.85 149.45 141.85 149.25 141.85 149.1 141.75 148.9 141.7 148.7 141.7 148.5 141.7 148.35 141.7 148.15 141.7 147.95 141.65 147.75 141.6 147.6 141.6 147.4 141.6 147.2 141.6 147 141.6 146.85 141.5 146.65 141.45 146.45 141.45 146.25 141.45 146.1 141.45 145.9 141.45 145.7 141.45 145.5 141.45 145.35 141.4 145.15 141.35 144.95 141.35 144.75 141.35 144.6 141.35 144.4 141.35 144.2 141.35 144 141.35 143.85 141.35 143.65 141.35 143.45 141.35 143.25 141.35 143.1 141.35 142.98984375 141.35 142.85 136.715234375 142.612109375 129.75 141.75 126.65 141.3 125.4 141.05 123 140.5 121.35 139.6 119.4 138.55 118.1 136.75 116.75 134.8 116.75 132.75 116.75 131.2982421875 117.4 129.9 113.89140625 132.3560546875 110.9 135.55 106.45 140.3 104.5 145.75 102.6 151.05 103.55 155.9 106.9 156.5 109.95 158.45 115.4 161.9 118.1 167.75 119.65 171.1 120.35 175.5 120.45 176.15 120.5 176.85 131.35 179.8 141.3 181.9 143.7 182.4 148 183.3 148 183.25 148 183.2 148.45 181.65 150.9 180 154.55 177.5 158.4 175.3
L 164.45 172.05 165.85 171.45
Q 166.95 171.3 167.8 171.9 168.1 170.6 168.4 169.45 169.25 166.7 171.45 163.35 176.4 155.35 182.1 151.65 182 149.45 181.45 147.2 180.35 142.65 177.65 138.8 173.764453125 133.0931640625 166.8 129 Z"/>
</g>
</defs>

<g transform="matrix( 1, 0, 0, 1, 7.7,28.2) ">
<g transform="matrix( 1, 0, 0, 1, 0,0) ">
<use xlink:href="#vivi_0_Layer3_0_FILL"/>
</g>

<g transform="matrix( 1, 0, 0, 1, 0,0) ">
<use xlink:href="#vivi_0_Layer2_0_FILL"/>
</g>

<g transform="matrix( 1, 0, 0, 1, 0,0) ">
<use xlink:href="#vivi_0_Layer1_0_FILL"/>
</g>

<g transform="matrix( 1, 0, 0, 1, 0,0) ">
<use xlink:href="#vivi_0_Layer0_0_FILL"/>
</g>
</g>
</svg>
