
<svg xmlns="http://www.w3.org/2000/svg" version="1.1" xmlns:xlink="http://www.w3.org/1999/xlink" preserveAspectRatio="none" x="0px" y="0px" width="150px" height="150px" viewBox="0 0 150 150">
<defs>
<g id="Layer0_0_FILL">
<path fill="#FFFFFF" stroke="none" d="
M 90.3 92.7
Q 92.95 94.05 94.55 95.4 97.2 97.6 98.7 100.8 99 101.4 99.2 102 93.95 102.8 90.65 105.65 90.15 106.05 89.85 106.5 89.75 106.45 89.6 106.4 88.8 106.25 87.1 106.45 80.9421875 107.23671875 74.85 108.4 74.8197265625 108.896484375 74.8 109.4 74.785546875 108.9017578125 74.75 108.4 69.658984375 109.4021484375 64.6 110.65 64.15 110 63.45 109.35 59.35 105.6 52.25 104.8 49.9 104.5 47.95 104.7 48.5 101.95 50.7 99.25 52.6 97 56.65 94.25 59.35 92.45 61.35 91.65 63.2 90.9 67.8 90.1 67.9865234375 90.0728515625 68.15 90.05 68.036328125 89.9947265625 67.9 89.95 70.5287109375 89.6625 72.15 86 63.813671875 86.465625 57.45 89.6 50.65 93 47.05 98.85 46.65 98.5 46.2 98.25 45.45 97.85 44.25 97.6 40.8 96.6 38.6 96.55
L 36.9 96.5
Q 36 96.4 35.5 96.5 35.15 96.55 34.5 96.9 34.05 97.2 33.85 97.5 33.25 97.65 32.65 97.95 30.15 99.05 28.6 101.2 27.05 103.45 26.05 107.8 25.25 111.3 24.35 116.05 23.25 122 23.05 125.9 22.85 131.35 23.95 135.65 25 139.8 27.3 142.2 31.05 146.2 38.9 146.65 33.2 151.9 25.75 154.4 23.15 155.3 22.25 156.25 21.35 157.3 21.35 159.05 21.4 160.55 22.15 162.1 24.8 167.5 32.95 171.55 40.2 175.15 45.1 173.9 46.1 173.65 48.95 172.5 51.3 171.5 52.8 171.35 55.35 171.2 58.6 172.8 60.45 173.7 64.1 175.85 69.7 178.5 75.6 177.85 78.75 177.55 84.4 175.6 90.3 173.6 93.15 173.15 95.25 172.9 98.1 172.9
L 103.05 173
Q 109.2 173.1 112.8 171.8 115.25 170.9 117.05 169.25 117.5 168.85 117.9 168.4 119.55 168.45 122.2 166.9 124.1 165.8 124.85 164.9 126.1 163.4 125.7 161.8 125.5 160.9 123.85 159.25 119.35 155.05 114.95 150.05 111.7 146.35 110.3 143.3 115.55 142.9 118.7 139.85 121.4 137.2 122.35 132.95 123 130.15 123.2 125.15
L 123.4 119.9
Q 123.7 113.95 123.55 110.8 123.3 105.85 122 102 120.7 98.05 118.25 96.3 116.95 95.35 115.3 94.95 115.2 93.95 115.55 92.5 116.2 90.15 116.25 89.65
L 116.4 87.45 116.65 86.45
Q 116.55 85.25 116.55 84.7
L 116.7 83.3
Q 116.7 82.45 116.45 81.9 116.05 81.15 115.35 81.15 115.35 81.25 115.15 81.25 114.55 81.25 114 82.2
L 113.4 83.35
Q 112.8 85.05 112.65 87.15
L 112.7 89.85
Q 112.9 91 113.5 93.15 113.6 93.65 113.75 94.7 113 94.6 112.15 94.65 110.2 94.7 105.75 95.8 104.25 96.2 103.5 96.8 102.8 96.7 101.85 96.85 100.55 97.1 99.85 97.75 97.05 93.45 92.75 90.7 86.198046875 86.6 77.45 86.05 78.4876953125 88.352734375 79.9 89.25 81.76640625 89.4416015625 83.4 89.85 86.3 90.6 90.3 92.7
M 54.1 109.95
Q 56.4 110.5 57.75 111.2 58.1 111.35 59.25 112.1 51.25 114.3 43.45 117.15 42.65 117.45 42 117.7 41.85 117.45 41.35 116.8 40.9 116.3 40.8 115.9 40.75 115.2 41.35 114.1 42.05 112.9 42.6 112.25 44.55 110.05 48 109.6 50.45 109.2 54.1 109.95
M 44.8 105.35
Q 44.45 105.45 44.1 105.6 41.9 106.55 39.95 108.5 37.3 111.15 36.7 113.85 36.3 115.45 36.7 117.05 37.05 118.55 38 119.6 36.6 120.35 36.1 121.3 35.75 121.9 35.8 122.6 35.85 123.35 36.3 123.8 37.45 124.85 40.05 123.4 43.6 121.5 48.4 119.9 51.35 118.85 57.15 117.15 65.4 114.75 70.1 113.65 77.3 111.85 83.2 111.05 85.9 110.75 87.2 111.1 88.1 111.35 89.8 112.4 93.3 114.75 95.7 117.15 96 117.45 96.2 117.7 96.45 117.6 96.65 117.45 96.65 117.5 96.7 117.6
L 97.45 119.6
Q 97.55 119.8 98.05 120.75 98.3 121.2 98.45 121.5 98.1 121.8 97.75 122.15 95.45 124.4 92.9 126.25 90.85 127.7 88.7 128.95 88.45 129.05 88.2 129.2 86.45 130.05 83.85 130.95
L 74.35 133.9
Q 67.8 135.85 63.6 136.95 62.05 137.55 60.7 138 58.45 138.8 56.3 139.4 54.65 139.7 53.7 139.9 51.5 140.25 50.05 140.75 49.7 140.85 49.35 140.95 43.3 141.9 37.75 141.4 33.85 140.95 32 139.6 29.1 137.45 28.3 132 27.75 128.5 27.95 124.1 28.1 121.15 28.7 116.2 29.6 108.95 31.3 104.85 32.25 102.65 33.45 101.65 34.2 101 35.2 100.75 36.15 100.5 36.95 100.85
L 37.05 100.85
Q 37.1 100.85 37.15 100.9
L 37.3 100.95
Q 37.8 101.15 38.7 101.55 39 101.6 39.25 101.6
L 43.4 102.95
Q 44.3 103.3 45 103.4 44.75 104.4 44.8 105.35
M 46.55 146.7
Q 46.6 146.55 46.65 146.45 51.6 145.95 56.9 144.5 57.45 144.4 58 144.3 60.75 143.85 65.7 142.45
L 72.8 140.3
Q 76.3 139.3 79.25 138.3 79.75 138.55 80.6 138.65 81.7 138.85 82.55 138.75 83.25 139.3 84.9 139.65
L 100 142.4
Q 103.15 142.95 104.65 143.15 104.65 143.3 104.65 143.45 105.9 148.6 110.05 153.85 112.45 156.9 118.2 162.25 117.4 163.1 116.9 164.2 115.55 164.6 113.25 165.45 110.2 166.65 108.3 167 105.45 167.55 100.1 167.4 94.45 167.2 91.95 167.55 89.55 167.9 86.25 169.05 82.6 170.5 80.7 171.1 73.9 173.55 69.2 172.5 67.55 172.1 64.9 170.85 61.85 169.5 60.55 169.05 56.45 167.85 52.3 168.85 48.55 170.1 46.65 170.65 43.3 171.65 41.05 171.05 38.9 170.5 35.95 167.7 33.2 165.3 31.95 163.8 29.95 161.45 29.3 159.05 34.6 156.1 37.2 154.55 41.75 151.85 44.25 149.05 44.6 148.75 44.8 148.45 45.25 148.25 45.6 147.95 46.25 147.45 46.55 146.7
M 112.05 99.55
Q 113.75 99.45 114.65 99.95 115.9 100.7 116.65 103.15 117.6 106.5 117.8 110.7 117.9 113.55 117.75 118.35 117.45 124.95 117.15 128.25 117 131.2 116.3 132.65 115.5 134.4 113.7 135.5 112 136.6 109.95 137 108.2 137.3 106 137.15 104.65 137.05 102 136.7
L 88.25 134.8
Q 88.5 134.7 88.75 134.55 97.15 130.55 102.15 124.75 102.5 124.65 102.85 124.45 104.05 124.8 105.75 125.1 106.2 125.2 106.4 125 106.6 124.85 106.55 124.6 106.5 124.35 106.3 124.2 106.2 124.05 105.5 123.8 105.15 123.6 104.85 123.4 105.05 123.3 105.3 123.25 110.35 121.85 112.4 117.95 114.4 114 112.45 108.9 111.9 107.4 111.2 106.35 110.3 105.1 108.9 103.9 107.2 102.45 105.65 102 104.65 101.65 103.05 101.7 103.15 101.6 103.3 101.5 104.2 101.05 104.75 100.4 105.45 100.45 107.8 100.05 109.7 99.65 112.05 99.55
M 103 106.3
Q 103 106.25 103 106.2 103.7 106.25 104.3 106.4 107 107.2 108.3 110.6 109.7 114.45 107.75 116.8 107.15 117.45 105.75 118.35
L 103.55 119.8
Q 103.5 119.7 103.45 119.65
L 102.45 117.65
Q 101.45 115.8 100.75 114.95 100.05 114.1 99.05 113.15 98.3 112.55 97.75 112.15 97 111.5 96.1 110.75 94.05 109.2 93 108.4 95.85 106.5 100.1 106.2 100.1 106.4 100.1 106.6 101.7 106.1 103 106.3
M 76.15 85.95
Q 74.9337890625 82.1603515625 74.75 74.7 74.573828125 82.1267578125 73.3 85.95 72.3662109375 88.9220703125 70.75 89.7 70.3201171875 89.8984375 69.85 89.95 74.4 91.45 74.75 103.8 75.25 91 79.25 89.85 78.560546875 89.6921875 77.95 89.15 76.893359375 88.200390625 76.15 85.95
M 33.25 -8.4
Q 24.8 -8.6 19.8 -7.9 12.4 -6.9 7.35 -3.65 4.5 -1.75 3.35 0.45 2 3.1 2.65 7.3 2.95 9.85 3.9 13.4 5.05 17.4 5.6 19.45 7.45 26.8 6.2 31.8 6.05 32.4 5.75 33.55 5.55 34.6 5.75 35.4 5.8 35.85 6.05 36.2 5.9 36.6 5.75 36.95 4.1 41.45 3.25 47.9 2.3 55.3 2.3 62.45 2.3 65.6 2.5 71.8 2.6 77.4 2.15 81.15 1.95 83.75 0.5 84.25 -1.05 84.8 -2.75 82.55 -3.6 81.35 -3.95 81 -4.7 80.2 -5.55 80.1 -6.85 79.9 -8.3 81.25 -10.55 83.3 -11.45 86.6 -12.25 89.55 -12.05 93.05 -11.55 99.35 -8.25 104.8 -5.1 109.9 -0.35 112.9 -3.7 119.15 -3.35 129.3 -3.15 132.75 -2.3 134.65 -1.7 136.05 -0.3 137.75 2.2 140.8 4.85 143.35 7.15 145.55 9 146.4 9.35 146.9 9.65 147.6 10.3 148.55 11.75 150.2 13 151.85 12.95 153.2 12.95 154.1 12.45 154.75 11.9 155.5 11.05 155.6 10.55 155.65 9.8 155.4 8.9 155.1 8.55 155.1 7.65 155.05 6.95 155.7 6.2 156.3 6.1 157.2 5.95 158 6.55 159.4 7.4 161.55 8.1 162.9 10 166.7 12 168.2 14.6 170 18.25 170 20.5 170.05 24.8 169.1 25.25 169 25.4 168.85 25.75 168.6 25.6 168.2 25.5 168.05 25 167.95 20.05 167.1 17.7 165.85 13.8 163.9 12.75 160.4 15.15 159.4 16.4 158.2 18.15 156.5 18.1 154.4 18.1 152.9 16.8 150.95 15.1 148.35 12.7 146.6 12.8 146.55 12.9 146.55 13.05 146.6 13.6 146.95 14 147.2 14.2 147.05 13.55 146.95 13.1 146.25 12.95 146.05 12.4 144.9 11.7 143.65 9.95 142.2 8.15 140.75 7.35 139.95 5.8 138.6 5 137.4 4.2 136.2 3.05 133.45 2.55 132.15 2.3 131.3 2.15 130.6 2.15 128.5 2.25 122.9 2.75 120.55 3.05 119.1 3.55 117.5 4.15 115.75 4.85 114.7 5.4 113.85 5.65 113.45 6.05 112.75 6.15 112.15 6.3 111.2 5.7 110.35 5 109.5 4.1 109.35 3.85 109.3 3.6 109.35 3.35 109.15 3 109 1.9 108.45 1.35 108.15 -2 106.2 -3.95 102.1 -5.65 98.55 -6 93.95 -6.25 89.6 -5.25 87 -2.35 88.6 -0.75 88.95 2.1 89.6 4.05 88.35 5.75 87.2 6.7 84.3 7.95 80.4 7.65 73.95 7.6 72.5 6.8 62.3 6.3 55.3 6.5 50.7 7.05 36.95 14.15 29.25 15.1 28.2 17.1 26.4 19.2 24.5 20.1 23.5 20.4 23.25 20.35 23 20.2 22.55 19.45 22.75 19.4 22.75 19.3 22.8 20 22.1 21.4 20.95 23.35 19.2 26.9 15.4 34.65 7.95 46.8 5.1 56.5 2.75 69.35 3.55 76.15 4 79.75 5.6 81.3 6.4 82.1 6.45 82.5 6.45 82.85 6.35 82.9 6.4 83.05 6.45 85.6 7.15 89.15 7.5 91.25 7.7 95.3 7.85 110.9 8.95 121.95 15.4 128.2 18.95 132.75 24.15 137.6 29.65 139.8 36.1 141.3 40.45 141.9 46.15 142.2 49.55 142.35 56.5
L 142.6 69
Q 142.7 74.25 143.3 76.8 144.25 81.15 146.95 83.6 148.5 85 150.55 85.65 152.6 86.3 154.65 86 156.75 85.7 158.5 84.6 158.6 85.5 158.7 86.5 158.9 90.75 157.95 93.7 156.85 97.05 154.15 99.75 151.6 102.25 148.1 103.8 147.45 104.05 147 104.15 146.5 103.85 146.05 103.9 145.7 103.6 145.45 103.55 145.2 103.45 145 103.5 144.7 103.55 144.65 103.7 144.45 104.1 144.95 104.45 144.55 105 144.7 105.9 144.8 106.6 145.55 107.8 148.55 113.05 148.95 119.4 149.25 125.7 146.8 131.3 144.35 136.9 139.5 140.9 134.6 144.85 128.65 146.2 126.8 146.55 126.25 147.2 125.6 148 125.7 149.25 125.9 151.45 128.25 153.4 129.55 154.4 132.3 156.25 133.25 157 133.45 157.6 133.7 158.5 133.2 159.7 131.15 165.8 126.55 170.35 126.2 170.75 126.1 171.25 125.95 171.8 126.4 171.95 126.7 172 127.15 171.65
L 131.2 168.3
Q 133.75 166.35 134.7 164.9 136.1 162.75 135.9 160 135.75 157.3 134 155.4 133.55 154.95 132.6 154.05 131.6 153.15 131.15 152.65 129.6 150.7 130.35 148.95 136.5 147.9 141.75 144.15 147 140.45 150.1 135 153.15 129.55 153.7 123.15 154.15 116.75 151.95 110.9 151.05 108.65 149.9 107.05 150.85 107.25 151.7 107.15 153.3 106.95 155.3 105.6 161 101.55 163 94.9 164.05 91.25 163.9 86.6 163.85 83.45 163.05 78.2 162.85 76.5 162.25 75.8 162.2 75.75 162.15 75.7 161.5 74.5 160.55 74.45 159.75 74.3 158.9 75.1 158.25 75.7 157 77.95 155.95 79.85 154.85 80.4 153.6 81.05 152.05 80.5 150.6 80 149.65 78.7 148.35 76.95 148 73.05 147.5 59.5 147.15 52.75 146.55 40.7 143.55 33.1 141.2 27.2 136.9 22.05 136.62421875 21.72109375 136.35 21.4 136.988671875 20.515625 137.75 19.15 140.8017578125 14.0025390625 141.75 10.85 142.7 7.55 142.35 4.3 142.05 0.95 140.45 -2 138.8 -4.95 136.15 -7 130.55 -11.25 121.7 -10.45 118.35 -10.1 114.2 -9.05 112.35 -8.55 106.9 -6.8 98.5 -4.2 94.35 -2.8 87.2 -0.4 82.2 2.15 81.9 2.3 81.65 2.45 79 1.15 75.05 0.3 70.85 -0.65 66.8 -1
L 65.75 -1.5
Q 62.05 -3.05 59.95 -3.65 58.4 -4.05 55.65 -4.55 52.5 -5.05 51.35 -5.35 50.15 -5.6 47.45 -6.4 44.85 -7.2 43.5 -7.5 39.9 -8.3 33.25 -8.4
M 50 -1.45
Q 51.2 -1.25 52.95 -0.9 50.7 -0.65 48.45 -0.2 34.55 2.55 24.6 11.35 20.25 15.3 18.75 19 18.5 19.55 17.8 21.8 17.45 22.9 17.05 23.75 13.9 25.2 11.5 27.6 10.6 28.45 9.85 29.5 10.1 23.9 9.65 18.25 9.5 16.5 9.15 13 8.9 9.9 9 7.7 9.1 5.75 9.65 4.65 10.5 3.15 12.9 2.05 21.35 -2.15 34.45 -2.35 42.9 -2.6 50 -1.45
M 104.5 -1.8
Q 110.15 -3.3 113.3 -3.95 118.3 -5 122.35 -5.2 127.35 -5.4 130 -3.65 132.1 -2.25 133.8 1 134.95 3.05 135.1 4.85 135.3 6.75 134.1 10.1 132.75 13.55 132.75 15.25 132.7484375 16.1982421875 132.75 17.75 130.2083984375 15.3900390625 127.25 13.4 116.6 6.4 103 5 95.9 4.25 84.1 5.15 84.15 4.95 84.15 4.75 88.4 2.9 94.05 1.15 97.5 0.05 104.5 -1.8
M 12.95 131.05
Q 11.8 130.35 10.6 130.8 9.35 131.15 8.95 132.45 8.8 133 8.9 133.75 8.9 134.65 9.15 136.3 9.45 137.75 9.65 138.5 9.8 138.95 10.25 139.85
L 11.4 142.4
Q 11.75 143.15 12.05 143.55
L 13.05 144.5
Q 13.3 144.75 13.75 145.5 14.2 146.1 14.5 146.4 14.9 146.65 15 146.9 15.05 147.05 15.05 147.3 15 147.6 15.1 147.75 15.2 147.95 15.5 147.9 15.75 147.9 15.9 147.7 16.1 147.4 16.2 146.75 16.4 145.25 16.65 144.15 17.05 142.85 17.05 142.65 17.15 141.9 16.95 140.4 16.4 135.5 15 133.25
L 14.15 132.15
Q 13.45 131.35 12.95 131.05
M 44.4 83.7
Q 44.2 84.55 44.6 85.3 44.95 86 45.8 86.35 46.65 86.65 47.4 86.35 48.2 86.05 48.6 85.3 49 84.5 48.8 83.7 48.6 82.55 47.4 82.05 46.25 81.65 45.25 82.35 44.6 82.8 44.4 83.7
M 31.8 85
Q 31.8 85.15 32.15 86.35 32.35 87.2 32.35 88.9
L 32.35 93.45
Q 32.35 94.65 32.55 95.2 33 96.3 33.8 96.5 34.6 96.7 35.35 95.95 35.9 95.55 36.2 94.55 37.7 90.35 34.9 85.2 34.35 84.1 33.8 83.75 33.35 83.45 32.9 83.5 32.3 83.5 32.05 83.85 31.65 84.25 31.8 85
M 26.8 69.85
Q 25.3 70.55 24.95 71.9 24.8 72.55 24.85 73.25 24.6 73.2 24.4 73.15 23.4 72.85 22.9 72.75 21.15 72.4 19.8 73.2 18 74.15 17.65 76.2 17.3 78.1 18.55 79.75
L 19.3 80.55
Q 20.7 81.75 22 82 22.8 82.25 24.4 82.25 26.85 82.15 28.35 81.5 30.3 80.5 30.8 78.8 31.3 78.95 31.85 79.15 37.6 80.8 43.35 80.95 46.15 81 48.1 80.65 49 80.5 51.15 79.9
L 57.8 77.95
Q 60.7 77 63 75.95 64.6 75.2 65.15 74.5 65.65 74 65.75 73.3 65.8 72.6 65.45 72.05 64.65 70.95 63.1 71.4 62.4 71.6 60.8 72.65 55.45 76.15 46.9 76.3 42.25 76.35 39.05 75.55 34.85 74.45 32.15 71.8 31.35 71 30.9 70.65 30.2 70 29.55 69.7 28.25 69.15 26.8 69.85
M 66.5 9.9
Q 66.6 9.55 66.4 9.2 66.2 8.8 65.8 8.65 65.3 8.5 64.25 8.55 63.4 8.65 61.7 8.6 59.95 8.6 59.05 8.65
L 56.5 9.05
Q 54.05 9.35 52.5 9.9
L 41.8 14.05
Q 41.5 14.15 41.5 14.4 41.5 14.8 42.05 14.55
L 43.15 14.25
Q 41.6 15.05 40.1 16.15 39.8 16.45 39.85 16.65 39.85 16.8 40 16.9 40.1 17 40.25 16.95 40.45 16.95 40.8 16.75 42.1 16 43.4 15.4 43.65 15.75 44.35 15.45
L 46.75 14.5
Q 49.75 13.45 56.15 12.55 62.5 11.7 65.55 10.6 66.35 10.3 66.5 9.9
M 50.95 11.75
Q 55.7 10.25 60.55 10.15
L 50.95 11.75
M 139.8 84.3
Q 139.8 81.4 139.35 79.8 138.9 78.4 138.15 77.95 137.2 77.4 136 77.95 135.1 78.45 134.45 79.45 132.5 82.25 132.7 86.65 132.7 87.9 132.95 88.9 133.1 89.5 133.5 90.1 133.8 90.6 134.7 91.25 135.5 91.9 136.2 92.25 137.25 92.7 138.2 92.6 138.25 93.6 138.5 94.6 138.6 95.05 138.8 95.4 139.2 95.8 139.55 95.6 139.95 95.45 139.85 94.5 139.7 93.35 139.7 92.05
L 139.75 91.5
Q 139.85 91 139.9 90.7
L 139.8 84.3
M 135.8 85.75
Q 135.8 83.5 136.45 82.3 136.6 85.65 137.5 89.05 137.35 89.35 136.95 89.4 136.6 89.5 136.35 89.25 136 88.9 135.9 88.2 135.8 86.95 135.8 85.75
M 108.35 80.25
Q 107.65 79.95 106.9 80.05 106.15 80.15 105.45 80.7 104.85 81.25 104.7 82.05 104.6 82.8 104.95 83.6 105.35 84.35 106 84.75 106.75 85.05 107.25 85 108.35 85 109.15 84.1 109.6 83.5 109.65 82.7 109.75 81.95 109.35 81.3 109.05 80.65 108.35 80.25
M 86.95 71.1
Q 86.4 71 85.95 71.2 85.35 71.45 85.2 71.9 84.85 72.8 85.8 73.85 87.8 76.15 91.6 77.3 94.55 78.25 98.35 78.6 100.75 78.8 105.25 78.85 107.65 78.95 109.35 78.75 111.05 78.6 113.55 78 117.85 77.05 120.3 76.25 121.3 75.9 122.2 75.55 122.25 76.6 122.6 77.35 122.8 77.85 123.5 78.65 124.1 79.3 124.6 79.6 125.6 80.3 127.55 80.5 129.15 80.65 130.4 80.4 131.9 80.15 132.95 79.15
L 133.75 78.25
Q 134.25 77.6 134.6 76.95 135.15 75.55 134.55 74.1 133.95 72.7 132.5 72.2 131.7 71.9 130.4 71.95 129 72.1 128.3 72.1 128.25 72.1 128.2 72.1 129.7 70.65 129.6 69.1 129.55 67.75 128.3 66.95 127.1 66.15 125.85 66.5 125.15 66.75 124.45 67.35
L 123.25 68.55
Q 119.4 72.45 112.95 74 108.25 75 101.3 74.75 97.35 74.65 94.85 74.2 91.4 73.55 88.9 72.05 87.55 71.25 86.95 71.1
M 109.95 68.45
L 110.1 68.15
Q 110.05 68 109.75 68 102.25 68.15 97.55 67.7 90.85 67.05 85.75 65.1 82.55 63.85 78.85 61.65 76.65 60.4 72.35 57.5 69.6 55.6 68.85 54.8 68.05 54.05 67.6 54.35 67.05 54.6 67.35 55.45 67.85 57.3 69.5 59 70.6 60.05 72.8 61.6 73.4 62.05 73.9 62.4 72.6 62.15 70.25 62.2 61.7 62.4 54.85 59.85 46.85 56.85 42.15 50.85 37.55 44.8 38.45 38.95 38.75 37.5 38 37.15 37.3 36.8 36.8 37.6 36.5 38.1 36.4 38.95 35.75 44.6 36.35 47.4 37.05 50.3 39.25 53.2 44.3 60.25 53.75 63.6 61.3 66.35 71.55 66.25 74.05 66.25 75.25 65.65 76.1 65.25 76.8 64.45 78.95 65.85 80.4 66.6 87.15 70.25 96.7 71.3 100.85 71.8 103.7 71.35 107.5 70.75 109.95 68.45 Z"/>
</g>
</defs>

<g transform="matrix( 1, 0, 0, 1, 0,0) ">
<use xlink:href="#Layer0_0_FILL"/>
</g>
</svg>
