<?xml version="1.0" encoding="UTF-8" standalone="no"?>
<svg xmlns:ffdec="https://www.free-decompiler.com/flash" xmlns:xlink="http://www.w3.org/1999/xlink" ffdec:objectType="shape" height="319.8px" width="686.4px" xmlns="http://www.w3.org/2000/svg">
  <g transform="matrix(1.0, 0.0, 0.0, 1.0, 0.0, 37.55)">
    <path d="M673.8 253.95 Q673.2 255.1 672.6 255.25 671.75 255.45 670.8 254.15 670.15 253.1 669.8 251.75 L667.85 234.7 Q667.55 232.05 668.05 230.7 668.5 229.35 669.8 228.5 671.05 227.6 672.55 227.7 674.05 227.75 675.2 228.8 676.4 229.8 676.75 231.15 677.0 232.45 676.55 234.65 675.45 241.5 675.0 246.85 L674.75 250.45 Q674.55 252.35 673.8 253.95 M672.6 268.95 Q671.3 269.0 669.95 268.3 668.65 267.45 668.1 266.3 667.65 265.4 667.6 264.45 667.6 263.1 668.4 261.75 669.05 260.6 670.4 259.95 671.65 259.4 673.1 259.6 674.5 259.75 675.5 260.8 676.55 261.7 676.9 263.1 677.25 264.5 676.8 265.75 676.3 267.1 675.15 267.95 673.95 268.9 672.6 268.95 M445.05 250.65 Q446.4 248.85 448.0 247.6 449.8 246.25 451.95 245.55 L454.4 244.85 Q456.75 244.35 459.4 244.8 461.75 245.3 463.25 246.05 L463.25 241.95 Q463.25 239.55 463.4 238.4 463.55 236.75 464.0 234.9 464.3 233.45 465.25 232.15 465.95 231.1 467.0 230.55 468.05 230.0 468.7 230.05 L470.35 230.35 Q471.3 230.6 471.6 231.75 471.95 232.9 471.35 234.0 L470.2 235.9 Q469.6 236.8 469.6 239.8 L469.25 260.65 Q468.85 263.75 467.25 265.45 L464.8 267.7 462.5 268.6 459.65 269.25 456.2 269.5 Q453.6 269.5 451.25 268.75 448.9 267.95 447.3 266.35 446.0 265.05 444.7 262.6 443.6 260.45 443.45 258.35 443.2 256.15 443.8 253.85 444.25 252.1 445.05 250.65 M449.8 255.5 Q449.5 257.95 450.6 260.2 451.8 262.65 454.3 263.3 L456.9 263.65 Q459.75 263.65 461.6 262.1 L462.7 260.95 Q463.7 259.65 463.7 258.15 463.7 255.6 462.7 253.6 L462.1 252.6 Q460.6 250.9 458.4 250.4 456.3 249.95 454.6 250.45 453.0 250.95 452.15 251.65 L450.9 253.1 Q450.45 253.7 449.8 255.5 M370.05 250.65 Q371.4 248.85 373.0 247.6 374.8 246.25 376.95 245.55 L379.4 244.85 Q381.75 244.35 384.4 244.8 386.75 245.3 388.25 246.05 L388.25 241.95 Q388.25 239.55 388.4 238.4 388.55 236.75 389.0 234.9 389.3 233.45 390.25 232.15 390.95 231.1 392.0 230.55 393.05 230.0 393.7 230.05 L395.35 230.35 Q396.3 230.6 396.6 231.75 396.95 232.9 396.35 234.0 L395.2 235.9 Q394.6 236.8 394.6 239.8 L394.25 260.65 Q393.85 263.75 392.25 265.45 L389.8 267.7 387.5 268.6 384.65 269.25 381.2 269.5 Q378.6 269.5 376.25 268.75 373.9 267.95 372.3 266.35 371.0 265.05 369.7 262.6 368.6 260.45 368.45 258.35 368.2 256.15 368.8 253.85 369.25 252.1 370.05 250.65 M374.8 255.5 Q374.5 257.95 375.6 260.2 376.8 262.65 379.3 263.3 L381.9 263.65 Q384.75 263.65 386.6 262.1 L387.7 260.95 Q388.7 259.65 388.7 258.15 388.7 255.6 387.7 253.6 L387.1 252.6 Q385.6 250.9 383.4 250.4 381.3 249.95 379.6 250.45 378.0 250.95 377.15 251.65 L375.9 253.1 374.8 255.5 M593.75 245.95 Q594.75 244.95 596.0 244.9 597.2 244.9 597.85 245.55 L598.7 246.5 599.05 247.1 Q603.4 244.6 608.55 245.25 610.85 245.4 612.8 246.6 614.85 247.85 616.05 249.4 617.0 250.7 617.9 253.1 L619.0 258.3 619.3 265.25 Q619.3 266.8 618.6 268.1 L617.7 269.1 616.35 269.55 615.0 269.45 613.6 268.7 612.8 267.65 612.3 266.15 612.2 265.15 612.2 260.0 Q612.05 257.15 611.45 255.0 610.95 253.5 609.85 252.5 608.95 251.7 607.95 251.55 605.95 251.25 603.9 252.1 601.8 252.9 600.9 254.85 599.45 257.6 599.75 260.75 L600.0 265.2 599.7 267.7 Q599.35 268.7 598.4 269.25 597.65 269.75 596.9 269.75 595.25 269.9 593.9 268.75 592.7 267.6 592.7 266.1 L592.7 258.95 Q592.65 253.9 593.1 247.85 L593.25 247.1 593.75 245.95 M541.6 256.15 L526.65 261.1 526.8 261.25 Q528.7 263.9 531.9 263.9 534.3 264.15 536.25 262.55 L536.95 261.95 Q537.95 261.2 539.35 261.2 L540.85 261.3 542.1 262.1 542.75 263.2 542.8 264.35 542.4 265.75 541.45 266.9 Q540.55 267.9 539.35 268.25 L533.1 269.75 528.6 269.5 525.15 268.6 522.25 266.7 Q520.55 265.35 519.55 263.0 518.45 260.75 518.25 259.3 L518.15 256.0 Q518.15 254.05 518.75 252.55 519.1 251.45 519.85 250.2 521.35 248.15 523.35 246.65 525.75 245.0 528.75 244.65 L533.75 244.45 537.15 245.25 Q538.7 245.85 539.85 247.0 540.8 247.8 541.8 249.15 542.55 250.05 542.95 251.1 L543.45 252.75 Q543.65 253.8 543.15 254.7 542.55 255.75 541.6 256.15 M525.45 256.7 L536.7 253.65 536.4 253.2 Q534.9 250.8 532.25 250.3 529.75 249.8 527.9 251.5 527.2 252.15 526.6 253.2 L525.7 255.4 525.45 256.7 M110.6 248.3 Q111.65 249.25 112.9 251.35 114.0 253.25 114.2 255.65 114.5 258.0 113.7 261.1 112.95 264.2 111.45 265.85 109.85 267.6 108.25 268.35 L108.2 268.4 105.15 269.4 101.15 269.85 96.4 269.45 Q93.6 268.75 91.8 267.4 89.85 265.9 88.75 263.75 87.55 261.4 87.2 259.05 86.9 256.55 87.45 254.25 88.1 251.6 89.7 249.7 91.25 247.75 93.7 246.45 L93.75 246.45 Q95.85 245.45 98.65 245.1 100.95 244.75 103.35 245.1 105.95 245.55 107.55 246.35 L108.2 246.7 Q109.7 247.5 110.6 248.3 M100.0 250.95 Q97.8 251.3 96.15 252.7 95.3 253.45 94.9 254.35 L94.9 254.3 Q93.95 256.35 94.15 258.15 94.3 259.85 94.9 261.1 95.45 262.15 96.55 262.95 97.8 263.75 99.2 263.95 L101.95 263.95 104.25 263.2 105.9 262.0 105.9 261.95 107.15 260.0 Q107.7 258.7 107.4 256.55 107.1 254.35 105.95 252.9 104.85 251.6 103.65 251.25 L100.0 250.95 M34.6 240.55 Q32.0 239.4 29.9 241.15 29.3 241.65 29.25 242.3 29.1 244.05 29.1 245.85 L29.7 255.65 35.0 255.65 35.95 256.05 Q37.5 256.8 37.7 258.6 37.75 259.55 37.1 260.35 L36.05 261.25 Q35.5 261.6 34.75 261.6 L31.9 262.05 30.0 262.05 Q30.15 270.25 29.8 276.55 L29.55 278.05 29.1 279.55 28.5 280.6 27.45 281.55 26.35 282.1 24.95 282.25 Q23.65 282.05 22.85 280.7 21.95 279.5 22.25 278.2 L22.85 276.35 23.1 274.2 23.0 262.0 Q20.45 262.0 18.5 260.9 17.85 260.55 17.65 259.95 17.1 258.35 18.45 257.5 19.7 256.7 20.8 256.35 L22.65 255.9 22.25 245.25 Q22.2 241.25 24.35 237.5 24.9 236.55 25.85 235.95 L28.05 234.65 30.5 233.9 34.9 234.1 36.4 234.65 Q38.6 235.6 40.0 237.3 L40.85 238.9 41.25 239.95 41.45 240.9 Q41.65 241.55 41.35 242.2 L40.55 243.45 40.05 243.9 39.75 244.0 38.75 244.2 Q36.6 244.0 35.8 241.75 L35.55 241.05 34.6 240.55 M312.65 243.9 Q311.45 243.95 310.05 243.15 308.7 242.3 308.2 241.25 307.75 240.3 307.7 239.35 307.7 237.95 308.4 236.7 309.15 235.5 310.45 234.8 L313.15 234.5 Q314.6 234.65 315.65 235.7 316.7 236.6 317.0 238.05 317.4 239.45 316.9 240.7 316.4 241.95 315.25 242.85 314.0 243.85 312.65 243.9 M251.65 244.5 Q253.95 245.25 255.5 246.4 257.5 247.85 258.9 249.9 260.15 251.6 260.6 254.0 L260.8 256.35 260.1 261.1 259.25 263.0 Q258.1 265.35 255.95 266.9 254.15 268.25 251.4 268.85 L247.45 269.15 242.7 269.05 Q240.3 268.45 238.45 266.95 L237.1 265.75 Q235.45 264.05 234.6 261.85 233.9 259.8 233.75 257.4 L233.3 237.55 Q233.2 234.55 233.55 232.25 233.75 231.1 234.9 230.5 236.05 229.95 237.2 230.0 238.9 230.35 239.6 231.9 L239.95 232.85 240.25 234.9 240.3 246.1 Q241.6 245.3 243.35 244.85 L247.55 244.2 251.65 244.5 M250.35 262.65 Q251.55 262.35 252.3 261.45 253.85 259.7 254.0 257.2 254.05 255.8 253.5 254.3 252.9 252.7 251.7 251.9 249.85 250.35 247.2 250.5 244.6 250.2 242.65 252.05 L242.0 252.85 Q240.7 254.65 240.6 257.05 240.6 258.6 241.1 259.8 242.05 262.35 244.65 262.95 L247.45 263.3 250.35 262.65 M308.9 252.45 Q308.95 251.15 309.4 249.7 309.7 248.35 310.9 247.65 311.4 247.35 311.95 247.15 313.15 247.0 314.25 247.75 315.4 248.6 315.6 250.05 316.0 252.65 316.0 254.7 L316.2 262.3 Q317.65 262.35 318.7 263.5 319.9 264.75 319.6 266.4 319.4 267.5 318.8 268.15 317.8 269.4 316.15 269.55 313.9 269.8 312.2 268.65 L311.1 267.9 310.3 266.8 Q309.3 265.2 309.15 263.3 308.75 258.15 308.9 252.45 M167.3 245.7 L168.65 246.9 168.9 247.4 Q171.7 245.25 175.05 244.9 L179.55 245.35 Q181.9 245.9 182.9 246.6 184.0 247.45 185.0 249.05 185.85 250.65 185.8 252.7 185.6 255.0 184.9 255.8 184.05 256.8 182.95 256.85 181.85 256.9 180.45 256.2 179.05 255.45 179.05 253.6 179.05 251.75 177.15 250.85 L173.6 250.65 Q171.55 251.55 170.85 252.6 169.85 253.8 169.85 255.35 L169.95 264.25 Q170.05 266.85 169.1 268.35 168.05 269.85 166.05 269.85 164.1 269.85 163.25 268.65 162.35 267.45 162.55 265.25 L162.7 259.8 162.25 252.8 Q161.85 248.85 163.0 246.95 164.2 244.8 167.05 245.6 L167.3 245.7" fill="#ffffcc" fill-rule="evenodd" stroke="none"/>
    <path d="M483.8 69.25 Q469.45 58.25 469.45 42.7 L469.45 37.7 Q469.45 22.2 483.8 11.2 495.75 2.05 511.75 0.5 L635.3 0.5 Q653.9 2.7 668.7 15.05 686.4 29.85 686.4 50.7 L686.4 57.45 Q686.4 78.35 668.7 93.15 653.9 105.4 634.15 107.55 653.9 109.7 668.7 121.95 686.4 136.75 686.4 157.65 L686.4 164.4 Q686.4 185.25 668.7 200.05 653.9 212.4 635.3 214.6 L511.75 214.6 Q495.75 213.05 483.8 203.9 469.45 192.9 469.45 177.4 L469.45 172.4 Q469.45 156.85 483.8 145.85 495.75 136.75 511.75 135.15 533.2 133.95 546.7 145.8 556.75 154.5 575.5 153.9 594.45 154.85 592.4 134.85 537.5 134.85 536.0 109.4 L536.0 105.7 Q537.5 80.25 592.4 80.25 594.45 60.25 575.5 61.2 556.75 60.6 546.7 69.3 533.2 81.15 511.75 79.95 495.75 78.35 483.8 69.25 M451.25 108.0 Q451.25 152.75 419.65 184.35 388.0 216.0 343.25 216.0 298.5 216.0 266.9 184.35 235.25 152.75 235.25 108.0 235.25 63.25 266.9 31.6 298.5 0.0 343.25 0.0 388.0 0.0 419.65 31.6 451.25 63.25 451.25 108.0 M216.0 160.25 L216.0 190.5 215.7 190.5 Q214.1 200.15 205.0 207.35 194.0 216.0 178.45 216.0 L173.45 216.0 Q157.95 216.0 146.95 207.35 137.8 200.15 136.25 190.5 L135.95 190.5 135.95 172.95 37.55 172.95 Q22.0 172.95 11.0 164.25 0.0 155.6 0.0 143.35 L0.0 139.4 Q0.0 133.5 2.4 128.05 7.05 122.25 14.2 116.95 100.45 53.3 140.05 12.6 152.65 2.6 168.7 0.5 184.8 -1.6 194.9 5.45 L198.15 7.7 Q208.35 14.75 206.7 31.2 205.0 47.6 170.75 82.15 136.5 116.75 116.5 129.05 L177.6 129.05 Q193.1 129.05 204.1 137.7 L204.35 137.9 204.55 138.05 204.8 138.25 205.0 138.4 Q213.7 145.6 216.0 160.25" fill="#ffffcc" fill-rule="evenodd" stroke="none"/>
    <path d="M445.4 46.6 Q450.65 49.3 454.15 54.2 457.35 58.6 458.85 63.9 460.35 69.4 460.75 75.1 461.15 80.55 459.5 85.6 457.8 90.75 453.4 94.1 449.75 96.9 445.8 99.05 L440.45 102.05 434.55 105.05 Q434.55 110.85 432.25 116.05 430.1 120.85 426.7 124.95 423.65 128.7 419.8 131.7 L418.25 132.9 409.2 130.5 405.3 130.3 Q402.35 130.6 399.6 131.75 398.15 132.35 396.8 133.1 L406.4 135.6 407.75 138.45 Q401.4 141.45 394.25 142.25 L391.35 142.6 391.5 146.45 402.5 148.3 Q404.5 146.65 407.1 145.85 L411.5 145.4 Q413.0 145.55 414.15 146.3 416.1 147.8 417.65 149.6 420.4 153.0 419.4 157.0 419.1 158.25 418.3 159.25 L416.45 161.1 414.15 162.45 Q412.4 163.4 410.5 163.7 L405.75 163.45 Q403.25 162.4 401.8 160.4 400.35 158.3 399.95 155.95 L387.85 152.5 Q384.2 154.3 379.9 154.0 374.3 153.85 369.15 151.6 L365.5 163.45 Q372.75 165.85 380.2 167.85 L386.9 169.55 401.65 173.1 402.55 173.15 Q403.55 172.25 404.1 170.6 404.5 169.5 405.3 168.6 407.0 166.7 409.75 166.2 413.1 165.6 415.35 168.0 416.55 169.25 416.55 171.1 416.6 176.15 413.65 180.4 412.4 182.15 410.5 182.8 408.3 183.75 405.9 183.15 L401.85 182.1 399.7 181.5 397.1 180.7 Q383.1 176.65 369.75 172.3 367.45 171.6 365.55 170.5 L365.65 171.9 Q366.95 180.6 370.6 188.65 373.05 186.0 375.75 183.7 378.1 181.75 380.95 181.7 383.3 181.65 385.1 183.3 387.0 185.1 386.6 187.8 386.25 190.35 384.65 192.5 L382.35 195.45 Q380.65 197.55 378.55 198.9 376.45 200.35 374.25 201.1 372.7 201.7 370.85 201.7 367.95 201.65 365.9 199.6 365.1 198.75 364.6 197.7 363.35 194.9 362.45 192.0 L357.85 178.25 Q356.0 172.75 356.35 167.0 356.4 166.2 356.6 165.45 359.2 156.4 362.75 147.75 361.1 146.0 359.05 145.1 L357.7 144.85 348.95 144.8 338.5 143.9 332.65 143.5 323.7 143.85 319.2 144.2 320.5 157.15 321.75 168.1 Q322.7 175.8 324.65 183.4 325.5 186.65 328.45 188.25 L332.35 190.55 Q334.9 192.1 334.6 194.85 334.45 196.35 333.6 197.35 L332.15 198.65 Q329.95 200.0 327.35 200.35 L318.05 201.85 310.8 203.0 302.8 203.9 Q301.15 203.65 300.15 202.4 298.1 199.85 300.05 196.95 L301.2 195.45 Q302.9 193.55 304.1 191.05 L298.05 152.65 Q294.35 152.4 292.05 149.6 290.15 147.3 289.4 144.55 288.7 142.15 288.6 139.65 288.45 136.3 291.15 134.1 292.8 132.7 294.85 131.8 293.55 123.65 292.55 115.45 L291.7 107.35 291.9 106.1 Q292.35 103.55 291.6 101.4 L291.45 101.1 Q290.35 100.4 288.9 100.75 L282.7 101.35 277.5 102.2 273.15 102.6 271.95 102.35 Q270.05 103.05 268.3 102.1 L263.2 98.8 Q257.95 94.9 253.2 90.35 248.8 86.2 245.75 80.95 L244.35 78.35 Q243.85 77.2 243.7 75.9 243.55 74.45 243.65 72.8 L243.6 70.55 243.05 67.3 Q242.15 63.4 241.7 59.65 L240.15 47.0 238.9 35.05 Q238.75 33.15 239.3 31.4 239.75 30.05 240.95 29.55 L242.7 26.6 245.5 21.9 Q247.4 18.35 249.6 15.0 253.7 8.75 259.0 3.6 260.7 1.9 262.9 0.95 L265.0 0.3 274.6 -0.95 286.7 -2.3 310.8 -4.45 324.8 -5.95 328.45 -6.4 Q330.65 -6.7 332.25 -5.65 333.0 -5.15 333.35 -4.3 333.8 -3.3 333.35 -2.45 L352.5 13.65 Q354.75 13.9 355.55 16.25 L357.0 21.55 357.55 25.8 357.85 36.25 358.0 39.05 Q358.4 44.05 359.1 49.0 L359.3 50.6 Q366.65 47.75 374.6 47.6 379.85 39.85 387.1 33.8 392.8 29.15 399.45 26.65 403.75 24.95 408.3 25.15 414.1 25.25 419.3 28.05 424.7 30.95 428.4 36.05 430.1 38.35 431.0 41.1 L431.8 43.5 Q438.0 43.35 443.8 45.95 L445.4 46.6 M429.1 101.05 Q431.75 97.3 436.1 95.7 L441.9 92.95 Q447.25 90.2 451.0 85.8 452.05 84.55 452.5 82.8 453.9 77.35 452.8 72.05 L451.5 65.9 Q450.35 60.45 446.7 56.25 445.2 54.45 442.95 53.25 437.8 50.65 431.95 50.75 L426.45 50.6 Q424.95 50.25 424.3 48.65 L423.8 47.3 Q422.1 41.9 418.0 38.1 414.3 34.65 409.4 33.9 403.6 33.1 398.55 35.6 394.3 37.75 390.8 40.8 386.6 44.5 383.15 48.9 L379.15 54.0 Q377.7 55.85 375.45 55.35 368.15 57.1 361.1 59.45 356.25 61.1 351.7 63.9 339.7 71.05 335.55 84.15 334.2 88.45 334.0 93.15 333.8 98.3 334.8 103.55 335.75 108.65 337.75 113.15 L345.35 113.1 345.4 109.95 345.15 104.75 344.1 89.1 Q344.0 87.95 344.15 86.8 344.4 85.15 345.75 84.15 348.2 82.45 351.05 81.65 355.55 80.35 360.25 79.9 379.65 78.05 398.55 82.35 405.5 83.85 412.2 86.3 414.7 87.35 417.25 89.0 417.9 89.4 418.05 90.25 417.75 91.05 416.8 91.05 414.0 91.0 411.5 90.25 406.1 88.5 400.6 87.1 L388.8 85.0 376.8 83.75 Q366.75 83.6 356.9 85.95 353.7 86.65 350.8 88.2 L349.4 89.4 Q348.7 92.2 349.2 95.0 L350.15 101.05 Q351.05 108.75 351.35 116.35 L351.15 117.25 Q350.15 119.5 347.5 119.6 L342.05 119.65 343.45 121.45 Q347.05 125.45 351.75 128.25 355.05 130.25 358.8 131.7 372.0 136.85 386.3 136.4 L389.0 136.3 Q388.2 134.35 389.3 132.7 391.1 130.2 393.85 128.7 403.35 123.5 414.05 126.2 L415.55 126.65 Q419.15 123.85 421.85 120.1 424.0 117.15 425.4 113.7 427.1 109.65 427.95 105.2 428.35 103.05 429.1 101.05 M416.95 99.75 Q416.8 101.4 415.85 102.7 415.0 103.9 413.6 104.65 412.2 105.35 410.65 105.35 408.8 105.3 407.25 104.15 405.65 103.1 405.0 101.35 404.35 99.7 404.8 97.85 405.25 96.0 406.65 94.75 408.0 93.55 409.95 93.3 411.85 93.05 413.5 93.85 415.2 94.6 416.15 96.25 417.1 97.95 416.95 99.75 M326.55 83.65 Q327.55 79.85 329.15 76.35 L330.2 74.05 328.7 67.4 325.6 68.35 Q323.65 68.95 321.95 67.8 320.05 66.5 320.25 64.4 320.45 62.2 322.5 61.4 324.85 60.5 327.45 60.25 326.8 54.9 326.6 49.65 326.35 41.7 332.35 36.8 333.2 36.1 334.3 35.85 339.4 34.15 344.25 36.45 345.3 36.9 346.2 37.65 348.75 39.8 349.85 43.15 351.4 48.0 349.25 52.45 348.25 54.45 346.3 55.5 L346.55 56.9 353.15 53.15 349.8 20.9 344.7 16.6 333.1 6.4 Q330.1 3.9 327.85 0.85 L305.05 2.25 266.1 6.4 Q265.35 8.15 264.0 9.5 258.25 15.5 254.1 22.8 L248.95 32.2 Q248.0 33.95 246.45 35.0 245.75 35.55 244.9 35.9 246.25 48.55 248.15 61.65 L248.6 63.9 Q250.1 70.05 250.5 76.4 L256.1 82.1 Q261.1 87.15 266.55 91.35 269.4 93.65 272.3 95.55 L302.15 92.6 301.15 92.55 325.45 89.8 326.55 83.65 M338.3 49.2 Q338.05 45.55 341.45 45.1 L342.2 45.2 341.75 44.5 Q339.55 41.85 336.4 43.05 335.2 43.55 334.65 44.9 334.1 46.3 333.85 47.6 335.1 48.65 336.75 49.0 L337.9 49.2 338.3 49.2 M334.25 57.15 L334.25 59.2 339.2 59.2 339.2 57.15 334.25 57.15 M357.75 97.2 Q357.25 96.35 357.0 95.3 356.45 92.8 358.0 90.55 359.6 88.3 362.25 88.0 364.95 87.75 366.95 89.45 368.75 91.05 369.0 93.4 369.3 96.1 367.5 98.2 366.55 99.25 365.2 99.8 L362.4 100.1 Q359.4 99.75 357.75 97.2 M331.6 117.9 Q328.8 113.35 327.2 108.35 325.4 102.6 325.2 96.8 L315.0 97.75 318.4 135.2 326.35 135.1 Q324.8 132.15 325.5 128.75 L326.25 126.55 Q327.1 124.7 328.55 123.35 330.6 121.45 333.1 120.15 L331.6 117.9 M276.55 41.85 Q277.45 41.05 279.7 40.75 L282.8 40.4 283.75 40.35 283.05 28.65 282.85 23.4 Q282.85 21.4 283.3 20.55 283.65 19.85 284.3 19.45 285.0 19.05 285.7 19.2 287.1 19.55 287.65 22.3 L289.4 31.85 290.2 36.7 290.5 39.7 291.7 39.5 294.45 39.45 Q296.45 39.95 297.1 41.95 297.75 44.0 296.35 45.55 295.4 46.65 293.0 47.3 L291.05 47.75 291.15 48.9 Q291.6 53.8 292.95 58.5 L293.65 61.95 Q293.85 64.0 292.85 65.25 292.05 66.3 290.65 66.55 289.3 66.85 288.15 66.15 286.45 65.1 285.65 61.8 284.65 57.5 284.25 49.35 L284.2 48.2 279.3 47.7 Q277.55 47.4 276.85 46.9 275.55 46.0 275.45 44.45 275.35 42.9 276.55 41.85 M311.1 39.5 L314.0 39.65 Q318.35 40.4 321.0 44.4 322.25 46.5 322.6 48.45 323.05 51.0 322.1 53.55 321.2 56.1 319.2 57.8 L316.85 59.35 Q313.75 60.95 310.55 60.95 306.95 60.95 304.4 59.0 302.2 57.3 301.2 54.35 300.25 51.6 300.7 48.6 301.1 45.7 302.6 43.55 304.3 41.1 306.8 40.15 308.55 39.5 311.1 39.5 M312.85 53.5 Q314.35 53.1 315.05 52.55 316.2 51.75 316.25 50.55 316.3 49.6 315.35 48.25 314.5 46.85 313.5 46.35 312.8 46.0 311.1 46.0 L308.9 46.25 Q307.65 46.65 307.4 47.5 307.25 48.05 307.45 48.75 307.7 50.75 308.25 51.85 309.15 53.6 310.65 53.8 L312.85 53.5 M259.8 49.05 Q260.5 49.9 262.4 49.8 L267.35 49.7 Q271.3 49.6 273.15 50.35 274.6 51.0 275.65 52.2 276.75 53.45 277.15 54.95 278.1 58.15 276.15 61.0 275.3 62.25 273.7 63.5 269.2 67.05 264.45 67.55 L259.35 67.15 Q256.75 66.45 254.9 64.75 252.5 62.55 252.65 60.1 252.75 58.7 253.75 57.65 254.75 56.6 256.05 56.7 257.15 56.75 258.45 57.85 L260.65 59.6 Q262.85 61.0 265.75 60.15 268.05 59.5 270.2 57.4 270.85 56.9 270.55 56.55 L270.0 56.3 263.85 56.2 Q260.1 56.15 257.9 55.2 255.5 54.25 254.1 52.15 252.65 49.85 253.0 47.4 253.3 45.55 254.6 44.0 255.85 42.5 257.7 41.65 260.5 40.35 265.25 40.35 268.75 40.35 270.6 41.6 271.6 42.25 272.15 43.35 272.75 44.45 272.55 45.6 272.35 46.8 271.4 47.6 270.4 48.45 269.25 48.25 L267.5 47.7 265.3 47.5 Q261.2 47.5 259.8 49.05 M301.25 99.5 L301.4 99.05 301.15 99.05 301.25 99.5" fill="#662244" fill-rule="evenodd" stroke="none"/>
    <path d="M416.95 99.75 Q417.1 97.95 416.15 96.25 415.2 94.6 413.5 93.85 411.85 93.05 409.95 93.3 408.0 93.55 406.65 94.75 405.25 96.0 404.8 97.85 404.35 99.7 405.0 101.35 405.65 103.1 407.25 104.15 408.8 105.3 410.65 105.35 412.2 105.35 413.6 104.65 415.0 103.9 415.85 102.7 416.8 101.4 416.95 99.75 M429.1 101.05 Q428.35 103.05 427.95 105.2 427.1 109.65 425.4 113.7 424.0 117.15 421.85 120.1 419.15 123.85 415.55 126.65 L414.05 126.2 Q403.35 123.5 393.85 128.7 391.1 130.2 389.3 132.7 388.2 134.35 389.0 136.3 L386.3 136.4 Q372.0 136.85 358.8 131.7 355.05 130.25 351.75 128.25 347.05 125.45 343.45 121.45 L342.05 119.65 347.5 119.6 Q350.15 119.5 351.15 117.25 L351.35 116.35 Q351.05 108.75 350.15 101.05 L349.2 95.0 Q348.7 92.2 349.4 89.4 L350.8 88.2 Q353.7 86.65 356.9 85.95 366.75 83.6 376.8 83.75 L388.8 85.0 400.6 87.1 Q406.1 88.5 411.5 90.25 414.0 91.0 416.8 91.05 417.75 91.05 418.05 90.25 417.9 89.4 417.25 89.0 414.7 87.35 412.2 86.3 405.5 83.85 398.55 82.35 379.65 78.05 360.25 79.9 355.55 80.35 351.05 81.65 348.2 82.45 345.75 84.15 344.4 85.15 344.15 86.8 344.0 87.95 344.1 89.1 L345.15 104.75 345.4 109.95 345.35 113.1 337.75 113.15 Q335.75 108.65 334.8 103.55 333.8 98.3 334.0 93.15 334.2 88.45 335.55 84.15 339.7 71.05 351.7 63.9 356.25 61.1 361.1 59.45 368.15 57.1 375.45 55.35 377.7 55.85 379.15 54.0 L383.15 48.9 Q386.6 44.5 390.8 40.8 394.3 37.75 398.55 35.6 403.6 33.1 409.4 33.9 414.3 34.65 418.0 38.1 422.1 41.9 423.8 47.3 L424.3 48.65 Q424.95 50.25 426.45 50.6 L431.95 50.75 Q437.8 50.65 442.95 53.25 445.2 54.45 446.7 56.25 450.35 60.45 451.5 65.9 L452.8 72.05 Q453.9 77.35 452.5 82.8 452.05 84.55 451.0 85.8 447.25 90.2 441.9 92.95 L436.1 95.7 Q431.75 97.3 429.1 101.05 M357.75 97.2 Q359.4 99.75 362.4 100.1 L365.2 99.8 Q366.55 99.25 367.5 98.2 369.3 96.1 369.0 93.4 368.75 91.05 366.95 89.45 364.95 87.75 362.25 88.0 359.6 88.3 358.0 90.55 356.45 92.8 357.0 95.3 357.25 96.35 357.75 97.2 M334.25 57.15 L339.2 57.15 339.2 59.2 334.25 59.2 334.25 57.15 M338.3 49.2 L337.9 49.2 336.75 49.0 Q335.1 48.65 333.85 47.6 334.1 46.3 334.65 44.9 335.2 43.55 336.4 43.05 339.55 41.85 341.75 44.5 L342.2 45.2 341.45 45.1 Q338.05 45.55 338.3 49.2 M326.55 83.65 L325.45 89.8 301.15 92.55 302.15 92.6 272.3 95.55 Q269.4 93.65 266.55 91.35 261.1 87.15 256.1 82.1 L250.5 76.4 Q250.1 70.05 248.6 63.9 L248.15 61.65 Q246.25 48.55 244.9 35.9 245.75 35.55 246.45 35.0 248.0 33.95 248.95 32.2 L254.1 22.8 Q258.25 15.5 264.0 9.5 265.35 8.15 266.1 6.4 L305.05 2.25 327.85 0.85 Q330.1 3.9 333.1 6.4 L344.7 16.6 349.8 20.9 353.15 53.15 346.55 56.9 346.3 55.5 Q348.25 54.45 349.25 52.45 351.4 48.0 349.85 43.15 348.75 39.8 346.2 37.65 345.3 36.9 344.25 36.45 339.4 34.15 334.3 35.85 333.2 36.1 332.35 36.8 326.35 41.7 326.6 49.65 326.8 54.9 327.45 60.25 324.85 60.5 322.5 61.4 320.45 62.2 320.25 64.4 320.05 66.5 321.95 67.8 323.65 68.95 325.6 68.35 L328.7 67.4 330.2 74.05 329.15 76.35 Q327.55 79.85 326.55 83.65 M259.8 49.05 Q261.2 47.5 265.3 47.5 L267.5 47.7 269.25 48.25 Q270.4 48.45 271.4 47.6 272.35 46.8 272.55 45.6 272.75 44.45 272.15 43.35 271.6 42.25 270.6 41.6 268.75 40.35 265.25 40.35 260.5 40.35 257.7 41.65 255.85 42.5 254.6 44.0 253.3 45.55 253.0 47.4 252.65 49.85 254.1 52.15 255.5 54.25 257.9 55.2 260.1 56.15 263.85 56.2 L270.0 56.3 270.55 56.55 Q270.85 56.9 270.2 57.4 268.05 59.5 265.75 60.15 262.85 61.0 260.65 59.6 L258.45 57.85 Q257.15 56.75 256.05 56.7 254.75 56.6 253.75 57.65 252.75 58.7 252.65 60.1 252.5 62.55 254.9 64.75 256.75 66.45 259.35 67.15 L264.45 67.55 Q269.2 67.05 273.7 63.5 275.3 62.25 276.15 61.0 278.1 58.15 277.15 54.95 276.75 53.45 275.65 52.2 274.6 51.0 273.15 50.35 271.3 49.6 267.35 49.7 L262.4 49.8 Q260.5 49.9 259.8 49.05 M312.85 53.5 L310.65 53.8 Q309.15 53.6 308.25 51.85 307.7 50.75 307.45 48.75 307.25 48.05 307.4 47.5 307.65 46.65 308.9 46.25 L311.1 46.0 Q312.8 46.0 313.5 46.35 314.5 46.85 315.35 48.25 316.3 49.6 316.25 50.55 316.2 51.75 315.05 52.55 314.35 53.1 312.85 53.5 M311.1 39.5 Q308.55 39.5 306.8 40.15 304.3 41.1 302.6 43.55 301.1 45.7 300.7 48.6 300.25 51.6 301.2 54.35 302.2 57.3 304.4 59.0 306.95 60.95 310.55 60.95 313.75 60.95 316.85 59.35 L319.2 57.8 Q321.2 56.1 322.1 53.55 323.05 51.0 322.6 48.45 322.25 46.5 321.0 44.4 318.35 40.4 314.0 39.65 L311.1 39.5 M276.55 41.85 Q275.35 42.9 275.45 44.45 275.55 46.0 276.85 46.9 277.55 47.4 279.3 47.7 L284.2 48.2 284.25 49.35 Q284.65 57.5 285.65 61.8 286.45 65.1 288.15 66.15 289.3 66.85 290.65 66.55 292.05 66.3 292.85 65.25 293.85 64.0 293.65 61.95 L292.95 58.5 Q291.6 53.8 291.15 48.9 L291.05 47.75 293.0 47.3 Q295.4 46.65 296.35 45.55 297.75 44.0 297.1 41.95 296.45 39.95 294.45 39.45 L291.7 39.5 290.5 39.7 290.2 36.7 289.4 31.85 287.65 22.3 Q287.1 19.55 285.7 19.2 285.0 19.05 284.3 19.45 283.65 19.85 283.3 20.55 282.85 21.4 282.85 23.4 L283.05 28.65 283.75 40.35 282.8 40.4 279.7 40.75 Q277.45 41.05 276.55 41.85" fill="#ff6633" fill-rule="evenodd" stroke="none"/>
    <path d="M426.4 21.05 L421.55 -37.55 457.25 -28.9 426.4 21.05 M450.1 -6.0 L462.1 15.05 431.3 24.85 450.1 -6.0 M479.0 126.6 L480.2 127.1 479.1 126.65 479.0 126.6 M256.25 184.15 L241.2 191.3 235.95 182.3 256.25 184.15 M259.25 189.75 L245.75 222.15 231.45 205.6 259.25 189.75" fill="#ffffcc" fill-rule="evenodd" stroke="none"/>
    <path d="M286.65 -2.8 L310.75 -4.95 324.75 -6.45 328.4 -6.9 Q330.8 -7.2 332.55 -6.05 333.4 -5.5 333.8 -4.5 334.25 -3.5 333.95 -2.55 L352.7 13.2 Q355.15 13.5 356.05 16.1 L357.5 21.45 Q357.95 23.65 358.05 25.8 L358.35 36.25 358.5 39.0 Q358.9 44.0 359.6 48.95 L359.75 49.9 Q366.75 47.3 374.35 47.1 379.55 39.45 386.8 33.45 392.55 28.7 399.3 26.2 403.65 24.45 408.3 24.65 414.25 24.75 419.55 27.6 425.05 30.55 428.8 35.75 430.55 38.1 431.5 40.95 L432.15 43.0 Q438.25 42.9 444.0 45.5 L445.6 46.15 445.65 46.15 Q451.0 48.9 454.55 53.9 457.8 58.4 459.35 63.8 460.85 69.3 461.25 75.1 461.65 80.6 460.0 85.75 458.25 91.05 453.7 94.5 450.05 97.35 446.05 99.5 L440.7 102.5 435.05 105.4 Q435.0 111.1 432.7 116.25 430.5 121.1 427.1 125.3 424.0 129.05 420.1 132.1 L418.55 133.3 418.35 133.4 418.15 133.4 409.1 131.0 409.05 131.0 405.4 130.8 405.35 130.8 Q402.5 131.1 399.8 132.2 398.95 132.55 398.15 132.95 L406.55 135.15 406.75 135.25 406.85 135.4 408.2 138.25 408.25 138.65 408.0 138.9 Q401.55 141.95 394.3 142.75 L391.9 143.05 392.0 146.05 402.4 147.8 Q404.4 146.15 406.95 145.4 409.25 144.7 411.55 144.9 413.2 145.05 414.45 145.9 416.45 147.45 418.05 149.3 420.95 152.9 419.9 157.15 419.55 158.45 418.7 159.55 L416.75 161.5 416.75 161.55 414.4 162.9 Q412.6 163.9 410.6 164.2 L405.6 163.95 405.55 163.9 Q402.9 162.8 401.4 160.7 399.95 158.6 399.5 156.35 L387.95 153.05 Q384.2 154.8 379.9 154.5 374.45 154.35 369.5 152.3 L366.15 163.15 Q373.15 165.45 380.35 167.4 L387.05 169.1 401.75 172.6 402.4 172.65 403.65 170.45 Q404.05 169.25 404.95 168.3 406.75 166.25 409.65 165.7 413.3 165.05 415.75 167.65 L415.7 167.65 Q417.05 169.05 417.05 171.1 417.1 176.3 414.05 180.7 412.7 182.6 410.65 183.3 L405.8 183.65 401.7 182.6 401.75 182.6 399.6 182.0 399.55 182.0 396.95 181.2 369.6 172.8 366.1 171.35 366.15 171.85 Q367.4 180.1 370.75 187.75 373.0 185.4 375.45 183.35 377.9 181.25 380.95 181.2 383.5 181.15 385.45 182.95 387.55 184.9 387.1 187.9 386.75 190.55 385.05 192.8 L382.75 195.8 Q381.0 197.95 378.85 199.35 L378.85 199.3 Q376.65 200.8 374.4 201.6 L374.45 201.6 Q372.8 202.2 370.85 202.2 367.75 202.15 365.55 199.95 L364.15 197.95 364.15 197.9 Q362.9 195.1 362.0 192.15 L357.4 178.45 357.4 178.4 Q355.5 172.8 355.85 167.0 L356.15 165.35 356.15 165.3 Q358.7 156.4 362.2 147.9 360.65 146.35 358.85 145.55 L358.9 145.6 357.7 145.35 348.95 145.3 338.45 144.4 332.65 144.0 323.75 144.35 319.75 144.65 321.0 157.1 322.25 168.05 Q323.2 175.7 325.15 183.3 325.95 186.3 328.7 187.8 L328.7 187.85 332.65 190.15 332.6 190.15 Q335.45 191.85 335.1 194.9 334.95 196.55 334.0 197.7 L332.45 199.1 332.4 199.1 Q330.15 200.5 327.45 200.85 L318.15 202.35 310.85 203.5 302.85 204.4 302.75 204.4 Q300.85 204.1 299.75 202.7 L299.75 202.75 Q297.45 199.9 299.65 196.7 L300.85 195.1 300.85 195.15 Q302.45 193.3 303.6 191.0 L297.6 153.15 Q294.0 152.75 291.7 149.95 289.7 147.55 288.95 144.7 288.2 142.25 288.1 139.7 287.95 136.05 290.85 133.7 L290.85 133.75 Q292.4 132.4 294.3 131.5 L292.05 115.5 291.2 107.4 291.2 107.3 291.4 106.05 Q291.85 103.6 291.15 101.6 L291.15 101.55 291.1 101.5 Q290.2 100.95 289.05 101.25 L288.9 101.25 282.85 101.85 282.8 101.85 277.6 102.7 277.65 102.7 273.15 103.1 273.05 103.1 272.0 102.9 Q269.95 103.6 268.05 102.55 265.4 101.05 262.9 99.2 257.6 95.3 252.85 90.7 L252.85 90.75 Q248.4 86.5 245.35 81.2 L243.9 78.6 243.9 78.55 Q243.35 77.35 243.2 75.95 243.05 74.45 243.15 72.8 L243.15 72.75 243.1 70.6 242.55 67.4 242.6 67.45 Q241.65 63.5 241.2 59.75 L239.65 47.05 238.4 35.1 Q238.25 33.1 238.85 31.25 239.3 29.8 240.6 29.2 241.3 27.7 242.3 26.35 L245.05 21.7 Q246.95 18.1 249.2 14.75 253.3 8.45 258.65 3.25 260.4 1.5 262.7 0.5 L262.75 0.5 Q263.75 0.05 264.9 -0.15 L264.95 -0.2 274.55 -1.45 286.65 -2.8 M423.35 47.45 Q421.65 42.2 417.65 38.5 414.05 35.15 409.35 34.4 403.7 33.6 398.8 36.05 394.6 38.15 391.15 41.2 386.95 44.85 383.55 49.2 L379.55 54.3 Q377.95 56.4 375.45 55.9 368.2 57.6 361.25 59.95 356.45 61.55 351.95 64.35 340.1 71.4 336.05 84.3 334.7 88.55 334.5 93.2 334.3 98.25 335.3 103.45 336.2 108.35 338.1 112.65 L344.9 112.6 344.9 110.0 344.65 104.8 Q344.35 97.0 343.6 89.15 L343.65 86.75 Q343.95 84.85 345.45 83.75 L345.5 83.75 Q348.0 82.0 350.95 81.2 L350.9 81.2 Q355.45 79.85 360.2 79.4 379.7 77.55 398.65 81.9 L398.65 81.85 Q405.65 83.35 412.4 85.85 414.95 86.9 417.55 88.6 L417.5 88.6 Q418.35 89.1 418.55 90.2 L418.55 90.45 Q418.1 91.55 416.8 91.55 413.9 91.5 411.35 90.75 405.95 89.0 400.5 87.6 L388.75 85.5 376.8 84.25 Q366.8 84.1 357.05 86.45 L357.0 86.45 Q353.85 87.15 351.05 88.65 L351.1 88.6 349.85 89.65 Q349.2 92.3 349.7 94.9 L350.65 101.0 Q351.55 108.7 351.85 116.35 L351.6 117.45 Q350.5 120.0 347.55 120.1 L347.5 120.1 343.05 120.15 343.85 121.15 Q347.35 125.05 352.0 127.85 355.25 129.8 359.0 131.25 372.1 136.35 386.3 135.9 L388.35 135.85 Q387.85 134.0 388.9 132.45 L388.9 132.4 Q390.75 129.8 393.6 128.25 403.3 122.95 414.2 125.75 L415.45 126.1 Q418.85 123.4 421.45 119.8 423.55 116.9 424.95 113.5 426.6 109.5 427.45 105.1 427.85 102.9 428.65 100.9 L428.7 100.75 Q431.45 96.9 435.95 95.25 L435.9 95.25 441.7 92.5 Q446.95 89.8 450.65 85.5 451.6 84.3 452.05 82.7 453.4 77.35 452.3 72.15 L451.0 66.0 Q449.9 60.7 446.35 56.6 444.9 54.85 442.75 53.7 437.7 51.15 431.95 51.25 L426.4 51.1 426.35 51.1 Q424.6 50.7 423.85 48.85 L423.35 47.45 M406.35 94.4 Q407.75 93.05 409.9 92.8 411.95 92.55 413.75 93.4 L413.7 93.4 Q415.55 94.2 416.6 96.0 417.6 97.85 417.45 99.8 417.3 101.6 416.25 103.0 415.35 104.3 413.85 105.1 412.3 105.85 410.65 105.85 408.65 105.8 407.0 104.6 405.25 103.45 404.55 101.55 403.85 99.75 404.35 97.75 404.8 95.75 406.35 94.4 M349.35 21.15 L344.4 17.0 332.8 6.8 Q329.85 4.35 327.6 1.35 L305.1 2.75 266.45 6.9 Q265.65 8.55 264.35 9.85 258.65 15.8 254.55 23.05 L249.4 32.45 Q248.4 34.3 246.75 35.45 L245.45 36.2 Q246.8 48.65 248.65 61.6 L249.1 63.8 Q250.55 69.9 251.0 76.2 L256.45 81.75 Q261.45 86.75 266.85 90.95 L266.9 90.95 Q269.65 93.2 272.45 95.05 L300.8 92.25 Q300.9 92.05 301.1 92.05 L325.05 89.35 326.05 83.55 326.1 83.55 Q327.1 79.7 328.7 76.15 L329.7 74.0 328.35 68.1 325.7 68.85 325.75 68.85 Q323.55 69.5 321.7 68.25 319.5 66.75 319.75 64.35 320.0 61.85 322.35 60.95 324.5 60.1 326.9 59.8 326.3 54.7 326.1 49.7 325.85 41.5 332.05 36.45 332.95 35.65 334.2 35.4 L334.15 35.4 Q339.45 33.6 344.5 36.0 L344.45 36.0 346.55 37.3 Q349.2 39.5 350.35 43.0 351.95 48.05 349.7 52.7 348.7 54.65 346.85 55.75 L346.95 56.15 352.65 52.9 349.35 21.15 M336.95 48.55 L337.8 48.7 Q337.75 45.15 341.2 44.65 339.3 42.5 336.6 43.55 L336.6 43.5 Q335.6 43.95 335.15 45.1 L334.4 47.4 Q335.5 48.2 336.85 48.5 L336.95 48.55 M338.7 58.7 L338.7 57.65 334.75 57.65 334.75 58.7 338.7 58.7 M357.35 97.45 Q356.8 96.55 356.55 95.45 L356.5 95.4 Q355.9 92.7 357.6 90.3 L357.6 90.25 Q359.35 87.8 362.2 87.5 365.1 87.25 367.3 89.1 369.25 90.8 369.5 93.35 369.8 96.25 367.9 98.55 366.85 99.65 365.4 100.3 L365.35 100.3 362.35 100.6 Q359.1 100.2 357.35 97.5 L357.35 97.45 M328.2 123.0 Q330.1 121.2 332.4 120.0 L331.2 118.2 331.2 118.15 Q328.35 113.55 326.75 108.5 325.0 102.95 324.75 97.35 L315.55 98.2 318.85 134.7 325.55 134.6 Q324.35 131.8 325.0 128.65 L325.05 128.65 325.8 126.35 Q326.7 124.4 328.2 123.0 M285.85 18.75 Q287.5 19.05 288.15 22.2 L289.9 31.75 290.7 36.65 290.95 39.1 291.65 39.0 Q293.45 38.7 294.6 39.0 296.85 39.55 297.6 41.8 298.3 44.1 296.75 45.9 295.7 47.1 293.15 47.8 L291.6 48.15 291.65 48.85 Q292.1 53.7 293.45 58.35 L293.45 58.4 294.15 61.9 294.15 61.95 Q294.35 64.2 293.25 65.55 292.35 66.75 290.75 67.05 289.2 67.4 287.9 66.6 286.0 65.45 285.2 61.95 284.15 57.6 283.75 49.4 L283.75 48.7 279.25 48.2 Q277.3 47.85 276.55 47.3 L276.6 47.3 Q275.05 46.25 274.95 44.5 274.85 42.7 276.25 41.5 277.2 40.6 279.65 40.25 L282.75 39.9 282.8 39.9 283.25 39.9 282.55 28.7 282.35 23.4 Q282.35 21.25 282.85 20.35 283.25 19.5 284.05 19.05 284.9 18.5 285.8 18.7 L285.85 18.75 M300.2 48.55 Q300.6 45.5 302.2 43.3 304.0 40.7 306.65 39.7 308.45 39.0 311.1 39.0 L314.1 39.15 Q318.65 39.95 321.45 44.15 322.75 46.35 323.1 48.35 L323.1 48.4 Q323.55 51.05 322.6 53.75 321.65 56.4 319.55 58.2 L317.1 59.8 Q313.85 61.45 310.55 61.45 306.75 61.45 304.1 59.4 301.8 57.6 300.75 54.5 L300.75 54.55 Q299.75 51.65 300.2 48.55 M309.05 46.75 Q308.1 47.05 307.9 47.65 307.75 48.1 307.95 48.65 L307.95 48.7 Q308.2 50.6 308.7 51.65 309.45 53.1 310.75 53.3 L310.8 53.35 312.7 53.05 312.75 53.05 314.75 52.15 314.8 52.15 Q315.7 51.5 315.75 50.55 315.75 49.7 314.95 48.55 L314.95 48.5 Q314.15 47.25 313.3 46.8 L311.1 46.5 309.1 46.75 309.05 46.75 M254.25 43.7 Q255.55 42.1 257.5 41.2 260.35 39.85 265.25 39.85 268.95 39.85 270.9 41.2 272.0 41.9 272.6 43.15 L272.6 43.1 Q273.3 44.35 273.05 45.7 272.8 47.05 271.75 48.0 270.55 49.0 269.2 48.75 L269.1 48.75 267.4 48.2 265.3 48.0 Q262.0 48.0 260.6 49.05 L262.4 49.3 267.35 49.2 Q271.45 49.1 273.35 49.9 274.9 50.6 276.05 51.9 277.2 53.2 277.65 54.85 L277.65 54.8 Q278.65 58.25 276.6 61.3 275.7 62.6 274.0 63.9 269.4 67.55 264.5 68.05 L259.25 67.65 Q256.5 66.9 254.55 65.15 251.95 62.75 252.15 60.1 252.25 58.5 253.4 57.3 254.55 56.1 256.1 56.2 257.3 56.25 258.8 57.5 L260.9 59.2 260.95 59.2 Q262.95 60.45 265.6 59.7 L265.65 59.7 Q267.8 59.05 269.85 57.05 L269.9 57.0 270.15 56.9 269.95 56.8 263.85 56.7 Q259.95 56.65 257.7 55.65 L257.75 55.7 Q255.15 54.65 253.7 52.45 252.1 49.95 252.5 47.35 252.85 45.35 254.25 43.7 M301.3 99.4 L301.25 99.4 301.3 99.4" fill="#662244" fill-rule="evenodd" stroke="none"/>
  </g>
</svg>
