<?xml version="1.0" encoding="UTF-8" standalone="no"?>
<svg xmlns:ffdec="https://www.free-decompiler.com/flash" xmlns:xlink="http://www.w3.org/1999/xlink" ffdec:objectType="shape" height="295.55px" width="685.9px" xmlns="http://www.w3.org/2000/svg">
  <g transform="matrix(1.0, 0.0, 0.0, 1.0, 0.0, 14.0)">
    <path d="M673.8 253.95 Q673.2 255.1 672.6 255.25 671.75 255.45 670.8 254.15 670.15 253.1 669.8 251.75 L667.85 234.7 Q667.55 232.05 668.05 230.7 668.5 229.35 669.8 228.5 671.05 227.6 672.55 227.7 674.05 227.75 675.2 228.8 676.4 229.8 676.75 231.15 677.0 232.45 676.55 234.65 675.45 241.5 675.0 246.85 L674.75 250.45 Q674.55 252.35 673.8 253.95 M672.6 268.95 Q671.3 269.0 669.95 268.3 668.65 267.45 668.1 266.3 667.65 265.4 667.6 264.45 667.6 263.1 668.4 261.75 669.05 260.6 670.4 259.95 671.65 259.4 673.1 259.6 674.5 259.75 675.5 260.8 676.55 261.7 676.9 263.1 677.25 264.5 676.8 265.75 676.3 267.1 675.15 267.95 673.95 268.9 672.6 268.95 M442.4 249.05 L442.65 247.05 Q443.0 245.35 444.8 244.7 L446.8 244.55 Q448.0 244.65 449.05 245.6 450.05 246.55 450.2 248.75 L450.3 257.25 Q450.3 260.3 451.45 262.0 452.65 263.75 454.15 263.95 L456.6 263.85 Q457.8 263.55 459.05 262.2 460.2 260.9 460.35 258.75 L460.5 252.15 460.4 248.8 Q460.4 246.75 461.65 245.4 462.7 244.2 464.9 244.5 467.1 244.75 467.65 246.4 L468.3 249.75 468.35 259.5 Q468.15 262.1 466.3 264.75 464.55 267.35 461.4 268.4 458.6 269.35 454.9 269.45 451.05 269.45 448.65 268.35 L448.0 268.0 Q445.15 266.35 443.7 263.6 442.15 259.65 442.15 255.2 L442.15 252.95 Q442.15 250.75 442.4 249.05 M389.95 247.6 Q391.0 248.55 392.25 250.65 393.35 252.55 393.55 254.95 393.85 257.3 393.05 260.4 392.3 263.5 390.8 265.15 389.2 266.9 387.6 267.65 L387.55 267.7 384.5 268.7 380.5 269.15 375.75 268.75 Q372.95 268.05 371.15 266.7 369.2 265.2 368.1 263.05 366.9 260.7 366.55 258.35 366.25 255.85 366.8 253.55 367.45 250.9 369.05 249.0 370.6 247.05 373.05 245.75 L373.1 245.75 Q375.2 244.75 378.0 244.4 380.3 244.05 382.7 244.4 385.3 244.85 386.9 245.65 L387.55 246.0 Q389.05 246.8 389.95 247.6 M379.35 250.25 Q377.15 250.6 375.5 252.0 374.65 252.75 374.25 253.65 L374.25 253.6 Q373.3 255.65 373.5 257.45 373.65 259.15 374.25 260.4 374.8 261.45 375.9 262.25 377.15 263.05 378.55 263.25 L381.3 263.25 383.6 262.5 385.25 261.3 385.25 261.25 386.5 259.3 Q387.05 258.0 386.75 255.85 386.45 253.65 385.3 252.2 384.2 250.9 383.0 250.55 L379.35 250.25 M593.85 249.95 Q595.2 248.15 596.8 246.9 598.6 245.55 600.75 244.85 L603.2 244.15 Q605.55 243.65 608.2 244.1 610.55 244.6 612.05 245.35 L612.05 241.25 Q612.05 238.85 612.2 237.7 612.35 236.05 612.8 234.2 613.1 232.75 614.05 231.45 614.75 230.4 615.8 229.85 616.85 229.3 617.5 229.35 L619.15 229.65 Q620.1 229.9 620.4 231.05 620.75 232.2 620.15 233.3 L619.0 235.2 Q618.4 236.1 618.4 239.1 L618.3 257.05 618.05 259.95 Q617.65 263.05 616.05 264.75 L613.6 267.0 611.3 267.9 608.45 268.55 605.0 268.8 600.05 268.05 Q597.7 267.25 596.1 265.65 594.8 264.35 593.5 261.9 592.4 259.75 592.25 257.65 592.0 255.45 592.6 253.15 593.05 251.4 593.85 249.95 M598.6 254.8 Q598.3 257.25 599.4 259.5 600.6 261.95 603.1 262.6 L605.7 262.95 Q608.55 262.95 610.4 261.4 L611.5 260.25 Q612.5 258.95 612.5 257.45 612.5 254.9 611.5 252.9 L610.9 251.9 Q609.4 250.2 607.2 249.7 605.1 249.25 603.4 249.75 601.8 250.25 600.95 250.95 L599.7 252.4 Q599.25 253.0 598.6 254.8 M518.1 245.25 Q519.1 244.25 520.35 244.2 521.55 244.2 522.2 244.85 L523.05 245.8 523.4 246.4 Q527.75 243.9 532.9 244.55 535.2 244.7 537.15 245.9 539.2 247.15 540.4 248.7 541.35 250.0 542.25 252.4 L543.35 257.6 543.65 264.55 Q543.65 266.1 542.95 267.4 L542.05 268.4 540.7 268.85 539.35 268.75 Q538.45 268.45 537.95 268.0 537.4 267.6 537.15 266.95 L536.65 265.45 536.55 264.45 536.55 259.3 Q536.4 256.45 535.8 254.3 535.3 252.8 534.2 251.8 533.3 251.0 532.3 250.85 530.3 250.55 528.25 251.4 526.15 252.2 525.25 254.15 523.8 256.9 524.1 260.05 L524.35 264.5 524.05 267.0 Q523.7 268.0 522.75 268.55 522.0 269.05 521.25 269.05 519.6 269.2 518.25 268.05 517.05 266.9 517.05 265.4 L517.05 258.25 Q517.0 253.2 517.45 247.15 517.45 246.75 517.6 246.4 L518.1 245.25 M113.5 247.6 Q114.55 248.55 115.8 250.65 116.9 252.55 117.1 254.95 117.4 257.3 116.6 260.4 115.85 263.5 114.35 265.15 112.75 266.9 111.15 267.65 L111.1 267.7 108.05 268.7 104.05 269.15 99.3 268.75 Q96.5 268.05 94.7 266.7 92.75 265.2 91.65 263.05 90.45 260.7 90.1 258.35 89.8 255.85 90.35 253.55 91.0 250.9 92.6 249.0 94.15 247.05 96.6 245.75 L96.65 245.75 Q98.75 244.75 101.55 244.4 103.85 244.05 106.25 244.4 108.85 244.85 110.45 245.65 L111.1 246.0 Q112.6 246.8 113.5 247.6 M102.9 250.25 Q100.7 250.6 99.05 252.0 98.2 252.75 97.8 253.65 L97.8 253.6 Q96.85 255.65 97.05 257.45 97.2 259.15 97.8 260.4 98.35 261.45 99.45 262.25 100.7 263.05 102.1 263.25 L104.85 263.25 Q106.15 263.05 107.15 262.5 L108.8 261.3 108.8 261.25 110.05 259.3 Q110.6 258.0 110.3 255.85 110.0 253.65 108.85 252.2 107.75 250.9 106.55 250.55 L102.9 250.25 M16.65 245.25 Q17.65 244.25 18.9 244.2 20.1 244.2 20.75 244.85 L21.6 245.8 21.95 246.4 Q26.3 243.9 31.45 244.55 33.75 244.7 35.7 245.9 37.75 247.15 38.95 248.7 39.9 250.0 40.8 252.4 L41.9 257.6 42.2 264.55 Q42.2 266.1 41.5 267.4 L40.6 268.4 39.25 268.85 37.9 268.75 Q37.0 268.45 36.5 268.0 35.95 267.6 35.7 266.95 L35.2 265.45 35.1 264.45 35.1 259.3 Q34.95 256.45 34.35 254.3 33.85 252.8 32.75 251.8 31.85 251.0 30.85 250.85 28.85 250.55 26.8 251.4 24.7 252.2 23.8 254.15 22.35 256.9 22.65 260.05 L22.9 264.5 22.6 267.0 Q22.25 268.0 21.3 268.55 20.55 269.05 19.8 269.05 18.15 269.2 16.8 268.05 15.6 266.9 15.6 265.4 L15.6 258.25 Q15.55 253.2 16.0 247.15 16.0 246.75 16.15 246.4 L16.65 245.25 M313.95 239.85 Q311.35 238.7 309.25 240.45 308.65 240.95 308.6 241.6 308.45 243.35 308.45 245.15 L309.05 254.95 314.35 254.95 315.3 255.35 Q316.85 256.1 317.05 257.9 317.1 258.85 316.45 259.65 L315.4 260.55 Q314.85 260.9 314.1 260.9 L311.25 261.35 309.35 261.35 Q309.5 269.55 309.15 275.85 L308.9 277.35 308.45 278.85 307.85 279.9 306.8 280.85 305.7 281.4 304.3 281.55 Q303.0 281.35 302.2 280.0 301.3 278.8 301.6 277.5 L302.2 275.65 302.45 273.5 302.35 261.3 Q299.8 261.3 297.85 260.2 297.2 259.85 297.0 259.25 296.45 257.65 297.8 256.8 299.05 256.0 300.15 255.65 L302.0 255.2 301.6 244.55 Q301.55 240.55 303.7 236.8 304.25 235.85 305.2 235.25 306.5 234.3 307.4 233.95 L309.85 233.2 314.25 233.4 315.75 233.95 Q317.95 234.9 319.35 236.6 L320.2 238.2 320.6 239.25 320.8 240.2 Q321.0 240.85 320.7 241.5 L319.9 242.75 319.4 243.2 319.1 243.3 318.1 243.5 Q315.95 243.3 315.15 241.05 L314.9 240.35 313.95 239.85 M171.3 265.25 Q170.9 263.6 171.0 261.8 L171.2 250.55 168.95 250.45 Q167.65 250.3 166.7 249.85 165.5 249.45 165.05 248.45 L164.9 248.0 164.9 247.15 Q164.95 246.75 165.3 246.3 165.8 245.7 166.55 245.35 167.35 244.95 168.45 244.7 L171.35 244.6 171.15 237.3 Q171.1 236.0 171.55 234.45 172.05 232.95 173.6 232.45 175.1 232.05 176.45 233.05 177.45 233.8 177.65 235.05 L177.85 238.5 177.8 242.4 177.8 244.6 181.1 244.6 Q182.9 244.75 183.6 245.55 184.3 246.35 184.1 247.6 183.8 249.05 182.75 249.7 181.6 250.45 180.65 250.55 L177.85 250.65 177.8 254.75 Q177.8 256.95 178.1 260.65 L178.2 265.05 177.6 267.0 Q177.15 267.85 176.7 268.1 L175.3 268.5 Q174.2 268.7 172.9 267.8 171.75 266.95 171.3 265.25" fill="#ffffcc" fill-rule="evenodd" stroke="none"/>
    <path d="M685.9 160.25 L685.9 190.5 685.6 190.5 Q684.0 200.15 674.9 207.35 663.9 216.0 648.35 216.0 L643.35 216.0 Q627.85 216.0 616.85 207.35 607.7 200.15 606.15 190.5 L605.85 190.5 605.85 172.95 507.45 172.95 Q491.9 172.95 480.9 164.25 469.9 155.6 469.9 143.35 L469.9 139.4 Q469.9 133.5 472.3 128.05 476.95 122.25 484.1 116.95 570.35 53.3 609.95 12.6 622.55 2.6 638.6 0.5 654.7 -1.6 664.8 5.45 L668.05 7.7 Q678.25 14.75 676.6 31.2 674.9 47.6 640.65 82.15 606.4 116.75 586.4 129.05 L647.5 129.05 Q663.0 129.05 674.0 137.7 L674.25 137.9 674.45 138.05 674.7 138.25 674.9 138.4 Q683.6 145.6 685.9 160.25 M451.25 108.0 Q451.25 152.75 419.65 184.35 388.0 216.0 343.25 216.0 298.5 216.0 266.9 184.35 235.25 152.75 235.25 108.0 235.25 63.25 266.9 31.6 298.5 0.0 343.25 0.0 388.0 0.0 419.65 31.6 451.25 63.25 451.25 108.0 M216.0 160.25 L216.0 190.5 215.7 190.5 Q214.1 200.15 205.0 207.35 194.0 216.0 178.45 216.0 L173.45 216.0 Q157.95 216.0 146.95 207.35 137.8 200.15 136.25 190.5 L135.95 190.5 135.95 172.95 37.55 172.95 Q22.0 172.95 11.0 164.25 0.0 155.6 0.0 143.35 L0.0 139.4 Q0.0 133.5 2.4 128.05 7.05 122.25 14.2 116.95 100.45 53.3 140.05 12.6 152.65 2.6 168.7 0.5 184.8 -1.6 194.9 5.45 L198.15 7.7 Q208.35 14.75 206.7 31.2 205.0 47.6 170.75 82.15 136.5 116.75 116.5 129.05 L177.6 129.05 Q193.1 129.05 204.1 137.7 L204.35 137.9 204.55 138.05 204.8 138.25 205.0 138.4 Q213.7 145.6 216.0 160.25" fill="#ffffcc" fill-rule="evenodd" stroke="none"/>
    <path d="M325.55 22.55 L342.05 24.45 Q345.15 17.6 351.15 12.85 356.1 8.8 361.65 6.05 368.7 2.45 376.7 3.0 370.25 -0.9 362.6 -2.05 356.75 -2.85 351.1 -1.25 341.9 1.2 335.3 8.2 331.45 12.1 328.65 16.8 L325.9 21.55 325.55 22.55 M258.05 53.5 Q254.15 46.95 257.3 40.05 258.7 36.9 261.3 34.6 265.85 30.6 271.25 28.3 275.05 26.55 278.95 25.0 283.6 20.05 289.6 16.55 303.85 8.25 320.05 5.25 L327.2 4.3 332.55 4.55 Q341.4 -6.7 355.3 -8.9 362.15 -9.7 368.85 -7.75 373.85 -6.25 378.6 -3.75 385.25 -0.1 389.85 5.5 L390.15 5.9 Q404.55 12.55 416.75 23.25 420.1 26.15 423.25 29.4 L426.0 32.95 Q429.65 38.95 432.3 45.7 L433.05 47.95 433.65 49.75 434.55 52.8 Q436.1 58.65 434.75 64.45 434.05 67.55 432.95 70.75 L431.7 73.55 Q430.9 74.8 429.5 75.15 435.35 78.55 439.15 84.2 442.05 88.55 442.85 93.7 L443.05 97.25 Q442.9 100.0 441.75 102.45 L437.85 110.5 Q445.05 111.0 451.45 108.0 452.35 107.6 453.3 108.35 454.65 109.55 454.75 111.15 454.9 115.55 452.5 119.1 L449.65 123.0 446.45 126.25 443.05 129.45 Q439.75 132.6 435.6 134.9 L432.1 136.65 Q433.85 139.4 431.95 141.85 L430.75 142.65 426.15 143.3 415.2 144.45 Q418.85 149.55 419.25 156.0 419.45 158.55 418.55 161.1 417.45 164.15 415.05 166.3 L420.35 174.7 423.05 179.8 Q424.05 181.9 424.3 184.15 424.95 190.15 421.05 194.75 L418.35 197.55 415.1 200.05 411.95 201.8 Q407.4 203.8 402.4 202.7 L396.45 201.1 393.85 199.95 393.8 200.1 Q393.3 201.6 391.5 203.25 382.1 211.95 363.85 210.3 L349.3 208.05 Q340.15 206.4 334.75 206.2 L323.45 206.6 312.05 207.1 Q298.3 207.0 290.8 200.8 288.45 198.85 287.65 196.95 L285.2 197.75 Q280.6 199.05 275.9 197.8 L273.4 196.9 270.9 195.9 268.85 194.5 Q265.25 191.55 263.1 187.6 L261.9 185.25 Q260.85 183.4 260.65 181.35 260.35 178.1 260.85 174.9 261.75 169.95 265.45 166.4 268.75 163.2 272.55 160.95 L273.15 160.55 Q271.4 158.95 270.5 156.6 L269.7 154.05 Q258.65 155.45 250.3 147.9 245.55 143.6 242.05 138.3 240.4 135.7 240.55 132.7 240.75 130.2 242.7 128.9 234.4 119.65 232.95 107.3 232.15 100.45 233.45 93.85 234.45 88.55 236.5 83.7 241.8 71.5 251.5 62.4 L259.35 55.3 258.05 53.5 M441.8 17.1 Q442.5 19.85 441.65 21.2 440.75 22.45 438.25 22.45 L434.4 22.3 Q433.45 22.45 432.95 22.8 432.4 23.3 431.75 24.75 431.05 26.2 430.45 26.65 L430.3 26.85 429.65 27.5 Q429.05 28.0 427.95 27.9 427.0 27.8 426.4 27.05 L426.15 26.65 424.95 26.05 Q423.35 25.1 421.85 23.05 415.85 15.45 416.05 4.15 416.15 -3.5 419.75 -8.1 L421.65 -10.15 Q426.0 -14.0 432.4 -14.0 437.95 -13.9 443.35 -10.6 448.95 -7.0 449.9 -2.2 450.55 0.95 448.9 4.1 447.25 7.2 444.25 8.65 L442.15 9.5 440.3 10.85 441.45 15.6 Q441.1 13.95 441.65 12.75 442.3 10.85 444.55 9.8 L448.6 8.4 Q451.3 7.45 452.25 7.45 L455.3 7.85 458.85 8.75 Q460.8 9.45 462.15 10.4 463.55 11.4 465.6 14.2 467.45 16.85 468.05 18.25 468.65 20.05 468.7 22.4 468.8 24.8 468.35 26.7 467.55 30.45 465.15 33.1 462.0 36.7 456.65 38.25 452.8 39.5 446.75 39.45 438.25 39.2 433.25 36.05 431.05 34.75 430.55 33.2 430.15 31.95 430.8 29.65 431.55 26.6 432.75 25.55 434.05 24.35 436.35 24.4 L440.1 24.8 443.8 25.2 Q443.45 22.15 442.5 19.2 L441.8 17.1 M439.55 -4.6 L438.05 -5.1 433.7 -6.25 431.15 -6.35 429.0 -5.75 426.4 -4.3 Q425.75 -3.6 425.15 -2.35 423.2 1.95 423.65 7.6 424.1 12.1 426.15 17.35 427.25 20.1 428.35 21.15 L428.95 19.6 Q429.2 18.55 429.65 18.1 430.45 17.3 432.55 17.4 L435.55 17.7 Q433.35 13.45 434.05 8.8 434.4 5.55 436.35 4.65 L438.7 3.9 441.35 2.35 442.75 1.2 Q443.2 0.35 442.65 -0.8 L441.35 -2.55 440.45 -3.75 439.55 -4.6 M453.6 31.9 Q456.9 31.15 458.6 29.9 460.35 28.7 461.25 26.55 462.2 24.45 461.95 22.2 461.7 20.1 460.4 18.15 459.05 16.35 457.05 15.35 455.15 14.4 452.85 14.45 450.55 14.45 448.6 15.5 L449.6 20.2 Q450.35 24.05 450.35 25.6 450.2 28.8 448.45 30.65 447.5 31.65 446.1 32.0 L445.35 32.2 453.6 31.9 M346.6 25.2 Q352.2 26.25 357.8 27.65 363.8 29.3 369.35 31.6 375.55 34.25 381.55 37.25 388.0 40.55 394.05 44.3 400.15 47.95 405.9 52.25 409.35 54.9 412.55 57.65 L414.3 59.1 421.0 65.05 425.35 68.5 Q425.6 68.75 426.0 68.8 L426.5 68.8 427.55 66.85 Q428.5 64.45 429.0 61.9 429.4 59.75 429.2 57.45 428.85 54.4 427.85 51.5 425.7 44.85 422.3 38.75 419.1 33.05 414.15 28.85 406.7 22.55 398.65 17.15 387.0 9.3 373.25 9.1 367.8 9.05 362.7 10.95 351.8 15.2 345.2 24.9 L346.6 25.2 M378.9 138.5 L381.2 136.85 383.95 135.4 Q378.15 128.75 379.6 120.1 380.3 115.9 382.85 112.35 L383.65 110.95 Q384.8 108.55 387.2 107.4 390.25 106.15 392.9 104.05 L394.45 102.65 395.65 101.05 396.6 99.05 Q399.3 91.9 395.0 85.6 392.4 81.85 388.45 79.95 383.5 77.5 377.95 77.9 372.45 78.3 367.35 80.65 363.3 82.6 362.75 86.55 362.55 88.05 362.95 89.5 364.0 92.85 367.15 94.5 369.85 96.0 372.75 95.6 374.0 95.4 375.1 94.85 376.6 94.2 377.65 92.95 L373.35 89.35 Q373.0 88.95 373.0 88.5 372.95 86.25 375.15 85.9 L376.95 85.65 Q382.6 86.8 383.85 92.25 384.1 93.65 383.85 95.0 383.65 96.15 383.05 97.15 L381.75 98.85 380.1 100.35 Q375.4 103.6 369.75 103.45 366.25 103.35 362.95 102.0 358.75 100.2 355.75 96.75 352.65 93.3 351.8 88.85 350.9 83.85 353.15 79.5 356.85 72.35 364.55 69.2 371.3 66.55 378.6 66.5 382.85 66.5 387.2 67.45 395.85 69.5 401.95 76.0 L403.75 78.0 Q407.75 76.6 411.8 75.5 414.6 74.75 417.25 75.6 419.45 76.3 420.7 78.25 423.15 81.75 421.2 85.5 L419.95 87.2 418.45 88.3 416.75 89.25 Q413.0 90.45 409.0 90.1 409.9 95.65 408.2 101.05 412.4 104.05 414.75 108.55 415.6 110.45 415.0 112.25 414.4 113.85 413.25 114.7 411.3 116.1 409.0 115.4 407.4 114.9 405.95 114.05 L403.2 112.4 401.7 111.5 Q396.45 116.6 389.5 118.4 387.4 118.85 385.4 117.65 382.0 125.9 387.85 132.45 L389.6 134.25 Q396.7 132.95 403.5 135.3 405.35 135.95 407.0 137.0 L410.8 139.7 425.55 137.8 423.65 136.7 424.35 135.35 Q419.85 126.4 419.3 116.45 419.15 113.55 420.75 111.35 422.6 112.85 423.55 115.25 L428.25 128.2 429.7 132.05 Q439.95 125.5 447.35 115.8 441.15 117.5 434.85 116.05 432.75 115.65 431.55 114.0 430.55 112.65 431.25 111.2 432.0 109.4 433.35 108.15 L434.2 107.15 436.35 103.9 437.65 101.2 Q439.6 95.35 437.05 89.65 435.75 86.85 433.7 84.6 431.05 81.65 427.9 79.4 L424.35 77.2 422.35 75.9 420.0 73.65 Q419.35 73.05 419.05 72.25 L418.15 70.65 Q417.5 69.6 416.5 68.85 L414.65 67.35 411.05 64.05 409.75 62.95 Q405.65 60.25 401.75 57.0 394.5 51.1 386.4 46.4 371.6 37.8 354.95 34.0 348.05 32.25 341.05 31.35 325.65 28.9 310.0 28.7 290.95 28.55 274.2 37.05 269.95 39.3 267.1 43.25 265.8 45.05 266.4 47.05 266.75 48.4 267.55 49.75 282.7 40.1 300.45 41.15 L303.95 41.55 Q302.2 39.1 304.5 37.35 305.75 36.4 307.25 36.65 L312.1 37.15 Q325.7 39.35 339.05 42.4 L344.85 44.0 Q346.5 44.35 348.0 45.6 L348.6 46.4 348.65 46.7 Q348.1 48.8 345.7 48.3 L314.0 43.05 310.6 42.65 310.95 43.1 311.15 44.15 310.7 45.35 Q308.1 46.5 305.0 46.2 L299.45 46.0 Q290.4 46.95 282.2 50.6 279.6 51.75 277.1 53.1 269.55 58.05 264.8 62.6 L256.4 70.4 Q252.75 73.6 251.1 75.9 244.65 84.55 242.65 95.3 241.7 100.05 242.15 104.7 242.5 107.95 243.3 111.05 244.1 114.1 245.35 117.0 247.3 121.55 250.65 125.0 L254.6 128.95 Q255.85 130.1 256.45 131.6 257.15 133.6 255.65 135.1 254.4 136.4 252.3 136.6 L250.25 136.6 Q255.25 144.25 263.85 147.3 L269.3 149.05 Q268.85 140.7 275.65 135.5 279.85 132.35 284.9 131.35 288.7 130.6 292.55 131.45 300.55 133.0 306.15 138.75 L307.9 140.7 309.15 142.8 310.05 145.45 Q311.1 149.75 310.1 154.05 L310.1 154.25 313.15 154.35 316.0 154.5 Q317.6 154.75 318.2 155.95 318.9 157.2 317.75 159.75 L315.95 163.7 319.45 164.4 329.75 166.35 331.95 166.65 Q332.6 164.95 333.85 164.45 L335.55 164.4 336.95 165.25 Q337.65 166.05 337.85 167.1 L338.45 167.1 344.95 166.35 351.4 165.0 355.35 164.4 355.75 163.7 Q357.5 160.5 358.3 154.65 358.45 153.5 358.8 153.05 359.3 152.25 361.0 151.85 L364.9 151.2 369.1 150.5 371.35 150.0 372.2 150.0 Q373.75 143.25 378.9 138.5 M406.35 166.3 Q406.7 165.25 407.25 164.45 L409.75 160.95 Q412.7 156.55 410.2 151.8 408.75 148.75 406.75 146.2 405.2 144.3 403.15 143.05 400.55 141.6 397.8 141.25 L389.35 141.65 Q382.95 142.1 379.8 148.15 376.0 155.7 378.9 163.6 379.45 165.05 380.5 166.35 L384.1 170.05 Q387.15 170.35 387.2 173.7 387.2 176.55 387.9 179.4 388.8 183.65 390.6 187.65 394.0 195.55 402.6 196.75 407.25 197.55 411.25 195.3 414.1 193.55 415.7 191.0 416.65 189.5 416.95 187.9 417.85 182.95 414.9 178.6 411.65 174.05 409.1 169.15 L408.45 169.15 Q406.35 168.65 406.35 166.3 M326.5 141.2 Q324.95 137.45 327.95 134.95 328.95 134.15 330.1 134.2 332.4 134.6 334.65 135.7 336.35 136.4 337.9 135.75 338.7 135.4 339.3 134.85 341.15 133.3 342.95 132.25 345.05 131.0 346.85 132.55 347.75 133.25 348.3 134.3 349.9 137.55 349.8 141.0 349.65 143.55 347.3 144.2 L345.75 144.6 Q340.7 144.5 335.95 145.8 L334.2 146.35 Q332.0 147.35 329.75 146.0 327.05 144.35 326.5 141.2 M331.95 141.65 L334.75 141.15 331.7 140.05 331.95 141.65 M344.7 140.15 L344.0 137.25 340.6 140.25 344.7 140.15 M388.05 194.65 Q385.6 191.1 384.3 186.85 382.2 180.5 381.85 173.8 L381.85 172.8 Q379.35 172.35 377.55 171.0 L375.8 171.15 373.45 170.05 Q366.15 166.45 353.85 168.85 L344.0 170.9 334.1 171.85 Q330.05 171.7 322.35 169.95 314.5 168.1 310.6 167.95 L304.3 167.85 Q304.7 171.15 303.75 174.55 302.5 179.0 300.55 183.4 298.4 188.25 294.75 192.05 L294.2 192.7 296.0 194.8 Q301.5 201.1 313.85 201.1 L323.6 200.5 333.3 200.0 Q338.9 200.05 354.15 202.7 367.1 205.0 374.8 204.0 382.0 203.15 385.75 199.55 L387.3 198.1 388.9 196.7 389.5 196.45 388.05 194.65 M308.45 21.4 L321.85 22.2 Q322.45 19.35 323.85 16.9 326.25 12.7 329.15 8.85 319.25 10.65 309.85 14.3 301.65 17.3 294.15 21.8 L308.45 21.4 M287.65 98.0 Q289.35 91.75 295.45 91.4 295.9 91.15 296.35 91.4 298.4 92.6 297.15 94.6 296.25 96.2 294.95 97.55 L294.25 98.65 Q299.05 101.25 303.6 98.4 306.6 96.6 307.55 93.15 308.3 90.45 307.0 87.9 306.15 86.3 304.55 85.55 296.5 82.1 288.0 84.65 279.05 87.3 275.7 96.05 273.65 101.4 275.85 106.55 277.6 110.6 281.5 112.85 284.9 114.7 288.65 115.25 L291.4 116.05 Q294.15 117.4 294.35 120.6 294.5 123.95 291.7 125.5 289.0 126.85 285.95 126.05 L280.65 124.5 275.8 122.75 Q272.5 127.55 267.25 128.9 L265.55 128.75 Q263.95 128.35 263.2 126.85 261.35 123.25 263.3 119.85 264.95 116.95 266.75 114.3 263.85 109.55 263.2 103.95 258.05 105.85 252.85 104.45 250.1 103.5 248.9 100.8 247.0 96.15 250.7 92.8 252.75 90.9 255.75 90.8 260.45 90.6 265.2 90.9 270.0 80.0 280.95 75.15 293.15 69.7 305.9 73.55 313.45 75.8 316.75 82.85 318.3 86.2 318.1 89.75 317.6 98.2 310.65 103.4 303.4 108.9 294.6 106.7 288.9 105.25 287.75 99.5 L287.65 98.0 M297.9 165.6 Q300.2 163.85 301.75 161.7 304.05 158.55 304.25 154.6 304.65 147.65 300.65 142.15 298.35 139.15 294.75 138.3 289.9 137.2 284.9 138.5 279.9 139.6 276.65 143.6 275.15 145.35 274.85 147.65 L274.4 151.1 Q273.85 157.45 277.7 162.35 L277.15 162.5 Q277.05 163.8 276.2 164.7 L271.35 169.9 Q269.05 172.3 268.25 175.45 266.95 180.3 269.55 184.6 272.5 189.55 278.2 190.85 283.85 192.25 288.3 188.6 291.45 186.05 293.4 182.5 296.7 176.45 297.45 169.55 297.5 168.45 297.95 167.6 298.75 166.1 297.9 165.6" fill="#1f0028" fill-rule="evenodd" stroke="none"/>
    <path d="M325.55 22.55 L325.9 21.55 328.65 16.8 Q331.45 12.1 335.3 8.2 341.9 1.2 351.1 -1.25 356.75 -2.85 362.6 -2.05 370.25 -0.9 376.7 3.0 368.7 2.45 361.65 6.05 356.1 8.8 351.15 12.85 345.15 17.6 342.05 24.45 L325.55 22.55 M378.9 138.5 Q373.75 143.25 372.2 150.0 L371.35 150.0 369.1 150.5 364.9 151.2 361.0 151.85 Q359.3 152.25 358.8 153.05 358.45 153.5 358.3 154.65 357.5 160.5 355.75 163.7 L355.35 164.4 351.4 165.0 344.95 166.35 338.45 167.1 337.85 167.1 Q337.65 166.05 336.95 165.25 L335.55 164.4 333.85 164.45 Q332.6 164.95 331.95 166.65 L329.75 166.35 319.45 164.4 315.95 163.7 317.75 159.75 Q318.9 157.2 318.2 155.95 317.6 154.75 316.0 154.5 L313.15 154.35 310.1 154.25 310.1 154.05 Q311.1 149.75 310.05 145.45 L309.15 142.8 307.9 140.7 306.15 138.75 Q300.55 133.0 292.55 131.45 288.7 130.6 284.9 131.35 279.85 132.35 275.65 135.5 268.85 140.7 269.3 149.05 L263.85 147.3 Q255.25 144.25 250.25 136.6 L252.3 136.6 Q254.4 136.4 255.65 135.1 257.15 133.6 256.45 131.6 255.85 130.1 254.6 128.95 L250.65 125.0 Q247.3 121.55 245.35 117.0 244.1 114.1 243.3 111.05 242.5 107.95 242.15 104.7 241.7 100.05 242.65 95.3 244.65 84.55 251.1 75.9 252.75 73.6 256.4 70.4 L264.8 62.6 Q269.55 58.05 277.1 53.1 279.6 51.75 282.2 50.6 290.4 46.95 299.45 46.0 L305.0 46.2 Q308.1 46.5 310.7 45.35 L311.15 44.15 310.95 43.1 310.6 42.65 314.0 43.05 345.7 48.3 Q348.1 48.8 348.65 46.7 L348.6 46.4 348.0 45.6 Q346.5 44.35 344.85 44.0 L339.05 42.4 Q325.7 39.35 312.1 37.15 L307.25 36.65 Q305.75 36.4 304.5 37.35 302.2 39.1 303.95 41.55 L300.45 41.15 Q282.7 40.1 267.55 49.75 266.75 48.4 266.4 47.05 265.8 45.05 267.1 43.25 269.95 39.3 274.2 37.05 290.95 28.55 310.0 28.7 325.65 28.9 341.05 31.35 348.05 32.25 354.95 34.0 371.6 37.8 386.4 46.4 394.5 51.1 401.75 57.0 405.65 60.25 409.75 62.95 L411.05 64.05 414.65 67.35 416.5 68.85 Q417.5 69.6 418.15 70.65 L419.05 72.25 Q419.35 73.05 420.0 73.65 L422.35 75.9 424.35 77.2 427.9 79.4 Q431.05 81.65 433.7 84.6 435.75 86.85 437.05 89.65 439.6 95.35 437.65 101.2 L436.35 103.9 434.2 107.15 433.35 108.15 Q432.0 109.4 431.25 111.2 430.55 112.65 431.55 114.0 432.75 115.65 434.85 116.05 441.15 117.5 447.35 115.8 439.95 125.5 429.7 132.05 L428.25 128.2 423.55 115.25 Q422.6 112.85 420.75 111.35 419.15 113.55 419.3 116.45 419.85 126.4 424.35 135.35 L423.65 136.7 425.55 137.8 410.8 139.7 407.0 137.0 Q405.35 135.95 403.5 135.3 396.7 132.95 389.6 134.25 L387.85 132.45 Q382.0 125.9 385.4 117.65 387.4 118.85 389.5 118.4 396.45 116.6 401.7 111.5 L403.2 112.4 405.95 114.05 Q407.4 114.9 409.0 115.4 411.3 116.1 413.25 114.7 414.4 113.85 415.0 112.25 415.6 110.45 414.75 108.55 412.4 104.05 408.2 101.05 409.9 95.65 409.0 90.1 413.0 90.45 416.75 89.25 L418.45 88.3 419.95 87.2 421.2 85.5 Q423.15 81.75 420.7 78.25 419.45 76.3 417.25 75.6 414.6 74.75 411.8 75.5 407.75 76.6 403.75 78.0 L401.95 76.0 Q395.85 69.5 387.2 67.45 382.85 66.5 378.6 66.5 371.3 66.55 364.55 69.2 356.85 72.35 353.15 79.5 350.9 83.85 351.8 88.85 352.65 93.3 355.75 96.75 358.75 100.2 362.95 102.0 366.25 103.35 369.75 103.45 375.4 103.6 380.1 100.35 L381.75 98.85 383.05 97.15 Q383.65 96.15 383.85 95.0 384.1 93.65 383.85 92.25 382.6 86.8 376.95 85.65 L375.15 85.9 Q372.95 86.25 373.0 88.5 373.0 88.95 373.35 89.35 L377.65 92.95 Q376.6 94.2 375.1 94.85 374.0 95.4 372.75 95.6 369.85 96.0 367.15 94.5 364.0 92.85 362.95 89.5 362.55 88.05 362.75 86.55 363.3 82.6 367.35 80.65 372.45 78.3 377.95 77.9 383.5 77.5 388.45 79.95 392.4 81.85 395.0 85.6 399.3 91.9 396.6 99.05 L395.65 101.05 394.45 102.65 392.9 104.05 Q390.25 106.15 387.2 107.4 384.8 108.55 383.65 110.95 L382.85 112.35 Q380.3 115.9 379.6 120.1 378.15 128.75 383.95 135.4 L381.2 136.85 378.9 138.5 M346.6 25.2 L345.2 24.9 Q351.8 15.2 362.7 10.95 367.8 9.05 373.25 9.1 387.0 9.3 398.65 17.15 406.7 22.55 414.15 28.85 419.1 33.05 422.3 38.75 425.7 44.85 427.85 51.5 428.85 54.4 429.2 57.45 429.4 59.75 429.0 61.9 428.5 64.45 427.55 66.85 L426.5 68.8 426.0 68.8 Q425.6 68.75 425.35 68.5 L421.0 65.05 414.3 59.1 412.55 57.65 Q409.35 54.9 405.9 52.25 400.15 47.95 394.05 44.3 388.0 40.55 381.55 37.25 375.55 34.25 369.35 31.6 363.8 29.3 357.8 27.65 352.2 26.25 346.6 25.2 M453.6 31.9 L445.35 32.2 446.1 32.0 Q447.5 31.65 448.45 30.65 450.2 28.8 450.35 25.6 450.35 24.05 449.6 20.2 L448.6 15.5 Q450.55 14.45 452.85 14.45 455.15 14.4 457.05 15.35 459.05 16.35 460.4 18.15 461.7 20.1 461.95 22.2 462.2 24.45 461.25 26.55 460.35 28.7 458.6 29.9 456.9 31.15 453.6 31.9 M439.55 -4.6 L440.45 -3.75 441.35 -2.55 442.65 -0.8 Q443.2 0.35 442.75 1.2 L441.35 2.35 438.7 3.9 436.35 4.65 Q434.4 5.55 434.05 8.8 433.35 13.45 435.55 17.7 L432.55 17.4 Q430.45 17.3 429.65 18.1 429.2 18.55 428.95 19.6 L428.35 21.15 Q427.25 20.1 426.15 17.35 424.1 12.1 423.65 7.6 423.2 1.95 425.15 -2.35 425.75 -3.6 426.4 -4.3 L429.0 -5.75 431.15 -6.35 433.7 -6.25 438.05 -5.1 439.55 -4.6 M406.35 166.3 Q406.35 168.65 408.45 169.15 L409.1 169.15 Q411.65 174.05 414.9 178.6 417.85 182.95 416.95 187.9 416.65 189.5 415.7 191.0 414.1 193.55 411.25 195.3 407.25 197.55 402.6 196.75 394.0 195.55 390.6 187.65 388.8 183.65 387.9 179.4 387.2 176.55 387.2 173.7 387.15 170.35 384.1 170.05 L380.5 166.35 Q379.45 165.05 378.9 163.6 376.0 155.7 379.8 148.15 382.95 142.1 389.35 141.65 L397.8 141.25 Q400.55 141.6 403.15 143.05 405.2 144.3 406.75 146.2 408.75 148.75 410.2 151.8 412.7 156.55 409.75 160.95 L407.25 164.45 Q406.7 165.25 406.35 166.3 M287.65 98.0 L287.75 99.5 Q288.9 105.25 294.6 106.7 303.4 108.9 310.65 103.4 317.6 98.2 318.1 89.75 318.3 86.2 316.75 82.85 313.45 75.8 305.9 73.55 293.15 69.7 280.95 75.15 270.0 80.0 265.2 90.9 260.45 90.6 255.75 90.8 252.75 90.9 250.7 92.8 247.0 96.15 248.9 100.8 250.1 103.5 252.85 104.45 258.05 105.85 263.2 103.95 263.85 109.55 266.75 114.3 264.95 116.95 263.3 119.85 261.35 123.25 263.2 126.85 263.95 128.35 265.55 128.75 L267.25 128.9 Q272.5 127.55 275.8 122.75 L280.65 124.5 285.95 126.05 Q289.0 126.85 291.7 125.5 294.5 123.95 294.35 120.6 294.15 117.4 291.4 116.05 L288.65 115.25 Q284.9 114.7 281.5 112.85 277.6 110.6 275.85 106.55 273.65 101.4 275.7 96.05 279.05 87.3 288.0 84.65 296.5 82.1 304.55 85.55 306.15 86.3 307.0 87.9 308.3 90.45 307.55 93.15 306.6 96.6 303.6 98.4 299.05 101.25 294.25 98.65 L294.95 97.55 Q296.25 96.2 297.15 94.6 298.4 92.6 296.35 91.4 295.9 91.15 295.45 91.4 289.35 91.75 287.65 98.0 M308.45 21.4 L294.15 21.8 Q301.65 17.3 309.85 14.3 319.25 10.65 329.15 8.85 326.25 12.7 323.85 16.9 322.45 19.35 321.85 22.2 L308.45 21.4 M388.05 194.65 L389.5 196.45 388.9 196.7 387.3 198.1 385.75 199.55 Q382.0 203.15 374.8 204.0 367.1 205.0 354.15 202.7 338.9 200.05 333.3 200.0 L323.6 200.5 313.85 201.1 Q301.5 201.1 296.0 194.8 L294.2 192.7 294.75 192.05 Q298.4 188.25 300.55 183.4 302.5 179.0 303.75 174.55 304.7 171.15 304.3 167.85 L310.6 167.95 Q314.5 168.1 322.35 169.95 330.05 171.7 334.1 171.85 L344.0 170.9 353.85 168.85 Q366.15 166.45 373.45 170.05 L375.8 171.15 377.55 171.0 Q379.35 172.35 381.85 172.8 L381.85 173.8 Q382.2 180.5 384.3 186.85 385.6 191.1 388.05 194.65 M344.7 140.15 L340.6 140.25 344.0 137.25 344.7 140.15 M331.95 141.65 L331.7 140.05 334.75 141.15 331.95 141.65 M326.5 141.2 Q327.05 144.35 329.75 146.0 332.0 147.35 334.2 146.35 L335.95 145.8 Q340.7 144.5 345.75 144.6 L347.3 144.2 Q349.65 143.55 349.8 141.0 349.9 137.55 348.3 134.3 347.75 133.25 346.85 132.55 345.05 131.0 342.95 132.25 341.15 133.3 339.3 134.85 338.7 135.4 337.9 135.75 336.35 136.4 334.65 135.7 332.4 134.6 330.1 134.2 328.95 134.15 327.95 134.95 324.95 137.45 326.5 141.2 M297.9 165.6 Q298.75 166.1 297.95 167.6 297.5 168.45 297.45 169.55 296.7 176.45 293.4 182.5 291.45 186.05 288.3 188.6 283.85 192.25 278.2 190.85 272.5 189.55 269.55 184.6 266.95 180.3 268.25 175.45 269.05 172.3 271.35 169.9 L276.2 164.7 Q277.05 163.8 277.15 162.5 L277.7 162.35 Q273.85 157.45 274.4 151.1 L274.85 147.65 Q275.15 145.35 276.65 143.6 279.9 139.6 284.9 138.5 289.9 137.2 294.75 138.3 298.35 139.15 300.65 142.15 304.65 147.65 304.25 154.6 304.05 158.55 301.75 161.7 300.2 163.85 297.9 165.6" fill="#996666" fill-rule="evenodd" stroke="none"/>
    <path d="M272.15 12.55 Q271.2 12.5 270.9 11.15 L270.8 9.15 Q270.7 7.3 268.65 4.35 L266.95 1.9 Q266.3 1.75 265.65 1.2 L264.5 0.1 Q263.4 -0.9 260.8 -2.0 255.1 -4.45 251.6 -3.35 251.2 -2.5 251.25 -1.75 251.25 -0.65 252.4 1.35 L256.55 7.85 261.4 13.7 Q263.4 16.0 262.9 17.45 262.55 18.35 261.5 18.75 L259.5 18.8 Q258.2 18.45 256.35 16.4 252.25 11.7 247.1 3.75 245.45 1.2 245.25 -0.35 245.1 -1.4 245.5 -3.6 246.0 -6.55 246.9 -7.6 248.25 -9.25 250.6 -9.5 L254.85 -9.15 Q260.15 -7.9 264.55 -4.75 269.1 -1.5 271.8 3.05 272.95 4.9 273.45 6.6 273.9 8.4 273.85 10.1 273.85 11.15 273.5 11.75 273.0 12.6 272.15 12.55 M462.05 66.35 Q468.6 64.6 474.2 62.2 475.6 61.7 475.85 60.8 474.9 60.0 472.9 59.7 469.6 59.25 462.95 59.75 457.05 60.15 454.15 60.9 L450.45 61.0 Q449.55 60.55 449.25 59.45 448.95 58.35 449.5 57.5 450.05 56.65 451.45 56.0 453.95 54.9 457.35 54.35 L463.55 53.75 Q469.6 53.35 472.65 53.65 475.55 54.05 477.2 54.85 479.75 56.1 480.8 58.45 481.95 61.1 480.7 63.5 479.7 65.3 476.55 66.95 471.7 69.4 466.4 70.7 L462.75 71.15 460.55 70.7 458.4 70.5 457.65 70.65 456.9 70.65 456.3 70.25 Q456.0 69.9 456.15 69.6 L456.65 69.15 457.35 68.95 458.35 68.3 459.25 67.5 Q459.85 67.05 462.05 66.35 M467.95 96.65 Q472.6 98.75 474.25 103.25 475.4 106.1 474.05 107.9 473.35 108.8 472.15 109.15 L469.8 109.25 Q468.1 108.85 465.7 107.05 467.35 105.3 469.8 104.6 469.6 103.05 468.25 101.95 L466.75 101.1 Q465.6 100.6 465.15 100.3 464.35 99.8 463.9 99.0 463.4 98.15 463.7 97.35 464.15 96.2 465.6 96.1 466.65 96.05 467.95 96.65 M454.3 122.3 Q454.95 121.85 455.9 121.9 456.75 121.9 457.45 122.4 458.85 123.55 458.45 125.4 L457.8 126.85 456.8 128.7 455.15 130.8 Q454.35 131.3 452.4 131.5 451.4 131.5 451.2 131.1 451.1 130.8 451.3 130.2 L451.5 128.05 Q451.65 126.75 452.9 124.25 453.7 122.75 454.3 122.3 M424.5 201.2 Q424.45 200.8 424.85 200.45 L425.6 199.9 426.8 198.05 428.15 194.65 Q428.65 192.6 427.95 191.05 L427.35 189.6 Q427.3 189.2 427.55 188.85 427.75 188.5 428.15 188.5 428.8 188.45 429.25 189.85 L430.25 192.3 Q431.05 194.5 430.25 196.85 429.45 199.25 427.5 200.5 425.9 201.55 424.5 201.2 M212.7 66.8 Q211.6 64.45 212.5 61.55 213.25 59.0 215.25 56.75 217.95 53.7 221.1 52.75 L226.9 52.5 Q229.25 52.85 232.65 54.1 234.65 54.8 235.45 55.5 236.05 56.05 236.3 56.8 236.6 57.65 236.35 58.35 235.8 59.75 234.05 60.0 L231.1 59.75 227.6 59.2 224.1 59.35 Q222.25 59.75 220.9 60.95 219.5 62.3 219.35 64.0 L229.0 67.05 Q233.3 68.45 235.65 68.3 236.35 68.3 236.5 68.55 236.75 69.0 236.0 69.5 L232.75 71.45 Q230.85 72.4 229.2 72.75 L225.0 72.9 220.8 72.05 Q214.35 70.25 212.7 66.8 M227.85 107.5 Q228.5 107.95 228.6 109.15 L228.7 111.05 229.6 113.55 231.2 118.2 Q231.6 119.45 231.2 120.05 L230.35 119.45 229.7 118.5 228.0 116.55 Q225.35 113.6 225.35 109.5 225.35 108.25 225.9 107.65 226.3 107.25 226.85 107.2 L227.85 107.5 M264.65 198.1 Q265.55 199.3 265.4 200.05 264.65 200.45 263.15 199.05 L260.65 197.35 Q258.8 196.3 258.1 195.7 256.3 194.25 254.45 190.75 253.65 189.35 253.75 188.45 253.85 187.5 254.8 186.95 L256.65 186.75 Q257.4 187.15 258.35 188.7 261.35 193.7 264.65 198.1" fill="#ffffcc" fill-rule="evenodd" stroke="none"/>
    <path d="M325.55 22.55 L342.05 24.45 Q345.15 17.6 351.15 12.85 356.1 8.8 361.65 6.05 368.7 2.45 376.7 3.0 370.25 -0.9 362.6 -2.05 356.75 -2.85 351.1 -1.25 341.9 1.2 335.3 8.2 331.45 12.1 328.65 16.8 L325.9 21.55 325.55 22.55 M258.05 53.5 Q254.15 46.95 257.3 40.05 258.7 36.9 261.3 34.6 265.85 30.6 271.25 28.3 275.05 26.55 278.95 25.0 283.6 20.05 289.6 16.55 303.85 8.25 320.05 5.25 L327.2 4.3 332.55 4.55 Q341.4 -6.7 355.3 -8.9 362.15 -9.7 368.85 -7.75 373.85 -6.25 378.6 -3.75 385.25 -0.1 389.85 5.5 L390.15 5.9 Q404.55 12.55 416.75 23.25 420.1 26.15 423.25 29.4 L426.0 32.95 Q429.65 38.95 432.3 45.7 L433.05 47.95 433.65 49.75 434.55 52.8 Q436.1 58.65 434.75 64.45 434.05 67.55 432.95 70.75 L431.7 73.55 Q430.9 74.8 429.5 75.15 435.35 78.55 439.15 84.2 442.05 88.55 442.85 93.7 L443.05 97.25 Q442.9 100.0 441.75 102.45 L437.85 110.5 Q445.05 111.0 451.45 108.0 452.35 107.6 453.3 108.35 454.65 109.55 454.75 111.15 454.9 115.55 452.5 119.1 L449.65 123.0 446.45 126.25 443.05 129.45 Q439.75 132.6 435.6 134.9 L432.1 136.65 Q433.85 139.4 431.95 141.85 L430.75 142.65 426.15 143.3 415.2 144.45 Q418.85 149.55 419.25 156.0 419.45 158.55 418.55 161.1 417.45 164.15 415.05 166.3 L420.35 174.7 423.05 179.8 Q424.05 181.9 424.3 184.15 424.95 190.15 421.05 194.75 L418.35 197.55 415.1 200.05 411.95 201.8 Q407.4 203.8 402.4 202.7 L396.45 201.1 393.85 199.95 393.8 200.1 Q393.3 201.6 391.5 203.25 382.1 211.95 363.85 210.3 L349.3 208.05 Q340.15 206.4 334.75 206.2 L323.45 206.6 312.05 207.1 Q298.3 207.0 290.8 200.8 288.45 198.85 287.65 196.95 L285.2 197.75 Q280.6 199.05 275.9 197.8 L273.4 196.9 270.9 195.9 268.85 194.5 Q265.25 191.55 263.1 187.6 L261.9 185.25 Q260.85 183.4 260.65 181.35 260.35 178.1 260.85 174.9 261.75 169.95 265.45 166.4 268.75 163.2 272.55 160.95 L273.15 160.55 Q271.4 158.95 270.5 156.6 L269.7 154.05 Q258.65 155.45 250.3 147.9 245.55 143.6 242.05 138.3 240.4 135.7 240.55 132.7 240.75 130.2 242.7 128.9 234.4 119.65 232.95 107.3 232.15 100.45 233.45 93.85 234.45 88.55 236.5 83.7 241.8 71.5 251.5 62.4 L259.35 55.3 258.05 53.5 M441.8 17.1 Q442.5 19.85 441.65 21.2 440.75 22.45 438.25 22.45 L434.4 22.3 Q433.45 22.45 432.95 22.8 432.4 23.3 431.75 24.75 431.05 26.2 430.45 26.65 L430.3 26.85 429.65 27.5 Q429.05 28.0 427.95 27.9 427.0 27.8 426.4 27.05 L426.15 26.65 424.95 26.05 Q423.35 25.1 421.85 23.05 415.85 15.45 416.05 4.15 416.15 -3.5 419.75 -8.1 L421.65 -10.15 Q426.0 -14.0 432.4 -14.0 437.95 -13.9 443.35 -10.6 448.95 -7.0 449.9 -2.2 450.55 0.95 448.9 4.1 447.25 7.2 444.25 8.65 L442.15 9.5 440.3 10.85 441.45 15.6 Q441.1 13.95 441.65 12.75 442.3 10.85 444.55 9.8 L448.6 8.4 Q451.3 7.45 452.25 7.45 L455.3 7.85 458.85 8.75 Q460.8 9.45 462.15 10.4 463.55 11.4 465.6 14.2 467.45 16.85 468.05 18.25 468.65 20.05 468.7 22.4 468.8 24.8 468.35 26.7 467.55 30.45 465.15 33.1 462.0 36.7 456.65 38.25 452.8 39.5 446.75 39.45 438.25 39.2 433.25 36.05 431.05 34.75 430.55 33.2 430.15 31.95 430.8 29.65 431.55 26.6 432.75 25.55 434.05 24.35 436.35 24.4 L440.1 24.8 443.8 25.2 Q443.45 22.15 442.5 19.2 L441.8 17.1 M439.55 -4.6 L438.05 -5.1 433.7 -6.25 431.15 -6.35 429.0 -5.75 426.4 -4.3 Q425.75 -3.6 425.15 -2.35 423.2 1.95 423.65 7.6 424.1 12.1 426.15 17.35 427.25 20.1 428.35 21.15 L428.95 19.6 Q429.2 18.55 429.65 18.1 430.45 17.3 432.55 17.4 L435.55 17.7 Q433.35 13.45 434.05 8.8 434.4 5.55 436.35 4.65 L438.7 3.9 441.35 2.35 442.75 1.2 Q443.2 0.35 442.65 -0.8 L441.35 -2.55 440.45 -3.75 439.55 -4.6 M453.6 31.9 Q456.9 31.15 458.6 29.9 460.35 28.7 461.25 26.55 462.2 24.45 461.95 22.2 461.7 20.1 460.4 18.15 459.05 16.35 457.05 15.35 455.15 14.4 452.85 14.45 450.55 14.45 448.6 15.5 L449.6 20.2 Q450.35 24.05 450.35 25.6 450.2 28.8 448.45 30.65 447.5 31.65 446.1 32.0 L445.35 32.2 453.6 31.9 M346.6 25.2 Q352.2 26.25 357.8 27.65 363.8 29.3 369.35 31.6 375.55 34.25 381.55 37.25 388.0 40.55 394.05 44.3 400.15 47.95 405.9 52.25 409.35 54.9 412.55 57.65 L414.3 59.1 421.0 65.05 425.35 68.5 Q425.6 68.75 426.0 68.8 L426.5 68.8 427.55 66.85 Q428.5 64.45 429.0 61.9 429.4 59.75 429.2 57.45 428.85 54.4 427.85 51.5 425.7 44.85 422.3 38.75 419.1 33.05 414.15 28.85 406.7 22.55 398.65 17.15 387.0 9.3 373.25 9.1 367.8 9.05 362.7 10.95 351.8 15.2 345.2 24.9 L346.6 25.2 M378.9 138.5 L381.2 136.85 383.95 135.4 Q378.15 128.75 379.6 120.1 380.3 115.9 382.85 112.35 L383.65 110.95 Q384.8 108.55 387.2 107.4 390.25 106.15 392.9 104.05 L394.45 102.65 395.65 101.05 396.6 99.05 Q399.3 91.9 395.0 85.6 392.4 81.85 388.45 79.95 383.5 77.5 377.95 77.9 372.45 78.3 367.35 80.65 363.3 82.6 362.75 86.55 362.55 88.05 362.95 89.5 364.0 92.85 367.15 94.5 369.85 96.0 372.75 95.6 374.0 95.4 375.1 94.85 376.6 94.2 377.65 92.95 L373.35 89.35 Q373.0 88.95 373.0 88.5 372.95 86.25 375.15 85.9 L376.95 85.65 Q382.6 86.8 383.85 92.25 384.1 93.65 383.85 95.0 383.65 96.15 383.05 97.15 L381.75 98.85 380.1 100.35 Q375.4 103.6 369.75 103.45 366.25 103.35 362.95 102.0 358.75 100.2 355.75 96.75 352.65 93.3 351.8 88.85 350.9 83.85 353.15 79.5 356.85 72.35 364.55 69.2 371.3 66.55 378.6 66.5 382.85 66.5 387.2 67.45 395.85 69.5 401.95 76.0 L403.75 78.0 Q407.75 76.6 411.8 75.5 414.6 74.75 417.25 75.6 419.45 76.3 420.7 78.25 423.15 81.75 421.2 85.5 L419.95 87.2 418.45 88.3 416.75 89.25 Q413.0 90.45 409.0 90.1 409.9 95.65 408.2 101.05 412.4 104.05 414.75 108.55 415.6 110.45 415.0 112.25 414.4 113.85 413.25 114.7 411.3 116.1 409.0 115.4 407.4 114.9 405.95 114.05 L403.2 112.4 401.7 111.5 Q396.45 116.6 389.5 118.4 387.4 118.85 385.4 117.65 382.0 125.9 387.85 132.45 L389.6 134.25 Q396.7 132.95 403.5 135.3 405.35 135.95 407.0 137.0 L410.8 139.7 425.55 137.8 423.65 136.7 424.35 135.35 Q419.85 126.4 419.3 116.45 419.15 113.55 420.75 111.35 422.6 112.85 423.55 115.25 L428.25 128.2 429.7 132.05 Q439.95 125.5 447.35 115.8 441.15 117.5 434.85 116.05 432.75 115.65 431.55 114.0 430.55 112.65 431.25 111.2 432.0 109.4 433.35 108.15 L434.2 107.15 436.35 103.9 437.65 101.2 Q439.6 95.35 437.05 89.65 435.75 86.85 433.7 84.6 431.05 81.65 427.9 79.4 L424.35 77.2 422.35 75.9 420.0 73.65 Q419.35 73.05 419.05 72.25 L418.15 70.65 Q417.5 69.6 416.5 68.85 L414.65 67.35 411.05 64.05 409.75 62.95 Q405.65 60.25 401.75 57.0 394.5 51.1 386.4 46.4 371.6 37.8 354.95 34.0 348.05 32.25 341.05 31.35 325.65 28.9 310.0 28.7 290.95 28.55 274.2 37.05 269.95 39.3 267.1 43.25 265.8 45.05 266.4 47.05 266.75 48.4 267.55 49.75 282.7 40.1 300.45 41.15 L303.95 41.55 Q302.2 39.1 304.5 37.35 305.75 36.4 307.25 36.65 L312.1 37.15 Q325.7 39.35 339.05 42.4 L344.85 44.0 Q346.5 44.35 348.0 45.6 L348.6 46.4 348.65 46.7 Q348.1 48.8 345.7 48.3 L314.0 43.05 310.6 42.65 310.95 43.1 311.15 44.15 310.7 45.35 Q308.1 46.5 305.0 46.2 L299.45 46.0 Q290.4 46.95 282.2 50.6 279.6 51.75 277.1 53.1 269.55 58.05 264.8 62.6 L256.4 70.4 Q252.75 73.6 251.1 75.9 244.65 84.55 242.65 95.3 241.7 100.05 242.15 104.7 242.5 107.95 243.3 111.05 244.1 114.1 245.35 117.0 247.3 121.55 250.65 125.0 L254.6 128.95 Q255.85 130.1 256.45 131.6 257.15 133.6 255.65 135.1 254.4 136.4 252.3 136.6 L250.25 136.6 Q255.25 144.25 263.85 147.3 L269.3 149.05 Q268.85 140.7 275.65 135.5 279.85 132.35 284.9 131.35 288.7 130.6 292.55 131.45 300.55 133.0 306.15 138.75 L307.9 140.7 309.15 142.8 310.05 145.45 Q311.1 149.75 310.1 154.05 L310.1 154.25 313.15 154.35 316.0 154.5 Q317.6 154.75 318.2 155.95 318.9 157.2 317.75 159.75 L315.95 163.7 319.45 164.4 329.75 166.35 331.95 166.65 Q332.6 164.95 333.85 164.45 L335.55 164.4 336.95 165.25 Q337.65 166.05 337.85 167.1 L338.45 167.1 344.95 166.35 351.4 165.0 355.35 164.4 355.75 163.7 Q357.5 160.5 358.3 154.65 358.45 153.5 358.8 153.05 359.3 152.25 361.0 151.85 L364.9 151.2 369.1 150.5 371.35 150.0 372.2 150.0 Q373.75 143.25 378.9 138.5 M406.35 166.3 Q406.7 165.25 407.25 164.45 L409.75 160.95 Q412.7 156.55 410.2 151.8 408.75 148.75 406.75 146.2 405.2 144.3 403.15 143.05 400.55 141.6 397.8 141.25 L389.35 141.65 Q382.95 142.1 379.8 148.15 376.0 155.7 378.9 163.6 379.45 165.05 380.5 166.35 L384.1 170.05 Q387.15 170.35 387.2 173.7 387.2 176.55 387.9 179.4 388.8 183.65 390.6 187.65 394.0 195.55 402.6 196.75 407.25 197.55 411.25 195.3 414.1 193.55 415.7 191.0 416.65 189.5 416.95 187.9 417.85 182.95 414.9 178.6 411.65 174.05 409.1 169.15 L408.45 169.15 Q406.35 168.65 406.35 166.3 M326.5 141.2 Q324.95 137.45 327.95 134.95 328.95 134.15 330.1 134.2 332.4 134.6 334.65 135.7 336.35 136.4 337.9 135.75 338.7 135.4 339.3 134.85 341.15 133.3 342.95 132.25 345.05 131.0 346.85 132.55 347.75 133.25 348.3 134.3 349.9 137.55 349.8 141.0 349.65 143.55 347.3 144.2 L345.75 144.6 Q340.7 144.5 335.95 145.8 L334.2 146.35 Q332.0 147.35 329.75 146.0 327.05 144.35 326.5 141.2 M331.95 141.65 L334.75 141.15 331.7 140.05 331.95 141.65 M344.7 140.15 L344.0 137.25 340.6 140.25 344.7 140.15 M388.05 194.65 Q385.6 191.1 384.3 186.85 382.2 180.5 381.85 173.8 L381.85 172.8 Q379.35 172.35 377.55 171.0 L375.8 171.15 373.45 170.05 Q366.15 166.45 353.85 168.85 L344.0 170.9 334.1 171.85 Q330.05 171.7 322.35 169.95 314.5 168.1 310.6 167.95 L304.3 167.85 Q304.7 171.15 303.75 174.55 302.5 179.0 300.55 183.4 298.4 188.25 294.75 192.05 L294.2 192.7 296.0 194.8 Q301.5 201.1 313.85 201.1 L323.6 200.5 333.3 200.0 Q338.9 200.05 354.15 202.7 367.1 205.0 374.8 204.0 382.0 203.15 385.75 199.55 L387.3 198.1 388.9 196.7 389.5 196.45 388.05 194.65 M308.45 21.4 L321.85 22.2 Q322.45 19.35 323.85 16.9 326.25 12.7 329.15 8.85 319.25 10.65 309.85 14.3 301.65 17.3 294.15 21.8 L308.45 21.4 M287.65 98.0 Q289.35 91.75 295.45 91.4 295.9 91.15 296.35 91.4 298.4 92.6 297.15 94.6 296.25 96.2 294.95 97.55 L294.25 98.65 Q299.05 101.25 303.6 98.4 306.6 96.6 307.55 93.15 308.3 90.45 307.0 87.9 306.15 86.3 304.55 85.55 296.5 82.1 288.0 84.65 279.05 87.3 275.7 96.05 273.65 101.4 275.85 106.55 277.6 110.6 281.5 112.85 284.9 114.7 288.65 115.25 L291.4 116.05 Q294.15 117.4 294.35 120.6 294.5 123.95 291.7 125.5 289.0 126.85 285.95 126.05 L280.65 124.5 275.8 122.75 Q272.5 127.55 267.25 128.9 L265.55 128.75 Q263.95 128.35 263.2 126.85 261.35 123.25 263.3 119.85 264.95 116.95 266.75 114.3 263.85 109.55 263.2 103.95 258.05 105.85 252.85 104.45 250.1 103.5 248.9 100.8 247.0 96.15 250.7 92.8 252.75 90.9 255.75 90.8 260.45 90.6 265.2 90.9 270.0 80.0 280.95 75.15 293.15 69.7 305.9 73.55 313.45 75.8 316.75 82.85 318.3 86.2 318.1 89.75 317.6 98.2 310.65 103.4 303.4 108.9 294.6 106.7 288.9 105.25 287.75 99.5 L287.65 98.0 M297.9 165.6 Q300.2 163.85 301.75 161.7 304.05 158.55 304.25 154.6 304.65 147.65 300.65 142.15 298.35 139.15 294.75 138.3 289.9 137.2 284.9 138.5 279.9 139.6 276.65 143.6 275.15 145.35 274.85 147.65 L274.4 151.1 Q273.85 157.45 277.7 162.35 L277.15 162.5 Q277.05 163.8 276.2 164.7 L271.35 169.9 Q269.05 172.3 268.25 175.45 266.95 180.3 269.55 184.6 272.5 189.55 278.2 190.85 283.85 192.25 288.3 188.6 291.45 186.05 293.4 182.5 296.7 176.45 297.45 169.55 297.5 168.45 297.95 167.6 298.75 166.1 297.9 165.6" fill="#662244" fill-rule="evenodd" stroke="none"/>
  </g>
</svg>
