<?xml version="1.0" encoding="UTF-8" standalone="no"?>
<svg xmlns:ffdec="https://www.free-decompiler.com/flash" xmlns:xlink="http://www.w3.org/1999/xlink" ffdec:objectType="frame" height="414.5px" width="969.4px" xmlns="http://www.w3.org/2000/svg">
  <g transform="matrix(1.0, 0.0, 0.0, 1.0, 0.0, 0.0)">
    <use ffdec:characterId="33" height="414.5" transform="matrix(1.0, 0.0, 0.0, 1.0, 0.0, 0.0)" width="969.4" xlink:href="#shape0"/>
  </g>
  <defs>
    <g id="shape0" transform="matrix(1.0, 0.0, 0.0, 1.0, 0.0, 0.0)">
      <path d="M820.85 248.0 Q807.45 248.55 794.0 248.3 761.45 247.95 727.85 243.95 L709.2 241.2 Q699.1 239.25 690.95 236.45 675.75 231.2 668.55 222.55 658.8 211.0 659.0 189.9 659.1 175.2 663.25 162.55 667.85 148.55 678.5 134.15 686.2 123.75 700.0 109.6 742.65 66.05 792.1 30.35 809.25 18.0 821.5 11.75 838.55 3.1 854.15 1.45 865.65 0.25 875.85 3.15 887.1 6.4 894.15 14.0 901.4 21.8 904.5 34.7 906.55 43.35 907.3 58.6 909.25 96.8 909.65 135.8 924.1 135.0 937.85 141.6 951.5 148.15 960.35 160.0 964.4 165.45 966.4 170.5 968.4 175.6 969.15 182.0 970.3 193.25 966.6 204.4 962.95 215.5 955.3 223.95 947.65 232.35 937.05 237.2 926.55 242.1 915.2 242.45 L915.15 243.25 914.55 264.8 Q913.85 277.1 911.6 285.95 908.75 297.05 902.65 305.5 895.85 314.9 886.45 318.85 870.25 325.65 845.8 316.15 841.95 314.65 839.55 313.4 836.25 311.65 833.95 309.6 827.85 304.15 824.85 292.75 822.25 283.1 821.65 270.7 821.25 262.7 821.7 248.2 L821.7 248.0 820.85 248.0 M625.0 22.35 Q622.95 24.9 622.15 27.35 621.15 30.4 621.95 33.05 622.55 34.9 624.1 36.4 625.55 37.85 627.5 38.6 L630.75 39.45 Q632.9 39.7 635.45 39.4 640.7 38.8 644.0 36.2 644.9 35.55 645.3 35.45 L646.05 35.6 Q646.4 35.85 646.4 36.2 L646.05 36.9 643.55 39.45 639.0 43.1 Q644.85 43.65 650.35 41.8 656.05 39.9 659.9 35.85 L662.1 32.9 662.15 32.75 Q663.75 29.6 663.05 25.8 662.35 22.15 659.9 19.3 658.7 17.85 656.9 16.5 655.0 15.0 653.45 14.35 651.5 13.6 647.25 13.5 L639.55 13.9 Q635.3 14.45 632.25 16.05 628.2 18.2 625.0 22.35 M632.35 7.25 Q636.65 5.8 642.9 5.45 650.1 5.0 654.45 6.4 658.6 7.65 662.85 11.25 666.65 14.55 668.9 18.65 671.35 23.1 671.4 27.65 671.45 30.3 670.7 32.9 669.95 35.35 668.55 37.7 665.75 42.35 661.15 45.4 657.45 47.85 652.75 49.25 L655.15 51.05 Q658.15 53.9 658.6 57.5 658.8 59.0 658.5 61.3 L657.65 64.75 Q656.9 66.35 655.95 67.55 655.05 68.85 653.75 69.75 651.25 71.45 647.2 71.45 643.2 71.45 639.65 70.0 635.9 68.5 633.45 65.65 632.2 64.2 631.75 62.95 631.15 61.25 631.35 58.05 631.55 55.1 632.15 53.95 632.7 53.0 633.7 52.0 L635.35 50.4 634.8 50.15 Q633.35 49.45 632.5 48.1 631.65 46.65 631.95 45.15 L630.75 45.45 Q627.35 46.05 623.8 44.85 619.7 43.45 617.1 40.15 614.55 36.95 613.95 32.6 613.35 28.35 614.85 24.45 615.7 22.35 617.75 19.15 619.85 16.0 622.0 13.75 626.25 9.35 632.35 7.25 M646.4 54.85 L644.5 54.2 642.55 53.7 Q640.05 53.4 638.85 54.9 638.1 55.9 638.1 58.45 638.1 59.7 638.35 60.55 638.75 61.45 639.5 62.15 641.85 64.35 647.2 64.15 L649.35 63.75 Q650.15 63.25 650.8 61.95 651.4 60.6 651.4 59.3 651.4 57.8 650.55 56.8 649.9 56.05 648.65 55.55 L646.4 54.85 M680.5 311.9 Q681.85 310.7 683.75 310.6 685.7 310.5 687.15 311.55 689.15 313.0 689.7 316.15 690.05 318.15 689.85 321.9 689.6 326.75 689.85 334.65 L690.15 347.35 Q690.05 350.7 689.3 352.15 688.7 353.3 687.65 353.9 686.45 354.6 685.35 354.3 682.95 353.7 682.2 349.2 680.0 336.0 678.5 321.05 678.2 317.95 678.5 316.05 678.9 313.35 680.5 311.9 M650.25 376.35 Q641.8 375.0 636.05 368.95 633.55 366.3 632.75 363.85 632.15 361.95 632.15 359.05 L632.3 354.1 632.15 350.45 Q632.15 348.35 632.65 346.95 633.45 344.7 636.85 341.6 640.4 338.35 642.6 337.35 645.6 336.0 650.4 336.15 L658.6 336.6 656.1 325.55 Q654.95 320.3 654.85 317.9 654.75 314.1 656.2 312.05 657.9 309.55 660.95 309.45 662.35 309.4 663.65 310.0 665.0 310.6 665.85 311.75 666.85 313.0 667.3 315.05 L667.8 318.7 Q668.15 321.75 669.7 328.8 671.15 335.2 671.4 338.85 L671.35 349.55 670.95 357.5 Q670.45 361.95 668.9 365.0 667.5 367.65 664.45 370.9 660.9 374.55 658.4 375.6 655.1 377.05 650.25 376.35 M684.0 365.5 Q684.9 364.85 685.8 364.65 L687.2 364.45 Q689.0 364.45 690.45 365.7 691.95 367.0 692.2 368.75 692.45 370.55 691.45 372.2 690.45 373.85 688.75 374.4 L685.25 374.25 Q683.45 373.55 682.6 371.95 681.75 370.35 682.2 368.5 682.6 366.6 684.0 365.5 M644.7 360.05 Q645.45 361.55 647.8 362.6 651.0 364.2 653.35 363.55 656.15 362.8 658.1 358.75 660.35 354.2 658.5 351.3 L656.8 349.0 656.4 348.2 655.9 347.5 Q655.3 346.9 654.0 346.8 650.2 346.5 646.75 348.45 645.1 349.45 644.55 350.6 644.2 351.4 644.2 352.65 L644.25 354.8 644.2 357.5 Q644.2 359.05 644.7 360.05 M585.75 37.0 L593.4 43.25 587.3 43.9 586.2 38.5 585.75 37.0 M617.35 68.9 Q625.5 79.65 632.25 91.9 663.6 149.05 640.85 209.95 617.8 271.45 556.65 300.55 495.6 329.45 431.1 309.1 389.85 296.15 362.6 267.6 360.4 270.15 357.5 272.1 353.8 274.55 349.1 275.95 L351.5 277.75 Q354.5 280.6 354.95 284.2 355.15 285.7 354.85 288.0 L354.0 291.45 Q353.25 293.05 352.3 294.25 351.4 295.55 350.1 296.45 347.6 298.15 343.55 298.15 339.55 298.15 336.0 296.7 332.25 295.2 329.8 292.35 328.55 290.9 328.1 289.65 327.5 287.95 327.7 284.75 327.9 281.8 328.5 280.65 329.05 279.7 330.05 278.7 L331.7 277.1 331.15 276.85 Q329.7 276.15 328.85 274.8 328.0 273.35 328.3 271.85 L320.15 271.55 Q316.05 270.15 313.45 266.85 310.9 263.65 310.3 259.3 309.7 255.05 311.2 251.15 312.05 249.05 314.1 245.85 316.2 242.7 318.35 240.45 322.6 236.05 328.7 233.95 332.3 232.75 337.3 232.3 L337.2 232.15 Q306.9 175.35 323.7 113.6 341.0 50.0 401.95 19.1 461.5 -11.15 525.75 6.45 533.35 8.55 540.95 11.6 550.45 15.45 559.25 20.05 556.2 20.45 553.2 21.7 549.6 23.25 546.8 25.85 L545.0 27.95 541.5 26.65 Q533.2 23.75 526.2 22.5 516.5 20.75 502.75 21.3 489.85 21.85 481.3 24.55 477.0 25.85 472.15 28.35 L471.3 28.05 Q469.5 27.6 465.9 27.95 460.6 28.7 454.2 30.5 L442.75 34.05 Q435.05 36.55 431.35 38.25 425.15 41.05 416.55 47.0 411.85 50.3 409.4 52.6 408.15 53.7 407.4 54.85 399.55 56.1 392.6 58.0 384.0 60.45 377.8 63.6 370.2 67.4 362.65 73.85 L361.2 75.1 Q353.5 81.75 350.8 87.8 347.5 95.25 349.4 104.15 351.0 111.7 356.05 119.4 358.45 122.95 360.3 124.25 362.0 125.5 363.7 125.8 358.95 134.85 359.6 145.4 359.75 149.2 360.7 152.7 361.9 157.55 364.45 161.9 373.25 177.35 388.5 186.65 L381.65 188.3 Q381.4 189.45 382.3 189.9 383.05 190.35 383.95 190.6 386.25 191.55 388.7 191.55 385.0 192.85 381.4 194.25 377.55 195.8 378.45 199.75 379.35 204.3 383.2 207.15 L395.35 215.8 Q403.7 221.65 413.15 223.35 415.3 224.7 417.75 225.5 L421.1 226.1 420.7 227.05 420.2 228.55 419.75 230.5 Q417.65 231.35 416.5 233.0 415.5 234.4 414.75 237.45 L414.75 237.5 Q411.45 233.6 407.35 229.6 L406.3 228.55 Q403.7 226.1 401.55 224.6 397.25 221.6 390.8 219.9 385.6 218.55 382.1 219.25 379.8 219.6 378.0 220.85 376.05 222.2 375.15 224.15 374.25 226.15 374.55 228.55 374.8 231.05 376.35 233.9 377.55 236.1 379.15 237.9 L379.75 238.5 378.65 240.2 Q374.05 248.3 372.85 254.9 371.2 263.2 374.5 269.85 375.05 271.5 376.2 273.4 378.65 277.95 381.2 279.65 382.65 280.65 384.95 281.25 391.8 283.5 396.7 282.3 398.1 282.0 399.0 281.45 L400.15 282.55 Q406.75 288.7 410.15 291.0 416.5 295.1 422.35 295.2 425.75 295.25 428.75 293.9 L432.0 291.8 Q437.1 294.55 443.25 294.75 448.55 294.95 458.1 292.2 468.2 289.35 472.9 289.2 479.25 293.5 490.6 293.9 504.9 294.2 513.45 288.45 L514.2 287.95 514.45 287.85 514.75 287.7 Q515.75 288.4 517.4 289.1 521.55 290.95 524.25 291.65 L537.15 292.05 Q543.8 290.7 549.0 286.7 551.45 284.85 555.25 280.7 L559.35 276.15 562.4 278.0 564.6 278.35 566.85 278.6 Q575.15 279.15 580.45 274.3 583.65 271.4 585.05 266.9 586.35 262.7 586.0 258.0 585.7 254.0 584.15 249.3 L580.9 240.95 579.45 237.9 579.05 237.2 Q583.0 234.4 584.5 232.0 585.5 230.35 585.8 228.55 L585.85 225.9 Q585.55 222.45 583.4 220.15 580.0 216.6 573.55 216.75 L570.45 217.05 Q572.55 215.9 574.5 214.45 578.95 210.95 583.15 206.85 L585.2 204.6 Q588.6 200.7 585.3 197.45 L589.8 196.1 590.35 194.6 Q589.7 193.15 588.25 192.8 L584.2 193.1 579.75 193.05 Q584.2 190.8 587.3 187.15 L589.55 183.95 Q593.0 178.35 594.5 172.1 596.8 162.15 595.5 152.7 594.75 147.35 592.85 142.15 594.95 141.5 597.2 138.7 600.6 134.25 602.55 129.8 605.6 122.9 606.25 113.7 606.7 107.25 606.1 96.95 605.4 86.45 604.1 80.4 608.0 79.6 611.35 76.9 L614.5 73.85 Q615.8 72.25 616.7 70.3 L617.35 68.9 M551.7 163.45 L551.6 165.75 Q557.3 169.15 556.05 175.0 555.25 178.8 551.15 179.55 L543.95 181.0 Q542.75 180.5 541.95 181.5 540.2 183.45 539.2 186.0 537.65 190.2 533.3 190.25 527.05 190.35 523.9 184.3 512.55 184.95 503.8 177.8 501.15 175.55 499.65 172.35 494.85 161.95 500.05 152.7 501.1 150.7 502.65 148.75 505.25 145.6 509.0 143.55 512.4 141.75 516.1 140.65 514.35 147.1 515.9 152.7 516.95 156.7 519.7 160.35 522.15 163.55 526.1 165.3 539.35 171.05 551.7 163.45 M437.4 139.25 Q432.25 145.7 433.65 152.7 434.2 155.65 436.0 158.7 438.65 163.25 443.2 165.6 453.7 171.05 464.9 167.1 464.2 170.05 462.85 172.9 461.4 175.8 459.05 177.8 450.35 184.95 438.8 184.4 436.2 189.5 431.05 190.5 426.45 191.2 424.2 187.1 L420.95 181.55 Q420.6 180.85 420.05 181.0 414.9 180.3 409.7 178.7 408.8 178.45 408.3 177.7 403.7 170.85 411.2 165.85 L411.2 164.95 Q411.2 161.65 411.65 158.4 412.15 155.3 413.65 152.7 L413.75 152.45 Q421.45 139.25 437.4 139.25 M442.5 255.3 Q444.35 254.0 445.3 253.75 446.8 253.45 448.2 254.4 449.45 255.3 449.85 256.85 450.1 257.75 449.95 258.9 L449.85 259.9 450.2 259.8 460.3 259.25 462.35 259.6 Q462.35 258.65 462.6 257.8 463.4 255.7 465.45 254.8 L469.7 254.7 Q471.4 255.25 473.2 256.85 L474.9 258.75 Q475.7 259.8 476.5 261.6 L477.25 263.45 Q477.55 264.85 476.95 266.15 476.4 267.45 475.15 268.15 L472.7 268.8 469.9 268.75 467.8 268.0 467.75 268.0 467.35 269.2 Q466.4 271.85 464.15 273.35 461.95 274.85 458.75 275.15 453.8 275.8 448.95 273.9 447.2 273.25 446.35 272.5 444.85 271.25 444.4 269.5 L443.35 270.45 Q441.55 271.9 439.65 271.75 438.35 271.65 437.25 270.75 436.2 269.85 435.9 268.6 435.4 266.7 436.9 263.4 L438.75 259.6 Q439.8 257.75 440.8 256.8 L442.5 255.3 M448.65 268.55 L451.2 268.25 452.15 268.0 452.45 267.75 Q452.75 267.25 452.45 266.65 L451.8 266.25 451.45 266.25 448.4 266.55 447.95 266.75 447.6 266.75 446.55 266.9 445.75 267.15 445.4 267.4 445.35 267.9 445.4 268.2 Q445.55 268.55 446.25 268.7 L447.3 268.75 448.65 268.55 M490.0 259.55 L488.2 259.8 486.4 259.9 Q485.0 259.75 484.25 258.35 483.5 257.0 484.3 255.7 484.85 254.7 486.55 254.05 L487.95 253.7 491.55 254.05 492.95 254.4 Q495.0 255.0 495.7 257.0 L496.0 258.65 495.85 259.65 Q495.35 261.1 494.0 261.9 492.8 262.7 491.2 262.85 L489.7 262.6 488.95 261.9 488.5 261.2 Q488.45 260.85 488.75 260.4 L489.4 259.9 490.0 259.55 M455.55 273.05 L455.55 272.85 455.6 272.8 455.7 272.65 455.95 272.85 456.0 272.85 456.05 272.9 456.3 273.05 456.3 273.25 456.25 273.35 455.95 273.3 455.75 273.1 455.55 273.05 M464.2 268.75 L464.9 268.75 465.25 268.6 465.5 268.45 465.75 268.2 Q466.15 267.25 465.3 266.8 L464.55 266.55 462.4 266.25 462.25 266.2 460.9 266.05 459.55 265.95 459.45 266.0 Q458.85 265.9 458.6 266.65 L458.6 266.95 458.75 267.45 459.0 267.75 459.4 267.9 464.2 268.75 M456.2 271.5 L456.0 270.8 Q455.55 270.5 455.35 270.8 455.25 271.0 455.3 271.5 L455.1 271.85 Q454.85 272.4 454.75 273.1 L454.8 273.5 455.3 273.9 456.0 274.15 456.7 273.85 456.9 273.15 Q456.9 272.25 456.05 272.0 L456.2 271.5 M321.35 249.05 Q319.3 251.6 318.5 254.05 317.5 257.1 318.3 259.75 318.9 261.6 320.45 263.1 321.9 264.55 323.85 265.3 327.15 266.65 331.8 266.1 337.05 265.5 340.35 262.9 341.25 262.25 341.65 262.15 L342.4 262.3 Q342.75 262.55 342.75 262.9 L342.4 263.6 339.9 266.15 Q338.35 267.65 335.35 269.8 341.2 270.35 346.7 268.5 352.4 266.6 356.25 262.55 L357.15 261.55 358.5 259.45 Q360.1 256.3 359.4 252.5 358.7 248.85 356.25 246.0 355.05 244.55 353.25 243.2 L349.8 241.05 Q347.85 240.3 343.6 240.2 L341.8 240.25 335.9 240.6 Q331.65 241.15 328.6 242.75 324.55 244.9 321.35 249.05 M342.75 281.55 L340.85 280.9 338.9 280.4 Q336.4 280.1 335.2 281.6 334.45 282.6 334.45 285.15 334.45 286.4 334.7 287.25 335.1 288.15 335.85 288.85 338.2 291.05 343.55 290.85 L345.7 290.45 Q346.5 289.95 347.15 288.65 347.75 287.3 347.75 286.0 347.75 284.5 346.9 283.5 346.25 282.75 345.0 282.25 L342.75 281.55 M393.95 320.65 Q395.4 319.05 397.55 319.2 399.7 319.35 400.85 321.2 401.6 322.5 401.8 325.2 L402.1 329.95 402.25 335.05 401.8 339.9 407.05 339.55 Q411.95 339.35 414.55 340.7 416.3 341.65 417.3 343.4 418.3 345.3 417.75 347.05 416.7 350.7 410.25 351.35 L402.0 351.9 402.25 369.0 402.05 372.9 Q401.65 375.0 400.6 376.35 398.95 378.5 396.1 378.5 393.3 378.4 391.65 376.25 390.6 374.9 390.3 372.8 390.05 371.4 390.1 368.95 L390.3 353.75 389.4 353.95 385.85 354.4 Q383.9 354.3 382.4 353.2 380.75 352.05 380.5 350.35 380.25 348.35 381.95 346.55 383.35 345.1 385.7 344.05 388.1 342.95 390.75 342.15 L391.15 338.3 391.9 333.55 392.4 328.75 392.45 326.35 Q392.45 324.9 392.6 323.9 392.95 321.75 393.95 320.65 M365.35 380.95 Q359.2 382.45 354.05 380.8 351.0 379.8 348.5 377.65 346.0 375.55 344.55 372.7 341.85 367.5 343.0 361.1 344.05 355.1 348.05 350.2 350.85 346.75 354.5 344.55 358.35 342.15 362.5 341.7 366.9 341.25 370.95 343.0 375.15 344.8 377.4 348.4 380.0 352.5 380.1 360.2 380.2 368.0 377.65 372.4 375.8 375.6 372.4 377.9 369.3 379.95 365.35 380.95 M368.4 366.0 Q368.75 365.0 368.75 363.3 L368.75 357.6 Q368.75 355.05 367.75 354.1 367.05 353.45 365.0 353.25 360.15 352.85 358.15 354.35 357.5 354.85 356.55 356.05 L354.95 357.8 Q355.55 360.4 355.45 363.3 L355.45 365.7 Q355.55 367.0 356.2 367.8 357.3 369.1 360.55 369.2 L365.05 368.8 Q367.6 368.0 368.4 366.0 M310.6 341.15 Q316.75 338.6 322.5 340.4 326.55 341.65 329.75 345.1 332.7 348.3 334.25 352.6 336.75 359.3 336.1 369.95 335.8 374.15 334.75 376.1 333.95 377.6 332.65 378.5 331.2 379.45 329.7 379.3 328.2 379.15 326.95 378.0 325.8 376.95 325.25 375.4 324.5 373.45 324.5 369.25 L324.0 360.7 Q323.4 354.15 320.25 352.35 317.6 350.85 314.45 352.6 311.45 354.3 310.35 357.45 309.45 360.0 309.55 363.65 L309.95 370.05 Q310.1 373.2 309.25 375.5 308.2 378.35 305.85 379.05 304.0 379.65 302.0 378.6 300.15 377.6 299.1 375.75 297.7 373.15 297.5 367.8 L297.35 361.55 Q297.45 358.05 298.15 355.4 299.4 350.65 302.75 346.8 306.05 343.0 310.6 341.15 M364.7 395.25 Q365.45 395.8 365.7 397.0 366.0 398.05 365.75 398.75 365.5 399.55 364.75 400.0 363.95 400.5 363.15 400.3 L361.8 400.2 Q361.4 400.35 360.95 401.05 L364.5 402.55 Q366.1 403.05 366.75 403.55 L367.85 405.1 Q368.5 406.1 368.6 406.8 L368.55 408.55 Q367.9 411.15 365.5 412.35 364.05 413.05 362.2 413.15 359.6 413.25 358.1 412.2 357.2 411.55 356.8 410.5 356.4 409.4 356.8 408.45 357.1 407.9 357.45 407.7 L358.4 407.6 362.65 407.7 Q363.8 407.7 364.15 407.25 L360.1 405.65 Q357.75 404.7 357.0 403.8 355.7 402.35 356.2 400.35 356.45 399.45 357.2 398.45 L358.6 396.75 360.35 395.1 362.5 394.75 Q364.05 394.75 364.7 395.25 M382.85 405.55 Q382.25 407.5 380.35 408.85 378.6 410.0 376.35 410.25 L373.3 410.0 Q372.05 409.55 370.8 408.2 369.0 406.4 368.6 404.4 368.35 403.4 368.35 402.0 L368.35 400.6 368.8 399.35 Q369.3 398.15 370.05 397.35 370.9 396.5 372.6 395.85 373.75 395.35 374.7 395.15 377.7 394.6 380.15 396.35 382.7 398.1 383.15 401.1 L383.2 403.35 382.85 405.55 M387.55 394.1 L388.6 394.15 389.45 393.5 Q390.45 392.35 391.25 392.0 L393.25 391.65 Q396.65 391.55 398.0 392.55 398.95 393.3 399.35 394.5 399.65 395.55 399.3 396.2 398.7 397.45 397.1 397.65 L394.35 397.7 393.65 397.85 Q393.3 397.95 393.0 398.45 L392.4 399.85 Q391.6 402.25 391.5 403.55 L391.15 405.4 Q390.65 406.7 389.3 406.95 387.9 407.2 386.95 406.25 386.0 405.25 386.0 402.55 L386.0 399.8 385.85 397.6 385.65 396.65 385.6 395.7 Q385.7 395.05 386.3 394.55 386.85 394.05 387.55 394.1 M413.55 398.15 L411.2 398.4 Q409.9 398.9 409.55 400.0 409.35 400.45 409.35 401.85 L409.05 404.45 Q408.75 405.95 407.95 406.7 406.95 407.6 405.65 407.3 404.4 407.1 403.7 405.8 403.4 405.25 403.2 404.0 L402.2 397.8 Q401.9 395.7 402.4 394.8 402.75 394.2 403.4 393.85 L404.75 393.6 405.9 393.7 406.6 393.25 408.35 392.05 Q409.5 391.45 412.15 391.25 L414.45 391.4 Q416.8 391.9 417.85 394.05 L418.2 395.85 Q418.1 396.7 417.4 397.35 416.75 397.95 415.85 398.15 L414.7 398.2 413.55 398.15 M426.15 393.05 L427.5 394.4 428.85 395.8 429.25 396.35 429.45 395.95 430.9 393.6 432.15 391.85 432.7 390.9 433.35 390.05 Q434.0 389.45 435.0 389.55 436.0 389.7 436.45 390.45 437.1 391.55 436.35 393.6 435.05 397.3 432.0 403.35 L428.45 409.75 427.05 412.3 Q426.15 413.7 424.9 414.25 423.25 414.9 422.1 413.9 421.0 412.95 421.25 411.1 421.5 409.95 422.45 408.3 L426.2 401.75 424.85 401.2 422.8 399.45 Q420.9 397.5 420.0 395.65 L419.65 394.8 Q419.4 393.9 419.7 393.0 420.0 392.05 420.7 391.5 421.4 390.95 422.35 390.85 423.3 390.75 424.1 391.2 L425.2 392.05 426.15 393.05 M508.6 341.4 Q510.85 344.75 510.7 348.05 510.65 349.85 509.75 351.45 508.8 353.1 507.25 353.85 505.65 354.65 503.8 354.2 501.9 353.75 501.0 352.25 L500.05 349.95 Q499.55 348.55 498.75 348.05 498.0 347.55 495.95 347.55 L493.05 348.05 Q491.75 348.65 490.8 350.3 489.55 352.3 489.1 355.25 488.8 357.15 488.75 360.55 488.55 369.2 488.75 373.9 L490.8 373.8 493.6 373.5 496.35 373.8 Q498.05 374.4 499.0 376.05 500.0 377.7 499.8 379.5 499.6 381.25 498.35 382.7 497.2 384.1 495.5 384.75 L489.55 385.1 489.7 386.95 490.25 392.6 491.35 404.95 Q491.65 407.6 491.25 409.1 490.75 411.5 488.9 412.4 487.5 413.05 485.8 412.4 484.25 411.8 483.25 410.45 481.9 408.55 481.3 404.35 L480.6 400.0 479.2 390.75 478.3 381.05 478.2 379.2 Q477.65 371.2 477.45 360.7 477.25 354.4 478.05 351.05 478.75 348.0 480.55 344.6 483.4 339.5 487.15 337.5 490.65 335.6 496.85 335.7 501.4 335.8 503.8 337.0 506.5 338.3 508.6 341.4 M489.85 268.05 L488.15 268.15 Q487.35 267.95 486.85 267.15 L486.65 267.0 486.45 266.55 486.3 265.65 486.4 264.9 486.8 264.15 487.05 263.85 487.6 263.45 Q488.25 263.05 488.75 263.1 L488.9 263.05 Q489.85 263.15 490.2 263.4 490.9 263.75 491.15 264.4 L491.2 264.45 491.45 265.25 491.5 265.6 491.5 266.0 491.3 266.65 490.9 267.3 490.6 267.65 489.85 268.05 M514.8 369.7 Q512.9 364.65 514.3 359.15 515.7 353.6 519.75 350.1 524.75 345.75 532.65 345.05 538.3 344.6 542.15 346.55 546.1 348.5 548.2 352.85 550.25 357.05 549.7 361.6 549.2 365.95 546.5 369.9 543.95 373.55 540.0 376.1 535.25 379.15 529.75 379.4 523.9 379.7 519.8 376.55 516.55 374.05 514.8 369.7 M529.1 367.5 Q532.45 367.5 534.0 366.35 L535.4 364.8 536.65 363.1 537.6 362.15 538.4 361.15 Q538.85 360.3 538.65 359.1 L538.1 357.0 537.55 356.15 537.0 356.05 Q529.6 355.75 525.65 357.9 L524.65 358.75 Q524.3 359.35 524.5 360.7 525.05 363.25 525.9 365.3 526.6 366.9 527.5 367.3 L529.1 367.5 M561.85 346.85 Q563.6 347.1 564.8 348.8 565.85 350.3 566.15 352.35 L566.3 356.1 Q566.3 358.45 566.6 359.8 567.05 361.8 568.4 363.15 569.85 364.65 571.6 364.45 573.25 364.25 574.85 362.65 576.85 360.75 578.0 358.15 579.2 355.55 579.35 352.8 L579.45 349.8 Q579.5 348.05 580.0 346.95 580.85 344.9 583.2 344.1 585.55 343.25 587.5 344.35 589.7 345.55 590.55 348.45 591.25 350.85 590.95 353.95 590.2 362.55 585.6 368.6 583.1 371.8 579.7 373.8 576.1 375.9 572.25 376.25 568.3 376.65 564.55 375.0 560.75 373.3 558.55 370.05 556.7 367.25 556.1 363.25 555.6 360.25 555.8 355.85 555.9 351.85 556.95 349.85 557.7 348.45 559.0 347.6 560.4 346.65 561.85 346.85 M630.55 365.3 Q630.8 369.9 628.2 372.25 626.3 374.0 623.4 373.65 620.55 373.3 619.1 371.1 618.35 370.0 618.0 368.2 L617.45 365.05 Q616.55 359.85 613.6 357.5 611.85 356.1 609.55 356.05 607.15 356.0 605.7 357.5 604.3 358.9 604.15 361.5 604.05 362.95 604.4 366.1 604.65 368.75 604.1 370.75 603.4 373.25 601.5 374.05 599.05 375.05 596.7 373.2 594.9 371.8 593.85 369.0 591.25 362.45 594.05 355.3 596.8 348.2 603.15 345.1 606.35 343.6 609.75 343.4 613.3 343.2 616.3 344.55 619.95 346.2 623.95 351.05 630.25 358.65 630.55 365.3 M161.85 248.0 Q148.45 248.55 135.0 248.3 102.45 247.95 68.85 243.95 L50.2 241.2 Q40.1 239.25 31.95 236.45 16.75 231.2 9.55 222.55 -0.2 211.0 0.0 189.9 0.1 175.2 4.25 162.55 8.85 148.55 19.5 134.15 27.2 123.75 41.0 109.6 83.65 66.05 133.1 30.35 150.25 18.0 162.5 11.75 179.55 3.1 195.15 1.45 206.65 0.25 216.85 3.15 228.1 6.4 235.15 14.0 242.4 21.8 245.5 34.7 247.55 43.35 248.3 58.6 250.25 96.8 250.65 135.8 265.1 135.0 278.85 141.6 292.5 148.15 301.35 160.0 305.4 165.45 307.4 170.5 309.4 175.6 310.15 182.0 311.3 193.25 307.6 204.4 303.95 215.5 296.3 223.95 288.65 232.35 278.05 237.2 267.55 242.1 256.2 242.45 L256.15 243.25 255.55 264.8 Q254.85 277.1 252.6 285.95 249.75 297.05 243.65 305.5 236.85 314.9 227.45 318.85 211.25 325.65 186.8 316.15 182.95 314.65 180.55 313.4 177.25 311.65 174.95 309.6 168.85 304.15 165.85 292.75 163.25 283.1 162.65 270.7 162.25 262.7 162.7 248.2 L162.7 248.0 161.85 248.0 M459.3 404.65 Q458.65 405.5 457.55 405.75 L455.45 405.6 Q454.5 405.2 453.95 404.2 453.4 403.2 453.55 402.15 453.7 401.1 454.5 400.3 455.3 399.5 456.35 399.35 457.4 399.25 458.35 399.8 459.35 400.4 459.75 401.35 460.5 403.15 459.3 404.65 M445.65 405.6 Q444.7 405.15 444.25 404.2 443.9 403.45 444.05 402.5 444.2 401.6 444.75 400.85 445.35 399.85 446.5 399.45 447.55 399.05 448.7 399.45 449.85 399.85 450.4 400.85 450.95 401.8 450.8 403.0 450.65 404.2 449.85 405.0 449.05 405.8 447.85 405.95 446.65 406.15 445.65 405.6 M441.25 405.1 Q440.45 405.8 439.35 405.9 438.2 405.95 437.35 405.35 436.5 404.7 436.2 403.6 435.9 402.55 436.3 401.55 436.65 400.7 437.5 400.2 438.35 399.65 439.25 399.7 440.2 399.7 441.0 400.3 441.8 400.85 442.1 401.75 442.45 402.6 442.2 403.55 L441.25 405.1 M378.0 403.85 L378.1 403.3 377.85 401.4 Q377.35 400.5 376.15 400.5 375.45 400.5 374.25 401.0 L375.1 402.5 Q375.6 403.5 376.05 403.9 L376.7 404.2 377.25 404.1 377.65 404.05 378.0 403.85" fill="#ffffcc" fill-rule="evenodd" stroke="none"/>
      <path d="M625.0 22.35 Q628.2 18.2 632.25 16.05 635.3 14.45 639.55 13.9 L647.25 13.5 Q651.5 13.6 653.45 14.35 655.0 15.0 656.9 16.5 658.7 17.85 659.9 19.3 662.35 22.15 663.05 25.8 663.75 29.6 662.15 32.75 L662.1 32.9 659.9 35.85 Q656.05 39.9 650.35 41.8 644.85 43.65 639.0 43.1 L643.55 39.45 646.05 36.9 646.4 36.2 Q646.4 35.85 646.05 35.6 L645.3 35.45 Q644.9 35.55 644.0 36.2 640.7 38.8 635.45 39.4 632.9 39.7 630.75 39.45 L627.5 38.6 Q625.55 37.85 624.1 36.4 622.55 34.9 621.95 33.05 621.15 30.4 622.15 27.35 622.95 24.9 625.0 22.35 M646.4 54.85 L648.65 55.55 Q649.9 56.05 650.55 56.8 651.4 57.8 651.4 59.3 651.4 60.6 650.8 61.95 650.15 63.25 649.35 63.75 L647.2 64.15 Q641.85 64.35 639.5 62.15 638.75 61.45 638.35 60.55 638.1 59.7 638.1 58.45 638.1 55.9 638.85 54.9 640.05 53.4 642.55 53.7 L644.5 54.2 646.4 54.85 M428.75 240.05 Q426.4 241.5 423.5 243.6 423.75 242.7 422.45 241.7 421.2 240.8 422.7 237.9 L423.15 237.05 430.55 237.05 434.65 236.9 432.6 237.9 Q430.6 238.9 428.75 240.05 M442.5 255.3 L440.8 256.8 Q439.8 257.75 438.75 259.6 L436.9 263.4 Q435.4 266.7 435.9 268.6 436.2 269.85 437.25 270.75 438.35 271.65 439.65 271.75 441.55 271.9 443.35 270.45 L444.4 269.5 Q444.85 271.25 446.35 272.5 447.2 273.25 448.95 273.9 453.8 275.8 458.75 275.15 461.95 274.85 464.15 273.35 466.4 271.85 467.35 269.2 L467.75 268.0 467.8 268.0 469.9 268.75 472.7 268.8 475.15 268.15 Q476.4 267.45 476.95 266.15 477.55 264.85 477.25 263.45 L476.5 261.6 Q475.7 259.8 474.9 258.75 L473.2 256.85 Q471.4 255.25 469.7 254.7 L465.45 254.8 Q463.4 255.7 462.6 257.8 462.35 258.65 462.35 259.6 L460.3 259.25 450.2 259.8 449.85 259.9 449.95 258.9 Q450.1 257.75 449.85 256.85 449.45 255.3 448.2 254.4 446.8 253.45 445.3 253.75 444.35 254.0 442.5 255.3 M448.65 268.55 L447.3 268.75 446.25 268.7 Q445.55 268.55 445.4 268.2 L445.35 267.9 445.4 267.4 445.75 267.15 446.55 266.9 447.6 266.75 447.95 266.75 448.4 266.55 451.45 266.25 451.8 266.25 452.45 266.65 Q452.75 267.25 452.45 267.75 L452.15 268.0 451.2 268.25 448.65 268.55 M422.1 254.0 Q426.05 248.9 434.35 244.9 444.4 242.75 456.35 245.6 L464.65 247.6 469.7 248.35 470.75 248.4 470.85 248.45 472.6 248.4 Q475.35 247.3 481.35 246.65 L488.0 246.0 495.75 245.35 Q507.2 244.8 518.25 247.9 L519.55 248.2 520.85 251.95 522.0 254.4 Q523.5 259.15 522.05 266.0 521.45 268.75 520.6 270.7 518.25 276.1 511.45 280.75 506.7 284.15 501.85 285.8 L499.1 286.25 491.3 286.85 487.35 286.95 486.3 286.8 Q479.4 285.6 472.35 282.35 L471.35 282.45 468.7 281.3 466.7 281.2 Q466.0 281.55 465.95 282.45 L465.95 283.05 463.35 283.7 461.95 284.0 460.7 284.3 460.4 284.4 459.45 284.65 452.4 286.5 Q445.35 287.65 438.65 285.75 435.4 284.8 432.6 283.35 L429.3 280.25 425.4 276.5 Q421.55 272.55 419.6 267.65 419.1 265.25 419.15 262.45 419.3 257.25 422.1 254.0 M490.0 259.55 L489.4 259.9 488.75 260.4 Q488.45 260.85 488.5 261.2 L488.95 261.9 489.7 262.6 491.2 262.85 Q492.8 262.7 494.0 261.9 495.35 261.1 495.85 259.65 L496.0 258.65 495.7 257.0 Q495.0 255.0 492.95 254.4 L491.55 254.05 487.95 253.7 486.55 254.05 Q484.85 254.7 484.3 255.7 483.5 257.0 484.25 258.35 485.0 259.75 486.4 259.9 L488.2 259.8 490.0 259.55 M456.2 271.5 L456.05 272.0 Q456.9 272.25 456.9 273.15 L456.7 273.85 456.0 274.15 455.3 273.9 454.8 273.5 454.75 273.1 Q454.85 272.4 455.1 271.85 L455.3 271.5 Q455.25 271.0 455.35 270.8 455.55 270.5 456.0 270.8 L456.2 271.5 M464.2 268.75 L459.4 267.9 459.0 267.75 458.75 267.45 458.6 266.95 458.6 266.65 Q458.85 265.9 459.45 266.0 L459.55 265.95 460.9 266.05 462.25 266.2 462.4 266.25 464.55 266.55 465.3 266.8 Q466.15 267.25 465.75 268.2 L465.5 268.45 465.25 268.6 464.9 268.75 464.2 268.75 M455.55 273.05 L455.75 273.1 455.95 273.3 456.25 273.35 456.3 273.25 456.3 273.05 456.05 272.9 456.0 272.85 455.95 272.85 455.7 272.65 455.6 272.8 455.55 272.85 455.55 273.05 M342.75 281.55 L345.0 282.25 Q346.25 282.75 346.9 283.5 347.75 284.5 347.75 286.0 347.75 287.3 347.15 288.65 346.5 289.95 345.7 290.45 L343.55 290.85 Q338.2 291.05 335.85 288.85 335.1 288.15 334.7 287.25 334.45 286.4 334.45 285.15 334.45 282.6 335.2 281.6 336.4 280.1 338.9 280.4 L340.85 280.9 342.75 281.55 M321.35 249.05 Q324.55 244.9 328.6 242.75 331.65 241.15 335.9 240.6 L341.8 240.25 343.6 240.2 Q347.85 240.3 349.8 241.05 L353.25 243.2 Q355.05 244.55 356.25 246.0 358.7 248.85 359.4 252.5 360.1 256.3 358.5 259.45 L357.15 261.55 356.25 262.55 Q352.4 266.6 346.7 268.5 341.2 270.35 335.35 269.8 338.35 267.65 339.9 266.15 L342.4 263.6 342.75 262.9 Q342.75 262.55 342.4 262.3 L341.65 262.15 Q341.25 262.25 340.35 262.9 337.05 265.5 331.8 266.1 327.15 266.65 323.85 265.3 321.9 264.55 320.45 263.1 318.9 261.6 318.3 259.75 317.5 257.1 318.5 254.05 319.3 251.6 321.35 249.05 M537.15 233.1 L538.35 233.05 537.9 235.9 537.7 237.9 537.7 238.65 537.7 239.9 534.2 243.95 Q531.2 247.25 530.65 247.0 530.0 246.75 529.0 247.0 528.0 247.15 527.5 246.05 525.05 241.5 522.65 239.0 L521.5 237.9 515.85 233.15 514.25 231.9 524.4 231.85 525.85 231.85 Q531.2 233.3 537.15 233.1 M489.85 268.05 L490.6 267.65 490.9 267.3 491.3 266.65 491.5 266.0 491.5 265.6 491.45 265.25 491.2 264.45 491.15 264.4 Q490.9 263.75 490.2 263.4 489.85 263.15 488.9 263.05 L488.75 263.1 Q488.25 263.05 487.6 263.45 L487.05 263.85 486.8 264.15 486.4 264.9 486.3 265.65 486.45 266.55 486.65 267.0 486.85 267.15 Q487.35 267.95 488.15 268.15 L489.85 268.05" fill="#996666" fill-rule="evenodd" stroke="none"/>
      <path d="M556.3 32.5 L553.9 31.5 554.65 31.0 Q556.75 29.75 557.9 29.45 559.7 28.85 562.55 28.95 567.1 29.2 569.65 30.5 571.85 31.55 574.15 34.05 575.65 35.55 576.8 37.4 578.4 40.3 578.9 44.3 576.3 42.6 573.5 41.2 L572.55 39.85 Q571.5 38.8 568.5 37.5 L556.3 32.5 M591.4 55.25 L589.0 52.65 Q591.6 52.45 594.85 52.7 L598.55 53.2 Q604.35 54.7 607.4 59.8 608.5 61.75 608.5 63.15 608.5 65.3 606.45 67.45 605.4 68.5 602.4 70.65 L601.35 71.45 Q597.8 62.75 591.4 55.25 M409.65 145.9 Q407.55 149.15 406.25 152.7 404.05 158.7 404.3 165.5 400.3 168.4 399.5 172.95 398.9 176.2 401.15 178.85 406.15 184.8 413.55 184.7 409.2 188.4 406.6 193.0 403.5 198.35 403.2 203.85 403.0 207.35 404.0 210.7 396.05 206.35 389.6 199.35 L392.25 197.2 Q395.2 194.8 397.7 191.55 399.15 189.75 398.25 187.75 L395.4 186.85 390.8 182.9 Q385.85 178.5 381.9 172.9 375.75 164.2 372.7 154.25 L372.25 152.7 Q371.0 147.6 371.4 142.25 371.6 139.25 372.65 136.55 379.0 120.95 391.35 109.45 404.55 97.0 419.9 87.25 433.65 78.45 449.2 74.55 L453.3 73.85 Q455.85 73.6 458.4 73.85 L459.55 74.0 Q472.6 76.4 483.85 83.75 L487.15 87.55 489.45 86.05 485.55 70.4 489.75 72.2 493.15 73.85 Q514.25 84.8 529.7 102.75 L534.75 108.15 Q536.6 109.95 538.95 110.7 555.25 115.15 569.0 125.45 575.35 130.2 579.65 136.95 584.3 144.3 586.0 152.7 586.7 156.55 586.8 160.65 587.25 176.05 576.8 187.0 574.6 189.25 571.7 190.95 567.2 193.55 567.0 198.2 L567.4 198.1 568.15 198.65 Q572.55 202.05 578.7 201.9 L577.8 203.15 Q573.1 208.3 567.0 211.45 L560.25 213.35 556.4 183.15 Q561.65 181.3 563.0 176.0 564.55 169.4 558.45 165.35 558.75 159.9 557.2 154.55 L556.55 152.7 Q552.2 140.65 540.05 135.9 522.8 129.3 506.6 137.95 497.25 143.0 493.6 152.7 L493.2 154.0 467.8 149.5 Q466.15 147.0 464.15 144.85 451.5 130.95 432.55 133.6 L431.65 131.8 Q430.5 129.5 430.65 127.05 431.0 121.75 433.15 116.65 L433.85 115.65 Q436.6 112.95 434.6 110.25 427.05 112.1 422.7 119.3 417.55 127.8 423.1 136.0 L419.15 137.8 Q413.65 140.85 409.65 145.9 M521.45 189.45 Q522.4 192.05 524.85 193.85 526.35 195.1 528.1 195.6 L535.8 196.95 Q539.7 197.7 541.4 194.25 L541.2 194.15 541.4 193.8 541.75 193.3 Q545.15 189.4 545.5 184.2 L550.35 184.45 Q550.0 203.15 553.85 221.6 548.3 226.7 540.7 226.5 525.8 226.2 515.0 215.9 512.55 213.45 511.95 210.05 510.1 198.35 518.9 189.8 L521.45 189.45 M443.25 208.4 Q459.1 212.85 475.25 212.85 L475.5 214.9 475.7 215.5 475.85 215.75 457.15 212.7 440.25 211.9 Q431.5 213.1 426.3 218.0 L425.2 216.75 Q424.2 215.95 422.2 215.3 L419.0 214.2 Q417.0 213.2 414.95 210.6 413.25 208.4 412.7 206.6 412.25 204.85 412.45 202.4 412.7 198.95 413.4 197.05 L415.8 191.6 Q417.25 188.8 417.75 186.9 418.25 188.9 419.15 190.8 421.45 195.35 426.45 197.05 428.55 199.75 431.15 202.0 436.45 206.4 443.25 208.4" fill="#340329" fill-rule="evenodd" stroke="none"/>
      <path d="M559.25 20.05 L560.7 19.9 Q568.65 19.4 575.15 24.25 L578.95 27.55 Q581.95 30.4 583.2 32.0 584.7 34.15 585.75 37.0 L586.2 38.5 587.3 43.9 593.4 43.25 594.7 43.25 Q599.2 43.4 601.9 44.25 603.35 44.65 606.4 46.2 609.3 47.6 610.8 48.75 615.25 52.1 617.4 58.5 618.45 61.25 618.45 63.55 618.5 66.2 617.35 68.9 L616.7 70.3 Q615.8 72.25 614.5 73.85 L611.35 76.9 Q608.0 79.6 604.1 80.4 605.4 86.45 606.1 96.95 606.7 107.25 606.25 113.7 605.6 122.9 602.55 129.8 600.6 134.25 597.2 138.7 594.95 141.5 592.85 142.15 594.75 147.35 595.5 152.7 596.8 162.15 594.5 172.1 593.0 178.35 589.55 183.95 L587.3 187.15 Q584.2 190.8 579.75 193.05 L584.2 193.1 588.25 192.8 Q589.7 193.15 590.35 194.6 L589.8 196.1 585.3 197.45 Q588.6 200.7 585.2 204.6 L583.15 206.85 Q578.95 210.95 574.5 214.45 572.55 215.9 570.45 217.05 L573.55 216.75 Q580.0 216.6 583.4 220.15 585.55 222.45 585.85 225.9 L585.8 228.55 Q585.5 230.35 584.5 232.0 583.0 234.4 579.05 237.2 L579.45 237.9 580.9 240.95 584.15 249.3 Q585.7 254.0 586.0 258.0 586.35 262.7 585.05 266.9 583.65 271.4 580.45 274.3 575.15 279.15 566.85 278.6 L564.6 278.35 562.4 278.0 559.35 276.15 555.25 280.7 Q551.45 284.85 549.0 286.7 543.8 290.7 537.15 292.05 L524.25 291.65 Q521.55 290.95 517.4 289.1 515.75 288.4 514.75 287.7 L514.45 287.85 514.2 287.95 513.45 288.45 Q504.9 294.2 490.6 293.9 479.25 293.5 472.9 289.2 468.2 289.35 458.1 292.2 448.55 294.95 443.25 294.75 437.1 294.55 432.0 291.8 L428.75 293.9 Q425.75 295.25 422.35 295.2 416.5 295.1 410.15 291.0 406.75 288.7 400.15 282.55 L399.0 281.45 Q398.1 282.0 396.7 282.3 391.8 283.5 384.95 281.25 382.65 280.65 381.2 279.65 378.65 277.95 376.2 273.4 375.05 271.5 374.5 269.85 371.2 263.2 372.85 254.9 374.05 248.3 378.65 240.2 L379.75 238.5 379.15 237.9 Q377.55 236.1 376.35 233.9 374.8 231.05 374.55 228.55 374.25 226.15 375.15 224.15 376.05 222.2 378.0 220.85 379.8 219.6 382.1 219.25 385.6 218.55 390.8 219.9 397.25 221.6 401.55 224.6 403.7 226.1 406.3 228.55 L407.35 229.6 Q411.45 233.6 414.75 237.5 L414.75 237.45 Q415.5 234.4 416.5 233.0 417.65 231.35 419.75 230.5 L420.2 228.55 420.7 227.05 421.1 226.1 417.75 225.5 Q415.3 224.7 413.15 223.35 403.7 221.65 395.35 215.8 L383.2 207.15 Q379.35 204.3 378.45 199.75 377.55 195.8 381.4 194.25 385.0 192.85 388.7 191.55 386.25 191.55 383.95 190.6 383.05 190.35 382.3 189.9 381.4 189.45 381.65 188.3 L388.5 186.65 Q373.25 177.35 364.45 161.9 361.9 157.55 360.7 152.7 359.75 149.2 359.6 145.4 358.95 134.85 363.7 125.8 362.0 125.5 360.3 124.25 358.45 122.95 356.05 119.4 351.0 111.7 349.4 104.15 347.5 95.25 350.8 87.8 353.5 81.75 361.2 75.1 L362.65 73.85 Q370.2 67.4 377.8 63.6 384.0 60.45 392.6 58.0 399.55 56.1 407.4 54.85 408.15 53.7 409.4 52.6 411.85 50.3 416.55 47.0 425.15 41.05 431.35 38.25 435.05 36.55 442.75 34.05 L454.2 30.5 Q460.6 28.7 465.9 27.95 469.5 27.6 471.3 28.05 L472.15 28.35 Q477.0 25.85 481.3 24.55 489.85 21.85 502.75 21.3 516.5 20.75 526.2 22.5 533.2 23.75 541.5 26.65 L545.0 27.95 546.8 25.85 Q549.6 23.25 553.2 21.7 556.2 20.45 559.25 20.05 M556.3 32.5 L568.5 37.5 Q571.5 38.8 572.55 39.85 L573.5 41.2 Q576.3 42.6 578.9 44.3 578.4 40.3 576.8 37.4 575.65 35.55 574.15 34.05 571.85 31.55 569.65 30.5 567.1 29.2 562.55 28.95 559.7 28.85 557.9 29.45 556.75 29.75 554.65 31.0 L553.9 31.5 556.3 32.5 M591.4 55.25 Q597.8 62.75 601.35 71.45 L602.4 70.65 Q605.4 68.5 606.45 67.45 608.5 65.3 608.5 63.15 608.5 61.75 607.4 59.8 604.35 54.7 598.55 53.2 L594.85 52.7 Q591.6 52.45 589.0 52.65 L591.4 55.25 M565.55 112.45 Q580.25 119.15 588.5 133.0 L589.05 132.05 591.4 128.65 Q596.4 121.5 597.7 113.05 598.45 108.25 598.05 100.45 597.25 84.5 592.7 73.85 L592.15 72.65 Q588.6 64.85 582.5 58.65 576.4 52.4 568.7 48.75 560.95 45.0 551.95 44.0 543.25 43.1 534.6 44.8 518.15 48.2 504.7 60.1 514.9 63.55 523.4 68.85 527.25 71.2 530.7 73.85 536.8 78.7 541.4 84.5 546.1 90.55 548.55 96.95 550.05 101.0 549.35 103.85 L548.9 105.1 550.0 105.45 Q553.5 106.55 555.4 107.35 L566.6 112.1 565.55 112.45 M453.7 52.8 L477.75 54.45 Q487.9 55.65 496.5 57.75 L497.65 55.85 Q506.35 43.9 524.6 38.3 533.85 35.5 543.15 35.1 531.5 30.9 521.75 29.85 514.2 29.0 502.5 29.7 490.75 30.5 483.9 32.55 473.8 35.75 460.55 45.75 455.55 49.5 452.25 52.7 L453.7 52.8 M533.7 96.9 L537.3 103.75 539.55 104.05 Q539.1 103.15 538.8 102.05 L537.9 99.2 Q536.05 93.75 531.3 88.6 528.0 85.0 521.75 80.05 516.8 76.05 513.15 73.85 L511.15 72.75 508.7 71.55 511.65 73.85 Q515.25 76.75 518.65 79.95 L520.0 81.4 523.0 84.65 526.65 87.8 Q529.1 89.8 530.25 91.1 L532.05 93.55 533.7 96.9 M409.65 145.9 Q413.65 140.85 419.15 137.8 L423.1 136.0 Q417.55 127.8 422.7 119.3 427.05 112.1 434.6 110.25 436.6 112.95 433.85 115.65 L433.15 116.65 Q431.0 121.75 430.65 127.05 430.5 129.5 431.65 131.8 L432.55 133.6 Q451.5 130.95 464.15 144.85 466.15 147.0 467.8 149.5 L493.2 154.0 493.6 152.7 Q497.25 143.0 506.6 137.95 522.8 129.3 540.05 135.9 552.2 140.65 556.55 152.7 L557.2 154.55 Q558.75 159.9 558.45 165.35 564.55 169.4 563.0 176.0 561.65 181.3 556.4 183.15 L560.25 213.35 567.0 211.45 Q573.1 208.3 577.8 203.15 L578.7 201.9 Q572.55 202.05 568.15 198.65 L567.4 198.1 567.0 198.2 Q567.2 193.55 571.7 190.95 574.6 189.25 576.8 187.0 587.25 176.05 586.8 160.65 586.7 156.55 586.0 152.7 584.3 144.3 579.65 136.95 575.35 130.2 569.0 125.45 555.25 115.15 538.95 110.7 536.6 109.95 534.75 108.15 L529.7 102.75 Q514.25 84.8 493.15 73.85 L489.75 72.2 485.55 70.4 489.45 86.05 487.15 87.55 483.85 83.75 Q472.6 76.4 459.55 74.0 L458.4 73.85 Q455.85 73.6 453.3 73.85 L449.2 74.55 Q433.65 78.45 419.9 87.25 404.55 97.0 391.35 109.45 379.0 120.95 372.65 136.55 371.6 139.25 371.4 142.25 371.0 147.6 372.25 152.7 L372.7 154.25 Q375.75 164.2 381.9 172.9 385.85 178.5 390.8 182.9 L395.4 186.85 398.25 187.75 Q399.15 189.75 397.7 191.55 395.2 194.8 392.25 197.2 L389.6 199.35 Q396.05 206.35 404.0 210.7 403.0 207.35 403.2 203.85 403.5 198.35 406.6 193.0 409.2 188.4 413.55 184.7 406.15 184.8 401.15 178.85 398.9 176.2 399.5 172.95 400.3 168.4 404.3 165.5 404.05 158.7 406.25 152.7 407.55 149.15 409.65 145.9 M516.1 140.65 Q512.4 141.75 509.0 143.55 505.25 145.6 502.65 148.75 501.1 150.7 500.05 152.7 494.85 161.95 499.65 172.35 501.15 175.55 503.8 177.8 512.55 184.95 523.9 184.3 527.05 190.35 533.3 190.25 537.65 190.2 539.2 186.0 540.2 183.45 541.95 181.5 542.75 180.5 543.95 181.0 L551.15 179.55 Q555.25 178.8 556.05 175.0 557.3 169.15 551.6 165.75 L551.7 163.45 Q552.2 157.35 550.05 152.7 548.0 148.2 543.5 144.95 530.95 136.05 516.1 140.65 M498.6 211.95 L498.55 206.85 502.2 206.0 Q504.0 195.3 512.7 188.75 501.1 186.1 495.3 176.0 492.65 171.4 492.05 166.1 491.75 162.8 491.95 159.75 L470.25 156.8 Q473.2 170.55 464.1 181.15 461.95 183.65 459.15 185.4 450.9 190.45 441.3 189.55 L436.45 195.05 Q437.6 197.4 441.25 199.45 448.6 203.55 456.8 205.85 472.25 210.4 488.45 208.3 L481.45 212.5 481.45 213.15 480.75 217.25 Q481.3 217.75 481.3 218.45 481.35 219.0 480.85 219.55 480.45 220.1 479.8 220.3 L477.25 220.5 468.1 219.85 467.95 220.6 467.75 221.05 Q467.35 221.05 467.05 221.3 L465.65 223.8 465.25 224.65 458.85 240.65 458.8 240.9 458.9 240.95 Q459.85 241.45 460.9 241.45 L460.9 241.55 Q465.05 242.8 468.7 244.75 L470.15 245.5 470.9 245.75 471.05 245.55 472.25 244.85 473.4 243.85 473.85 243.3 474.1 242.85 Q474.9 241.7 474.9 240.75 L474.55 239.4 Q474.35 238.65 474.55 237.9 474.95 236.6 476.2 236.3 477.35 235.9 478.5 236.65 L479.5 237.9 479.7 238.7 Q479.75 239.65 479.3 241.0 L478.9 242.15 477.45 243.85 476.9 244.5 479.7 243.05 Q482.5 241.8 488.6 241.05 L498.25 240.45 498.3 240.0 498.8 238.15 498.85 237.9 499.35 234.0 500.35 226.5 501.15 218.8 501.0 218.75 500.2 218.55 499.65 218.0 499.2 217.2 Q498.95 216.6 498.95 215.4 L498.9 212.75 498.95 211.9 498.6 211.95 M521.45 189.45 L518.9 189.8 Q510.1 198.35 511.95 210.05 512.55 213.45 515.0 215.9 525.8 226.2 540.7 226.5 548.3 226.7 553.85 221.6 550.0 203.15 550.35 184.45 L545.5 184.2 Q545.15 189.4 541.75 193.3 L541.4 193.8 541.2 194.15 541.4 194.25 Q539.7 197.7 535.8 196.95 L528.1 195.6 Q526.35 195.1 524.85 193.85 522.4 192.05 521.45 189.45 M442.95 49.4 Q447.8 44.55 454.1 39.8 449.5 41.05 444.05 42.9 437.45 45.05 433.6 46.85 428.7 49.2 423.0 53.1 L440.4 52.55 Q441.3 51.05 442.95 49.4 M374.55 110.15 Q384.15 98.3 396.65 89.4 L388.2 92.4 387.5 91.0 Q390.7 85.5 396.75 83.45 L408.8 79.3 Q414.7 77.15 420.3 73.85 L420.65 73.6 Q437.9 63.0 457.9 64.3 464.7 65.1 470.8 68.35 L474.9 70.75 470.35 66.05 470.6 64.1 471.85 63.5 457.9 62.55 Q433.45 61.45 413.2 64.4 396.7 66.8 385.5 71.8 L381.3 73.85 Q369.85 79.95 363.1 89.35 360.8 92.6 360.25 95.25 359.75 98.05 361.05 102.8 363.5 111.3 367.4 116.15 L368.8 117.85 Q371.5 113.95 374.55 110.15 M479.9 68.6 Q478.5 66.15 478.75 64.3 L472.85 63.6 479.9 68.6 M464.9 167.1 Q466.45 159.0 462.9 152.7 461.15 149.65 458.3 147.0 453.8 142.9 447.95 141.15 442.75 139.5 437.4 139.25 421.45 139.25 413.75 152.45 L413.65 152.7 Q412.15 155.3 411.65 158.4 411.2 161.65 411.2 164.95 L411.2 165.85 Q403.7 170.85 408.3 177.7 408.8 178.45 409.7 178.7 414.9 180.3 420.05 181.0 420.6 180.85 420.95 181.55 L424.2 187.1 Q426.45 191.2 431.05 190.5 436.2 189.5 438.8 184.4 450.35 184.95 459.05 177.8 461.4 175.8 462.85 172.9 464.2 170.05 464.9 167.1 M443.25 208.4 Q436.45 206.4 431.15 202.0 428.55 199.75 426.45 197.05 421.45 195.35 419.15 190.8 418.25 188.9 417.75 186.9 417.25 188.8 415.8 191.6 L413.4 197.05 Q412.7 198.95 412.45 202.4 412.25 204.85 412.7 206.6 413.25 208.4 414.95 210.6 417.0 213.2 419.0 214.2 L422.2 215.3 Q424.2 215.95 425.2 216.75 L426.3 218.0 Q431.5 213.1 440.25 211.9 L457.15 212.7 475.85 215.75 475.7 215.5 475.5 214.9 475.25 212.85 Q459.1 212.85 443.25 208.4 M480.2 201.3 L477.95 203.5 475.9 203.55 474.55 202.05 Q477.15 195.95 483.1 198.85 L486.2 199.75 487.2 200.8 486.85 202.75 Q484.0 203.85 481.3 201.95 480.8 201.5 480.2 201.3 M450.35 231.7 Q452.3 230.7 453.7 229.5 L454.7 227.8 459.85 220.0 460.35 219.3 451.7 218.9 442.1 219.65 Q437.15 220.65 434.55 222.7 432.0 224.75 430.2 228.55 L429.75 229.55 438.35 229.7 445.35 230.3 Q447.8 230.8 448.9 232.05 L450.35 231.7 M428.75 240.05 Q430.6 238.9 432.6 237.9 L434.65 236.9 430.55 237.05 423.15 237.05 422.7 237.9 Q421.2 240.8 422.45 241.7 423.75 242.7 423.5 243.6 426.4 241.5 428.75 240.05 M414.5 252.45 Q415.85 250.65 417.55 248.9 411.1 245.15 405.85 240.0 L403.8 237.9 401.65 235.7 Q399.15 233.25 397.0 231.8 393.6 229.5 389.8 228.55 L383.4 228.0 383.3 228.55 Q383.1 230.5 385.25 233.25 L387.0 235.65 Q387.65 236.85 387.65 237.9 L387.55 238.4 387.2 239.65 Q387.05 240.5 386.5 241.2 L385.7 241.95 384.85 242.6 Q384.0 243.35 383.2 244.85 381.15 248.4 380.0 252.75 377.95 260.3 380.25 266.0 381.15 268.2 383.05 270.7 L384.75 272.25 387.55 273.4 Q391.5 274.65 393.65 274.4 L394.4 274.3 394.8 274.1 395.65 273.65 396.55 273.05 397.6 272.35 398.75 271.35 400.45 269.6 401.5 268.35 402.95 266.95 406.75 263.1 407.4 262.2 Q407.95 261.8 408.45 262.2 408.8 262.6 408.55 263.35 407.2 267.95 406.15 269.95 405.05 271.9 403.05 274.05 L404.5 275.55 410.35 280.5 Q416.25 285.5 420.4 287.3 422.65 288.15 423.85 288.15 426.0 288.2 428.6 286.7 L427.7 286.1 426.95 285.55 Q423.35 283.45 420.4 280.25 418.6 278.6 416.5 275.95 414.25 273.35 413.45 271.85 412.45 269.8 411.85 266.7 410.0 257.7 414.5 252.45 M422.1 254.0 Q419.3 257.25 419.15 262.45 419.1 265.25 419.6 267.65 421.55 272.55 425.4 276.5 L429.3 280.25 432.6 283.35 Q435.4 284.8 438.65 285.75 445.35 287.65 452.4 286.5 L459.45 284.65 460.4 284.4 460.7 284.3 461.95 284.0 463.35 283.7 465.95 283.05 465.95 282.45 Q466.0 281.55 466.7 281.2 L468.7 281.3 471.35 282.45 472.35 282.35 Q479.4 285.6 486.3 286.8 L487.35 286.95 491.3 286.85 499.1 286.25 501.85 285.8 Q506.7 284.15 511.45 280.75 518.25 276.1 520.6 270.7 521.45 268.75 522.05 266.0 523.5 259.15 522.0 254.4 L520.85 251.95 519.55 248.2 518.25 247.9 Q507.2 244.8 495.75 245.35 L488.0 246.0 481.35 246.65 Q475.35 247.3 472.6 248.4 L470.85 248.45 470.75 248.4 469.7 248.35 464.65 247.6 456.35 245.6 Q444.4 242.75 434.35 244.9 426.05 248.9 422.1 254.0 M529.4 261.8 Q529.0 264.4 527.7 267.9 524.6 275.45 519.15 280.7 L520.3 281.05 523.3 282.25 Q527.6 283.8 531.95 283.7 535.75 283.55 538.65 282.35 542.95 280.65 547.55 275.2 L552.15 269.25 552.85 268.35 551.9 266.8 Q549.85 263.05 548.85 256.75 548.6 255.05 548.85 254.3 549.3 252.8 550.65 252.8 551.45 252.8 552.05 253.65 L552.85 255.05 Q555.0 260.15 557.4 263.4 L559.05 265.6 559.85 265.95 Q561.3 266.8 561.85 268.2 L563.85 269.6 563.9 269.6 Q567.45 271.1 570.65 270.05 572.85 269.35 574.55 267.3 576.1 265.45 576.8 262.95 577.8 259.6 577.15 253.2 576.5 247.25 575.1 243.8 L573.25 240.05 572.1 237.9 571.4 236.35 571.05 235.3 570.05 234.15 Q570.7 233.1 571.8 232.15 L574.3 230.35 576.1 228.55 576.35 228.15 Q577.05 226.95 576.4 226.25 576.05 225.85 575.15 225.7 570.75 225.1 565.15 227.75 L563.5 228.55 Q557.15 231.85 550.7 237.85 L550.65 237.9 544.8 243.35 540.2 246.85 Q537.9 248.7 535.0 251.85 L530.15 257.1 529.45 257.85 529.4 261.8 M537.15 233.1 Q531.2 233.3 525.85 231.85 L524.4 231.85 514.25 231.9 515.85 233.15 521.5 237.9 522.65 239.0 Q525.05 241.5 527.5 246.05 528.0 247.15 529.0 247.0 530.0 246.75 530.65 247.0 531.2 247.25 534.2 243.95 L537.7 239.9 537.7 238.65 537.7 237.9 537.9 235.9 538.35 233.05 537.15 233.1 M511.95 225.25 L512.9 225.15 Q509.8 222.65 507.35 219.65 L507.45 221.65 507.45 222.9 507.45 224.4 507.55 224.2 Q508.2 223.55 509.05 223.7 509.9 223.95 510.4 225.2 L510.55 225.6 511.95 225.25 M513.05 241.8 L516.15 242.55 Q514.35 240.2 512.05 238.2 L511.95 237.9 511.9 237.6 511.55 236.6 511.15 236.35 Q509.25 234.85 508.35 233.5 507.85 232.65 507.3 231.05 L507.25 237.9 Q507.1 239.45 507.3 240.9 L513.05 241.8" fill="#2b0021" fill-rule="evenodd" stroke="none"/>
      <path d="M533.7 96.9 L532.05 93.55 530.25 91.1 Q529.1 89.8 526.65 87.8 L523.0 84.65 520.0 81.4 518.65 79.95 Q515.25 76.75 511.65 73.85 L508.7 71.55 511.15 72.75 513.15 73.85 Q516.8 76.05 521.75 80.05 528.0 85.0 531.3 88.6 536.05 93.75 537.9 99.2 L538.8 102.05 Q539.1 103.15 539.55 104.05 L537.3 103.75 533.7 96.9 M453.7 52.8 L452.25 52.7 Q455.55 49.5 460.55 45.75 473.8 35.75 483.9 32.55 490.75 30.5 502.5 29.7 514.2 29.0 521.75 29.85 531.5 30.9 543.15 35.1 533.85 35.5 524.6 38.3 506.35 43.9 497.65 55.85 L496.5 57.75 Q487.9 55.65 477.75 54.45 L453.7 52.8 M565.55 112.45 L566.6 112.1 555.4 107.35 Q553.5 106.55 550.0 105.45 L548.9 105.1 549.35 103.85 Q550.05 101.0 548.55 96.95 546.1 90.55 541.4 84.5 536.8 78.7 530.7 73.85 527.25 71.2 523.4 68.85 514.9 63.55 504.7 60.1 518.15 48.2 534.6 44.8 543.25 43.1 551.95 44.0 560.95 45.0 568.7 48.75 576.4 52.4 582.5 58.65 588.6 64.85 592.15 72.65 L592.7 73.85 Q597.25 84.5 598.05 100.45 598.45 108.25 597.7 113.05 596.4 121.5 591.4 128.65 L589.05 132.05 588.5 133.0 Q580.25 119.15 565.55 112.45 M479.9 68.6 L472.85 63.6 478.75 64.3 Q478.5 66.15 479.9 68.6 M374.55 110.15 Q371.5 113.95 368.8 117.85 L367.4 116.15 Q363.5 111.3 361.05 102.8 359.75 98.05 360.25 95.25 360.8 92.6 363.1 89.35 369.85 79.95 381.3 73.85 L385.5 71.8 Q396.7 66.8 413.2 64.4 433.45 61.45 457.9 62.55 L471.85 63.5 470.6 64.1 470.35 66.05 474.9 70.75 470.8 68.35 Q464.7 65.1 457.9 64.3 437.9 63.0 420.65 73.6 L420.3 73.85 Q414.7 77.15 408.8 79.3 L396.75 83.45 Q390.7 85.5 387.5 91.0 L388.2 92.4 396.65 89.4 Q384.15 98.3 374.55 110.15 M442.95 49.4 Q441.3 51.05 440.4 52.55 L423.0 53.1 Q428.7 49.2 433.6 46.85 437.45 45.05 444.05 42.9 449.5 41.05 454.1 39.8 447.8 44.55 442.95 49.4" fill="#ffcc66" fill-rule="evenodd" stroke="none"/>
      <path d="M516.1 140.65 Q530.95 136.05 543.5 144.95 548.0 148.2 550.05 152.7 552.2 157.35 551.7 163.45 539.35 171.05 526.1 165.3 522.15 163.55 519.7 160.35 516.95 156.7 515.9 152.7 514.35 147.1 516.1 140.65 M437.4 139.25 Q442.75 139.5 447.95 141.15 453.8 142.9 458.3 147.0 461.15 149.65 462.9 152.7 466.45 159.0 464.9 167.1 453.7 171.05 443.2 165.6 438.65 163.25 436.0 158.7 434.2 155.65 433.65 152.7 432.25 145.7 437.4 139.25" fill="#0699a2" fill-rule="evenodd" stroke="none"/>
      <path d="M498.6 211.95 L498.95 211.9 498.9 212.75 498.95 215.4 Q498.95 216.6 499.2 217.2 L499.65 218.0 500.2 218.55 501.0 218.75 501.15 218.8 500.35 226.5 499.35 234.0 498.85 237.9 498.8 238.15 498.3 240.0 498.25 240.45 488.6 241.05 Q482.5 241.8 479.7 243.05 L476.9 244.5 477.45 243.85 478.9 242.15 479.3 241.0 Q479.75 239.65 479.7 238.7 L479.5 237.9 478.5 236.65 Q477.35 235.9 476.2 236.3 474.95 236.6 474.55 237.9 474.35 238.65 474.55 239.4 L474.9 240.75 Q474.9 241.7 474.1 242.85 L473.85 243.3 473.4 243.85 472.25 244.85 471.05 245.55 470.9 245.75 470.15 245.5 468.7 244.75 Q465.05 242.8 460.9 241.55 L460.9 241.45 Q459.85 241.45 458.9 240.95 L458.8 240.9 458.85 240.65 465.25 224.65 465.65 223.8 467.05 221.3 Q467.35 221.05 467.75 221.05 L467.95 220.6 468.1 219.85 477.25 220.5 479.8 220.3 Q480.45 220.1 480.85 219.55 481.35 219.0 481.3 218.45 481.3 217.75 480.75 217.25 L481.45 213.15 481.45 212.5 488.45 208.3 Q472.25 210.4 456.8 205.85 448.6 203.55 441.25 199.45 437.6 197.4 436.45 195.05 L441.3 189.55 Q450.9 190.45 459.15 185.4 461.95 183.65 464.1 181.15 473.2 170.55 470.25 156.8 L491.95 159.75 Q491.75 162.8 492.05 166.1 492.65 171.4 495.3 176.0 501.1 186.1 512.7 188.75 504.0 195.3 502.2 206.0 L498.55 206.85 498.6 211.95 M450.35 231.7 L448.9 232.05 Q447.8 230.8 445.35 230.3 L438.35 229.7 429.75 229.55 430.2 228.55 Q432.0 224.75 434.55 222.7 437.15 220.65 442.1 219.65 L451.7 218.9 460.35 219.3 459.85 220.0 454.7 227.8 453.7 229.5 Q452.3 230.7 450.35 231.7 M480.2 201.3 Q480.8 201.5 481.3 201.95 484.0 203.85 486.85 202.75 L487.2 200.8 486.2 199.75 483.1 198.85 Q477.15 195.95 474.55 202.05 L475.9 203.55 477.95 203.5 480.2 201.3 M414.5 252.45 Q410.0 257.7 411.85 266.7 412.45 269.8 413.45 271.85 414.25 273.35 416.5 275.95 418.6 278.6 420.4 280.25 423.35 283.45 426.95 285.55 L427.7 286.1 428.6 286.7 Q426.0 288.2 423.85 288.15 422.65 288.15 420.4 287.3 416.25 285.5 410.35 280.5 L404.5 275.55 403.05 274.05 Q405.05 271.9 406.15 269.95 407.2 267.95 408.55 263.35 408.8 262.6 408.45 262.2 407.95 261.8 407.4 262.2 L406.75 263.1 402.95 266.95 401.5 268.35 400.45 269.6 398.75 271.35 397.6 272.35 396.55 273.05 395.65 273.65 394.8 274.1 394.4 274.3 393.65 274.4 Q391.5 274.65 387.55 273.4 L384.75 272.25 383.05 270.7 Q381.15 268.2 380.25 266.0 377.95 260.3 380.0 252.75 381.15 248.4 383.2 244.85 384.0 243.35 384.85 242.6 L385.7 241.95 386.5 241.2 Q387.05 240.5 387.2 239.65 L387.55 238.4 387.65 237.9 Q387.65 236.85 387.0 235.65 L385.25 233.25 Q383.1 230.5 383.3 228.55 L383.4 228.0 389.8 228.55 Q393.6 229.5 397.0 231.8 399.15 233.25 401.65 235.7 L403.8 237.9 405.85 240.0 Q411.1 245.15 417.55 248.9 415.85 250.65 414.5 252.45 M529.4 261.8 L529.45 257.85 530.15 257.1 535.0 251.85 Q537.9 248.7 540.2 246.85 L544.8 243.35 550.65 237.9 550.7 237.85 Q557.15 231.85 563.5 228.55 L565.15 227.75 Q570.75 225.1 575.15 225.7 576.05 225.85 576.4 226.25 577.05 226.95 576.35 228.15 L576.1 228.55 574.3 230.35 571.8 232.15 Q570.7 233.1 570.05 234.15 L571.05 235.3 571.4 236.35 572.1 237.9 573.25 240.05 575.1 243.8 Q576.5 247.25 577.15 253.2 577.8 259.6 576.8 262.95 576.1 265.45 574.55 267.3 572.85 269.35 570.65 270.05 567.45 271.1 563.9 269.6 L563.85 269.6 561.85 268.2 Q561.3 266.8 559.85 265.95 L559.05 265.6 557.4 263.4 Q555.0 260.15 552.85 255.05 L552.05 253.65 Q551.45 252.8 550.65 252.8 549.3 252.8 548.85 254.3 548.6 255.05 548.85 256.75 549.85 263.05 551.9 266.8 L552.85 268.35 552.15 269.25 547.55 275.2 Q542.95 280.65 538.65 282.35 535.75 283.55 531.95 283.7 527.6 283.8 523.3 282.25 L520.3 281.05 519.15 280.7 Q524.6 275.45 527.7 267.9 529.0 264.4 529.4 261.8 M513.05 241.8 L507.3 240.9 Q507.1 239.45 507.25 237.9 L507.3 231.05 Q507.85 232.65 508.35 233.5 509.25 234.85 511.15 236.35 L511.55 236.6 511.9 237.6 511.95 237.9 512.05 238.2 Q514.35 240.2 516.15 242.55 L513.05 241.8 M511.95 225.25 L510.55 225.6 510.4 225.2 Q509.9 223.95 509.05 223.7 508.2 223.55 507.55 224.2 L507.45 224.4 507.45 222.9 507.45 221.65 507.35 219.65 Q509.8 222.65 512.9 225.15 L511.95 225.25" fill="#ffcc99" fill-rule="evenodd" stroke="none"/>
    </g>
  </defs>
</svg>
