<?xml version="1.0" encoding="UTF-8" standalone="no"?>
<!-- Created with Inkscape (http://www.inkscape.org/) -->

<svg width="24" height="24" viewBox="0 -0.5 6.35 6.35" version="1.1" id="svg1" inkscape:version="1.3.2 (091e20e, 2023-11-25, custom)" sodipodi:docname="topbaricon.svg"
   xmlns:inkscape="http://www.inkscape.org/namespaces/inkscape"
   xmlns:sodipodi="http://sodipodi.sourceforge.net/DTD/sodipodi-0.dtd"
   xmlns="http://www.w3.org/2000/svg"
   xmlns:svg="http://www.w3.org/2000/svg">
   <sodipodi:namedview id="namedview1" pagecolor="#a4a4a4" bordercolor="#000000" borderopacity="0.25" inkscape:showpageshadow="2" inkscape:pageopacity="0.0" inkscape:pagecheckerboard="0" inkscape:deskcolor="#656565" inkscape:document-units="mm" inkscape:zoom="8.5379349" inkscape:cx="-1.8154273" inkscape:cy="18.329959" inkscape:window-width="1440" inkscape:window-height="837" inkscape:window-x="-8" inkscape:window-y="-8" inkscape:window-maximized="1" inkscape:current-layer="g6" />
   <defs id="defs1">
      <inkscape:path-effect effect="bspline" id="path-effect2" is_visible="true" lpeversion="1.3" weight="33.333333" steps="2" helper_size="0" apply_no_weight="true" apply_with_weight="true" only_selected="false" uniform="false" />
      <inkscape:path-effect effect="bspline" id="path-effect2-8" is_visible="true" lpeversion="1.3" weight="33.333333" steps="2" helper_size="0" apply_no_weight="true" apply_with_weight="true" only_selected="false" uniform="false" />
      <inkscape:path-effect effect="bspline" id="path-effect2-6" is_visible="true" lpeversion="1.3" weight="33.333333" steps="2" helper_size="0" apply_no_weight="true" apply_with_weight="true" only_selected="false" uniform="false" />
      <inkscape:path-effect effect="bspline" id="path-effect2-4" is_visible="true" lpeversion="1.3" weight="33.333333" steps="2" helper_size="0" apply_no_weight="true" apply_with_weight="true" only_selected="false" uniform="false" />
   </defs>
   <g id="g6" transform="matrix(0.89396587,0,0,1,0.45004214,0.45004401)" style="fill:#000000;fill-opacity:1;stroke:#ffffff;stroke-width:0.264583;stroke-dasharray:none;stroke-opacity:1">
      <path id="path9" style="color:#000000;fill:#000000;fill-opacity:1;stroke:none;stroke-width:0.15875;stroke-dasharray:none;stroke-opacity:1" d="M 1.929625,0.88132529 C 1.7239521,0.88452728 1.5105078,0.93105319 1.3272883,1.024469 1.0015651,1.1905415 0.77161468,1.5043097 0.70587574,1.8673116 0.64013661,2.2303137 0.73839876,2.64224 1.1561831,3.098761 1.5739677,3.555282 2.3112219,4.0564722 3.0481677,4.5575867 3.7851133,4.0564722 4.5223677,3.555282 4.9401522,3.098761 5.3579368,2.64224 5.4561987,2.2303137 5.3904596,1.8673116 5.3247207,1.5043097 5.0947705,1.1905414 4.769047,1.024469 4.4433235,0.8583965 4.0214564,0.84000181 3.7187152,0.95108848 3.415974,1.0621752 3.2322864,1.3025566 3.0481677,1.5427836 2.864049,1.3025566 2.6803614,1.0621753 2.3776201,0.95108848 2.2451709,0.90248809 2.0895928,0.87883486 1.929625,0.88132529 Z M 4.2441701,1.2094706 c 0.3768557,0.003 0.7143789,0.2483985 0.8081254,0.5808431 0.055218,0.1958142 0.02491,0.4033791 -0.078616,0.5803264 -0.038346,0.064777 -0.1282942,0.089341 -0.2005862,0.054777 C 4.7016489,2.3911685 4.6743283,2.3119069 4.7118192,2.2476502 4.7820724,2.1275731 4.8252431,2.0535364 4.7638445,1.8549093 4.6584266,1.513878 4.5856623,1.7573288 4.5114817,1.6928978 c 0.033695,0.037722 0.09463,0.097775 0.1130508,0.1408241 C 4.7335225,2.088432 4.5497356,2.3517163 4.2834781,2.4290344 3.9418408,2.5282418 3.5957242,2.3269969 3.5013653,2.0368103 3.3855171,1.680538 3.6492698,1.3255002 4.0320228,1.2337586 4.103205,1.216697 4.174382,1.2089151 4.2441701,1.2094706 Z M 4.7538037,1.823878 C 4.6012446,1.378068 4.1155444,1.486416 4.1089044,1.488006 3.8788685,1.543143 3.7188076,1.7603091 3.7851918,1.9644627 c 0.050454,0.155163 0.2366256,0.2622006 0.4063749,0.2129069 0.1174171,-0.034097 0.1994527,-0.149376 0.1572319,-0.2480469 -0.018281,-0.042724 -0.038239,-0.06292 -0.052025,-0.07028 -0.01076,-0.00575 -0.037312,-0.00474 -0.069945,0 -0.00442,0.00418 -0.00825,0.00663 -0.010983,0.013436 -0.00433,0.010765 -0.0062,0.012861 0.00231,0.025321 0.042743,0.062223 0.031843,0.1223326 -0.037724,0.1605961 -0.06933,0.037953 -0.1902578,0.00331 -0.2332302,-0.058387 -0.056202,-0.082229 -0.038835,-0.1427195 -0.00883,-0.2174484 0.030009,-0.07473 0.084945,-0.1342788 0.1635905,-0.1694987 0.00855,-0.00351 0.017453,-0.00627 0.026591,-0.00827 0.019566,-0.00489 0.090632,-0.00719 0.1093462,-0.00764 0.057039,-0.00136 0.2932024,0.053406 0.3866296,0.2365698 0.077996,-0.00968 0.1292712,-0.00984 0.1292712,-0.00984 z" sodipodi:nodetypes="sssscsssscsssscccscsssssscsssccccccsccscs" />
   </g>
</svg>
