
<svg xmlns="http://www.w3.org/2000/svg" version="1.1" xmlns:xlink="http://www.w3.org/1999/xlink" preserveAspectRatio="none" x="0px" y="0px" width="300px" height="300px" viewBox="0 0 300 300">
<defs>
<g id="jasmine_0_Layer2_0_FILL">
<path fill="#996666" stroke="none" d="
M 160.8 199.1
L 160.85 199.05
Q 158.8494140625 199.6466796875 158.55 199.85 157.46796875 200.4294921875 156.25 202.2 155.4634765625 203.414453125 155.7 204.15 155.734765625 204.2228515625 155.75 204.25 155.980078125 205.0669921875 156.9 205.55
L 156.85 205.55
Q 158.4005859375 206.5466796875 160.65 206.9 162.024609375 207.1931640625 164.55 207.3
L 164.6 207.3
Q 164.75 207.3 164.95 207.3 165.3607421875 207.296484375 165.65 207 165.9091796875 206.7470703125 165.95 206.4 165.960546875 206.37578125 165.95 206.35 166.082421875 206.0931640625 166.3 206 166.335546875 205.9888671875 166.35 205.95 166.7349609375 206.0359375 167.05 205.85 167.371484375 205.6666015625 167.5 205.3 167.9640625 203.9935546875 167.7 203.1 167.6087890625 202.4029296875 166.7 201.5
L 166.7 201.45
Q 165.2884765625 200.1212890625 163.2 199.15 163.1994140625 199.1373046875 163.15 199.1 162.4298828125 198.8259765625 162.05 198.85 161.6375 198.83125 160.8 199.1
M 136.4 197.2
L 136.35 197.2
Q 133.5734375 197.53828125 132.4 198.15
L 132.45 198.15
Q 130.0119140625 199.4033203125 129.65 201.6
L 129.65 201.65
Q 129.55 202.3646484375 129.55 203.8 129.27734375 204.9451171875 129.35 205.3 129.376171875 205.9875 130.25 206.85 131.40234375 208.007421875 132.25 208.4 132.3365234375 208.428515625 132.4 208.45 133.15 208.6970703125 134.65 208.7 137.4337890625 208.7015625 139.35 208.2
L 139.4 208.2
Q 142.1298828125 207.4732421875 142.85 205.85
L 142.85 205.9
Q 143.8697265625 204.2330078125 143 202.05 142.721875 201.1765625 141.3 199.15 141.3130859375 199.151953125 141.3 199.1 140.4486328125 198.03984375 139.8 197.7 138.7298828125 196.958984375 136.4 197.2
M 166.05 195.85
Q 166.00859375 195.93125 165.95 196
L 165.9 196.05
Q 165.68515625 196.259765625 165.6 196.55 165.5619140625 196.8453125 165.65 197.1 165.79453125 197.4052734375 166.05 197.55 166.2419921875 197.7126953125 166.5 197.85 166.9955078125 198.18828125 168.3 199.4 168.8798828125 199.9466796875 169.25 200.35 169.4919921875 200.6443359375 169.85 200.7 170.1982421875 200.7451171875 170.5 200.55 170.8189453125 200.3646484375 170.95 200 171.073046875 199.6873046875 170.95 199.35 170.1994140625 197.3220703125 169.25 194.45 169.118359375 194.050390625 168.75 193.85 168.387890625 193.669921875 168 193.8 167.6150390625 193.917578125 167.4 194.25 166.846484375 195.33515625 166.05 195.85
M 162.4 186.8
L 162.45 186.85
Q 161.886328125 186.65390625 160.7 186.65
L 158.5 186.7
Q 156.7232421875 186.705078125 155.85 186.85
L 155.85 186.85
Q 155.598046875 186.9248046875 152.8 187.75
L 152.8 187.7
Q 151.3103515625 188.159375 150.3 188
L 150.25 188
Q 149.558984375 187.8673828125 149.1 187.55 148.8720703125 187.4208984375 148.6 187.4 148.2009765625 187.3375 147.85 186.9 147.569921875 186.4005859375 147.3 185.25 146.9958984375 183.5951171875 146.95 182.2
L 146.95 182.15
Q 146.839453125 180.606640625 146.65 180.15 146.6369140625 180.1234375 146.6 180.1 146.08125 178.69765625 144.75 178.35 144.7369140625 178.336328125 144.7 178.3 142.96484375 177.816796875 141.25 180.15 137.8869140625 184.6517578125 136.65 188.1
L 136.65 188.1
Q 136.2392578125 189.2314453125 135.6 191.7
L 135.6 191.75
Q 135.5748046875 191.9724609375 135.5 192.15 135.4568359375 192.4552734375 135.55 192.75 135.6763671875 193.0439453125 135.9 193.2 136.185546875 193.4017578125 136.5 193.4 137.082421875 193.4 137.7 193.4
L 137.75 193.4
Q 139.8529296875 193.5013671875 141.05 194.1 142.3982421875 194.8005859375 144.15 197
L 144.15 197
Q 145.4654296875 198.70859375 145.85 199.45
L 145.85 199.45
Q 147.35078125 202.2916015625 146.7 205.35
L 146.7 205.4
Q 145.991015625 208.5734375 143.5 210.5
L 143.5 210.5
Q 142.6248046875 211.2373046875 141.5 211.7 141.1580078125 211.8802734375 141 212.2 140.841796875 212.5650390625 140.95 212.9 141.4380859375 214.62734375 142.15 217.35
L 142.2 217.4
Q 143.2427734375 220.74140625 144.5 222.75 147.5580078125 227.6671875 153.75 229.9
L 153.75 229.9
Q 158.735546875 231.665234375 165.25 231.3 166.088671875 231.2509765625 166.85 231.15
L 166.9 231.15
Q 167.6134765625 231.0375 168.2 230.9
L 168.25 230.9
Q 169.4412109375 230.6439453125 170.25 230.25 170.29765625 230.2380859375 170.3 230.2 171.606640625 229.53203125 173.1 228.25 176.105859375 225.6142578125 177.5 223
L 177.5 223.05
Q 179.510546875 219.5193359375 179 216.15 178.9892578125 216.1138671875 178.95 216.05 178.5033203125 214.091015625 178.45 213.05 178.4130859375 212.4650390625 178.55 212 178.6515625 211.7244140625 178.55 211.4 178.4873046875 211.1419921875 178.25 210.95 177.9 210.65 177.55 210.35 177.225 210.0728515625 176.9 209.75 176.698828125 209.544921875 176.4 209.45 176.39140625 209.4669921875 176.35 209.45 173.26328125 204.355859375 172.2 202.4 172.056640625 202.108984375 171.7 201.95 171.3912109375 201.8390625 171.05 201.95 170.7009765625 202.065234375 170.5 202.35 170.3046875 202.675 170.35 203 170.6138671875 205.128125 169.65 207.1 169.51328125 207.399609375 169.55 207.7 169.6240234375 208.044921875 169.85 208.25 171.3494140625 209.7123046875 172.85 211.75
L 172.8 211.75
Q 173.817578125 213.219140625 174.1 214
L 174.05 213.95
Q 174.38125 215.071484375 173.85 215.75 173.2787109375 216.4279296875 172.4 216.2 171.6732421875 215.9275390625 171.05 215.05 171.048828125 215.0501953125 171 215 170.3283203125 214.1232421875 169.15 211.8
L 169.1 211.75
Q 168.8248046875 211.224609375 168.55 210.75 168.4345703125 210.5150390625 168.15 210.35 167.903125 210.2283203125 167.6 210.25 167.30625 210.2837890625 167.05 210.45 166.9490234375 210.5732421875 166.8 210.6 166.775390625 210.6466796875 166.7 210.65 165.9302734375 211.0623046875 163.5 211.15 163.4900390625 211.1486328125 163.45 211.15 160.9015625 211.4328125 159.65 211.3
L 159.6 211.3
Q 158.4041015625 211.201171875 156.75 210.5 154.0365234375 209.4056640625 152.5 207.9
L 152.5 207.95
Q 151.17890625 206.6158203125 150.8 205.25 150.5685546875 204.15078125 150.75 202.9 150.91953125 202.1978515625 151.2 201.4
L 151.15 201.45
Q 151.896484375 199.5783203125 153.4 198.2 154.9583984375 196.7896484375 156.9 196.15 158.07890625 195.7734375 158.9 195.8
L 158.95 195.8
Q 159.5697265625 195.853515625 160.45 196.05
L 160.4 196.05
Q 160.969140625 196.21484375 162.05 196.55 162.1107421875 196.569921875 162.15 196.55 162.515234375 196.72109375 162.85 196.6 163.2654296875 196.469921875 163.45 196.1 163.6341796875 195.723046875 163.5 195.3 163.29921875 194.6509765625 163.5 193.65 163.6984375 192.900390625 164.1 192.1
L 164.15 192.1
Q 164.751953125 190.888671875 164.7 190.4 164.7048828125 190.325390625 164.7 190.25
L 164.6 189.55
Q 164.475 188.6921875 164.25 188.3 164.264453125 188.2740234375 164.25 188.25 163.773046875 187.1388671875 162.4 186.8
M 165.05 140.65
Q 165.2041015625 140.3673828125 165.1 140.05 165.037109375 139.7328125 164.75 139.5 164.52265625 139.3154296875 164.2 139.3 160.0994140625 139.1001953125 155.95 137.95 154.41171875 137.587109375 152.65 137.1 152.6234375 137.084765625 152.55 137.05 139.819921875 134.84296875 133.15 123.7
L 133.15 123.75
Q 132.3251953125 122.3125 131.5 120.85 130.8451171875 119.0556640625 130.45 116.9 129.6251953125 112.2259765625 129.05 108.9 128.5587890625 105.7775390625 128.9 102.7
L 128.9 102.7
Q 129.0666015625 101.4177734375 129.5 100.7
L 129.45 100.75
Q 129.749609375 100.430859375 130.15 100.25
L 130.1 100.3
Q 130.40546875 100.1904296875 130.6 100.25
L 130.65 100.25
Q 130.85703125 100.38125 131 100.6 131.173828125 100.8173828125 131.4 100.9 131.6111328125 101.0443359375 131.85 101.05
L 131.9 101.05
Q 132.216015625 101.053515625 132.45 100.85 132.737890625 100.6951171875 132.85 100.4 132.958203125 100.0912109375 132.85 99.75 131.826953125 95.9748046875 131.1 92.1 131.075 91.8037109375 130.85 91.55 130.617578125 91.3484375 130.3 91.3 129.9849609375 91.2638671875 129.7 91.4 129.4033203125 91.5693359375 129.25 91.85 128.9611328125 92.425 128.6 93 126.528125 96.6341796875 123.5 99.05
L 123.5 99.1
Q 121.5400390625 100.8123046875 119.35 101.6 117.360546875 102.323828125 115.1 102.1
L 115.05 102.1
Q 112.913671875 101.919921875 110.95 100.85 110.9494140625 100.838671875 110.9 100.8 108.3646484375 99.2625 106.05 96.1 105.9134765625 95.8587890625 105.75 95.7 105.50078125 95.4388671875 105.15 95.4 104.78203125 95.3689453125 104.45 95.55 104.1888671875 95.7783203125 104.1 96.1 103.5998046875 97.875 103.1 99.55 102.98515625 99.9365234375 103.15 100.25 103.31875 100.6271484375 103.65 100.75 104.823046875 101.376171875 104.9 103.8
L 104.9 103.85
Q 105.38515625 112.1826171875 102.05 120.15
L 102.05 120.15
Q 98.7109375 128.1419921875 92.45 133.7 92.4626953125 133.7255859375 92.45 133.75 92.3419921875 133.849609375 92.2 133.95 91.973046875 134.12890625 91.85 134.4 84.8076171875 152.94921875 76.2 166.75 76.04296875 167.0283203125 76.05 167.3 76.0560546875 167.6251953125 76.2 167.85 76.39765625 168.1166015625 76.65 168.2 79.517578125 169.40078125 84.5 170.6 91.2650390625 172.2931640625 94.6 172.8
L 94.55 172.75
Q 100.2970703125 173.75078125 104.9 173.45
L 104.9 173.45
Q 105.9671875 173.403125 106.35 173.4
L 106.4 173.4
Q 106.9828125 173.4470703125 107.4 173.65
L 107.35 173.6
Q 107.8568359375 173.9029296875 108.35 174.55
L 108.35 174.55
Q 108.6921875 175.0078125 109.35 175.95
L 109.4 176
Q 109.515234375 176.2296875 109.7 176.35 109.941015625 176.5224609375 110.2 176.55 110.4638671875 176.5712890625 110.65 176.7 111.0212890625 176.990234375 111.75 178.1
L 111.75 178.05
Q 113.87421875 181.6095703125 116.6 184.05 117.53515625 184.8513671875 119.45 186.35
L 119.45 186.35
Q 120.2173828125 187.0357421875 122.35 189.3
L 122.4 189.3
Q 124.2884765625 191.194921875 125.55 192.15
L 125.6 192.2
Q 126.483203125 192.890234375 127 193.4 127.2 193.607421875 127.45 193.65 127.7537109375 193.7431640625 128 193.65 128.2962890625 193.55234375 128.45 193.3 129.575 191.9359375 130.5 191.5
L 130.5 191.55 131.05 191.35
Q 131.30078125 191.2556640625 131.45 191.05 131.6365234375 190.8412109375 131.65 190.55 132.0166015625 188.73828125 132.6 186.95 134.1009765625 182.378515625 137 178.65 137.0115234375 178.649609375 137 178.6 137.6013671875 177.8005859375 138.95 176.25
L 138.95 176.25
Q 139.3740234375 175.7896484375 139.75 175.4 139.990625 175.1697265625 140.05 174.85 140.0888671875 174.5232421875 139.9 174.2 139.1263671875 172.6908203125 138.25 171.1 152.3392578125 168.3873046875 160.7 164.65
L 160.7 164.65
Q 163.3533203125 163.3951171875 163.9 162.05
L 163.9 162.05
Q 164.070703125 161.708984375 164.15 161.35 164.386328125 161.266015625 164.55 161.05 164.768359375 160.7609375 164.75 160.4 164.10625 148.8353515625 164.6 142.95 164.6865234375 141.6498046875 165.05 140.65
M 112.05 160.3
Q 113.5458984375 160.096875 117.35 159.7
L 117.4 159.7
Q 119.271875 159.5572265625 119.95 160.15
L 120 160.15
Q 120.343359375 160.5396484375 120.4 161.2 120.4111328125 161.2349609375 120.4 161.25 120.4556640625 161.5447265625 120.45 163.05 120.449609375 163.919921875 120.5 165.6 120.3658203125 166.7294921875 119.7 167.25 118.693359375 167.855859375 116.55 166.95
L 116.55 166.95
Q 111.4927734375 165.0470703125 109.25 163.3 109.2490234375 163.3001953125 109.2 163.25 108.1279296875 162.4990234375 107.85 162.45 107.7009765625 162.439453125 107.55 162.45 106.8111328125 162.4939453125 106.4 162.5 106.173828125 162.474609375 106 162.25 105.9755859375 162.2642578125 105.95 162.25 105.91171875 162.2083984375 105.9 162.15 105.9154296875 162.111328125 105.9 162.05 106.1123046875 161.678125 106.9 161.45 106.935546875 161.46328125 106.95 161.45 109.149609375 160.7306640625 112.05 160.3 Z"/>

<path fill="#663366" stroke="none" d="
M 100.45 188.45
Q 100.68984375 188.423046875 100.85 188.45 101.187890625 188.9208984375 101 190.05
L 101 190.05 98.65 208.85
Q 98.0216796875 213.5048828125 98.6 215.95 98.931640625 217.2853515625 100.5 220.55
L 100.5 220.6
Q 103.05546875 225.5505859375 104.85 227.95 105.8583984375 229.3078125 108 232 109.4583984375 234.1935546875 109.65 236.05 109.7416015625 236.9025390625 109.65 238.6 109.64765625 238.6396484375 109.65 238.65 109.7095703125 240.6029296875 110.55 241.65 111.112890625 242.4498046875 113.1 243.45 113.125 243.46171875 113.15 243.45 125.657421875 249.038671875 139.9 247 154.037890625 244.95625 164.5 236.25 164.72421875 236.0732421875 164.8 235.75 164.8904296875 235.4880859375 164.8 235.2 164.7109375 234.910546875 164.45 234.7 164.2310546875 234.528515625 163.9 234.5 159.14296875 234.15234375 154.55 234.05 149.5818359375 232.5935546875 145.6 229.05 140.4033203125 224.3552734375 138.7 217.65 138.288671875 215.758984375 138.05 213.65 137.996875 213.276171875 137.65 213 137.356640625 212.765234375 136.95 212.8 135.420703125 212.9443359375 133.7 212.85
L 133.65 212.85
Q 131.934765625 212.8490234375 130.85 212.4
L 130.9 212.4
Q 129.86640625 211.9546875 127.95 210.05
L 127.95 210
Q 126.6560546875 208.776171875 126.15 208.2
L 126.15 208.2
Q 125.39453125 207.2841796875 125.15 206.35 125.0603515625 205.738671875 125.15 204.45
L 125.15 204.45
Q 125.2396484375 202.59140625 125.55 201.75 126.290625 200.5087890625 126.6 199.85
L 126.65 199.85 127.3 198.55
Q 127.4359375 198.262890625 127.35 197.95 127.325390625 197.6310546875 127.1 197.4 126.9259765625 197.2244140625 126.85 196.95
L 126.85 196.95
Q 126.81015625 196.6873046875 126.65 196.45 126.470703125 196.2078125 126.15 196.1 125.8681640625 195.999609375 125.65 196 124.9884765625 195.91171875 124 195.15
L 123.95 195.1
Q 120.6650390625 192.79921875 117.8 190.35
L 117.8 190.4
Q 115.0357421875 188.03203125 113.75 186.75
L 113.7 186.7
Q 110.28671875 183.518359375 108.85 180.75 108.671875 180.4189453125 108.3 180.25 107.99140625 180.135546875 107.65 180.25 105.518359375 180.94765625 104.45 181.25 101.001953125 182.2662109375 97.3 184.05 95.7826171875 184.7751953125 95.55 185.65 95.536328125 185.68828125 95.5 185.7 95.29921875 186.4775390625 95.6 187.55 95.634375 187.6005859375 95.65 187.65 96.323828125 190.7888671875 96.45 191.65
L 96.45 191.65
Q 96.5498046875 192.3279296875 96.65 193.25 96.685546875 193.616796875 96.95 193.85 97.2255859375 194.1298828125 97.6 194.15 97.9619140625 194.171484375 98.25 193.95 98.54375 193.730859375 98.6 193.35
L 99.2 190.6
Q 99.55546875 189.286328125 99.95 188.75
L 99.9 188.8
Q 100.1576171875 188.552734375 100.5 188.45
L 100.45 188.45
M 163.75 180.4
L 163.75 180.4
Q 162.6984375 179.121875 161.75 178.15 161.655078125 178.026953125 161.5 177.95 161.4 177.9 161.3 177.85
L 161.3 177.85
Q 160.909375 177.6369140625 159.85 176.9 159.1548828125 176.3865234375 154.45 173.55 153.719921875 173.084765625 153.45 172.7 153.34375 172.4697265625 153.1 172.3 152.84296875 172.184765625 152.55 172.2 149.412890625 172.35 146.7 172.45 146.3701171875 172.4634765625 146.1 172.7 145.8328125 172.9302734375 145.75 173.25 145.706640625 173.6326171875 145.85 173.95 146.0611328125 174.253515625 146.4 174.35 148.2474609375 175.130859375 149.35 177.4 150.208203125 179.1802734375 150.3 181.85
L 150.3 181.9
Q 150.3482421875 182.4875 150.35 183.05 150.3537109375 183.3810546875 150.55 183.65 150.741015625 183.906640625 151.05 184 151.3619140625 184.1021484375 151.65 184 152.4220703125 183.751171875 153.8 183.25
L 153.85 183.25
Q 155.4900390625 182.651953125 156.6 182.55
L 159.1 182.55
Q 159.35 182.55 160.95 182.55 161.959375 182.5548828125 162.6 182.65
L 162.65 182.65
Q 162.9875 182.68671875 163.3 182.8 163.6390625 182.904296875 163.95 182.8 164.27265625 182.696484375 164.45 182.4 164.6623046875 182.1537109375 164.65 181.8 164.64765625 181.49140625 164.45 181.2 164.0740234375 180.76015625 163.75 180.4
M 118.5 162.45
Q 118.50234375 162.0650390625 118.25 161.75 117.9876953125 161.4916015625 117.6 161.45 117.00859375 161.3751953125 116.2 161.55
L 114.45 161.95
Q 114.1455078125 162.0462890625 113.9 162.3 113.7134765625 162.5619140625 113.7 162.9 113.683984375 163.2267578125 113.85 163.5 114.0619140625 163.785546875 114.35 163.9 115.7693359375 164.3771484375 116.3 164.75 116.3623046875 164.7912109375 116.4 164.8 117.4404296875 165.38984375 117.8 165.1 118.120703125 164.9921875 118.3 164.7 118.49453125 164.466796875 118.5 164.15
L 118.5 162.45 Z"/>

<path fill="#3D3062" stroke="none" d="
M 75.9 172.6
Q 75.7009765625 172.8939453125 75.7 173.2 75.79609375 180.8625 74.95 188.5 74.93203125 188.7044921875 75 188.9 75.0623046875 189.0943359375 75.2 189.25
L 76.55 190.8
Q 76.6408203125 190.9 76.75 190.95 78.94140625 192.4634765625 81.85 193.9 82.1181640625 194.0353515625 82.2 194.05 82.2517578125 194.1537109375 82.3 194.25 82.35 194.35 82.4 194.45 82.524609375 194.6794921875 82.75 194.8 82.9671875 194.9755859375 83.2 195 83.851171875 195.0517578125 84.95 195.05 87.4357421875 195.0494140625 87.9 194.9 89.1302734375 194.665625 91.05 193.15
L 91.05 193.1
Q 91.44921875 192.8544921875 91.75 192.6 92.0123046875 192.4505859375 92.1 192.15 92.2310546875 191.9068359375 92.15 191.6 91.87578125 189.9501953125 91.45 188.2 90.91953125 185.5408203125 90.95 184.75 91.019921875 183.0279296875 92.05 182.2 92.0998046875 182.1859375 92.1 182.15 92.6765625 181.7669921875 93.65 181.55
L 93.55 181.6
Q 94.32421875 181.5 95.75 181.3
L 95.8 181.25
Q 97.4431640625 181.0296875 100.4 179.75 103.1693359375 178.5736328125 104.5 178.25
L 104.5 178.25
Q 104.9404296875 178.1880859375 105.7 178.1 106.125390625 178.0505859375 106.35 177.7 106.6396484375 177.3916015625 106.6 176.95 106.5501953125 176.5759765625 106.2 176.3 105.87890625 176.0412109375 105.6 175.9
L 105.55 175.9
Q 104.858203125 175.555078125 103.75 175.55 102.2462890625 175.446875 99.7 175.7 96.973046875 175.99453125 95.9 176
L 95.85 176
Q 93.5451171875 176.0478515625 89.05 175.25 81.8140625 173.88515625 77 172.25 76.7126953125 172.1458984375 76.4 172.25 76.090234375 172.3537109375 75.9 172.6
M 48.85 137.7
Q 48.463671875 137.737890625 48.2 138 47.9447265625 138.31328125 47.95 138.7
L 47.95 138.75
Q 47.954296875 138.836328125 47.95 138.9 48.060546875 139.395703125 48.15 139.85 47.7033203125 147.494921875 49.15 155.25
L 49.15 155.3
Q 51.040234375 164.724609375 55.55 169.5 57.945703125 172.1203125 61.05 173.2 64.6322265625 174.432421875 67.6 173.05 69.4580078125 172.2333984375 71.2 170.05 71.3830078125 169.874609375 71.4 169.6 71.4767578125 169.3734375 71.4 169.1 71.2037109375 168.4884765625 71.55 167.85 71.5876953125 167.8236328125 71.6 167.8 71.9755859375 167.053125 72.65 166.85
L 72.7 166.85
Q 72.775 166.852734375 72.85 166.85 73.1169921875 166.8529296875 73.35 166.7 73.5716796875 166.58515625 73.7 166.35 80.5408203125 154.8970703125 86.3 140.15 86.443359375 139.88046875 86.35 139.55 86.3044921875 139.265625 86.05 139.05 85.838671875 138.841015625 85.5 138.8 85.223046875 138.7578125 84.95 138.9 81.632421875 140.616796875 77.9 141.7 69.65 144.037109375 61.35 142.6 54.2828125 141.41484375 49.55 137.9 49.236328125 137.666015625 48.85 137.7
M 44.5 133.6
Q 44.2328125 133.6873046875 44.05 133.9 40.0955078125 138.4958984375 35.45 142.45 30.0818359375 147.1052734375 25.75 147.25 23.45703125 147.294140625 21.25 146.25
L 21.3 146.25
Q 18.6701171875 144.8927734375 16.65 142.55
L 16.65 142.5
Q 16.17890625 142.0123046875 15.8 141.5 15.602734375 141.2171875 15.25 141.1
L 14.95 141.05
Q 12.6466796875 138.3326171875 11.25 135.3 11.0935546875 133.4736328125 10.95 131.55 10.95 131.52890625 10.95 131.5 10.950390625 131.1294921875 10.7 130.85 10.4490234375 130.5564453125 10.05 130.5 9.6943359375 130.456640625 9.35 130.65 9.065234375 130.88671875 8.95 131.25 6.855859375 139.6869140625 6.15 148.2 5.8337890625 151.8111328125 6.2 154.2 6.646484375 157.571875 8.35 159.8 10.8501953125 163.095703125 15.6 164 18.386328125 164.653515625 23.25 164.5 23.6083984375 164.486328125 23.85 164.25 23.9359375 164.254296875 24 164.25 24.1607421875 164.254296875 24.25 164.3 24.4466796875 164.6431640625 24.45 165.4
L 24.45 165.45
Q 24.611328125 168.91796875 25.55 172.05
L 25.5 172.05
Q 25.908203125 173.451953125 26.3 174.15 26.3115234375 174.2009765625 26.3 174.2 26.811328125 175.245703125 27.9 176.6 30.1134765625 179.3013671875 32.15 180.45 35.2119140625 182.22265625 38 181.4 38.3033203125 181.37265625 40.2 180.6 40.746875 180.41875 41.2 180.3 41.5259765625 180.279296875 41.75 180.05 41.965625 179.8533203125 42 179.55 42.3076171875 178.2310546875 42.9 177.95
L 42.9 177.95
Q 43.1705078125 177.92734375 43.4 178.05 43.4494140625 178.115234375 43.5 178.15 43.7962890625 178.303515625 43.95 178.6
L 43.95 178.65
Q 44.2630859375 179.32890625 44.35 180.85 44.5689453125 184.2431640625 45.25 186.1
L 45.25 186.1
Q 45.860546875 187.634375 47.1 189.25
L 47.1 189.25
Q 50.496875 193.6228515625 55.3 194.6 57.8224609375 195.1802734375 60.4 194.5 63.015234375 193.8578125 64.85 192.05
L 64.8 192.05
Q 65.6455078125 191.3404296875 67.15 189.05
L 67.1 189.05
Q 69.5224609375 185.5546875 70.85 182.95 70.941796875 182.76015625 70.95 182.55 71.2 178.065625 71.4 175.5 71.4294921875 175.13125 71.15 174.8 70.92109375 174.5080078125 70.5 174.45 70.1271484375 174.405859375 69.8 174.65 68.6099609375 175.5208984375 67.35 176
L 67.4 176
Q 65.0181640625 176.928125 62.2 176.6 59.5228515625 176.23515625 57.1 174.8
L 57.1 174.8
Q 52.8826171875 172.20078125 49.75 166.65
L 49.75 166.65
Q 45.7337890625 159.155859375 45.2 149.1 44.811328125 142.677734375 45.9 134.8 45.940234375 134.523828125 45.8 134.25 45.6546875 133.97734375 45.5 133.85 45.2990234375 133.646875 45 133.55 44.760546875 133.5107421875 44.5 133.6
M 168.05 140.1
Q 168.001953125 140.412109375 168.15 140.7 168.2263671875 140.84609375 168.3 141 168.546484375 141.7416015625 168.55 142.75 168.5478515625 143.42421875 168.45 144.7 168.29375 147.03828125 168.55 150.2 168.6513671875 151.99296875 169 155.55 169.2501953125 158.1458984375 169.9 167.85 170.399609375 175.5572265625 171 180.25 172.5193359375 191.9861328125 176.25 200.4 176.35234375 200.5521484375 176.45 200.65 177.258203125 201.5263671875 178.2 202.3 181.268359375 204.90859375 183.7 204.25 185.8287109375 203.8564453125 187.65 200.95 189.728125 197.6158203125 191 192.6
L 191 192.55
Q 191.4728515625 190.7166015625 192.7 183.75 193.2287109375 180.9810546875 194.45 180.5 194.499609375 180.5123046875 194.5 180.5 195.6880859375 180.26328125 196.9 181.6
L 196.9 181.6
Q 197.184375 181.939453125 198.05 183.1
L 198.05 183.1
Q 198.88203125 184.1576171875 199.45 184.7 199.5013671875 184.7130859375 199.5 184.7 201.28359375 186.1470703125 203.75 186.15
L 203.75 186.15
Q 206.11171875 186.0970703125 208.05 184.85 211.3408203125 182.7369140625 212.75 177.8
L 212.75 177.8
Q 213.241015625 176.16171875 213.55 173.8
L 213.55 173.8
Q 213.7998046875 171.2154296875 213.95 169.9
L 213.95 169.9
Q 214.089453125 168.602734375 214.3 167.45 214.3951171875 167.1099609375 214.2 166.8 214.0685546875 166.4734375 213.75 166.3 213.4193359375 166.191796875 213.05 166.3 212.3341796875 166.512109375 211.55 166.55 208.9517578125 166.5873046875 206.25 164.3 206.1251953125 164.2279296875 205.95 164.15 200.4671875 162.0107421875 194.05 156.2 192.135546875 154.4720703125 189.8 152.15
L 189.8 152.15
Q 186.1296875 148.3587890625 183.05 144.05
L 183.05 144.05
Q 180.9876953125 141.2078125 178.9 137.65 178.7298828125 137.3259765625 178.35 137.2 178.0240234375 137.08359375 177.65 137.2 174.09375 138.6228515625 170.1 139.1 169.5 139.1650390625 168.85 139.25 168.567578125 139.324609375 168.35 139.55 168.11171875 139.78203125 168.05 140.1
M 217.45 95.7
Q 217.3328125 96.0591796875 217.45 96.4 221.918359375 110.0234375 224.3 127.35 225.4375 135.8634765625 225.15 140.95 224.6150390625 151.545703125 219.05 160.7 217.7724609375 162.767578125 216.45 164.1 216.224609375 164.3310546875 216.15 164.65 216.1228515625 164.9169921875 216.2 165.15 216.2650390625 165.470703125 216.5 165.7 216.7892578125 165.996484375 217.2 166 217.6 165.997265625 218 166.05
L 218 166.05
Q 219.3142578125 166.3193359375 221.8 167.25 221.862890625 167.30390625 221.9 167.3 222.814453125 167.5447265625 225.5 167.65
L 225.5 167.65
Q 230.38046875 167.75703125 232.55 166.2
L 232.55 166.2
Q 234.5080078125 164.88125 235.55 162
L 235.55 162
Q 235.9525390625 161.075 236.2 160.1 236.2556640625 159.98984375 236.25 159.85 236.2517578125 159.2875 236.3 158.7
L 236.3 158.7
Q 236.400390625 156.024609375 236.4 153.45 236.4 152.4 236.4 151.45
L 236.4 151.4
Q 236.0974609375 126.741015625 227.3 108.7
L 227.25 108.65
Q 225.166015625 104.7541015625 221.8 99.25
L 221.75 99.25
Q 220.726953125 97.6396484375 219.2 95.5 219.008984375 95.21875 218.65 95.1 218.285546875 95.034375 217.95 95.2 217.61875 95.374609375 217.45 95.7
M 195.2 62.1
Q 187.3880859375 54.1751953125 177.85 49.5
L 177.8 49.5
Q 167.959375 44.7154296875 157 43.9 145.865234375 43.034375 135.7 46.55 134.923828125 46.812109375 134.2 46.7
L 134.2 46.7
Q 134.01953125 46.6828125 133.95 46.65 133.95 46.6 133.95 46.55 133.946875 46.267578125 133.8 46 133.6642578125 45.7962890625 133.4 45.65 133.1763671875 45.538671875 132.9 45.55 132.353515625 45.526953125 131.55 44.9
L 131.6 44.9
Q 131.2986328125 44.673828125 126.3 40.45 123.06640625 37.771484375 120.65 36.35
L 120.65 36.3
Q 117.37421875 34.431640625 112.2 32.85
L 112.15 32.8
Q 106.3935546875 31.238671875 103.55 30.35
L 103.55 30.35
Q 100.484765625 29.3248046875 99.5 29.1
L 99.55 29.1
Q 97.083203125 28.48203125 95.15 28.65
L 95.1 28.65
Q 93.0763671875 28.7810546875 91.85 29.75 91.8361328125 29.81171875 91.8 29.85 90.9546875 30.687890625 90.45 31.95
L 90.45 31.9
Q 88.545703125 36.685546875 89.75 41.5
L 89.75 41.5
Q 90.43828125 43.9212890625 90.5 44.5 90.5650390625 45.900390625 89.7 46.5 89.2685546875 46.76875 88.7 46.6
L 88.65 46.6
Q 87.959765625 46.48828125 87.45 45.95
L 87.45 45.95
Q 87.23203125 45.72421875 87.05 45.4 86.94140625 45.246875 86.75 45.1 86.602734375 45.0125 86.4 44.95 78.315625 43.2517578125 67.3 47.35 57.48046875 51.0591796875 48.75 57.25
L 48.75 57.3
Q 40.1630859375 63.5251953125 33.45 71.7 26.8484375 79.87734375 22.45 89.65
L 22.45 89.6
Q 18.046484375 99.3455078125 16.25 109.75
L 16.25 109.8
Q 15.612109375 113.8265625 14.95 121.25
L 14.95 121.3
Q 14.6876953125 128.7064453125 18.3 135.1 19.174609375 136.5376953125 19.95 138 19.9875 138.0486328125 20 138.05 22.251171875 141.788671875 25.6 142.4 29.003125 143.1857421875 33.7 139.6
L 33.7 139.55
Q 37.5798828125 136.5333984375 42.65 130.75 42.8748046875 130.503515625 42.9 130.15 42.91796875 129.8365234375 42.7 129.55 42.55 129.27265625 42.35 128.95 42.0388671875 128.375 41.75 127.8 41.60546875 127.5216796875 41.3 127.35 41.0419921875 127.2189453125 40.7 127.25 40.4125 127.2884765625 40.15 127.5 39.72265625 127.913671875 38.35 129.3
L 38.35 129.25
Q 37.3439453125 130.239453125 36.45 130.55 35.5880859375 130.853125 34.6 130.6
L 34.65 130.6
Q 33.741796875 130.369140625 33.15 129.65 32.6078125 128.934375 32.5 127.9
L 32.5 127.9
Q 32.33046875 126.905078125 32.65 125.95
L 32.7 125.9
Q 33.36953125 124.0666015625 35.35 122.65
L 35.35 122.65
Q 36.4857421875 121.911328125 37.55 121.55 37.826171875 121.45859375 38 121.25 38.1759765625 121.0560546875 38.2 120.8 38.2837890625 120.5330078125 38.2 120.25 36.6193359375 115.825 36.8 111.95
L 36.8 111.9
Q 36.834765625 110.74609375 37.35 109.85 37.375 109.824609375 37.4 109.8 37.46484375 109.6525390625 37.55 109.55 37.6328125 109.4810546875 37.7 109.4 38.072265625 108.8146484375 38.75 108.2
L 38.7 108.25
Q 40.78203125 106.8060546875 45.3 105.65 66.1365234375 100.653125 90.7 100.95 90.824609375 100.95390625 90.95 100.9 91.003515625 100.911328125 91.05 100.9
L 91.4 100.95
Q 91.487890625 100.95390625 91.55 100.95 94.7751953125 100.950390625 98.05 101.1 98.394140625 101.11015625 98.65 100.9 98.969140625 100.7021484375 99.05 100.35 99.7625 97.8748046875 100.5 95.2 101.685546875 91.074609375 102.45 88.95 103.732421875 85.61796875 105.3 83.25
L 105.3 83.25
Q 106.0373046875 82.2662109375 106.6 82.25
L 106.55 82.25
Q 107.0525390625 82.53515625 107.05 83.7 107.0427734375 84.385546875 106.9 85.3 106.872265625 85.556640625 106.95 85.8 107.071484375 86.0962890625 107.1 86.5 107.1513671875 87.387890625 107.2 89 107.197265625 89.0748046875 107.2 89.1 107.60390625 92.3025390625 110.8 95.6
L 110.8 95.65
Q 112.0064453125 96.9333984375 112.95 97.4 115.6421875 98.9 118.9 97.25 120.9109375 96.286328125 123.1 93.55 124.789453125 91.5462890625 125.75 89.7
L 125.8 89.7
Q 126.15625 88.9828125 127.05 86.65 127.78515625 84.921484375 128.35 83.95 128.7314453125 83.348046875 129.55 82.1 129.840625 81.7623046875 129.8 81.4 129.801171875 81.362890625 129.8 81.3 129.700390625 79.949609375 129.65 78.5 129.6521484375 77.9380859375 129.75 77.7
L 129.75 77.7
Q 129.8083984375 77.7017578125 129.9 77.7 130.16328125 77.7310546875 130.3 77.9
L 130.3 77.95
Q 130.694140625 78.4677734375 130.85 79.75 132.117578125 90.4181640625 135 99.8 135.1037109375 100.1328125 135.4 100.3 135.6970703125 100.52890625 136.05 100.5 138.127734375 100.3005859375 140.65 100.2 171.18515625 98.8619140625 194 106.85
L 194 106.85
Q 195.915625 107.5337890625 196.65 108.25 197.0873046875 108.7240234375 197.15 109.3
L 197.15 109.35
Q 197.241015625 109.8521484375 196.95 110.2 196.8125 110.3875 196.65 110.55 196.3822265625 110.80859375 196.35 111.15 196.3091796875 111.8306640625 196.15 112.65 195.2451171875 117.440625 193.35 121.6 193.221875 121.890234375 193.25 122.15 193.2900390625 122.4556640625 193.45 122.65 193.656640625 122.9025390625 193.9 123 194.5685546875 123.2228515625 195.3 123.7
L 195.3 123.7
Q 197.00703125 124.762109375 199.9 127.65
L 199.9 127.65
Q 200.9994140625 128.729296875 201.45 129.6
L 201.45 129.55
Q 202.0416015625 130.8435546875 201.45 132.05
L 201.4 132.1
Q 200.90625 133.2873046875 199.55 133.45 198.3736328125 133.581640625 197.1 132.7 196.2091796875 132.0216796875 194.95 130.55
L 194.95 130.55 192.6 127.85 192.6 127.85
Q 192.2306640625 127.377734375 191.95 127 191.756640625 126.7431640625 191.45 126.65 191.1369140625 126.5490234375 190.8 126.65 190.51484375 126.7572265625 190.3 127 187.142578125 131.5708984375 182.85 134.45
L 182.85 134.45
Q 182 135 181.15 135.55 180.8068359375 135.7845703125 180.7 136.2 180.6419921875 136.6029296875 180.85 136.95 182.9912109375 140.182421875 184.4 142.05 187.1 145.724609375 189.75 148.25 191.1171875 149.58203125 193.95 152 194.6607421875 152.6181640625 195.3 153.15 197.34296875 155.2771484375 198.25 156
L 198.25 155.95
Q 199.1626953125 156.7625 200.7 157.6
L 200.7 157.6
Q 202.5416015625 158.699609375 205.1 159.8 207.2236328125 160.7154296875 208.35 160.75
L 208.4 160.75
Q 208.4818359375 160.75 208.55 160.75 210.1796875 161.6884765625 211.35 161.35 212.6267578125 161.18984375 213.95 159.25 223.0060546875 146.571484375 220.3 124.85 219.4431640625 117.6341796875 217 107.5 215.012109375 98.929296875 213.2 93.3 210.77890625 85.615625 207.75 79.6 202.780859375 69.81015625 195.2 62.1
L 195.2 62.1 Z"/>

<path fill="#F8FFDF" stroke="none" d="
M 45.8 108.4
Q 42.559375 109.1662109375 40.55 110.25 40.4525390625 110.346484375 40.35 110.45 40.3 110.5 40.25 110.55 40.0728515625 110.7197265625 40 110.95 39.926171875 111.1966796875 39.95 111.45 40.0123046875 111.6794921875 40.05 112
L 40.05 112
Q 41.605859375 120.3013671875 44.7 126.1
L 44.7 126.1
Q 45.023046875 126.7392578125 45.4 127.3
L 45.4 127.3
Q 46.7453125 129.582421875 48.35 131.45 52.2572265625 135.938671875 57.55 138
L 57.6 138
Q 61.337109375 139.4384765625 66.4 139.6 72.8892578125 139.8474609375 78.1 138.35 83.23515625 136.916015625 87.7 133.7
L 87.7 133.7
Q 88.3392578125 133.3015625 88.9 132.8 92.5896484375 129.8873046875 95.25 126.1 98.361328125 121.738671875 99.9 116.45 101.44453125 111.238671875 101.25 105.9
L 101.25 105.85
Q 101.25 105.1298828125 101.25 104.55 101.246484375 104.1392578125 100.95 103.85 100.6607421875 103.553515625 100.25 103.55 100.0375 103.5556640625 99.8 103.5 99.7978515625 103.5123046875 99.75 103.5
L 93.6 102.65 93.6 102.65
Q 93.1830078125 102.6080078125 92.85 102.5 92.712890625 102.493359375 92.55 102.5 87.7396484375 102.6490234375 82.1 103.15 77.2810546875 103.551953125 66.85 104.85 52.691015625 106.661328125 45.8 108.4
M 55.35 25.3
Q 55.2642578125 25.0224609375 55 24.8
L 36.5 9.95
Q 36.25 9.7548828125 35.9 9.75 35.551171875 9.753515625 35.25 9.95 35.0033203125 10.1892578125 34.9 10.5 31.459765625 25.0255859375 29.55 39.15 28.6001953125 46.2744140625 26.75 60.45
L 26.75 60.45
Q 25.7232421875 66.895703125 24.25 72.3 24.19296875 72.6330078125 24.35 72.95 24.4896484375 73.2828125 24.8 73.45 25.123046875 73.6060546875 25.45 73.5 25.812890625 73.45 26 73.15 27.162890625 71.7373046875 28.4 70.3 40.10078125 56.581640625 51.2 50.85
L 51.2 50.8
Q 56.1001953125 48.266796875 62.7 46.2 69.3025390625 44.0373046875 74.55 43.35 74.9900390625 43.2859375 75.25 42.95 75.5015625 42.628125 75.45 42.2 75.3994140625 41.824609375 75.05 41.55 73.616015625 40.434765625 71.95 39.45
L 71.9 39.4 69.8 38.25 69.85 38.3
Q 68.8095703125 37.6763671875 67.1 36.2
L 67.05 36.15
Q 64.7359375 34.285546875 61.85 31.75
L 61.85 31.75 57.25 27.65 57.25 27.65
Q 55.6896484375 26.3021484375 55.35 25.3
M 192.95 110.7
Q 192.9884765625 110.3767578125 192.8 110.05 192.62265625 109.7732421875 192.3 109.65 179.1865234375 104.8603515625 163.4 103.3 151.4916015625 102.0958984375 137.25 102.65
L 137.25 102.65
Q 135.0873046875 102.7001953125 132.95 102.85 132.76953125 102.85 132.6 102.85 132.3162109375 102.84765625 132.05 103 131.8275390625 103.1591796875 131.7 103.4 131.5705078125 103.688671875 131.6 103.95 132 107.4126953125 132.5 111.95 132.954296875 116.5375 136 121.85
L 136 121.75
Q 139.7783203125 129.660546875 148.05 132.45
L 148.1 132.45
Q 150.0875 133.1001953125 152.05 133.8
L 152.1 133.8
Q 153.973828125 134.362109375 156.3 135
L 156.3 135
Q 156.8623046875 135.1646484375 157.4 135.25 162.988671875 136.612890625 168.4 136.15 170.55 135.992578125 172.65 135.5 173.5376953125 135.325 174.35 135.1 175.1375 134.9134765625 175.9 134.65 177.7265625 134.0283203125 179.4 133.2
L 179.45 133.2
Q 183.1546875 131.37265625 186 128.45 189.0509765625 125.3193359375 190.8 121.25 192.5951171875 117.129296875 192.8 112.8
L 192.8 112.75
Q 192.8515625 111.4861328125 192.95 110.7
M 175.65 31.65
Q 175.4927734375 31.3423828125 175.15 31.2 174.8603515625 31.047265625 174.5 31.1 174.1759765625 31.203515625 173.95 31.45
L 166.05 41.6
Q 165.84296875 41.9017578125 165.85 42.25 165.855078125 42.59921875 166.05 42.85 166.2904296875 43.1458984375 166.6 43.2 176.6015625 45.5798828125 185.35 51.35 194.0255859375 57.0470703125 201.1 65.7 201.32265625 65.980078125 201.6 66.05 201.9412109375 66.1595703125 202.25 66.05 202.54609375 65.938671875 202.7 65.65 202.9048828125 65.415625 202.9 65.1 202.8509765625 60.3685546875 203.2 52.8 203.215625 52.5080078125 203.05 52.25 202.9298828125 52.005078125 202.65 51.85 198.45546875 49.590625 195.85 45.55 195.69921875 45.3201171875 195.45 45.2 195.2009765625 45.0763671875 194.9 45.1 194.636328125 45.130859375 194.4 45.3 193.7380859375 45.7654296875 193 46.75
L 193.05 46.75
Q 192.4318359375 47.6111328125 192.05 48 192.025 48.0630859375 192 48.1 191.0017578125 49.399609375 189.95 49.5
L 189.95 49.5
Q 189.0078125 49.475390625 187.7 48.4 184.0826171875 45.4501953125 180.85 40.75 178.460546875 37.2728515625 175.65 31.65 Z"/>
</g>

<g id="jasmine_0_Layer1_0_FILL">
<path fill="#660037" stroke="none" d="
M 196.8 111.1
Q 196.0513671875 110.8884765625 195.25 110.45 194.35 110 193.15 109.1 191.4 107.75 191.15 107.6 187.35 105.05 181.5 104.15 178.5 103.65 170.95 103.4 164.25 103.1 151.2 101.8 151.123828125 101.7921875 151.05 101.75 150.36640625 102.2115234375 149.85 102.9 148.75 104.45 148.45 107.3 148.05 111.9 149.75 116.5 151.4 120.95 154.7 124.4 157.9 127.75 162.3 129.85 166.55 131.85 171.3 132.45 178.55 133.35 184.5 130.9 191.3 128.05 194.3 122.05 196 118.75 196.6 113.4 196.73984375 112.1884765625 196.8 111.1
M 70.05 102.9
Q 65.163671875 102.605859375 61.2 102.1 60.3125 103.60546875 60.05 106.1 59.65 110.7 61.35 115.3 63 119.75 66.3 123.2 69.5 126.55 73.9 128.65 78.15 130.65 82.9 131.25 88.0212890625 131.8857421875 92.5 130.85 93.7013671875 129.5203125 94.35 128.75 98.8 123.55 100.9 116.8 102.95 110.1 102.2 103.25 86.6 103.9 70.05 102.9 Z"/>

<path fill="#F8FFDF" stroke="none" d="
M 160.75 231.2
Q 157.0421875 230.144140625 154.05 228.8 158.1904296875 231.89140625 163.9 235.75 166.45 237.45 167.75 236.45 168.4 236 168.45 235.05 168.55 234.2 168.1 233.45 167.774609375 232.864453125 166.8 232.1 164.42109375 232.2263671875 160.75 231.2
M 125 222.1
Q 126.95 220.25 128.75 219.4 131 218.35 135 218.25 138.45 218.15 140.85 219 141.931640625 219.4017578125 143.1 220.1 141.657421875 217.847265625 141.05 215.25 140.9833984375 214.9583984375 140.9 214.7 137.9474609375 214.0212890625 134.2 214.3 130.4 214.55 127.85 215.65 124.7 216.95 121 220.75 112.25 229.9 108.45 241.8 108.05 243 108.45 243.6 108.75 244 109.35 244.05 109.9 244.05 110.35 243.75 110.85 243.45 111.6 242.15 115.3 234.9 117.4 231.45 121 225.75 125 222.1
M 129 207.85
Q 128.746484375 207.355859375 128.6 206.85 128.2140625 205.4216796875 128.7 203.1 124.408203125 203.9158203125 119.75 207.4 109.25 215.05 104.35 227 103.5 229.3 104.5 230.2 105.4 231.05 106.8 230.15 107.5 229.6 108.3 228.2 112.05 221.8 115.25 217.85 119.55 212.55 124.45 209.7 126.92734375 208.270703125 129 207.85
M 117.4 194.3
Q 115.6 194.85 112.9 196.35 109 198.6 107.05 200.7 105.9 201.9 103.7 205.25 101.45 208.65 98.35 212.05 96.7 213.8 96.25 214.75 95.3 216.6 96.2 218 96.65 218.8 97.6 219.15 98.6 219.5 99.45 219.1 100.15 218.8 101.15 217.6
L 103.5 214.95
Q 106.25 211.85 107.75 209.7 108.8 208.05 109.35 207.25 110.25 205.8 111.05 204.95 113.1 202.65 117 200.7 119.75 199.4 121.6 199.2 122.75 199.1 124.95 199.1 127.05 198.9 127.85 197.65 128.35 196.85 128.15 195.9 128 194.9 127.25 194.35 126.3 193.65 124.45 193.65 120.25 193.45 117.4 194.3
M 133.25 233.55
Q 135.45 230.8 137.6 230.25 140.45 229.6 144.2 232.35 146.05 233.7 149.2 236.55 152.6 239.55 154.2 240.8 155.5 241.75 156.25 241.95 157.5 242.35 158.5 241.65 159.05 241.2 159.25 240.35 159.4 239.6 159.15 238.85 158.7 237.6 157.35 236.45 156.6 235.75 155.3 234.8 153.65 233.5 153.25 233.2 149.85 230.05 148.15 228.5 145.1 225.75 142.6 224.6 140.2 223.5 138.15 223.55 134.75 223.75 131 227.05 128.95 228.95 127.35 230.9 126.6 231.9 124 235.7 121.95 238.7 120.4 240.3 118.65 242.05 117.1 242.6 115.25 243.2 114.95 243.45 114.05 244.1 114 245.4 113.95 246.65 114.7 247.5 115.4 248.35 116.6 248.65 117.7 248.95 118.85 248.7 120.65 248.35 122.8 246.55 125.3 244.4 128.3 240.3 132.7 234.2 133.25 233.55 Z"/>
</g>

<g id="jasmine_0_Layer0_0_FILL">
<path fill="#330033" stroke="none" d="
M 204.25 48.85
Q 203.35 49 202.8 49 203.1 48.5 202.95 47.8 202.85 47.15 202.25 46.05
L 200.1 42.45
Q 199.4 41.2 198.7 40.9 197.7 40.4 196.15 41.15 195.35 41.55 194.9 41.7 194.2 42 193.65 42.05
L 191.7 38.35
Q 191.1 37.25 190.95 36.65
L 190.65 35.15
Q 190.3 33.35 188.8 30.2 188.15 28.8 187.65 28.35 186.55 27.25 184.5 27.5 183.2 27.75 181.4 28.95 180.55 29.5 178.8 31.05 177.8 29.1 177.6 28.8 175.9 25.95 174 26.4 173.05 26.6 171.9 28.2
L 163.35 40.15
Q 162.85 40.85 162.55 41.4 152.7 39.9 143.5 42.05 139.1 43.05 134.4 45.1 134.4 44.9 134.4 44.65 134.3 43.8 133.55 42.7 132.1 40.6 128.1 37.3 124.8 34.6 123.1 33.55 120.8 32.1 115.8 30.1
L 106.7 26.75
Q 103 25.4 101.05 24.9 97.85 24 95.2 23.95 91.9 23.85 89.9 25.15 88.6 25.9 87.3 27.65 85.1 30.85 84.6 35.15 84.2 38.55 84.95 42.25 83 41.95 80.9 41.95 80.55 40.85 79.05 39.75 78.55 39.1 77.75 38.55 77.25 38.2 75.9 37.5 69.35 34 61.75 26.1 53.5 16.95 49.05 12.75 42.6 7.15 39.75 3.95 37.85 1.9 37 1.25 35.3 -0.1 33.65 0 31.3 0.05 29.75 2.55 28.8 4 28.1 7.1 25.75 17.4 23.95 30.6 22.85 38.4 21.15 54.3
L 18.5 79.2
Q 18.3 80.85 18.65 81.85 18.7 81.9 18.7 82 18.1 83.05 17.55 84.2 17.4 84.75 17.15 85.4 13.55 96 10.5 106.45 10 109.25 9.65 112.45 10 112.95 10.2 113.55 10.25 113.65 10.3 113.75 9.85 114.75 9.05 116.3 5.7 122.75 2.9 133.95 0.35 143.95 0.05 150.75 -0.15 156.5 1.25 160.05 2.95 164.35 7.15 167.2 11.2 169.95 16.05 170.4 20.05 170.8 22.25 169.15 22.3 169.15 22.35 169.1 22.25 169.95 22.3 170.45 22.3 174.2 23.9 177.55 25.3 180.6 27.85 182.9 30.45 185.25 33.65 186.25 35.85 186.95 37.95 186.8 39.4 186.7 40.65 186.25 40.65 186.35 40.65 186.45 41.25 190.1 45.15 194.35 47.9 197.35 50.1 198.5 52.35 199.75 55.85 200.25 58.6 200.6 60.35 200.5 62.9 200.25 65.1 199.25 68.35 197.75 70.95 194.5
L 71 194.55
Q 71.45 193.75 71.95 193.3 72.45 192.85 73 192.75 74.65 194.1 76.7 195.25 77.2 195.65 78.8 196.55 79.95 197.15 80.9 197.55 82.4 198.05 84.05 198.15 87.45 198.3 90.65 197.15 91.35 196.9 91.95 196.55 92.65 202.75 92.35 209 92.25 212.1 92.85 213.3 92.9 213.45 93 213.6 92.95 214.1 92.9 214.5 92.65 216.95 93.25 218.85 94 221.2 96.75 224.35
L 101.55 230.1
Q 103.2 232.15 103.65 233.1 104.25 234.45 104.4 236.45 104.45 237.1 104.45 239.95 104.45 244.15 106.15 246 107.5 247.45 110.8 248.2 120.05 250.5 129.4 251 135.35 251.3 138.9 250.65 141.85 250.15 147.55 248.25 154.35 245.9 157.55 244.65 163.05 242.45 167.1 240.1 169.4 238.85 170.2 237.55 170.7 236.6 170.65 235.55 170.65 235.4 170.65 235.25 174.5 233.8 178.9 229.5 180.35 228.05 181.2 226.9 183.4 223.75 184.05 218.35 184.35 215.95 184.05 214.3 184.1 214.3 184.2 214.3 183.6 213.25 183.25 211.8 183.05 210.5 182.85 209.45 184.7 209.7 186.25 209.2 188.95 208.35 191.55 204.55 196.6 197.2 197.6 188.4 199.1 189.3 201 189.45 202.75 189.6 204.55 189.05 207.6 188.1 210.45 185.15 215.05 180.2 216.7 172.5 218.35 173.6 220.65 174.15 222.7 174.55 226.1 174.55 229 174.45 230.35 174.05 231.85 173.65 233.9 172.35 235.75 171.2 236.7 170.2 237.6 169.25 238.55 167.35 239.15 166.15 239.5 165.05 239.6 165.45 239.7 165.95 240.1 164.25 240.3 162.4 240.65 159.5 240.65 154.15 240.55 138.65 238.65 129.25 236.05 116.6 229.5 105.55 228.75 104.3 227.6 102.5 227.45 101.95 227.35 101.5 224.65 97.15 217 86.7 209.3 76.25 207.1 71.8 207 71.6 206.9 71.45 207 71.9 206.9 72 206.7 71.65 206.5 71.35 207 70.65 207.15 69.75 207.3 68.95 207.15 67.8 206.95 66.5 206.85 65.85 206.65 64.45 206.65 60.6 206.7 56.65 206.15 52 205.85 49.1 204.25 48.85
M 174.75 32.1
Q 177.6 37.8 180.05 41.35 183.35 46.15 187.1 49.2 188.75 50.55 190 50.5 191.45 50.45 192.8 48.7 193.2 48.25 193.85 47.35 194.45 46.5 195 46.1 197.75 50.35 202.2 52.75 201.85 60.35 201.9 65.1 194.7 56.3 185.9 50.55 177 44.65 166.85 42.25
L 174.75 32.1
M 177.4 50.4
Q 186.8 55 194.5 62.8 201.95 70.4 206.85 80.05 209.85 86 212.25 93.6 214.05 99.2 216.05 107.75 218.45 117.8 219.3 125 221.95 146.25 213.15 158.7 212.1 160.2 211.15 160.4 210.2 160.6 208.85 159.75 208.6 159.75 208.4 159.75 207.4 159.7 205.5 158.9 203 157.8 201.2 156.75 199.75 155.95 198.9 155.2 198 154.5 196.05 152.45 195.35 151.9 194.6 151.25 191.8 148.85 190.45 147.55 187.85 145.05 185.2 141.45 183.8 139.6 181.7 136.4 182.55 135.85 183.4 135.3 187.85 132.3 191.15 127.6 191.45 128 191.85 128.5
L 194.2 131.2
Q 195.55 132.8 196.55 133.55 198.15 134.65 199.7 134.45 201.6 134.2 202.35 132.5 203.15 130.85 202.35 129.15 201.85 128.15 200.6 126.95 197.6 123.95 195.85 122.85 195 122.3 194.25 122.05 196.2 117.75 197.15 112.85 197.3 111.95 197.35 111.25 197.55 111.05 197.75 110.85 198.3 110.15 198.15 109.2 198.05 108.3 197.4 107.6 196.55 106.7 194.35 105.9 171.35 97.85 140.6 99.2 138.05 99.3 135.95 99.5 133.1 90.2 131.85 79.65 131.65 77.95 131.1 77.3 130.7 76.8 130.05 76.7 129.3 76.65 128.95 77.1 128.65 77.5 128.65 78.55 128.7 80 128.8 81.4 128.8 81.45 128.75 81.5 127.9 82.8 127.5 83.45 126.9 84.45 126.15 86.3 125.25 88.55 124.9 89.25 123.95 91 122.35 92.95 120.3 95.45 118.45 96.35 115.7 97.75 113.45 96.55 112.6 96.1 111.55 94.95 108.6 91.9 108.2 89 108.15 87.3 108.1 86.4 108.05 85.85 107.9 85.45 108.05 84.45 108.05 83.7 108.05 81.65 106.85 81.3 105.7 81 104.5 82.7 102.85 85.15 101.55 88.6 100.75 90.75 99.55 94.95 98.8 97.6 98.1 100.1 94.8 99.95 91.55 99.95
L 91.15 99.9
Q 90.9 99.9 90.7 99.95 66 99.65 45.05 104.7 40.3 105.9 38.15 107.45 37.3 108.15 36.85 108.85 36.65 109.05 36.5 109.35 35.85 110.45 35.8 111.9 35.6 115.95 37.25 120.6 36.05 121 34.8 121.85 32.5 123.45 31.75 125.6 31.3 126.8 31.5 128.05 31.65 129.35 32.4 130.3 33.15 131.25 34.4 131.6 35.65 131.9 36.8 131.5 37.85 131.15 39.05 130 40.4 128.65 40.85 128.25 41.15 128.85 41.5 129.45 41.7 129.8 41.9 130.1 36.9 135.8 33.1 138.8 28.85 142.05 25.8 141.45 22.85 140.85 20.85 137.55 20.05 136.05 19.2 134.6 15.7 128.45 15.95 121.35 16.6 113.95 17.25 109.95 19 99.65 23.35 90.05 27.7 80.4 34.25 72.35 40.85 64.25 49.35 58.1 57.95 51.95 67.65 48.3 78.35 44.3 86.2 45.95 86.45 46.35 86.75 46.65 87.45 47.4 88.45 47.6 89.45 47.85 90.25 47.35 91.6 46.5 91.5 44.45 91.45 43.8 90.75 41.25 89.6 36.75 91.4 32.3 91.8 31.25 92.5 30.55 93.5 29.75 95.2 29.65 97 29.5 99.3 30.1 100.25 30.3 103.25 31.3 106.1 32.2 111.9 33.8 116.95 35.35 120.15 37.2 122.5 38.6 125.65 41.25 130.65 45.45 130.95 45.7 132.1 46.6 132.95 46.55 132.95 46.6 132.95 46.65 132.95 47.5 134.05 47.7 135 47.85 136.05 47.5 146 44.05 156.95 44.9 167.7 45.7 177.4 50.4
M 220.95 99.8
Q 224.3 105.25 226.4 109.15 235.1 127 235.4 151.4
L 235.4 151.45
Q 235.4 152.4 235.4 153.45 235.4 156 235.3 158.65 235.25 159.25 235.25 159.85 235 160.75 234.65 161.65 233.7 164.2 232 165.4 230 166.75 225.55 166.65 223 166.55 222.15 166.35 219.55 165.35 218.2 165.1 217.7 165 217.2 165 217.2 164.9 217.15 164.8 218.55 163.4 219.9 161.25 225.6 151.85 226.15 141 226.45 135.85 225.3 127.25 222.9 109.8 218.4 96.1 219.9 98.2 220.95 99.8
M 191.8 112.75
Q 191.6 116.9 189.9 120.85 188.2 124.75 185.3 127.75 182.55 130.55 179 132.3 177.35 133.1 175.6 133.7 174.85 133.95 174.1 134.15 173.3 134.35 172.45 134.55 170.4 135 168.35 135.15 163.05 135.6 157.6 134.3 157.1 134.2 156.6 134.05 154.25 133.4 152.4 132.85 150.4 132.15 148.4 131.5 140.5 128.85 136.9 121.35 133.95 116.25 133.5 111.85 133 107.3 132.6 103.85 132.8 103.85 133.05 103.85 135.15 103.7 137.3 103.65 151.45 103.1 163.3 104.3 178.95 105.85 191.95 110.6 191.85 111.4 191.8 112.75
M 164.15 140.3
Q 163.7 141.4 163.6 142.9 163.1 148.8 163.75 160.45 163.45 160.3 163.2 160.25 163.3 160.95 163 161.65 162.5 162.7 160.3 163.75 151.75 167.55 137.15 170.3 136.9 170.35 136.7 170.4 137.95 172.6 139.05 174.7 138.65 175.1 138.2 175.6 136.8 177.2 136.2 178.05 133.2 181.9 131.65 186.65 131.05 188.5 130.7 190.4
L 130.15 190.6
Q 129 191.05 127.7 192.7 127.15 192.15 126.2 191.4 124.95 190.45 123.1 188.6 120.85 186.25 120.1 185.6 118.2 184.1 117.3 183.3 114.65 180.95 112.6 177.55 111.65 176.15 111.2 175.85 110.8 175.6 110.3 175.55 110.25 175.45 110.2 175.4 109.5 174.4 109.15 173.95 108.5 173.1 107.85 172.75 107.25 172.45 106.4 172.4 106 172.4 104.85 172.45 100.35 172.75 94.75 171.8 91.45 171.3 84.75 169.65 79.85 168.45 77.05 167.3 85.7 153.4 92.8 134.75 93 134.6 93.15 134.45 99.55 128.75 103 120.55 106.4 112.35 105.9 103.8 105.8 100.55 104.05 99.85 104.55 98.15 105.05 96.4 105.15 96.5 105.25 96.65 107.7 100.05 110.45 101.7 112.6 102.9 115 103.1 117.5 103.35 119.7 102.55 122.05 101.7 124.15 99.85 127.3 97.3 129.5 93.5 129.85 92.9 130.15 92.3 130.85 96.2 131.9 100.05
L 131.85 100.05
Q 131.5 99.55 131.05 99.35 130.5 99.1 129.8 99.35 129.15 99.6 128.7 100.15 128.1 101 127.9 102.6 127.55 105.8 128.1 109.1 128.65 112.4 129.5 117.1 129.9 119.4 130.65 121.35 131.45 122.8 132.3 124.25 139.2 135.75 152.4 138.05 154.15 138.55 155.7 138.95 159.95 140.1 164.15 140.3
M 169.05 140.25
Q 169.65 140.15 170.25 140.1 174.35 139.6 178.05 138.15 180.15 141.75 182.25 144.65 185.35 149 189.1 152.85 191.45 155.2 193.4 156.95 199.95 162.9 205.6 165.1 208.65 167.65 211.6 167.55 212.5 167.5 213.35 167.25 213.1 168.45 212.95 169.8 212.8 171.1 212.55 173.7 212.25 175.95 211.8 177.55 210.5 182.05 207.5 184 205.8 185.1 203.75 185.15 201.65 185.15 200.15 183.95 199.6 183.45 198.85 182.5 197.95 181.3 197.65 180.95 195.95 179.05 194.25 179.55 192.4 180 191.75 183.6 190.5 190.5 190.05 192.35 188.8 197.2 186.8 200.45 185.25 202.9 183.5 203.3 181.45 203.75 178.85 201.55 177.95 200.8 177.2 200 173.5 191.7 172 180.15 171.4 175.45 170.9 167.8 170.25 158.05 170 155.45 169.65 151.9 169.55 150.15 169.3 147.05 169.45 144.8 169.55 143.45 169.55 142.75 169.55 141.55 169.25 140.7 169.15 140.45 169.05 140.25
M 164.1 165.9
Q 163.9 165.75 163.75 165.6 163.9 165.5 164.05 165.4 164.05 165.65 164.1 165.9
M 163.65 181.85
Q 163.2 181.7 162.75 181.65 162.05 181.55 160.95 181.55 159.35 181.55 159.1 181.55
L 156.55 181.55
Q 155.3 181.65 153.5 182.3 152.1 182.8 151.35 183.05 151.35 182.45 151.3 181.85 151.2 178.9 150.25 176.95 148.95 174.3 146.75 173.45 149.45 173.35 152.6 173.2 152.9 173.75 153.95 174.4 158.65 177.25 159.3 177.75 160.4 178.5 160.85 178.75 160.95 178.8 161.05 178.85 161.95 179.8 163 181.05 163.3 181.4 163.65 181.85
M 163.7 190.4
Q 163.7 190.75 163.25 191.65 162.75 192.55 162.55 193.45 162.25 194.75 162.55 195.65 162.45 195.6 162.35 195.6 161.25 195.25 160.7 195.1 159.7 194.85 159 194.8 158 194.75 156.6 195.2 154.45 195.9 152.75 197.45 151.05 199 150.25 201.1 149.95 201.95 149.8 202.75 149.55 204.2 149.85 205.5 150.25 207.1 151.8 208.65 153.45 210.25 156.4 211.45 158.2 212.2 159.55 212.3 160.85 212.45 163.55 212.15 166.3 212.05 167.2 211.55 167.45 211.45 167.7 211.25 167.95 211.7 168.25 212.25 169.5 214.7 170.25 215.65 171.1 216.85 172.2 217.2 173.65 217.55 174.65 216.4 175.5 215.35 175.05 213.7 174.75 212.8 173.65 211.2 172.1 209.05 170.55 207.55 171.65 205.3 171.35 202.9 172.45 204.95 175.85 210.55 176.05 210.5 176.2 210.45 176.55 210.8 176.9 211.1 177.25 211.4 177.6 211.7 177.4 212.3 177.45 213.1 177.5 214.2 178 216.3 178.45 219.35 176.65 222.55 175.3 225 172.45 227.5 171.05 228.7 169.85 229.35 169.1 229.7 168.05 229.95 167.45 230.05 166.75 230.15 166 230.25 165.2 230.3 158.9 230.65 154.1 228.95 148.25 226.85 145.35 222.25 144.15 220.3 143.15 217.1 142.4 214.35 141.9 212.65 143.15 212.1 144.15 211.3 146.9 209.15 147.7 205.6 148.4 202.15 146.75 199 146.35 198.2 144.95 196.4 143 193.95 141.5 193.2 140.15 192.5 137.75 192.4 137.1 192.4 136.5 192.4 136.55 192.2 136.6 191.95 137.2 189.55 137.6 188.45 138.8 185.1 142.05 180.75 143.3 179.05 144.5 179.3 145.35 179.55 145.7 180.5 145.85 180.85 145.95 182.25 146 183.7 146.35 185.45 146.65 186.85 147.05 187.45 147.7 188.35 148.55 188.4 149.15 188.8 150.1 189 151.3 189.2 153.1 188.7 155.8 187.9 156.05 187.85 156.85 187.7 158.55 187.7
L 160.7 187.65
Q 161.7 187.65 162.2 187.8 163.05 188 163.35 188.7 163.5 189 163.6 189.7
L 163.7 190.4
M 166.95 196.95
Q 166.75 196.85 166.6 196.75
L 166.65 196.7
Q 167.6 196.05 168.3 194.75 169.25 197.65 170 199.7 169.6 199.25 169 198.7 167.45 197.25 166.95 196.95
M 54.4 25.6
Q 54.75 26.8 56.6 28.4
L 61.2 32.5
Q 64.1 35.05 66.45 36.95 68.25 38.5 69.35 39.15
L 71.45 40.3
Q 73.05 41.25 74.45 42.35 69.1 43.05 62.4 45.25 55.7 47.35 50.75 49.95 39.5 55.75 27.65 69.65 26.4 71.1 25.25 72.55 26.7 67.1 27.75 60.6 29.6 46.4 30.55 39.3 32.45 25.2 35.9 10.75
L 54.4 25.6
M 40.95 111.25
Q 41 111.2 41.05 111.15 42.95 110.1 46.05 109.4 52.9 107.65 67 105.85 77.4 104.55 82.2 104.15 87.8 103.65 92.6 103.5 93 103.6 93.5 103.65
L 99.65 104.5
Q 99.95 104.55 100.25 104.55 100.25 105.15 100.25 105.9 100.45 111.1 98.95 116.2 97.45 121.3 94.45 125.55 91.85 129.2 88.3 132.05 87.75 132.5 87.15 132.9 82.8 136 77.85 137.4 72.75 138.85 66.45 138.6 61.55 138.45 57.95 137.1 52.85 135.1 49.1 130.8 47.55 129 46.25 126.8 45.9 126.25 45.6 125.65 42.55 119.95 41.05 111.85 41 111.5 40.95 111.25
M 44.8 134.55
Q 44.85 134.6 44.9 134.7 43.8 142.65 44.2 149.15 44.75 159.45 48.9 167.15 52.15 172.95 56.6 175.65 59.2 177.2 62.1 177.6 65.15 177.95 67.75 176.95 69.1 176.4 70.4 175.45 70.2 178 69.95 182.5 68.65 185.05 66.3 188.5 64.9 190.65 64.15 191.35 62.5 192.95 60.15 193.55 57.8 194.15 55.5 193.65 51.05 192.7 47.9 188.65 46.75 187.15 46.2 185.75 45.55 184 45.35 180.8 45.25 179 44.85 178.2 44.55 177.55 43.95 177.25 43.35 176.85 42.7 177 41.5 177.25 41.05 179.35 40.5 179.45 39.9 179.65 38.05 180.4 37.8 180.45 35.35 181.15 32.65 179.6 30.75 178.5 28.7 176 27.65 174.7 27.2 173.75 26.85 173.1 26.5 171.8 25.6 168.75 25.45 165.4 25.45 164.15 25 163.65 24.6 163.2 23.9 163.25 23.5 163.3 23.25 163.5 18.5 163.65 15.8 163.05 11.45 162.2 9.15 159.2 7.6 157.15 7.2 154.05 6.85 151.75 7.15 148.3 7.85 139.85 9.95 131.5 9.95 131.55 9.95 131.65 10.1 133.65 10.3 135.6 11.8 138.95 14.45 141.95
L 15 142.1
Q 15.4 142.65 15.9 143.2 18.05 145.7 20.85 147.15 23.25 148.3 25.8 148.25 30.4 148.15 36.1 143.2 40.8 139.2 44.8 134.55
M 48.95 138.75
L 48.95 138.7
Q 53.85 142.35 61.2 143.6 69.7 145.05 78.2 142.65 82 141.55 85.4 139.8 79.65 154.45 72.85 165.85 72.65 165.85 72.45 165.9 71.3 166.15 70.7 167.35 70.1 168.4 70.45 169.45 68.85 171.4 67.2 172.15 64.55 173.35 61.4 172.25 58.5 171.25 56.3 168.85 51.95 164.2 50.15 155.1 48.7 147.4 49.15 139.85 49.05 139.3 48.95 138.75
M 77.3 190.15
L 75.95 188.6
Q 76.8 180.9 76.7 173.2 81.55 174.85 88.9 176.25 93.5 177.05 95.9 177 97 177 99.8 176.7 102.3 176.45 103.75 176.55 104.6 176.55 105.15 176.8 105.35 176.9 105.6 177.1 104.75 177.2 104.3 177.3 102.9 177.6 100 178.85 97.2 180.05 95.65 180.3 94.2 180.5 93.45 180.6 92.2 180.85 91.5 181.4 90.05 182.45 89.95 184.7 89.9 185.55 90.5 188.45 90.9 190.15 91.2 191.8 90.85 192.05 90.45 192.35 88.75 193.7 87.7 193.95 87.25 194.05 84.95 194.05 83.9 194.05 83.3 194 83.25 193.9 83.2 193.8 83.1 193.4 82.3 193 79.45 191.6 77.3 190.15
M 96.6 187.35
Q 96.35 186.55 96.5 186 96.7 185.45 97.75 184.95 101.35 183.2 104.75 182.2 105.8 181.9 107.95 181.2 109.45 184.1 113.05 187.45 114.35 188.75 117.15 191.15 120.05 193.6 123.4 195.95 124.7 196.95 125.6 197 125.7 197 125.85 197.05 125.85 197.15 125.9 197.25 126.05 197.75 126.4 198.1
L 125.75 199.4
Q 125.4 200.05 124.65 201.35 124.25 202.3 124.15 204.4 124.05 205.85 124.2 206.55 124.45 207.7 125.4 208.85 125.9 209.45 127.25 210.75 129.35 212.85 130.5 213.35 131.7 213.85 133.65 213.85 135.45 213.95 137.05 213.8 137.3 215.95 137.75 217.9 139.5 224.9 144.95 229.8 149.15 233.55 154.45 235.05 159.05 235.15 163.85 235.5 153.6 244 139.75 246 125.8 248 113.55 242.55 111.85 241.7 111.35 241.05 110.7 240.2 110.65 238.65 110.75 236.85 110.65 235.95 110.45 233.85 108.8 231.4 106.65 228.7 105.65 227.35 103.9 225 101.4 220.15 99.9 217 99.6 215.75 99.05 213.4 99.65 209
L 102 190.2
Q 102.3 188.3 101.4 187.65 100.95 187.35 100.25 187.5 99.65 187.65 99.2 188.1 98.65 188.75 98.25 190.4
L 97.65 193.15
Q 97.55 192.2 97.45 191.5 97.3 190.6 96.6 187.35
M 161.4 172.9
Q 161.3 172.85 161.2 172.8 161.55 172.75 161.9 172.75 161.65 172.85 161.4 172.9
M 157.4 204.7
Q 156.85 204.4 156.7 203.95 156.6 203.5 157.1 202.75 158.15 201.2 159.1 200.7 159.35 200.55 161.15 200.05 161.75 199.85 162.05 199.85 162.3 199.85 162.8 200.05 164.7 200.95 166 202.2 166.65 202.85 166.75 203.35 166.9 204 166.55 205 166.25 204.95 166 205.05 165.35 205.25 165.05 205.95 164.95 206.1 164.95 206.3 164.75 206.3 164.6 206.3 162.15 206.2 160.85 205.95 158.8 205.6 157.4 204.7
M 142.1 202.4
Q 142.75 204.1 142 205.4 141.35 206.65 139.15 207.25 137.3 207.7 134.65 207.7 133.35 207.7 132.7 207.5 131.95 207.15 130.95 206.15 130.4 205.6 130.35 205.2 130.3 204.95 130.55 203.95 130.55 202.5 130.65 201.8 130.95 200.05 132.9 199.05 133.95 198.5 136.5 198.2 138.4 198 139.3 198.55 139.8 198.85 140.5 199.75 141.8 201.6 142.1 202.4
M 117.3 158.7
Q 113.4 159.1 111.9 159.3 108.9 159.75 106.65 160.5 105.15 160.9 104.95 161.85 104.75 162.45 105.25 162.95 105.7 163.45 106.35 163.5 106.75 163.5 107.6 163.45 107.8 163.5 108.65 164.1 110.95 165.9 116.2 167.9 118.95 169.05 120.3 168.1 121.3 167.35 121.5 165.75 121.45 163.95 121.45 163.05 121.45 161.4 121.4 161.1 121.3 160.05 120.7 159.45 119.8 158.5 117.3 158.7
M 114.7 162.95
L 116.45 162.55
Q 117.05 162.4 117.5 162.45
L 117.5 164.15
Q 117.35 164.2 116.9 163.95 116.3 163.5 114.7 162.95 Z"/>
</g>
</defs>

<g transform="matrix( 1, 0, 0, 1, 31.2,16.7) ">
<g transform="matrix( 1, 0, 0, 1, 0,0) ">
<use xlink:href="#jasmine_0_Layer2_0_FILL"/>
</g>

<g transform="matrix( 1, 0, 0, 1, 0,0) ">
<use xlink:href="#jasmine_0_Layer1_0_FILL"/>
</g>

<g transform="matrix( 1, 0, 0, 1, 0,0) ">
<use xlink:href="#jasmine_0_Layer0_0_FILL"/>
</g>
</g>
</svg>
