
<svg xmlns="http://www.w3.org/2000/svg" version="1.1" xmlns:xlink="http://www.w3.org/1999/xlink" preserveAspectRatio="none" x="0px" y="0px" width="150px" height="150px" viewBox="0 0 150 150">
<defs>
<g id="Layer0_0_FILL">
<path fill="#FFFFFF" stroke="none" d="
M 118.7 -0.05
Q 117.95 -0.55 117.1 -0.55 116.5 -0.55 115.9 -0.3 114.9 0 113.45 1.05 108.3 4.7 99.95 11.55 98.9 12.3 98.65 12.85 98.3 13.3 98.3 13.7 97.75 13.55 96.95 13.45 95.85 13.3 93.7 13.4 90.4 13.5 88.45 14.15
L 87.65 14.5
Q 87.45 14 87.25 13.55 86.3 12.05 84.55 10.5 79 5.45 73.35 3.85 70.1 3 66.9 3.3 63.5 3.65 61.05 5.4 59.1 6.8 58.5 8.35 58.05 9.5 58.05 10.95 58.1 13.95 60.05 16.6 57.55 16.35 54.35 16.3 48.85 16.25 45.55 16.85 43.05 17.3 40.75 18.25 38.15 16.55 33.65 14.6 29.55 12.8 21.25 9.6
L 16.15 7.55
Q 14.05 6.75 12.95 6.7 10.95 6.7 10.15 7.95 9.6 8.85 9.85 11.05 11.55 23.45 13.45 33.8 14.2 37.9 14.7 39.35 15.35 41.5 17.05 44.65 16.9 44.8 16.75 44.95 13.7 48.7 10.35 53.65 6 60 3.7 64.8 3.25 65.65 2.9 66.6 2.2 68.2 1.65 69.75 0.25 73.55 -0.15 77.2 -0.55 81.15 0.45 83.9 0.9 85.3 1.65 86.35 2.85 88.05 4.7 88.9 7.1 90.05 9.9 89.05 9.8 90.25 9.7 91.45 9.4 95.5 9.85 99.35 10.2 102.35 11 104.35 12.35 107.4 15.55 110.05 17.6 111.7 19.05 112.2 21.35 113.05 24.25 112.75 26.95 112.4 28.55 111.5 28.65 112.35 29.1 113.65
L 29.65 115.15
Q 29.75 115.35 30.45 116.45 31 117.3 31.8 119.25 32.4 120.3 33.1 121.2 33.7 122 34.65 122.95 35.55 123.7 36.4 124 32.8 135.5 32.55 150.65 32.55 151.7 32.55 152.7 32.6 152.9 32.75 153.15 32.65 155.6 32.95 156.9 32.95 157 33 157.1 32.65 157.1 32.3 157.05 31.3 156.85 30.75 156.75 30.05 156.65 27.75 156.5 25.9 156.4 24.8 156.05 23.45 155.6 22.15 154.65 18.6 152.4 18.2 149.8 18 148.6 18.45 147 18.8 145.5 19.35 144.6 19.75 143.95 21.2 142.25 23.15 139.95 23.9 138.2 25 135.7 24.55 133.4 24.4 132.8 24.15 132.1 25 133 25.65 133.3 26.55 133.7 28.25 133.6 29.75 133.5 30.35 133.15 31.1 132.7 31.6 131.65 33 128.7 32.3 125.6 32.15 124.7 31.55 123.25 30.75 121.35 30.15 120.5
L 26.85 116.95
Q 25.95 116.05 25.3 115.85 24.2 115.55 22.25 116.85 19.2 118.85 18.05 119.95 17.1 120.85 15.95 122.25 15.45 122.85 15.1 123.45
L 14.05 125.9
Q 13.75 126.75 13.75 128.55 13.75 130.4 14.25 131.35 15.05 132.9 17.2 133.25 18.55 133.4 20.8 132.95 21.1 132.9 21.35 132.85 21.55 133.95 21.4 134.75 21.25 135.7 20.65 136.75 20 137.85 18.6 139.4 16.8 141.3 16.35 141.85 14.7 144.1 14.2 146.9 13.75 149.75 14.55 152.4 15.05 153.8 15.45 154.4 16.3 155.65 18.1 157.1 23.2 161.2 27.45 161.3 29.7 161.4 31.8 160.45 32.85 160 33.75 159.3 33.8 159.5 33.9 159.65 35.75 164.35 38 166.45 40.4 168.85 43.15 168.9 43.9 168.95 45.5 168.85 45.8 168.85 46.6 169 47.25 169.1 47.65 169.1 48.15 169 48.25 168.75 48.5 168.15 47.65 168 47.35 167.85 46.55 167.75 45.85 167.65 45.45 167.5 45 167.25 44.55 166.7 44.1 166 43.85 165.7
L 42.5 164.25
Q 40.55 162.1 38.5 157.35 38 156.3 37.9 155.7 38.55 147.75 39 142.95 39.4 139.4 39.95 136.2 40.05 136.1 40.2 136 42.6 134.5 47.15 134.5 49.2 134.5 50.5 134.8 51.3 135.05 52.85 135.75 54.65 136.65 55.55 137.3 56.25 137.9 57.55 139.2 57.9 139.4 58.2 139.55 57.55 140.5 57.1 141.1 54.5 145.25 52.15 152.15 52 152.6 52.1 152.95 52.2 153.4 52.5 153.35 52.75 153.35 53.1 152.7 53.55 151.6 54.65 150.4 56 149 56.65 148.35 57.8 147.1 59.1 145.25 60.65 143.1 61.35 142.05 65 136.75 70.75 130.85 73.55 127.85 81.15 120.55 83 118.75 83.35 117.55 83.4 117.45 83.4 117.3 83.6 117.2 83.85 117.05 84.6 116.35 84.65 115.15 84.65 113.8 84.75 113.05 84.9 111.9 85.45 110.45 86.7 107.05 88.75 103.85 89.95 101.8 91.3 100.85 92.5 100.05 94 99.6 95.45 99.2 96.35 99.45 97.35 99.6 98.4 100.5 99.2 101.25 100.3 102.8 100.45 103.3 100.8 103.95
L 102.05 106.15
Q 102.8 107.4 102.95 107.7 103.1 108.1 103.15 108.6 103.15 108.65 103.15 108.7 103.05 109.05 103.15 109.3 103.15 109.55 103.35 109.65 103.5 110.9 103.1 111.65
L 102.9 112.05
Q 102.4 112.15 102 113 101.55 114.05 100.95 116.75 100.45 119.2 99.75 120.4 99.6 120.65 98.55 122.2 97.55 123.5 97.15 123.9 96.8 124.25 96.15 125 96 125.2 95.7 125.65 95.4 126.1 95.15 126.15 94.45 126.25 94.15 126.35 93.45 126.45 93.45 127 93.5 127.15 93.6 127.25 93.15 127.85 93 129 90.8 140.65 83.55 155.15
L 80.3 161.65
Q 79.75 162.85 80.4 163.1 80.7 163.25 81 163.05 84.2 162 86.65 158.9 88.2 156.9 90.25 152.75 93.45 146.3 95.05 141.7 97.15 135.45 97.3 130 97.35 129 97.2 128.25 98.6 128.3 100 127.45 101.25 126.65 102.7 124.7 103.7 123.35 104.2 122.3 105.15 120.15 105.1 117.6 105.05 116.7 104.9 115.9 105.4 115.75 105.95 115.35 107.4 114.3 107.65 112.45 107.7 112.2 107.7 110.65 107.5 108.1 107.15 106.95
L 105.25 103.15
Q 104.4 101.7 103.9 101.15 103.1 100.4 102.75 99.95 102.5 99.5 102.3 99.2
L 102.25 99.15
Q 102.1 98.85 102 98.55 102.2 98.45 102.55 98.3 103.85 97.85 105.4 98.4 106.85 98.9 107.95 100.05 109.25 101.4 110.9 105.25 112 108.1 112.25 109.15 112.55 110.35 112.7 112 112.75 112.55 112.85 113.4 112.7 113.8 112.7 114.45 112.7 114.95 112.7 115.9 112.65 116.85 112 118.3 111.15 120.25 111.05 120.75 110.6 122.4 111.4 123.25 111.25 126.55 111.95 132.9 113.25 146.25 114.05 159 113.6 160.7 113.65 161.8 113.65 162.25 113.85 162.45 114.05 162.6 114.25 162.55 114.25 162.75 114.25 163 114.25 163.5 114.5 163.55 114.8 163.6 115 163.05 115.45 161.15 115.85 159.7 115.9 159.75 115.95 159.8 116.8 155.85 117.05 154.55 118.6 151.3 119.45 149.6 123.15 142.25 124.4 134.75 125.75 126.6 124 119.25 123.55 117.1 122.5 116.25 121.6 115.5 120 115.5 120.6 115 121.15 114.3 122.25 112.85 123.4 110.6
L 123.9 109.55
Q 124.2 108.95 124.55 107.65
L 124.9 106.5
Q 125.1 105.65 125.25 104.9 125.95 105.95 126.95 106.55 128.55 107.55 130.65 107.55 132.6 107.5 134.4 106.5 137 105.2 139.95 101.2 141.3 99.5 142.45 97.6 144.35 94.75 145.3 92.65 148.8 85 147.2 74.85 147.5 74.9 147.8 74.95 151.15 75.3 153 74 155.15 72.55 155.7 68.8 155.9 67.75 156 66.6 156 65.8 156 65.05 155.65 58.2 151.45 49.65 147.5 41.5 142.05 34.25 137.3 27.95 132.85 24.75 126.75 20.4 120.65 20.7 120.3 20.7 120.1 20.8 119.8 20.3 119.6 19.85 117.25 15.9 114.25 14.25 111.9 13.1 108.7 13 107.05 12.9 104.55 13.15 109.25 9.95 116.35 4.45 117.35 8.2 118.3 9.8 119.05 11.05 120.15 12.4 121.5 14.1 122.25 14.85 123.55 16.1 124.9 16.65 125.45 16.85 126.6 17.25 127.55 17.55 128.1 18.05 128.45 18.4 129.15 19.05 130.15 19.6 131.2 18.75 131.7 18.35 132.4 16.95 133.95 19.05 134.25 21.65 134.3 22.5 134.5 22.85 134.7 23.15 135 23.2 135.35 23.25 135.5 23.05 135.75 22.8 135.6 22.3 135.1 19.35 134.25 16.45 134.05 16.05 133.95 15.75 134.05 15.35 134.1 14.85 134.15 13.7 133.7 13.05 133.2 12.3 131.45 11.45 129.85 10.6 129.55 9.55 129.45 9.15 129.5 8.35
L 130 4
Q 130.1 3 129.85 1.7 129.6 0.35 128.9 -0.15 128.35 -0.5 127.55 -0.3 127.2 -0.2 126.35 0.3 123.05 2.35 120.65 4.2 120.55 3.75 120.45 3.3 119.85 0.75 118.7 -0.05
M 126.6 3.55
Q 126.7 3.8 126.8 5.35 126.75 7.95 128.2 10.15 129.6 12.45 132.1 13.45 131.8 14.2 131.9 14.95
L 131.85 15
Q 131.2 15.3 130.7 16.05 130.2 16.85 129.75 16.95 129.5 16.95 129.05 16.8
L 126.95 15.95
Q 125.25 15.25 124.4 14.75 123.1 13.95 122.5 12.9 122.1 12.15 121.85 11.1 121.85 10.85 121.65 9.2 121.45 7.95 121.1 6.1 121.75 5.9 122.35 5.7
L 123.6 5.2
Q 125.05 4.6 126.6 3.55
M 83.65 98.85
Q 84.3 98.55 84.65 98.55 84.85 99.6 85.05 100.4 85 100.5 84.9 100.65 84.25 100.85 84.05 100.9 83.55 100.95 82.9 100.8
L 82.3 100.65
Q 82.15 100.55 81.6 100.15 81.4 100 81.15 99.9 82.1 99.55 83.65 98.85
M 35.9 20.7
Q 35.1 21.2 34.4 21.75 29.45 25.3 26 30.65 23.3 34.8 21.6 39.75
L 21.6 39.8
Q 20.95 40.05 20.1 41.05 19.75 41.4 19.4 41.8 19.55 40.9 19.55 39.85 19.5 38.65 19.2 36.6
L 15.55 13.05 24.2 16.15
Q 31.45 18.75 35.9 20.7
M 65.35 109.6
Q 68.05 109.8 69.75 109.7 69.45 110.85 69.25 111.85 67.6 110.75 65.35 109.6
M 63.35 122.4
Q 62.75 122.7 62.5 123.3 62.3 123.85 62.4 125.65 62.5 126.65 62.1 130.9 61.9 132.95 62.2 134.45 62.1 134.6 62 134.65 61.25 135.6 60.65 136.4 60.3 135.85 59.8 135.25 58.25 133.6 54.7 131.9 53.15 131.15 51.7 130.7 49.55 130.1 46.5 130.1 43.15 130.1 41.05 130.85 42.25 125.6 44.05 121.45 45.4 118.25 47.5 114.95 49.25 112.25 51 111.55 52.35 111.05 54.8 111.45 62.15 112.65 68.15 117.05 68.45 117.25 68.75 117.5 69.9 119 71.95 121.2 72.4 121.7 72.85 122.05 71.5 123.5 70.15 125.05 68.8 126.6 66.15 129.75 66 126.9 65.1 123.6 64.85 122.65 64.45 122.4 63.9 122.1 63.35 122.4
M 114.9 123.4
Q 114.9 123.1 114.85 122.85 115.25 122.4 115.55 121.9 116 121.2 116.35 120.4 117.65 120.25 119.8 119.9 121.15 126.9 120.05 133.8 119.7 135.85 118.7 139.95
L 117.35 145.65
Q 117.3 145 117.25 144.3 116.95 140.6 116.1 133.85 115.2 126.65 114.9 123.4
M 135.7 33.75
Q 139.5 38.7 140.85 40.7 143.35 44.4 146.5 50.5 149.05 55.55 150.1 59 151.3 63.05 150.95 66.6 150.9 67.25 150.75 67.8 150.4 69.35 149.55 69.65 149.15 69.85 148.55 69.7 147.85 69.45 147.5 69.35 146.35 69 145.25 69.1 144.7 68.65 144 68.6 143.2 68.6 142.55 69.25 141.95 69.85 141.75 70.65 141.5 71.75 141.9 73.9 143.2 81.4 141.6 88.05 139.8 95.5 134.8 100.4 132.3 102.8 130.1 102.55 129.15 102.45 127.8 101.7 124.25 99.85 123.15 98 122.9 98 122.8 98.25 122.75 98.55 122.8 98.8 122.85 99.05 122.95 99.3 122.9 99.3 122.85 99.3 122.25 99.45 122 99.9 121.7 100.4 121.7 101.3 121.7 104 121.6 104.5
L 120.65 107.35 119.95 108.5
Q 119.35 109.4 119.25 109.55 118.85 110.2 118.1 110.9
L 117.8 111.3
Q 117.5 106.25 114.15 100.15 113.05 98.1 112.3 97.25 111.15 95.85 109.2 94.65 108.1 93.95 107.05 93.6
L 107 93.3 106.1 93.3 105.85 91.9
Q 105.55 90 105.65 86.15 105.65 86.1 105.8 81.45 105.9 80.5 105.7 80.1 105.35 79.35 104.55 79.25 103.75 79.15 103.25 79.75 102.95 80.1 102.75 81 101.95 84.7 101.75 86.55 101.4517578125 90.17890625 102.1 93.55 101.877734375 93.648828125 101.65 93.75 100.5 94.35 99.75 95.4 98.5 94.65 97.3 94.35 95.35 93.95 92.7 94.7 90.1 95.45 88.3 96.75 87.7 97.2 87.05 97.9 86.8 97.35 86.6 96.9 86.1 96.2 85.55 96 84.85 95.8 83.3 96.4
L 79 98.2
Q 76.4 99.25 75.15 99.5 74.3 99.75 74.15 99.8 73.55 100.15 73.7 100.65 73.85 101.25 74.6 101.35 75.6 101.6 77.75 101
L 78.05 100.95
Q 78.35 101.25 78.85 101.6
L 80.05 102.4 80.35 102.75
Q 80.7 102.95 81.35 103.25 81.95 103.55 82.4 103.65
L 83.1 103.85
Q 83 104.15 82.8 104.5 80.05 110.55 80.45 114.65 79.7 115 78.75 115.85 77.15 117.4 75.55 119.2 75.15 118.7 74.75 118.15 73.9 117.2 73.3 116.55 73.3 116.15 73.25 115.85 73.35 115.5 73.45 115 73.9 112.8 74 109.75 74 108.05 73.4 107.35 73 106.95 72.4 106.8 72.25 106.35 71.85 106.1 71.2 105.7 69.55 105.8 60.2 106.55 51.1 105.1 48.05 104.65 46.05 103.85 44.25 103.15 42 101.55 39.85 100.1 38.45 98.5 37.7 97.5 37.3 97.1 37.1 96.95 36.9 96.8 37.35 96.2 37.75 95.6 38.65 94.3 36.65 88.95 36.25 89.35 36.05 90.3 35.75 91.55 35.7 91.75 35.45 92.3 34.95 93 33.1 95.6 31.85 96.85 31.35 97.35 30.1 98.35 28.9 99.25 28.35 99.8 27.55 100.65 27.3 100.75 26.75 101.1 25.85 101.25 25.1 101.5 25.15 101.85 25.15 102.25 25.7 102.3 25.75 102.3 27.05 102.45 29.1 102.55 30.05 102.25 31.1 101.95 32.2 101.2 32.6 100.9 33.05 100.65 33.45 101.15 34.1 101.7 35.25 102.65 37.8 104.3 40.55 105.95 42.5 106.7 43.7 107.2 45.4 107.65 43 109.45 40.7 113.65 39.15 116.6 37.9 119.8 37.5 119.35 36.95 118.7 36 117.6 35.4 116.45 35 115.5 34.7 115 34.3 114.1 33.9 113.6 33.45 113.15 33.25 112.85 33.15 112.75 33 112.15
L 32.35 110.4
Q 32 109.25 31.55 108.55 31.7 108.2 31.95 107.9 31.7 107.6 31.55 107.25 31.3 106.75 31.2 106.25 30.6 106.7 29.75 107.15 29.35 107.1 29 107.35 28.9 107.45 28.85 107.55 26.25 108.6 24.15 108.8 21.2 109 19.3 107.65 17.65 106.5 16.4 103.9 14.7 100.15 14.5 95 14.4 93.15 14.45 90.45 14.55 87.4 14.55 85.8 14.55 85.35 14.5 85 14.55 84.85 14.6 84.7 14.1 83.35 13.7 82.1 13.05 82.5 12.45 82.85 12.25 82.85 12.05 82.95 11.7 83.1 11.45 83.3 10.7 83.65 9.9 83.9 8.2 84.45 7.35 84 6.5 83.6 6.05 82.15 5.4 80.25 5.8 77.15 6.45 72.25 9.25 66.6
L 9.2 66.6
Q 10.75 63 13.15 59.15 16.65 53.8 18.4 51.1 18.8 50.35 19.35 49.7 19 51.8 18.8 54.05 18.2 62.3 21.15 66.55
L 21.15 66.6 21.2 66.6
Q 22 67.85 23.2 68.7 24.5 69.55 25.9 69.55 27.7 69.55 29.8 68.05 30.8 67.35 31.65 66.6 32.85 65.5 33.85 64.2 33.75 65.35 33.75 66.6 33.65 68.8 33.65 71.05 34.45 71 35.35 71.25 36.15 71.5 37.3 72.05 37.3 72 37.3 71.9 37.25 68.95 37.35 66.6 37.35 62.85 37.8 60.5 38 59.05 37.9 58.55 37.75 57.25 36.8 57 35.75 56.65 34.95 57.7 34.55 58.25 34.35 59.7 34.15 60.65 34.1 61.7 32.4 64.1 30.05 65.9 29.45 66.35 28.9 66.6
L 28.95 66.6
Q 28.55 66.75 28.15 66.75 27.65 66.75 27.2 66.6
L 27.15 66.6
Q 25.95 66.1 25.15 64.45 24.1 62.4 24.05 59.7 23.85 57.7 24.15 54.75 24.7 49.45 25.95 44.95 27.55 39.15 30.15 34.7 32.9 30.05 36.8 26.7 41 23.15 45.9 21.75 50.2 20.55 56.8 20.65 60.6 20.65 62.8 21.15 64.45 21.6 65.05 21.55 66.4 21.45 66.8 20.55 67.65 20.55 67.65 20 67.6 19.8 67.45 19.55 67.2 19.35 67.1 19.2 67 19 66.85 18.2 66.65 17.35 65.95 16.3 65.8 16.2 64.6 14.7 62.8 12.65 63.1 11 63.5 9.3 65.95 8.55 69.75 7.4 74.15 9 77.4 10.1 81.5 13.1 83.4 14.35 84.25 15.65 85.05 16.95 85.55 17.2 85.9 17.35 86.3 17.35 86.7 17.5 87.3 17.6 88.5 17.75 91.55 17.55 92.3 17.45 92.95 17.4 92.95 17.45 93 17.55 93.3 18.5 94.5 18.7 95.2 18.85 96.45 18.55 102.1 17.5 107.65 17.25 110.45 17.05 112 17.75 114.05 18.6 115.65 21.45 117.75 25.05 118.6 29.9 119.2 33.6 119.2 38.85 119.15 41.95 119.05 44.95 118.6 54.5 116.75 62.85 116.85 62.85 116.95 62.85 118.35 62.65 119.65 63.25 120.3 63.55 120.95 64.1 123.15 54.2 123.55 44.95 123.75 39.6 123.35 34.4 122.8 27.95 121.2 23.4 122.95 24.25 125.85 25.4 129.2 27 131.3 28.8 132.85 30.1 135.7 33.75
M 83 30.8
Q 82.9 30.4 82.85 30 82.6 30.3 82.45 30.65 81.9 30.65 81.6 31.2 81.3 31.75 81.15 32.55 81.05 32.9 81.05 33.3 80.35 34.65 79.9 36.05 79.4 37.3 78.65 39.75 77.75 42.3 77.3 43.5 76.95 44.2 76.65 44.95 75.05 48.55 72.35 52.75 71.85 53.45 71.5 53.65 70.75 53.95 69.9 53.35 68.65 52.5 67.95 50 66.95 47.1 66.55 44.95 66.45 44.65 66.45 44.4 66.1 41.75 65.95 40.5 65.6 38.2 64.95 36.75 64.6 36.1 64.3 36
L 64.2 36
Q 64 35.35 63.8 34.85
L 61 46.9
Q 59.5 53.3 58.85 56.5 58.7 57.2 56.95 66.6 56.8 67.05 56.7 67.5 55.95 70.95 55.2 73.7 55.95 73.3 57.25 72.6 58.35 72.05 59.2 71.75 59.95 69.25 60.7 66.6
L 60.65 66.6
Q 61.5 62.65 62.3 58.5 63.6 51.9 64.2 46.9 64.45 48.4 64.95 49.9 65.9 53.05 67.15 54.5 68.05 55.55 69.2 56.1 70.4 56.7 71.6 56.6 73.75 56.35 76 53.35 77.478125 51.1779296875 80.8 43 80.7142578125 49.7375 82.85 54.3 84.35 57.35 86.5 58.6 87.65 59.2 88.6 59.15 90.35 59.1 92.6 56.65 92.3 62.15 92.8 65.25 93.05 67.35 93.9 68.6 94.5 69.4 95.45 70.05 96.1 70.4 96.45 70.1 96.6 69.95 96.6 69.5 96.65 68.15 96.5 66.25 96.3 64.1 96.2 63 95.7 56.65 97.6 47.55 97.95 46.1 97.85 45.2 97.65 43.75 96.55 43.4 95.95 43.2 95.25 43.45 94.6 43.75 94.25 44.3 93.95 44.75 93.75 45.55 93.65 46.05 93.5 46.95 93.15 49 91.35 51.85 89.05 55.55 88.6 56.55 83.35 48.35 83.5 38.7 83.5744140625 36.9533203125 83.6 35.85 83.7208984375 35.537890625 83.85 35.2
L 83.75 32.75
Q 83.65 31.2 83 30.8
M 110.8 68.95
Q 109.85 69.65 108.3 70.4
L 104.8 71.8
Q 101.85 72.95 99.9 73.55 99.35 73.55 98.75 73.55 97.85 73.5 96.85 73.45 95.15 73.35 93.85 73.1 92.5 72.9 91.6 72.5 90.7 72 90.35 71.65 89.6 70.55 89.15 70.1 89 69.9 88.85 69.85 88.2 69.25 87.2 69.15 86.6 69.1 86.05 69.2 85.5 69.3 85.05 69.6 84.15 70.2 83.8 71.3 83.4 72.35 83.6 73.45 84.05 75.6 86.15 76.85 87.6 77.85 90.2 78.4 92.3 78.75 95.25 78.75 96.25 78.75 97.45 78.7 97.95 78.7 98.45 78.65 103.15 78.4 106.3 77.5 106.35 77.5 106.45 77.45 106.5 77.45 106.55 77.45 110.05 76.6 113.25 74.9
L 115.8 73.55
Q 116.45 74.15 117.5 74.75
L 117.5 74.8
Q 117.9 75 118.35 75.2 119.1 75.6 119.9 75.75 121.35 76.05 122.75 75.4 124 74.85 124.8 73.5 125.75 71.7 125.05 69.7 124.9 69.15 124.4 68.5 123.7 67.45 121.9 66.7 121.75 66.65 121.7 66.6 121.2 66.4 120.8 66.3 120.4 65.6 119.8 65.05 118.85 64.2 117.7 64 116.6 63.8 115.5 64.2 114.4 64.6 113.75 65.5 113.4 66.1 113.1 66.6
L 113.15 66.6
Q 112.7 67.25 112.4 67.6 111.9 68.25 110.8 68.95
M 33.65 73.15
L 33.6 73.15
Q 32.1 73 31 73.85 30 74 28.95 74.45 26.35 75.45 25.3 77.4 24.25 79.2 24.55 81.25 24.75 82.6 25.65 83.8 26.55 84.95 27.8 85.55 29.05 86.2 30.45 86.15 31.95 86.1 33.15 85.4 33.6 85.2 34.7 84.25 35.2 83.8 35.6 83.45 37.1 84.05 38.85 84.45 40.8 84.85 43.1 84.95 47.45 85.15 51.7 84 52.2 83.85 52.6 83.7 54.3 83.2 55.85 82.6 58.65 81.3 61.15 79.45 63 78.1 63.55 76.75 63.9 75.8 63.75 74.9 63.55 73.95 62.85 73.4 61.65 72.6 59.95 73.35 59.5 73.55 58.5 74.3 58.05 74.65 57.5 75.05 55.95 76.25 54.25 77 52.85 77.65 51.35 78.05 48 79 44.55 78.6 41.45 78.3 39.4 76.85 38.85 76.5 38 75.75 37.7 75.5 37.4 75.25 36.85 74.75 36.7 74.65 35.15 73.3 33.65 73.15 Z"/>
</g>
</defs>

<g transform="matrix( 1, 0, 0, 1, 0,0) ">
<use xlink:href="#Layer0_0_FILL"/>
</g>
</svg>
