
<svg xmlns="http://www.w3.org/2000/svg" version="1.1" xmlns:xlink="http://www.w3.org/1999/xlink" preserveAspectRatio="none" x="0px" y="0px" width="300px" height="300px" viewBox="0 0 300 300">
<defs>
<g id="johnny_0_Layer1_0_FILL">
<path fill="#660033" stroke="none" d="
M 182.2 49.05
Q 180.4 33.5 171.6 21.35 165.15 12.5 156.8 7.7 150.45 4.05 141.4 2 125.3 -1.65 108.6 1.35 91.9 4.3 78 13.25 73.6 16.15 71.15 18.75 70.75 19.15 70.45 19.65 59.8 18.05 48.85 17.15 40.95 16.5 35.95 16.65 28.85 16.85 23.3 18.6 16.85 20.6 12.1 24.9 6.95 29.5 5.35 35.5 3.85 41.15 5.7 47.55 7.35 53.25 11.3 58.65 17.45 67.2 28.15 74.25 35.95 79.4 48.75 85.2 49.95 85.7 50.95 86.05 44.05 94.3 29.65 99.8 27.25 100.7 17.55 104 10.05 106.5 5.55 108.55 0.9 110.65 0.15 113.5 -0.2 115 0.4 116.55 0.9 118 2.1 119.2 3.55 120.6 7.45 122.35 13.85 125.05 22.1 127.75 27.05 129.4 37.05 132.4 32.65 135.65 32.45 139.25 32.3 142.45 35.2 145 37.35 146.8 41.1 147.85 46.85 149.45 52.85 149 54.3 148.9 55.75 148.7 55.95 149 56.3 149.15 56.8 149.45 57.4 149.4 57.05 150.75 57.35 152.85 57.55 154.95 72.25 155.3 86.95 155.65 114.3 156.2 130.8 156.55 163.5 155.45 165.8 155.35 167 154.85 167.75 155.65 168.75 155.8 169.7 155.9 170.65 155.25 171.5 154.65 172 153.6 172.6 152.3 172.9 149.25
L 173.3 144.25
Q 174.3 144.35 175.6 144.4 179.5 144.55 185 144.35 190.3 144.15 192.6 142.35 194.5 140.95 195.45 138.05 196 136.5 196.65 132.75 197.05 130.4 198 129.65 198.45 129.3 199.95 128.85 209.35 126.3 217.6 120.75 225.8 115.15 231.65 107.35 235.3 102.45 233.8 99.25 233 97.6 230.9 96.6 229.45 95.95 226.85 95.4 206.15 91.05 186.6 82.35 181.65 80.2 179.95 77.7 179.4 76.75 179 76.15 183.8 63.3 182.2 49.05 Z"/>
</g>

<g id="johnny_0_Layer0_0_FILL">
<path fill="#660033" stroke="none" d="
M 182.2 49.05
Q 180.4 33.5 171.6 21.35 165.15 12.5 156.8 7.7 150.45 4.05 141.4 2 125.3 -1.65 108.6 1.35 91.9 4.3 78 13.25 73.6 16.15 71.15 18.75 70.75 19.15 70.45 19.65 59.8 18.05 48.85 17.15 40.95 16.5 35.95 16.65 28.85 16.85 23.3 18.6 16.85 20.6 12.1 24.9 6.95 29.5 5.35 35.5 3.85 41.15 5.7 47.55 7.35 53.25 11.3 58.65 17.45 67.2 28.15 74.25 35.95 79.4 48.75 85.2 49.95 85.7 50.95 86.05 44.05 94.3 29.65 99.8 27.25 100.7 17.55 104 10.05 106.5 5.55 108.55 0.9 110.65 0.15 113.5 -0.2 115 0.4 116.55 0.9 118 2.1 119.2 3.55 120.6 7.45 122.35 13.85 125.05 22.1 127.75 27.05 129.4 37.05 132.4 32.65 135.65 32.45 139.25 32.3 142.45 35.2 145 37.35 146.8 41.1 147.85 46.85 149.45 52.85 149 54.3 148.9 55.75 148.7 55.95 149 56.3 149.15 56.8 149.45 57.4 149.4 57.05 150.75 57.35 152.85 57.55 154.95 72.25 155.3 86.95 155.65 114.3 156.2 130.8 156.55 163.5 155.45 165.8 155.35 167 154.85 167.75 155.65 168.75 155.8 169.7 155.9 170.65 155.25 171.5 154.65 172 153.6 172.6 152.3 172.9 149.25
L 173.3 144.25
Q 174.3 144.35 175.6 144.4 179.5 144.55 185 144.35 190.3 144.15 192.6 142.35 194.5 140.95 195.45 138.05 196 136.5 196.65 132.75 197.05 130.4 198 129.65 198.45 129.3 199.95 128.85 209.35 126.3 217.6 120.75 225.8 115.15 231.65 107.35 235.3 102.45 233.8 99.25 233 97.6 230.9 96.6 229.45 95.95 226.85 95.4 206.15 91.05 186.6 82.35 181.65 80.2 179.95 77.7 179.4 76.75 179 76.15 183.8 63.3 182.2 49.05
M 173.25 51.6
Q 174 59.7 172.4 67.4 171.65 65.2 170.75 63.3 167.35 56.05 161.1 50.35 156.3 46 150.45 43.1 150.4 42.7 150.15 42.3 149.7 41.7 148.5 41.2 115.2 27 77.75 20.75 90.3 13.1 105.25 10.2 122.05 6.95 138.3 10.45 146.45 12.15 152.1 15.4 161.05 20.55 166.85 30.95 172.2 40.45 173.25 51.6
M 166.75 74.45
Q 168 79.65 168.45 86.55 169.3 99 167.85 117.55 167.1 127.75 165.55 148 164.4 147.75 137.65 150.85 110.9 153.9 85.25 149.8 70.7 147.4 64.75 145.15 64.6 144.9 64.15 144.7 63.6 144.4 63.1 144.15 63.05 142.4 62.9 140.25 61.65 120.9 61.2 110.35 60.7 99.75 61.1 95.05 61.45 89.85 63.35 80.9 65.2 72.3 67.25 68.1 71.5 59.35 80.75 53.95 87.9 49.9 98.85 47.75 110.2 45.5 121.6 45.6 134.55 45.75 143.75 49.05 149.5 51.15 154.1 54.55 159.2 58.35 162.3 63.35 165.2 68.1 166.75 74.45
M 175.6 83
Q 176.75 84.45 178.45 85.75 181.05 87.7 185.8 89.75 203.95 97.6 222.6 103.55 220.3 106.75 214.8 112.35 212.55 114.65 211.35 115.75 209.3 117.5 207.45 118.55 205.35 119.7 202.15 120.65 198.45 121.6 196.6 122.1 192.15 123.3 190.75 125.45 190 126.7 189.6 129.2
L 188.9 133.35
Q 188.6 135.1 188.05 135.75 187.05 136.85 184.3 136.85
L 176.95 136.9
Q 175.15 136.95 173.9 137
L 174.6 127.85
Q 175.85 113.45 176.1 105.8 176.55 93.5 175.65 83.6 175.6 83.3 175.6 83
M 118.15 37
Q 108.3 37.2 98.85 38.85 85.3 41 76.4 45.95 64.75 52.45 59.7 63.2 57.5 67.85 55.5 76.85 55.2 78.15 54.95 79.4 54.1 78.85 52.95 78.35 40.85 72.85 33.3 67.4 23.3 60.2 18.35 51.35 15.9 47.05 15.45 42.9 14.9 38.05 17.25 34.7 19.25 31.8 24 29.8 29.4 27.55 36.5 27 41.65 26.6 49.45 27.05 59.75 27.65 72.25 29.25 80.7 30.35 94.9 32.55 111.2 35.05 119.8 37 118.95 37 118.15 37
M 46.3 127.35
Q 45.35 126.35 43.55 126.05 42.9 125.95 40.25 125.9 36.95 125.75 33 124.5 30.6 123.7 26.05 121.75
L 13 115.85
Q 17.2 113.7 24.85 110.8 33.45 107.5 36.8 105.95 47.2 101.1 52.7 94.55 52.2 101.25 52.95 113.55
L 54.55 142
Q 52.45 141.85 48.65 141.55 43.45 141.2 40.5 139.55 41.3 138.5 43.1 136.85 45 135.15 45.75 134.2 47 132.6 47.25 130.7 47.55 128.6 46.3 127.35
M 157.7 71.95
Q 155.65 71 153.35 71.4 151 71.85 149.45 73.5 147.95 75.1 147.65 77.4 147.35 79.7 148.35 81.65 149.4 83.6 151.45 84.65 153.55 85.7 155.7 85.35 157.9 85 159.6 83.3 161.25 81.6 161.6 79.35 161.95 77.15 160.8 75.05 159.7 72.95 157.7 71.95
M 85.6 78.85
Q 85.15 76.75 83.6 75.35 81.25 73.2 78 73.7 74.8 74.25 73.25 77.1 72.3 78.9 72.4 80.9 72.55 83.4 73.85 85.05 75.25 86.9 77.75 87.35 80.15 87.85 82.2 86.75 84.25 85.65 85.2 83.35 86.15 81.1 85.6 78.85
M 92.2 93.35
Q 90.3 94 89.6 95.7 88.45 98.6 91.15 102.15 95.95 108.75 106 110.85 114.8 112.65 123.75 110.15 132.75 107.6 139.25 101.5 141.35 99.6 141.85 98 142.25 96.8 142 95.55 141.75 94.25 140.95 93.35 140.1 92.4 138.9 92.05 137.65 91.7 136.45 92.1 135.4 92.45 134.4 93.4 133.95 93.8 132.7 95.3 128.05 100.7 122.25 102.9 115.3 105.45 106.35 103.5 102.45 102.65 100.85 100.95 100.05 100.1 98.5 97 97.2 94.4 95.7 93.55 94.1 92.65 92.2 93.35 Z"/>

<path fill="#996699" stroke="none" d="
M 43.55 126.05
Q 45.35 126.35 46.3 127.35 47.55 128.6 47.25 130.7 47 132.6 45.75 134.2 45 135.15 43.1 136.85 41.3 138.5 40.5 139.55 43.45 141.2 48.65 141.55 52.45 141.85 54.55 142
L 52.95 113.55
Q 52.2 101.25 52.7 94.55 47.2 101.1 36.8 105.95 33.45 107.5 24.85 110.8 17.2 113.7 13 115.85
L 26.05 121.75
Q 30.6 123.7 33 124.5 36.95 125.75 40.25 125.9 42.9 125.95 43.55 126.05
M 178.45 85.75
Q 176.75 84.45 175.6 83 175.6 83.3 175.65 83.6 176.55 93.5 176.1 105.8 175.85 113.45 174.6 127.85
L 173.9 137
Q 175.15 136.95 176.95 136.9
L 184.3 136.85
Q 187.05 136.85 188.05 135.75 188.6 135.1 188.9 133.35
L 189.6 129.2
Q 190 126.7 190.75 125.45 192.15 123.3 196.6 122.1 198.45 121.6 202.15 120.65 205.35 119.7 207.45 118.55 209.3 117.5 211.35 115.75 212.55 114.65 214.8 112.35 220.3 106.75 222.6 103.55 203.95 97.6 185.8 89.75 181.05 87.7 178.45 85.75 Z"/>

<path fill="#666699" stroke="none" d="
M 98.85 38.85
Q 108.3 37.2 118.15 37 118.95 37 119.8 37 111.2 35.05 94.9 32.55 80.7 30.35 72.25 29.25 59.75 27.65 49.45 27.05 41.65 26.6 36.5 27 29.4 27.55 24 29.8 19.25 31.8 17.25 34.7 14.9 38.05 15.45 42.9 15.9 47.05 18.35 51.35 23.3 60.2 33.3 67.4 40.85 72.85 52.95 78.35 54.1 78.85 54.95 79.4 55.2 78.15 55.5 76.85 57.5 67.85 59.7 63.2 64.75 52.45 76.4 45.95 85.3 41 98.85 38.85 Z"/>

<path fill="#FFFF99" stroke="none" d="
M 168.45 86.55
Q 168 79.65 166.75 74.45 165.2 68.1 162.3 63.35 159.2 58.35 154.1 54.55 149.5 51.15 143.75 49.05 134.55 45.75 121.6 45.6 110.2 45.5 98.85 47.75 87.9 49.9 80.75 53.95 71.5 59.35 67.25 68.1 65.2 72.3 63.35 80.9 61.45 89.85 61.1 95.05 60.7 99.75 61.2 110.35 61.65 120.9 62.9 140.25 63.05 142.4 63.1 144.15 63.6 144.4 64.15 144.7 64.6 144.9 64.75 145.15 70.7 147.4 85.25 149.8 110.9 153.9 137.65 150.85 164.4 147.75 165.55 148 167.1 127.75 167.85 117.55 169.3 99 168.45 86.55
M 89.6 95.7
Q 90.3 94 92.2 93.35 94.1 92.65 95.7 93.55 97.2 94.4 98.5 97 100.05 100.1 100.85 100.95 102.45 102.65 106.35 103.5 115.3 105.45 122.25 102.9 128.05 100.7 132.7 95.3 133.95 93.8 134.4 93.4 135.4 92.45 136.45 92.1 137.65 91.7 138.9 92.05 140.1 92.4 140.95 93.35 141.75 94.25 142 95.55 142.25 96.8 141.85 98 141.35 99.6 139.25 101.5 132.75 107.6 123.75 110.15 114.8 112.65 106 110.85 95.95 108.75 91.15 102.15 88.45 98.6 89.6 95.7
M 83.6 75.35
Q 85.15 76.75 85.6 78.85 86.15 81.1 85.2 83.35 84.25 85.65 82.2 86.75 80.15 87.85 77.75 87.35 75.25 86.9 73.85 85.05 72.55 83.4 72.4 80.9 72.3 78.9 73.25 77.1 74.8 74.25 78 73.7 81.25 73.2 83.6 75.35
M 153.35 71.4
Q 155.65 71 157.7 71.95 159.7 72.95 160.8 75.05 161.95 77.15 161.6 79.35 161.25 81.6 159.6 83.3 157.9 85 155.7 85.35 153.55 85.7 151.45 84.65 149.4 83.6 148.35 81.65 147.35 79.7 147.65 77.4 147.95 75.1 149.45 73.5 151 71.85 153.35 71.4 Z"/>

<path fill="#66CC99" stroke="none" d="
M 172.4 67.4
Q 174 59.7 173.25 51.6 172.2 40.45 166.85 30.95 161.05 20.55 152.1 15.4 146.45 12.15 138.3 10.45 122.05 6.95 105.25 10.2 90.3 13.1 77.75 20.75 115.2 27 148.5 41.2 149.7 41.7 150.15 42.3 150.4 42.7 150.45 43.1 156.3 46 161.1 50.35 167.35 56.05 170.75 63.3 171.65 65.2 172.4 67.4 Z"/>
</g>
</defs>

<g transform="matrix( 1, 0, 0, 1, 36.9,106.7) ">
<g transform="matrix( 1, 0, 0, 1, 0,0) ">
<use xlink:href="#johnny_0_Layer1_0_FILL"/>
</g>

<g transform="matrix( 1, 0, 0, 1, 0,0) ">
<use xlink:href="#johnny_0_Layer0_0_FILL"/>
</g>
</g>
</svg>
