
<svg xmlns="http://www.w3.org/2000/svg" version="1.1" xmlns:xlink="http://www.w3.org/1999/xlink" preserveAspectRatio="none" x="0px" y="0px" width="150px" height="150px" viewBox="0 0 150 150">
<defs>
<g id="Layer0_0_FILL">
<path fill="#FFFFFF" stroke="none" d="
M 96.55 123.05
Q 95.3 122.45 93.4 123 92.25 123.25 91.65 123.75 90.95 124.3 90.65 125.2 90.3 126.1 90.5 126.95 90.9 128.9 92.75 129.55 94.4 130.25 96.2 129.3 98.05 128.25 98.3 126.25 98.4 125.25 97.9 124.35 97.4 123.45 96.55 123.05
M 69.15 134.85
L 68.6 134.15
Q 68.25 133.7 67.95 133.5 66.85 132.65 65.6 133.25 64.35 133.9 64.35 135.25 64.35 136.1 65 137.1 66.65 139.6 69.95 140.7 72.25 141.45 76.15 141.45 78.5 141.35 79.6 141.05 80.9 140.7 82.75 139.7 85.05 138.5 86.45 137.1 87.45 136.1 87.75 135.2 88.2 133.95 87.7 132.95 87.3 132.15 86.35 131.85 85.4 131.55 84.6 132 84 132.35 82.75 134.05 81.3 135.85 78.65 136.6 76.4 137.2 73.8 136.85 70.6 136.45 69.15 134.85
M 58.15 129.25
Q 58.95 129.55 59.8 129.45 61.2 129.2 62.75 127.75 63.45 127.05 63.7 126.4 64.05 125.55 63.7 124.65 63.4 123.75 62.65 123.2 61.2 122.1 59.15 122.7 57.95 123.05 57.25 124 56.8 124.75 56.7 126.25 56.6 127.45 56.95 128.1 57.25 128.85 58.15 129.25
M 58.35 97.85
Q 49 96.15 40.75 97.1 31.4 98.2 24.4 102.65 20.95 104.9 20.7 107.3 20.55 109 21.8 110.65 22.9 112.05 24.75 113 27.45 114.4 31.2 115.05 33.45 115.4 38.05 115.7 43.35 116.05 48.05 116.35 35.15 124.15 20.3 126.85 17.6 127.35 16.6 127.85 14.5 128.85 14.1 130.6 13.55 132.95 16.5 135.8 19.8 138.9 24.65 141.4 28.35 143.3 33.85 145.25
L 30.75 150.4
Q 28.85 153.45 29.75 155.15 30.5 156.65 33.45 157.05 36.5 157.45 41.6 157.35 45.4 157.25 47.45 156.8 47.5 156.85 47.55 156.9 48.3 157.55 49.25 157.6 50.15 157.65 51 157.15 51.8 156.6 52.1 155.75 52.4 155 52.2 153 50.25 139.65 51.75 123.65 52.15 119.4 53.1 117.25 53.25 116.95 53.35 116.65 65.95 117.45 73.65 117.9 82.3 118.45 86.7 118.4 93.95 118.25 99.5 116.75 100.1 116.6 100.6 116.4 101 117.95 101.85 120.7 102.3 122.75 102.5 126.95 103.05 140.55 101.7 153.75 101.5 156.45 102.3 157.5 102.9 158.3 103.95 158.45 105.05 158.6 105.85 158 106.8 157.3 107.25 155.35 108.35 155.55 109.9 155.35 111.5 155.1 113.5 154.5 115.3 154 116.15 153.45 117.55 152.55 117.7 151.2 117.8 150.3 117.25 149.05
L 116.2 146.9
Q 116.4 146.8 116.6 146.7 123.9 143.45 128 140.8 129.8 139.7 134.3 136.4 136 135.05 136.4 134.45 137.4 133.1 136.95 131.75 136.6 130.85 135.55 130.25 134.85 129.85 133.45 129.4 115.9 124.2 105.65 114.85 105.45 114.7 105.3 114.55 105.35 113.75 105.1 112.7 103.5 105.9 97.65 100.85 92.45 96.35 85.1 94.5 78.7 92.9 72.1 93.55 65.4 94.25 59.65 97.25 59.05 97.6 58.6 97.9 58.45 97.85 58.35 97.85
M 75.3 102.4
Q 69.95 100.65 65.5 99.5 71.15 97.55 77.1 97.8 85.7 98.1 92.75 102.85 97.9 106.35 99.6 110.75 98.35 109.95 96.7 109.3 95.6 108.9 92 107.8 91.7 107.7 75.3 102.4
M 62.95 105.15
Q 67.9 106.3 77.5 109.3 87.15 112.3 92 113.45 85.9 114.7 76.1 113.95 62.45 112.9 60 112.9 57.25 112.95 55.85 112.95 53.4 113 51.7 112.85 50 112.7 47.1 112.15 43.8 111.45 42.55 111.3 37.15 110.85 34.5 110.55 29.85 110 27 108.35 29.15 106.45 33.15 105.1 45.5 100.95 62.95 105.15
M 46.25 122.85
Q 46.7 122.5 47.25 122.1 46.8 124.55 46.45 129.55 45.75 141.05 46.1 146.8 46.45 150.9 46.35 152.45 46.35 152.5 46.35 152.55
L 34.5 152.55
Q 35.7 149.8 37.65 147.3 39.45 145.05 38.75 143.85 38.5 143.45 37.95 143.15 37.3 142.85 36.95 142.65 36.55 142.45 35.1 141.35 33.8 140.4 31.75 139.45 29.4 138.4 28.2 137.85 23.9 135.85 22.3 133.05 29.35 130.75 36.25 127.95 42.8 125.3 46.25 122.85
M 129.1 132.75
Q 126.8 135.7 122.25 137.7 120.9 138.35 118.3 139.3 115.5 140.3 114.3 140.85 112.15 141.75 111.15 143 110.6 143.8 110.5 144.65 110.1 145.45 110.2 146.5 110.4 147.55 111.05 148.7 111 148.85 110.55 149.1 109.05 149.25 108.3 149.4 108 149.45 107.7 149.6 107.95 141.15 107.85 136.5 107.75 129.25 106.95 123.5 106.75 122.2 106.5 121.05 107.3 121.65 108.25 122.3 117.9 128.9 129.1 132.75 Z"/>
</g>
</defs>

<g transform="matrix( 1, 0, 0, 1, 0,0) ">
<use xlink:href="#Layer0_0_FILL"/>
</g>
</svg>
