
<svg xmlns="http://www.w3.org/2000/svg" version="1.1" xmlns:xlink="http://www.w3.org/1999/xlink" preserveAspectRatio="none" x="0px" y="0px" width="300px" height="300px" viewBox="0 0 300 300">
<defs>
<g id="mae_0_Layer3_0_FILL">
<path fill="#E7F7FF" stroke="none" d="
M 243.75 29.4
Q 245.9 24.5 243.75 19.8 242.2 16.3 238.75 14.85 234.25 13.1 229.5 14.15 221.15 15.9 214 20.7 206.55 25.7 200.65 32.3 197.4 35.9 194.25 39.6 188.65 46.25 183.35 53.05 171.15 45.85 157.55 42.25 147.1 39.6 136.25 38.9 123.9 38.2 111.75 39.9 99.6 41.65 88.15 46.25 82.55 48.6 77.2 51.55 71.8 54.4 66.65 57.95 63.55 53.3 60 48.95 56.45 44.55 52.65 40.4 45.1 32 34.95 27.05 28.9 24.05 22.45 24.35 21.35 24.65 20.35 25.2 15.45 27.9 15.85 33.85 16.1 37.15 17 40.1 19.8 49 26 56.2 31.45 62.55 38.25 67.9 39.9 69.25 41.6 70.5 44.6 72.65 47.65 74.9 41 82.4 35.75 90.95 30.7 99.2 27.1 108.35 24.4 115.1 22.8 122.3 20.6 132.05 20.1 142.2 18.95 166.55 28.25 188.95 35.45 206.3 48.3 220.1 57 229.4 67.95 235.6 79.25 241.95 91.95 244.4 101.25 246.35 110.75 246.4 121.15 246.45 131.55 245.15 143.95 243.5 156.2 240.5 162.95 238.9 169.35 237.25 175.25 235.65 181.1 233.8 181.35 234.3 181.65 234.85 183.6 238.2 187.25 239.9 191.15 241.8 194.95 239.5 197.9 237.65 198.55 234.3 198.75 233.2 198.85 231.95 199 229.55 199.2 227.2 206.05 224.3 212.35 220.5 219.9 215.95 224.8 208.55 229.55 201.4 231.9 193.35 234.25 185.45 235.45 177.45 236.5 170.5 236.95 163.35 237.45 155.3 237.45 147.35 237.6 136.95 235.7 126.75 232.95 111.9 226.35 98.6 223 91.9 218.55 85.8 214 79.5 208.75 73.75 217.55 65.65 225 56.35 233.1 46.3 240.35 35.6 242.3 32.75 243.75 29.4 Z"/>
</g>

<g id="mae_0_Layer2_0_FILL">
<path fill="#666699" stroke="none" d="
M 168.65 191.6
L 166.75 190
Q 165.1 188.85 163.3 188 161.45 187.05 159.45 186.45 155.3 186.75 151.2 187.1 140.2 188.2 129 188.25 125.7 194.7 120.4 199.45 118.65 201 116.5 201.25 115.4 201.2 114.45 200.55 110.6 197.85 109.45 193.3 108.5 189.6 108.3 186
L 92.8 181.3 90.15 183.2 90.1 183.75
Q 90.45 184.35 90.85 184.95 92.3 187.35 92.35 190.1 92.35 192.2 91.5 194 91.05 194.9 90.7 195.85
L 91 196.4
Q 92.3 196.65 93.6 196.95 98.5 196.95 101.95 200.25 103.4 201.7 103.95 203.55
L 102.85 208.5 95.4 214.45
Q 95.85 216.8 96.25 219.15 96.55 220.8 96.45 222.4 96.4 224 96.05 225.55
L 90.15 225.55
Q 92.2966796875 232.353515625 88.35 229.9 87.1810546875 229.20234375 86.15 228.45 84.96328125 228.98359375 83.6 229.25
L 82.85 228.85
Q 80.2 229.8 78.9 232.55 78.5865234375 233.19765625 78.2 233.8 77.4986328125 238.0470703125 77.35 238.05
L 71.3 243
Q 74.4 247.9 79.55 251.15 86.9 255.85 95.15 258.1 104.55 260.85 114.25 260.6 115.924609375 260.3853515625 117.3 259.55 118.012890625 260.304296875 118.9 260.6 120 261 121.15 260.8 122.35 260.6 123.2 259.8 123.8 259.25 124.4 258.15 125 256.95 125.35 256.35 125.85 255.5 126.85 254.3 128.4 252.5 128.5 252.35 131.2 249 132.9 243.95 134 240.6 135.2 234.55 135.6654296875 232.2232421875 136.1 229.9 136.3380859375 229.7314453125 136.6 229.55 138.85 228.15 141.3 227.1 148.4 223.95 156.1 224.45 159.55 224.65 162.85 225.55 164.35 228.55 165.7 231.65 166.15 232.65 166.5 233.7 167.1 235.55 169.1 235.95 170.85 236.45 172.75 236.4 177.25 236.3 180.2 232.95 181.65 231.3 181.25 229.35 180.5 225.9 177.45 224.8 175.7 224.25 174 224.6
L 169.4 217.85 169.95 217.3
Q 169.2 212.45 168.8 207.45 168.2 199.55 168.65 191.6
M 176.1 164.55
Q 178.2 163.8 180 162.4 186.9 157.1 191 149.2 192.6 146.05 191.65 142.55
L 151.4 143.6
Q 150.2 153.75 156.1 162.05 156.9 163.2 158 163.7 166.95 167.45 176.1 164.55
M 72.4 193.15
L 77.35 186.7
Q 78.5 185.6 79.7 184.55 80.85 183.55 82.1 182.7 84.6 181 87.15 179.45
L 87 178.4 75 171.5 71.15 193.05 72.4 193.15
M 26 145.65
L 24.65 145.7
Q 24 157.25 25.55 168.55
L 25.25 168.95
Q 25.85 171.9 26.5 174.85 26.85 176.3 27 177.75 27.55 183.05 28 188.4 28.4 193.2 29.25 197.95 29.6 199.9 30.6 201.6 35.85 210.3 45.8 212.8
L 47.4 214.4 48 214.45 55.4 207.4 55.35 206.8
Q 52 203.15 49.1 199.15 47.7 197.2 46.8 195.05 41.4 181.6 40 167.05 39.35 167.15 38.75 167.3 38 167.25 37.35 167.05 31.2 165.25 29.4 159
L 26 145.65
M 63.85 119.05
Q 63.3 120.55 63.25 122.2 62.95 132.65 68.25 142 71.55 147.75 78.2 149.2 87.5 151.3 94.15 144.55 96.85 141.75 98.8 138.15 99.45 136.95 100.2 135.8 100.9 134.6 100.2 133.5 96.6 132.2 93.05 130.95 86.3 128.4 79.6 125.8 71.8 122.8 64.55 118.9 64.4 118.85 64.25 118.85 63.9 118.85 63.85 119.05
M 215.05 147.9
L 213.75 148.3
Q 214.15 151.4 214.35 154.5 214.85 163 215.2 171.55 215.35 175.45 214.8 179.35 214.05 184.4 212.15 189.2 211.5 190.85 210.6 192.35 209.45 194.25 207.3 194.95
L 202.5 193.85 203.05 212.25 203.35 212.7 202.9 220.55
Q 203.2 220.9 203.55 221.2 203.8 221.5 204.2 221.75 204.5 222.05 204.9 222.3 207.4 224.25 210.75 224.2
L 211.55 224.85
Q 214.45 224.5 217.35 224.15 221.9 223.4 226.2 221.75 231 220.1 234.85 216.6
L 236.25 213.35 236.9 213
Q 237.75 211.6 237.8 209.8 237.95 202.55 235.65 195.55 234.7 192.65 234.3 189.75 232.65 177.35 233.65 164.65
L 233.35 164.25 232.45 164.1 231.3 165.05 230.1 165.65
Q 229 165.15 228 164.6 223.9 162.25 221.05 158.35 219.85 156.7 219.1 154.9 217.45 151.15 215.05 147.9 Z"/>

<path fill="#E0AF9D" stroke="none" d="
M 85.8 193.65
Q 88.05 190.45 85.7 187.55 82.8 188.45 80.5 190.65 75.75 195 72.35 200.35 71.7 201.35 71.5 202.5 71.05 205 69.05 205.95
L 67.25 204.4 66.25 204.5
Q 65.5 205.4 64.65 206.25 63.8 207 63.05 207.85 61.55 209.5 60.35 211.4 57.2 216.5 55 222.3 54.6 223.25 54.05 224.2
L 52.7 224 53.55 218.35 52.6 218
Q 45.85 224.15 47.95 232.65 48.5 234.85 50.1 236.35 54.15 240.3 59.95 240.8 64.3 241.3 68.55 240.3 73.35 239.15 76.95 235.35 77.6484375 234.6224609375 78.2 233.8 78.5865234375 233.19765625 78.9 232.55 80.2 229.8 82.85 228.85
L 83.6 229.25
Q 84.96328125 228.98359375 86.15 228.45 88.4509765625 227.4685546875 90.15 225.55 90.4068359375 225.2607421875 90.65 224.95 91.25 224.15 91.45 223.25 92.25 219.45 90.8 215.85 90.6 215.3 90.6 214.8 90.7 212.15 93.15 210.95 95.65 209.65 97.85 207.9 98.8 207.1 99.5 206.1 99.95 205.4 99.85 204.55 99.8 203.75 99.15 203.3 94.9 200.15 89.45 200.45 87.75 200.65 86.1 200.9 85.35 200.75 84.75 200.35 84.2 200.15 84.15 199.6 83.9 196.4 85.8 193.65
M 135.15 244.8
Q 135.1 245.2 134.9 245.5 134.1 246.95 133.05 248.3 130.65 251.35 128 254.05 124.45 257.65 124.9 262.75 125.1498046875 265.9546875 127.95 268.9 130.75 271.83515625 137.2 272.15 143.65 272.5146484375 149.6 273.45 155.5998046875 274.444921875 158.2 270.9 158.7 270.3 159.05 269.65 159.75 268.15 160.35 266.65 161.35 264.25 161.35 261.8 161.35 255.35 157.9 249.9
L 161.85 230.6 161.3 229.95 141.85 227.95
Q 141.45 228.45 141.1 229.05 136.9 236.5 135.15 244.8
M 111.65 187.2
Q 111.65 187.4 111.7 187.6 112.6 191.05 113.7 194.5 114.35 196.5 116.3 197.95 121.5 194.65 125.3 189.25
L 125.1 188.15 112.15 186.5
Q 111.9 186.6 111.75 186.75 111.65 186.95 111.65 187.2
M 176.1 170.55
L 175.1 169 169.65 169.15
Q 164.6 169.3 159.45 168.2 152.8 166.95 146.8 163.75 142.65 161.55 139.15 158.45 131.9 151.95 129.9 142.65 129.65 141.45 129.25 140.25 129.1 139.8 128.65 139.55 125.6 138.75 122.55 138.15 114 136.4 105.9 134.05 105.15 133.85 104.5 134.2 104.2 134.5 104.05 134.85 103.2 136.45 102.35 138.45 100.9 141.75 98.65 144.65 95.9 148.25 92.05 150.4 84.35 154.45 75.5 152.7 69.4 151.45 64.3 148.1 63.2 147.3 62.1 148.2 61.3 148.9 61.75 149.9 63.2 153.25 65.55 156.45 72.5 165.9 82.2 172.35 95.35 181.1 111 183.15 111.65 182.5 112.1 181.55 112.65 180.35 113.85 179.6 115.2 178.9 116.6 179.3 120.25 180.15 122.7 183.05 123.25 183.7 123.65 184.35 124 184.9 124.55 185.05 135 186.6 145.35 185.65 150.35 185.1 155.35 184.3 160.35 183.65 165.35 183.1 166.05 182.85 166.85 183 168.9 182.35 169.95 181 173.6 176.2 176.1 170.55 Z"/>
</g>

<g id="mae_0_Layer1_0_FILL">
<path fill="#66CCCC" stroke="none" d="
M 123.65 217.55
Q 123 216.85 121.9 216.8 120.85 216.75 120 217.35 119.25 217.8 118.95 217.7 118.75 217.65 118.3 217.1 117.25 215.65 115.2 215.85 113.65 216.05 112.1 217.25 110.9 218.25 110.5 219.2 109.65 221.5 111.65 223.9 112.55 225 113.45 225.3 114.95 225.75 117.45 224.3 118.3 225.7 119.4 226.3 120.85 227.1 122.1 226.45 123.3 225.8 123.95 223.2 124.45 221.1 124.45 220.05 124.45 218.4 123.65 217.55
M 112.75 219.6
Q 113 219.1 113.05 219.05 113.3 218.85 113.85 218.85
L 113.85 218.7
Q 114.6 219 114.85 219.4 115.05 219.75 114.9 220.25 114.7 220.7 114.4 220.9
L 114.1 221.05
Q 113.45 221.2 113 220.7
L 112.75 220.2 112.7 219.9 112.75 219.6
M 130.25 207
Q 126.85 207.55 122.5 207.35 119.9 207.2 114.75 206.6 108.85 205.95 105.45 205.05 102.85 204.3 101.95 205.45 101.3 206.25 101.9 207.35 102.4 208.35 103.45 208.95 104.85 209.75 106.8 210.2 107.9 210.45 110.3 210.75 119.5 211.8 128.65 212.4 124.6296875 228.434375 118.6 243.7 118.525390625 243.6623046875 118.45 243.6 117.55 242.85 116.1 242.1 114.4 241.35 113.55 240.9 110.2 239.15 108.45 238.45 108.138671875 238.330859375 107.8 238.2 108.182421875 237.2984375 108.3 236.75 108.7 235.35 108.3 233.95 108.15 233 107.65 232.4 107.35 232.05 106.5 231.35 105.7 230.75 105.4 230.3 104.45 229.05 104.9 227.2 105.2 226.05 105.95 225.15 106.75 224.4 107.05 223.95 107.4 223.5 108.1 221.75 108.3 221.2 108.2 220.9 108.05 220.55 107.3 220.2 105.6 219.6 104.1 219.9 102.35 220.3 101.4 221.65 101.05 222.15 100.55 223.3 100.25 223.95 99.6 225.2 99.4 225.85 99.4 227.25 99.3673828125 228.4240234375 99.4 229.4 99.1828125 228.7748046875 98.85 228.2
L 97.7 226.35
Q 97.2 225.5 96.95 224.4 96.7 223.55 96.9 222.85 97.1 222.15 98.3 221.05 100.05 219.4 100.4 217.4 100.55 216.3 100.2 215.3 99.85 214.2 99.05 213.6 98.1 212.9 96.75 212.85 95.5 212.85 94.3 213.45 94.10703125 213.5578125 93.9 213.65 93.9318359375 213.7908203125 93.95 213.9 94.1845703125 215.5130859375 93.7 217.6 94.9353515625 220.9306640625 92.5 225.25 91.15 227.45 89.8 227.75 89.3658203125 227.8642578125 88.95 227.8 89.36796875 229.122265625 90.05 230.35 91.15 232.35 91.2 233.2 91.2267578125 234.0013671875 90.75 234.95 88.048828125 234.6337890625 86.2 234.95 86.2373046875 234.06171875 86.2 233.8 86 232.6 84.9 231.9 83.75 231.15 82.6 231.5 81.25 231.9 80.55 233.5 79.95 234.8 79.9 236.55 79.8 239 80.55 240.5 81.45 242.1 84.3 243.55 89.3 246.15 96.1 247.95 100.4 249.1 108.45 250.6 114.5 251.75 117.1 252.15 120.35 252.55 121.65 251.55 122.65 250.8 123.45 248.5
L 126 241.3
Q 129.4 231.8 130.95 226.7 133.5 218.55 134.7 211.75 135.25 208.35 133.75 207.3 133.1 206.85 132.1 206.85 131.65 206.85 130.25 207
M 100 232.5
Q 100.2638671875 233.121875 101.2 234.6 101.6 235.1 101.65 235.5 101.698046875 236.07578125 101.25 236.7 100.3443359375 236.505078125 99.4 236.3 99.651171875 235.62109375 99.8 234.9 100.026171875 233.6560546875 100 232.5 Z"/>
</g>

<g id="mae_0_Layer0_0_FILL">
<path fill="#333366" stroke="none" d="
M 259.85 13.4
Q 257.4 9.55 250.7 5.7 246.1 3.1 242.95 2.45 238.7 1.65 234.75 3.1 234.45 2.8 234.1 2.55 231.05 0 226.05 0 219.8 0 214.9 3.75 213.35 5.05 212.55 5.7 211.15 6.8 210.05 7.35 209.15 7.8 207.8 8.2 206.25 8.6 205.45 8.8 200.5 10.2 196.4 13.4 192.25 16.65 189.75 21.1 187.85 24.9 186.65 26.6 185.8 27.75 184.2 29.35 182.15 31.35 181.65 31.9 179.5 34.25 177 38.55 175.9 40.4 175.1 41.8 172.4 40.8 169 39.9 146.65 33.7 123.05 35.1 102.7 36.25 84 43 81.6 45.3 79.45 46 79.75 45.05 79.65 43.9 79.45 41.6 77 38.95
L 75 36.9
Q 73.75 35.7 73.1 34.75 72.95 34.5 71.75 32.6 70.95 31.25 70.2 30.55 68.9 29.3 66.1 28.4 63.65 27.6 62.5 27.05 61.7 26.3 60.95 25.6 59.95 22.5 58.15 20.4 55.25 17 51.25 16.9
L 49.75 16.9
Q 49.6 16.9 49.45 16.9 46.75 15.35 45.05 14.8 43.15 13.65 41.1 13.05 39.75 12.3 38.8 11.6 37.55 10.7 36.85 9.6 36.4 8.9 36.3 8.3 36 8.25 35.7 8.25 32.6 8.2 31.45 8.1
L 27.05 7.5
Q 22.95 7.2 19.35 8.75 14.35 10.9 9.1 17.65
L 5.6 22.45
Q 3.4 25.5 2.35 27.35 0.75 30.15 0.25 32.75 -0.45 36.25 0.75 39.9 1.9 43.4 4.5 46 5.05 46.55 6.1 47.55 7.05 48.45 7.55 49.2 8.15 50.2 8.75 52.7 10.35 58.7 13.2 63.1 16.5 68.2 21.25 70.45 21.05 72.65 22.55 74.65 23.95 76.55 26.15 77.45 27.7 78.05 29.6 78.2 30.15 78.75 30.85 79.35 33.05 81.15 34.2 81.6 34.7 81.8 35.2 81.95 32.05 87.55 29.3 94.15 27.15 99.2 25.3 104.8 25.2 105 25.15 105.2 16.5 131.1 17.3 153 17.55 159.05 18.6 166.65 18.9 168.9 19.55 172.6 19.75 180.15 19.7 181.95 19.65 184.45 19.25 189.35 19 193.75 19.4 196.75 20.3 203.55 24.75 209.15 29.25 214.75 35.65 217.15 38.85 218.35 41.75 218.25 43.4 218.25 44.75 217.8 43.85 219.5 43.4 221.05 43 222.35 42.6 225.05 42.2 228.05 42.15 229.6 42.15 231.2 42.5 233 42.5 233.1 42.5 233.2 43.6 239 45.85 241.15 48.25 243.4 51.45 244.7 54.15 245.75 57.15 246.1
L 63.7 246 64.95 247.45
Q 65.55 248.1 66.35 248.8 71.9 253.7 77.3 256.25 83.1 259.05 93.45 261.1 98.15 262.05 103.6 262.95 108.7 263.8 112.05 263.85 112.954296875 263.8673828125 113.8 263.85 114.58828125 264.18828125 115.6 264.4 117.68984375 264.856640625 119.45 264.85 119.2916015625 265.3333984375 119.15 265.75 118.35 268.1 118.4 269.8 118.6 272.25 120.15 273.45 121.6 274.55 125.2 274.45 132.9 274.4 140.85 275.45 145.25 276.1 150.3 277.2 151.7 277.5 152.45 277.55 153.65 277.6 154.5 277.25 155.65 276.7 156.85 274.8 161.8 267.15 164.7 256.25 166.0017578125 251.419921875 167.35 243.8 169.1552734375 244.109375 171.05 243.8 172.4 243.6 175 242.7 176.95 242.05 178.45 241.3 179.5 240.8 181 239.75 185.05 243.8 189.3 244.9 191.85 245.6 194.35 245.1 195.5 245.2 196.45 244.5 198.3 243.75 199.55 242.35 201.35 240.3 202.3 236.05 202.7 234.2 203 232.05 203.05 232.05 203.1 232.05 204.15 232.1 206.25 231.9
L 213.7 231.2
Q 220.45 230.55 223.7 229.95 229.2 229 233.25 227.15 238.1 225 241.45 221.4 245.15 217.5 246.05 212.8 247.1 207.3 244.1 198.9 242.4 194.5 241.6 192.25 240.25 188.35 239.8 185.4 239.35 182.3 239.55 178 239.9 173.1 240 170.6 240.25 164.95 239.45 153.75 238.55 141.4 237.7 135.05 236.5 126.6 234.5 119.8 233.65 115.05 232.95 112.25 232.1 108.7 230.9 104.8 230.15 102.35 229.3 99.8 226.85 92.55 224.05 86.45 225.2 85.7 226.3 84.8 231.8 80.45 234.35 74.2 235.4 71.6 236.15 70.75 236.8 70.05 238.4 69.05 245.15 64.55 248.5 57.3 249.25 55.6 249.65 54.75 250.35 53.3 251.1 52.35 252 51.3 254.15 49.55 257.35 46.6 258.8 42.1 260.15 37.8 259.65 33.2 259.45 31.1 259.55 30.3 259.7 29.6 260.1 28.7 260.6 27.7 260.8 27.15 262.3 23.9 262.05 20.15 261.75 16.45 259.85 13.4
M 233 32.85
L 233.4 34.35
Q 233.75 36.5 232.25 40 230.6 43.95 230.5 45.65 230.5 45.75 230.5 45.85 228.85 48.45 226.65 51.3 225.2 51.95 224.35 53.45 223.95 54.1 223.8 54.8 223.05 55.6 222.3 56.5 220.85 56.5 219.5 57.15 217.45 58.05 216.3 59.9
L 215.55 61.3
Q 215.1 62.15 214.65 62.6 214.2 63.05 213.2 63.55 212.1 64.1 211.7 64.4 211.25 64.75 210.3 65.85 209.5 66.8 208.85 67.15 208.2 67.55 207.25 67.75 206.15 68 205.55 68.1 201.85 68.95 199.6 72.15 198.55 73.65 198.05 73.95 197.3 74.4 195.75 74.4 191.6 74.55 187.45 75.15 185.9 72.95 186.55 68.9
L 187.1 66
Q 187.75 62.95 188.35 61.4 189.25 58.9 190.75 57.4 191.35 56.8 192.7 55.55 193.45 54.65 194 53.3 194.1 52.95 194.55 51.65 194.6 51.6 194.65 51.55 195.55 50.6 200.2 45.15 208.2 36.15 215.6 31.75 220.65 28.7 224.7 28.55 227.25 28.45 229.45 29.55 231.85 30.7 232.95 32.75 233 32.8 233 32.85
M 169.75 171.15
Q 171.9 171 174.05 170.55 172.45 173.1 171.25 176.15 170.55 177.9 170 179.95 168.75 180.2 168.05 180.55 167.55 180.75 167.2 181 166.9 180.85 166.55 180.8 165.65 180.6 163.75 181 150.15 183.95 136.15 183.95 130.7 183.95 125.35 183.45 125.35 183.35 125.3 183.2 125 181.9 123.2 180.5 120.9 178.9 119.65 178.2 117.35 176.85 115.7 176.75 113.1 176.65 111.45 178.65 110.45 179.85 110.3 181.25 109.4 181.05 108.55 180.85 94.55 177.7 84.9 171.85 77.45 167.35 71.3 160.5 66.85 155.5 63.35 149.55 65.35 150.9 67.5 152 73.65 155.05 80.15 155.3 83.35 155.45 86.2 154.85 89.65 154.15 92.6 152.45 99.3 148.6 104.2 139.05 105.1 137.3 105.35 135.95 116.3 139.05 127.7 141.1 127.4 142.9 128.3 145.55 130.85 153.1 136.35 158.5 139.55 161.7 143.9 164.3 148.75 167.2 154.1 168.75 154.55 169 155.3 169.2 159.8 170.3 162.45 170.7 166.45 171.35 169.75 171.15
M 168.65 185.45
Q 168.7 185.45 168.75 185.45 168.75 185.5 168.75 185.55 168.7 185.5 168.65 185.45
M 44 36.3
Q 44.05 36.3 44.05 36.35 44.95 37.25 46.6 37.65 46.85 38.05 47 38.75 47.8 41.85 48.9 43.65 50.5 46.3 52.8 47 53.45 47.2 54.75 47.5 55.9 47.85 56.4 48.55 56.85 49.2 56.8 50.45 56.8 51.1 56.7 52.5 56.9 54.65 58.6 55.5
L 58.65 55.5
Q 57.75 56.1 56.95 56.7 54.15 58.75 51.55 61.05 51 60.3 50.15 59.85 49.1 59.35 48 59.55 47.95 59.05 47.85 58.6 47.25 58.55 46.6 58.4 46.15 58.3 45.85 58.25 45.35 58 44.5 57.7 43.3 57.25 42.75 56.85 42 56.35 41.1 54.9 40.1 53.4 39.45 52.85 38.75 52.25 37.35 51.7 37.15 51.6 36.95 51.5 36.9 51.45 36.9 51.4 36.5 49.5 33.6 47.6 32.5 46.9 31.7 46.3 31.3 45.5 31.15 45.25 29.9 43.65 29.4 42.8 29.1 42.15 28.85 41.65 28.8 40.95 28.8 40.15 28.8 37.05 28.55 36.05 28.5 35.85 28.25 35.1 28.25 35.05 28.3 35 29.35 33.7 30.95 32.9 32.2 32.25 34.05 31.75
L 34.15 31.75
Q 34.5 32 35.05 32.45 37.05 34.05 40.45 34.3 40.8 34.55 41.2 34.85 42.75 35.95 44 36.3
M 50.25 133.7
Q 50.25 133.9 50.3 134.1 50.7 136.25 51.25 138.35
L 51.8 139
Q 52.15 139.35 52.45 139.75 52.8 141.45 53.25 142.6
L 53.95 144.4
Q 54.05 144.7 54.3 145.9 54.5 146.8 54.75 147.35 54.9 147.75 55.35 148.4 55.2 148.45 55.05 148.55 56.65 151.85 58.75 155.05 63.05 161.65 68.85 167.1 68.45 168.2 68.2 169.75 67.45 174.9 65.9 185.25 65 190.25 63.8 194.35 63.65 194.35 63.5 194.35 62.55 194.35 61.7 194.95 60.85 195.55 60.5 196.5 60.15 197.6 60.6 198.75 60.95 199.65 61.7 200.2
L 61.65 200.2
Q 61.4 200.75 61.15 201.15 61.1 201.1 61.05 201.05 60.6 200.3 59.8 200.05 59.05 199.8 58.2 200.15 57.7 200.4 57.4 200.75 57.2 200.6 57.05 200.45 57.1 200.3 57.15 200.15 57.3 199.75 57.3 199.45 57.9 199.4 58.45 199.1 59.25 198.7 59.65 197.95 60.1 197.1 59.95 196.15 59.8 195.1 59.1 194.45 58.45 193.8 57.4 193.7 56.4 193.6 55.6 194.1 54.8 194.6 54.45 195.6 54.3 196.05 54.3 196.45 54.15 196.45 54 196.5 53.65 195.95 53.35 195.4 53.9 194.9 54.15 194.15 54.65 192.65 53.7 191.45 53.05 190.65 52 190.5 51.45 190.4 51 190.5 50.8 189.95 50.6 189.45 49.1 185.2 48.1 179.35 48.5 179.05 48.85 178.6 49.35 177.8 49.25 176.95 49.2 176.1 48.5 175.5 48 175 47.45 174.85 45.85 162.8 46.2 152.15 44.5 152.3 43.7 151.2 42.8 150 43.6 148.4 44.05 147.5 45.55 146.2 46.1 145.75 46.65 145.35 46.8 143.65 47.05 142 45.9 140.55 45.1 138.85 44.4 137.3 44.55 136.45 44.65 135.5 45.5 134.9 46.3 134.3 47.2 134.5 47.65 134.6 48.2 135.05 48.6 133.1 49.1 131.2 49.15 131.15 49.2 131.05 49.65 132.4 50.25 133.7
M 74.5 189.05
Q 73.05 190.65 71.8 192.3 72.6 188.8 73.7 182.45 74.7 176.35 75.35 172.4 80.4 176.15 86.2 179.05 83.4 180.4 82.15 181.2 79 183.3 76.6 186.05 75.35 187.5 74.5 189.05
M 83.7 195.35
Q 83 196.6 82.75 197.6 82.45 198.85 82.85 200.05 83.3 201.3 84.35 201.75 85.05 202.05 86.1 201.9 86.3 201.9 87.85 201.55 91.2 200.85 96.1 201.95 98.65 202.5 99.05 203.85 99.5 205.15 98.25 206.4 97.5 207.25 94.8 208.7 92.65 209.75 91.7 211.05 91.6 211.05 91.5 211.1 90.7 211.35 90.15 212.05 89.6 212.75 89.5 213.6 89.4 214.45 89.9 216.05
L 90.7 218.9
Q 91.25 220.8 91.1 221.9 90.9 223 89.85 224.25 88.15 226.25 85.9 227.3 85.15 227.7 83.8 228.25 83.5 227.95 83.05 227.85 81.95 227.5 80.9 228.6 80.65 228.85 79.65 230.6 78.7 232.35 77.35 233.8 70.15 241.15 59.8 239.65 58.45 239.45 57.15 239.25 56.15 239.05 55.25 238.75 51.1 237.25 49.3 233.9 47.8 231.1 48.45 227.5 49 224.25 51 221.2 51.7 220.15 52.75 218.95 52 221.1 51.75 222.55 51.45 224.4 52.25 225.1 52.7 225.55 53.45 225.45 54.1 225.4 54.65 224.95 55.25 224.5 56.1 222.75
L 60.15 213.6
Q 60.9 211.8 61.7 210.45 62.3 209.5 62.7 208.8 63 208.7 63.25 208.55 65.15 207.7 66.8 205.3 67.2 206.15 68.05 206.6 68.95 207.1 69.8 206.75 70.65 206.4 71.15 205.3 71.15 205.25 71.85 203.25 72.5 201.4 74.9 198.3 77.8 194.5 79.6 192.7 82.4 189.85 85.35 188.5 86.35 190.35 84.9 193.2 84.55 193.95 83.7 195.35
M 114.35 181.1
Q 114.85 180.5 115.8 180.7 116.3 180.85 117.2 181.45
L 119.05 182.75
Q 116.55 182.4 114.1 182 114.1 181.4 114.35 181.1
M 112.4 187.4
Q 114.35 187.75 116.35 188 120.2 188.55 124.35 188.8 123.7 189.4 123.1 190.1 121.85 191.5 119.45 194.5 118.3 195.85 117.35 196.65 116.85 197.05 116.5 196.95 116.25 196.9 115.95 196.5 114.85 195.05 114.15 193.25 113.6 191.95 112.9 189.25
L 112.4 187.4
M 172.95 232.95
Q 173.75 232.1 174.25 230.8 174.85 231.9 175.55 232.95 173.85 233.5 172.15 233.85 171.7 233.95 171.3 234.05 172.2 233.8 172.95 232.95
M 166.2 46.1
Q 168.5 47.1 170.9 48.15 169.15 50.5 168.2 51.95 165.4 56.5 164.9 60.7 164.75 61.7 164.65 63.95 164.6 66.1 164.4 67.2 164.2 68.35 163.5 70.65 162.8 72.95 162.6 74.15 161.8 79.25 164.7 83.55 166.8 86.65 169.55 87.05 170.05 87.1 170.55 87.15 171.3 89.15 172.8 91.1 174.75 93.65 177.2 95.25 179.95 97.05 182.8 97.25 184.85 97.4 187.6 96.75 189.2 96.4 192.35 95.5 192.65 95.45 199.1 94.4 203.15 93.75 205.6 92.6 205.75 92.55 207.3 91.7 208.35 91.15 209.1 90.9 210.1 90.55 211.55 90.35 212.4 90.25 214.1 90.05 216.2 89.8 218.15 89.2 219.5 92.2 220.75 95.55 222.4 100 223.9 104.8 227.55 116.65 229.95 130.45 231.55 139.5 232.85 151 232.9 158 232.7 165.05 232.55 169.2 232.35 173.4 232.05 178.45 232 180.6 231.95 184.65 232.4 187.8 232.55 188.95 233 190.7 232.7 190.9 232.5 191.1 231.45 192.1 231.4 193.7 231.3 195.25 232.2 196.35 233.1 197.4 234.4 197.65 234.6 197.7 234.85 197.75 236.25 202.95 236.55 206 236.9 209.65 236.1 212.35 236.1 212.25 236.05 212.15 235.65 211.05 234.5 210.5 233.4 209.95 232.3 210.3 231.2 210.65 230.55 211.75 229.95 212.85 230.25 213.95 230.5 215.05 231.55 215.75 232.6 216.45 233.75 216.2 233.8 216.2 233.9 216.2 231.55 218.55 226.8 220.25 219.45 222.95 211.7 223.85 211.75 223.7 211.75 223.6 212 222.25 211.45 221.15 210.9 220.05 209.75 219.4 208.6 218.75 207.35 218.85 206.1 219 205.1 219.85 204.65 220.25 204.4 220.7 204.1 220.35 203.8 220.1 203.8 219.75 203.8 219.4 203.8 218.6 203.85 217.9 204.1 218.05 204.45 218.15 205.45 218.55 206.6 218.2 207.7 217.85 208.35 217 209 216.15 209.05 215 209.1 213.85 208.5 212.95 207.6 211.65 206.15 211.5 205.55 211.4 204.75 211.55 204.3 211.65 203.95 211.9 204 208.55 203.95 206.5 203.9 203.4 203.75 200.55 203.1 201.7 201.65 202.2 200.3 202.6 198.9 202.3 197.9 202.1 196.9 201.5 196.9 203.1 197 205.1 197.3 211.55 197.2 217.55 197.05 217.7 196.9 217.95 196.55 218.7 196.75 219.5 196.85 219.9 197.1 220.25 197 222.3 196.9 224.3 196.65 224.15 196.4 224.05 195 223.5 193.6 224.25 192.8 224.7 192.3 225.5 191.8 226.3 191.85 227.3 191.85 228 192.15 228.65 191.75 228.45 191.35 228.4 190.1 228.2 188.9 228.9 187.75 229.65 187.35 230.9 187 232.15 187.6 233.4 188.2 234.65 189.4 235.15 190.6 235.65 191.95 235.2 193.25 234.7 193.85 233.6 194.6 232.3 194.2 230.95 194.1 230.6 194 230.35 194.15 230.4 194.35 230.45 195.4 230.7 196.3 230.4 196 233 195.55 235.55 195.25 237.25 194.65 237.8 194.6 237.7 194.55 237.6 193.9 236.5 192.65 236.15 191.35 235.8 190.25 236.4 189.45 236.8 189.1 237.45 187.1 236.4 185.15 234.2 185.05 233.65 184.8 233.2 184.75 233.1 184.75 233.05 185.3 232.75 185.7 232.2 186.3 231.4 186.2 230.3 186.05 229.2 185.3 228.5 184.6 227.85 183.6 227.8 182.6 227.7 181.85 228.25 181.4 228.55 181.15 228.95 180.85 228.5 180.6 228.05 180.85 228.05 181.15 228 181.95 227.85 182.45 227.15 183 226.5 182.9 225.7 182.85 224.9 182.2 224.35 181.6 223.75 180.8 223.75 180.75 223.85 180.6 223.85 180.4 223.8 180 223.9 179.3 224.2 178.95 224.9 176.65 220.1 175.4 214.35 173.85 207.05 174.15 198.05 173.35 198.15 172.75 198.05 171.75 197.9 170.95 197.2 170.15 196.55 169.85 195.55 169.5 194.6 169.8 193.55 170.05 192.5 170.8 191.8 171.45 191.1 173.8 190.2 174.15 190.05 174.8 189.85 175.15 186.9 175.7 184.25 174.55 183.15 173.55 182.15 172.2 180.8 171.75 179.75 171.05 177.8 172.25 176.2 173.55 174.55 175.55 174.9 176.55 175.05 177.95 176.05 179.5 171.75 181.7 168.4 181.7 168.3 181.8 168.25 182.2 167.65 182.6 167.05 182.7 166.9 182.85 166.75 186.1 164.65 188.75 161.85 189 162.4 189.45 163.1 190.9 165.1 191.65 165.6 193.05 166.5 195.4 166.5 199 166.4 201.9 164.9 205.05 163.2 206.6 160.25 207.2 159.15 207.45 158 207.6 157.1 207.6 155.35 207.5 153.05 207.2 152.15 206.85 151 206 149.7 204.15 147.05 202.05 146.45 201.15 146.2 199.35 146.2 198.7 146.2 198.1 146.25 198.35 145.5 198.55 144.9 199.35 142.15 198.75 140.35 198.35 139.2 197.4 138.5 197 138.25 196.6 138.1 196.25 137.75 195.8 137.55 194.7 137.05 193.45 137.7 193 137.95 192.6 138.3 191.2 137.3 188.05 137.6 170.4 139.25 152.7 138 140.9 137.15 129.05 135.05 126.8 134.65 124.55 134.2 124.45 132.5 124.5 130.55 124.55 129.3 124.85 124.75 125 123.5 124.75 122.55 124.3 121.3 123.15 121.2 122.15 121.1 121.5 122.2 121.1 122.9 120.9 124.15 120.15 128.15 120.1 130.55 120.05 131.85 120.15 133.25 110.1 131 100.4 127.9 100.4 127.35 100.35 126.75 99.8 117.1 102.7 104.8 103.9 99.65 105.75 94 106.25 92.4 106.15 91.5 105.95 89.9 104.65 89.65 103.45 89.5 102.75 90.75 102.45 91.15 102 92.9 101.6 94.8 100.55 97.9 99.3 101.55 98.95 102.9
L 95.75 118.95
Q 95.4 121.45 95.45 126.2 83.9 122.15 72.85 116.85 68.4 114.7 64.8 112.6 59.75 109.55 56.45 106.5 55.3 105.4 54.45 104.8 53.9 104.4 53.45 104.2 52.5 103.8 51.55 103.9 50.5 104 49.9 104.7 49.85 104.75 49.85 104.8 49.05 105.75 49.4 107.1 49 107.3 48.65 107.6 46.7 109.25 46.8 114.05
L 46.8 114.1
Q 45.8 113.7 44.6 113.4 40.1 112.3 37.3 114.1 35.05 115.55 34.05 118.4 33.25 120.75 33.25 123.8 33.15 127.15 34.05 129.05 34.45 130 35.3 131 36.55 132.5 37.7 133.3 39.8 134.7 42.15 134.7 37.95 149.6 39.45 167.85 39.9 173.6 40.95 179.7 42.3 187.75 44.45 193.35 44.9 194.55 45.45 195.75 44.5 195.5 43.55 195.95 42.4 196.45 41.9 197.5 41.5 198.35 41.6 199.2 41.7 200.35 42.6 201.2 43.5 202.05 44.65 202.1 45.8 202.15 46.8 201.35 47.5 200.8 47.8 200.05 49.55 202.8 51.75 205 53.05 206.25 54.4 207.15 54.05 207.45 53.7 207.8 51.55 209.8 49.8 211.65 49.5 211.9 49.2 212.15 48.3 212.85 47.75 213.45 46.5 211.75 43.95 210.3 40.85 208.8 39.35 208 35.75 206.2 33.5 203.7 34.2 203.85 34.95 203.65 36.2 203.35 36.9 202.4 37.65 201.45 37.65 200.2 37.65 198.95 36.9 198 36.15 197.05 34.9 196.8 33.65 196.5 32.55 197.05 31.6 197.5 31.1 198.35
L 31 198.45
Q 30.8 198.75 30.75 199.1 30.75 199.2 30.7 199.3 29.35 195.9 28.95 191 28.85 189.6 28.8 185.2 28.7 181.6 28.45 179.4 28.05 176.3 26.5 170.65 26.3 170 26.15 169.35 26.55 169.4 27 171.8 25 158.5 25.35 146.4 25.5 139.3 26.45 132.6 28.4 119.15 33.65 104.8 33.95 103.95 34.25 103.1 36.05 98.4 38 94.15 40.15 89.5 42.5 85.4 48.65 74.55 56.3 67.4 71.1 53.55 98.7 46.85 117.25 42.4 134.9 42.35 151.4 42.3 166.2 46.1
M 188.2 143.8
Q 189.95 143.6 191 143.3 190.95 143.8 190.9 144.4 190.8 146.1 190.4 147.75 189.6 149.5 188.4 151.45 185.4 156.4 182.85 158.8 178.85 162.65 173 164.45 172.4 164.5 171.85 164.6 167.6 165.15 161.75 164.1 160.05 163.8 158.5 163.4 147.65 160.6 141.5 153.85 139.05 151.2 136 146 134.9 144 134.75 142.85 134.75 142.5 134.8 142.25 143.4 143.5 152.1 144.1 170.15 145.4 188.2 143.8
M 61.25 118.1
Q 62.55 118.9 64.05 119.75 67.7 121.7 72.45 123.9 85.65 129.9 99.55 134.25
L 99.5 134.25
Q 98.15 136.55 95.4 141.3 92.85 145.15 89.9 146.85 86.7 148.6 82.35 148.6 77.4 148.55 72.7 146.4 71.8 146 70.95 145.5 65.65 142.55 62.1 137.55 58.75 132.8 57.15 126.75 55.65 121.05 55.9 114.9 55.9 114.65 55.95 114.45 58.35 116.3 61.25 118.1
M 161.25 230.9
Q 160.9685546875 231.4234375 160.75 232.05 160.3 233.35 160 236.05 159.7 239.2 158.3 247.3 157.5 251.9 156.95 254.2 156.1 257.85 154.6 262.3 153.75 264.8 151.65 270.25 151.35 271.2 150.8 271.45 150.45 271.7 149.55 271.6 135.8 270.15 129.85 269.05 128.8 268.8 128.6 268.4 128.35 267.9 128.65 267.15 132.6 254.55 134.7 248.5 138.25 238.2 141.8 230.3 142.146484375 229.523828125 142.4 228.85 149.3876953125 229.276953125 156.45 230.2 157.1033203125 229.997265625 157.6 229.95 159.4 229.75 161.15 230.85 161.203125 230.88046875 161.25 230.9
M 168.8 234.15
Q 168.81953125 233.8421875 168.8 233.55 169.7994140625 234.1 170.6 234.1 170.7 234.1 170.85 234.1 170 234.2 169.3 234.2 169.05078125 234.173828125 168.8 234.15
M 166.05 190.75
Q 167.1 191.7 167.25 191.8 167.55 192 167.85 192.2 166.55 205.6 168.9 216.45 168.95 216.65 169 216.9 168.45 216.85 168.25 217.7 168.4 218 168.55 218.4 169.15 219.7 170.35 222.25 170.5 222.55 170.6 222.8 169.45 224.15 168.7 225.7 162.25 224.15 154 223.3 149.05 222.75 139.1 222.1 141.4 214.9 144.65 207.95 145.35 206.55 145.45 205.65 145.55 204.15 144.55 203.5 144.05 203.15 143.35 203.25 142.7 203.3 142.1 203.7 141.25 204.3 140.5 205.7 139 208.4 137.1 213.55 135 219.25 133.9 221.5 132.9 223.65 132.7 224.4 132.35 226.35 133.3 227.45 133.95 228.15 135.5 228.45
L 135.45 228.5
Q 135.7822265625 228.5201171875 136.1 228.55 130.4271484375 242.9884765625 123.6 256.25 123.2810546875 256.2974609375 122.9 256.4 122.658203125 257.1193359375 122.05 257.75 121.9568359375 257.8560546875 121.85 257.95 121.40234375 258.0826171875 120.15 258.5 117.5 259.3 114.85 258.9 113.85 258.75 113.35 258.7 112.45 258.55 111.85 258.65 111.05 258.75 110.45 259.2 110.268359375 259.3396484375 110.1 259.5 107.5810546875 259.4447265625 104.65 259 94.1 257.55 85.95 253.55 80.65 250.9 76.55 247.45
L 72.25 243.3 82.75 234.35
Q 83.6 234.6 84.6 234.55
L 85.05 234.55
Q 85.25 234.5 85.45 234.45 86.5 234.25 87.9 233.65 87.9 233.6 87.95 233.6 93.9 230.9 96.6 226.3 96.85 225.9 97.05 225.55 97.4 224.85 97.55 224.25 97.95 222.7 97.7 220.7 97.6 219.8 97.5 218.95
L 96.4 214.9
Q 96.4 214.8 96.35 214.7 96.5 214.6 96.7 214.5 99.05 213.25 100.65 212 101.75 211.15 102.5 210.3 102.9 209.85 103.3 209.35 105.3 206.6 104.9 203.7
L 104.9 203.55
Q 104.85 203.3 104.8 203.1
L 104.85 203.1
Q 104.45 201.45 103.2 199.95 101.85 198.35 99.85 197.4 97.05 196.05 91.65 195.65 93.4 191.8 93.2 188.65 93.05 186.75 92.2 185.15 91.7 184.2 91.05 183.55 91.35 183.35 91.65 183.15 92.6 182.7 93.2 182.2 99.85 184.8 107.35 186.45 107.25 186.7 107.25 187 107.15 188.05 107.65 189.85 108.75 193.95 109.55 195.9 110.85 198.95 112.35 200.4 114.45 202.5 117.15 202.3 119.5 202 122.4 198.9 123.8 197.35 127.2 193.1 128.8 191.25 129.3 189.8 129.4 189.55 129.55 189.05 142.85 189.35 158.55 187.15 158.85 187.25 159.25 187.35 163.2 188.15 166.05 190.75
M 197.85 190.9
Q 199.5 192.25 200.9 193.5 202.7 195.15 203.45 196.35 203.3 195.35 203.2 194.4 203.15 194.05 203.1 193.65 202.65 190.3 201.35 188.65 200.1 189.35 198.1 190.15 197.95 190.5 197.85 190.9
M 44.15 203.35
Q 43.45 202.7 42.45 202.6 41.45 202.5 40.65 203 39.8 203.5 39.45 204.45 39.1 205.4 39.4 206.35 39.65 207.15 40.35 207.7 41.05 208.25 41.85 208.3 42.7 208.4 43.45 208 44.25 207.6 44.65 206.85 45.15 206.05 45 205.05 44.85 204.05 44.15 203.35
M 51.9 207.7
Q 52 206.8 51.55 206 51.15 205.25 50.35 204.8 49.5 204.4 48.65 204.5 47.8 204.6 47.1 205.2 46.4 205.75 46.15 206.55 46 207.15 46.05 207.6 46.15 208.5 46.7 209.2 47.25 209.95 48.1 210.2 48.95 210.45 49.8 210.2 50.7 209.95 51.25 209.3 51.8 208.6 51.9 207.7
M 30.2 188.45
Q 29.8 188.8 29.7 189.25 29.6 189.65 29.7 189.95 29.95 190.7 30.6 190.9 31.25 191.15 31.9 190.8 32.8 190.15 32.55 189.15 32.2 188.15 31.15 188.05 31.2 188.1 31.1 188.1 30.6 188.15 30.2 188.45
M 32.65 146.25
Q 32.35 147 32.5 147.8 32.55 148.2 32.9 148.7 33.65 149.65 35.05 149.65 35.95 149.55 36.7 148.9 37.4 148.25 37.45 147.35 37.45 146.55 37 145.95 36.35 145.05 35.4 144.9 34.45 144.7 33.55 145.25 32.95 145.6 32.65 146.25
M 66.9 86.1
Q 65.8 85.9 64.95 86.45 64.1 87 63.8 88.05 63.5 89.1 63.9 90.05 64.35 91 65.4 91.4 66.5 91.85 67.45 91.45 68.65 90.95 69.05 89.75 69.55 88.25 68.6 87.05 67.95 86.25 66.9 86.1
M 146.05 73.5
Q 145.4 72.85 144.45 72.7 143.65 72.65 142.85 72.95 142.05 73.35 141.65 74.2 141.2 75.05 141.35 75.9 141.45 76.75 142.15 77.45 142.8 78.1 143.65 78.25 144.5 78.4 145.35 77.95 146.2 77.55 146.6 76.75 147 75.95 146.85 75.05 146.7 74.1 146.05 73.5
M 148.7 51.9
Q 148.6 51.1 147.95 50.5 147.3 49.9 146.45 49.85
L 146.25 49.9
Q 145.8 49.9 145.3 50.15 144.6 50.55 144.3 51.4 144 52.25 144.3 53 144.6 53.8 145.4 54.2 146.2 54.6 147 54.4 147.8 54.2 148.3 53.45 148.8 52.7 148.7 51.9
M 84.95 74.95
Q 84.25 75.6 84.15 76.55 84.05 77.35 84.35 77.9 84.75 78.75 85.7 79.2 86.65 79.6 87.55 79.35 88.45 79.05 89 78.2 89.5 77.35 89.35 76.4 89.2 75.45 88.4 74.8 87.6 74.15 86.65 74.2 85.7 74.25 84.95 74.95
M 113.45 61.45
Q 113 60.75 112.2 60.35 111.4 60 110.6 60.15 109 60.5 108.5 62.1 108.4 62.35 108.4 63 108.45 63.8 109 64.5 109.5 65.2 110.3 65.4 111.1 65.65 111.9 65.4 112.7 65.15 113.25 64.5 113.75 63.85 113.8 63 113.85 62.1 113.45 61.45
M 226.05 149.9
Q 225.05 149.45 224.05 149.65 223.05 149.9 222.3 150.75 221.6 151.6 221.55 152.65 221.5 153.5 221.95 154.35 222.4 155.15 223.15 155.6 224.05 156.1 225.15 155.95 226.25 155.8 227 155.1 227.75 154.4 227.9 153.25 228.1 152.15 227.6 151.25 227.05 150.35 226.05 149.9
M 201.35 174.7
Q 200.5 174.85 199.9 175.55 199.3 176.25 199.25 177.1 199.2 177.6 199.45 178.2 199.7 178.75 200.05 179.1 200.7 179.65 201.6 179.75 202.55 179.8 203.25 179.3 203.95 178.8 204.2 177.95 204.45 177.05 204.1 176.25 203.8 175.45 203 175 202.2 174.55 201.35 174.7
M 170.7 118.7
Q 169.55 118.45 168.5 119.1 167.45 119.9 167.25 120.95 167.15 121.45 167.25 121.9 167.35 122.95 168.25 123.7 169.1 124.45 170.15 124.4 171.2 124.4 172 123.65 172.85 122.85 172.95 121.8 173.05 120.75 172.4 119.85 171.7 118.95 170.7 118.7
M 193.45 118.65
L 193.45 118.75
Q 193.2 118.65 192.95 118.85
L 192.65 119.2 192.65 119.45 192.7 119.65 192.7 119.9 192.85 120.05
Q 193.2 120.3 193.6 120.3
L 193.9 120.2
Q 194.05 120.1 194.15 119.75
L 194.2 119.35
Q 194.2 119.05 193.95 118.9 193.8 118.75 193.45 118.65
M 212.6 109.8
Q 212.4 109.15 211.8 108.65 211.15 108.2 210.45 108.2
L 210 108.25
Q 208.75 108.4 208.25 109.7 208 110.4 208.25 111.1 208.45 111.85 209 112.3 209.55 112.75 210.35 112.75 211.1 112.8 211.7 112.4 212.3 112 212.55 111.25 212.8 110.5 212.6 109.8
M 210.25 217.7
Q 210.1 218.75 210.65 219.8 211.2 220.8 212.3 221.2 213.45 221.65 214.55 221.25 215.6 220.85 216.2 219.85 216.8 218.75 216.6 217.65 216.4 216.55 215.5 215.75 214.6 215 213.45 215 212.3 215 211.35 215.8 210.45 216.55 210.25 217.7
M 216.6 206.25
Q 216.3 206.85 216.3 207.5 216.3 209.35 217.9 210.25 218.6 210.65 219.5 210.65 220.35 210.65 221.05 210.25 221.9 209.7 222.3 208.8 222.7 207.8 222.5 206.85 222.3 205.9 221.5 205.25 220.75 204.55 219.75 204.45 218.8 204.35 217.9 204.85 217 205.35 216.6 206.25
M 225.15 215.4
Q 224.45 214.6 223.3 214.4 222.2 214.2 221.25 214.7 220.05 215.35 219.7 216.65 219.55 217.3 219.6 217.85 219.7 218.7 220.1 219.3 220.7 220.3 221.75 220.6 222.75 220.95 223.85 220.55 224.9 220.2 225.45 219.3 226.05 218.4 225.95 217.3 225.85 216.15 225.15 215.4
M 229.9 203.5
Q 228.8 203.3 227.95 203.85 227.1 204.4 226.8 205.45 226.5 206.5 226.9 207.45 227.35 208.4 228.4 208.8 229.5 209.25 230.45 208.85 231.65 208.35 232.05 207.15 232.55 205.65 231.6 204.45 230.95 203.65 229.9 203.5
M 216.8 183.45
Q 216.5 184.5 216.9 185.45 217.35 186.4 218.4 186.8 219.5 187.25 220.45 186.85 221.65 186.35 222.05 185.15 222.55 183.65 221.6 182.45 220.95 181.65 219.9 181.5 218.8 181.3 217.95 181.85 217.1 182.4 216.8 183.45
M 187.8 221.2
L 187.7 221.25
Q 187.05 221.3 186.5 221.8 185.95 222.35 185.85 223 185.8 223.7 186.2 224.35 186.65 224.95 187.3 225.1 187.8 225.25 188.85 225.05 189.5 224.95 189.75 224.6 189.95 224.2 189.75 223.35 189.65 222.65 189.5 222.35 189.1 221.5 187.8 221.2
M 185.15 211.4
Q 184.45 210.6 183.3 210.4 182.2 210.2 181.25 210.7 180.05 211.35 179.7 212.65 179.55 213.3 179.6 213.85 179.7 214.7 180.1 215.3 180.7 216.3 181.75 216.6 182.75 216.95 183.85 216.55 184.9 216.2 185.45 215.3 186.05 214.4 185.95 213.3 185.85 212.15 185.15 211.4
M 191.45 208.95
Q 190.75 208.85 190.2 209.25 189.5 209.8 189.6 210.7 189.6 211 189.8 211.4 190.25 212 190.8 212.15 191.95 212.4 192.55 211.45 193 210.7 192.65 209.8 192.4 209.4 192.15 209.2 191.95 209.05 191.45 208.95
M 62.25 176
Q 60.9 176.95 61.05 178.8 61.2 179.65 61.65 180.3 62.3 181.1 63.4 181.25 64.5 181.35 65.35 180.8 66.15 180.2 66.45 179.15 66.7 178.1 66.3 177.2 65.85 176.1 64.7 175.7 63.35 175.2 62.25 176
M 60.55 192.4
Q 60.1 192.4 59.95 192.55 59.8 192.65 59.7 192.95
L 59.7 193.45 59.95 193.85 60.35 194.05
Q 60.5 194.2 60.55 194.1
L 60.7 194.1
Q 61.3 193.8 61.4 193.4 61.5 193 61.2 192.65 61 192.4 60.55 192.3
L 60.55 192.4
M 59.4 183.8
Q 58.15 183.7 57.25 184.7 56.75 185.25 56.65 186.05 56.55 186.85 56.85 187.55 57.15 188.15 57.75 188.55 57.8 189 58.1 189.4 58.65 190.05 59.35 190.1 60.05 190.2 60.7 189.7 61.55 188.95 61.4 187.95 61.6 187.65 61.7 187.35 61.95 186.65 61.8 185.85 61.65 185.1 61.1 184.55 60.35 183.8 59.4 183.8
M 53.4 182.85
Q 52.7 183.25 52.6 184.05 52.5 184.45 52.7 184.8 53.05 185.5 53.65 185.7 54.45 185.95 55.15 185.35 55.75 184.85 55.65 184 55.55 183.2 54.8 182.85 54.1 182.4 53.4 182.85 Z"/>

<path fill="#66CCCC" stroke="none" d="
M 177.95 176.05
Q 176.55 175.05 175.55 174.9 173.55 174.55 172.25 176.2 171.05 177.8 171.75 179.75 172.2 180.8 173.55 182.15 174.55 183.15 175.7 184.25 177.5 185.95 179.65 187.8 176.35 189.2 174.8 189.85 174.15 190.05 173.8 190.2 171.45 191.1 170.8 191.8 170.05 192.5 169.8 193.55 169.5 194.6 169.85 195.55 170.15 196.55 170.95 197.2 171.75 197.9 172.75 198.05 173.35 198.15 174.15 198.05 175.15 197.9 176.5 197.4 181.5 195.55 186.8 193.8 189.8 196.2 194.15 199.6 195.75 200.8 196.4 201.2 196.65 201.35 196.9 201.5 197.9 202.1 198.9 202.3 200.3 202.6 201.65 202.2 203.1 201.7 203.75 200.55 204.7 198.75 203.55 196.6 203.5 196.5 203.45 196.35 202.7 195.15 200.9 193.5 199.5 192.25 197.85 190.9 197.6 190.65 197.3 190.45 197.7 190.25 198.1 190.15 200.1 189.35 201.35 188.65 201.55 188.55 201.7 188.45 203.85 187.15 205.05 185.55 205.6 184.85 206.15 183.7 206.5 183 206.25 182.45 206.1 182.2 205.55 181.85 204.4 181.05 203.8 180.75 202.3 180.1 199.65 180.7 197.9 181.1 194.5 182.3 191.6 183.3 189.15 184.15 182.05 179.1 178.45 176.4 178.2 176.2 177.95 176.05
M 49.15 135.95
Q 48.65 135.4 48.2 135.05 47.65 134.6 47.2 134.5 46.3 134.3 45.5 134.9 44.65 135.5 44.55 136.45 44.4 137.3 45.1 138.85 45.9 140.55 47.05 142 47.65 142.8 48.35 143.5 48.55 143.7 48.75 143.85 47.7 144.5 46.65 145.35 46.1 145.75 45.55 146.2 44.05 147.5 43.6 148.4 42.8 150 43.7 151.2 44.5 152.3 46.2 152.15 46.9 152.05 47.7 151.8 48.75 151.45 50.5 150.55 52.4 149.6 53.25 149.25 53.85 149 55.05 148.55 55.2 148.45 55.35 148.4 54.9 147.75 54.75 147.35 54.5 146.8 54.3 145.9 54.05 144.7 53.95 144.4
L 53.25 142.6
Q 52.8 141.45 52.45 139.75 52.15 139.35 51.8 139
L 51.25 138.35 49.15 135.95 Z"/>

<path fill="#E7F7FF" stroke="none" d="
M 197.85 190.9
Q 197.95 190.5 198.1 190.15 197.7 190.25 197.3 190.45 197.6 190.65 197.85 190.9 Z"/>

<path fill="#FF6699" stroke="none" d="
M 115.8 180.7
Q 114.85 180.5 114.35 181.1 114.1 181.4 114.1 182 116.55 182.4 119.05 182.75
L 117.2 181.45
Q 116.3 180.85 115.8 180.7 Z"/>

<path fill="#D39279" stroke="none" d="
M 153 178
Q 153.6 177.25 153.5 176.4 153.45 175.5 152.75 174.85 152.1 174.2 151.2 174.15 151.15 174.25 150.95 174.25 150.8 174.2 150.4 174.3 149.55 174.6 149.1 175.4 148.65 176.25 148.85 177.1 149.1 177.95 149.85 178.5 150.65 179.05 151.55 178.9 152.4 178.75 153 178
M 143.7 168.05
Q 143.25 167 142.3 166.55 141.1 166 139.85 166.65 138.65 167.3 138.4 168.6 138.2 169.65 138.85 170.6 139.45 171.55 140.45 171.8 141.45 172.1 142.45 171.55 143.45 171.05 143.8 170.05 144.15 169.1 143.7 168.05
M 85.95 160.15
Q 84.85 159.95 84 160.5 83.15 161.05 82.85 162.1 82.55 163.15 82.95 164.1 83.4 165.05 84.45 165.45 85.55 165.9 86.5 165.5 87.7 165 88.1 163.8 88.6 162.3 87.65 161.1 87 160.3 85.95 160.15
M 94.1 158.5
Q 94.2 157.65 93.75 156.95 93.3 156.2 92.5 155.95 91.75 155.7 90.9 156.05 90.15 156.4 89.75 157.1 89.55 157.6 89.55 157.85 89.5 158.15 89.55 158.45 89.65 159.25 90.3 159.85 90.95 160.4 91.8 160.4 92.6 160.45 93.3 159.85 93.95 159.3 94.1 158.5
M 74.95 157.5
Q 74.15 157.85 73.8 158.6 73.65 159.15 73.65 159.7 73.65 160.05 73.8 160.35 74.05 161.05 74.75 161.45 75.4 161.85 76.15 161.75 76.9 161.65 77.4 161.05 77.95 160.5 78 159.75 78.1 159.05 77.65 158.4 77.25 157.7 76.55 157.45 75.8 157.15 74.95 157.5
M 163.8 174.5
Q 163.4 173.8 162.6 173.4 161.8 173.05 161 173.2 159.4 173.5 158.9 175.15 158.8 175.4 158.8 176 158.85 176.85 159.4 177.55 159.9 178.25 160.7 178.45 161.5 178.7 162.3 178.45 163.1 178.2 163.65 177.55 164.15 176.9 164.2 176.05 164.25 175.15 163.8 174.5 Z"/>
</g>
</defs>

<g transform="matrix( 1, 0, 0, 1, 18.1,10.3) ">
<g transform="matrix( 1, 0, 0, 1, 0,0) ">
<use xlink:href="#mae_0_Layer3_0_FILL"/>
</g>

<g transform="matrix( 1, 0, 0, 1, 0,0) ">
<use xlink:href="#mae_0_Layer2_0_FILL"/>
</g>

<g transform="matrix( 1, 0, 0, 1, 0,0) ">
<use xlink:href="#mae_0_Layer1_0_FILL"/>
</g>

<g transform="matrix( 1, 0, 0, 1, 0,0) ">
<use xlink:href="#mae_0_Layer0_0_FILL"/>
</g>
</g>
</svg>
