
<svg xmlns="http://www.w3.org/2000/svg" version="1.1" xmlns:xlink="http://www.w3.org/1999/xlink" preserveAspectRatio="none" x="0px" y="0px" width="150px" height="150px" viewBox="0 0 150 150">
<defs>
<g id="Layer0_0_FILL">
<path fill="#FFFFFF" stroke="none" d="
M 141.85 24.95
Q 136.75 17.9 129.1 12.9 121.75 8.15 112.9 5.9 104.85 3.85 96.35 3.9 87.6 3.85 78.2 6 68.8 3.85 60.05 3.9 51.45 3.85 43.45 5.9 34.45 8.15 26.9 12.9 19 17.9 13.65 24.95 5.15 36.15 2.2 53.1 1 59.85 0.65 68 0.5 73.85 0.55 82.65 0.55 84.5 0.6 86.15 0.7 89 0.85 91.1 1.1 93.65 1.8 98.75 2.05 101.3 2.05 104.75 2.05 106.75 2.05 110.75 1.85 116.5 2.25 122.45 0.6 129.6 2.95 136.4 3.65 138.05 4.25 139.05 5.75 141.65 9.05 143.65 11.15 144.9 15.2 146.45 18.5 147.75 20.6 148.1 22.4 148.35 25.55 148
L 25.65 148
Q 25.2 151.85 25.25 154.05 25.25 155.55 25.8 156.45 26.5 157.75 27.75 157.6 28.7 157.55 29.35 156.45 29.95 155.45 29.95 152.8 29.95 152.1 30.3 148.6
L 31.85 136.9
Q 32.05 136.8 32.35 136.75 32.9 135.95 34 135.05 36.7 132.95 41.8 130.75 48.05 127.9 49.85 126.95 50.75 126.5 51.1 125.95 51.65 125.05 51.2 124.45 50.6 123.65 49 124.05 42.95 125.55 37.5 128.15 38.95 127.35 40.25 126.2 40.5 126.1 40.75 126 42.2 125.25 43.8 123.7 45.65 121.95 46.55 121 48 119.65 49.3 119.15 50.15 118.85 53.15 118.55 56.5 118.45 57.1 118.5 59.3 118.5 60.95 118.95 61.3 119.05 62.6 119.45 63.45 119.8 64.1 119.9 64.65 124 66.3 129.8
L 67.25 132.95
Q 67.3 132.9 67.45 132.85 67.45 133.25 67.55 133.6 67.8 134.25 68.45 134.75 69.05 135.15 69.8 135.15 70.6 135.15 72 134.3 76.55 131.65 84.2 125.6
L 87.2 123.25
Q 90.1 120.95 90.7 120.3 91.6 119.45 92.35 118.55
L 92.4 118.6
Q 92.45 118.5 92.5 118.4 92.85 117.9 93.15 117.5 93.2 117.5 93.25 117.5 94.8 117.55 96.75 117.3 96.8 117.3 100.25 116.8 107.3 115.9 114.25 115.95 114.55 115.95 114.8 115.95 114.85 116.4 114.95 116.9 115.85 121.5 118.2 123.85 120.2 125.75 123.8 126.75 126.25 127.5 128.3 127.3 128.35 128.75 128.45 130.3 128.55 132.4 128.6 137.65 128.6 143.35 128.15 145.7 127.95 147 127.4 149.45 127.1 151.7 127.55 153.25 127.65 153.65 127.9 154.3 128.1 154.9 128.05 155.4 128.05 155.7 128.05 155.9 123.95 155.2 118.35 154.9 104.7 154.3 96.2 157.15
L 101.75 139.25
Q 102.3 137.75 101.75 137 101.4 136.55 100.75 136.5 100.15 136.45 99.55 136.85 98.85 137.3 98.1 138.8 96.35 142.2 94.3 148.6 92 155.7 90.85 158.45 89.95 160.55 89.85 161.55 89.65 163.55 91.05 164.45 92 165.05 93.4 164.65 94.2 164.5 95.75 163.65 100.65 161.25 107.45 160.6 111.75 160.2 119.85 160.5
L 128.4 160.85
Q 129.85 160.9 130.65 160.6 131.55 160.35 132 159.7 132.1 159.6 132.25 159.5 132.45 159.3 132.8 158.75 133.4 157.65 133.55 156.45
L 133.6 155.2
Q 133.65 152 133.45 148.9 133.4 147.85 133.15 147.35 133.25 146.65 133.4 145.95 133.65 146.25 134.1 146.55 135.25 147.25 137.5 146.7 142.75 145.4 145.55 141.4
L 147.1 138.75
Q 148.7 135.15 149.15 128.8 149.4 125.9 149.05 123.9 149 123.55 148.9 123.2 149.05 121.55 149.2 119.9 149.6 115.3 149.7 110.75 149.85 106.75 150 104.75 150.05 101.3 150.45 98.75 151.35 93.65 151.7 91.1 151.9 89.35 152.1 87.25 152.2 85.2 152.45 82.65 152.7 77 152.9 72.65 152.9 70.1 153 68 152.9 59.85 152.05 53.1 149.85 36.15 141.85 24.95
M 125.55 17.75
Q 132.75 22.3 137.5 28.7 144 37.4 146.5 51.1 148.1 60.6 148 75 147.8 96.25 144.45 127.25 144.2 127 143.8 126.75 142.65 126 140.25 125.9 137.4 125.9 135.85 126.95 134.95 127.6 134.5 128.75 134.35 129.05 134.3 129.3
L 133.55 129.6
Q 133.4 127.1 133.2 126.35 133.1 125.75 133.05 125.25 133.8 124.5 134.55 123.5 136.05 121.35 136.8 118.4 137.75 114.8 138 107.3 138.1 101.45 138.05 94.15 138 86.9 137.4 82.35 136.7 75.9 134.7 70.9
L 134.65 70.9
Q 134.75 70.85 134.85 70.75
L 135.8 70.1
Q 136.3 69.65 136.5 69.2 136.6 68.7 136.3 68.2 136.05 67.7 135.55 67.55 134.6 67.25 133.55 68.15 132.1 69.3 131.4 69.85 130.85 70.25 130.05 70.6 129 69.8 127.45 68.7 125.55 67.3 124.2 66.8 124.45 65.9 124.7 64.95 124.95 63.65 124.9 63.1 124.8 63 124.85 62.9 124.9 62.7 124.9 62.5 125 61.8 124.55 61.25 123.95 60.55 122.5 60.3 120.4 59.85 115.8 59.3 114.45 59.05 113.3 59.05 102 57.65 89.25 57.5 89.3 57.25 89.3 56.9 89.35 55.5 88.9 54.15
L 88.5 53.05
Q 88.35 52.4 88.35 51.35
L 88.3 48.45
Q 88.3 47.75 87.9 47.65 87.55 47.55 87.35 48 87.3 48.15 87.3 48.65
L 87.25 50.8
Q 87.25 52.1 87.05 52.75 86.95 53.3 86.6 54.45 86.45 55.2 86.7 56.55 86.7 57.05 86.85 57.5 86.05 57.5 85.4 57.5 79.35 57.5 72.45 57.85 64.85 58.2 56.05 58.95 54.4 59.05 52.75 59.3 52.3 42.6 56 30.3 56.85 27.45 57.3 26 58 23.5 58.15 21.55 58.25 20.7 57.75 20.45 57.2 20.4 56.8 21.35 54.75 26.75 53.65 30.6 52.95 32.8 52.4 34.95 50.85 41.55 50.4 51.3 50.25 55.95 50.3 59.5 43.8 60.15 39.3 60.95 30.15 62.55 23.1 65.4 22.9 65.25 22.75 65.2 21.55 64.95 20.6 66.15 20.15 67 20.05 68.6 20 72.3 21.95 75.9 21.85 75.9 21.75 75.9 20.25 75.95 19.1 76.35 18.05 76.85 17.2 77.45 15.7 78.75 15.15 80.75 14.6 82.7 15.2 84.55 15.45 85.2 15.9 86.1 16.3 86.95 16.9 87.5 17.25 91.35 17.45 96.65 17.75 106.8 18.45 111.25 18.8 114.1 19.6 116.55 20.5 119.4 22.1 121.9 24.5 125.6 27.75 127.5 31.55 129.65 35.45 128.8 35.7 128.75 36 128.65 36.05 128.75 36.15 128.8 33.95 129.85 31.8 131.15 31.15 131.45 30.6 131.85 29.95 131.9 29.3 132.1 27.8 132.5 27.15 132.65 25.75 132.85 24.9 132.25 24.4 131.85 23.8 130.35 23.2 129 22.45 128.7 22.1 128.55 21.65 128.6 22.05 127.85 21.5 127.05 21.05 126.15 20.05 126.15 20.15 126.25 19.9 126.25
L 19.35 126.35
Q 19.15 126.35 18.85 126.65 18.05 127.45 18.45 128.55 18.75 129.35 19.6 129.6 17.95 130.75 17 130.65
L 15.4 128.1
Q 14.6 126.75 13.7 126.75 13.15 126.75 12.5 127.45 12.45 127.5 12.45 127.55 12.4 126.55 11.8 125.6 11.25 124.6 10.35 124.25 9.4 123.85 7.95 124.05 7 124.15 6.35 124.45 4.6 95.25 5.3 75 5.7 60.6 7.9 51.1 10.95 37.4 17.8 28.7 22.8 22.3 30.25 17.75 37.15 13.4 45.65 11.2 58.2 7.7 75.45 8.75 75.95 9.1 77.05 9.05 77.6 9 78.15 8.95 78.65 9 79.2 9.05 80.2 9.1 80.75 8.75 97.9 7.7 110.45 11.2 118.8 13.4 125.55 17.75
M 96.2 60.65
Q 96.1 60.95 96.1 61.4 95.95 63.05 96.6 66.9 97.55 72.05 98.85 74.5 99.6 75.95 101.4 78.7 101.65 79.05 101.95 79.45 100.15 79.45 98.1 79.2 94.8 78.7 92.75 77.6 88.4 75.4 85.3 68.7 83.85 65.45 83.6 63.1 83.5 62.35 83.5 61.9 83.4 61.15 83.25 60.75 83.2 60.6 83.2 60.55 84.2 60.55 85.3 60.55 90.9 60.5 96.2 60.65
M 120.45 84.05
Q 120.55 84.05 120.65 84.05 121.15 84.05 121.75 84 123.65 83.65 125.35 82.5
L 126.5 81.6
Q 127.25 80.9 127.6 80.05 128.05 78.9 128.05 77.75 128.05 76.95 127.95 76.25 127.85 75.85 127.65 75.4 128.4 74.85 129.2 74.3
L 129.9 73.95
Q 130.15 74.3 130.4 74.5 131.7 75.95 132.45 77.55 132.95 78.75 133.3 79.1 133.65 79.5 134.1 79.65
L 134.3 95.25
Q 134.3 102.45 134.2 107 134 107.25 133.8 107.5 133.5 107.85 132.2 110.35 131.25 112.1 130.3 112.85 129.35 113.65 128.05 113.85 127.75 113.9 127.4 113.9 127.6 113.25 127.45 112.5 127.35 111.8 126.8 111.15 126.2 110.35 125.4 110.05 124.55 109.75 123.55 110 122.85 110.15 122.3 110.65 122.1 110.3 121.8 109.9 120.2 107.15 118.95 104.05 118.95 103.85 118.85 103.65 119.15 93.75 120.45 84.05
M 125.85 73.1
Q 124.05 71.8 121.75 71.6 122.6 70.25 123.25 69 123.95 69.25 124.95 70.05
L 126.65 71.25
Q 127.15 71.65 127.6 72.05 126.8 72.6 125.95 73.15
L 125.85 73.1
M 134.1 71.4
Q 134 71.7 134 72.25
L 134 75.2
Q 133.15 73.8 132.15 72.7 132.5 72.45 133 72.2 133.4 71.9 134.1 71.4
M 25.1 68.65
Q 29.6 66.9 34.9 65.6 34.9 65.95 34.95 66.25 35.55 72.7 40.5 80.3 41.6 81.95 42.55 82.8 42.15 82.85 41.65 82.9 37.25 83.35 34.6 82.2 32.6 81.45 30.15 79.2 24.65 74.1 24.3 69
L 24.3 68.95
Q 24.65 68.75 25.1 68.65
M 26.25 88.1
Q 26.5 88 26.8 87.85 29.2 95.05 34.5 100.75 37.1 103.5 40.05 105.55 39.8 107.25 39.65 108.8
L 39.6 108.8
Q 38.3 109.1 37 111.6 36.05 113.35 35.45 114.2 34.65 115.3 33.85 115.7 33.2 116 31.6 116.15 31.7 115.35 31.45 114.5 30.85 112.75 29 112.15 27.35 111.45 25.55 112.2 24.65 112.5 24.25 113
L 24.2 112.95
Q 23.1 111.7 22.2 109.75 21.9 108.3 21.8 106.7 21.25 97.95 20.9 93.65 20.75 91.25 20.5 89.15 21.4 89.3 22.15 89.2 22.75 89.15 23.9 88.85 25.5 88.5 26.25 88.1
M 113.45 103.5
Q 114.1 103.15 114.55 102.75 114.45 105.3 114.4 107.85 114.3 109.6 114.45 111.15 105.35 110.6 95 112.3 95.45 110.6 95.5 109.6 97.25 109.6 99.65 109.05 104.8 107.85 108.1 106.3
L 113.45 103.5
M 63.9 115.15
Q 63.85 115.05 63.8 115.05 63.231640625 114.876953125 62.85 114.75 59.31640625 113.7974609375 58 113.7 57.25 113.65 53.45 113.45 50.75 113.25 49.4 113.5 47.35 113.9 44.75 116 45.05 112.6 44.7 108.2 45.85 108.75 47 109.15 50 110.25 54.25 111.15 55.65 111.45 56.75 111.65 56.85 111.75 57.05 111.8 57.2 111.9 64.15 113.65 63.9 114.95 63.9 115.15
M 83.5 74.65
Q 85.15 77.05 86.6 78.45 90.7 82.4 97.15 83.2 101.75 83.85 106 82.7 108.9 82 111.7 80.5 113 79.8 114.25 79 114.25 79.35 114.45 79.6 114.8 80.85 116.5 82.35 116.75 82.5 117 82.7 115.3 91.25 114.7 99.8 114.55 99.6 114.3 99.5 113.55 99.1 112.4 99.55 111.7 99.85 110.7 100.55 105.8 103.85 99.8 105.15
L 97.3 105.65
Q 96.1 105.95 94.3 106.55 94.25 106.55 94.2 106.5 93.1 105.8 92 106.55 90.95 107.15 90.55 109.3 90.1 111.35 90.1 113.5 90.1 114 90.15 114.45 90.1 114.75 90.1 115.15 90.1 115.3 90.1 115.4
L 88.65 116.35
Q 85.7 118.25 84.2 119.25 81.35 121.1 77.75 123.95 75.7 125.6 71.5 128.85 71.3 129.1 71 129.25
L 69.45 123.95
Q 68.45 120.6 68.1 118.8 68.8 118.4 69.25 117.6 69.75 116.75 69.75 114.95 69.75 114.2 69.65 113.45 69.219140625 111.2775390625 69 109.7 69.0111328125 109.6193359375 69 109.5 68.983984375 109.450390625 68.95 109.35
L 68.75 109.45
Q 67.93046875 109.264453125 64.7 109.3 59.2890625 109.4212890625 56.65 108.55
L 56.65 108.6
Q 55.95 108.45 55.4 108.25 52.5 107.55 49.05 105.65 42.7 102.2 39.2 98.1 37.75 96.45 36.3 94 34.1 90.2 32.65 85.75 32.6 85.6 32.55 85.4 34.35 86.2 36.2 86.5 39.4 87 43.35 85.95 46.25 85.2 50.15 83.35 52.85 82.05 54.45 80.95 62.2 75.9 65.35 64.05 65.8 62.35 65.55 61.5 69.1 61.15 72.45 61
L 72.45 60.95
Q 76.1 60.8 79.55 60.65 79.35 61.25 79.3 62.15 79.05 67.75 83.5 74.65
M 73.3 107.2
Q 73.4 106.45 72.85 105.95 71.1 104.55 68.75 105.7
L 66.05 106.2
Q 65.85 106 65.75 105.8 65.4 105.15 64.55 105.05 64.2 105.05 63.85 105.05
L 63 105.65
Q 62.4 107.35 63.85 108.6 64.25 108.95 64.75 108.9 65.5 109.15 66.35 109.15 69 109.15 71.5 108.9 73.05 108.6 73.3 107.2
M 25.3 106.3
Q 25.3 106.65 25.25 107.5 25.3 108.15 25.85 108.6 26.35 109.1 26.95 109.1 27.6 109.05 28.05 108.55 28.6 108.05 28.7 107.45 28.7 106.8 28.25 106.25 27.8 105.7 27.15 105.65
L 25.4 105.75
Q 25.3 105.9 25.3 106.3
M 25.55 101.15
L 25.35 100.95
Q 25.1 100.95 24.95 101.05
L 24.9 101.15
Q 24.8 101.3 24.6 101.45 24.25 101.8 24.35 102.1 24.6 102.55 24.9 102.55 25.35 102.55 25.45 102.15
L 25.65 101.45 25.55 101.15
M 34.65 107.5
Q 34.5 106.95 33.85 106.2 33.4 105.7 33.2 105.65 32.55 105.1 31.7 105.55 30.9 106 30.9 106.85 30.9 107.7 31.65 108.2 32 108.3 32.65 108.45
L 33.7 108.55
Q 34.35 108.55 34.55 108.35 34.95 108.05 34.65 107.5
M 30.05 96.85
Q 29.2 97 29.05 97.9 28.95 98.75 29.65 99.25 30.45 99.65 31.1 99.15
L 31.5 98.95 31.7 98.9
Q 32.05 98.8 32.05 98.45 32 98.3 31.8 97.9
L 31.5 97.4
Q 31 96.55 30.05 96.85
M 121.7 102.4
Q 122.1 102 122.1 101.4 122.1 100.85 121.7 100.4 121.35 100 120.75 99.9 120.2 99.8 119.7 100.05 119.25 100.35 119.05 100.9 118.85 101.45 119.05 101.95 119.25 102.45 119.75 102.75 120.25 103.05 120.8 102.95
L 121.3 102.7
Q 121.6 102.55 121.7 102.4
M 127.1 105.05
Q 127.1 104.5 126.95 104.1 126.8 103.65 126.45 103.45 126.2 103.1 125.7 103.15 125.2 103.15 124.85 103.5 124.6 103.6 124.35 104.15 123.95 104.8 124 105.4 124.15 106.3 125.1 106.55 126 106.65 126.65 106 127.1 105.55 127.1 105.05
M 133.5 104.4
Q 133.05 104 132.55 103.9 132.05 103.85 131.55 104.15 131.1 104.5 130.95 105 130.75 105.45 131 106 131.15 106.55 131.6 106.8 132.3 107.2 133 106.95 133.45 106.7 133.75 106.25 134.05 105.75 134 105.25 133.95 104.7 133.5 104.4
M 131.1 98
Q 130.6 97.6 130.1 97.7 129.6 97.7 129.15 98.05 128.7 98.45 128.65 99 128.55 99.6 128.85 100 129.1 100.45 129.65 100.65 130.2 100.9 130.7 100.65 131.2 100.45 131.5 99.95 131.75 99.4 131.7 98.9 131.55 98.4 131.1 98
M 127.1 96.65
L 127.05 96.65 126.85 96.7 126.8 96.7 126.8 96.75 126.75 96.85 126.75 96.9 126.85 97.2 127.3 97.1 127.35 96.85 127.35 96.8 127.3 96.75 127.15 96.7 127.1 96.65
M 129.05 89.65
L 129.05 89.7
Q 128.65 89.7 128.35 90 128 90.25 127.9 90.65
L 127.9 91.05
Q 128 91.4 128.15 91.6 128.65 92.1 129.1 91.95 129.7 91.85 130 91.45 130.2 91.1 130.2 90.9 130.2 90.6 130.05 90.3
L 129.9 90
Q 129.6 89.8 129.05 89.65
M 141.3 114.15
Q 141.4 113.8 141.15 113.65
L 140.85 113.6 140.2 113.75 140.05 113.8
Q 139.95 113.85 139.85 114.1 139.75 114.3 139.8 114.4 139.8 114.55 139.95 114.65
L 140.35 114.8 141.15 114.45 141.3 114.15
M 143.85 121.35
Q 143.7 120.7 143.05 120.2 142.45 119.8 141.8 119.8 140.95 119.8 140.25 120.35 139.65 120.95 139.65 121.55 139.6 121.85 139.65 122.1 139.65 122.45 139.8 122.9
L 140.25 123.55
Q 140.8 124 141.5 124.1 142.25 124.15 142.85 123.85 143.45 123.45 143.75 122.7 144 122 143.85 121.35
M 144 110.7
L 144.25 111.05 144.7 111.3 145.1 111.3
Q 145.45 111.25 145.7 110.9 145.9 110.6 145.85 110.2 145.8 110 145.45 109.75 145.4 109.7 144.95 109.4
L 144.95 109.55
Q 144.4 109.65 144.35 109.75 144.1 109.85 144 110.1 143.9 110.35 144 110.7
M 10.8 119.1
Q 10.8 119.8 11.25 120.2 11.55 120.55 11.95 120.6 12.5 120.7 13 120.45 14 119.9 13.8 118.75 13.55 117.6 12.35 117.55 12.4 117.6 12.1 117.6 11.65 117.55 11.25 117.95 10.8 118.45 10.8 119.1
M 17.1 117.3
Q 17.45 116.6 17.3 116 17.15 115.4 16.65 114.9 16.15 114.45 15.5 114.45
L 15.4 114.5
Q 14.75 114.5 14.25 114.95 13.7 115.4 13.6 116
L 13.6 116.7
Q 13.65 117.1 13.95 117.5 14.25 118 15 118.25 15.65 118.4 16.2 118.2 16.8 117.9 17.1 117.3
M 9.95 107.35
L 9.75 107.1 9.7 107.05 9.25 107.05 9.2 107.15
Q 8.9 107.45 8.9 107.65 8.95 107.8 9.2 108.05
L 9.3 108.15 9.6 108.15 9.85 108.05 10.05 107.65 9.95 107.35
M 15.6 104.95
Q 15.5 104.7 15.45 104.6
L 15.35 104.55
Q 15.35 104.5 15.2 104.5
L 14.9 104.5 14.7 104.65
Q 14.55 104.95 14.55 105.05
L 14.75 105.5 14.9 105.6 15.35 105.6 15.4 105.5
Q 15.5 105.45 15.55 105.25 15.7 105.1 15.6 104.95
M 31.85 33.1
Q 31.95 32.3 31.5 31.65 30.95 30.85 30.1 30.75 29 30.6 28.3 31.3 27.75 31.75 27.7 32.5 27.5 33.2 27.85 33.8 28.1 34.4 28.75 34.75 29.4 35 30.05 34.9 30.75 34.85 31.25 34.3 31.8 33.75 31.85 33.1
M 67.4 41.3
Q 66.6 41.25 65.95 41.75 65.35 42.15 65.15 42.95 64.75 44.1 65.55 45.05 66 45.6 66.8 45.85 67.55 45.95 68.3 45.6 68.95 45.25 69.35 44.55 69.65 43.9 69.5 43.1 69.4 42.35 68.8 41.85 68.2 41.35 67.4 41.3
M 47.8 17.2
Q 47.05 17.25 46.55 17.7 45.85 18.3 45.85 19.2 45.8 19.95 46.3 20.55 46.8 21.15 47.5 21.35 48.25 21.5 48.9 21.1 49.6 20.75 49.9 20.05 50.15 19.4 49.95 18.65 49.65 17.9 49.05 17.45 48.45 17.15 47.8 17.2
M 118.3 30.15
Q 118.65 29.2 117.8 28.55 117.05 27.95 116.15 28.55 115.55 28.9 115.55 29.7
L 115.75 30.35
Q 115.85 30.75 116.25 31 117 31.3 117.7 30.9 118.2 30.65 118.3 30.15
M 99.8 39.7
Q 100.15 39.25 100.15 38.6 100.15 38 99.8 37.55 99.3 36.8 98.35 36.8 97.4 36.8 96.95 37.5 96.55 37.95 96.55 38.7 96.55 39.25 96.95 39.75 97.3 40.2 97.85 40.4 98.35 40.55 98.9 40.35 99.55 40.2 99.8 39.7
M 88 25.95
Q 87.55 25.25 86.8 25.05 86 24.8 85.3 24.95 84.5 25.15 84 25.85 83.5 26.5 83.45 27.25 83.4 28.1 83.95 28.8 84.45 29.55 85.3 29.8 86 30.05 86.8 29.75 87.55 29.5 88 28.8 88.5 28.2 88.5 27.4 88.5 26.6 88 25.95
M 118.05 -63.7
Q 114.65 -68.35 110.2 -71 106.75 -73.15 103.3 -73.3 99.85 -73.45 96.6 -71.4 93.55 -69.5 91.5 -66.4 88.5 -61.7 87.3 -52.85 85.3 -36.6 88.85 -20.7 90.3 -14.45 92.35 -9.2 95.75 -0.3 101.25 1.5 104.3 2.5 109.35 1.45 114.1 0.5 116.8 -1.25 122.25 -4.9 124.3 -13.85 125.95 -20.95 125.7 -32.8 125.5 -39.15 125 -43.55 124.3 -49.4 122.8 -54.05 121.1 -59.5 118.05 -63.7
M 104.45 -18.75
Q 104.95 -16.55 105.2 -15.4 105.2 -13.45 105.25 -12.5 105.55 -10.55 105.75 -9.55 105.9 -7.8 105.35 -6.7 104.9 -5.9 104.7 -5.6 104.3 -4.95 104.25 -4.4
L 104.25 -4.35
Q 103.9 -4.4 103.55 -4.45 103.9 -4.9 103.95 -5.45 104 -5.9 103.7 -7.2 103.55 -8 103.45 -9.7
L 103.25 -14.7
Q 103 -19.65 103.55 -22.05 104.05 -21.55 104.25 -20.55 104.4 -19.3 104.45 -18.75
M 23.55 -2.7
Q 21.3 -9 13.45 -15.35 2.15 -24.65 -12.6 -30.25 -22.75 -34.1 -30.85 -34.45 -41.35 -34.8 -48.75 -29.8 -52.15 -27.65 -53.05 -24.95 -53.8 -22.6 -52.8 -19.6 -51.3 -14.8 -45.9 -9.45 -28.35 7.6 3.7 14.1 8.85 15.15 12.4 14.95 17.2 14.8 20.2 12.3 23.35 9.8 24.2 5.45 24.95 1.35 23.55 -2.7
M 11.55 5.75
Q 14.05 7.05 15.2 8.1 13.5 8.5 11.45 8.4 11.1 8.4 10.85 8.4 8.85 7.75 6.45 6.65 3.3 5.15 2.05 3.3 1.5 2.45 1.55 1.75 5.2 2.55 11.55 5.75 Z"/>
</g>
</defs>

<g transform="matrix( 1, 0, 0, 1, 0,0) ">
<use xlink:href="#Layer0_0_FILL"/>
</g>
</svg>
