
<svg xmlns="http://www.w3.org/2000/svg" version="1.1" xmlns:xlink="http://www.w3.org/1999/xlink" preserveAspectRatio="none" x="0px" y="0px" width="300px" height="300px" viewBox="0 0 300 300">
<defs>
<g id="sos_0_Layer1_0_FILL">
<path fill="#000000" stroke="none" d="
M 266.3 11.85
Q 265.114453125 11.3939453125 263.65 11.25 260.3373046875 10.766015625 256.15 11.2 256 10.5 255.45 8.1 255 6.1 254.5 4.95 253.603515625 2.7244140625 252.15 1.55 251.8373046875 1.0599609375 251.45 0.75 250 -0.4 247.5 0.05 243.9 0.75 240.1 4.55 236.2 8.55 233.8 13.45 233.3 14.6 232.7 14.85 232.35 15.05 231.15 15.05 227.9931640625 14.827734375 225.05 15.95 221.7451171875 15.9068359375 220.5 17.6 219.5 18.95 219.75 21.3 220 25.15 222.6 28.8 215.6 23.2 207.5 20.95 197.5 18.15 186.75 20.3 181.05 21.55 176.05 24.05 173.55 25.3 172.4 26.9 165.35 23.95 155.7 23.95 149.1 24.05 143.95 25.4 136.5931640625 27.375 130.9 32.55 130.5947265625 31.6830078125 130.25 30.8 128.949609375 26.60390625 126.25 22.8 121.6841796875 16.04453125 114.75 12.9 111.8181640625 11.1951171875 108.5 10.05 102.9 8.1 97.05 8 92.45 7.9 84.9 9.3 78.15 10.6 73.3 12 56.15 17.1 45.3 28.1 39.4 34 35.8 41.3 32.1 48.95 31.5 56.9 30.95 63.4 32.8 73.3 33.2033203125 75.6390625 34.05 76.8
L 34.05 76.85
Q 28.5 80.85 26.4 83.2 24.25 85.55 22.5 89.05 19.95 94.1 19.2 99.65 18.45 105.35 19.75 110.7 21.05 116.15 24.4 120.75 27.85 125.4 32.65 128.05 36.5 130.2 42.4 131.6 44.37578125 132.0833984375 46.15 132.4
L 39.55 136.45
Q 38.65 137.05 38.05 136.95 37.3 136.85 36.45 135.45 33.8 130.85 29.75 129.25 27.55 128.35 25.2 128.6 22.75 128.8 20.95 130.2 18.25 132.3 17.45 136.55 17 139.2 17.5 143.95 14.95 144 12.8 146.2 10.9 148.1 10 150.95 8.65 155.25 10.55 157.55 11.25 158.4 12.45 158.95 13.1 159.25 14.7 159.8
L 18.4 161
Q 19.35 161.3 19.65 161.75 19.9 162.25 19.8 163 19.4 168.8 20.4 171.75 21.15 174.05 22.8 175.8 24.45 177.6 26.65 178.45 28.9 179.35 31.35 179.1 33.8 178.85 35.7 177.45 38 175.75 40.25 171.25 43.15 172.05 44.75 172.3 47.25 172.75 49.3 172.6 51.75 172.4 53.7 171.3 55.2423828125 170.4236328125 56.15 169.2 56.9134765625 171.1904296875 57.9 174.15 59.5 178.1 61.85 180 59.35 179.8 58.05 179.9 56.288671875 180.02578125 55 180.65 54.2080078125 180.5734375 53.8 180.65 52.65 180.9 51.3 182.25 49.75 183.75 49.15 184.95 48.7 185.85 48.45 187.4 47.45 193.45 48.55 198.4 49.85 204.3 53.8 207.95 55.95 209.85 59.85 211.85 61.963671875 212.9388671875 64.1 213.9 66.6728515625 215.5966796875 69.7 217.05 73.85 219.1 76.6 218.6 76.6865234375 218.5861328125 76.75 218.55 77.4447265625 218.6490234375 78 218.6 78.766796875 218.5361328125 79.45 218.25 80.2736328125 218.0837890625 81 217.75 83.25 216.7 85.3 213.55 88.1 209.1 89.5 202.85 90.5 198.35 91 191.3 91.005859375 191.2271484375 91 191.15 92.92421875 191.0107421875 95.1 190.4 96.9 189.95 100.2 188.7 105.65 186.65 109.25 184.95 114.1 182.65 117.7 180.05 126.75 173.65 129.3 164.8 135.3 168.7 144.05 170.3 149.8 171.35 160.05 171.8 160.491015625 171.8154296875 160.85 171.8 162.63046875 176.7615234375 167.4 182.45 167.8 182.85 168.15 183.25 172.85 188.8 177.2 191.45 180.05 193.25 182.6 193.75 184.6 194.15 186.45 193.75 186.6 193.7 186.8 193.65 187.15 193.55 187.5 193.45 189.3 192.8 191.55 191.15 193.4 189.8 194.25 188.5 194.75 187.85 195.35 186.65 195.7 185.9 196.15 184.8 196.1869140625 184.7095703125 196.2 184.6 196.616796875 183.9162109375 197 183.15 204.35 168.45 202.1 156.25 202.0919921875 156.2064453125 202.05 156.15 209.6603515625 156.309765625 217.05 153.75 227.3 150.2 234.45 142.4 235.1 141.65 235.8 140.9 242.85 132.5 246.3 119.75 249.05 109.1 249.5 93.8 249.75 85.1 248.8 79.45 248.2 76 246.95 71.8 246.35 69.8 244.4 64.3 243.05 60.5 242.45 58.5 242.8 58.3 243.1 58.15 244 57.55 244.9 56.5 245.35 56 246.35 54.5 249.95 49.25 254.75 44.7 257.05 47 260.1 47.8 263.4 48.65 266 47.25 268.2 46.05 269.75 43.3 271.35 40.25 271.25 36.7 271.15 33.05 269.35 30.1 273.3 27.15 274.3 24.25 275.3 21.2 273.75 17.95 272.15 14.85 269.15 13.1 267.9548828125 12.415234375 266.55 11.95 266.4232421875 11.89765625 266.3 11.85
M 232.75 38.3
Q 232.7322265625 38.6681640625 232.65 39.1 232.2427734375 38.5728515625 231.8 38.05 232.296875 38.2236328125 232.75 38.3
M 182.3 68.7
Q 182.75 69.25 183.4 69.9 188.05 74.55 190.3 81.05 192.5 87.5 191.75 93.95 191.15 99.05 188.45 105.3 188.2 105.8 186.4 109.45 185.1 111.9 183.1 115.85 180.9 120.3 179.6 123.95 179 123.25 178.4 122.55 174.4 118.1 173.3 116.3 171.05 113 169.9 109.45 168.6 105.6 168.55 101.45 168.45 92.45 175.15 80.7 178.9 74.45 180.75 71.4 181.55 69.95 182.3 68.7 Z"/>

<path fill="#FFFFFF" stroke="none" d="
M 216.45 192.1
Q 216.2 193 215.85 195.75 215.25 200.7 212.6 201.95 211.55 202.45 208.85 202.55 206.7666015625 202.63671875 204.75 203
L 204.75 203
Q 203.6 199.9 199.7 198.55 196.55 197.4 193.65 198.15 191.4708984375 198.711328125 190 200.05 189.293359375 200.7830078125 188.75 201.7 188.669921875 201.8361328125 188.55 202 188.5615234375 202.0275390625 188.55 202.05 188.12890625 202.93203125 187.6 204.6 187.30859375 205.47421875 187 206.15 185.48125 206.7951171875 184.6 207.75 183.7 208.75 183.3 210.15 182.1 213.8 183.95 217 183.9904296875 217.2109375 184.05 217.4 184.2 217.9 184.95 219.05 184.9931640625 219.1140625 185 219.15 185.0677734375 219.2662109375 185.1 219.35 185.65 220.9 187.95 223.7 188.67265625 224.5390625 189.35 225.25 187.629296875 225.25 186.65 225.25 184.3 225.3 182.65 225.5 177.95 226.1 175.5 228.65 173.1 231.15 172.65 235.3 172.35 238 173 242.7
L 173.95 248.4
Q 174.4529296875 250.9150390625 175.1 252.35 174.0685546875 252.6498046875 172.95 252.95 160.0892578125 256.40625 155.9 257.45
L 261.45 257.45
Q 264.7876953125 255.9916015625 266.55 253.65 266.945703125 252.935546875 267.4 252 267.8244140625 251.0142578125 268.2 249.9
L 268.2 154.8
Q 268.1751953125 154.9453125 268.15 155.1 267.15 161.45 264.9 171.75 264.05 175.5 263.8 176.25 262.2 181.4 259.4 185.45 257.6298828125 188.094921875 255.65 189.75
L 253.9 188.45
Q 252.1 187.15 251.15 186.6 249.65 185.7 248.5 185.6 246.65 185.45 244.75 186.75 242.6 188.35 241.5 189.15 241.29140625 189.27421875 241.1 189.4 240.4208984375 188.8005859375 239.8 188.1 238.784375 186.9240234375 234.85 174.35 236.69140625 185.6986328125 236.6 192.85 236.04765625 193.55703125 235.4 194.4 231.1888671875 190.769921875 228.75 188.9 226.9 187.4 225.65 187.1 224 186.6 221.6 187.25 219.2 187.9 218.1 188.95 216.95 190.05 216.45 192.1
M 226.5 198.3
Q 225.17265625 200.1810546875 225.85 202.6 226.1 203.65 226 203.9 225.95 204.2 225.25 205.1 224.7 205.9 224.65 207.8 224.65 209.8 224.2 210.6 221.6 208.35 220.1 207.9 218.7142578125 207.484375 216.8 207.8 219.0853515625 206.576953125 220.5 204.5 221.7 202.75 222.8 198.35
L 223.5 195.65 226.5 198.3
M 198.45 207.8
Q 197.89296875 207.688671875 197.25 207.6 196.9359375 207.5537109375 196.65 207.5 196.572265625 207.279296875 196.45 207.05 196.1 206.3 195.4 205.85 195.2111328125 205.73515625 195 205.65 195.21171875 205.3283203125 195.45 205.2 196.5 204.75 197.45 205.8 197.75 206.15 198.45 207.8
M 199.6 213.4
Q 199.76484375 213.3806640625 199.9 213.35 198.946484375 214.9224609375 198.3 216.7 197.613671875 216.2013671875 196.6 215.8 195.35 215.35 194.7 215.1 193.6 214.7 192.9 214.25 194.3 213.85 196.25 213.65 197.35 213.55 199.6 213.4 Z"/>
</g>

<g id="sos_0_Layer0_0_FILL">
<path fill="#000000" stroke="none" d="
M 266.55 11.95
Q 266.4232421875 11.89765625 266.3 11.85 265.114453125 11.3939453125 263.65 11.25 260.3373046875 10.766015625 256.15 11.2 256 10.5 255.45 8.1 255 6.1 254.5 4.95 253.603515625 2.7244140625 252.15 1.55 251.8373046875 1.0599609375 251.45 0.75 250 -0.4 247.5 0.05 243.9 0.75 240.1 4.55 236.2 8.55 233.8 13.45 233.3 14.6 232.7 14.85 232.35 15.05 231.15 15.05 227.9931640625 14.827734375 225.05 15.95 221.7451171875 15.9068359375 220.5 17.6 219.5 18.95 219.75 21.3 220 25.15 222.6 28.8 215.6 23.2 207.5 20.95 197.5 18.15 186.75 20.3 181.05 21.55 176.05 24.05 173.55 25.3 172.4 26.9 165.35 23.95 155.7 23.95 149.1 24.05 143.95 25.4 136.5931640625 27.375 130.9 32.55 130.5947265625 31.6830078125 130.25 30.8 128.949609375 26.60390625 126.25 22.8 121.6841796875 16.04453125 114.75 12.9 111.8181640625 11.1951171875 108.5 10.05 102.9 8.1 97.05 8 92.45 7.9 84.9 9.3 78.15 10.6 73.3 12 56.15 17.1 45.3 28.1 39.4 34 35.8 41.3 32.1 48.95 31.5 56.9 30.95 63.4 32.8 73.3 33.2033203125 75.6390625 34.05 76.8
L 34.05 76.85
Q 28.5 80.85 26.4 83.2 24.25 85.55 22.5 89.05 19.95 94.1 19.2 99.65 18.45 105.35 19.75 110.7 21.05 116.15 24.4 120.75 27.85 125.4 32.65 128.05 36.5 130.2 42.4 131.6 44.37578125 132.0833984375 46.15 132.4
L 39.55 136.45
Q 38.65 137.05 38.05 136.95 37.3 136.85 36.45 135.45 33.8 130.85 29.75 129.25 27.55 128.35 25.2 128.6 22.75 128.8 20.95 130.2 18.25 132.3 17.45 136.55 17 139.2 17.5 143.95 14.95 144 12.8 146.2 10.9 148.1 10 150.95 8.65 155.25 10.55 157.55 11.25 158.4 12.45 158.95 13.1 159.25 14.7 159.8
L 18.4 161
Q 19.35 161.3 19.65 161.75 19.9 162.25 19.8 163 19.4 168.8 20.4 171.75 21.15 174.05 22.8 175.8 24.45 177.6 26.65 178.45 28.9 179.35 31.35 179.1 33.8 178.85 35.7 177.45 38 175.75 40.25 171.25 43.15 172.05 44.75 172.3 47.25 172.75 49.3 172.6 51.75 172.4 53.7 171.3 55.2423828125 170.4236328125 56.15 169.2 56.9134765625 171.1904296875 57.9 174.15 59.5 178.1 61.85 180 59.35 179.8 58.05 179.9 56.288671875 180.02578125 55 180.65 54.2080078125 180.5734375 53.8 180.65 52.65 180.9 51.3 182.25 49.75 183.75 49.15 184.95 48.7 185.85 48.45 187.4 47.45 193.45 48.55 198.4 49.85 204.3 53.8 207.95 55.95 209.85 59.85 211.85 61.963671875 212.9388671875 64.1 213.9 66.6728515625 215.5966796875 69.7 217.05 73.85 219.1 76.6 218.6 76.6865234375 218.5861328125 76.75 218.55 77.4447265625 218.6490234375 78 218.6 78.766796875 218.5361328125 79.45 218.25 80.2736328125 218.0837890625 81 217.75 83.25 216.7 85.3 213.55 88.1 209.1 89.5 202.85 90.5 198.35 91 191.3 91.005859375 191.2271484375 91 191.15 92.92421875 191.0107421875 95.1 190.4 96.9 189.95 100.2 188.7 105.65 186.65 109.25 184.95 114.1 182.65 117.7 180.05 126.75 173.65 129.3 164.8 135.3 168.7 144.05 170.3 149.8 171.35 160.05 171.8 160.491015625 171.8154296875 160.85 171.8 162.63046875 176.7615234375 167.4 182.45 167.8 182.85 168.15 183.25 172.85 188.8 177.2 191.45 180.05 193.25 182.6 193.75 184.6 194.15 186.45 193.75 186.6 193.7 186.8 193.65 187.15 193.55 187.5 193.45 189.3 192.8 191.55 191.15 193.4 189.8 194.25 188.5 194.75 187.85 195.35 186.65 195.7 185.9 196.15 184.8 196.1869140625 184.7095703125 196.2 184.6 196.616796875 183.9162109375 197 183.15 204.35 168.45 202.1 156.25 202.0919921875 156.2064453125 202.05 156.15 209.6603515625 156.309765625 217.05 153.75 227.3 150.2 234.45 142.4 235.1 141.65 235.8 140.9 242.85 132.5 246.3 119.75 249.05 109.1 249.5 93.8 249.75 85.1 248.8 79.45 248.2 76 246.95 71.8 246.35 69.8 244.4 64.3 243.05 60.5 242.45 58.5 242.8 58.3 243.1 58.15 244 57.55 244.9 56.5 245.35 56 246.35 54.5 249.95 49.25 254.75 44.7 257.05 47 260.1 47.8 263.4 48.65 266 47.25 268.2 46.05 269.75 43.3 271.35 40.25 271.25 36.7 271.15 33.05 269.35 30.1 273.3 27.15 274.3 24.25 275.3 21.2 273.75 17.95 272.15 14.85 269.15 13.1 267.9548828125 12.415234375 266.55 11.95
M 230.35 47.25
Q 230.45 48.05 230.9 48.55 231 48.65 231.1 48.75 231.7 49.85 232.25 51.05 235.3 57.25 238.45 67.1 241.8 77.35 242.4 84 242.95 89.05 242.35 97.2 241.2 111 238.1 120.05 233.95 132.4 225.85 139.35 224.95 140.15 224 140.9 218.7 144.9 212.05 146.6 207.25 147.8 202.55 147.8 199.35 147.8 196.25 147.15 191.55 146.15 189.1 144.05 188.15 143.25 187.5 142.15 187.1 141.55 186.8 140.9 186.7 140.7 186.6 140.5 186.5 139.75 186.35 138.9 186 137.2 185.6 135.75 185.6 135.3 185.6 134.9 185.75 131.65 187.5 127.05 187.75 126.25 188.15 125.4 192.7 115.8 194.9 111 198.8 102.55 199.75 96.1 201.05 87.7 198.4 79.15 196.05 71.7 191.35 65.95 188.95 64.8 186.95 62.9 186.65 62.55 186.35 62.3 184.1 59.95 182.7 57.15 181.15 53.85 180.4 47.9 179.8 43 179.75 39.55 179.8 36.35 180.4 33.75 180.45 33.2 180.5 32.7 180.55 32.65 180.65 32.6 180.75 32.35 180.85 32.1 180.75 32 180.6 31.9 180.9 29.95 181 28.8 181.2 28.7 181.35 28.65 191.45 24.25 203.05 26.6 214.6 29.05 222.75 37.05 226.95 41.25 230.35 47.25
M 169.7 34.4
Q 170.25 34.7 170.75 34.95 171.4 36.1 172 37.55 173.25 40.5 173.4 40.9 175.65 47.15 176.1 53.85 176.35 57.65 176 61.25 175.9 62.15 175.85 62.9 175.05 64.3 173.05 67.65 169.75 73.4 167 79.3 164.4 84.55 163.25 88.75 160.85 96.35 161.5 104.1 161.75 106.85 162.4 109.45 163.65 114.5 166.35 118.75 167.55 120.8 170.15 123.85 173.1 127.75 174 128.85 176.15 131.9 177.45 134.9 177.5 136.8 177.75 138.65 177.95 139.8 178.25 140.9 178.7 142.65 179.5 144.3 179.45 147.9 177.95 150.95 175.9 154.9 171.4 157.6 165.95 161.1 158.75 161.4 158.15 161.45 157.45 161.45 151.35 161.6 145.2 159.55 136.75 156.65 128 149.5 127.9 145.45 127.2 140.9 127 139.5 126.8 138.1 125.7 132.55 123.45 124.1 123 122.4 122.4 121.35 124.2 120.45 126.35 119.1 132.9 115.1 135.75 110.75 136.15 110.15 136.55 109.45 137.25 108.2 137.9 106.7 139.05 103.95 139.15 102.2 139.35 100.25 138.65 98.75 141.55 97.25 144.25 94.85 148.95 90.8 150.7 86.35 151.3 84.85 151.7 83.25 152.15 81.15 152.2 78.75 152.2 71.65 148.25 65.25 144.35 58.85 138.05 55.45 131.95 52.2 125 52.55 125.1 52.1 125.25 51.45 125.35 51.1 125.55 50.85 128.35 48.6 129.6 46.45 130.65 44.75 131.1 42.25 133.25 39.55 134.9 38.15 142.65 31.5 157.05 31.9 164.6 32.1 169.7 34.4
M 182.3 68.7
Q 182.75 69.25 183.4 69.9 188.05 74.55 190.3 81.05 192.5 87.5 191.75 93.95 191.15 99.05 188.45 105.3 188.2 105.8 186.4 109.45 185.1 111.9 183.1 115.85 180.9 120.3 179.6 123.95 179 123.25 178.4 122.55 174.4 118.1 173.3 116.3 171.05 113 169.9 109.45 168.6 105.6 168.55 101.45 168.45 92.45 175.15 80.7 178.9 74.45 180.75 71.4 181.55 69.95 182.3 68.7
M 112.15 61.65
Q 115.1 59.2 118.85 57.9 122.7 56.6 126.55 56.8 129.3 57 131.95 57.75 137.4 59.45 141.55 63.35 145.75 67.45 147.15 72.65 148.2 76.8 147.2 81.2 147 82.25 146.65 83.25 145.6 86.25 143.65 88.8 141.1 91.95 137.15 93.95 133.3 95.8 129.05 96.1 124.9 96.4 120.6 95.1 116.5 93.8 112.9 91.3 111.05 90.05 109.9 88.65 107.9 86.4 106.9 83.25 106.7 82.5 106.5 81.75 106 79.75 105.85 77.5 105.75 76.3 105.75 75.15 105.75 73.7 105.85 72.2 106.5 69.2 108.15 66.35 109.8 63.65 112.15 61.65
M 44.55 142.1
Q 45.65 141.45 46.6 140.9 49.55 139.05 51.4 137.85 54.05 135.95 56.25 134.2 56.65 137.2 56.7 140.9 56.7 141.95 56.7 143.1 56.7 143.45 56.7 143.9 52 147.4 46.95 152.25 45.9 153.35 45.35 154.05 44.65 155.05 44.45 156.1 44.3 157.5 45.25 159.3 45.75 160.3 47.05 162.3 47.85 163.45 47.7 164.25 47.65 164.55 47.4 164.8 47.05 165.35 46.2 165.25 45.4 165.15 44.7 164.8 43.8 164.25 43.05 163.45 42.5 163 42.1 162.4 40.85 160.8 40.25 160.05 39.05 158.7 37.8 158.75 36.8 158.7 36 159.45 35.3 160.15 34.9 161.2 34.75 161.6 34.55 162.2 34.45 162.6 34.3 163.2 34.1 164.65 33.85 165.3 33.05 167.75 30.6 169.15 29.35 169.85 28.75 169.35 28.2 168.9 28.15 167.7 28 164.65 28.4 161.8 28.45 161.5 28.55 161.3 28.75 159.8 28.7 158.95 28.6 157.25 27.75 156.3 26.65 154.95 23.25 154.85 19.8 154.65 18.65 153.5 19.65 152.25 22.15 151.55 23.95 151 24.15 151 25.25 150.65 25.95 150.1 26.85 149.55 27.35 148.6 27.85 147.65 27.65 146.7 27.5 146 26.85 145.25 26.05 144.4 25.65 143.95 24.25 142.45 24 141.05 23.95 140.95 23.95 140.9 23.8 140.05 24.05 139.35 24.25 138.55 24.9 138.05 26.8 139.25 28.35 140.9 29.55 142.1 30.55 143.55 31.8 145.35 32.3 145.9 33.45 147.1 34.7 147.2 35.95 147.3 37.9 146.1
L 44.55 142.1
M 81.85 76.45
Q 82.95 78.65 83 81.45 83.05 82.35 83.05 83.25 82.85 86.85 81.25 90.3 79.4 94.55 75.85 97.4 72.25 100.25 67.6 101.25 63.15 102.2 58.55 101.15 54.1 100.25 50.45 97.45 46.75 94.55 45.2 90.5 44.9 89.95 44.4 88.3
L 43.65 85.7
Q 43.35 84.45 43.15 83.25 42.9 81.5 43 80.05 43.35 74.6 48.5 69.85 51.6 67 55.3 65.45 59.3 63.9 63.15 64.1 70.75 64.6 78.15 71.5 80.85 74.1 81.85 76.45
M 124.55 34.15
Q 124.729296875 34.7236328125 124.95 35.7 125.1177734375 36.6984375 125.15 37.7 125.2 38.25 125.2 38.8 122.1 43.25 120.65 48.5 120.2 48.85 119.7 49.2 118.4 50.2 116 51.45 115.45 51.65 114.95 51.95 110.55 54.25 104.45 57 102.35 57.85 101.65 58.85 101.1 59.6 101.05 60.55 101.05 61.55 101.7 62.15 102.95 63.3 105.7 61.8
L 106.05 61.7
Q 104.85 63.15 103.95 64.7 101 69.65 100.65 75.15 100.3 79.25 101.45 83.25 101.8 84.65 102.45 86.05 104.8 91.55 109.15 95 112.05 97.35 115.8 98.85 119.6 100.45 123.65 101 127.6 101.6 131.25 101.1 131.25 101.15 131.3 101.25 131.35 101.75 131.35 102.1 131.35 102.6 131.05 103.55 129.7 107.1 128.1 108.85 127.9 109.15 127.6 109.45 126.55 110.5 124.65 111.7 121.6 113.8 119.35 115.05 118.3 115.65 117.45 116 115.75 116.7 115.2 117.15 114.6 117.8 114.4 118.75 114.3 119.7 114.65 120.5 115.25 121.95 116.85 122.45 116.9 123.5 117.3 125.2 118.6 130.4 119.35 133.95 119.8 135.9 120 137.3 120.35 139.1 120.65 140.9 121.3 145.5 121.35 149.5 121.3 156.05 119.65 161.6 119.5 162.05 119.35 162.5 117.45 168.1 113.9 172.1 113 173.05 111.9 174 111.75 174.15 111.55 174.35 108.85 176.85 105.1 178.15 101.85 179.2 98.65 180.2 91.05 182.55 83.05 181.8 80.65 181.35 78.2 180.5 76.5 179.95 74.85 179.35 67 175.8 64.95 167.2 64.9 167.05 64.8 166.85 63.95 163.35 63.3 158.65 62.7 154.65 62.4 149.6 62.3 149.45 62.3 149.35 62.2 149.2 62.1 149.05 62.15 150.65 62.15 153.35 62.05 161.3 62.1 151.2 62.05 149.95 62.1 148.8 61.95 148.3 61.9 147.8 61.85 146.95 62 146.2
L 62.1 146.2
Q 61.8 141.3 61.7 141
L 61.7 140.9
Q 60.7 132.1 59.25 127.35 58.65 125.55 57.65 125.1 56.9 124.85 56.25 125.2 55.7 124.85 55.05 124.7 54.25 124.45 52.05 124.15 47.75 123.75 43.65 122.1 39.6 120.45 36.1 117.9 31.7 114.7 29.65 110.8 27.8 107.3 27.7 102.8 27.65 98.75 29.15 94.7 30.35 91.2 32.8 87.5 33.6517578125 86.222265625 34.75 84.8 35.8453125 83.796875 37.3 82.5 37.325 82.8759765625 37.35 83.25 37.4 85.3 37.9 87.4 39.25 93.55 43.5 98.55 47.75 103.55 53.65 105.85 58.9 107.85 64.5 107.5 71.7 107.05 77.8 102.6 83.95 98.2 86.6 91.4 88.2 87.2 88.25 83.25 88.25 83.15 88.25 83.05 88.15 77 85.05 72.25 83.1 69.3 79.65 66.4 72.85 60.6 66.35 59.4 60.6 58.3 54.75 60.3 49.25 62.3 44.8 66.35 41.9 69.2 40.1 72.3 39.85 67.85 40 65.65 40.05 58.45 41.35 53.15 42.85 47.05 46.35 41.5 46.85 40.6 47.55 39.6 51.65 33.45 57.8 28.85 68.7 20.4 84.7 16.95 90.6 15.8 95 15.75 99.45 15.65 105.7 16.75 107.3267578125 17.0298828125 108.7 17.35 113.1306640625 19.1595703125 116.8 22.3 122.75 27.35 124.55 34.15
M 57 189.85
Q 57.3875 188.4515625 58.15 187.15 60.5763671875 187.629296875 62.65 189.15 65 190.7 66.45 193.05 66.75 193.55 67.3 194.55 67.75 195.5 68.25 196 69.7 197.6 71.35 197.25 72.05 197.05 72.6 196.35 72.95 195.95 73.55 195.1
L 78.4 187
Q 81.6013671875 187.6791015625 84.8 188.05 84.8162109375 188.2244140625 84.85 188.35 84.74375 188.6375 84.65 188.95 83.5 192.7 81.4 200.25 79.5 206.75 77.05 210.85 76.83125 211.2658203125 76.6 211.55 75.8125 211.445703125 74.8 211.1 68.96875 209.1466796875 65.05 206.6 62.4744140625 204.6337890625 60.7 202.4 58.15 198.95 57.3 194.95 56.6767578125 192.2703125 57 189.85
M 183.25 172.3
Q 183.8 171.4 183.8 170.55 183.8 170.4 183.9 170.25 184.45 168.8 186.5 165.7 187.05 164.95 187.5 164.3 188.9 162.2 189.75 161.2 191.9 158.7 193.9 159.2 194.6 164.5 193.3 170.45 192.25 175.3 189.6 181.25 188.5 183.75 187.5 184.95 187.45 185 187.4 185.05 187.25 185.2 187.1 185.35 186.8109375 185.6220703125 186.5 185.85 186.2123046875 185.9619140625 185.9 186.05 183.3 186.7 180.55 185.15 178.85 184.2 176.3 181.65 171.4458984375 176.7958984375 168.95 172.7 167.9328125 170.9380859375 167.45 169.55 167.3 168.8 167.15 168.2
L 167.15 168.15
Q 168.85 167.75 170.45 167.15 170.9 167.6 171.4 168.15 173.1 169.5 177.2 172.15 178.35 173 179.1 173.3 180.25 173.75 181.15 173.65 182.45 173.5 183.25 172.3
M 231.8 38.05
Q 232.296875 38.2236328125 232.75 38.3 232.7322265625 38.6681640625 232.65 39.1 232.2427734375 38.5728515625 231.8 38.05
M 266.9 19.1
Q 267.6 19.7 268.05 20.55 268.4 21.4 268.15 22.25 267.7 23.65 265.1 24.45 262.2 25.3 261.45 26.3 260.8 27.2 260.9 28.55 261 29.7 261.6 30.9 261.9 31.4 262.9 32.95 263.7 34.2 264.05 35.05 264.65 36.7 264.35 38.35 264.15 39.95 263.1 40.6 262.2 41.2 260.9 40.7 259.85 40.25 258.9 39.3 257.8 38.1 257.15 37.55 256.1 36.65 255.05 36.5 253.8 36.25 252.35 37.25 251.45 37.85 250.15 39.3
L 240.2 50.8
Q 239.9 51.15 239.7 51.45 239.15 50.3 238.7 49.25 237.9 47.5 236.9 45.8 237.25 44.9 237.5 43.85
L 239.5 36.6
Q 240.2 34.3 239.55 33.15 239.1 32.45 238.15 32.05 237.85 31.85 236.4 31.35 233.4953125 30.3818359375 228.5 22.95 228.884375 23.0392578125 232.5 23.25 235.3078125 23.4015625 238.1 22.25 240.2 16.95 241.4 14.6 243.55 10.5 246.15 7.9 247.2 7 247.9 7.35 248.25 7.6 248.55 8.4 249.25 10.7 249.35 13.25 249.4 15.6 249.6 16.35 250 18.1 251.05 18.85 252.25 19.6 254.15 19.1 255.25 18.9 257.4 18.05 259.75 17.4 263.55 17.95 265.85 18.35 266.9 19.1
M 79.85 109.45
Q 79.6 111.35 79.7 113.7 79.75 115.3 80.1 116.3 80.95 120.75 84.25 123.55 85.95 125 88.25 125.5 90.5 126.05 92.6 125.35 93.75 124.95 95.3 123.9 97.3 122.7 98.25 121.9 101 119.6 103.3 115.1 103.85 114.25 103.85 113.65 103.85 113.2 103.9 113.05 104.6 113 105.45 113.05 107.1 113 107.85 112.35 108.5 111.75 108.5 110.75 108.4 109.8 107.8 109.1 107 108.45 105.75 108.35 105 108.35 103.55 108.5 102.45 108.75 101.4 108.85 101.1 108.75 100.85 108.75 93.5 108.15 86.35 106.05 84.55 105.6 83.65 105.5 82.15 105.4 81.2 106.2 80.1 107.05 79.85 109.45
M 73.55 74.1
Q 72.6 73.55 71.15 73.4 68.45 73.2 66.3 74.6 65.5 75.15 64.5 76.1 62.9 77.6 62.45 78.55 62 79.55 61.85 81.2 61.7 82.4 61.65 83.25 61.6 83.95 61.65 84.45 61.75 86.3 62.3 87.65 63.15 89.65 65.25 90.55 67 91.45 69.55 91 71.1 90.8 72.25 90.25 73.8 89.5 75.35 87.7 76.8 86 77.3 84.6 77.5 84 77.6 83.25 77.7 82.5 77.7 81.6 77.8 80.45 77.6 79.65 77.35 78.25 75.95 76.4 74.75 74.8 73.55 74.1
M 119 68.25
Q 117.35 68.1 116.55 68.3 115.6 68.4 114.6 69.2 110.7 71.7 110.1 75.25 109.9 76.15 110.1 77.2 110.3 79.85 111.75 81.8 112.3 82.6 112.95 83.25 114.15 84.35 115.65 84.8 117.1 85.3 119 85.15 120.55 85 121.25 84.55 121.95 84.2 123 83.35 123 83.3 123.05 83.25 125.2 81.25 125.95 78.9 126.4 76.85 125.8 74.5 125.1 72.55 123.7 70.65 122.6 69.15 121.35 68.65 120.75 68.35 119 68.25
M 177.65 232.05
L 175.85 234.35
Q 175.05 235.4 174.65 238.05 174.4 239.75 174.45 240.95 174.65 242.95 175.75 243.8 176.55 244.45 177.7 244.35 178.75 244.25 179.45 243.5 180 242.9 180.3 241.9 180.55 240.65 180.65 240 181.1 237.55 182.5 236.5 182.9 237.1 182.9 238.35 182.85 239.9 183 240.35 183.35 241.95 184.85 242.45 186.45 243.05 187.65 242.05 188.4 241.55 189.15 240.2 190 238.8 190.2 238.3 191.1 236.35 191.55 235.95 191.75 235.75 191.9 235.75 192.25 235.75 192.4 236.1 192.85 236.95 192.95 238.75 193.05 240.65 193.4 241.45 194.2 243.25 196.25 243.4 198.3 243.5 199.25 241.8 199.95 240.8 199.95 238.5 199.95 236.7 199.75 235.8 199.35 234.15 197.4 231.15 196.45 229.7 195.6 229.2 194.6 228.6 192.75 228.7 189.35 228.8 187.9 230.5 187.25 231.25 186.85 231.3 186.65 231.3 185.95 230.85 184.75 229.95 183 229.95 181.5 229.95 179.9 230.6 178.35 231.25 177.65 232.05
M 219.55 232.75
Q 219.5 232.9 219.45 235 219.45 235.8 219.15 237.3 218.85 238.85 218.8 239.55 218.7 242.55 220.45 243.7 221.3 244.25 222.4 244.1 223.5 243.95 224.2 243.25 224.85 242.5 225.15 241.2 225.4 239.65 225.5 238.9 225.6 238.1 226.05 237.7 226.3 237.5 226.8 237.5 227.1 237.45 227.65 237.4 227.9 237.35 228.4 237.1 228.85 236.95 229.2 237 229.55 237.05 230.1 237.5 230.65 237.95 231 238 232.35 238.25 232.9 236.05 233.5 233.35 232.5 231.85 231.8 230.8 230.4 230.4 229.15 230.05 227.75 230.25 226.55 230.5 226 230.6 224.95 230.85 224.2 230.8 222.9 230.65 222.3 230.6 221.15 230.5 220.5 230.95 219.75 231.5 219.55 232.75
M 217.7 234.05
Q 216.7 231.65 215.3 230.55 213.7 229.35 211.2 229.35 208.75 229.3 206.55 230.45 204.25 231.6 203.05 233.65 201.9 235.7 202.3 237.5 202.55 238.65 203.75 240.15 206.15 243.05 208.85 244.15 212.35 245.5 215.2 244.05 216.75 243.25 217.55 241.85 218.65 240.2 218.65 238.25 218.7 236.45 217.7 234.05
M 211.65 235.65
L 212 235.75
Q 212.15 235.85 212.25 236.2
L 212.6 237.25
Q 212.7 237.95 212.45 238.3 211.4 238.4 210.9 238.25
L 210.35 237.9
Q 209.95 237.6 209.75 237.25
L 209.65 236.8 209.6 235.55
Q 211 235.65 211.65 235.65
M 206.6 209.55
Q 205.75 208.5 204.1 208.2 203 208 201.05 208.1 199.95 208.15 198.95 208.25 198.85 207.2 198.85 206.2 198.8 204.55 198.6 203.7 198.25 202.35 197.4 201.7 196.55 201.1 195.45 201.3 194.35 201.5 193.8 202.35 193.3 203.1 193.2 204.65 193 206.7 192.9 208.8 191.55 208.95 190.55 209.15 188.45 209.55 187.6 210.15 186.05 211.15 186.1 212.7 186.1 213.55 186.75 214.3 187.2 214.75 187.75 215.05 188 215.2 188.3 215.3 189.05 215.6 190.1 215.65 190.55 215.65 191.9 215.6
L 192.9 215.55
Q 192.95 216.85 193.05 218.2 193.25 220.15 193.75 220.95 194.45 222.05 195.8 222.3 197.15 222.6 198.2 221.85 199.7 220.8 199.85 218.7 199.95 217.95 199.65 215.2
L 202.2 215.05
Q 203.7 214.95 204.4 214.8 205.55 214.5 206.25 213.85 207.15 213.05 207.25 211.75 207.35 210.45 206.6 209.55
M 261.6 240.95
Q 260.7 240 259.5 239.85 258.55 239.75 257.65 240.15 256.7 240.55 256.15 241.3 254.95 242.9 255.55 244.95 256.25 247 258.15 247.55 260.2 248.05 261.6 246.55 263.05 245.1 262.65 243.05 262.45 241.85 261.6 240.95
M 249.7 233.35
Q 248.9 231.2 246.4 230.25 244.75 229.65 241.8 229.65 238.85 229.75 237.3 230.65 235.8 231.55 234.7 233.4 233 236.15 232.85 238.9 232.7 242.2 234.6 244.35 236.45 246.5 240.65 247.35 243.45 248 245.3 247.5 246.5 247.25 247.4 246.5 248.4 245.7 248.7 244.6 249.15 243.3 248.45 242.4 247.75 241.3 245.2 241.2 247.8 239.75 248.95 238.05 250.55 235.7 249.7 233.35
M 240.4 235.85
L 240.8 235.6 241.35 235.55 243.35 235.55
Q 241.85 236.55 239.95 236.95 239.75 236.75 239.95 236.55 240.1 236.2 240.4 235.85
M 253.65 228.25
Q 253.65 231.8 254 234 254.3 235.75 254.95 236.8 255.9 238.25 257.35 238.4 258.15 238.5 258.9 238.05 259.6 237.6 259.95 236.9 260.3 236.15 260.3 234.8
L 260.45 228.45
Q 260.55 225.5 259.65 224.3 258.7 223 257.05 223 255.45 223 254.45 224.35 253.65 225.45 253.65 228.25
M 247.9 189.9
Q 246.15 189.85 243.9 191.25 238.25 194.7 235.2 200.55 232.55 205.45 232.9 210.25 233.05 212.75 234 214.75 234.05 214.9 234.15 215.05 234.75 216.45 235.9 217.85 237.4 219.85 238.8 220.95 241.35 222.85 244.8 223.15 248.1 223.45 251.25 222.25 254.9 220.9 256.8 218.3 257.9 216.85 258.3 215.05 258.45 214.35 258.5 213.6 258.7 210.95 257.6 208.6 256.5 206.35 254.35 204.75 252.25 203.25 249.7 202.85 248.6 202.7 246.7 202.7 244.55 202.7 243.65 202.6 245.65 199.4 248.9 197.25 250.55 196.15 251 195.55 251.6 194.75 251.65 193.7 251.7 192.65 251.15 191.8 250.15 190 247.9 189.9
M 243.95 211.2
Q 244.75 210.75 245.3 210.65 245.7 210.55 246.45 210.55 249.1 210.65 250.05 211.5 250.65 212 250.6 212.6 250.6 213.1 250.05 213.65 249.05 214.65 247.5 214.9 246.8 215 245.3 214.8 243.9 214.7 243.35 214.05 243 213.3 242.7 213
L 242.5 212.7
Q 242.35 212.5 242.4 212.4 242.4 212.1 242.8 211.9
L 243.95 211.2
M 227.45 196.2
Q 227.15 193.3 225.7 192.15 224.6 191.25 223.05 191.5 221.5 191.7 220.7 192.9 220.35 193.35 219.9 194.95 219.1 197.95 219.15 199.45 219.25 201.15 219.1 201.7 218.9 202.4 218.15 203.15 217.05 204.2 215.7 204.55 215.45 204.65 213.4 205 212 205.2 211.3 205.75 210.35 206.45 210.2 207.8 210.05 209.1 210.85 209.95 211.8 211 213.8 211.2 216.5 211.55 219.15 210.55 219.15 212.35 219.6 214.05 218.55 214.4 215.7 214.4 213.35 214.4 212.1 215.05 212 215.1 211.9 215.15 210.35 216.1 210 218.05 209.75 219.9 211.1 221.3 212.1 222.35 214.1 222.9 215.65 223.3 218.15 223.5 222.35 223.9 226.65 223.65 228.85 223.55 230.4 223.05 232.55 222.25 233.25 220.6 234.2 218.6 232.85 216.75 231.7 215.3 229.6 215.05 228.7 214.95 227.7 215.05 226.55 209.5 227 204 227.3 201.4 227.4 200.1 227.6 197.8 227.45 196.2 Z"/>

<path fill="#99CC99" stroke="none" d="
M 268.05 20.55
Q 267.6 19.7 266.9 19.1 265.85 18.35 263.55 17.95 259.75 17.4 257.4 18.05 255.25 18.9 254.15 19.1 252.25 19.6 251.05 18.85 250 18.1 249.6 16.35 249.4 15.6 249.35 13.25 249.25 10.7 248.55 8.4 248.25 7.6 247.9 7.35 247.2 7 246.15 7.9 243.55 10.5 241.4 14.6 240.2 16.95 238.1 22.25 235.3078125 23.4015625 232.5 23.25 228.884375 23.0392578125 228.5 22.95 233.4953125 30.3818359375 236.4 31.35 237.85 31.85 238.15 32.05 239.1 32.45 239.55 33.15 240.2 34.3 239.5 36.6
L 237.5 43.85
Q 237.25 44.9 236.9 45.8 237.9 47.5 238.7 49.25 239.15 50.3 239.7 51.45 239.9 51.15 240.2 50.8
L 250.15 39.3
Q 251.45 37.85 252.35 37.25 253.8 36.25 255.05 36.5 256.1 36.65 257.15 37.55 257.8 38.1 258.9 39.3 259.85 40.25 260.9 40.7 262.2 41.2 263.1 40.6 264.15 39.95 264.35 38.35 264.65 36.7 264.05 35.05 263.7 34.2 262.9 32.95 261.9 31.4 261.6 30.9 261 29.7 260.9 28.55 260.8 27.2 261.45 26.3 262.2 25.3 265.1 24.45 267.7 23.65 268.15 22.25 268.4 21.4 268.05 20.55
M 183.8 170.55
Q 183.8 171.4 183.25 172.3 182.45 173.5 181.15 173.65 180.25 173.75 179.1 173.3 178.35 173 177.2 172.15 173.1 169.5 171.4 168.15 170.9 167.6 170.45 167.15 168.85 167.75 167.15 168.15
L 167.15 168.2
Q 167.3 168.8 167.45 169.55 167.9328125 170.9380859375 168.95 172.7 171.4458984375 176.7958984375 176.3 181.65 178.85 184.2 180.55 185.15 183.3 186.7 185.9 186.05 186.2123046875 185.9619140625 186.5 185.85 186.8109375 185.6220703125 187.1 185.35 187.25 185.2 187.4 185.05 187.45 185 187.5 184.95 188.5 183.75 189.6 181.25 192.25 175.3 193.3 170.45 194.6 164.5 193.9 159.2 191.9 158.7 189.75 161.2 188.9 162.2 187.5 164.3 187.05 164.95 186.5 165.7 184.45 168.8 183.9 170.25 183.8 170.4 183.8 170.55
M 58.15 187.15
Q 57.3875 188.4515625 57 189.85 56.6767578125 192.2703125 57.3 194.95 58.15 198.95 60.7 202.4 62.4744140625 204.6337890625 65.05 206.6 68.96875 209.1466796875 74.8 211.1 75.8125 211.445703125 76.6 211.55 76.83125 211.2658203125 77.05 210.85 79.5 206.75 81.4 200.25 83.5 192.7 84.65 188.95 84.74375 188.6375 84.85 188.35 84.8162109375 188.2244140625 84.8 188.05 81.6013671875 187.6791015625 78.4 187
L 73.55 195.1
Q 72.95 195.95 72.6 196.35 72.05 197.05 71.35 197.25 69.7 197.6 68.25 196 67.75 195.5 67.3 194.55 66.75 193.55 66.45 193.05 65 190.7 62.65 189.15 60.5763671875 187.629296875 58.15 187.15
M 46.6 140.9
Q 45.65 141.45 44.55 142.1
L 37.9 146.1
Q 35.95 147.3 34.7 147.2 33.45 147.1 32.3 145.9 31.8 145.35 30.55 143.55 29.55 142.1 28.35 140.9 26.8 139.25 24.9 138.05 24.25 138.55 24.05 139.35 23.8 140.05 23.95 140.9 23.95 140.95 24 141.05 24.25 142.45 25.65 143.95 26.05 144.4 26.85 145.25 27.5 146 27.65 146.7 27.85 147.65 27.35 148.6 26.85 149.55 25.95 150.1 25.25 150.65 24.15 151 23.95 151 22.15 151.55 19.65 152.25 18.65 153.5 19.8 154.65 23.25 154.85 26.65 154.95 27.75 156.3 28.6 157.25 28.7 158.95 28.75 159.8 28.55 161.3 28.45 161.5 28.4 161.8 28 164.65 28.15 167.7 28.2 168.9 28.75 169.35 29.35 169.85 30.6 169.15 33.05 167.75 33.85 165.3 34.1 164.65 34.3 163.2 34.45 162.6 34.55 162.2 34.75 161.6 34.9 161.2 35.3 160.15 36 159.45 36.8 158.7 37.8 158.75 39.05 158.7 40.25 160.05 40.85 160.8 42.1 162.4 42.5 163 43.05 163.45 43.8 164.25 44.7 164.8 45.4 165.15 46.2 165.25 47.05 165.35 47.4 164.8 47.65 164.55 47.7 164.25 47.85 163.45 47.05 162.3 45.75 160.3 45.25 159.3 44.3 157.5 44.45 156.1 44.65 155.05 45.35 154.05 45.9 153.35 46.95 152.25 52 147.4 56.7 143.9 56.7 143.45 56.7 143.1 56.7 141.95 56.7 140.9 56.65 137.2 56.25 134.2 54.05 135.95 51.4 137.85 49.55 139.05 46.6 140.9 Z"/>

<path fill="#66CC99" stroke="none" d="
M 124.95 35.7
Q 124.729296875 34.7236328125 124.55 34.15 122.75 27.35 116.8 22.3 113.1306640625 19.1595703125 108.7 17.35 107.3267578125 17.0298828125 105.7 16.75 99.45 15.65 95 15.75 90.6 15.8 84.7 16.95 68.7 20.4 57.8 28.85 51.65 33.45 47.55 39.6 46.85 40.6 46.35 41.5 42.85 47.05 41.35 53.15 40.05 58.45 40 65.65 39.85 67.85 40.1 72.3 41.9 69.2 44.8 66.35 49.25 62.3 54.75 60.3 60.6 58.3 66.35 59.4 72.85 60.6 79.65 66.4 83.1 69.3 85.05 72.25 88.15 77 88.25 83.05 88.25 83.15 88.25 83.25 88.2 87.2 86.6 91.4 83.95 98.2 77.8 102.6 71.7 107.05 64.5 107.5 58.9 107.85 53.65 105.85 47.75 103.55 43.5 98.55 39.25 93.55 37.9 87.4 37.4 85.3 37.35 83.25 37.325 82.8759765625 37.3 82.5 35.8453125 83.796875 34.75 84.8 33.6517578125 86.222265625 32.8 87.5 30.35 91.2 29.15 94.7 27.65 98.75 27.7 102.8 27.8 107.3 29.65 110.8 31.7 114.7 36.1 117.9 39.6 120.45 43.65 122.1 47.75 123.75 52.05 124.15 54.25 124.45 55.05 124.7 55.7 124.85 56.25 125.2 56.9 124.85 57.65 125.1 58.65 125.55 59.25 127.35 60.7 132.1 61.7 140.9
L 61.7 141
Q 61.8 141.3 62.1 146.2
L 62 146.2
Q 61.85 146.95 61.9 147.8 61.95 148.3 62.1 148.8 62.05 149.95 62.1 151.2 62.05 161.3 62.15 153.35 62.15 150.65 62.1 149.05 62.2 149.2 62.3 149.35 62.3 149.45 62.4 149.6 62.7 154.65 63.3 158.65 63.95 163.35 64.8 166.85 64.9 167.05 64.95 167.2 67 175.8 74.85 179.35 76.5 179.95 78.2 180.5 80.65 181.35 83.05 181.8 91.05 182.55 98.65 180.2 101.85 179.2 105.1 178.15 108.85 176.85 111.55 174.35 111.75 174.15 111.9 174 113 173.05 113.9 172.1 117.45 168.1 119.35 162.5 119.5 162.05 119.65 161.6 121.3 156.05 121.35 149.5 121.3 145.5 120.65 140.9 120.35 139.1 120 137.3 119.8 135.9 119.35 133.95 118.6 130.4 117.3 125.2 116.9 123.5 116.85 122.45 115.25 121.95 114.65 120.5 114.3 119.7 114.4 118.75 114.6 117.8 115.2 117.15 115.75 116.7 117.45 116 118.3 115.65 119.35 115.05 121.6 113.8 124.65 111.7 126.55 110.5 127.6 109.45 127.9 109.15 128.1 108.85 129.7 107.1 131.05 103.55 131.35 102.6 131.35 102.1 131.35 101.75 131.3 101.25 131.25 101.15 131.25 101.1 127.6 101.6 123.65 101 119.6 100.45 115.8 98.85 112.05 97.35 109.15 95 104.8 91.55 102.45 86.05 101.8 84.65 101.45 83.25 100.3 79.25 100.65 75.15 101 69.65 103.95 64.7 104.85 63.15 106.05 61.7
L 105.7 61.8
Q 102.95 63.3 101.7 62.15 101.05 61.55 101.05 60.55 101.1 59.6 101.65 58.85 102.35 57.85 104.45 57 110.55 54.25 114.95 51.95 115.45 51.65 116 51.45 118.4 50.2 119.7 49.2 120.2 48.85 120.65 48.5 122.1 43.25 125.2 38.8 125.2 38.25 125.15 37.7 125.1177734375 36.6984375 124.95 35.7
M 79.7 113.7
Q 79.6 111.35 79.85 109.45 80.1 107.05 81.2 106.2 82.15 105.4 83.65 105.5 84.55 105.6 86.35 106.05 93.5 108.15 100.85 108.75 101.1 108.75 101.4 108.85 102.45 108.75 103.55 108.5 105 108.35 105.75 108.35 107 108.45 107.8 109.1 108.4 109.8 108.5 110.75 108.5 111.75 107.85 112.35 107.1 113 105.45 113.05 104.6 113 103.9 113.05 103.85 113.2 103.85 113.65 103.85 114.25 103.3 115.1 101 119.6 98.25 121.9 97.3 122.7 95.3 123.9 93.75 124.95 92.6 125.35 90.5 126.05 88.25 125.5 85.95 125 84.25 123.55 80.95 120.75 80.1 116.3 79.75 115.3 79.7 113.7
M 170.75 34.95
Q 170.25 34.7 169.7 34.4 164.6 32.1 157.05 31.9 142.65 31.5 134.9 38.15 133.25 39.55 131.1 42.25 130.65 44.75 129.6 46.45 128.35 48.6 125.55 50.85 125.35 51.1 125.25 51.45 125.1 52.1 125 52.55 131.95 52.2 138.05 55.45 144.35 58.85 148.25 65.25 152.2 71.65 152.2 78.75 152.15 81.15 151.7 83.25 151.3 84.85 150.7 86.35 148.95 90.8 144.25 94.85 141.55 97.25 138.65 98.75 139.35 100.25 139.15 102.2 139.05 103.95 137.9 106.7 137.25 108.2 136.55 109.45 136.15 110.15 135.75 110.75 132.9 115.1 126.35 119.1 124.2 120.45 122.4 121.35 123 122.4 123.45 124.1 125.7 132.55 126.8 138.1 127 139.5 127.2 140.9 127.9 145.45 128 149.5 136.75 156.65 145.2 159.55 151.35 161.6 157.45 161.45 158.15 161.45 158.75 161.4 165.95 161.1 171.4 157.6 175.9 154.9 177.95 150.95 179.45 147.9 179.5 144.3 178.7 142.65 178.25 140.9 177.95 139.8 177.75 138.65 177.5 136.8 177.45 134.9 176.15 131.9 174 128.85 173.1 127.75 170.15 123.85 167.55 120.8 166.35 118.75 163.65 114.5 162.4 109.45 161.75 106.85 161.5 104.1 160.85 96.35 163.25 88.75 164.4 84.55 167 79.3 169.75 73.4 173.05 67.65 175.05 64.3 175.85 62.9 175.9 62.15 176 61.25 176.35 57.65 176.1 53.85 175.65 47.15 173.4 40.9 173.25 40.5 172 37.55 171.4 36.1 170.75 34.95
M 230.9 48.55
Q 230.45 48.05 230.35 47.25 226.95 41.25 222.75 37.05 214.6 29.05 203.05 26.6 191.45 24.25 181.35 28.65 181.2 28.7 181 28.8 180.9 29.95 180.6 31.9 180.75 32 180.85 32.1 180.75 32.35 180.65 32.6 180.55 32.65 180.5 32.7 180.45 33.2 180.4 33.75 179.8 36.35 179.75 39.55 179.8 43 180.4 47.9 181.15 53.85 182.7 57.15 184.1 59.95 186.35 62.3 186.65 62.55 186.95 62.9 188.95 64.8 191.35 65.95 196.05 71.7 198.4 79.15 201.05 87.7 199.75 96.1 198.8 102.55 194.9 111 192.7 115.8 188.15 125.4 187.75 126.25 187.5 127.05 185.75 131.65 185.6 134.9 185.6 135.3 185.6 135.75 186 137.2 186.35 138.9 186.5 139.75 186.6 140.5 186.7 140.7 186.8 140.9 187.1 141.55 187.5 142.15 188.15 143.25 189.1 144.05 191.55 146.15 196.25 147.15 199.35 147.8 202.55 147.8 207.25 147.8 212.05 146.6 218.7 144.9 224 140.9 224.95 140.15 225.85 139.35 233.95 132.4 238.1 120.05 241.2 111 242.35 97.2 242.95 89.05 242.4 84 241.8 77.35 238.45 67.1 235.3 57.25 232.25 51.05 231.7 49.85 231.1 48.75 231 48.65 230.9 48.55 Z"/>

<path fill="#FFFFFF" stroke="none" d="
M 83 81.45
Q 82.95 78.65 81.85 76.45 80.85 74.1 78.15 71.5 70.75 64.6 63.15 64.1 59.3 63.9 55.3 65.45 51.6 67 48.5 69.85 43.35 74.6 43 80.05 42.9 81.5 43.15 83.25 43.35 84.45 43.65 85.7
L 44.4 88.3
Q 44.9 89.95 45.2 90.5 46.75 94.55 50.45 97.45 54.1 100.25 58.55 101.15 63.15 102.2 67.6 101.25 72.25 100.25 75.85 97.4 79.4 94.55 81.25 90.3 82.85 86.85 83.05 83.25 83.05 82.35 83 81.45
M 71.15 73.4
Q 72.6 73.55 73.55 74.1 74.75 74.8 75.95 76.4 77.35 78.25 77.6 79.65 77.8 80.45 77.7 81.6 77.7 82.5 77.6 83.25 77.5 84 77.3 84.6 76.8 86 75.35 87.7 73.8 89.5 72.25 90.25 71.1 90.8 69.55 91 67 91.45 65.25 90.55 63.15 89.65 62.3 87.65 61.75 86.3 61.65 84.45 61.6 83.95 61.65 83.25 61.7 82.4 61.85 81.2 62 79.55 62.45 78.55 62.9 77.6 64.5 76.1 65.5 75.15 66.3 74.6 68.45 73.2 71.15 73.4
M 118.85 57.9
Q 115.1 59.2 112.15 61.65 109.8 63.65 108.15 66.35 106.5 69.2 105.85 72.2 105.75 73.7 105.75 75.15 105.75 76.3 105.85 77.5 106 79.75 106.5 81.75 106.7 82.5 106.9 83.25 107.9 86.4 109.9 88.65 111.05 90.05 112.9 91.3 116.5 93.8 120.6 95.1 124.9 96.4 129.05 96.1 133.3 95.8 137.15 93.95 141.1 91.95 143.65 88.8 145.6 86.25 146.65 83.25 147 82.25 147.2 81.2 148.2 76.8 147.15 72.65 145.75 67.45 141.55 63.35 137.4 59.45 131.95 57.75 129.3 57 126.55 56.8 122.7 56.6 118.85 57.9
M 116.55 68.3
Q 117.35 68.1 119 68.25 120.75 68.35 121.35 68.65 122.6 69.15 123.7 70.65 125.1 72.55 125.8 74.5 126.4 76.85 125.95 78.9 125.2 81.25 123.05 83.25 123 83.3 123 83.35 121.95 84.2 121.25 84.55 120.55 85 119 85.15 117.1 85.3 115.65 84.8 114.15 84.35 112.95 83.25 112.3 82.6 111.75 81.8 110.3 79.85 110.1 77.2 109.9 76.15 110.1 75.25 110.7 71.7 114.6 69.2 115.6 68.4 116.55 68.3 Z"/>
</g>
</defs>

<g transform="matrix( 1, 0, 0, 1, 7.95,21.35) ">
<g transform="matrix( 1, 0, 0, 1, 0,0) ">
<use xlink:href="#sos_0_Layer1_0_FILL"/>
</g>

<g transform="matrix( 1, 0, 0, 1, 0,0) ">
<use xlink:href="#sos_0_Layer0_0_FILL"/>
</g>
</g>
</svg>
