
<svg xmlns="http://www.w3.org/2000/svg" version="1.1" xmlns:xlink="http://www.w3.org/1999/xlink" preserveAspectRatio="none" x="0px" y="0px" width="150px" height="150px" viewBox="0 0 150 150">
<defs>
<g id="Layer0_0_FILL">
<path fill="#FFFFFF" stroke="none" d="
M 88.55 66.65
Q 86.1 61.25 81.75 56.85 77.45 52.6 71.95 49.8 61.8 44.65 48.7 44.65 38.35 44.5 31.15 48.1 25.55 50.8 20.25 56.55 16.85 60.2 11.55 67.6
L 5.85 75.45
Q 4.5 77.35 4.4 78.55 4.4 78.7 4.4 78.85 -0.85 77.7 -5.45 78.45 -11.5 79.35 -15.4 83.4 -19.05 87.15 -20.4 93.4 -20.8 95.15 -21 97.65 -20.65 100.45 -20.35 101.9 -20.4 102.4 -20.4 103 -20.3 110 -18.1 115.15 -16.8 118 -14.25 121.6 -13.7 122.2 -13.2 122.7 -14.1 124.3 -15.9 126.05 -16.95 127.2 -19.15 129.35 -24.05 134.35 -26.45 140.25 -29.05 146.75 -27.9 152.9 -26.9 158.45 -22.85 163.1 -19 167.6 -13.55 170 -3.75 174.3 9.2 171.95 21 169.8 29.7 163.4 39.2 156.3 43.2 146 43.75 146.2 44.5 146.3 45.25 146.5 46.75 146.65 48.45 147 51.8 147.9 52 147.95 52.2 147.95 49.15 154.05 49.65 162.5 50.05 167.75 51.6 171.8 53.9 177.6 60.3 184.15 64.5 188.5 67.75 189.9 72.95 192.1 76.95 189.8 78.8 188.7 80.35 186.6 80.6 186.4 80.75 186.1 81.45 188.75 82.7 191.2 84.95 195.4 88.9 198.25 92.85 201.15 97.45 201.75 102.15 202.4 106.7 200.55 111.3 198.7 113.95 194.9 112.35 194.55 110.25 195 109.95 195.05 106.65 196.05 97.5 198.7 91.85 195 89.15 193.35 87.5 190.35 86 187.5 85.7 184.15 85.2 178.1 88.7 171.85 91.15 167.45 94.55 164.4 96.65 162.55 100.7 160.05 105.55 157.05 107.1 155.85 110.1 153.55 114.8 148.6 120.25 142.8 122.2 138.95 123.95 135.5 124.7 130.75 125.2 127.6 125.4 122.15
L 125.65 115.45
Q 126.45 114.7 127.3 113.9 130 111.35 131.25 109.95 133.3 107.55 134.15 105.25 134.45 104.4 134.6 103.5 134.8 103.4 134.9 103.35 137.15 102.45 139.8 102.85 142.3 103.25 144.25 104.8 146.75 106.7 148.65 110.95 153 120.8 151.8 131.45 151.3 136.5 148.65 144.6 145.5 153.8 141.75 161.85 137.4 171.25 133.2 175.9 130.15 179.25 125.55 182.45 122.55 184.5 116.8 187.8 113.2 189.9 111.25 190.85 108.1 192.4 105.35 193 104.8 193.15 104.55 193.35 104.15 193.7 104.3 194.05 104.55 194.55 105.55 194.15 108.35 193.1 114.75 191.45 120.85 189.9 123.95 188.6 135.6 183.85 143.9 171.55 150.05 162.7 155.25 147.65 158.65 137.75 159.25 131.45 160.05 122.05 156.6 112 153.15 102.15 147.15 98.75 143.75 96.85 139.6 97.1 136.9 97.3 134.55 98.3 134.5 98.2 134.5 98.15 133.7 94.55 131.4 91.65 127.35 86.55 119.45 83.9 114.45 82.2 109.5 81.95 104.15 81.8 99.5 83.4 91.85 86.1 83.95 94.8 79.45 99.6 77.55 103.95 76.75 102.5 75.65 101.15 74.05 99.15 72.1 97.75 75.55 97.9 79.15 96.45 84.9 94.1 87.95 89 90.85 84.2 90.9 78 91 72.15 88.55 66.65
M 93.55 94.8
Q 97.45 91.6 101.2 90.3 107.9 88 115.6 90.15 122.45 92 125.9 96.2 128.2 99.15 127.75 101.7 127.4 103.35 125.6 105.5 123.25 108.35 119.95 111.15 117.15 113.5 110.5 117.95 104.2 122.15 101.2 124.8 94.1 130.95 87.45 142.55 84.6 147.35 83.2 151.05 81.25 155.8 81.1 160.1 81 163.25 82.1 168.8 81.4 170.8 80.6 173.2 78.5 178.65 75.75 181.9 74.4 183.5 73.1 183.85 71.7 184.25 69.9 183.35 67.2 182.2 64.2 179.05 58.5 173 56.95 166.75 56 163 56.3 157.45 56.75 152.1 58.45 149.5 59.05 148.7 59.35 148.2 64.5 147.9 67.45 147.3 72.3 146.25 75.35 143.75 77.6 141.9 79.8 138.5 81.85 135.1 82.45 132.75 83.6 128.9 82.75 122.9 81.95 116.75 79.35 113.25 79.4 112.9 79.4 112.55 79.5 110.65 79.25 108.8
L 86.95 100.9
Q 91.1 96.7 93.55 94.8
M 86.05 75.95
Q 87.3 81.95 85.4 86 83.5 90.5 78.05 93.05 74.05 94.8 67.95 95.4
L 67.9 95.4
Q 66.7 94.95 65.45 94.6 63.7 94.25 62.25 94.25 60.6 94.3 58.45 95.2 53.7 97.1 50.75 100.2 47.25 104 46.65 108.35 46.3 111.1 47.25 113.8 48.15 116.45 50 118.55 52.45 121.2 57.1 122.85 59.8 123.85 62.15 123.95 64.55 124.2 67.95 123.6 70.95 123.05 72.65 122.15 74.65 121.2 76.35 119.25 78.15 124.45 76.95 129.8 76.1 133.2 74.05 136 71.9 138.9 68.9 140.4 65.95 141.95 61.3 142.5 53.25 143.35 45.6 141.25 43.5 140.8 43.2 140.8 42.85 140.8 42.55 140.85 42.3 140.7 42 140.6 39.9 140.1 38.1 143.9 33 154.7 22.5 160.9 12.15 167.05 0.05 166.4 -7.8 165.95 -13.3 162.4 -16.4 160.35 -18.35 157.45 -20.45 154.4 -20.95 150.95 -21.7 145.35 -18.1 139.3 -15.7 135.35 -10.1 130 -7.5 127.35 -6.7 125.95 -5.15 123.15 -6.3 120.85 -6.85 119.65 -8.15 119.15 -8.45 119.05 -8.65 118.95 -9.05 118.35 -9.7 117.65 -12.95 113.85 -14.35 107.75 -14.5 104 -14.4 100.4 -14.3 96 -13.5 93.25 -12.35 89.35 -9.8 87.15 -7.5 85.1 -3.55 84.4 -1.65 84.05 1.95 84.15 1.85 84.25 1.75 84.35 0.8 85.85 0.05 88.15 -0.85 91.65 -0.5 95.3 -0.15 99 1.55 102.1 3.25 105.3 6.3 107.4 9.45 109.5 12.95 109.85 16 110.25 19.7 109.2 25.7 107.6 29.4 103.95 33.05 100.3 33.1 96.25 33.2 94.5 32.4 92 29.85 84 24 79.95 20.85 77.75 17.1 77.2 13.2 76.5 9.75 77.85 9.65 77.9 9.6 77.95 15.8 68.5 23.5 60.5 27.75 56.1 31.1 54.2 35.2 51.9 41.55 51 56.95 48.7 68.9 54.85 75.3 58.1 79.85 63.55 84.55 69.25 86.05 75.95
M 18 81.1
Q 15.1 82.3 13.05 85.35 12.1 86.8 11.85 88.2 11.55 90.2 12.55 93.7 13.2 95.6 13.5 96.05 14.75 98.6 18.9 100.55 20.45 101.2 21.35 101.3 22.45 101.5 24.15 101.15 26.9 100.4 28.5 98.7 28 99.75 27.15 100.7 26.1 101.85 24.15 102.9 20.35 105.05 16.55 105.3 12.2 105.75 9 103.5 8.2 102.9 7.1 101.85
L 6.2 100.45
Q 5.75 99.75 5.05 98.1 4.4 96.5 3.95 95.75 3.1 94.35 2.95 93.85 2.6 92.9 2.7 91.6 3.1 88.7 4.7 86.3 6.5 83.85 9 82.25 11.7 80.7 14.15 80.65 16.15 80.55 18 81.1
M 63.3 111
Q 66.95 109.3 68.1 107.45 68.7 106.55 69 105.25 69.45 103.55 69.25 102.1 69.2 101.65 69.2 101.3 70.5 102.3 71.25 103.1 74.65 106.75 74.65 111.7
L 74.65 111.95
Q 73.95 112.65 74.1 113.85 73.75 114.5 73.1 115.3 72.25 116.35 71.4 117 70.55 117.7 68.3 118.45 64.95 119.35 62.65 119.2 59.95 119.05 56.6 117.45 54.95 116.7 54.1 115.9 52.1 114.25 51.05 110.4 50.55 108.6 50.7 107.75
L 51.1 106.1
Q 51.3 105.1 51.6 104.55
L 51.65 104.6
Q 52.05 107.1 53 108.4 53.6 109.2 54.6 110.05 57.2 112.05 59.35 112.1 60.9 112.15 63.3 111
M 117.95 121.9
Q 118.9 121.25 120.15 120.2 119.9 121.7 119.75 123.4 119 130.15 117.8 133.35 116.1 137.8 111.8 142.65 106.15 148.95 99.25 153.35 98.45 153.85 95.65 155.65 93.35 157.05 92.05 158 90.35 159.25 88.9 160.7 88.8 158.3 88.5 156.2 91.9 147.9 98.25 139.25 103.35 132.2 108.25 128.4 110 127.05 113.05 125.1 116.85 122.7 117.95 121.9
M 34 133.15
Q 34.45 132.55 34.45 131.6 34.4 130.75 33.95 130.1 33.25 128.95 31.45 128.2 29.4 127.6 28.4 127.2 27.3 126.8 26.75 126.7 25.7 126.45 25.05 126.7 24.35 126.85 23.9 127.5 23.45 128.05 23.4 128.75 23.35 130.5 25.5 131.7 26.55 132.25 29 133.05
L 30.25 133.65
Q 31 134 31.55 134.05 33.2 134.3 34 133.15
M 63.4 -22.2
Q 53.8 -15.8 50.05 -8.25 47.75 -3.75 47.65 1.2 47.5 6.4 49.9 10.45 51.4 12.9 53.15 13.5 53.3205078125 13.562109375 53.5 13.6 54.0984375 15.69375 55.55 17.75 55.6404296875 17.88984375 55.75 18 55.912109375 18.3494140625 56.15 18.7
L 57.1 20
Q 57.6 20.75 58.05 21.2 58.4 21.6 59.1 22.1 60 22.85 60.85 23.3
L 62.2 23.85
Q 63.7 24.25 64.55 24.25 64.761328125 24.2359375 64.95 24.2 65.4462890625 25.026953125 65.7 25.35 66.35 26.35 67.15 26.8 67.6916015625 27.1353515625 68.25 27.2
L 68.75 27.6 69.7 27.95
Q 70.8 28.4 71.65 28.5 72.45 28.7 74.15 28.7 74.41953125 28.7 74.65 28.7 74.54765625 29.22421875 74.6 29.8 74.7 31.1 76.3 33.55 76.5271484375 33.9044921875 76.8 34.4 75.1791015625 34.2919921875 73.25 34.25 69.408984375 34.2873046875 66.95 34.25 66.7853515625 33.012109375 66.05 31.95 65.2 30.65 63.8 30 61.5 29 58.5 29.95
L 55.35 31.2
Q 52.4 32.75 51.9 35.25 51.8 35.65 51.8 37.1 51.8 38.1 52.05 38.8 52.65 40.9 55.15 41.9 57.3 42.75 59.4 42.4 60.9 42.15 63.15 41.05 63.22421875 41.0109375 63.3 40.95 64.8666015625 41.064453125 67.6 40.7 73.55 40.1 79.8 40.5 80.091796875 40.5126953125 80.35 40.5 80.785546875 41.2716796875 81.25 42.1 84.25 47.4 86.45 50.4 88.6 53.3 90.65 54.7 92.85 56.25 97.9 57.55 104.64765625 59.269921875 110.15 60.05 109.0625 62.0587890625 108.4 63.15 107 65.55 105.65 67.15 105.6 67.3 105.4 67.3 105.3 67.3 105.2 67.1 103.85 64.8 102.5 63.95 101.6 63.4 100.55 63.35 99.45 63.3 98.6 63.85 97.1 64.9 97.2 67.05 97.25 68.5 98.25 70.5 98.75 71.55 100.05 73.55 101.35 75.35 102.4 75.9 104.2 76.9 106.05 76.1 107.55 75.5 109.25 73.2 111.75 69.85 113.75 66.55 115.75 63.4 116.35 61 116.3916015625 60.850390625 116.4 60.7 121.13515625 60.983203125 125.4 60.55 131.3162109375 59.937890625 136.5 57.9
L 136.5 64
Q 136.05 64.2 134.95 63.75 133.8 63.35 132.55 63.65 131.3 63.95 130.5 64.85 129.85 65.75 129.75 66.95 129.7 68.15 130.25 69.1 131.35 71.15 133.85 71.55 135.05 71.75 136.95 71.45 139.1 71.25 140.2 70.65 142 69.7 142.05 68.1 142.1 67.7 141.95 67.15
L 141.75 66.15
Q 141.65 65.5 141.65 64.3
L 141.65 57.2
Q 141.65 56.241796875 141.5 55.5 146.3984375 52.711328125 149.75 48.65 151.35 46.65 151.6 45.15 151.603515625 45.11484375 151.6 45.05 152.313671875 44.591796875 152.5 43.8 152.65 43.25 152.6 42.45 152.45 41.55 152.4 41.1 152.3 40.4 152.3 39 152.2974609375 38.8916015625 152.3 38.75 152.5349609375 38.817578125 152.8 38.85 154.1 39 156.6 39.7 158.6 40.2 159.55 40.5 161.7474609375 41.0421875 163.25 41.2 163.0833984375 42.815234375 164.05 44.15 165.05 45.5 166.75 46 168 46.4 170.1 46.3 172.9 46.05 174.8 44.65 177.15 42.9 177 40.35 177 39.45 176.55 38.3 176.2 37.45 175.9 36.95 174.9 35.2 172.75 34.3 170.8 33.55 168.6 33.7 166.9 33.8 165.75 34.4 165.25 34.7 164.4 35.45 164.319921875 35.523046875 164.25 35.6 162.1193359375 34.7021484375 157.5 33.85
L 155.2 33.5
Q 153.9 33.35 152.4 33.45
L 152.35 33.45
Q 152.36484375 33.0189453125 152.4 32.65 152.65 29.75 152.6 29.15 152.2 27.25 152.1 26.25 151.9 24.9 151.55 24.55 151.4556640625 24.4384765625 151.35 24.35 151.8021484375 24.2099609375 152.6 24 152.9 23.9 153.65 23.35 154.95 22.35 155.5 21.75 156.65 20.7 156.95 19.75 157.1 19.3 157.1 18.4 156.9814453125 17.5412109375 156.55 16.95 157.934765625 15.3728515625 158.35 13.85 158.7 12.75 158.6 11.3 158.58125 10.7724609375 158.5 10.25 162.214453125 8.048828125 164.9 6.1 171.05 1.65 173.75 -3 175.4 -5.9 175.8 -9.05 176.25 -12.45 175.1 -15.3 174 -18 171 -21 162.65 -29.25 149.45 -33.4 139.3 -36.5 124.7 -37.3 117.55 -37.65 113.25 -37.45 99.75 -36.85 82.45 -31.05 76.4 -29 72 -27 67.4 -24.8 63.4 -22.2
M 61.9 18.85
Q 61.7302734375 18.7701171875 61.55 18.65 60.0828125 17.6837890625 59.05 16.8 58.537890625 16.0056640625 58.3 15.5
L 57.6 13.85
Q 57.15 13 57 12.55 56.9451171875 12.38515625 56.9 12.15 56.9291015625 12.1095703125 56.95 12.05 57.3 11.25 57 10.15 56.9423828125 9.9388671875 56.8 9.6 56.871875 8.78046875 57 8.3 57.0115234375 8.2642578125 57 8.2 57.7525390625 10.9353515625 58.6 12.9 59.15 14.15 60.55 16.55
L 61.9 18.85
M 152.5 6.4
Q 152.8115234375 6.7505859375 153.3 7.5 151.0611328125 8.7736328125 148.65 9.75 145.7 10.9 144.85 11.95 144.05 12.8 144 14 143.9 15.2 144.75 15.9 146.2 17.05 149.15 15.45 152.2234375 13.85234375 154.85 12.35
L 154.95 12.75
Q 155 13.3 154.85 14.05 154.6548828125 15.18203125 154.2 16.2 153.694921875 16.378515625 153.35 16.8 153.076171875 17.1650390625 152.75 18.4 152.73046875 18.4283203125 152.7 18.45 152.15 18.9 151.25 19.15 150.35 19.45 149.25 19.6
L 147.55 19.65
Q 146.15 19.65 145.45 19.5 144.4 19.25 143.6 18.75 142.8 18.3 142.05 17.45 141.45 16.75 141.25 16.1 141.05 15.65 141.05 14.9 141 13.75 141.25 12.1 141.65 9.3 141.65 9.25 141.75 8.2 141.9 7.95 142.15 7.5 142.7 7.05 144.45 5.6 146.15 5.05 148.45 4.35 150.8 5.3 151.7 5.65 152.5 6.4
M 59.35 -9.25
Q 63.4 -13.7 69.5 -17.3 74.4 -20.15 81.35 -22.8 89.9 -26.1 99.4 -28.25 107.2 -29.95 113.2 -30.35 118.6 -30.7 126.2 -30.2 139.65 -29.4 148.25 -26.6 160.15 -22.75 167.1 -14.9 168.95 -12.8 169.1 -11.15 169.2 -9.55 167.85 -7.1 164.65 -1.45 159.7 2.95 158.3125 4.1572265625 156.85 5.2 155.634375 3.2171875 153.8 2.05 152.6 1.35 151.05 0.85 147.65 -0.15 144.9 0.65 143.35 1.1 141.5 2.25 138.95 3.95 137.55 5.9 135.75 8.2 135.6 10.85 135.5 12.35 136.25 12.9 136.45 13.1 136.95 13.5 137.15 13.75 137.05 14.9 136.7 17.1 138.5 19.35 140.05 21.3 142.55 22.4 144.9 23.4 147.5 23.45 149.091015625 23.45 150 23.1 149.5912109375 23.4248046875 149 23.75 147.6 24.45 145.9 24.85
L 142.85 25.45
Q 142.15 25.7 142.1 26 142.1 26.45 142.5 26.6 142.6 26.65 143.1 26.65 146.8287109375 26.0826171875 148.85 25.35 148.8328125 25.5369140625 148.8 25.75 148.3 28.1 148.15 29.45 148 31 148 34.15
L 148 39.4
Q 148 40.7 147.9 41.3 147.7431640625 42.4599609375 147.65 42.95
L 147.65 43
Q 147.05 43.55 145.8 45.45 143.25 49.4 138.75 52.1 134.7 54.55 129.55 55.7 122.6 57.35 115.4 56.45 111.8 56 107.05 54.7 101.55 53.15 98.8 52.35 96.7 51.75 95.9 51.45 94.3 50.85 93.3 50 92.25 49.15 91 47.35 85.05 38.95 80.25 29.65 79.548046875 28.24609375 78.8 27.45
L 79.9 27.3
Q 80.55 27.2 80.8 26.6 80.4 26.4 79.75 26.25 78.7 26.1 78.6 26.05 77.65 25.65 77.15 25.45 75.95 24.9 73.9 24.4 71.25 23.75 70.6 23.55
L 70.4 23.5
Q 70.256640625 23.2255859375 70.05 22.95 68.8 21.55 68.35 20.7 68.25 20.55 67.6 18.95 67.3 18.3 65.9 16.05 63.35 12.2 61.8 8.05 60.8603515625 5.50546875 60.15 4.25 60.2119140625 4.1826171875 60.25 4.1
L 60.25 4.05
Q 60.4380859375 3.8810546875 60.65 3.65 61.4 2.85 63.55 1.35 72.5 -4.65 78.55 -6.55 79.05 -6.7 82.6 -7.7 85.05 -8.35 86.6 -9 87.45 -9.35 89.1 -10.1 90.55 -10.7 91.7 -10.75 91.95 -10.75 92.15 -10.9 92.35 -11.1 92.2 -11.25
L 92 -11.3
Q 82.55 -12.75 74.55 -10.05 71 -8.8 66.25 -6.05 60.1 -2.3 57.35 1.25 56.4853515625 2.37421875 56.4 3.2 55.88984375 3.725390625 55.55 4.15 55.3484375 4.378515625 55.15 4.6 54.9111328125 3.36328125 54.85 2.1 54.65 -1.25 55.85 -4.05 56.85 -6.5 59.35 -9.25
M 116.15 47.3
Q 113.2 47.6 112.4 48.9 112 49.55 112.05 50.4 112.15 51.2 112.6 51.85 113.45 53.15 115.25 53.4 116.45 53.65 118.4 53.25 119.9 52.85 121.2 52.35 122.4 51.8 123 51.2 123.9 50.3 123.65 49.25 123.4 47.85 121.3 47.35 119.8 47 116.15 47.3
M 115.35 51.2
Q 115.4 50.85 114.9 50.4 114.45 49.9 114.4 49.6 114.95 49.15 116.3 49.15 117.9 49.15 119.6 49.55 117.65 50.55 115.35 51.2
M 132.15 33.25
Q 132.15 32.2 132.05 31.65
L 131.6 30.45
Q 130.4 27.9 128.4 26.2 127.5 25.55 127.1 25.35 126.35 25.1 125.4 25 123.8 24.85 122.55 25.4 121.05 26.1 120.6 27.4 120.4 27.85 120.4 28.45 120.1 31.7 122.25 34.2 123.6 35.65 125.15 36
L 126.4 36.2
Q 126.9 36.3 127.85 36.65 129.2 37 130.3 36.4 131.55 35.8 131.95 34.6 132.15 34 132.15 33.25
M 112 -10.45
Q 101.65 -9.15 85.45 -5.2 79.1 -3.65 75.85 -2.5 71.3796875 -0.8296875 68.85 1.15 68.198828125 0.9802734375 67.85 1.05 66.9 1.1 66.5 2.2 66.05 3.2 66.5 4.15 67.25 5.6 69.6 6.55 76.8 9.55 89 9.65 105.2 9.9 120.8 7.5 128.25 6.35 133.25 4.8 139.9 2.8 144.7 -0.5 146.35 -1.6 146.85 -2.5 147.85 -4 147.05 -5.35
L 147 -5.35
Q 146.705859375 -7.018359375 144.75 -8.35 142.8 -9.7 138.8 -10.35 126.8 -12.3 112 -10.45
M 93 26.25
Q 91.85 25.3 91.3 25.15 90.7 24.9 89 24.9 87.8 25 87.3 25.25 86.85 25.45 86.15 26.15 85 27.3 84.75 28.05 84.5 28.65 84.6 29.65 84.75 30.8 85.25 31.65
L 86.05 32.8
Q 87.85 35.05 89.45 35.75 91.65 36.7 93.95 35.7 94.75 35.3 95.1 35 96.3 33.95 96.3 32.1 96.25 30.55 95.25 29.1
L 94.65 28.3
Q 94.05 27.35 93.9 27.2 93.8 27.05 93 26.25 Z"/>
</g>
</defs>

<g transform="matrix( 1, 0, 0, 1, 0,0) ">
<use xlink:href="#Layer0_0_FILL"/>
</g>
</svg>
