
<svg xmlns="http://www.w3.org/2000/svg" version="1.1" xmlns:xlink="http://www.w3.org/1999/xlink" preserveAspectRatio="none" x="0px" y="0px" width="300px" height="300px" viewBox="0 0 300 300">
<defs>
<g id="stoopy_0_Layer0_0_FILL">
<path fill="#669966" stroke="none" d="
M 190.85 79.6
Q 187.9 68.85 181.45 57.85 177.5 51.15 173.6 46.85 164.8 36.95 151.05 32.05 139.35 27.75 124.6 27.4 115.9 27.2 109.35 28.6 103.5 29.9 94.4 33.95 84.3 38.25 77.6 42.2 66.95 48.6 58.9 57.4 57.2 59.2 55.8 60.95 52.15 63.95 48.1 66 39.6 70.4 30.85 70.15 25.1 70.1 20.8 67.7 16.9 65.6 14.1 61.7 11.5 57.95 10.5 53.4 8.8 45.45 12.05 36.15 14.5 28.9 19.1 22.65 25.4 14.35 33.15 11.95 37.55 10.55 42.3 11.25 47.2 12.05 50.65 15.15 54.5 18.55 55.55 23.85 56.65 29.15 54.5 33.65 52.5 38 48.05 40.85 43.75 43.55 38.65 43.95 37.65 44 37.1 43.75 36.6 43.45 36.35 42.8 36.15 42.3 36.3 41.65 36.5 41 37.55 39.65 41.15 35.5 39.6 32.5 38.95 31.2 37.5 30.5 36.1 29.85 34.55 30.05 31.9 30.45 29.65 32.95 27.7 34.95 26.75 37.6 25.75 40.3 25.95 43.1 26.2 45.95 27.75 48.45 29.3 51.15 31.8 52.65 36.6 55.45 43.7 53.95 52.05 52.3 58.3 46.35 64.6 40.35 66.15 32.25 67.75 24 63.9 15.85 60 7.5 52.45 3.35 46.9 0.3 40.15 0.05 33.7 -0.25 27.8 2.1 16.75 6.25 9.05 17.65 4.2 24.85 1.85 33.1 -1.2 43.9 0.8 53.65 1.9 58.9 4.55 63.55 7.3 68.35 11.4 71.7 18.55 77.6 28.55 78.55 38.35 79.45 47.55 75.1 45.7 79.95 45.35 84.85 45.05 88.65 45.55 93.45 45.9 96.45 46.9 102.15 48.45 111.25 50.25 115.85 52.1 120.65 55.7 125.85 62.8 136 73.3 143.25 83.7 150.5 95.65 153.65 98.05 154.3 100.45 154.75 98.7 163.6 92.25 174.75 88.3 181.4 80.25 194.8 78.6 198.05 77.9 200.45 77.05 203.75 77.65 206.5 78.5 210.45 83.3 215.15 93.5 225.5 107.05 231.25 120.75 237.15 134.75 236.9 149.05 236.65 161.6 230.15 174.3 223.45 181.8 212.3 184.25 208.75 185.05 205.6 186.55 202.85 187.05 199.1 187.55 195.25 187 190.05 186.05 181.75 183.55 172.2 182.3 167.7 181.1 164.3 176.65 151.15 168.7 139.75 171.3 137.9 173.65 135.85 181.3 129.2 186.15 120.8 191.35 111.9 192.65 102.4 194.15 91.6 190.85 79.6
M 181.25 74.05
Q 185.55 85.3 185.55 94.35 185.5 99.75 183.85 106.1 182.35 112 179.85 116.8 176.35 123.85 170.2 129.8 166.15 133.65 161.25 136.75 161.9 136.85 162.45 137.05 162.4 137.1 162.45 137.2 162.5 138.2 163.3 139.8 170.25 154.6 173.7 164.65 178.55 178.5 179.5 190.5 180.05 196.05 179.25 199.7 179.2 199.95 178.3 203.15 177.95 204.55 177.8 205.6 173.95 211.4 170.4 214.9 163.05 222.2 152.35 225.45 142.05 228.7 131 227.5 120.35 226.35 110.05 221.2 100.1 216.25 91.95 208.3 89.85 206.25 89.4 204.65 88.85 202.6 90.5 199
L 101.2 175.4
Q 104.15 168.9 105.3 165.4 107.15 159.7 107.25 154.85 107.3 154.4 107.3 154 108.6 152.8 110.7 151.5 112.75 150.2 114.75 149.1 113.85 149 113 149 109.35 148.65 102.45 147 97.45 145.8 95.05 145.1 90.95 143.9 87.8 142.45 84.25 140.85 80.3 138.1 77.55 136.2 73.3 132.8 67.7 128.3 65.15 125.4 61.05 120.6 58.25 113.5 56.35 108.55 54.3 100.2 52.6 93.1 52.45 89.15 52.2 75.1 65.35 61.5 72.55 54.05 81.35 48.8 86.5 45.7 93 42.7 100.9 39.05 106.85 37.2 114.7 34.8 121.65 34.6 127.9 34.4 137.75 36.2 148.05 38.15 154.4 41.3 163.55 45.75 170.7 55 177.05 63.15 181.25 74.05
M 56.9 87.6
Q 56.05 89.45 56 90.3 55.8 91.45 56.1 92.75 56.45 94.45 57.3 95.8 58.3 97.25 59.75 97.8 61.8 98.75 65.05 97.7 72.75 95.4 78.9 88.8 80.45 87.1 80.95 85.9 82.15 83.65 81.55 80.75 81 77.9 79.05 75.85 77.25 74.05 75.25 73.5 72.95 73 69.4 74.5 66.2 75.75 64.45 77.1 63.4 77.9 61.8 79.9 58.9 83.5 56.9 87.6
M 114.7 96.4
Q 112.1 97.65 110.95 98.5 109.95 99.3 109.85 100 109.65 100.7 110.25 101.3 110.8 102.05 111.6 102.25 112.95 102.55 114.5 101.55 117.1 104.6 120.9 107.85 123.1 109.6 128.05 113.4 129.4 114.5 130.4 115 131.7 115.6 133.1 115.5 134.55 115.4 135.4 114.5 136.35 113.45 136.45 110.5 136.65 107.35 136.4 105.3 136.15 102.4 135 98.95 134 95.65 133 93.85 131.8 91.2 130.1 90.8 129.05 90.55 127.25 91.2 122.2 93.05 114.7 96.4
M 131.25 109.3
Q 124.75 104.8 119.35 99.3 123.7 97.15 128.35 95.75 131.55 102.25 131.25 109.3
M 167.5 57.3
Q 166.3 56 164.35 54.85 162.8 54 160.9 53.15 158.55 52.2 153.5 51.1 150.35 50.5 149.05 50.4 147.6 50.35 144.8 50.6 142 50.95 140.95 51.55 138.9 52.7 138.45 55.1 138.05 57.2 139.25 59.45 139.8 60.5 140.75 61.4 143.25 64.15 147.75 66.3 151.3 67.9 153.9 68.25 156 68.55 160.25 68.05 163.5 67.65 165.3 66.95 168.05 65.9 168.95 63.65 169.55 62.15 169.15 60.35 168.75 58.7 167.5 57.3 Z"/>

<path fill="#F8FF8F" stroke="none" d="
M 185.55 94.35
Q 185.55 85.3 181.25 74.05 177.05 63.15 170.7 55 163.55 45.75 154.4 41.3 148.05 38.15 137.75 36.2 127.9 34.4 121.65 34.6 114.7 34.8 106.85 37.2 100.9 39.05 93 42.7 86.5 45.7 81.35 48.8 72.55 54.05 65.35 61.5 52.2 75.1 52.45 89.15 52.6 93.1 54.3 100.2 56.35 108.55 58.25 113.5 61.05 120.6 65.15 125.4 67.7 128.3 73.3 132.8 77.55 136.2 80.3 138.1 84.25 140.85 87.8 142.45 90.95 143.9 95.05 145.1 97.45 145.8 102.45 147 109.35 148.65 113 149 113.85 149 114.75 149.1 112.75 150.2 110.7 151.5 108.6 152.8 107.3 154 107.3 154.4 107.25 154.85 107.15 159.7 105.3 165.4 104.15 168.9 101.2 175.4
L 90.5 199
Q 88.85 202.6 89.4 204.65 89.85 206.25 91.95 208.3 100.1 216.25 110.05 221.2 120.35 226.35 131 227.5 142.05 228.7 152.35 225.45 163.05 222.2 170.4 214.9 173.95 211.4 177.8 205.6 177.95 204.55 178.3 203.15 179.2 199.95 179.25 199.7 180.05 196.05 179.5 190.5 178.55 178.5 173.7 164.65 170.25 154.6 163.3 139.8 162.5 138.2 162.45 137.2 162.4 137.1 162.45 137.05 161.9 136.85 161.25 136.75 166.15 133.65 170.2 129.8 176.35 123.85 179.85 116.8 182.35 112 183.85 106.1 185.5 99.75 185.55 94.35
M 164.35 54.85
Q 166.3 56 167.5 57.3 168.75 58.7 169.15 60.35 169.55 62.15 168.95 63.65 168.05 65.9 165.3 66.95 163.5 67.65 160.25 68.05 156 68.55 153.9 68.25 151.3 67.9 147.75 66.3 143.25 64.15 140.75 61.4 139.8 60.5 139.25 59.45 138.05 57.2 138.45 55.1 138.9 52.7 140.95 51.55 142 50.95 144.8 50.6 147.6 50.35 149.05 50.4 150.35 50.5 153.5 51.1 158.55 52.2 160.9 53.15 162.8 54 164.35 54.85
M 110.95 98.5
Q 112.1 97.65 114.7 96.4 122.2 93.05 127.25 91.2 129.05 90.55 130.1 90.8 131.8 91.2 133 93.85 134 95.65 135 98.95 136.15 102.4 136.4 105.3 136.65 107.35 136.45 110.5 136.35 113.45 135.4 114.5 134.55 115.4 133.1 115.5 131.7 115.6 130.4 115 129.4 114.5 128.05 113.4 123.1 109.6 120.9 107.85 117.1 104.6 114.5 101.55 112.95 102.55 111.6 102.25 110.8 102.05 110.25 101.3 109.65 100.7 109.85 100 109.95 99.3 110.95 98.5
M 56 90.3
Q 56.05 89.45 56.9 87.6 58.9 83.5 61.8 79.9 63.4 77.9 64.45 77.1 66.2 75.75 69.4 74.5 72.95 73 75.25 73.5 77.25 74.05 79.05 75.85 81 77.9 81.55 80.75 82.15 83.65 80.95 85.9 80.45 87.1 78.9 88.8 72.75 95.4 65.05 97.7 61.8 98.75 59.75 97.8 58.3 97.25 57.3 95.8 56.45 94.45 56.1 92.75 55.8 91.45 56 90.3 Z"/>

<path fill="#66CC33" stroke="none" d="
M 119.35 99.3
Q 124.75 104.8 131.25 109.3 131.55 102.25 128.35 95.75 123.7 97.15 119.35 99.3 Z"/>
</g>
</defs>

<g transform="matrix( 1, 0, 0, 1, 46.65,29.15) ">
<g transform="matrix( 1, 0, 0, 1, 0,0) ">
<use xlink:href="#stoopy_0_Layer0_0_FILL"/>
</g>
</g>
</svg>
