
<svg xmlns="http://www.w3.org/2000/svg" version="1.1" xmlns:xlink="http://www.w3.org/1999/xlink" preserveAspectRatio="none" x="0px" y="0px" width="150px" height="150px" viewBox="0 0 150 150">
<defs>
<g id="Layer0_0_FILL">
<path fill="#FFFFFF" stroke="none" d="
M 156.95 28.2
Q 154.65 25.6 150.55 25 147.95 24.55 143.3 25.15 127.7 27.45 111.65 36.55 106.35 39.55 102.8 42.3 101.25 40.45 99.35 38.55 94.2 33.35 89.1 30.6 81.9 26.7 73.5 27 65.15 27.25 58.05 31.6 51 35.9 46.15 43.5 41.35 51.05 39.95 59.95 39.2 64.75 39.45 69.5 37.45 68.25 34.65 67.85 28.1 66.9 23.4 70.35 19.2 73.5 17.25 79.7 15.75 84.3 15.65 91.3 15.55 98.1 16.75 103.7 17.8 108.3 19.7 112.65 22.5 119.2 26.35 122.4 30.3 125.7 35.55 125.75 40.8 125.75 44.75 122.5 47.1 120.6 48.2 118.25 49.85 114.55 48.7 110.15 47.7 106.4 44.75 103.15 42.8 101 40.85 100.55 39.65 100.25 38.5 100.65 37.3 101.05 36.7 102.1 36.45 102.5 36.45 102.75 36.5 103.2 37.1 103.75 39.9 106.2 41.8 109.5 43.5 112.45 42.95 114.5 42.6 115.85 41.3 116.95 39.6 118.4 37.3 118.7 35.1 119 32.95 118.15 28.95 116.55 26.4 111.95 24.45 108.7 23.2 102.95 21.95 96.6 21.95 90.55 21.95 80.65 26.15 76.3 27.75 74.65 29.85 73.85 31.95 73 34.1 73.2 36.25 73.45 38.2 74.65 39.35 75.4 40.25 76.35 41.1 80.75 42.75 85.1 47.15 96.7 56.55 105.3 59.05 107.6 63.65 110.4 68.25 113.2 77.9 115.7 87.55 118.25 95.4 113.45 103.25 108.6 105.05 106.2 110.3 100.7 112.6 90.9 112.95 89.25 113.25 87.65 113.3 87.2 113.4 86.75 114.1 82.05 114.05 77.15 114.45 77.15 115.1 77.1 122 76.25 129.85 78.9 135.95 80.95 143.25 85.5 143.4 85.6 143.55 85.7 145.5 87.85 147.55 89.2 150.35 91.05 152.9 90.9 155.1 90.75 157.05 89.2 159.75 87.1 161 83.05 161.9 80.05 162.15 75.5 162.6 67.1 161.85 56.55 161.45 50.5 160 37.6 159.65 34.4 159.15 32.6 158.45 29.9 156.95 28.2
M 146.3 30.65
Q 149.95 30.85 151.5 32.65 152.7 34 153 37.55 154.15 50 154.5 55.65 155.1 65.7 154.8 73.75 154.6 78.65 153.85 81.3 153.4 82.6 152.8 82.85 152.35 83.05 151.15 82.7
L 146.6 81.15
Q 144.9 79.95 142.85 78.75 137.5 75.85 132.25 73.9 128.3 72.5 125.65 72.05 119.55 70.95 113.85 72.5 113.35 67.15 111.95 61.6 109.8 52.85 105.85 46.45 118.35 38.1 132.6 33.2 140.7 30.35 146.3 30.65
M 92.6 41.2
Q 96.9 44.75 99.8 48.85 103 53.6 105.05 60.15 107.45 67.85 107.65 75.8 107.85 84.05 105.6 91.4 105.2 92.8 104.75 94 98.8 105.1 87.85 107 76.85 108.95 70.85 106.4 64.8 103.85 60 99.5 55 95 51.65 89.35 48.2 83.4 46.7 76.65 45.15 69.7 45.95 62.9 46.75 55.95 49.9 49.85 53.15 43.6 58.15 39.65 64.05 35 71.5 34.15 78.95 33.3 85.55 36.55 89.05 38.25 92.6 41.2
M 72.4 47.05
Q 72.05 44.85 71.65 44.1 70.6 42.25 68.4 42.15 66.3 42.15 65.1 44 64.2 45.55 64.6 49 65.4 54.7 66.35 57.45 67.1 59.4 67.85 60.45 68.5 61.4 69.6 62.3 70.6 63.1 71.25 63.3 72.9 63.75 73.95 62.5 75.15 61.3 74.55 59.75 74.35 59.05 73.6 57.8 73.45 57.4 73.35 56.55
L 72.4 47.05
M 93.25 96.8
L 88.2 89.55
Q 87.25 88.1 86.25 86.3 84.85 83.6 83.7 82.95 82.4 82.2 80.85 82.6 79.35 83.1 78.7 84.5 77.75 86.45 79.1 89.35 80.25 92.05 83.95 96.65 85.55 98.55 86.55 99.25
L 87.8 100
Q 89.6 101.2 90 101.35 90.9 101.7 91.9 101.5 92.9 101.3 93.55 100.6 94.2 99.85 94.2 99.1 94.25 98.2 93.25 96.8
M 101.5 67.85
Q 101.95 67.45 101.65 66.6 101.5 66.15 101.15 65.35 100.85 64.6 100.8 64.1 100.7 63.4 100.85 62.35 100.95 61.75 101.15 60.6 101.45 58.25 100.4 57.25 99.55 56.4 98 56.5 97.25 56.55 95.5 57.2 94.45 57.6 94.2 58.05 93.8 58.8 94.35 59.75 94.55 60.05 95.5 61 96.45 61.95 97.85 64.25 99.25 66.5 100.2 67.45 101 68.25 101.5 67.85
M 98.35 58.75
Q 98.55 58.95 98.65 59.3
L 98.9 60.05
Q 99 60.65 98.95 60.85 98.55 60.2 98.3 59.9 97.75 59.35 97.5 59 97.85 59.05 98.35 58.75 Z"/>
</g>
</defs>

<g transform="matrix( 1, 0, 0, 1, 0,0) ">
<use xlink:href="#Layer0_0_FILL"/>
</g>
</svg>
