
<svg xmlns="http://www.w3.org/2000/svg" version="1.1" xmlns:xlink="http://www.w3.org/1999/xlink" preserveAspectRatio="none" x="0px" y="0px" width="300px" height="300px" viewBox="0 0 300 300">
<defs>
<g id="glenda_0_Layer1_0_FILL">
<path fill="#330033" stroke="none" d="
M 171.3 17.9
Q 171 12.25 168.9 8.65 165.25 2.7 156.75 0.55 151.4 -0.8 148.45 1.2 147.4 1.95 147.15 3 146.9 3.85 147.65 6.1 148.25 8.15 149.4 12.5 150.05 15.05 150.7 18 150.95 20.7 150.75 26 150.6 27.35 150.45 28.35 150.35 28.35 150.4 28.3 140.65 19.55 128.45 14.4 126.9 13.6 125.9 13.15 121.9 11.25 118.45 10.4 115.75 9.65 112.65 9.45 112.4 9.4 112.35 9.35 89.9 4.65 69 11.05 63.35 12.65 56.05 15.95 53.35 17 51 18.2 47.55 19.3 45.25 20.3 36.15 24.15 30.4 29.45 26.8 32.95 23.6 37.85 23.15 38.45 22.7 39.05 19.1 44.2 16.35 51.9 16.1 52.5 15.9 53.2 13.9 57.85 13.3 61.4 11.65 69.4 13.8 81 15 87.45 17.75 100.55 18 102.65 17.25 103.65 16.35 104.65 14.4 104.5 12.95 104.3 11.5 103.35 9.8 102.2 8.9 101.6 5.35 99.25 3 100.3 1.3 100.85 0.55 103.05 -0.25 104.7 0.1 107 0.2 115.5 5.25 124.25 9.25 131.25 16.3 136.95 17.05 137.55 17.8 138.15 21.9 141.45 26 143.25 24.3 145.65 23.75 149.05 23.1 152.2 23.25 156.95 23.2 159.65 23.7 161.4 24.05 163.35 25.8 166.8 32.95 180.75 42.7 186.7 45.15 188.1 46.75 187.95 48.15 187.8 48.9 186.65 49.45 185.6 49.2 184.75 49.6 184.15 50 183.5 51.15 180.75 52.7 180.35 55.6 182.65 57.1 184.25 59.2 186.75 59.65 189.05 59.65 189.85 59.85 191.4 59.9 192.7 60.7 193.55 61.05 193.8 61.4 194.1 56.95 199.7 53.05 204.95 46.85 213.15 44.45 218.4 43.35 220.3 43.45 222 43.1 222.4 42.9 222.95 42.6 223.9 42.85 225.05 43.2 226.1 44.15 226.9 45.15 227.75 48.15 228.7 73.7 235.65 95.2 235.9 98.95 235.75 100.9 235.1 102.4 234.6 103.9 233.3 104.25 233.2 104.75 233.15 105.5 233 106.8 232.8 107.75 232.45 108.85 232.25 110.85 231.8 114.85 231.25 118.2 230.7 124.75 229.05 129.8 227.8 130.8 227.6 132.85 226.75 135.45 225.75 137.55 224.55 140 223.6 143.2 221.95 144.95 221.1 148.4 218.85 152.45 215.1 153.6 213.85 154.15 212.95 154.5 213 155 213 157.7 213.1 159.75 212.45 168.7 211.35 173.85 210.3 183.15 208.2 189.8 204.7 191.8 203.45 192.6 202.5 192.95 201.6 193.1 200.85 192.95 199.9 192.35 199.35 191.65 198.75 190.35 198.45 188.25 197.9 187.95 197.85 186.75 197.25 185.95 196.25 185.25 195.25 185.1 194 184.8 192.3 185.85 189.45 190.15 190.1 194 192.2 197.85 194.45 200.3 197.45 201.5 198.75 201.85 199.25 202.85 200.2 204 200.4 205.75 200.6 208.1 199 213.45 194.75 215.75 188.7 217.9 182.75 216.85 176.6 215.75 170.4 212.05 164.4 208.35 158.55 203.05 153.35 209.5 150.85 212.7 144.9 215.15 140.1 216.15 132.65 216.3 129.5 215 128.35 214.9 128.1 214.95 128 214.75 126.9 214.1 126.35 212.95 125.35 211.35 125.7 210.05 125.85 208.7 126.95 207.1 128.05 206.3 128.5 204.9 129.25 203.5 128.85 202.85 128.6 202.4 128.3 201.5 125.85 203.6 122.1 204.6 120.1 207.15 116.55 208.95 113.8 210.1 112.15 210.45 111.55 210.8 110.95 214.9 103.85 216.75 95.8 218.45 87.65 217.7 79.7 216.9 71.85 213.7 64.4 210.6 57.15 205.45 51 196.65 40.45 183.2 34.5 174.9 30.8 166.15 29.3 169.45 26.7 170.75 23.55 171.45 21.2 171.3 17.9 Z"/>
</g>

<g id="glenda_0_Layer0_0_FILL">
<path fill="#330033" stroke="none" d="
M 171.3 17.9
Q 171 12.25 168.9 8.65 165.25 2.7 156.75 0.55 151.4 -0.8 148.45 1.2 147.4 1.95 147.15 3 146.9 3.85 147.65 6.1 148.25 8.15 149.4 12.5 150.05 15.05 150.7 18 150.95 20.7 150.75 26 150.6 27.35 150.45 28.35 150.35 28.35 150.4 28.3 140.65 19.55 128.45 14.4 126.9 13.6 125.9 13.15 121.9 11.25 118.45 10.4 115.75 9.65 112.65 9.45 112.4 9.4 112.35 9.35 89.9 4.65 69 11.05 63.35 12.65 56.05 15.95 53.35 17 51 18.2 47.55 19.3 45.25 20.3 36.15 24.15 30.4 29.45 26.8 32.95 23.6 37.85 23.15 38.45 22.7 39.05 19.1 44.2 16.35 51.9 16.1 52.5 15.9 53.2 13.9 57.85 13.3 61.4 11.65 69.4 13.8 81 15 87.45 17.75 100.55 18 102.65 17.25 103.65 16.35 104.65 14.4 104.5 12.95 104.3 11.5 103.35 9.8 102.2 8.9 101.6 5.35 99.25 3 100.3 1.3 100.85 0.55 103.05 -0.25 104.7 0.1 107 0.2 115.5 5.25 124.25 9.25 131.25 16.3 136.95 17.05 137.55 17.8 138.15 21.9 141.45 26 143.25 24.3 145.65 23.75 149.05 23.1 152.2 23.25 156.95 23.2 159.65 23.7 161.4 24.05 163.35 25.8 166.8 32.95 180.75 42.7 186.7 45.15 188.1 46.75 187.95 48.15 187.8 48.9 186.65 49.45 185.6 49.2 184.75 49.6 184.15 50 183.5 51.15 180.75 52.7 180.35 55.6 182.65 57.1 184.25 59.2 186.75 59.65 189.05 59.65 189.85 59.85 191.4 59.9 192.7 60.7 193.55 61.05 193.8 61.4 194.1 56.95 199.7 53.05 204.95 46.85 213.15 44.45 218.4 43.35 220.3 43.45 222 43.1 222.4 42.9 222.95 42.6 223.9 42.85 225.05 43.2 226.1 44.15 226.9 45.15 227.75 48.15 228.7 73.7 235.65 95.2 235.9 98.95 235.75 100.9 235.1 102.4 234.6 103.9 233.3 104.25 233.2 104.75 233.15 105.5 233 106.8 232.8 107.75 232.45 108.85 232.25 110.85 231.8 114.85 231.25 118.2 230.7 124.75 229.05 129.8 227.8 130.8 227.6 132.85 226.75 135.45 225.75 137.55 224.55 140 223.6 143.2 221.95 144.95 221.1 148.4 218.85 152.45 215.1 153.6 213.85 154.15 212.95 154.5 213 155 213 157.7 213.1 159.75 212.45 168.7 211.35 173.85 210.3 183.15 208.2 189.8 204.7 191.8 203.45 192.6 202.5 192.95 201.6 193.1 200.85 192.95 199.9 192.35 199.35 191.65 198.75 190.35 198.45 188.25 197.9 187.95 197.85 186.75 197.25 185.95 196.25 185.25 195.25 185.1 194 184.8 192.3 185.85 189.45 190.15 190.1 194 192.2 197.85 194.45 200.3 197.45 201.5 198.75 201.85 199.25 202.85 200.2 204 200.4 205.75 200.6 208.1 199 213.45 194.75 215.75 188.7 217.9 182.75 216.85 176.6 215.75 170.4 212.05 164.4 208.35 158.55 203.05 153.35 209.5 150.85 212.7 144.9 215.15 140.1 216.15 132.65 216.3 129.5 215 128.35 214.9 128.1 214.95 128 214.75 126.9 214.1 126.35 212.95 125.35 211.35 125.7 210.05 125.85 208.7 126.95 207.1 128.05 206.3 128.5 204.9 129.25 203.5 128.85 202.85 128.6 202.4 128.3 201.5 125.85 203.6 122.1 204.6 120.1 207.15 116.55 208.95 113.8 210.1 112.15 210.45 111.55 210.8 110.95 214.9 103.85 216.75 95.8 218.45 87.65 217.7 79.7 216.9 71.85 213.7 64.4 210.6 57.15 205.45 51 196.65 40.45 183.2 34.5 174.9 30.8 166.15 29.3 169.45 26.7 170.75 23.55 171.45 21.2 171.3 17.9
M 164.5 13.3
Q 165.25 14.85 165.4 17.5 165.55 20.2 164.7 22 163.5 24.4 160.85 25.75 158.7 26.75 155.5 27.3 157.75 16.95 154.95 7.15 158.2 7.7 160.6 9.2 163.35 10.85 164.5 13.3
M 92.75 84.7
Q 94.1 87.1 94.65 88.5 95.25 90.65 95.6 94.7 95.9 99.4 95.2 102.2 93.65 107.95 87.9 111.65 83.1 114.65 76.25 115.6 69.1 116.65 63.55 115.15 60.4 114.25 57.75 112.65 53.3 109.75 50.65 104.6 48.25 99.8 48.05 94.25 47.8 91.15 48.3 87.8 48.8 84.45 50.1 82.8 50.7 81.95 51.35 81.3 51.95 80.6 52.6 79.95 52.95 79.45 53.65 78.9 56.3 76.75 61.55 75.2 70.05 72.6 77.15 73.85 81.2 74.35 84.65 76.2 88.15 78.1 90.45 81.1 91.6 82.5 92.75 84.7
M 73.6 172.8
Q 74.25 169.95 76.45 167.35 77.65 165.55 80.85 162.55 82.9 160.7 83.75 160 85.15 159.1 85.5 158.55
L 85.5 158.5
Q 89.55 159 92.95 157.25 93.35 157 94.25 156.5 95.9 158.1 97.8 159.05 102.7 161.5 109.65 160.3 110.05 160.25 110.4 160.2 110.35 161.65 110.8 162.35 111.65 163.6 113.5 163.65 114.7 163.7 116.6 163.15 118.85 162.4 121.9 161.3 122.25 161.3 122.6 161.25 121.5 164.85 121.4 169.4 121.25 179.4 127.05 189.75 132.5 199.4 141.95 206.9 144.4 208.95 146.85 210.35 146.15 210.7 145.6 211.35 138.6 217.85 129.95 221.95 120.95 226 111.75 226.6 110.1 226.65 108.65 226.7 110.05 223.65 110.6 220.4 111.1 217.15 110.8 213.9 115.6 192 112.4 169.85 112.2 167.45 110.8 167.3 109.95 167.2 109.45 167.9 109 168.45 108.9 169.4 107.6 175.7 106.7 190.6 105.7 204.3 103.5 211.9 103.15 213.05 101.2 218.2 99.15 223.45 97.05 228.85 95.6 229.1 93.1 228.9 80.95 228.25 74.15 227.3 63.65 225.7 55.95 222.4 54.8 221.75 54 221.55
L 54 221.5
Q 57.6 212 66.35 199.8 69.05 195.8 71.35 192.95 77.65 184.7 80.75 180.7 86.2 173.55 89.25 168.35 90.3 166.55 90.3 165.5 90.3 164.75 89.9 164.05 89.35 163.2 88.55 163 86.65 162.45 84.75 164.85 77.9 173.3 73.45 178.9 73.35 178.05 73.25 177.35 72.95 175.1 73.6 172.8
M 91.25 152.6
Q 91.4 152.95 91.6 153.15 91.7 153.3 91.8 153.45 90.4 154.25 88.9 154.7 89.8 153.8 90.65 152.8 90.95 152.75 91.25 152.6
M 54 119.4
Q 54.4 119.65 54.95 120 60.2 122.8 66.25 123.6 77.25 125.05 88.05 120.3 87.25 121.45 87 122.45 86.465234375 124.0875 86.7 126.3 87.93125 125.1251953125 89.15 124.85 90.1 124.6 91.05 125.05 92 125.5 92.25 126.4 92.65 127.75 91.25 129.25 91 129.5 90.05 130.3 89.3 130.95 88.95 131.4
L 88.35 132.25
Q 88.93125 133.5298828125 89.7 134.65 90.8 136.25 92.25 137.5 92.4 137.65 92.55 137.8 90.7 140 90.05 142.25 89.95 142.6 89.9 143.1 89.8 143 89.7 142.95 89.4 142.25 88.9 142.15 88.4 141.7 87.7 142.05 87.4 141.8 86.9 141.75 84.85 141.45 82.8 141 73.8 139.3 67.4 135.6 67.2 135.5 67.05 135.35 59.3 130.85 56.15 124.5 55 122.55 54 119.4
M 172.8 37.2
Q 181.8 40.05 189.4 45.35 193.25 47.95 195.9 50.7 199.85 54.4 204 60.8 208.45 67.45 210.3 73.25 210.95 76.5 211.4 79.85 211.45 83.2 211.1 87.1 210.35 92.05 208.55 99.05 207 104.3 205.25 107.5 205.05 107.7 205 107.9 204.85 108.1 204.7 108.45 204.55 108.6 203.8 109.65 202.65 111.05 200.65 113.1 197.9 115.95 196.9 117.55 194.35 121.05 194.8 125.25 194.9 127.7 196.15 129.45 196.95 132.15 199.3 133.8 201.4 135.3 203.45 135.05 204.4 134.9 205.15 134.1 205.85 134.15 206.55 134.15 208.05 134.15 209.5 133.85 208.85 139.3 205.4 143.7 201.75 148.15 196.25 150.35 193.7 151.2 193.15 151.75 192.45 152.15 192.15 153 191.8 153.85 192.25 154.5 192.7 155.55 194.3 156.15 195.25 156.55 197.2 157.15 200.1 158.3 202.4 160.95 204.1 162.95 205.75 166.25 210 174.4 210.25 180.6 210.4 184.35 208.75 187.6 207.05 191.05 203.95 193.4 197.55 188.2 189.7 185.1 185.15 183.3 182.35 184.25 179.85 185 178.9 188.2 177.75 191.55 178.75 195.3 179.65 199.05 182.55 201.75 170.2 206.6 156.85 206.85 155.85 206.45 155.2 206.2 146.7 202.3 140.4 196.05 130.85 186.95 128.25 175.9 126.9 170.25 127.7 164.75 127.9 161.85 129.05 159.35 129.05 159.65 129 159.9 130.05 158.55 131.45 157 135.5 154.75 138.05 151.9 140.5 149.15 141.2 146.4 141.55 144.8 141.4 142.9 141.15 138.8 139 135.2 137.45 132.6 135.25 130.75 135.65 129.75 135.95 128.8 137.7 123.3 136.05 118.05 135.55 116.75 135 116.2 134 115.2 133 115.65 131.85 115.95 131.45 117.75 131.1 118.85 131.1 120.65 131 122.15 131.05 123.65 130.75 127.7 128.8 131.05 129.2 131.25 129.7 131.5 129.7 131.6 129.75 131.7 130 132.5 130.6 133.5 130.95 133.95 131.7 135.05 133.6 137.95 134.15 141.25 134.5 142.9 134.15 144.2 133.6 146.7 129.65 149.45 125.5 152.4 120.65 154.7 119.4 154.85 118.2 154.75 117.85 153.8 117.25 153.05 116.3 152.25 115.5 151.95 114.1 151.65 111.9 152.15 106.1 153.25 102.75 151.75 101.55 151.4 100.45 150.8 98.1 149.45 97.25 147.35 96.5 145.35 97.1 142.75 97.4 141.35 98.05 140.1 98.25 139.55 98.55 139.15 98.75 138.8 98.9 138.55 99.2 138.1 99.5 137.7 100 137.05 100.55 136.5 100.1 136.3 99.75 136.1 99.7 135.85 99.65 135.6 99.45 134.8 98.55 134.4 98.5 134.35 98.45 134.35 97.75 134.05 97.05 134.15 97.0181640625 134.119921875 96.95 134.1 96.52421875 134.5138671875 95.8 135.2 94.95 135.95 94.15 136.15 92.5 136.65 91.3 135.6 90 134.45 90.4 132.85 90.75 131.6 92.5 130.25 93.5791015625 129.395703125 94.45 128.8 94.4177734375 128.1259765625 94.5 127.4 94.75 125.55 95.6 124.05 96.75 124.65 97.7 125 100.15 125.9 101.95 125.5 104.05 125.05 105.15 123 106.15 120.8 105.15 118.9 104.35 117.15 102.3 116 101.45 115.35 98.4 114.2 98 113.9 97.75 113.85 99.2 112.2 100.4 110.45 104.25 104.25 103.7 95.25 103.65 94.3 103.6 93.5 104 93.25 104.75 93.05 108.4 91.7 112.25 90.85 113 90.75 113.55 90.65 114.4 90.45 114.6 90.25 115.85 89.85 116.9 89.2 118.5 87.9 118.85 85.5 119.05 83.05 117.45 81.6 115.95 80.25 113.55 80.15 111.85 80.1 109.7 80.65 105.7 81.5 102.05 83.45 101.55 83.65 101.25 84 100.05 81.3 98.6 78.95 93.6 71.15 85.4 67.95 81.4 66.45 76.35 65.9 69.35 65.25 62.35 66.95 55.3 68.6 49.6 72.45 43.45 76.35 41.3 80.95 39 85.35 39.5 92.85 40.15 104.45 45.6 111.95 44.95 112.7 45.05 113.8 44.9 114.8 45.5 116.4 45.8 117.25 46.5 118.95 46.85 119.95 47.8 122.55 48.5 124.9 49.2 126.25 51.05 129.75 55.7 134.05 56.65 134.9 57.6 135.65 61.45 138.8 65.15 140.65 67.3 141.6 70.25 142.7 71.7 143.1 75.55 144.15 79.3 145.35 81.45 145.65 84.2 146.2 86.5 146.35 86.5 146.95 86.9 147.9 87 148.45 87.1 148.9 85.65 149.5 84.15 151 82.1 152.55 81.05 153.9 80.9 154 80.95 154.1 79.8 155 78.6 156.1 76.65 157.45 76.45 157.8 75.2 158.8 74.15 159.8 71.9 161.35 71.45 162.05 70.2 163.4 70.55 164.85 69.7 165.55 68.85 167.2 67 170.25 66.55 171.95 66.05 173.35 66.1 175.85 65.75 180.65 66.55 183.5 66.95 185 67.7 186.1 67 186.75 66.5 187.55 65.65 185.4 63.8 183.05 63.35 182.45 58.5 177.25 56.75 175.75 56.35 175.2 55.05 174.1 53.75 173.8 52.3 173.3 50.65 173.9 49.3 174.15 48.15 175.35 46.55 176.7 45.1 180.15 40.05 175.65 37.15 172.15 33.2 167.35 31.45 162.8 29.35 157.45 30.2 152.35 31.05 146.75 34.9 143.4 36.25 142.2 36.95 141.3 37.7 139.9 37 138.9 36.45 137.95 34.85 137.6 33.3 137 31.85 136.45 25.5 133.95 21.1 130.6 19.15 128.8 17.75 127.25 15 124.3 13.2 121.35 12.6 120.05 12.15 119 11.05 116.25 10.75 113.55 11.95 114 13.15 114.05 15.8 114.3 18.45 113.05 21 111.9 22.55 109.7 25.2 105.85 24.6 99 24.25 95.05 21.3 84.1 20.6 81.2 20.1 78.8 19 69.6 20.3 63.2 21.3 58.05 24.3 51.65 24.55 51.05 24.85 50.45 27.65 44.3 31.05 39.9 35.05 35.05 43.05 29.85 44.75 28.7 46.6 27.65 46.6 27.6 54.55 23.9 62.3 20.2 76.65 15.35 90.8 10.3 106.35 13.55 121.65 16.55 129.9 19.8 138.05 22.85 147.8 32.15 149.6 33.95 151 33.6 151.1 33.5 151.2 33.55 151.35 33.6 151.5 33.6 152.1 33.65 153.05 33.8 153.5 33.75 154.15 33.85 163.6 34.2 172.8 37.2 Z"/>

<path fill="#B20069" stroke="none" d="
M 100.8 127.8
Q 100.8 127.4 100.7 127.25 100.5 127 100 127.1 97.6 127.3 96.3 127.8 95.5294921875 128.102734375 94.45 128.8 93.5791015625 129.395703125 92.5 130.25 90.75 131.6 90.4 132.85 90 134.45 91.3 135.6 92.5 136.65 94.15 136.15 94.95 135.95 95.8 135.2 96.52421875 134.5138671875 96.95 134.1 97.1310546875 133.95703125 97.25 133.85 98.25 133.15 98.7 132.75 99.55 132.1 99.95 131.45 100.7 130.35 100.8 127.8
M 91.25 129.25
Q 92.65 127.75 92.25 126.4 92 125.5 91.05 125.05 90.1 124.6 89.15 124.85 87.93125 125.1251953125 86.7 126.3 86.38125 126.6546875 86.05 127.05 85.05 128.25 84.25 129.8 83.8 130.6 83.75 131.15 83.55 132.65 84.8 133.4 86.1 134.15 87.3 133.35 87.7 133.1 88.2 132.45
L 88.35 132.25 88.95 131.4
Q 89.3 130.95 90.05 130.3 91 129.5 91.25 129.25
M 76.45 167.35
Q 74.25 169.95 73.6 172.8 72.95 175.1 73.25 177.35 73.35 178.05 73.45 178.9 77.9 173.3 84.75 164.85 86.65 162.45 88.55 163 89.35 163.2 89.9 164.05 90.3 164.75 90.3 165.5 90.3 166.55 89.25 168.35 86.2 173.55 80.75 180.7 77.65 184.7 71.35 192.95 69.05 195.8 66.35 199.8 57.6 212 54 221.5
L 54 221.55
Q 54.8 221.75 55.95 222.4 63.65 225.7 74.15 227.3 80.95 228.25 93.1 228.9 95.6 229.1 97.05 228.85 99.15 223.45 101.2 218.2 103.15 213.05 103.5 211.9 105.7 204.3 106.7 190.6 107.6 175.7 108.9 169.4 109 168.45 109.45 167.9 109.95 167.2 110.8 167.3 112.2 167.45 112.4 169.85 115.6 192 110.8 213.9 111.1 217.15 110.6 220.4 110.05 223.65 108.65 226.7 110.1 226.65 111.75 226.6 120.95 226 129.95 221.95 138.6 217.85 145.6 211.35 146.15 210.7 146.85 210.35 144.4 208.95 141.95 206.9 132.5 199.4 127.05 189.75 121.25 179.4 121.4 169.4 121.5 164.85 122.6 161.25 122.25 161.3 121.9 161.3 118.85 162.4 116.6 163.15 114.7 163.7 113.5 163.65 111.65 163.6 110.8 162.35 110.35 161.65 110.4 160.2 110.05 160.25 109.65 160.3 102.7 161.5 97.8 159.05 95.9 158.1 94.25 156.5 93.35 157 92.95 157.25 89.55 159 85.5 158.5
L 85.5 158.55
Q 85.15 159.1 83.75 160 82.9 160.7 80.85 162.55 77.65 165.55 76.45 167.35
M 55.75 80.55
Q 53.35 80.65 51.35 81.3 50.7 81.95 50.1 82.8 48.8 84.45 48.3 87.8 47.8 91.15 48.05 94.25 48.25 99.8 50.65 104.6 53.3 109.75 57.75 112.65 60.4 114.25 63.55 115.15
L 63.6 115.1
Q 67.25 114.05 69.75 112.4 74.85 109.05 76.6 102.85 78.3 96.8 75.75 91.4 73.2 86.3 67.6 83.3 62.05 80.3 55.75 80.55 Z"/>

<path fill="#622549" stroke="none" d="
M 189.4 45.35
Q 181.8 40.05 172.8 37.2 163.6 34.2 154.15 33.85 153.5 33.75 153.05 33.8 152.1 33.65 151.5 33.6 151.35 33.6 151.2 33.55 151.1 33.5 151 33.6 149.6 33.95 147.8 32.15 138.05 22.85 129.9 19.8 121.65 16.55 106.35 13.55 90.8 10.3 76.65 15.35 62.3 20.2 54.55 23.9 46.6 27.6 46.6 27.65 44.75 28.7 43.05 29.85 35.05 35.05 31.05 39.9 27.65 44.3 24.85 50.45 24.55 51.05 24.3 51.65 21.3 58.05 20.3 63.2 19 69.6 20.1 78.8 20.6 81.2 21.3 84.1 24.25 95.05 24.6 99 25.2 105.85 22.55 109.7 21 111.9 18.45 113.05 15.8 114.3 13.15 114.05 11.95 114 10.75 113.55 11.05 116.25 12.15 119 12.6 120.05 13.2 121.35 15 124.3 17.75 127.25 19.15 128.8 21.1 130.6 25.5 133.95 31.85 136.45 33.3 137 34.85 137.6 36.45 137.95 37 138.9 37.7 139.9 36.95 141.3 36.25 142.2 34.9 143.4 31.05 146.75 30.2 152.35 29.35 157.45 31.45 162.8 33.2 167.35 37.15 172.15 40.05 175.65 45.1 180.15 46.55 176.7 48.15 175.35 49.3 174.15 50.65 173.9 52.3 173.3 53.75 173.8 55.05 174.1 56.35 175.2 56.75 175.75 58.5 177.25 63.35 182.45 63.8 183.05 65.65 185.4 66.5 187.55 67 186.75 67.7 186.1 66.95 185 66.55 183.5 65.75 180.65 66.1 175.85 66.05 173.35 66.55 171.95 67 170.25 68.85 167.2 69.7 165.55 70.55 164.85 70.2 163.4 71.45 162.05 71.9 161.35 74.15 159.8 75.2 158.8 76.45 157.8 76.65 157.45 78.6 156.1 79.8 155 80.95 154.1 80.9 154 81.05 153.9 82.1 152.55 84.15 151 85.65 149.5 87.1 148.9 87 148.45 86.9 147.9 86.5 146.95 86.5 146.35 84.2 146.2 81.45 145.65 79.3 145.35 75.55 144.15 71.7 143.1 70.25 142.7 67.3 141.6 65.15 140.65 61.45 138.8 57.6 135.65 56.65 134.9 55.7 134.05 51.05 129.75 49.2 126.25 48.5 124.9 47.8 122.55 46.85 119.95 46.5 118.95 45.8 117.25 45.5 116.4 44.9 114.8 45.05 113.8 44.95 112.7 45.6 111.95 40.15 104.45 39.5 92.85 39 85.35 41.3 80.95 43.45 76.35 49.6 72.45 55.3 68.6 62.35 66.95 69.35 65.25 76.35 65.9 81.4 66.45 85.4 67.95 93.6 71.15 98.6 78.95 100.05 81.3 101.25 84 101.55 83.65 102.05 83.45 105.7 81.5 109.7 80.65 111.85 80.1 113.55 80.15 115.95 80.25 117.45 81.6 119.05 83.05 118.85 85.5 118.5 87.9 116.9 89.2 115.85 89.85 114.6 90.25 114.4 90.45 113.55 90.65 113 90.75 112.25 90.85 108.4 91.7 104.75 93.05 104 93.25 103.6 93.5 103.65 94.3 103.7 95.25 104.25 104.25 100.4 110.45 99.2 112.2 97.75 113.85 98 113.9 98.4 114.2 101.45 115.35 102.3 116 104.35 117.15 105.15 118.9 106.15 120.8 105.15 123 104.05 125.05 101.95 125.5 100.15 125.9 97.7 125 96.75 124.65 95.6 124.05 94.75 125.55 94.5 127.4 94.4177734375 128.1259765625 94.45 128.8 95.5294921875 128.102734375 96.3 127.8 97.6 127.3 100 127.1 100.5 127 100.7 127.25 100.8 127.4 100.8 127.8 100.7 130.35 99.95 131.45 99.55 132.1 98.7 132.75 98.25 133.15 97.25 133.85 97.1310546875 133.95703125 96.95 134.1 97.0181640625 134.119921875 97.05 134.15 97.75 134.05 98.45 134.35 98.5 134.35 98.55 134.4 99.45 134.8 99.65 135.6 99.7 135.85 99.75 136.1 100.1 136.3 100.55 136.5 100 137.05 99.5 137.7 99.2 138.1 98.9 138.55 98.75 138.8 98.55 139.15 98.25 139.55 98.05 140.1 97.4 141.35 97.1 142.75 96.5 145.35 97.25 147.35 98.1 149.45 100.45 150.8 101.55 151.4 102.75 151.75 106.1 153.25 111.9 152.15 114.1 151.65 115.5 151.95 116.3 152.25 117.25 153.05 117.85 153.8 118.2 154.75 119.4 154.85 120.65 154.7 125.5 152.4 129.65 149.45 133.6 146.7 134.15 144.2 134.5 142.9 134.15 141.25 133.6 137.95 131.7 135.05 130.95 133.95 130.6 133.5 130 132.5 129.75 131.7 129.7 131.6 129.7 131.5 129.2 131.25 128.8 131.05 130.75 127.7 131.05 123.65 131 122.15 131.1 120.65 131.1 118.85 131.45 117.75 131.85 115.95 133 115.65 134 115.2 135 116.2 135.55 116.75 136.05 118.05 137.7 123.3 135.95 128.8 135.65 129.75 135.25 130.75 137.45 132.6 139 135.2 141.15 138.8 141.4 142.9 141.55 144.8 141.2 146.4 140.5 149.15 138.05 151.9 135.5 154.75 131.45 157 130.05 158.55 129 159.9 129.05 159.65 129.05 159.35 127.9 161.85 127.7 164.75 126.9 170.25 128.25 175.9 130.85 186.95 140.4 196.05 146.7 202.3 155.2 206.2 155.85 206.45 156.85 206.85 170.2 206.6 182.55 201.75 179.65 199.05 178.75 195.3 177.75 191.55 178.9 188.2 179.85 185 182.35 184.25 185.15 183.3 189.7 185.1 197.55 188.2 203.95 193.4 207.05 191.05 208.75 187.6 210.4 184.35 210.25 180.6 210 174.4 205.75 166.25 204.1 162.95 202.4 160.95 200.1 158.3 197.2 157.15 195.25 156.55 194.3 156.15 192.7 155.55 192.25 154.5 191.8 153.85 192.15 153 192.45 152.15 193.15 151.75 193.7 151.2 196.25 150.35 201.75 148.15 205.4 143.7 208.85 139.3 209.5 133.85 208.05 134.15 206.55 134.15 205.85 134.15 205.15 134.1 204.4 134.9 203.45 135.05 201.4 135.3 199.3 133.8 196.95 132.15 196.15 129.45 194.9 127.7 194.8 125.25 194.35 121.05 196.9 117.55 197.9 115.95 200.65 113.1 202.65 111.05 203.8 109.65 204.55 108.6 204.7 108.45 204.85 108.1 205 107.9 205.05 107.7 205.25 107.5 207 104.3 208.55 99.05 210.35 92.05 211.1 87.1 211.45 83.2 211.4 79.85 210.95 76.5 210.3 73.25 208.45 67.45 204 60.8 199.85 54.4 195.9 50.7 193.25 47.95 189.4 45.35
M 165.4 17.5
Q 165.25 14.85 164.5 13.3 163.35 10.85 160.6 9.2 158.2 7.7 154.95 7.15 157.75 16.95 155.5 27.3 158.7 26.75 160.85 25.75 163.5 24.4 164.7 22 165.55 20.2 165.4 17.5 Z"/>

<path fill="#FFB782" stroke="none" d="
M 54.95 120
Q 54.4 119.65 54 119.4 55 122.55 56.15 124.5 59.3 130.85 67.05 135.35 67.2 135.5 67.4 135.6 73.8 139.3 82.8 141 84.85 141.45 86.9 141.75 87.4 141.8 87.7 142.05 88.4 141.7 88.9 142.15 89.4 142.25 89.7 142.95 89.8 143 89.9 143.1 89.95 142.6 90.05 142.25 90.7 140 92.55 137.8 92.4 137.65 92.25 137.5 90.8 136.25 89.7 134.65 88.93125 133.5298828125 88.35 132.25
L 88.2 132.45
Q 87.7 133.1 87.3 133.35 86.1 134.15 84.8 133.4 83.55 132.65 83.75 131.15 83.8 130.6 84.25 129.8 85.05 128.25 86.05 127.05 86.38125 126.6546875 86.7 126.3 86.465234375 124.0875 87 122.45 87.25 121.45 88.05 120.3 77.25 125.05 66.25 123.6 60.2 122.8 54.95 120
M 91.6 153.15
Q 91.4 152.95 91.25 152.6 90.95 152.75 90.65 152.8 89.8 153.8 88.9 154.7 90.4 154.25 91.8 153.45 91.7 153.3 91.6 153.15 Z"/>

<path fill="#FCFFEE" stroke="none" d="
M 94.65 88.5
Q 94.1 87.1 92.75 84.7 91.6 82.5 90.45 81.1 88.15 78.1 84.65 76.2 81.2 74.35 77.15 73.85 70.05 72.6 61.55 75.2 56.3 76.75 53.65 78.9 52.95 79.45 52.6 79.95 51.95 80.6 51.35 81.3 53.35 80.65 55.75 80.55 62.05 80.3 67.6 83.3 73.2 86.3 75.75 91.4 78.3 96.8 76.6 102.85 74.85 109.05 69.75 112.4 67.25 114.05 63.6 115.1
L 63.55 115.15
Q 69.1 116.65 76.25 115.6 83.1 114.65 87.9 111.65 93.65 107.95 95.2 102.2 95.9 99.4 95.6 94.7 95.25 90.65 94.65 88.5
M 230.1 20.7
Q 229.15 19.9 227.85 19.6 226.6 19.3 225.3 19.6 224.2 19.8 222.45 20.8 221.25 21.45 220.7 21.95 219.95 22.9 219.55 23.35 218.85 24.15 218.15 24.35 217.85 23.85 217.6 22.95 217.25 21.9 217.1 21.55 216.5 20.3 215.2 19.55 213.95 18.85 212.45 18.85 211 18.9 209.7 19.65 208.4 20.45 207.75 21.7 206.6 23.95 207.7 27.4 208.1 28.7 209.05 30.95 210.55 34.3 211.8 35.65 214.1 38 216.9 37.7 218.45 37.55 221 35.9 224.3 33.8 226 32.35 226.75 31.75 228.05 30.5 229.65 29 230.4 28 231.5 26.55 231.75 25.05 232.15 22.45 230.1 20.7
M 249.3 67.55
Q 247.45 66.95 244.45 68.7 242.65 69.9 241.2 70.95 240.2 71.6 239.7 71.65
L 238.75 67.4
Q 238.6 66.4 238.2 65.65 237.8 64.85 236.9 64.15 236 63.6 234.95 63.45 232.7 63.3 231.15 64.95 229.9 66.45 229.9 69.4 229.95 70.95 230.35 73.9 230.8 77.05 231.7 78.85 233 81.55 235.45 82.25 237.85 83.05 241.55 81.5 243.9 80.45 246.1 78.7 247.85 77.4 249.25 75.8 251.3 73.5 251.55 71.5 251.7 70.2 251.1 69.1 250.45 67.95 249.3 67.55 Z"/>
</g>
</defs>

<g transform="matrix( 1, 0, 0, 1, 18,35.6) ">
<g transform="matrix( 1, 0, 0, 1, 0,0) ">
<use xlink:href="#glenda_0_Layer1_0_FILL"/>
</g>

<g transform="matrix( 1, 0, 0, 1, 0,0) ">
<use xlink:href="#glenda_0_Layer0_0_FILL"/>
</g>
</g>
</svg>
