
<svg xmlns="http://www.w3.org/2000/svg" version="1.1" xmlns:xlink="http://www.w3.org/1999/xlink" preserveAspectRatio="none" x="0px" y="0px" width="150px" height="150px" viewBox="0 0 150 150">
<defs>
<g id="Layer0_0_FILL">
<path fill="#FFFFFF" stroke="none" d="
M 62.25 110.65
Q 62.15 109.65 61.2 109.1 60.2 108.5 59.35 108.9 58.8 109.15 58.3 109.75 58 110.15 57.4 110.9 56.9 111.5 55.85 112.55 55.1 113.5 54.55 115.15 51.95 122.95 53.4 128.15 53.9 129.8 55.1 132.3 56.55 135.3 57.4 136.75 58.9 139.15 60.65 140.55 61.7 141.45 63.65 142.4 63.65 142.65 63.65 143.1 63.7 144.1 64.85 146.1
L 72.25 158.5
Q 73.45 160.5 74 161.15 75.2 162.55 76.3 162.6 77.15 162.6 77.3 162.95
L 77.9 162.1
Q 78.65 161 78.8 160.45 79.2 159.1 77.85 156.75 73.65 149.2 68.55 143.4 67.1 141.85 66.15 141.2 66 140.9 65.9 140.55 65.2 138.35 65.15 138.3 64.75 137.3 62.5 133.6 61 131.05 60.2 129.3 59.3 127.25 59 125.85 58.65 123.6 59.55 119.3 60.35 115.2 61.4 113.15 62 111.95 62 111.9 62.3 111.2 62.25 110.65
M 76.65 -3.6
Q 78.3 -4.85 78.75 -5.4 79.8 -6.7 79.5 -7.95 79.25 -9.05 78.05 -9.7 77.2 -10.15 75.8 -10.35 71 -10.75 64.3 -7.9 59.2 -5.75 56.6 -3.4 52.75 0 52.3 4.3 51.85 8.3 54.4 11.6 54.55 11.85 54.8 12.1 44 10.85 35.9 12.65 23.7 15.45 12.65 25.8 7.1 30.9 3.8 36.05 -1.1 43.7 -2.7 53.35 -4.25 62.35 -2.8 71.95 -2.45 74.25 -1.75 78.85 -1.3 82.75 -1.85 85.7 -4.2 86.1 -6.65 84.2 -7.5 83.55 -8.6 82.45 -10 81.05 -10.45 80.65 -12.4 78.8 -13.9 79.55 -15.05 80.15 -15.2 82.25 -16.2 89.5 -13.6 96.6 -12.2 100.5 -10.1 103.1 -10 103.4 -9.85 103.9 -9.1 105.7 -7.1 107.7
L -5.6 109.05 -2.4 111 -0.85 111.65
Q 1.55 112.65 2.2 112.75 2.55 112.8 2.85 112.8 2.85 112.9 2.85 113 3 114.15 3.65 116.55 4.2 118.85 4.35 120.1 4.55 122.15 3.85 123.8 3.05 125.7 1.45 126.35 1.05 125.5 0.25 124.9 -0.65 124.35 -1.5 124.55 -2.75 124.85 -3.25 126.35 -3.55 127.3 -3.25 129 -2.55 132.95 -0.2 137.3 3.65 144.05 9.15 147.65 12.25 149.65 15.6 150.5 18.25 151.2 20.9 151.15 18.9 152.75 17.35 154.65 15.5 156.95 14.8 158.95 12.95 164.15 16.2 170.1 18.55 174.5 22.85 177.45 27.15 180.4 32.2 181.05 30.75 178.8 26.5 174.65 22.5 170.75 21.1 168 20.1 165.95 19.95 163.85 19.8 161.55 20.7 159.7 21.75 157.7 24.1 155.85 30.85 150.45 41.8 147.45 43 147.15 43.75 146.8 43.95 147.25 44.15 147.7 46.35 152.55 48.3 155.3 50.2 157.85 50.6 158.55 51.4 159.85 52.65 162.7 53.6 164.5 54.6 165.95 54.85 166.35 55.2 166.45 55.55 166.65 55.8 166.45 56 166.25 55.85 165.55 55.4 164.35 53.85 161.4 52.5 158.8 52.05 157.2 51.55 154.55 51.25 153.2 50.8 151.05 49 145.95 46.45 138.9 45.7 136.75 43.95 131.55 42.95 127.45 40.45 116.75 42.15 108.15 42.9 104.55 44.75 103.5 46.25 102.65 49 103.25 52.75 104 55.95 105.5 57.75 106.45 58.8 106.55 59.6 106.65 60.3 106.3 60.85 106.05 61.2 105.6 61.8 105.8 62.55 106.05 64.05 106.75 64.45 106.8 65.35 106.9 66.15 106.45 66.95 105.95 67.2 105.15 67.25 105 67.25 104.9 67.85 104.85 68.4 104.6 69.15 104.2 69.5 103.35 69.85 102.5 69.55 101.75 73.8 99.45 78.7 98.85 83.6 98.3 88.25 99.55 88.9 99.75 89.2 100.05 89.35 100.3 89.45 100.95 89.5 101.2 89.55 101.35 89.35 101.7 89.25 102 88.95 102.85 89.25 103.65 89.55 104.45 90.5 104.9 91.3 105.35 92.3 105.3 93.05 105.3 94.1 105.05 94.7 104.9 95.9 104.65 96.05 104.6 97.55 104.4 97.9 104.35 98.25 104.3 99 104.95 100.05 104.95 100.1 104.95 100.15 104.95 99.7 105.2 99.35 105.6 98.55 106.5 98.6 107.6 98.75 109.1 100.3 110.65
L 102.5 112.5
Q 103.85 113.65 104.45 114.65 105.6 116.85 104.7 120.7 103.95 124.25 101.55 130.55 100.8 132.5 100.2 134.15 99.4 134.4 98.45 135.2 95.6 137.6 92.35 141.65 87.7 147.3 83.45 153.65 81.95 155.9 81.25 157.55 80.35 159.9 80.75 161.95 81 163.15 81.7 163.85 82 164.15 82.25 164.15 82.55 164.15 82.8 163.9 84 163.05 85.1 161.55 85.55 160.9 86.95 158.7 89.25 155 93.1 150 97.5 144.4 99.6 141.55 101.05 139.55 101.65 138.75 104 136.9 105.7 133.8 106.85 131.7 108.45 127.2 110.5 121.25 110.75 118.1 111.1 114.95 110.05 112.35 108.6 108.9 103.75 105.75 102.4 104.75 101.4 104.7 102.4 104.4 103.8 103.55 108.5 100.9 113.55 99.2 115.75 98.55 116.75 99.25 117.55 99.85 117.8 101.75 118.65 109 115.55 118.1 114.35 121.4 112.35 125.8 111.2 128.3 108.8 133.35 103.85 144.15 100.35 154.55 98.8 159.1 98.35 162.05 98.05 164.35 98.2 166.3 101.65 162.8 104.45 156.7 107.3 149.45 108.8 145.85 109.3 144.65 110.05 143.05 112.05 143.6 115.15 143.8 120.05 144.15 121.25 144.35 124.5 144.9 128.1 146.45 135 149.55 136.4 154.3 137.15 157 136.1 160.45 134.8 164.45 130.25 169.85 127.7 172.7 127.15 174.55 127 175 126.75 175.9 126.45 176.7 126.05 177.1 125.25 177.8 125.35 178.15 125.4 178.4 125.75 178.5 126.05 178.55 126.3 178.45 126.4 178.4 127.25 177.7 127.75 177.35 129.7 177 131.95 176.45 134.45 173.85 138.2 169.95 140.35 165.1 143.3 158.6 142 153.35 141.4 150.7 139.75 148.35 139.9 148.1 140.05 147.85 141 146.25 141.1 145.05 141.2 143.2 139.9 142.45 139.35 142.1 137.4 142 135.7 141.9 135.25 140.95 135.05 140.55 135.05 140.05
L 134.9 138.75
Q 137 139.25 139.5 138.9 142.75 138.55 146.1 136.8 153.05 133.25 156.7 126.85 159.45 122.05 160.25 115.1 160.65 110.75 160.45 102.9 160.35 100.8 159.6 99.95 158.8 99.15 157.5 99.35 156.2 99.6 155.5 100.6 155.25 101.15 155.1 101.4 154.8 101.9 154.45 102.1 153.7 102.65 152.6 102.15 150.6 101.25 150.35 98.1 150.25 96.25 150.05 95.7 149.9 95.3 149.75 95 150.8 94.7 152 94.15 159.4 90.6 163.8 81.95 167.05 75.65 168.75 65.55 169.1 63.8 168.9 62.8 168.4 61.1 167.1 60.85 165.7 60.45 163.8 62.6
L 159.75 67.1
Q 158.6 68.3 157.9 68.8 156.8 69.6 155.75 69.65 154.55 69.65 153.6 68.85 152.65 68.1 152.15 66.95 151.55 65.5 151.45 62.3 150.55 41.25 141.95 26.35 137.15 18 130 11.95 122.45 5.65 113.65 3.2 107.6 1.45 100.45 1.45 94.05 1.4 87.35 2.85 81.75 4.1 75.05 6.7 71.85 8 66.25 10.45 66.4 10.15 66.65 9.75
L 67.6 7.75
Q 70.8 0.7 76.65 -3.6
M 68.95 -4.25
Q 69.65 -4.5 70.15 -4.4 64.5 1.6 62.8 7.25 62.6 7.75 62.5 8.3 61.85 9.35 61.6 9.85 61.15 10.95 61.05 11.55 60.75 11.35 60.5 11.15 58.8 10 58.2 9.15 57.3 8.05 57.2 6.35 57.05 5.4 57.3 4.6 57.45 3.6 58.4 2.3 59.45 0.7 60.65 -0.25 61.55 -0.95 63 -1.65 66.75 -3.65 68.95 -4.25
M 130.1 19.2
Q 138 27.05 142.05 39.5 145.3 49.25 146.2 62.9 146.45 66.1 146.75 67.5 147.25 70.05 148.5 71.7 149.55 73.15 151.35 74.1 153.05 74.9 155 74.9 158.85 75 161.75 72.25 160.45 79.45 159.15 82.75 156.8 88.5 152.75 91.35 150.55 92.9 145.6 94.55 146.1 94.85 146.65 95 146.55 95.15 146.5 95.3 146.15 95.95 146 97.5 145.7 99.85 145.95 101.25 146.5 104.45 149.3 106.25 151.95 108.05 155.25 107.65 155.45 113.7 154.55 117.9 153.4 123.5 150.2 127.1 147.5 130.15 142.1 132.6 136.35 135 133.4 136.4 132.8 136.4 132.4 136.9 132.3 137.05 132.05 137.9
L 131.65 140.8
Q 131.6 141.4 131.65 141.8 130.8 141.35 129.9 141 124.85 138.9 119.5 138.55 115.55 138.35 111.9 139.1 112.65 137.5 113.55 135.65 116.95 128.8 118.35 125.4 123.7 113.1 123.1 103.5 123.05 102.75 122.95 102.05 123.8 102.35 124.6 102.5 128.4 103.25 131.55 101.7 132.65 101.2 134.05 100 136.35 98.15 137.3 96.4 138.1 95.05 138.7 92.5 139.35 89.85 139.5 88.2 139.7 85.8 139 83.95 138.6 83.15 138.7 82.65 138.8 82.4 139.3 81.75 140.6 80.2 140.95 78.1 141.25 76.05 140.45 74.15 139.7 72.3 138.1 70.9 136.6 69.5 134.65 68.85 133.2 68.35 132.2 68.6 130.6 68.95 130.45 70.2 130.3 71.3 131.2 72.1 131.7 72.6 132.9 73.25 134.9 74.45 135.7 75.7 136.25 76.5 136.35 77.5 136.4 78.45 135.95 79.25 135.75 79.6 134.8 80.55 134.05 81.3 133.9 81.95 133.7 82.75 134.25 83.8 134.55 84.35 135.25 85.45 136 86.85 135.95 88.6 135.85 90.15 135.1 91.7 133.7 94.45 130.55 96.15 128.4 97.35 126.6 97.3 125.25 97.25 123 96.15 123.15 95.7 123.75 95.15 124.4 94.45 124.6 94.2 124.95 93.6 124.85 92.8 124.7 92.05 124.15 91.55 123.9 91.25 123.25 90.95 122.5 90.65 122.3 90.5 121 89.55 120.8 87.4 120.7 86.55 120.95 86 121.1 85.75 121.4 85.4 121.75 85.3 122 85.1 122.85 84.5 122.9 83.25 122.95 82.85 122.85 82.45 122.85 82.3 122.8 82.2
L 122.8 82.15
Q 122.15 80.15 122.15 79.05 122.15 78.65 122.5 76.55 122.8 75.05 122.35 74.2 121.95 73.5 121.15 73.2 120.45 72.9 119.7 73.15 118.5 73.6 117.65 75.45 116.85 77.2 116.8 79 116.7 81.1 117.65 82.9 117.15 83.4 116.9 84 116.3 85.1 116.3 86.85 116.4 90.65 118.95 93.5 118.1 93.6 117.5 93.85 114.75 93.05 110.5 94.6 105.15 96.4 100.35 99.6 100.2 99.45 99.95 99.3 98.95 98.65 97.3 98.65 96.05 98.65 94.45 99
L 94.45 98.95
Q 93.75 97.1 92.7 96.4 91.8 95.75 89.95 95.4 84.1 94.2 80.2 94.35 77.45 94.55 71.85 95.85 68.2 96.7 66.5 97.5 65 98.2 64.45 99.05 63.85 99.85 63.85 101.3 63.9 101.6 63.95 101.9 63 101.7 61.85 101.2 60.35 100.5 59.6 100.15
L 57.1 99.4
Q 55.95 99.15 55.7 99.15 55.25 99.15 54.85 99.2 51.4 97.8 47.6 97.5 44.4 97.2 42.55 98.05 40.45 99 39.05 101.3 39.8 99.6 40 97.3 40.15 95.1 39.55 93.9 39.05 92.95 38.9 92.45 38.75 91.85 38.85 90.65 39.05 88.3 38.8 86.9 38.5 84.2 36.85 82.7 35.95 81.9 34.75 81.7 33.5 81.5 32.5 82.05 32 82.35 31.85 82.75 31.65 83.2 31.95 83.85 32.35 84.65 33.75 85.9 34.55 86.8 34.75 88.05 34.95 89.35 34.45 90.45
L 34.05 91.3
Q 33.8 91.75 33.75 92.15 33.5 93.4 34.45 94.3 34.65 94.5 35.15 94.9 35.7 95.2 35.9 95.45 36.45 96.05 36.55 97.05 36.8 99.6 34.65 102.25 33.45 103.75 32.2 104 31.85 104.05 30.85 104.05 29.95 104 29.5 104.2 28.6 104.6 28.4 105.65 28.2 106.7 28.9 107.35 21.8 107.6 18.5 104.85 17.3 103.95 16.8 102.8 15.9 101.05 16.6 98.9 17.25 96.85 18.95 95.55 20.05 94.7 20.35 94.15 20.8 93.05 19.6 91.5 18.95 90.55 18.8 90.25 18.4 89.55 18.4 88.9 18.4 88.25 18.9 87.4 19.55 86.2 19.65 85.85 20 84.55 19.2 83.4 18.35 82.25 17 82.4 15.8 82.5 14.7 83.8 13.1 85.65 13.1 88.3 13.1 91 14.7 92.9 15.05 93.25 15 93.55 15 93.7 14.55 94.2 14.2 94.55 13.8 95.4 12.5 97.95 12.3 99.55 11.9 102.3 13.4 105 14.8 107.5 17.35 109.1 21.4 111.65 28.35 111.65 31.25 111.55 32.45 110.7 33.4 110.1 33.75 109 34.05 107.85 33.45 107 33.95 106.3 35.05 105.55 36.5 104.5 36.75 104.3 37.7 103.5 38.4 102.5 37.8 103.7 37.35 105.2 34.35 115.4 38.15 130.4 39.75 136.5 42 142.35
L 41.95 142.35
Q 38.75 142.5 33.6 144.5 33.85 144.1 34.1 143.7 34.4 143.25 34.25 142.95 34.1 142.6 33.3 142.85
L 28.2 144.5
Q 22.65 146.2 19.45 145.95 13.6 145.65 8.7 140.65 5.05 136.9 2.2 130.25 4.8 130.05 6.75 128.2 8.8 126.2 9.05 123.6 9.25 122.2 8.6 119
L 7.25 112.85
Q 6.85 111.3 6.4 110.6 6 109.95 5.45 109.7 5.15 108.8 3.9 108.2 2.55 107.65 1.85 107.35
L 0.15 106.65
Q 0.05 106.6 0 106.6 -3.8 103.7 -6.5 99.5 -10.05 93.8 -10.45 87.4 -7.35 90.1 -4.6 90.8 -2.85 91.25 -1.2 90.85 0.6 90.55 1.75 89.4 3.15 88 3.65 85.3 4.05 82.8 3.65 79.4 3.6 79.1 2.6 73.5 1 64.2 2 55.8 3.15 46.45 7.55 39.3 10.15 34.95 14.55 30.75 22.55 22.9 31.55 19.2 44.25 14.05 58.9 16.8 59.8 17 60.5 16.95 60.7 17.2 61.05 17.35 61.8 17.6 62.6 17.5 63.65 17.45 65.5 16.5 80.2 9 91.4 7.2 98.55 6 105.25 6.8 112.45 7.6 118.4 10.65 120.95 11.9 123.85 13.95 127.45 16.6 130.1 19.2
M 27.95 67.7
Q 26.9 68.1 26.65 69.1 26.25 70.35 27.3 72 27.65 72.7 28.25 73.4 27.95 73.75 27.65 74.15 27.45 74.5 27.2 74.85 24.7 74.05 22.8 73.6 21.3 73.35 20.55 73.65 19.75 73.95 19.35 74.8 18.95 75.6 19.2 76.4 19.45 77.15 20.3 77.8 20.75 78.15 21.95 78.75 24.15 79.9 24.9 80.15 26.15 80.6 27.3 80.5 27.65 80.8 28.2 81.05 29.65 81.6 31 80.75 31.8 80.25 33 78.45
L 34.55 76.3
Q 36 74.55 37.45 73.35 41.4 70.15 46.75 69.8 51.55 69.45 56.55 71.55 58.5 72.3 58.8 72.35 60.2 72.6 61.15 71.95 61.75 71.45 61.95 70.65 62.15 69.8 61.9 69.05 61.5 67.7 59.8 66.75 58.7 66.15 56.8 65.75
L 54.05 65.05
Q 51.35 64.4 49.95 64.2 44.15 63.45 37.45 66.2 35.35 67 33.9 67.95 32.95 68.6 31.75 69.6
L 31.7 69.55
Q 31.15 68.85 30.9 68.55 30.3 67.95 29.85 67.7 28.95 67.25 27.95 67.7
M 84.1 50.6
Q 83.65 49.9 83 49.8 82 49.65 81.4 50.75 81.1 51.35 81 52.7
L 80.4 62.75 80 65.25
Q 79.7 66.9 79.35 70.15 79.3 70.5 79.3 70.8
L 73.7 60.75
Q 72.9 59.2 71.9 59.25 70.65 59.4 70.5 61.55
L 69.95 66.3 62.3 61.1
Q 59.4 59.15 58.25 57.65 56.8 55.9 56.25 53.45 55.75 51.2 56.1 48.8 56.8 44.4 60.25 40.45 61.45 39.2 61.35 38.3 61.3 37.5 60.5 37.05 59.75 36.65 58.9 36.75 57.75 37 56.3 38.6 52.45 43 51.75 48.8 51.3 52.15 52.1 55.35 52.95 58.7 55 61.15 56.65 63.25 60.1 65.45 65.45 69.05 69.75 70.2 71.35 70.7 72.3 70.4 72.95 70.2 73.35 69.7 73.8 69.15 73.75 68.55 74.5 70.55 76.05 72.05 77.6 73.5 79.6 74.15 79.85 74.7 80.25 75.1 80.95 75.7 81.8 75.6 82.5 75.5 83.1 74.6 83.45 74.05 83.65 73 83.95 71.7 84.1 70
L 84.8 64.75
Q 85.05 62.4 85.05 62 85.05 61.2 85 59.65
L 84.8 55
Q 84.7 52.9 84.5 51.9 84.35 50.95 84.1 50.6
M 121 58.95
Q 120.85 57.6 119.6 57 118.35 56.45 117.2 57.25 116.6 57.65 115.65 59.5 115.3 60.05 115.05 60.45 109.1 56.8 104.05 56.85 101.4 56.85 97.85 57.9 91.1 59.95 87.15 63.4 85.7 64.75 85.55 65.75 85.35 66.75 86.2 67.65 87.05 68.5 88.1 68.35 88.7 68.3 90 67.5 93.75 65.25 98.7 63.95 101.2 63.3 103.15 63.3 108.7 63.35 114.7 69.25 116.25 70.75 116.95 71.05 118.9 71.8 120.55 70.6 120.7 70.5 120.85 70.4 121.05 70.55 121.3 70.7 122.4 71.15 123.65 70.55 124.2 70.25 125.55 69.1
L 128 66.8
Q 129.3 65.6 129.5 64.65 129.8 63.65 129.05 62.65 128.25 61.7 127.2 61.7 126 61.7 124.3 63.05
L 123.05 64
Q 121.95 64.85 121.3 65.6 121.15 65.25 120.85 64.95 120.35 64.35 119.4 63.55 120 62.45 120.55 61 121.05 59.65 121 58.95 Z"/>
</g>
</defs>

<g transform="matrix( 1, 0, 0, 1, 0,0) ">
<use xlink:href="#Layer0_0_FILL"/>
</g>
</svg>
