
<svg xmlns="http://www.w3.org/2000/svg" version="1.1" xmlns:xlink="http://www.w3.org/1999/xlink" preserveAspectRatio="none" x="0px" y="0px" width="300px" height="300px" viewBox="0 0 300 300">
<defs>
<g id="philip_0_Layer1_0_FILL">
<path fill="#55003C" stroke="none" d="
M 168.3 19.6
Q 166.75 21.15 165.95 22.65 163.1 20.55 160.1 18.8 147.9 11.65 134.75 6.6 122.25 1.8 108.95 0.45 93.7 -1.2 79.1 3.4 74.5 4.7 70.35 7.2 63.55 11.35 59.95 18.35 57.05 24.05 54.7 30 51.25 38.85 51.15 48.45 43.5 48.35 36 50 27 52 19.45 56.85 11.35 61.95 6.1 69.95 0.5 78.4 0.05 88.65 -0.4 98.4 3.15 107.55 6.5 116.15 12.2 123.35 18.05 130.75 25.65 136.55 26.15 136.95 26.65 137.4 25.7 137.65 24.8 138.05 22.7 139.3 21.6 139.85 20.5 140.35 19.95 140.6 19.05 141.05 18.55 141.65 17.55 143 18.1 144.45 18.65 145.9 20.25 146.25 21.2 146.45 22.55 145.95 24.6 145.25 27.85 143.15 28.8 142.55 29.4 142.05 29.65 142.95 29.75 144 30.6 153.35 33.8 162.15 34.25 163.1 34.75 164.1 36.55 167.4 38.95 170.1 43.1 174.7 49.25 176.1 55.8 177.5 62.6 177.1 65 177 67.35 176.5 76.75 175.55 85.7 173.1 85.95 173.2 86.25 173.25 84.85 174 83.55 174.9 80.05 177.3 77.85 180.7 75.95 183.65 74.75 187.85 74 190.45 73.05 195.6
L 69.2 216.85
Q 66.95 228.95 66.7 235.85 66.5 236.2 66.4 236.6 65.7 238.95 66.95 240.7 68.1 242.25 71.4 243.45 87.5 249.5 102.4 248.15 107.5 247.7 110.85 246.2 112.2 245.6 113.35 244.8 148.35 243.7 183.35 245.55 184.65 245.65 185.7 245.55 188.65 246.95 193.9 246.85 197.15 246.8 199.25 246.4 202.1 245.9 204.1 244.55 206.9 242.65 207.25 240.15 207.6 238 205.9 234.75 202.15 227.3 196.25 218.7 192.6 213.45 185.05 203.55 180.25 197.45 178.2 195.35 178.05 195.2 173.15 190.6 170.1 187.75 168.45 185.5 168.35 185.35 168.25 185.2 168.55 184.8 168.9 184.4 171 182 170.8 180 170.8 179.85 170.75 179.7 174 179.15 177.2 178.4 185.6 176.6 193.6 173.55 195.1 173 196.35 172.1 198.4 170.55 200.4 168.85 202.95 166.55 205.45 164.25 215.35 155.1 222.15 143.6 223.95 144.3 225.6 143.45 228.35 142.15 230.5 139.95 235.2 135.4 239 130 242.05 125.65 244.35 120.7 246.3 116.55 246.15 112.05 246.05 108.8 245.95 105.6 245.8 99.3 244.75 93.2 242.95 82.7 238.4 73.1 234.75 65.35 229.6 58.6 225.4 53.15 220.5 48.6 204.45 33.75 183.15 27.9 180.75 27.3 178.45 26.55 174.85 25.35 171.15 25.45 173.3 22.25 176.75 19.95 178.7 18.6 179.05 17.8 179.45 16.9 179.1 15.95 178.7 14.95 177.8 14.65 176.7 14.3 175.05 15.05 171.25 16.65 168.3 19.6 Z"/>
</g>

<g id="philip_0_Layer0_0_FILL">
<path fill="#55003C" stroke="none" d="
M 177.8 14.65
Q 176.7 14.3 175.05 15.05 171.25 16.65 168.3 19.6 166.75 21.15 165.95 22.65 163.1 20.55 160.1 18.8 147.9 11.65 134.75 6.6 122.25 1.8 108.95 0.45 93.7 -1.2 79.1 3.4 74.5 4.7 70.35 7.2 63.55 11.35 59.95 18.35 57.05 24.05 54.7 30 51.25 38.85 51.15 48.45 43.5 48.35 36 50 27 52 19.45 56.85 11.35 61.95 6.1 69.95 0.5 78.4 0.05 88.65 -0.4 98.4 3.15 107.55 6.5 116.15 12.2 123.35 18.05 130.75 25.65 136.55 26.15 136.95 26.65 137.4 25.7 137.65 24.8 138.05 22.7 139.3 21.6 139.85 20.5 140.35 19.95 140.6 19.05 141.05 18.55 141.65 17.55 143 18.1 144.45 18.65 145.9 20.25 146.25 21.2 146.45 22.55 145.95 24.6 145.25 27.85 143.15 28.8 142.55 29.4 142.05 29.65 142.95 29.75 144 30.6 153.35 33.8 162.15 34.25 163.1 34.75 164.1 36.55 167.4 38.95 170.1 43.1 174.7 49.25 176.1 55.8 177.5 62.6 177.1 65 177 67.35 176.5 76.75 175.55 85.7 173.1 85.95 173.2 86.25 173.25 84.85 174 83.55 174.9 80.05 177.3 77.85 180.7 75.95 183.65 74.75 187.85 74 190.45 73.05 195.6
L 69.2 216.85
Q 66.95 228.95 66.7 235.85 66.5 236.2 66.4 236.6 65.7 238.95 66.95 240.7 68.1 242.25 71.4 243.45 87.5 249.5 102.4 248.15 107.5 247.7 110.85 246.2 112.2 245.6 113.35 244.8 148.35 243.7 183.35 245.55 184.65 245.65 185.7 245.55 188.65 246.95 193.9 246.85 197.15 246.8 199.25 246.4 202.1 245.9 204.1 244.55 206.9 242.65 207.25 240.15 207.6 238 205.9 234.75 202.15 227.3 196.25 218.7 192.6 213.45 185.05 203.55 180.25 197.45 178.2 195.35 178.05 195.2 173.15 190.6 170.1 187.75 168.45 185.5 168.35 185.35 168.25 185.2 168.55 184.8 168.9 184.4 171 182 170.8 180 170.8 179.85 170.75 179.7 174 179.15 177.2 178.4 185.6 176.6 193.6 173.55 195.1 173 196.35 172.1 198.4 170.55 200.4 168.85 202.95 166.55 205.45 164.25 215.35 155.1 222.15 143.6 223.95 144.3 225.6 143.45 228.35 142.15 230.5 139.95 235.2 135.4 239 130 242.05 125.65 244.35 120.7 246.3 116.55 246.15 112.05 246.05 108.8 245.95 105.6 245.8 99.3 244.75 93.2 242.95 82.7 238.4 73.1 234.75 65.35 229.6 58.6 225.4 53.15 220.5 48.6 204.45 33.75 183.15 27.9 180.75 27.3 178.45 26.55 174.85 25.35 171.15 25.45 173.3 22.25 176.75 19.95 178.7 18.6 179.05 17.8 179.45 16.9 179.1 15.95 178.7 14.95 177.8 14.65
M 164.05 30.7
Q 166.3 32.45 168.9 31.35 169.8 31.7 170.75 32 173.55 33 176.65 33.4 181.4 34.35 186.05 36 206.6 42.8 220.9 58.9 229.55 68.7 234.35 81 239.4 93.9 238.75 107.65 238.55 111.9 236.7 115.55 236.7 116 236.65 116.45 236.55 117.75 236.05 118.9 233 125.55 227.7 130.7 228 129.35 228.3 128.05 228.7 126.35 229.25 124.7 233 113.35 229.5 102.25 230.15 101.65 230.5 100.7 231 99.45 230.05 98.6 228.2 96.95 225.85 98.2 220.9 100.75 215.75 102.45 209.35 104.45 202.95 106.45 188.95 105.2 175.1 105.2 173.9 105.2 172.7 105.35 169.8 105.95 167.95 107.9 165 108.15 162.05 108.15 149.95 108.2 137.75 106.85 130.9 106.45 124.65 105.05 124.35 104.7 124.05 104.5 121.2 102.85 117.7 102.6 113 102.65 108.35 102.1 104.6 102 101 100.85 91.4 97.75 82.05 93.75 72.7 89.75 66.8 81.45 64.15 77.75 61.35 74.25 59.75 72.3 57.15 72.35 54.8 72.65 53.55 74.85 52.5 76.7 53.1 78.8 54.6 83.8 59.05 87.1 60.6 93.45 61.2 100.05 61.45 103 60.95 106.15 60.6 108.15 59.35 109.75 57.15 112.6 54.6 115.15 52.1 115.85 49.95 117.25 48.9 118 47.85 118.65 43.2 121.4 40 125.75 37.9 128.6 37.2 131.85 36.7 134.05 36.5 136.45 36 142.25 39.65 146.75 42.95 150.75 46.95 154 52.2 158.3 59.1 159.05 61.35 158.9 62.8 160.3 67.15 164.6 72.3 167.9 62.3 169.7 52.2 168.45 45.2 167.8 41.55 161.75 37.85 155.65 37.35 148.6 37.05 144.5 36.55 140.5 36.2 137.8 33.75 136.6 28.55 133.8 24.45 129.35 22.1 126.75 19.7 123.95 13.45 116.55 9.75 107.7 9.1 106.05 8.8 104.35 7.15 94.7 9.4 85.15 10.3 81.4 12.1 77.95 18.9 65.25 32.65 60.5 43.3 56.85 54.2 54.75 56.1 54.25 57.1 52.7 57.55 52 57.7 51.3 60 41.6 63.1 31.95 65.25 25.35 69.15 19.7 71.4 16.55 74.85 14.4 82.1 9.85 90.85 9.05 105.4 7.1 120 10.3 132.15 13.05 143.65 18.2 154.65 23.1 164.05 30.7
M 207.65 113.5
Q 213.75 114.55 219.9 114.95 221.55 114.8 222.65 113.5 222.8 114.3 222.75 115.1 222.25 131.15 213.45 144.4 211.35 147.55 209.05 150.6 201.85 160.25 191.2 165.7 189.2 166.8 187.25 167.8 184.7 169.15 182 170.1 173.3 173.1 164 173.7 160.95 174.15 157.95 174.35 153.5 174.6 149.1 174.65 149.1 174.75 149.15 174.95 148 175.35 147 176.6 145.6 178.4 145.75 180.45 145.95 182.3 147.2 183.25
L 147.2 183.3
Q 147.25 183.7 147.4 184.55 147.7 186 147.35 187.75 147.1 188.95 146.5 189.8 145.7 190.95 144 191.75 141.7 192.75 138.95 192.6 136.4 192.5 133.9 191.5 130.2 190 125.35 185.8 123.9 184.65 122.2 183 122.45 182.75 122.65 182.4 123.05 181.75 123.25 180.25 123.45 178.45 123.35 177.45 123.15 175.65 122 174.75 121.4 174.3 120.8 174.2 120.9 173.55 121.15 173 109.9 171.65 98.9 168.95
L 86.05 164.55
Q 81.1 162.3 76.3 159.55 74.6 158.55 72.7 158.65 69.85 155.65 66.75 153 65.5 151.85 63.75 151.75 58.8 152.1 54.45 149.85 47.95 146.45 45.4 139.75 44.65 137.7 45.35 135.5 47.6 128.7 53.65 124.6 55.6 123.4 57.9 122.3 60.4 120.95 60.15 118.1 68.1 111 69 100.6 69.3 97.15 68.75 93.8 80.7 100 93.75 103.6 83 104.2 72.6 106.5 71.85 106.55 71.2 106.85 68.75 108.95 70.75 111.15 71.35 111.8 72.25 112.15 73.6 112.5 74.9 112.4 80 111.5 85.15 111 86.25 117.7 92.4 120.75 103.75 126.55 115.25 121.25 120.7 118.8 122.95 113.15 123.5 111.85 124.15 110.55 143.7 113.2 163.2 113.3 165.95 113.3 168.75 113.15 172.3 123.65 183.2 125.85 193.15 127.7 201.75 122.45 206.95 119.25 207.65 113.5
M 218.35 108.25
L 222.45 106.45 222.75 110.45 218.35 108.25
M 201.95 112.9
Q 201.35 113.9 200.65 114.8 198.25 117.95 194.4 118.7 189.5 119.9 184.65 119.35 177.4 118.35 175.4 111.65
L 201.95 112.9
M 117.35 109.6
Q 116.55 111.2 115.65 112.65 115.15 113.5 114.35 113.9 105.5 119.4 95.65 115.35 92.4 113.7 90.85 110.4
L 117.35 109.6
M 100.95 177.25
Q 100.85 177.35 100.8 177.5 100.2 178.75 101.6 181.3 103.25 184.5 104.35 189.05 104.6 190.05 105.45 194.25 105.35 194.4 105.3 194.55 104.75 195.85 105.05 198.45 105.9 209.1 106.95 215.15 108.2 221.8 108.4 223.1 108.8 225.95 109.1 231.65 109.25 234.65 108.45 236.15
L 107.8 236.1
Q 107.3 237.1 106.15 237.75 104.6 238.65 101.4 238.45 101.4 238.5 101.4 238.55 88.65 239.1 76.4 234.5 75.85 234.3 75.35 234.15 76.15 225.6 77.85 215.4 79 208.4 81.7 194.65 82.45 190.95 83.05 189.1 84 186.05 85.45 184 88.4 179.95 93.7 178.3 96.9 177.25 100.95 177.25
M 115.15 179.9
Q 113.9 180.9 114.25 182.7 114.5 183.85 115.6 185.45 117.85 188.4 122.45 191.9 127.65 196 131.6 197.4 137 199.3 142.65 198.05 147.7 196.9 150.75 193.7 152.4 192 153.3 189.75 154.2 187.5 154.1 185.2 154 183.15 153.05 181.75 152.9 181.6 152.8 181.45
L 152.8 181.4
Q 154.65 181.3 156.5 181.25 157.65 182.65 160.95 183.15 159.75 184.5 159.15 186.3 158.6 188.05 158.8 189.85 159 191.75 160.15 193.9 160.75 195 162.55 197.6 175.2 216 181.1 237.5
L 117.9 236.3
Q 117.95 235.55 117.9 234.75 117.85 232.75 117.15 229
L 111.75 200.95
Q 111.75 200.5 111.8 200.05 112 197.1 111.3 193.3 110 185 107.05 179.55 106.4 178.3 105.65 177.55 111.55 178.45 117.5 179.25
L 117.5 179.45
Q 116.15 179.1 115.15 179.9
M 174.05 200.05
Q 177.2 203.3 181.5 209.3 192.4 224.5 197.65 236.7 195.95 237.15 191.45 237.35 190.25 237.4 189.25 237.5 187.85 232.9 186.55 229.4 180.6 212.7 171.45 197.55 172.6 198.7 174.05 200.05
M 149.75 163.85
Q 149.2 163.1 148.4 162.7 147.3 162.1 145.05 162
L 139.15 161.55
Q 137.5 161.35 136.6 161.7 135.95 161.9 135.5 162.4 135.05 162.95 135.05 163.55 135 164.7 136.55 165.75 139.9 167.9 145.3 168.1 147.1 168.2 148.35 167.7 150.05 167 150.2 165.45 150.25 164.6 149.75 163.85
M 113.05 129.4
Q 114.85 128.5 115.15 127.3 115.35 126.65 115 125.95 114.65 125.25 114 124.85 112.75 124.2 111.2 124.6 110.05 124.9 108.6 125.9 107.2 126.8 106.3 127.85 105.25 129.15 104.9 129.35 104.55 129.55 103.7 129.9 102.9 130.4 103.2 131.05 103.45 131.45 104.45 131.45 109.6 131.1 113.05 129.4
M 145.65 134.7
Q 143.65 134.8 142.7 135.55 142.05 136 141.75 136.8 141.45 137.6 141.8 138.3 142.35 139.4 144.85 139.95 147.05 140.55 147.6 140.65 149.3 140.85 150.3 140.15 151.2 139.55 151.45 138.4 151.7 137.25 151.1 136.4 150.35 135.45 148.45 134.95 146.95 134.7 145.65 134.7 Z"/>

<path fill="#2EAEAC" stroke="none" d="
M 181.5 209.3
Q 177.2 203.3 174.05 200.05 172.6 198.7 171.45 197.55 180.6 212.7 186.55 229.4 187.85 232.9 189.25 237.5 190.25 237.4 191.45 237.35 195.95 237.15 197.65 236.7 192.4 224.5 181.5 209.3
M 100.8 177.5
Q 100.85 177.35 100.95 177.25 96.9 177.25 93.7 178.3 88.4 179.95 85.45 184 84 186.05 83.05 189.1 82.45 190.95 81.7 194.65 79 208.4 77.85 215.4 76.15 225.6 75.35 234.15 75.85 234.3 76.4 234.5 88.65 239.1 101.4 238.55 101.4 238.5 101.4 238.45 104.6 238.65 106.15 237.75 107.3 237.1 107.8 236.1
L 108.45 236.15
Q 109.25 234.65 109.1 231.65 108.8 225.95 108.4 223.1 108.2 221.8 106.95 215.15 105.9 209.1 105.05 198.45 104.75 195.85 105.3 194.55 105.35 194.4 105.45 194.25 104.6 190.05 104.35 189.05 103.25 184.5 101.6 181.3 100.2 178.75 100.8 177.5 Z"/>

<path fill="#CEFA71" stroke="none" d="
M 114.25 182.7
Q 113.9 180.9 115.15 179.9 116.15 179.1 117.5 179.45
L 117.5 179.25
Q 111.55 178.45 105.65 177.55 106.4 178.3 107.05 179.55 110 185 111.3 193.3 112 197.1 111.8 200.05 111.75 200.5 111.75 200.95
L 117.15 229
Q 117.85 232.75 117.9 234.75 117.95 235.55 117.9 236.3
L 181.1 237.5
Q 175.2 216 162.55 197.6 160.75 195 160.15 193.9 159 191.75 158.8 189.85 158.6 188.05 159.15 186.3 159.75 184.5 160.95 183.15 157.65 182.65 156.5 181.25 154.65 181.3 152.8 181.4
L 152.8 181.45
Q 152.9 181.6 153.05 181.75 154 183.15 154.1 185.2 154.2 187.5 153.3 189.75 152.4 192 150.75 193.7 147.7 196.9 142.65 198.05 137 199.3 131.6 197.4 127.65 196 122.45 191.9 117.85 188.4 115.6 185.45 114.5 183.85 114.25 182.7 Z"/>

<path fill="#FFFFCC" stroke="none" d="
M 115.65 112.65
Q 116.55 111.2 117.35 109.6
L 90.85 110.4
Q 92.4 113.7 95.65 115.35 105.5 119.4 114.35 113.9 115.15 113.5 115.65 112.65
M 200.65 114.8
Q 201.35 113.9 201.95 112.9
L 175.4 111.65
Q 177.4 118.35 184.65 119.35 189.5 119.9 194.4 118.7 198.25 117.95 200.65 114.8 Z"/>

<path fill="#FFE292" stroke="none" d="
M 222.45 106.45
L 218.35 108.25 222.75 110.45 222.45 106.45
M 219.9 114.95
Q 213.75 114.55 207.65 113.5 206.95 119.25 201.75 122.45 193.15 127.7 183.2 125.85 172.3 123.65 168.75 113.15 165.95 113.3 163.2 113.3 143.7 113.2 124.15 110.55 123.5 111.85 122.95 113.15 120.7 118.8 115.25 121.25 103.75 126.55 92.4 120.75 86.25 117.7 85.15 111 80 111.5 74.9 112.4 73.6 112.5 72.25 112.15 71.35 111.8 70.75 111.15 68.75 108.95 71.2 106.85 71.85 106.55 72.6 106.5 83 104.2 93.75 103.6 80.7 100 68.75 93.8 69.3 97.15 69 100.6 68.1 111 60.15 118.1 60.4 120.95 57.9 122.3 55.6 123.4 53.65 124.6 47.6 128.7 45.35 135.5 44.65 137.7 45.4 139.75 47.95 146.45 54.45 149.85 58.8 152.1 63.75 151.75 65.5 151.85 66.75 153 69.85 155.65 72.7 158.65 74.6 158.55 76.3 159.55 81.1 162.3 86.05 164.55
L 98.9 168.95
Q 109.9 171.65 121.15 173 120.9 173.55 120.8 174.2 121.4 174.3 122 174.75 123.15 175.65 123.35 177.45 123.45 178.45 123.25 180.25 123.05 181.75 122.65 182.4 122.45 182.75 122.2 183 123.9 184.65 125.35 185.8 130.2 190 133.9 191.5 136.4 192.5 138.95 192.6 141.7 192.75 144 191.75 145.7 190.95 146.5 189.8 147.1 188.95 147.35 187.75 147.7 186 147.4 184.55 147.25 183.7 147.2 183.3
L 147.2 183.25
Q 145.95 182.3 145.75 180.45 145.6 178.4 147 176.6 148 175.35 149.15 174.95 149.1 174.75 149.1 174.65 153.5 174.6 157.95 174.35 160.95 174.15 164 173.7 173.3 173.1 182 170.1 184.7 169.15 187.25 167.8 189.2 166.8 191.2 165.7 201.85 160.25 209.05 150.6 211.35 147.55 213.45 144.4 222.25 131.15 222.75 115.1 222.8 114.3 222.65 113.5 221.55 114.8 219.9 114.95
M 142.7 135.55
Q 143.65 134.8 145.65 134.7 146.95 134.7 148.45 134.95 150.35 135.45 151.1 136.4 151.7 137.25 151.45 138.4 151.2 139.55 150.3 140.15 149.3 140.85 147.6 140.65 147.05 140.55 144.85 139.95 142.35 139.4 141.8 138.3 141.45 137.6 141.75 136.8 142.05 136 142.7 135.55
M 115.15 127.3
Q 114.85 128.5 113.05 129.4 109.6 131.1 104.45 131.45 103.45 131.45 103.2 131.05 102.9 130.4 103.7 129.9 104.55 129.55 104.9 129.35 105.25 129.15 106.3 127.85 107.2 126.8 108.6 125.9 110.05 124.9 111.2 124.6 112.75 124.2 114 124.85 114.65 125.25 115 125.95 115.35 126.65 115.15 127.3
M 148.4 162.7
Q 149.2 163.1 149.75 163.85 150.25 164.6 150.2 165.45 150.05 167 148.35 167.7 147.1 168.2 145.3 168.1 139.9 167.9 136.55 165.75 135 164.7 135.05 163.55 135.05 162.95 135.5 162.4 135.95 161.9 136.6 161.7 137.5 161.35 139.15 161.55
L 145.05 162
Q 147.3 162.1 148.4 162.7 Z"/>

<path fill="#FF6E35" stroke="none" d="
M 168.9 31.35
Q 166.3 32.45 164.05 30.7 154.65 23.1 143.65 18.2 132.15 13.05 120 10.3 105.4 7.1 90.85 9.05 82.1 9.85 74.85 14.4 71.4 16.55 69.15 19.7 65.25 25.35 63.1 31.95 60 41.6 57.7 51.3 57.55 52 57.1 52.7 56.1 54.25 54.2 54.75 43.3 56.85 32.65 60.5 18.9 65.25 12.1 77.95 10.3 81.4 9.4 85.15 7.15 94.7 8.8 104.35 9.1 106.05 9.75 107.7 13.45 116.55 19.7 123.95 22.1 126.75 24.45 129.35 28.55 133.8 33.75 136.6 36.2 137.8 36.55 140.5 37.05 144.5 37.35 148.6 37.85 155.65 41.55 161.75 45.2 167.8 52.2 168.45 62.3 169.7 72.3 167.9 67.15 164.6 62.8 160.3 61.35 158.9 59.1 159.05 52.2 158.3 46.95 154 42.95 150.75 39.65 146.75 36 142.25 36.5 136.45 36.7 134.05 37.2 131.85 37.9 128.6 40 125.75 43.2 121.4 47.85 118.65 48.9 118 49.95 117.25 52.1 115.85 54.6 115.15 57.15 112.6 59.35 109.75 60.6 108.15 60.95 106.15 61.45 103 61.2 100.05 60.6 93.45 59.05 87.1 54.6 83.8 53.1 78.8 52.5 76.7 53.55 74.85 54.8 72.65 57.15 72.35 59.75 72.3 61.35 74.25 64.15 77.75 66.8 81.45 72.7 89.75 82.05 93.75 91.4 97.75 101 100.85 104.6 102 108.35 102.1 113 102.65 117.7 102.6 121.2 102.85 124.05 104.5 124.35 104.7 124.65 105.05 130.9 106.45 137.75 106.85 149.95 108.2 162.05 108.15 165 108.15 167.95 107.9 169.8 105.95 172.7 105.35 173.9 105.2 175.1 105.2 188.95 105.2 202.95 106.45 209.35 104.45 215.75 102.45 220.9 100.75 225.85 98.2 228.2 96.95 230.05 98.6 231 99.45 230.5 100.7 230.15 101.65 229.5 102.25 233 113.35 229.25 124.7 228.7 126.35 228.3 128.05 228 129.35 227.7 130.7 233 125.55 236.05 118.9 236.55 117.75 236.65 116.45 236.7 116 236.7 115.55 238.55 111.9 238.75 107.65 239.4 93.9 234.35 81 229.55 68.7 220.9 58.9 206.6 42.8 186.05 36 181.4 34.35 176.65 33.4 173.55 33 170.75 32 169.8 31.7 168.9 31.35 Z"/>
</g>
</defs>

<g transform="matrix( 1, 0, 0, 1, 25.65,28.65) ">
<g transform="matrix( 1, 0, 0, 1, 0,0) ">
<use xlink:href="#philip_0_Layer1_0_FILL"/>
</g>

<g transform="matrix( 1, 0, 0, 1, 0,0) ">
<use xlink:href="#philip_0_Layer0_0_FILL"/>
</g>
</g>
</svg>
