
<svg xmlns="http://www.w3.org/2000/svg" version="1.1" xmlns:xlink="http://www.w3.org/1999/xlink" preserveAspectRatio="none" x="0px" y="0px" width="150px" height="150px" viewBox="0 0 150 150">
<defs>
<g id="Layer0_0_FILL">
<path fill="#FFFFFF" stroke="none" d="
M 121.95 18.8
Q 129.25 17.35 133.2 19.9 134.8 20.95 136.25 22.75 139.75 26.85 140.85 30.4 141.7 33.3 141.5 37.2 141.35 41.35 140.3 46.15 139.5 49.6 137.9 54.9 137.25 56.9 137.45 58.05 137.3 58.75 137.9 60.55 138.6 62.65 138.75 67.15 138.9 70.5 138.65 72.3 138.35 75.2 137.2 77.25 136.1 79.2 134.2 80.55 132.3 81.9 130.05 82.3 128.45 82.55 125.9 82.3 125.15 82.2 124.55 82.15 126.7 80.65 128.5 78.6 129.65 77.35 130.4 76.1 131.8 73.75 132.05 71.05 132.35 68.3 131.45 65.7 130.5 63.1 128.6 61.05 126.6 59 123.95 57.85 120.25 56.15 116.8 56.9 116.75 56.8 116.7 56.7 116.55 56.25 116.15 56.45 115.95 56.55 115.85 56.85 115.85 56.95 115.9 57.2 115.05 57.45 114.65 57.8 113.85 58.5 114.2 59.4 114.25 59.55 114.35 59.75 114.15 60.35 114 61.25 113.55 63.95 112.55 66.85 111.35 69.9 109.95 71.35 109.5 71.9 109.1 71.95 108.55 72.1 107.95 71.45 106.55 70.05 105.85 66.5
L 104.95 61.6
Q 104.9 61.3 104.85 61.05 105 60.9 105.2 60.8 106.95 59.9 107.85 58.85 108.15 58.5 108.35 58.2 108.35 57.05 108.45 56.2 108.55 55.75 108.7 55.4 107.95 53.6 105.1 52.5 101.25 51.1 95.65 51.4 96.85 50.1 97.9 48.45 98.15 49 98.45 49.7 98.8 50.55 99.1 50.75 99.7 51.2 100.75 51.2 101.1 51.2 101.35 51.05 101.5 50.9 101.45 50.55 101.35 49.55 100.7 47.8 100 45.9 99.85 45.05 99.85 44.95 99.85 44.85 99.9 44.65 99.9 44.45 100 43.7 99.65 42.2 99.55 41.85 99.35 41.75 98.95 41.45 98.6 41.9 98.45 42.1 98.3 42.65 98.2 42.85 98.05 43.15 97.9 43.35 97.7 43.6 97.15 44.3 96.15 45.3 95.25 46.2 94.15 47.5 92.95 48.75 92.25 49.9 91.6 50.75 91.7 51.55 91.7 51.65 91.75 51.8 86.3 52.45 80.95 54.5 77 56.1 75 57.85 73.9 58.7 73.8 59.6 73.8 60.35 74.4 60.85 75 61.35 75.8 61.3 76.45 61.15 77.5 60.4 79.5 59.05 84 57.6 83.85 59 84.4 60.3 83.9 60.5 83.4 60.95 82.3 62.1 81.6 62.6 80.7 63.35 79.05 64 75.6 65.4 73.6 65.9 71.7 66.4 67.95 66.9 62.9 67.55 60.85 67.75 56.9 68.1 53.7 68.1 53.65 68.1 53.6 68.1
L 53.6 68.05
Q 53.75 66 52.4 64.6 51.1 63.2 48.95 62.75 47.45 62.35 44.9 62.5 37.95 62.9 31.25 66.1 31.15 65.85 31 65.65 30.6 65.15 29.2 64.15 26.65 62.25 24.95 59.65 24.25 58.5 23.7 58.05 22.6 57.3 21.65 57.75 20.75 58.25 20.85 60 21.4 63.8 25.8 67.4 26.45 67.95 27.1 68.35 25.9 69.05 24.7 69.85 22.6 71.35 21.55 72.5 19.75 74.45 20.55 75.9 21.3 77 22.55 76.75 23.35 76.7 24.55 75.7 27.3 73.45 30.3 71.65 30.2 72.75 30.85 73.8 31.4 74.75 32.45 75.45 34.15 76.65 37.05 76.9 39.5 77.2 42.1 76.6 44.05 76.2 46.8 75.05 50.8 73.35 52.25 71.55 52.35 71.5 52.4 71.35 53.05 71.6 53.9 71.65 57.05 71.95 62.55 71.35 69.45 70.6 74.55 69.15 80.85 67.35 85.45 64.35 86.45 63.75 86.9 63.15 87.2 63.25 87.45 63.45 88.85 64 91.1 64.05 95.9 64.15 100.25 62.9 100.05 66.45 101.15 69.8 102.3 73.3 104.5 74.85 105.75 75.85 107.4 76.2 109.15 76.6 110.65 76.05 112.45 75.35 113.95 73.25 116.8 69.5 118 63.2 118.3 62 118.3 60.95 121.85 61.6 123.55 63.1 124.25 63.7 125.15 65.1 126.05 66.7 126.35 67.75 126.85 69.7 126.15 71.8 125.5 73.75 124 75.4 122.35 77.25 120.05 78.45 117.7 79.7 115.15 79.8 114 79.85 113.45 79.95 112.45 80.05 111.85 80.35 110.6 81 110.4 82.35 110.35 82.75 110.4 83.15 106.8 88.55 101.7 92.85 97.5 96.45 92.55 99
L 92.55 99.05
Q 92.45 99.1 92.4 99.15 91.6 99.7 91.3 101 91.15 101.65 91 103.05 90.95 103.55 90.55 104.8 90.2 105.95 90.1 106.65 90 107.5 90.2 108.2 89.9 108.6 89.5 109.25 88.7 110.45 88.2 110.95 87.7 111.6 87.1 112.2 85.9 113.1 85.15 113.65 82.2 115.75 79.55 116.9 77.8 117.65 76.65 117.5 74.8 117.35 73.5 115.45 73.05 114.8 72.85 114.05 72.55 113.75 72.4 113.3 72.2 112.65 72.4 112.05 72.5 111.75 73.25 110.6
L 75.1 107.2 75.65 105.8
Q 76 105.05 76.6 104.1 76.5 104.1 76.4 104.1 71.35 104.85 66.25 104.6 66.2 104.6 66.15 104.6 66.05 104.6 65.95 104.65 67 103.5 67.35 102.15 67.75 100.45 66.9 98.95 65.65 97.05 62.55 96.75 61.15 96.65 59.05 96.9 56.7 97.25 53.6 98.15 50.05 99.3 48.25 99.85
L 46.15 100.45
Q 45.3 100.7 44.9 100.85 44.5 100.7 44.05 100.5 40.55 99.1 39 98.15 37.75 97.35 35 95.05 32.95 93.25 31.75 91.95 30 89.9 28.85 87 28 84.85 27.7 84.4 26.8 83 25.4 82.9 24.45 82.85 23.6 83.7 22.85 84.45 22.65 85.5 22.4 87.15 23.5 89.45 27.35 97.95 36.9 103.4 39.65 105 43.15 106.35 44.65 106.6 47.7 105.1 50.7 103.55 54.2 102.45 57.7 101.3 58.25 101.3 61 100.7 63.3 100.65 64.5 100.65 64.5 101.3 64.55 101.6 63.95 102.1 63.55 102.5 62.5 103.9
L 62.15 104.5
Q 62.1 104.75 62.05 105
L 61.6 105
Q 56.7 105.2 54 106.95 52.75 107.8 51.8 108.95 51.65 108.95 51.55 109
L 51.45 109.05
Q 51.55 109.05 51.65 109.1 51.5 109.25 51.35 109.45 50.6 110.3 50.35 110.95 50.15 111.55 50.2 112.05 46.9 116.05 45.25 120.25 44.95 120.3 44.7 120.4 44.7 119.4 44.6 118
L 44.4 115.9
Q 44.3 114.8 44.1 114.25
L 43.45 112.75
Q 43.1 111.7 42.85 111.2 42.55 110.7 41.85 110.05 41.15 109.3 40.5 108.85 38.8 107.8 36.6 108.2 34.9 108.55 33 109.75 30.9 111.2 29.45 113.1
L 29.45 113.15
Q 28.95 112.95 28.4 112.9 21.3 111.75 16.45 113.75 14.65 114.6 12.45 116.05 9.55 118.1 8.5 119.75 7.7 121 7.2 122.9 6.2 126.4 6.85 128.95 7.45 131.45 10.3 134.75 11.8 136.35 12.7 137 14 138.1 15.6 138.75 16.65 139.25 17.65 139.55 17.6 139.85 17.55 140.1 16.9 144.35 19.5 150.45 21.85 155.9 25.05 158.15 27.75 160.05 31 160.3 33.8 160.55 35.9 159.35 36.3 159.2 36.9 158.7 37.65 158.5 38.6 158.25 40.95 157.5 42.6 156.55 42.9 156.4 43.5 156.05 43.4 156.35 43.2 156.9 43.25 157.6 43.8 157.55 44.3 157.55 44.5 156.65 44.65 155.75 45.35 154.7 46.2 153.95 46.5 153.6 47 152.9 47.05 152.15 47.9 150.55 49.4 147.2 51.9 141.4 55.85 133.75 58 129.6 59.65 126.45 60.05 125.95 60.4 125.35 61.2 123.8 61.3 123.6
L 61.85 122.85
Q 61.95 122.75 62.1 122.65
L 62.15 122.45 66.5 114.9
Q 67.15 113.75 67.65 112.8 67.8 113.5 68.2 114.2 68.8 115.35 69.95 116.85 70 116.9 70.05 117 70.05 117.35 70 117.8 70.6 118.8 71.5 119.55 72.85 120.75 74.8 121.25 76.7 121.75 78.6 121.4 79.8 121.15 81.45 120.4 83.4 120.35 84.2 120.1 85.4 119.75 87.05 118.5 88.6 117.25 90.2 115.55 93.15 112.3 93.95 110.1 94.05 109.8 94.15 109.55 94.45 109.35 94.75 109.1 95.1 108.75 95.35 108.4 95.6 108.3 95.95 108.15 97.6 107.8 101 107.5 103 107.15 106.75 106.1 104.25 110.1 102.8 115.55 101.65 119.95 100.8 127.3 99.95 135.45 100.55 140.15 101.55 147.3 105.7 152 108.2 154.85 111.95 156.5 115.8 158.25 120.1 158.2 124.5 158.25 128.1 156.45 131.85 154.65 134.2 151.25 136.55 147.85 136.65 144.1 136.65 142.1 135.9 140.3 139.7 139.4 142.25 137.7 145.9 135.5 147.2 132.35 148.65 128.9 147.35 124.15 146.2 119.75 143.35 116.7 140.2 113.2 135.75 112.25 133.85 111.8 131.25 111.85 131.25 111.45 131.25 110.95 131.2 108.05 129.8 105.6 128.4 102.9 125.7 101.6 123.75 100.65 119.45 100.4 115.7 100.2 112.9 100.5 110.9 100.65 107.3 101.55 103.2 102.4 98.55 103.65 97.05 104.1 96.05 104.55 96.05 103.85 96 102.9 96.05 102.3 96.05 101.9 106.5 96 113.9 86.35 113.5 85.9 113.25 85.45 113.9 85.55 114.75 85.55 116.7 85.5 118.6 85.05 118.8 85.3 119.05 85.5 120.1 86.45 122.2 87.1 126.75 88.45 129.95 88.4 132.9 88.25 135.7 86.85 138.45 85.55 140.45 83.3 144.3 79.2 145.05 73.25 145.7 68.25 144.15 62.15 143.7 60.45 143.15 59.3 143.45 59.5 143.7 59.6 144.3 59.95 145.6 60.1 146.95 60.2 147.3 60.15 148.2 60.05 148.75 59.55 149.4 59 149.3 58.1 149.1 57.35 148.35 56.85 147.8 56.5 146.8 56.45 145.35 56.25 144.3 56.55 143.7 56.75 143.2 57 147.05 49.75 147.8 39.25 148.3 33.1 147.15 29.1 145.85 24.65 141.75 19.95 138.3 15.85 134.75 14.25 130.95 12.4 125.55 12.6 122.1 12.75 116.2 13.9 112.35 14.6 110.3 15.1 109.9 13.6 108.65 11.8 105.05 6.25 98.35 2.9 91.85 -0.3 84.4 -0.75 77.45 -1.15 70.1 0.85 63.35 2.75 56.9 6.4 51.3 9.65 45.4 14.45 42.5 16.9 39.15 20.05 38.8 19.35 38.2 18.5 36.8 16.65 34.35 14.4 33.7 13.85 33.25 13.9 32.85 14 32.7 14.7 32.4 16.25 33.75 18.05 33.8 18.1 34.85 19.55 35.55 20.5 35.85 21.15 36.1 21.7 36.35 22.75 35.8 23.3 35.2 23.85 34.9 24.15 34.65 24.45 33.6 24.55 32.25 25.35 22.2 31 15.5 39.3 8.45 48.15 6.65 58.05 5.3 65.55 7.4 71.65 9.85 79 16 82.8 18.25 84.25 20.15 84.35 20.3 84.35 20.4 84.4 20.85 82.7 21.6 81.6 21.5 81.4 21.45 81.3 20.85 80.05 19.35 78.6 17.65 77.1 16.85 76.25 13.75 73.15 12.75 68.35 11.8 64.2 12.6 59.4 14.05 50.8 20 42.9 25.55 35.55 34.05 30.3 35.25 29.55 36 28.95 36.95 28.6 38.1 27.65 40.95 25.35 46.6 20.5 51.6 16.5 55.5 13.9 66.1 6.75 76.35 5.15 82.2 4.25 87.8 5.35 93.8 6.45 98.2 9.7 101.5 12.1 103.9 15.75 105.25 17.85 106 18.45 106.2 18.55 106.45 18.7 106.75 19.35 107.6 19.9 108.7 20.55 110.6 20.55 113 20.7 116.3 20.05 118.15 19.65 121.95 18.8
M 101.25 55.45
Q 103.1 55.7 104.3 56.35 101.4 58.25 97.9 59.05 94.45 59.9 90.85 59.5 89.8 59.45 89.4 59 88.75 58.5 88.8 57.05 88.75 56.55 88.95 56.25 89.15 55.95 89.9 55.9 92.55 55.45 98 55.35 100.15 55.35 101.25 55.45
M 35.25 72
Q 33.9 71.1 34.1 69.8 40.4 66.55 47.75 67 49 67.1 49.2 67.65 49.35 68.2 48.65 68.85 48 69.6 47.05 70.2 45.95 71.1 44.45 71.75 41.35 73.2 37.85 72.8 36.25 72.7 35.25 72
M 62.85 110.65
Q 63.3 110.7 63.75 110.8
L 62.05 113.2
Q 61.45 114.05 60.9 114.85 60.85 114.85 60.8 114.85 60.1 115.1 59.2 116.4 54.6 123.2 50.45 132 47.35 138.55 43.4 148.45 42.75 150.15 42.6 151.25 42.5 151.35 42.35 151.4
L 40.95 152.35
Q 37 155 32.95 154.85 31.35 154.85 30.9 155.1 30.85 155.15 30.8 155.2 28.9 154.35 27.35 152.1 24.05 147.35 23.45 141.15 23.5 141.15 23.55 141.15 28 142.6 33.5 140.2 35.35 139.45 36.9 138.4 38.5 137.4 39.75 136.15 41.8 134.4 43.7 131.7 44.75 130.15 45.45 128.65 45.85 130.15 45.95 131.1 46.05 132.15 46.2 132.6 46.8 133.75 46.8 133.9 46.9 134.35 46.5 135.45 46.05 136.35 46.3 136.85 47.15 136.6 47.85 135.6 48.75 134.1 48.9 133.95
L 49.65 133.1
Q 50.5 131.95 50.2 129.25 50.15 127.95 49.85 127.15
L 49.4 125.9
Q 49.35 125.7 49.1 124.55 48.95 124.2 48.7 123.55 48.8 123.35 48.95 123 49.65 120.9 50.1 119.9 50.8 118.3 52.1 116.65 53.9 114.1 56.3 111.6 57 110.85 57.65 110.6 57.9 110.5 58.2 110.45 59.5 110.65 60.45 110.7 61.7 110.75 62.85 110.65
M 40.5 122.5
Q 40.55 123.2 40.7 123.5 40.9 123.85 41.35 124.1 41.6 124.15 41.8 124.2 41.75 124.45 41.65 124.8 41.15 126.75 40.05 128.55 39 130.35 37.4 131.95 35.95 133.4 34.1 134.65 31.85 136.25 29.7 136.85 29.45 136.85 29 136.85 28.55 136.9 27.45 136.3 26 135.55 23.2 135.35 19.95 135 18.75 134.6 16.1 133.75 14.05 131.1 12.85 129.55 12.35 127.9 11.9 126.1 12.5 124.25 13.1 122.35 14.55 120.95 17.1 118.35 21.7 117.55 25.2 116.95 28.6 117.65 29.1 117.75 29.55 117.8 29.6 117.8 29.7 117.85 30.3 118.1 30.85 117.95 31.55 117.75 32.05 117.05 32.2 116.8 32.8 115.75 33.7 114.2 35 113.2 35.7 112.6 36.4 112.4 37.3 112.15 38 112.55 38.75 112.9 39.2 114.05 39.8 115.4 39.9 115.8 40.05 116.5 40.1 117.4
L 40.5 122.5
M 125.65 110.9
Q 124.9 109.95 124.3 109.5 122.35 107.85 119.6 108.35 118.25 108.65 116.4 109.75 115.2 110.6 114.55 111.2 113.7 112.05 112.6 113.4 111.2 115.25 110.85 116.25 110.65 117.25 110.65 118.05 110.65 119.2 110.85 120 110.75 120.2 110.65 120.4 109.9 122 108.1 125 107.45 126.45 106.5 129.4 105.95 131.1 105.75 132.2 105.8 130.3 105.9 127.95 106.1 123.6 106.4 121.4 106.8 117.75 107.7 114.95 108.05 113.95 109.6 110.3 110.75 107.45 111.15 105.6 111.2 105.35 111.2 105.15 116.1 104.5 121.1 105.05 123.25 105.25 124.2 106 125.45 107 125.55 109.35 125.6 109.85 125.65 110.9
M 124.35 116.95
Q 125.25 117.25 126.15 116.8 126.25 116.8 126.4 116.8 130.7 116.65 132.85 116.9 136.5 117.4 138.65 119.3 140.55 120.95 141.8 124.5 143.2 128.5 141.75 130.8 140.65 132.5 136.85 133.7 132.45 135 128.35 135.65 127.45 135.85 126.65 135.8 126.1 135.8 125.9 135.9 125.5 136.15 125.65 136.9 125.75 137.4 125.85 137.85 124.3 137.6 123.75 137.45 123.05 137.15 122.2 136.6 121.15 135.95 120.4 135.25 119.15 134.15 117.9 131.75 115.45 127 114.7 121.65 114.8 121.4 114.8 121.3
L 114.85 121.2
Q 115.25 120.85 115.35 120.4 115.5 119.95 115.4 119 115.35 118.05 115.55 117.6 115.65 117.25 116.6 116.05 117.1 115.45 118.15 114.15 118.55 113.75 119.65 113.15 120.4 112.75 120.65 112.75 121.1 112.9 121.4 113.25 121.7 113.65 121.8 114.1 122 114.6 122.65 115.55 123.4 116.65 124.35 116.95
M 126.6 142.4
Q 128.45 142.3 129.4 141.45 129.6 141.2 129.85 141.05 129.95 141.05 130.05 141.05 129.95 141.95 129.9 143.05 129.7 146.6 128.45 148.4 127.45 149.95 125.6 150.95 123.9 151.8 121.8 152.05 118.35 152.4 114 150.75 111 149.55 109.45 148.05 108.05 146.55 107.15 143.8 106 140.45 105.8 136 105.8 135.55 105.8 135.05 105.95 135.7 106.2 136.3 106.35 136.65 106.75 137.4 107.1 138.05 107 138.55 107 138.8 106.9 139.3 106.95 139.9 107.45 139.85 107.85 139.85 107.9 139.4
L 107.95 138.75
Q 107.95 138.05 108.6 137.1 109.5 135.85 109.6 135.55 109.85 135 110.05 134.05 110.2 132.95 110.35 132.5 110.75 131.6 110.95 131.1
L 111.25 129.45 111.5 128.85
Q 113.3 134.5 115.95 137.55 117.9 139.95 120.7 141.2 123.7 142.6 126.6 142.4 Z"/>
</g>
</defs>

<g transform="matrix( 1, 0, 0, 1, 0,0) ">
<use xlink:href="#Layer0_0_FILL"/>
</g>
</svg>
