
<svg xmlns="http://www.w3.org/2000/svg" version="1.1" xmlns:xlink="http://www.w3.org/1999/xlink" preserveAspectRatio="none" x="0px" y="0px" width="300px" height="300px" viewBox="0 0 300 300">
<defs>
<g id="marco_0_Layer1_0_FILL">
<path fill="#4B005B" stroke="none" d="
M 168.05 4.25
Q 166.2 2.6 164.6 1.7 160.15 -0.7 153.5 0.25 147.55 1 143.65 3.7 142.1 4.8 139.8 7.2 136.4 10.9 136.1 13.75 136 14.7 136.4 17.75 136.75 20.8 136.95 21.6 137.6 23.55 140.55 26.45 142.65 28.45 144.1 29.4 147.7 31.8 151.85 32.1 153.85 32.3 156.05 31.95 156.1 32.25 156.25 32.55 143.65 34.15 130.95 36.65 131.1 36 131.2 35.2 131.8 29.55 131.35 24.15 130.8 16.85 127.85 13.15 123.8 8.15 114.2 6.8 107.95 5.95 100.4 6.7 94.8 7.2 86.65 8.85 65.6 13 50.7 18.65 31.85 25.85 19.05 36.6 13.1 41.5 10.2 46.15 7.7 50.2 6.85 54.8 6 59.5 7.1 63.85 8.15 68.45 11.15 72.15 14.1 75.65 17.95 77.5 18.05 82.1 19.45 86.75 21.1 91.85 24.4 96.45 26.65 99.75 29.75 102.8 29.7 102.85 29.7 102.9 28.25 102.9 27 103.2 24.9 102.85 22.7 102.7 16.55 102.2 13.2 103.95 9.75 105.75 7.2 110.6 4.65 115.55 3.65 120.3 3.6 120.5 3.55 120.8 2.95 121.4 2.2 122.3 0.85 124 0.45 125.15 0 126.3 0 128.4 0 130.6 0.25 132.2 0.7 135.2 2.55 137.85 4.35 140.4 7.05 142 8.9 143.05 10.75 143.5 13 144 15.75 143.8 20.45 143.45 23.35 141.8 25.4 140.65 27.05 138.7 29.8 135.5 30.15 131.65 30.55 127.45 28.15 124.3 26.9 122.65 24.25 120.85 21.25 118.8 18.45 117.95 15 116.95 11.1 117.5 11.6 116.1 13.2 113.25 14.85 110.25 16.45 109.55 17.55 109 19.75 109 22.45 108.95 25.1 109.2 22.75 112.5 23.4 115.15 23.85 117 25.7 118.65 28.4 121.2 32.2 122.4 35.85 123.5 39.7 123.15 45.85 122.6 51.4 118.7 54.35 121.25 57.3 122.5 58.9 123.15 60.25 123.35
L 57.5 135.35
Q 56.2 141.2 56 144.45 55.65 149.55 57.3 153.3 60.5 160.5 70.95 164.65 71.3 164.8 71.7 164.95 67.8 168 63.85 169.3 59.65 170.7 52.9 170.7 41.8 170.7 41.6 170.7 36.7 171 32.75 172.4 28.2 174.1 25.4 177.1 22.3 180.45 21.6 184.85 21.1 187.85 22.1 190.15 23.45 192.95 27.1 194.45 30.75 196 34.2 195.35 37.35 194.7 40.15 192.15 42.3 190.25 44.6 186.8 46.35 184.4 48.1 181.4 48.9 180 49.6 179.65 50.5 179.1 52.35 179.1 62.25 178.95 69.25 175.45 74.8 172.75 79.7 167.3 85.8 168.6 92.45 168.5 103.6 168.3 114.05 164.3 124.25 160.3 128.45 154.1 131.05 150.3 131.6 145.35 132.1 141.05 131.05 136.85 136.55 134.75 141.65 133.45 147.85 131.9 151.6 132.55 143.6 148.35 130.8 160.65 129.05 162.35 128.3 163.5 128.05 163.6 127.8 163.8 126.75 164.6 126.15 166.6 124.55 171.9 124.65 179.35 124.65 182.35 125.25 184.3 125.8 185.9 127.35 188.2 129.15 190.95 130.8 192.3 134.6 195.4 139.95 195 142.4 194.8 143.8 193.9 145.3 192.9 146.25 190.75 147.65 187.55 146.8 184.05 146.35 182.1 144.95 179.8 144.4 178.9 142 175.45 140.45 173.1 139.35 170.9 138.05 168.4 137.2 167.6 136.7 167.15 136.1 166.85 147.8 155.2 156.3 141.15 158.25 137.9 158.9 135.95 159.95 133 159.3 130.25 158.45 127.1 155.65 125.85 153.75 125 150.1 125.35 143.85 126.1 136.65 128.55 133.5 129.65 129.05 131.5 127.7 128.7 125.75 126 125.5 125.65 125.35 125.45 124.6 124.75 124.1 124.25 123.85 124.2 123.65 124.15 123.65 124 123.65 123.85 123.45 123.6 123.25 123.4 122.1 122.15 122.05 120.95
L 122 120.9
Q 120.3 119.5 119.5 118.8 118.3 117.7 117.45 116.4 117.9 116.3 118.35 116.15 119.6 115.75 120.4 115.7 120.95 115.8 121.5 115.9 122.05 116.05 122.9 116.4 128.35 118.95 135.35 117.9 138.35 117.4 140.4 116.4 143.35 115.8 145.15 115.15 149.9 113.25 154.05 108.65 156.95 105.45 160.5 99.6 161.4 97.9 161.8 96.85 165.6 94.7 168.9 91.9 172.4 88.8 174 85.95 178.15 78.75 175 67.9 173.95 63.95 172.3 61.35 170.9 59.25 168 56.6 166.55 55.25 165 54.15 165.3 53.8 165.8 52.15 166.55 48.95 166.7 47.85
L 166.75 45.05
Q 166.75 44.65 166.75 44.15 168.35 43.7 169.4 42.9 171.7 41.15 171.6 37.9 171.45 34.8 169.05 33.15 167.75 32.3 166.05 31.95
L 165.55 28.8
Q 166.85 28.05 167.85 27.05 172.55 22.6 172.5 14.5 172.55 10.25 171 7.6 170 5.95 168.05 4.25
M 129.9 47.3
Q 132.75 46.9 135.55 46.45 144.2 45.15 149.3 45 151.6 44.9 155.8 44.9 158.5 44.9 160.3 44.85 160.3 47.5 159.5 50.75 159.45 50.8 159.45 50.9 156.25 49.4 152.9 48.75 148.55 47.9 143.35 48.55 136.05 49.35 131.4 52.5 130.9 49.8 129.9 47.3 Z"/>
</g>

<g id="marco_0_Layer0_0_FILL">
<path fill="#4B005B" stroke="none" d="
M 171 7.6
Q 170 5.95 168.05 4.25 166.2 2.6 164.6 1.7 160.15 -0.7 153.5 0.25 147.55 1 143.65 3.7 142.1 4.8 139.8 7.2 136.4 10.9 136.1 13.75 136 14.7 136.4 17.75 136.75 20.8 136.95 21.6 137.6 23.55 140.55 26.45 142.65 28.45 144.1 29.4 147.7 31.8 151.85 32.1 153.85 32.3 156.05 31.95 156.1 32.25 156.25 32.55 143.65 34.15 130.95 36.65 131.1 36 131.2 35.2 131.8 29.55 131.35 24.15 130.8 16.85 127.85 13.15 123.8 8.15 114.2 6.8 107.95 5.95 100.4 6.7 94.8 7.2 86.65 8.85 65.6 13 50.7 18.65 31.85 25.85 19.05 36.6 13.1 41.5 10.2 46.15 7.7 50.2 6.85 54.8 6 59.5 7.1 63.85 8.15 68.45 11.15 72.15 14.1 75.65 17.95 77.5 18.05 82.1 19.45 86.75 21.1 91.85 24.4 96.45 26.65 99.75 29.75 102.8 29.7 102.85 29.7 102.9 28.25 102.9 27 103.2 24.9 102.85 22.7 102.7 16.55 102.2 13.2 103.95 9.75 105.75 7.2 110.6 4.65 115.55 3.65 120.3 3.6 120.5 3.55 120.8 2.95 121.4 2.2 122.3 0.85 124 0.45 125.15 0 126.3 0 128.4 0 130.6 0.25 132.2 0.7 135.2 2.55 137.85 4.35 140.4 7.05 142 8.9 143.05 10.75 143.5 13 144 15.75 143.8 20.45 143.45 23.35 141.8 25.4 140.65 27.05 138.7 29.8 135.5 30.15 131.65 30.55 127.45 28.15 124.3 26.9 122.65 24.25 120.85 21.25 118.8 18.45 117.95 15 116.95 11.1 117.5 11.6 116.1 13.2 113.25 14.85 110.25 16.45 109.55 17.55 109 19.75 109 22.45 108.95 25.1 109.2 22.75 112.5 23.4 115.15 23.85 117 25.7 118.65 28.4 121.2 32.2 122.4 35.85 123.5 39.7 123.15 45.85 122.6 51.4 118.7 54.35 121.25 57.3 122.5 58.9 123.15 60.25 123.35
L 57.5 135.35
Q 56.2 141.2 56 144.45 55.65 149.55 57.3 153.3 60.5 160.5 70.95 164.65 71.3 164.8 71.7 164.95 67.8 168 63.85 169.3 59.65 170.7 52.9 170.7 41.8 170.7 41.6 170.7 36.7 171 32.75 172.4 28.2 174.1 25.4 177.1 22.3 180.45 21.6 184.85 21.1 187.85 22.1 190.15 23.45 192.95 27.1 194.45 30.75 196 34.2 195.35 37.35 194.7 40.15 192.15 42.3 190.25 44.6 186.8 46.35 184.4 48.1 181.4 48.9 180 49.6 179.65 50.5 179.1 52.35 179.1 62.25 178.95 69.25 175.45 74.8 172.75 79.7 167.3 85.8 168.6 92.45 168.5 103.6 168.3 114.05 164.3 124.25 160.3 128.45 154.1 131.05 150.3 131.6 145.35 132.1 141.05 131.05 136.85 136.55 134.75 141.65 133.45 147.85 131.9 151.6 132.55 143.6 148.35 130.8 160.65 129.05 162.35 128.3 163.5 128.05 163.6 127.8 163.8 126.75 164.6 126.15 166.6 124.55 171.9 124.65 179.35 124.65 182.35 125.25 184.3 125.8 185.9 127.35 188.2 129.15 190.95 130.8 192.3 134.6 195.4 139.95 195 142.4 194.8 143.8 193.9 145.3 192.9 146.25 190.75 147.65 187.55 146.8 184.05 146.35 182.1 144.95 179.8 144.4 178.9 142 175.45 140.45 173.1 139.35 170.9 138.05 168.4 137.2 167.6 136.7 167.15 136.1 166.85 147.8 155.2 156.3 141.15 158.25 137.9 158.9 135.95 159.95 133 159.3 130.25 158.45 127.1 155.65 125.85 153.75 125 150.1 125.35 143.85 126.1 136.65 128.55 133.5 129.65 129.05 131.5 127.7 128.7 125.75 126 125.5 125.65 125.35 125.45 124.6 124.75 124.1 124.25 123.85 124.2 123.65 124.15 123.65 124 123.65 123.85 123.45 123.6 123.25 123.4 122.1 122.15 122.05 120.95
L 122 120.9
Q 120.3 119.5 119.5 118.8 118.3 117.7 117.45 116.4 117.9 116.3 118.35 116.15 119.6 115.75 120.4 115.7 120.95 115.8 121.5 115.9 122.05 116.05 122.9 116.4 128.35 118.95 135.35 117.9 138.35 117.4 140.4 116.4 143.35 115.8 145.15 115.15 149.9 113.25 154.05 108.65 156.95 105.45 160.5 99.6 161.4 97.9 161.8 96.85 165.6 94.7 168.9 91.9 172.4 88.8 174 85.95 178.15 78.75 175 67.9 173.95 63.95 172.3 61.35 170.9 59.25 168 56.6 166.55 55.25 165 54.15 165.3 53.8 165.8 52.15 166.55 48.95 166.7 47.85
L 166.75 45.05
Q 166.75 44.65 166.75 44.15 168.35 43.7 169.4 42.9 171.7 41.15 171.6 37.9 171.45 34.8 169.05 33.15 167.75 32.3 166.05 31.95
L 165.55 28.8
Q 166.85 28.05 167.85 27.05 172.55 22.6 172.5 14.5 172.55 10.25 171 7.6
M 165.75 13.75
Q 165.85 15.95 165.3 17.7 164.75 19.75 163.15 21 162.05 21.85 160.2 22.4 159.55 22.55 156.8 23.05 153.85 23.75 152.5 23.55 151.6 23.45 150.3 22.6 147 20.8 145.15 17.5 144.7 16.7 144 15.05 143.8 14.2 143.8 14 143.75 13.65 144 13 144.45 11.8 145.4 10.75 147.55 8.3 151.1 7.45 151.8 7.25 154.5 6.95 157.25 6.75 158.3 6.8 160.4 6.85 161.85 7.7 162.6 8.05 163.8 9.3 164.95 10.6 165.2 11.1 165.65 12.05 165.75 13.75
M 129.9 47.3
Q 132.75 46.9 135.55 46.45 144.2 45.15 149.3 45 151.6 44.9 155.8 44.9 158.5 44.9 160.3 44.85 160.3 47.5 159.5 50.75 159.45 50.8 159.45 50.9 156.25 49.4 152.9 48.75 148.55 47.9 143.35 48.55 136.05 49.35 131.4 52.5 130.9 49.8 129.9 47.3
M 118.65 18.4
Q 119.95 19.6 120.4 21.65 120.5 22.4 120.6 23.5 117.75 24 116.2 25.35 115.8 25.7 115.6 25.85 115.2 26.1 114.9 26.15 114.35 26.3 113.8 25.9 113.05 25.4 112.7 25.15 111.4 24.2 109.65 24.2 107.9 24.2 106.6 25.15 105.45 26.05 105.2 26.1 104.8 26.25 104.2 26.25 103.4 26.2 103.2 26.25 102.35 26.35 101.6 26.85 100.9 27.4 100.65 28.15 100.35 29 100.55 31.15 100.65 32.05 100.6 34.5 100.5 36.6 100.75 37.85 101.2 40.15 102.65 41.05 103.8 41.7 105.15 41.25 106.55 40.85 107.1 39.7 107.4 39.05 107.45 38.05 107.4 37.85 107.4 36.25 107.2 33.55 108.15 31.55 108.65 30.5 109.45 30.3 110.1 30.15 110.8 30.65 111.35 31.2 111.55 31.95 111.7 32.4 111.7 33.35 111.75 34.3 111.85 34.75 112.1 35.7 112.8 36.35 113.6 37.1 114.6 37.25 115.5 37.45 116.5 37.1 117.45 36.7 117.95 35.9 118.4 35.25 118.65 33.85 118.95 32.4 119.3 31.8 119.65 31.25 120.4 30.8
L 120.3 34.85
Q 120.15 37.35 120.5 38.95 75.2 49.15 26.95 70.9 26.45 70.45 25.85 70 24.65 69.15 23.35 69.15 23.15 68.9 22.85 68.7 21.15 67.3 20.35 66.4 18.2 63.85 17.9 60.35 17.65 57 19.05 53.8 21.15 48.85 27.6 43.4 38.2 34.65 53.1 28.5 65.5 23.45 82 19.9 90.75 17.95 97.55 17.2 106.05 16.2 113.35 16.75 117 17.1 118.65 18.4
M 66.35 122.15
Q 66.25 122.1 66.1 122.1 66.15 121.8 66.2 121.55 67.85 121.7 69.65 121.7 72.35 121.75 77.7 121.5
L 87.15 121.1
Q 87.35 121.85 87.65 122.6 88.05 123.85 88.55 125.05 88.7 125.3 88.85 125.6 89.35 127.5 90.25 129.9 85.6 131.55 83.7 132.1 79.2 133.55 75.5 134.05 71.05 134.7 66.95 134.25 66.2 134.15 65.6 134.1
L 66.35 123.85
Q 66.4 122.85 66.35 122.15
M 15.55 135.6
Q 13.55 135.5 12.5 135 9.8 133.8 9.2 130.65 8.75 128.25 9.7 125.2 12.45 124.25 15.45 124.85 18.4 125.4 20.6 127.2 22.2 128.5 22.4 129.95 22.55 131.15 21.65 132.7 20.85 134.1 19.75 134.8 18.35 135.7 15.55 135.6
M 31.2 183.8
Q 32.2 181.85 36.15 180.6 38.95 179.7 41.5 179.15 39.7 183.4 36.45 186.9 35.45 188.15 34.35 188.4 33.4 188.65 31.5 187.8 30.9 187.65 30.65 187.25 30.4 186.85 30.6 186.1 30.8 184.7 31.2 183.8
M 122.7 129.5
Q 124.5 129.7 125.4 130.65 126.1 131.4 126.35 132.7 126.55 133.65 126.4 134.3 126.15 135.75 125 136.55 123.75 137.45 122.35 137.05 121.45 136.95 120.25 135.9 119.2 134.9 118.8 133.8 118.3 132.5 118.85 131.3 119.3 130.4 120.45 129.9 121.5 129.4 122.7 129.5
M 112.25 121.85
Q 112.3 122 112.35 122.15 112.75 123.4 114.4 125.3 109.85 124.9 106.75 125.3 103.85 125.95 101.8 126.2 101.85 124.35 100.95 122.65 100.9 122.55 100.9 122.5 100.85 122.5 100.85 122.45 100.7 122.05 100.15 121 100 120.7 99.8 120.35
L 99.8 120.3
Q 100.85 120.25 101.8 120.1 105.05 119.55 110.15 118.3 110.7 119.6 111.6 120.95 111.9 121.35 112.25 121.85
M 87.4 116.6
Q 87.35 116.65 87.3 116.7 87.05 116.7 86.8 116.7 87.1 116.65 87.4 116.6
M 96.85 141.4
Q 94.25 140.75 92.65 138.55 91.25 136.55 91.65 134.7 92.15 132.55 94.5 131.5 96.25 130.7 98.95 130.8 101.45 130.9 102.95 131.9 104.45 132.9 104.85 134.85 105.25 136.7 104.4 138.35 103.55 139.85 101.95 140.85 99.5 142.15 96.85 141.4
M 133.85 184.5
Q 132.3 182 132.3 178.05 132.25 176.8 132.45 174.75 132.65 172.1 132.7 171.4 134.55 174.9 135.85 177 136.2 177.55 137.8 179.95 139 181.7 139.65 182.85 140.9 184.9 141.05 186.35 141.15 187.15 140.85 187.55 140.4 187.95 139.55 187.95 137.85 187.9 136.25 186.95 134.8 186 133.85 184.5
M 163.3 60.2
Q 166.3 63.1 167.45 65.15 169.1 68.05 169.5 73.35 169.75 76.35 169.5 78.05 168.75 83.35 163.85 87.7 161.05 90.25 156.15 92.75 155.75 92.65 155 92.8 150.5 93.95 146.5 94.1 141.1 94.25 133.1 92.35 133.05 92.35 133 92.35 129.35 92.3 125.4 92.1 118.25 91.8 103.5 90.55 96 89.95 92.55 90.4 90.25 90.65 89.05 91.55 86.95 93.25 87.6 98 88.4 103.85 90.35 107.85 91.2 110.2 92.9 112.2 93.5 112.9 94.15 113.5 93.7 113.65 93.3 113.95 92.95 114.15 92.7 114.45 92.05 114.7 91.55 114.95 86.4 115.9 81.5 116.2 72.9 116.65 64.85 115 64.7 114.9 64.55 114.85 64.05 114.65 63.6 114.7 62.7 114.45 61.85 114.25 59.05 113 56.7 111.2 56.8 110.7 56.35 110.45 56.25 110.6 56.1 110.7 55.95 110.6 55.85 110.5 56.15 110.05 56.4 109.55 57.35 107.85 56.45 105.55 56.1 104.7 54.3 101.95 52.1 98.7 50.2 94.25 48.95 91.25 47.05 86.1 45.45 81.45 44.65 78.4 43.55 74.1 43.5 70.45 43.5 70.05 43.5 69.7 60.5 62.65 80.45 57.3 99.85 52.1 124.5 48.15 124.75 48.7 125.05 49.25 125.95 51 126.3 52.2 126.5 52.8 126.7 53.9 126.95 54.95 127.3 55.6 127.45 55.8 127.55 55.85 126.55 57 125.4 58.4 125.15 58.55 125.15 58.75 125.15 59.2 125.7 59.2 126.2 59.2 126.6 58.9 128.25 57.8 129.95 56.95 130.15 56.9 130.4 56.8 130.7 56.75 131 56.45 136.25 53.8 141.7 53 145.8 52.4 149.9 53.1 154.05 53.8 157.55 55.75 160.3 57.3 163.3 60.2
M 111 73.55
Q 112.95 71.45 113.65 69.5 114.3 67.65 113.9 65.7 113.55 63.8 112.2 62.25 110.9 60.75 109 60 107.05 59.25 105.05 59.45 103.3 59.7 102.4 59.85 100.2 60.2 99.45 60.5 97.9 61.1 96.4 63 95.45 64.15 95.1 65.35 94.7 66.7 95.2 69.3 95.45 70.75 95.8 71.45 96 72 96.7 73 99.15 76.25 102.1 76.6 103.5 76.8 106.4 76.1 108.35 75.5 109.25 75.05 110 74.55 111 73.55 Z"/>

<path fill="#FFCC99" stroke="none" d="
M 167.45 65.15
Q 166.3 63.1 163.3 60.2 160.3 57.3 157.55 55.75 154.05 53.8 149.9 53.1 145.8 52.4 141.7 53 136.25 53.8 131 56.45 130.7 56.75 130.4 56.8 130.15 56.9 129.95 56.95 128.25 57.8 126.6 58.9 126.2 59.2 125.7 59.2 125.15 59.2 125.15 58.75 125.15 58.55 125.4 58.4 126.55 57 127.55 55.85 127.45 55.8 127.3 55.6 126.95 54.95 126.7 53.9 126.5 52.8 126.3 52.2 125.95 51 125.05 49.25 124.75 48.7 124.5 48.15 99.85 52.1 80.45 57.3 60.5 62.65 43.5 69.7 43.5 70.05 43.5 70.45 43.55 74.1 44.65 78.4 45.45 81.45 47.05 86.1 48.95 91.25 50.2 94.25 52.1 98.7 54.3 101.95 56.1 104.7 56.45 105.55 57.35 107.85 56.4 109.55 56.15 110.05 55.85 110.5 55.95 110.6 56.1 110.7 56.25 110.6 56.35 110.45 56.8 110.7 56.7 111.2 59.05 113 61.85 114.25 62.7 114.45 63.6 114.7 64.05 114.65 64.55 114.85 64.7 114.9 64.85 115 72.9 116.65 81.5 116.2 86.4 115.9 91.55 114.95 92.05 114.7 92.7 114.45 92.95 114.15 93.3 113.95 93.7 113.65 94.15 113.5 93.5 112.9 92.9 112.2 91.2 110.2 90.35 107.85 88.4 103.85 87.6 98 86.95 93.25 89.05 91.55 90.25 90.65 92.55 90.4 96 89.95 103.5 90.55 118.25 91.8 125.4 92.1 129.35 92.3 133 92.35 133.05 92.35 133.1 92.35 141.1 94.25 146.5 94.1 150.5 93.95 155 92.8 155.75 92.65 156.15 92.75 161.05 90.25 163.85 87.7 168.75 83.35 169.5 78.05 169.75 76.35 169.5 73.35 169.1 68.05 167.45 65.15
M 113.65 69.5
Q 112.95 71.45 111 73.55 110 74.55 109.25 75.05 108.35 75.5 106.4 76.1 103.5 76.8 102.1 76.6 99.15 76.25 96.7 73 96 72 95.8 71.45 95.45 70.75 95.2 69.3 94.7 66.7 95.1 65.35 95.45 64.15 96.4 63 97.9 61.1 99.45 60.5 100.2 60.2 102.4 59.85 103.3 59.7 105.05 59.45 107.05 59.25 109 60 110.9 60.75 112.2 62.25 113.55 63.8 113.9 65.7 114.3 67.65 113.65 69.5
M 92.65 138.55
Q 94.25 140.75 96.85 141.4 99.5 142.15 101.95 140.85 103.55 139.85 104.4 138.35 105.25 136.7 104.85 134.85 104.45 132.9 102.95 131.9 101.45 130.9 98.95 130.8 96.25 130.7 94.5 131.5 92.15 132.55 91.65 134.7 91.25 136.55 92.65 138.55
M 125.4 130.65
Q 124.5 129.7 122.7 129.5 121.5 129.4 120.45 129.9 119.3 130.4 118.85 131.3 118.3 132.5 118.8 133.8 119.2 134.9 120.25 135.9 121.45 136.95 122.35 137.05 123.75 137.45 125 136.55 126.15 135.75 126.4 134.3 126.55 133.65 126.35 132.7 126.1 131.4 125.4 130.65 Z"/>

<path fill="#CC3333" stroke="none" d="
M 132.3 178.05
Q 132.3 182 133.85 184.5 134.8 186 136.25 186.95 137.85 187.9 139.55 187.95 140.4 187.95 140.85 187.55 141.15 187.15 141.05 186.35 140.9 184.9 139.65 182.85 139 181.7 137.8 179.95 136.2 177.55 135.85 177 134.55 174.9 132.7 171.4 132.65 172.1 132.45 174.75 132.25 176.8 132.3 178.05
M 87.3 116.7
Q 87.35 116.65 87.4 116.6 87.1 116.65 86.8 116.7 87.05 116.7 87.3 116.7
M 112.35 122.15
Q 112.3 122 112.25 121.85 111.9 121.35 111.6 120.95 110.7 119.6 110.15 118.3 105.05 119.55 101.8 120.1 100.85 120.25 99.8 120.3
L 99.8 120.35
Q 100 120.7 100.15 121 100.7 122.05 100.85 122.45 100.85 122.5 100.9 122.5 100.9 122.55 100.95 122.65 101.85 124.35 101.8 126.2 103.85 125.95 106.75 125.3 109.85 124.9 114.4 125.3 112.75 123.4 112.35 122.15
M 36.15 180.6
Q 32.2 181.85 31.2 183.8 30.8 184.7 30.6 186.1 30.4 186.85 30.65 187.25 30.9 187.65 31.5 187.8 33.4 188.65 34.35 188.4 35.45 188.15 36.45 186.9 39.7 183.4 41.5 179.15 38.95 179.7 36.15 180.6
M 66.1 122.1
Q 66.25 122.1 66.35 122.15 66.4 122.85 66.35 123.85
L 65.6 134.1
Q 66.2 134.15 66.95 134.25 71.05 134.7 75.5 134.05 79.2 133.55 83.7 132.1 85.6 131.55 90.25 129.9 89.35 127.5 88.85 125.6 88.7 125.3 88.55 125.05 88.05 123.85 87.65 122.6 87.35 121.85 87.15 121.1
L 77.7 121.5
Q 72.35 121.75 69.65 121.7 67.85 121.7 66.2 121.55 66.15 121.8 66.1 122.1
M 120.4 21.65
Q 119.95 19.6 118.65 18.4 117 17.1 113.35 16.75 106.05 16.2 97.55 17.2 90.75 17.95 82 19.9 65.5 23.45 53.1 28.5 38.2 34.65 27.6 43.4 21.15 48.85 19.05 53.8 17.65 57 17.9 60.35 18.2 63.85 20.35 66.4 21.15 67.3 22.85 68.7 23.15 68.9 23.35 69.15 24.65 69.15 25.85 70 26.45 70.45 26.95 70.9 75.2 49.15 120.5 38.95 120.15 37.35 120.3 34.85
L 120.4 30.8
Q 119.65 31.25 119.3 31.8 118.95 32.4 118.65 33.85 118.4 35.25 117.95 35.9 117.45 36.7 116.5 37.1 115.5 37.45 114.6 37.25 113.6 37.1 112.8 36.35 112.1 35.7 111.85 34.75 111.75 34.3 111.7 33.35 111.7 32.4 111.55 31.95 111.35 31.2 110.8 30.65 110.1 30.15 109.45 30.3 108.65 30.5 108.15 31.55 107.2 33.55 107.4 36.25 107.4 37.85 107.45 38.05 107.4 39.05 107.1 39.7 106.55 40.85 105.15 41.25 103.8 41.7 102.65 41.05 101.2 40.15 100.75 37.85 100.5 36.6 100.6 34.5 100.65 32.05 100.55 31.15 100.35 29 100.65 28.15 100.9 27.4 101.6 26.85 102.35 26.35 103.2 26.25 103.4 26.2 104.2 26.25 104.8 26.25 105.2 26.1 105.45 26.05 106.6 25.15 107.9 24.2 109.65 24.2 111.4 24.2 112.7 25.15 113.05 25.4 113.8 25.9 114.35 26.3 114.9 26.15 115.2 26.1 115.6 25.85 115.8 25.7 116.2 25.35 117.75 24 120.6 23.5 120.5 22.4 120.4 21.65 Z"/>

<path fill="#FFFFCC" stroke="none" d="
M 12.5 135
Q 13.55 135.5 15.55 135.6 18.35 135.7 19.75 134.8 20.85 134.1 21.65 132.7 22.55 131.15 22.4 129.95 22.2 128.5 20.6 127.2 18.4 125.4 15.45 124.85 12.45 124.25 9.7 125.2 8.75 128.25 9.2 130.65 9.8 133.8 12.5 135
M 165.3 17.7
Q 165.85 15.95 165.75 13.75 165.65 12.05 165.2 11.1 164.95 10.6 163.8 9.3 162.6 8.05 161.85 7.7 160.4 6.85 158.3 6.8 157.25 6.75 154.5 6.95 151.8 7.25 151.1 7.45 147.55 8.3 145.4 10.75 144.45 11.8 144 13 143.75 13.65 143.8 14 143.8 14.2 144 15.05 144.7 16.7 145.15 17.5 147 20.8 150.3 22.6 151.6 23.45 152.5 23.55 153.85 23.75 156.8 23.05 159.55 22.55 160.2 22.4 162.05 21.85 163.15 21 164.75 19.75 165.3 17.7 Z"/>
</g>
</defs>

<g transform="matrix( 1, 0, 0, 1, 59.55,47.45) ">
<g transform="matrix( 1, 0, 0, 1, 0,0) ">
<use xlink:href="#marco_0_Layer1_0_FILL"/>
</g>

<g transform="matrix( 1, 0, 0, 1, 0,0) ">
<use xlink:href="#marco_0_Layer0_0_FILL"/>
</g>
</g>
</svg>
