
<svg xmlns="http://www.w3.org/2000/svg" version="1.1" xmlns:xlink="http://www.w3.org/1999/xlink" preserveAspectRatio="none" x="0px" y="0px" width="150px" height="150px" viewBox="0 0 150 150">
<defs>
<g id="Layer0_0_FILL">
<path fill="#FFFFFF" stroke="none" d="
M 94.45 48.85
Q 94.4 48.65 94.3 48.5 104.4 47.2 112.8 45.9 114.7 45.55 115.7 45.25 117.2 44.75 118 43.9 119.45 42.3 118.7 40.25 117.9 38.2 115.6 37.4 114.1 37 112.25 37.3 111.25 37.6 109.05 38.3 103.1 40.4 95.7 42.2 95.7 41.65 95.5 40.95 94.8 37.65 93.7 35.8 91.35 32.3 85.95 29.75 82 28.05 78.5 27.75 75.35 27.5 70.65 28.4 61.2 30.35 52.25 34.25 48.35 36 46.3 37.65 42.15 41 40.1 47.2 39.4 49.4 39.5 50.8 39.6 51.3 39.7 51.7 39.5 51.9 39.35 52.2 38.05 54.15 37.65 57 37.3 59 37.4 62.25 37.55 65.85 37.95 68.05 38.55 71.15 40.1 73.3 38.55 73.95 37.65 75.45 36.7 76.85 36.75 78.55 36.8 81.3 39.15 83.4 40.8 85 43.4 85.75 41.45 86.55 40.5 87.15 38.75 88.15 37.7 89.35 36.8 90.35 35.7 92.25 34.55 94.2 34.3 95.3 34.1 96 34.1 97.55 34.05 99.35 34.3 100.35 34.75 101.95 36 103.2 37.2 104.4 38.9 104.85 40.65 105.35 42.55 104.9 44.4 104.45 45.75 103.2 47.15 102 47.9 100.25 48.65 98.5 48.55 96.65 48.55 95.35 48.05 94.4 47.35 93.15 45.75 92.45 44.85 92 42.8 91.6 44.85 90.1 48.2 88.85 49.75 88.3 52.6 87.35 50.5 89.8 49.55 92.6 48.65 95.3 48.95 98 49.25 100.9 50.75 103.05 50.65 103.2 50.55 103.35 49.2 105.35 49.6 107.55 49.4 107.5 49.25 107.45 48.25 107.25 47.15 107.2 45.6 106.8 43.9 106.85 40.65 107 38.1 108.65 36.85 109.55 36.3 110.4 35.6 111.85 36.05 113.5 36.45 114.95 37.7 116.15 40.45 118.75 45.75 118.75 49.65 118.85 52.65 117.45 54.45 116.5 55.15 115.55 56.3 114.05 55.95 112.55 55.85 112.05 55.6 111.45 55.2 110.8 55.05 110.4 54.5 109.2 54.5 107.95 54.4 107.15 54.55 106.5 55.4 106.95 56.35 107.35 58.95 108.45 63.25 109.15 67.5 109.85 71.65 110.15 76.05 110.4 79.25 110.05 81.8 109.75 83.95 109 84 109.05 84 109.1 84.25 109.8 84.4 111.75 84.75 114.4 85.55 115.7 86.8 117.7 89.6 118.65 91.8 119.35 95.15 119.55 100.4 119.8 103.25 118.3 105.6 117.1 106.95 114.75 107.7 113.45 107.75 112.2 107.85 110.8 106.95 109.45 106 107.95 103.8 106.75 101.5 105.5 99.45 105.3 96.9 104.95 93.8 105.85 91.75 106.5 88.3 108.1 88.1 107.55 87.9 107.05 89.1 106.25 89.8 105.25 91.4 103.4 91.85 100.65 91.9 100.25 92 99.9 92.1 100.05 92.2 100.15 93.55 101.4 94.5 101.85 95.9 102.55 98 102.5 101.25 102.4 103.45 101 106.15 99.25 106.6 96.45 107.05 93.5 104.9 90.6 102.35 86.9 97.35 84.75 96.05 84.25 94.35 83.75 95.95 83.8 97.85 83.25 101.55 82.2 103.2 80 103.75 79.3 103.9 78.55 105.6 78.45 107.3 78 110.2 77.3 112.6 75.5 114.95 73.55 116.25 71.05 117.1 69.4 117.6 67.35 118.05 65.15 118.1 63.75 118.3 60.3 116.55 57.15 114.9 54 112 52 109.8 50.5 107.25 49.95 104.6 49.35 102.15 50 100.5 50.4 98.3 51.75 97 52.55 95.75 53.5 95.15 50.55 94.45 48.85
M 86.2 35.75
Q 85.85 36 85.5 36.35 85.05 36 84.6 35.85 83.45 35.4 82.3 35.7 81.05 36 80.4 36.9 80.25 37.15 80 37.2 79.85 37.25 79.35 36.9 78.9 36.55 78.3 36.65 77.6 36.8 77.45 37.3 77.2 37.8 77.7 38.45 77.95 38.9 78.5 39.7 79.05 40.5 79.45 42.2 79.7 42.9 80.35 43.3 81 43.85 81.65 43.75 82.75 43.55 82.95 42.4 83 42.05 82.9 40.6 82.75 39.4 83.25 38.8
L 83.65 38.7
Q 83.7 38.7 83.85 38.85 83.7 39.5 84.15 40.5 84.8 41.55 85.65 41.9 85.7 42.1 85.85 42.2 86.2 42.55 86.8 42.7 87.35 42.85 87.9 42.7 88.45 42.45 88.6 41.6 88.75 40.9 88.2 39.85 88.45 39.1 89.15 38.75
L 89.15 38.8
Q 89.4 39.45 89.7 40.95 90 42.3 90.3 43.1 90.4 43.2 90.5 43.4 84.25 44.7 77.1 45.8 56.95 48.4 46.1 50.05 46.1 49.85 46.1 49.7 46.25 48.65 47.05 47 48.7 43.85 49.95 42.5 51.75 40.55 55.95 38.7 61.8 36.15 69.75 34.15 76.4 32.45 80.55 33.05 83.45 33.55 85.75 35 86.15 35.2 86.6 35.5 86.35 35.6 86.2 35.75
M 86.9 49.45
Q 89.05 49.2 91.05 48.9 91.1 49.25 91.2 49.75 91.75 51.95 92 54.45 92.15 56.15 92.5 56.9 92.65 57.15 92.85 57.35 92.85 57.7 93 58.05 93.15 58.65 93.8 59 94.3 59.4 94.9 59.25 95.4 59.15 95.85 58.6 96.15 58.3 96.65 57.7 97.4 56.8 99.4 55.8 101 54.9 102.1 54.65 103.75 54.15 105.5 54.45 107.3 54.75 108.7 55.75 109.8 56.45 111 57.9 112 59 112.45 60.05 113.9 63.5 113.75 65 113.55 66.4 113.3 67.9 113 69.3 111.5 71 110.15 72.55 109.05 73.2 106.6 75.1 103.2 75.5 99.95 75.9 96.7 74.85 95.6 74.5 94.6 74 94.65 73.7 94.5 73.35 94.25 72.7 92.9 72.4 90.25 71.75 86.15 69.5 81.4 67 79.5 66.25 77.85 65.7 76.9 65.95 75.4 66.4 74.6 68.3 73.6 70.6 74.2 73.8 74.75 76.6 76.2 78.35 77.95 80.55 80.4 81 80.5 81 80.6 81.05 72.95 83.35 62.65 82.55 55.75 81.9 52 79.7 49.45 78.2 47.95 75.8 46.55 73.7 46.35 71.35 46.65 71.6 47.1 71.8 50.05 73.3 52.6 75.1 53.9 76.1 54.65 76.35 56 76.8 56.85 76.15 57.55 75.55 57.6 74.45 57.65 73.8 57.35 72.65
L 56.75 69.55
Q 56.25 67.4 56.05 66.85 55.9 66.35 54.95 64.1
L 50.65 53.75
Q 50.55 53.55 50.5 53.45 54.9 53.15 60.9 52.45 79.35 50.4 86.9 49.45
M 89.05 81.25
Q 89.1 81.3 89.1 81.35 89.85 82.3 90.95 82.9 89.55 82.55 88 82.3 87.7 82.25 87.35 82.2 88.2 81.75 89.05 81.25
M 86.45 86.65
L 89.9 87.5
Q 92.75 88.15 94.1 88.75 92.95 89.35 92.45 89.7 91.4 90.2 90.85 90.75 90.4 91.15 90 91.7 88.65 89.25 86.45 86.7
L 86.45 86.65
M 94.25 94.7
Q 95.25 93.5 98.05 93.05
L 99.75 92.7
Q 100.2 92.6 100.4 92.7 100.55 92.8 100.8 93.2
L 101.55 94.5
Q 101.85 95.15 101.8 95.35 101.8 96 101 96.55 99.75 97.35 98.3 97.4 96.7 97.45 95.65 96.55 95.05 96 94.25 94.7
M 39.2 98.1
Q 39.25 97.15 39.2 96.9 40.65 96.15 43.25 96.6 43.45 96.6 43.55 96.75 43.7 96.9 43.55 97.25 43.25 98.3 42.9 98.8
L 42.35 99.4
Q 42 99.75 41.85 99.8 41.65 99.85 41.2 99.85
L 40.35 99.85
Q 39.9 99.8 39.65 99.6 39.45 99.35 39.4 99.2 39.2 98.8 39.2 98.1
M 59.65 86
Q 59.8 86.05 59.95 86.05 59.45 87.8 59.35 88.75 59.3 89.05 59.35 89.3 58.5 89.4 57.65 89.5 56.95 89.6 56.3 89.7 57.05 88.7 58.1 87.7 59.2 86.65 59.65 86
M 59.25 92.95
Q 59.6 92.3 60.25 91.95 60.9 91.5 61.65 91.5 63.25 91.5 64 93 64.35 93.65 64.3 94.4 64.25 95.15 63.8 95.75 63.45 96.25 62.85 96.6 61.75 97.15 60.7 96.7 59.9 96.45 59.45 95.75 59 95.1 58.95 94.35 58.9 93.6 59.25 92.95
M 73.15 86.25
Q 73.15 86.3 73.15 86.35 73 87.55 73.25 88.45 72 88.45 71 88.5 67.3 88.6 63.95 88.8 64.1 87.6 63.8 86.45 68.65 86.8 73.15 86.25
M 78.55 85.75
Q 78.45 85.55 78.3 85.4 78.75 85.25 79.25 85.2 79.4 86.1 80.55 87.25 81.2 87.9 81.75 88.45 80.55 88.45 79.4 88.45 79.35 88.05 79.2 87.5 78.8 86.3 78.55 85.75
M 77.2 90.8
Q 78.05 90.6 78.95 90.95 79.75 91.25 80.3 91.95 80.85 92.7 80.85 93.5 80.85 94.95 79.45 95.75 78.3 96.45 76.75 96.05 75.45 95.65 74.95 94.65 74.25 93.4 75.05 92.15 75.85 91 77.2 90.8
M 48.4 110.8
Q 48.7 110.85 49.05 110.9 49.75 111 50.25 111
L 50.6 112.1
Q 50.65 112.35 50.65 112.55 50.6 112.7 50.2 112.9 48.5 113.5 45.3 113.6 43.75 113.6 43.2 113.5 42.05 113.3 41.35 112.55 41.4 112.3 41.7 112.2 42.6 111.9 43.95 111.7 45.9 111.5 46.2 111.45 47.3 111.25 48.4 110.8
M 102.9 111.4
Q 103.15 111.65 103.25 111.95 103.4 112.4 103.1 112.8 102.85 113.15 102.35 113.5 102.1 113.75 101.45 114.15 101.2 114.35 100.7 114.75 100.2 115.1 99.8 115.2 99.45 115.3 98.85 115.3
L 94.9 115.3
Q 93.25 115.3 92.45 115.15 91.75 115.05 90.45 114.55 89.6 114.2 89.35 113.95 88.85 113.35 89 112.8 89.85 112.6 92.4 111.35
L 93.75 110.75
Q 95.85 109.9 97.65 109.75 98.7 109.7 99.2 109.75 99.65 109.85 100.55 110.15 102.2 110.8 102.9 111.4
M 90.6 53.95
Q 90.2 52.9 89.3 52.25 88.4 51.6 87.3 51.5 86.85 51.5 85.9 51.65 84.95 51.8 84.55 52.05
L 83.55 52.75
Q 82.55 53.25 82.15 53.6 80.65 54.7 80.7 56.75 80.75 58.65 82.05 60.1 83.2 61.35 84.4 61.65 86.15 61.95 88.5 60.6 89.35 60.2 89.75 59.7 90 59.5 90.4 58.9
L 90.8 57.95
Q 91.15 57 90.9 55.25 90.75 54.3 90.6 53.95 Z"/>
</g>
</defs>

<g transform="matrix( 1, 0, 0, 1, 0,0) ">
<use xlink:href="#Layer0_0_FILL"/>
</g>
</svg>
