
<svg xmlns="http://www.w3.org/2000/svg" version="1.1" xmlns:xlink="http://www.w3.org/1999/xlink" preserveAspectRatio="none" x="0px" y="0px" width="300px" height="300px" viewBox="0 0 300 300">
<defs>
<g id="nancy_0_Layer1_0_FILL">
<path fill="#4A0066" stroke="none" d="
M 266.65 93.3
Q 265.05 90.9 261.85 87.45 244.65 68.25 224.65 52.3 215.3 44.9 208.7 41.65 203.7 39.2 198.9 38.25
L 198.85 38.7
Q 193.2 38.35 186.1 38.65 182.05 38.9 173.3 39.65 166.9 40.2 163.3 41.1 161.4 41.65 160.4 41.9 158.7 42.3 157.45 42.3 155.3 42.3 152.15 41.15 150.5 40.5 146.7 38.85 143.35 37.35 141.35 36.6 136.05 34.65 129.15 33.6 127.75 33.4 126 33.2
L 126.05 32.75
Q 124.95 32.6 123.85 32.5 121.05 32.15 118 32.5 117.35 32.4 116.7 32.4 113 32.15 111.75 33.7 109.5 34.25 107.1 35.1 96.25 38.85 81.25 47.9 45.75 69.35 24.5 92.6 21.1 96.35 20.25 98.9 18.85 103.45 21.95 111.15 25.75 120.15 31.6 128.1 35.15 132.85 39.4 137.1 34.2 138.2 28.7 137.95 26.15 137.85 25.15 138.25 24.2 138.65 23.65 139.7 23.35 140.2 23.2 140.75 23.05 141.3 23 141.85 22.85 143.6 23.65 146.4 25.9 153.35 29.9 158.9 29.65 159.9 30 160.9 30.55 162.4 32.95 164.35 39.95 170.2 43.95 172.55 44.4 172.8 44.9 173.1 46.7 174.6 47.95 175.45 49.2 176.3 53.25 178.2 57.1 179.95 59.15 180.75 60.8 181.4 62.35 181.85 63.9 182.25 65.35 182.5 66.45 182.7 67.3 182.65 68.65 183.4 69.7 183.3 69.9466796875 183.27265625 70.15 183.2
L 70.15 183.2
Q 66.2296875 184.3115234375 62.35 185.65 59.5 186.65 56.65 187.75 48.75 190.9 38.45 196.15 35.71171875 197.5822265625 34.75 199.2 33.8572265625 199.062890625 32.4 199.5 30.75 200.15 28 202 25.5 203.7 24.45 204.8 23.7 205.6 22.8 206.8 20.5353515625 209.8638671875 19.5 212.45 18.369140625 214.336328125 17.9 216 17.3 218 17.1 222.2 17 225.15 17.1 226.6 17.25 229.05 18 230.85 19.7 235 25.15 238.1 28.2 239.85 31.1 240.45 35.85 241.45 41.15 239.65 44.05 238.65 46 237.15 47.4 236 47.85 234.9 47.95 234.6 48.05 234.2 48.25 234.4 48.5 234.6 50.15 235.9 52.15 236.05 53.65 236.15 55.5 235.6 58.15 235.9 62.1 233.85 62.2 233.8 62.35 233.75 66 231.7 70.85 228.35 76.45 224.35 79.3 222.35 89.75 215.15 97.65 213.05
L 97.7 213.05
Q 97.65 216.35 97.9 219.6 98.05 221 98.3 221.85 98 221.95 97.7 222.05 91.9 224.5 84.6 230.2 80.55 233.45 72.4 240 70 241.85 69.3 242.75 67.85 244.7 68.4 246.6 69.05 248.75 73.15 250.1 112 262.65 152.5 262.7 154.35 262.7 155.25 262.6 156.75 262.4 157.85 261.8 159.1 261.15 159.75 259.85 159.95 259.4 160.05 259 161.9 258.85 163 257.15 163.6 256.2 163.7 254.75 163.7 254.25 163.65 252.15 163.7 247.05 163.4 244.5 163.4 244.35 163.4 244.25 163.55 243.75 163.7 243.25 164.5 240.75 166.95 235.15
L 177.3 211.25
Q 177.65 211.3 178.1 211.35
L 180.25 211.6
Q 181.75 211.85 183.9 212.85 185.05 213.4 185.85 213.75 185.75 214.05 185.7 214.4 185.7 214.45 185.7 214.5 186.3412109375 214.108203125 186.95 213.75 186.9564453125 213.9126953125 186.95 214.05 185.9078125 214.4578125 184.9 214.95 180.5 217.1 177.35 220.6 175.05 223.15 174.7 225.45 174.55 226.35 174.65 227.7 174.7 228.45 174.8 230 174.85 230.85 174.8 233.3 174.7 235.35 174.9 236.55 175.4 239.45 177.9 242.85 180.7 246.5 185.5 250.1 189.55 253.1 192.95 254.1 195.85 255 199.95 254.9 204.9 254.9 208.55 253.5 212.25 252.1 214.9 249.2 215.5 248.55 216 247.85 216.3 248.15 216.7 248.4 217.7 249.05 219.65 249.25 223.1 249.6 225.45 248.7 227.5 247.95 228.6 246.5 232 244 235 239.35 236.15 237.6 236.55 236.3 238.95 234.25 240.6 230.2 242.55 225.4 242.9 220.15 243.2 214.9 241.9 209.85 241.05 206.65 239.7 204.35 238.35 202 235.9 199.65 234.4 198.2 231.2 195.65
L 218.15 185.25
Q 212.95 181.15 209.55 178.9 216.35 177.95 220.2 177.2 226.85 175.95 232.1 174.35 238.7 172.35 244.75 169.3 253.65 166 259.45 158.75 262.6 154.85 263.3 151.15 264.05 147.85 262.2 146.3 261.2 145.4 258.45 145.15 252.3 144.55 246.25 142.45 248.5 139.9 255.35 133.4 261.35 127.9 264.25 124.1 268.55 118.55 270.2 112.6 272.15 105.7 270.15 99.8 269 96.7 266.65 93.3
M 45.3 231.4
Q 42.45 232.7 41 233.25 38.55 234.1 36.5 234.25 33.75 234.4 31.15 233.35 28.5 232.25 26.65 230.2 25.4 228.85 24.9 227.35 24.65 226.45 24.55 224.55 24.48828125 223.4095703125 24.45 222.4 24.568359375 222.3390625 24.65 222.25 25.55 221.2 26.05 218.55 26.8 215.3 27.95 212.8 30.090234375 208.2869140625 34.1 205.45 34.547265625 206.620703125 35.8 208.5
L 41.1 216.45
Q 43.9 220.75 44.85 223.15 45.75 225.65 45.9 227.9 46.1 230.05 46.25 230.9 45.8 231.15 45.3 231.4
M 177.15 20
Q 180 18.8 181.05 17.75 181.9 16.85 182.2 15.75 182.5 14.55 182.05 13.55 181.5 12.4 179.35 11.2 172.2 7.15 165.85 2.45 163.9 1 162.8 0.5 160.85 -0.35 159.3 0.25 158.35 0.55 156.6 2.25
L 141.15 18.4
Q 139.85 19.7 139.3 20.65 138.5 22.05 138.6 23.3 138.75 25 140.4 26.2 141.25 26.95 143.4 27.85
L 155.4 33.2
Q 156.5 33.75 157.85 34.2 159.5 34.75 160.55 34.7 161.95 34.6 162.8 33.75 163.65 32.85 163.75 31.1 163.6 28.95 163.6 27.95 163.5 26.7 163.9 26.05 164.35 25.4 165.6 24.9
L 177.15 20 Z"/>
</g>

<g id="nancy_0_Layer0_0_FILL">
<path fill="#FFFFCC" stroke="none" d="
M 242.7 191.2
Q 242.5 192.35 242.95 193.55 243.35 194.7 245.5 197.6 247.95 201 248.6 201.7 250.65 203.95 253 204.15 255.55 204.5 258.15 202.35 259.65 201.05 261.7 198.05 262.9 196.3 263.35 195.45 264.15 193.95 264.4 192.6 264.85 190.15 263.5 188.65 262.45 187.45 260.65 187.45 258.95 187.45 257.5 188.4 255.6 189.7 253.5 193.55 252.9 193.05 251.4 191.4 250.1 190 249.2 189.35 247.9 188.4 246.4 188.3 244.75 188.15 243.7 189.1 242.85 189.9 242.7 191.2
M 44.7 38.4
Q 44.55 36.4 43.15 35.15 41.35 33.5 38.8 34 36.45 34.55 35 36.55 34.65 37.05 34 38 33.4 38.5 32.95 38.45 32.7 38.35 32.3 37.95 30.45 35.7 30 35.3 28.55 33.9 26.9 33.7 24.95 33.4 23.35 34.9 21.95 36.4 22.1 38.45 22.3 40.35 24.65 43.2
L 27.85 46.9
Q 29.05 48.4 30.15 49.05 32.25 50.3 34.45 49.6 35.5 49.25 37.05 48.2 40.2 46 42.9 43 43.9 41.9 44.2 41.25 44.85 39.95 44.7 38.4
M 138.4 190.3
Q 136.35 192.85 133.4 195.9 140.85 196.15 144.7 196.55 151.65 197.25 156.95 199.1 157.1 199.15 157.2 199.2 158.45 197.25 159.2 195.9 160.8 193.1 161.9 190.55 161.65 190.45 161.45 190.35 161.3 190.3 161.15 190.2 160.5 190.55 159.75 190.9 154.4 193.45 148.5 193.2 146.8 193.1 145.6 192.8 141.95 192.05 139.65 189.6 139 190.05 138.4 190.3
M 70.65 190
Q 66.7 191.2 62.35 192.9 52.7 196.6 41.2 202.8 40.8 203 40.45 203.2 40.75 203.8 41.25 204.5
L 44.75 210.1
Q 46.9 213.55 47.6 214.9 50.85 221.15 51.55 228.1 51.75 229.9 52.25 230.4 52.85 231 53.95 231.1 54.05 231 54.2 230.9 58.7 228 62.35 225.65 68.6 221.65 72.45 219.4 82.75 213.3 91.55 209.6 94.75 208.2 96.95 207.75 97.5 207.6 98 207.55 98.15 205.75 98.45 203.9 99.5 197.5 102.25 194.7 103.65 193.3 106.55 191.8 110.8 189.75 112.9 188.65 116.6 186.8 119 185.1
L 121.7 183.2
Q 119.95 182.9 118.3 182.65 118.2 182.65 118.15 182.7 117.2 183.2 115.35 183.2 99.45 183.8 84 186.8 76 188.4 70.65 190
M 200.8 180.9
Q 200.4 180.6 200.05 180.3 198.95 181.35 197.8 182.35 194.3 185.4 192.15 183.85 191.35 183.25 191.15 182.1 190.95 181.1 191.35 180.15 191.3 180.15 191.25 180.15 190.9 180.25 190.1 180.45 189.15 181.25 187.7 181.8 186.75 182.1 184.85 182.55 184.8 183.15 184.65 183.9
L 183.05 193.1
Q 182.2 198.35 181.25 201.45 180.75 203.1 179.8 205.5 179.9 205.5 180 205.5 182.85 205.5 187.1 207.2
L 189.85 208.4
Q 190.9 207.8 192.25 207.5 194.8 206.8 199.25 207.2 201.05 207.3 201.95 207.85 202.6 208.3 202.9 208.95 203.2 209.65 202.9 210.3 202.4 211.4 200.05 211.6 198.45 211.8 197 212.2 199.15 212.3 200.9 212.85 203.3 213.65 206.4 216 214.1 221.9 216.8 229.05 217.95 232.05 218.45 235.9 218.9 239.85 218.35 242.5 218.3 242.8 218.25 243.1 218.85 242.95 220.15 242.75 221.5 242.6 222.2 242.4 222.4 242.35 223.85 241.7 224.1 241.6 224.35 241.55 224.4 241.25 224.5 241 226.3 239.8 228.1 237.7 230.35 234.75 231.9 233.05 232.1 231.7 232.65 230.2 234.55 225.9 235.15 223.65 236.05 220.3 235.5 215.5 235 210.6 233.1 207.5 232.1 205.85 230.35 204.15 229.3 203.1 227.05 201.25 213.75 190.5 200.8 180.9
M 186.3 107.3
Q 185.45 107.95 184.6 109.1 183.5 110.6 181.8 113.9 180.85 115.75 180.5 116.85 180.1 118.1 180 119.65 179.5 124.15 180.5 128.9 180.65 129.9 181.05 130.55 181.35 131.15 182.1 131.9 183.75 133.75 184.9 134.1 186.25 134.5 188.4 133.85 189.85 133.3 190.75 132.7 192.3 131.65 193.95 128.75 195.15 126.55 195.5 125.35 196.15 123.25 195.75 119.6 195.5 115.55 194.65 113.15 193.6 109.75 191.2 107.7 189.9 106.55 188.6 106.5 187.8 106.5 187.05 106.85 186.65 107.05 186.3 107.3 Z"/>

<path fill="#4A0066" stroke="none" d="
M 266.65 93.3
Q 265.05 90.9 261.85 87.45 244.65 68.25 224.65 52.3 215.3 44.9 208.7 41.65 203.7 39.2 198.9 38.25
L 198.85 38.7
Q 193.2 38.35 186.1 38.65 182.05 38.9 173.3 39.65 166.9 40.2 163.3 41.1 161.4 41.65 160.4 41.9 158.7 42.3 157.45 42.3 155.3 42.3 152.15 41.15 150.5 40.5 146.7 38.85 143.35 37.35 141.35 36.6 136.05 34.65 129.15 33.6 127.75 33.4 126 33.2
L 126.05 32.75
Q 124.95 32.6 123.85 32.5 121.05 32.15 118 32.5 117.35 32.4 116.7 32.4 113 32.15 111.75 33.7 109.5 34.25 107.1 35.1 96.25 38.85 81.25 47.9 45.75 69.35 24.5 92.6 21.1 96.35 20.25 98.9 18.85 103.45 21.95 111.15 25.75 120.15 31.6 128.1 35.15 132.85 39.4 137.1 34.2 138.2 28.7 137.95 26.15 137.85 25.15 138.25 24.2 138.65 23.65 139.7 23.35 140.2 23.2 140.75 23.05 141.3 23 141.85 22.85 143.6 23.65 146.4 25.9 153.35 29.9 158.9 29.65 159.9 30 160.9 30.55 162.4 32.95 164.35 39.95 170.2 43.95 172.55 44.4 172.8 44.9 173.1 46.7 174.6 47.95 175.45 49.2 176.3 53.25 178.2 57.1 179.95 59.15 180.75 60.8 181.4 62.35 181.85 63.9 182.25 65.35 182.5 66.45 182.7 67.3 182.65 68.287890625 183.198828125 69.1 183.3 69.226171875 183.3830078125 69.3 183.45 65.809375 184.456640625 62.35 185.65 59.5 186.65 56.65 187.75 48.75 190.9 38.45 196.15 35.2 197.85 34.45 199.8 33.95 199.85 33.4 200 31.4 200.6 29.35 201.9 29.15 202.05 28.95 202.2 28.7 202.3 28.5 202.5 28.7 203.05 28.9 203.7 29.85 206.2 30.3 207.8 30.35 207.9 30.35 208 31.15 207.1 32 206.25 33.1 205.2 33.95 204.75 34 204.95 34.05 205.2 34.4 206.4 35.8 208.5
L 41.1 216.45
Q 43.9 220.75 44.85 223.15 45.75 225.65 45.9 227.9 46.1 230.05 46.25 230.9 45.8 231.15 45.3 231.4 42.45 232.7 41 233.25 38.55 234.1 36.5 234.25 33.75 234.4 31.15 233.35 28.5 232.25 26.65 230.2 25.4 228.85 24.9 227.35 24.65 226.45 24.55 224.55 24.45 222.7 24.5 221.25 22.3 217 19.9 211.8 18.45 214.05 17.9 216 17.3 218 17.1 222.2 17 225.15 17.1 226.6 17.25 229.05 18 230.85 19.7 235 25.15 238.1 28.2 239.85 31.1 240.45 35.85 241.45 41.15 239.65 44.05 238.65 46 237.15 47.4 236 47.85 234.9 47.95 234.6 48.05 234.2 48.25 234.4 48.5 234.6 50.15 235.9 52.15 236.05 53.65 236.15 55.5 235.6 58.15 235.9 62.1 233.85 62.2 233.8 62.35 233.75 66 231.7 70.85 228.35 76.45 224.35 79.3 222.35 89.75 215.15 97.65 213.05
L 97.7 213.05
Q 97.65 216.35 97.9 219.6 98.05 221 98.3 221.85 98 221.95 97.7 222.05 91.9 224.5 84.6 230.2 80.55 233.45 72.4 240 70 241.85 69.3 242.75 67.85 244.7 68.4 246.6 69.05 248.75 73.15 250.1 112 262.65 152.5 262.7 154.35 262.7 155.25 262.6 156.75 262.4 157.85 261.8 159.1 261.15 159.75 259.85 159.95 259.4 160.05 259 161.9 258.85 163 257.15 163.6 256.2 163.7 254.75 163.7 254.25 163.65 252.15 163.7 247.05 163.4 244.5 163.4 244.35 163.4 244.25 163.55 243.75 163.7 243.25 164.5 240.75 166.95 235.15
L 177.3 211.25
Q 177.65 211.3 178.1 211.35
L 180.25 211.6
Q 181.75 211.85 183.9 212.85 185.05 213.4 185.85 213.75 185.75 214.05 185.7 214.4 185.7 214.45 185.7 214.5 186.0962890625 214.2578125 186.5 214.05 186.493359375 214.095703125 186.5 214.15 186.50390625 214.188671875 186.5 214.2 185.696484375 214.5609375 184.9 214.95 180.5 217.1 177.35 220.6 175.05 223.15 174.7 225.45 174.55 226.35 174.65 227.7 174.7 228.45 174.8 230 174.85 230.85 174.8 233.3 174.7 235.35 174.9 236.55 175.4 239.45 177.9 242.85 180.7 246.5 185.5 250.1 189.55 253.1 192.95 254.1 195.85 255 199.95 254.9 204.9 254.9 208.55 253.5 212.25 252.1 214.9 249.2 215.5 248.55 216 247.85 216.3 248.15 216.7 248.4 217.7 249.05 219.65 249.25 223.1 249.6 225.45 248.7 227.5 247.95 228.6 246.5 232 244 235 239.35 236.15 237.6 236.55 236.3 238.95 234.25 240.6 230.2 242.55 225.4 242.9 220.15 243.2 214.9 241.9 209.85 241.05 206.65 239.7 204.35 238.35 202 235.9 199.65 234.4 198.2 231.2 195.65
L 218.15 185.25
Q 212.95 181.15 209.55 178.9 216.35 177.95 220.2 177.2 226.85 175.95 232.1 174.35 238.7 172.35 244.75 169.3 253.65 166 259.45 158.75 262.6 154.85 263.3 151.15 264.05 147.85 262.2 146.3 261.2 145.4 258.45 145.15 252.3 144.55 246.25 142.45 248.5 139.9 255.35 133.4 261.35 127.9 264.25 124.1 268.55 118.55 270.2 112.6 272.15 105.7 270.15 99.8 269 96.7 266.65 93.3
M 258.6 93.55
Q 261.15 96.45 262.35 98.4 264.2 101.3 264.6 103.9 265.15 107.15 263.8 111 262.85 113.6 260.45 117.45 252.15 130.75 243.75 137.45 241.25 139.35 240.5 140.45 238.8 142.65 239.8 144.75 240.7 146.5 243.75 147.65 250.25 150.1 256.6 150.35 254.85 155.15 248 159.9 245.5 161.65 243.55 163.1
L 233.9 167.05
Q 228.45 169 221.4 170.15 216.65 170.95 208.55 171.7 208.2 171.7 207.9 171.75 211 167.95 213.85 163.6 219.9 154.4 225.65 141.7 229.1 134.35 229.75 129.6 230.35 125.2 229.45 118.65 228.85 113.9 227.9 110.65 226.6 106.4 224.25 103.5 221.5 100.05 214.65 96.35 210.95 94.35 208.45 92.75 208.3 92.55 208.15 92.35 199.6 80.45 183.85 74.7 171 70.05 153.85 70.15 130.85 70.35 101.65 79.3 96.8 80.8 93.95 81.95 89.75 83.6 86.7 85.55 82.45 88.2 78.1 92.75 75.5 95.4 70.7 101.3
L 65.5 107.75
Q 63.75 109.8 64.05 111.2 64.1 111.3 64.15 111.45 59.05 115.5 55.7 119.7 53.15 123 50.25 128.1 47.5 133 46.05 136.9 45.4 136.5 44.55 136.35 43.7 133.65 41.8 130.8 40.6 128.85 38.2 125.8 35.3 122.2 34.4 120.95 29.6 114.25 27.45 106.05 26.6 102.95 27.1 101.15 27.6 99.2 30.2 96.55 60.85 65.5 100.65 45.95 106.85 43 111.1 41.65 117.1 39.75 122.3 39.9 122.5 39.9 122.65 39.95 132.45 41.3 141.8 44.95 149.15 47.85 150.3 48.15 155.2 49.7 159.1 49.25 160.6 49.05 162.8 48.4 164.1 48 166.65 47.2 170.1 46.35 178.05 45.75 189.9 44.9 196.3 45.65 198.4 45.9 198.95 45.9 199.6 45.9 200.25 45.9 202.95 46.65 205.65 47.9 210.35 50.05 216.5 54.4 238.2 69.75 258.6 93.55
M 195.9 86.65
Q 183.15 81.9 170 79.75 151.95 76.75 134.55 78.85 129.85 79.4 120.15 81.2 109.15 83.25 103.5 85.2 95.55 87.9 86.65 93.35 84.95 94.4 82.85 95.8 85.2 93.1 87.5 91.3 92.1 87.6 101.15 84.35 124 76.15 147.95 75 165.7 74.15 178.6 78 186.3 80.3 192.7 84.4 194.35 85.45 195.9 86.65
M 184.6 109.1
Q 185.45 107.95 186.3 107.3 186.65 107.05 187.05 106.85 187.8 106.5 188.6 106.5 189.9 106.55 191.2 107.7 193.6 109.75 194.65 113.15 195.5 115.55 195.75 119.6 196.15 123.25 195.5 125.35 195.15 126.55 193.95 128.75 192.3 131.65 190.75 132.7 189.85 133.3 188.4 133.85 186.25 134.5 184.9 134.1 183.75 133.75 182.1 131.9 181.35 131.15 181.05 130.55 180.65 129.9 180.5 128.9 179.5 124.15 180 119.65 180.1 118.1 180.5 116.85 180.85 115.75 181.8 113.9 183.5 110.6 184.6 109.1
M 166.15 194.5
Q 167.55 191.5 168.45 188.15 169.3 187.7 170.6 186.9 170.9 186.8 173.2 186.1 174.7 185.7 177.45 184.5 176.35 190.55 176.2 191.4 175.2 196.4 174.05 200.1 173.7 201.25 172 206
L 167.2 218.8
Q 163 229.55 157.45 240.4 157.25 240.55 157.1 240.75 156.4 241.55 156.15 243.3 156.1 243.5 156.05 243.7 155.7 245 156 246.1
L 155.7 252.65
Q 155.65 253.95 155.8 254.95 154.75 254.95 153.15 255.1 145.1 255.9 135.2 255.25 106.35 253.5 78.85 243.5 88.3 234.5 99.7 228 101.9 226.75 102.6 225.85 103.2 225.1 103.35 224.2 103.4 223.65 103.3 223.25 103.65 222.85 103.9 222.3 104.55 220.95 104.55 218.2 104.8 211.55 105.9 204.95 106.5 201.7 107.55 200.35 108.45 199.2 110.7 197.9 116.65 194.3 119.25 192.4 119.65 192.1 120.1 191.8 120.1 191.55 120.2 191.35 120.35 191 121.15 190.45 121.75 189.95 122.8 188.8 123.8 187.7 124.4 187.2 125.2 186.6 125.9 186.5 126.25 185.8 126.5 185.45 126.95 184.65 127.5 184.25 128.15 183.75 128.95 183.8 129.75 183.85 130.15 184.4 132.35 184.65 134.55 184.85 134.1 185.6 133.9 186.2 133.6 187.15 133.75 187.95 132.8 189.05 131.7 190 131.1 190.6 129.75 191.7 128.55 192.7 127.9 193.5 126.7 194.9 126.4 196.25 126.1 196.55 125.95 197 125.75 197.5 125.95 198 126.2 198.95 127.55 199.5 128.85 200.05 132.2 200.25 138.7 200.5 143.3 200.95 150.7 201.65 154.35 203.1 155.65 203.7 156.45 203.75 157.65 203.9 158.4 203.35 159.4 203.8 160.1 204.45 164.15 198.75 166.15 194.5
M 200.05 180.3
Q 200.4 180.6 200.8 180.9 213.75 190.5 227.05 201.25 229.3 203.1 230.35 204.15 232.1 205.85 233.1 207.5 235 210.6 235.5 215.5 236.05 220.3 235.15 223.65 234.55 225.9 232.65 230.2 232.1 231.7 231.9 233.05 230.35 234.75 228.1 237.7 226.3 239.8 224.5 241 224.4 241.25 224.35 241.55 224.1 241.6 223.85 241.7 222.4 242.35 222.2 242.4 221.5 242.6 220.15 242.75 218.85 242.95 218.25 243.1 218.3 242.8 218.35 242.5 218.9 239.85 218.45 235.9 217.95 232.05 216.8 229.05 214.1 221.9 206.4 216 203.3 213.65 200.9 212.85 199.15 212.3 197 212.2 198.45 211.8 200.05 211.6 202.4 211.4 202.9 210.3 203.2 209.65 202.9 208.95 202.6 208.3 201.95 207.85 201.05 207.3 199.25 207.2 194.8 206.8 192.25 207.5 190.9 207.8 189.85 208.4
L 187.1 207.2
Q 182.85 205.5 180 205.5 179.9 205.5 179.8 205.5 180.75 203.1 181.25 201.45 182.2 198.35 183.05 193.1
L 184.65 183.9
Q 184.8 183.15 184.85 182.55 186.75 182.1 187.7 181.8 189.15 181.25 190.1 180.45 190.9 180.25 191.25 180.15 191.3 180.15 191.35 180.15 190.95 181.1 191.15 182.1 191.35 183.25 192.15 183.85 194.3 185.4 197.8 182.35 198.95 181.35 200.05 180.3
M 44.35 142.45
L 44.4 142.45
Q 43.85 145 43.8 147.45 43.6 157.4 50.7 166.95 51.45 168 52.4 169.1 49.5 167.8 47.1 166.5 46.9 166.3 46.75 166.1 45.05 164.25 40.8 161.35 39.85 160.25 38.85 159.05 37.75 156.85 36 154 32.5 148.4 31.7 145.15 38.3 144.65 44.35 142.45
M 62.35 192.9
Q 66.7 191.2 70.65 190 76 188.4 84 186.8 99.45 183.8 115.35 183.2 117.2 183.2 118.15 182.7 118.2 182.65 118.3 182.65 119.95 182.9 121.7 183.2
L 119 185.1
Q 116.6 186.8 112.9 188.65 110.8 189.75 106.55 191.8 103.65 193.3 102.25 194.7 99.5 197.5 98.45 203.9 98.15 205.75 98 207.55 97.5 207.6 96.95 207.75 94.75 208.2 91.55 209.6 82.75 213.3 72.45 219.4 68.6 221.65 62.35 225.65 58.7 228 54.2 230.9 54.05 231 53.95 231.1 52.85 231 52.25 230.4 51.75 229.9 51.55 228.1 50.85 221.15 47.6 214.9 46.9 213.55 44.75 210.1
L 41.25 204.5
Q 40.75 203.8 40.45 203.2 40.8 203 41.2 202.8 52.7 196.6 62.35 192.9
M 133.4 195.9
Q 136.35 192.85 138.4 190.3 139 190.05 139.65 189.6 141.95 192.05 145.6 192.8 146.8 193.1 148.5 193.2 154.4 193.45 159.75 190.9 160.5 190.55 161.15 190.2 161.3 190.3 161.45 190.35 161.65 190.45 161.9 190.55 160.8 193.1 159.2 195.9 158.45 197.25 157.2 199.2 157.1 199.15 156.95 199.1 151.65 197.25 144.7 196.55 140.85 196.15 133.4 195.9
M 208.95 232.3
Q 209.3 233.15 209.7 235.05 210.15 237.2 210.2 238.3 210.35 240.15 209.8 241.5 208.9 243.9 205.9 245.7 204.35 246.6 203.2 246.85 202.35 247 200.65 247
L 197.05 247
Q 195.5 247 194.75 246.85 193.9 246.65 192.4 245.85 189.25 244.2 186.55 241.8 183.95 239.55 182.9 237.4 181.45 234.35 182.1 230.6 182.25 229.95 182.95 227.4
L 184.15 223.7
Q 188.55 220.75 194 220.6 196.95 220.5 199.1 221.45 200.4 222.05 202.15 223.55 207.35 227.85 208.95 232.3
M 146.15 170.8
Q 146.1 170.75 146.05 170.7 145.75 171.1 145.65 171.3 145.65 171.25 145.65 171.2 145.75 170.8 145.9 170.45 145.9 170.4 145.85 170.35 145.3 170.4 144.75 170.5 145.1 170.2 145.65 169.75 146.5 169 147.1 168.65 148.3 167.95 150.15 167.75 151 167.65 153.5 167.65 155 167.65 158 167.45 158.6 167.4 159.1 167.3 159.15 167.5 159.2 167.65 158.95 167.7 158.75 167.8 158.75 168.75 158.15 169.55 158.1 169.85 158.1 170.25 158.05 173.3 158.1 174 158.15 175.4 158.55 177.35 158.35 177.6 158.1 177.9 157.95 178.1 157.85 178.25
L 157.8 178.25
Q 157.6 178.35 155.95 179.15 154.15 180 152.25 180 151.2 180.1 150.5 179.7 149.9 179.4 149.1 178.3 147.3 175.6 146.1 172.65 146.45 172.65 146.75 172.5 146.5 172.15 146.3 171.75 146.1 171.3 146.15 170.8
M 183.4 93.15
Q 179.05 93.05 176.25 93.4 172.35 93.9 169.5 95.35 167.6 96.35 166.85 97.6 166.35 98.4 166.3 99.3 166.3 99.35 166.3 99.4 164.25 99.35 163.15 100.15 161.7 101.15 160.85 104.5 159.6 109.4 157.65 114.95 156.95 116.85 156.15 117.45 154.9 118.45 151.85 118.05 141.8 116.55 132.1 114.45 126.2 113.2 122.6 112.1 117.5 110.45 113.7 108.2 111.5 106.85 110.2 105.4 110.95 104.7 111 103.9 111.1 102.9 110.25 102.15 109.45 101.45 108.4 101.45
L 108.35 101.45
Q 108.05 98.5 110.6 95.85 112.55 94 115.9 92.65 117.6 91.9 117.8 91.05 117.9 90.4 117.45 89.85 117 89.3 116.3 89.2 115.35 89 113.8 89.65 109.15 91.6 106.55 95.15 103.7 99.05 104.25 103.3 101.5 105.35 99.8 107.4 98.95 108.45 97.4 110.65 96.45 111.9 94.5 113.95 92.4 116.2 91.55 117.25 88.8 120.55 86.05 126.3 82.9 129.85 80.3 133.85 74.85 142.25 72.05 151.7 70.6 156.6 69.6 163 69.05 166.45 68.1 174.5 64.3 171.05 62.35 169.1 62.2 168.95 62.1 168.85 58.85 165.6 56.7 162.65 51.1 154.95 50.95 147.5 50.9 144.5 51.8 140.75 52.25 139 52.9 137.05 56 128.15 61.9 120.6 67.8 113.05 75.65 107.9 77.55 106.65 77.9 105.65 78.1 105.1 78 104.55 81.05 102.75 84.85 100.2 92.8 94.9 96.35 93.05 105.7 88.1 119.65 85.4 140.55 81.3 161.15 83.35 182.65 85.5 201.15 94.15 202.45 94.75 203.35 95 206 97.3 211.15 100.2 218.1 104.1 220.15 107.85 221.75 110.75 222.25 116.8 223 124.9 221.95 129.9 221.3 133 219.4 137.3 214.6 148.8 207.75 159.1 207.6 159.35 207.45 159.65 206.45 161.25 205.8 161.95 204.35 163.8 204.3 163.95 203.85 165.3 203.55 165.95 203.25 166.7 202.35 167.6 201.15 168.85 200.95 169.1 199.85 170.75 199.55 171 199.35 171.2 198.4 171.85 198.35 171.75 198.35 171.65
L 198.15 170.05
Q 198.55 169.65 198.6 169.55 199.55 168.1 198.9 166.5 198.45 165.5 197.55 165
L 196.9 159.45
Q 196.153515625 153.066015625 195.65 147.7 194.8814453125 148.629296875 194.45 149.1 193.15 150.95 192.4 151.75 192.1541015625 152.0140625 191.9 152.25 192.3 156.1 192.25 158.1 192.15 161.15 192.15 161.75 192.2 162.9 192.4 165.1 192.4 165.55 192.35 166.5 192.15 166.6 192 166.75 190.8 167.9 190.3 168.95 177.6 176.15 164.05 178.75 163.25 178.9 162.4 179.05 162.35 179 162.35 178.95 162.2 178.65 162.2 178.25 162.7 177.4 162.95 175.65 163.15 173.8 163.15 170.1 163.2 169.05 163.2 168.1 163.3 167.85 163.4 167.55 163.9 166.45 163.8 164.95 163.7 164 163.4 163.5 162.8 162.5 161.85 162.35 161.05 161.9 159.8 162.25 158.45 162.85 157.8 163.1 156.35 163.7 153.75 163.8 150.35 163.9 149.6 164.05 148.35 164.3 145.95 165.1
L 141.6 166.6
Q 140.4 167 139.75 166.85 138.95 166.55 138.5 166.4 137.55 166.15 136.65 166.65 135.75 167.15 135.4 168.1 135.05 169 135.4 170 135.75 170.95 136.55 171.55 137.6 172.4 139.45 172.4 140.5 172.45 141.5 172.2 141.6 172.4 141.7 172.55 143.1 175.95 146.05 181.45 147.3 183.65 148.25 184.25 148.75 184.55 149.5 184.75 149.65 184.75 149.8 184.75 151.25 184.75 154.15 184.75 154.9 184.75 155.5 184.8 156.65 184.6 157.6 184.35 158.65 184.05 159.45 183.55 159.3 184.15 159 184.65 159.15 184.65 159.35 184.6 159.2 185.15 159.15 185.7 159.1 185.95 159.1 186.2 156.95 187.35 155.95 187.7 153.45 188.6 148.85 188.5 144.8 188.4 143.25 186.75 143.05 186.55 142.8 186.2 143.15 185.6 143.35 185.1 143.5 184.75 143.55 184.4
L 145.45 184.55
Q 146.35 184.65 147.55 184.7 143.65 180.15 141.75 180.05 135.35 179.65 128.05 178.55 127.9 178.4 127.7 178.3 127.15 177.95 126.45 178.05 126.15 178.05 125.9 178.2 122.7 177.65 119.4 177 111.85 175.55 106.75 173.8 100 171.5 95.15 168.05 92.7087890625 166.3083984375 90.45 164.05
L 90.15 164.45
Q 88.9 165.95 88.15 166.65 86.9 167.75 85.65 168.1 85.1478515625 168.25859375 84.75 168.2 89.440234375 172.4056640625 95.45 175.45 98.65 177.05 102.3 178.4 94.1 178.65 85.9 179.85 79.7095703125 180.796484375 73.7 182.3 73.721875 182.1984375 73.75 182.1 74 181 73.45 180.15 73.16640625 179.809765625 72.95 179.55 73.0806640625 179.134765625 73.15 178.65 73.25 178 73.3 177.3 74.55 165.2 76 158.6 76.1 158.2 76.2 157.8 78.6 162.1 82.35 165.95 82.8697265625 166.483984375 83.4 167 83.3693359375 166.8341796875 83.35 166.65 83.15 164.95 84.65 163.05 86.25 161.3166015625 87.05 160.3 83.7228515625 156.142578125 80.85 150.75 79.8 148.95 79.1 148.05 80.5 144.3 82.3 141.1 82.3484375 141.0515625 82.35 141 82.35 141.3017578125 82.35 141.65 82.3 144.2 82.1 145.4 82 146.1 81.75 147.55 81.65 148.75 82.15 149.5 83 150.95 84.9 150.85 86.25 150.8 87.95 149.75 89.6 148.8 92.5 146.3 94.5 144.6 95.5 143.3 95.65 143.1 95.8 142.95 99 142.9 102.8 143.2 103.9 143.3 107.2 143.7 106.65 144.5 106.9 145.35 107.3 146.5 108.8 146.7 109.75 146.75 111.2 146.3
L 116.75 144.6
Q 118 144.5 118.8 144.1 119.05 144 119.25 143.85
L 119.75 143.7
Q 121.95 143.1 122.55 142.05 123 141.2 122.55 140.2 122.5 140.15 122.5 140.1 122.65 139.6 122.6 139 122.5 137.7 121.3 137.15 120.85 136.9 119.05 136.8 118.15 136.3 116.95 135.95 115.6 135.6 112.8 135.3
L 104.8 134.5
Q 94.75 133.6 89.4 134.25 87.3 134.55 86.05 135.2 87.85 132.45 88.7 130.9 90.2 128.25 91.35 125.45 94.95 120.55 99.95 114.75 102.55 111.8 104.05 110.3 105.1 109.25 106.2 108.35 108.75 112.1 114.75 115.1 122.8 119.1 133.3 121 141.6 122.45 152.9 122.8 154.65 122.8 155.45 122.65 156.85 122.4 157.65 121.6 158.45 120.8 159.05 118.7
L 162.8 105.6
Q 163.45 103.6 164.25 103.1 165.2 102.5 167.35 103.05
L 178.5 106
Q 175.05 111.2 173.7 117.45 172.4 123.7 173.4 129.9 173.7 131.75 174.2 132.8 174.65 133.75 175.95 135.35 179.25 139.3 182.3 140.55 185.15 141.7 188.45 141.2 190.2 140.95 191.8 140.25 191.8 141.6546875 191.7 143.75 193.117578125 142.4865234375 194.2 142.4 194.762109375 142.3732421875 195.25 142.55 195.139453125 140.4892578125 195.05 138.6 195.05 138.5 195.05 138.4 197.65 136.55 199.55 133.7 201.65 130.5 202.55 126.75 202.95 125.1 203.15 123.35 203.25 123.3 203.35 123.25 203.95 123 205.1 122.3 205.9 121.85 207.65 121.05 209.05 120.25 209.4 118.95 209.65 117.9 208.9 116.4 208.2 115.05 206.25 112.8 202.8 108.9 201 107.05 199.45 105.5 197.95 104.2 197.15 103.2 196.25 102.4 194.1 100.5 191.45 99.7 188.6 98.9 186 99.6 183.7 100.3 181.6 102.25
L 177.5 101.25
Q 176 100.9 174.65 100.6 179.85 97.95 183.4 93.15
M 142.5 147.8
Q 143.6 148.45 145 147.6 145.8 147.2 147.15 146.05 147.7 145.7 147.7 145.4 147.7 144.95 147.15 144.75
L 145.85 144.55
Q 144.7 144.55 144.45 144.5 144.5 144.6 144.4 144.65 144.25 144.7 144.15 144.65 142.75 144.55 142.15 145.35 141.65 145.85 141.8 146.65 141.9 147.4 142.5 147.8
M 118.05 201.75
Q 116.15 200.65 113.6 201.6 110.45 202.75 109.3 205.6 108.7 207 108.85 208.55 109.05 210.15 109.95 211.3 110.9 212.5 112.4 213 113.95 213.45 115.35 212.95 116.7 212.45 118.05 210.85 120 208.45 120.15 206.2 120.25 204.85 119.7 203.65 119.15 202.35 118.05 201.75
M 158.4 219.2
Q 159.45 219.7 160.55 219.6 162.3 219.55 163.9 218.25 166.05 216.7 166.6 214.75 167 213.35 166.45 211.85 165.95 210.4 164.8 209.5 163.65 208.6 162.1 208.5 160.55 208.45 159.3 209.15 158.1 209.85 157 211.4 156.05 212.6 155.8 213.7 155.45 214.75 155.7 215.9 155.95 217.05 156.65 217.9 157.3 218.75 158.4 219.2
M 42.8 222
Q 42.45 220.85 41.5 220.4 40.85 220.05 39.05 220.05
L 36 220.2
Q 34.85 220.2 34.45 219.9 34 219.5 33.8 218.55 33.45 217.05 33.4 215.85 33.3 214.5 33.1 213.9 32.65 212.85 31.85 212.6 31.8 212.55 31.75 212.55 31.15 212.4 30.55 212.75 29.95 213.05 29.65 213.65 29.25 214.4 29.15 216.1 28.75 220.75 30.1 222.85 31.3 224.7 33.85 225.45 35.7 226.05 38.45 225.85 38.85 225.85 39.25 225.8 41.7 225.55 42.55 224.1 43.1 223.15 42.8 222
M 177.15 20
Q 180 18.8 181.05 17.75 181.9 16.85 182.2 15.75 182.5 14.55 182.05 13.55 181.5 12.4 179.35 11.2 172.2 7.15 165.85 2.45 163.9 1 162.8 0.5 160.85 -0.35 159.3 0.25 158.35 0.55 156.6 2.25
L 141.15 18.4
Q 139.85 19.7 139.3 20.65 138.5 22.05 138.6 23.3 138.75 25 140.4 26.2 141.25 26.95 143.4 27.85
L 155.4 33.2
Q 156.5 33.75 157.85 34.2 159.5 34.75 160.55 34.7 161.95 34.6 162.8 33.75 163.65 32.85 163.75 31.1 163.6 28.95 163.6 27.95 163.5 26.7 163.9 26.05 164.35 25.4 165.6 24.9
L 177.15 20
M 174.05 14.95
Q 168.55 17.7 162.2 20.3 160.65 20.95 159.95 21.45 158.75 22.2 158.35 23.2 158.15 23.75 158.05 25.5 158.05 26.4 157.85 28.25 152.1 25.5 147.2 22.6 148 21.45 149.35 19.95 154.85 13.8 160.75 8.15 161.15 7.7 161.45 7.7 161.75 7.7 162.1 7.9
L 174.05 14.95 Z"/>

<path fill="#FF6699" stroke="none" d="
M 92.85 160.3
Q 93 158.95 91.95 158.05 90.85 157.2 89.6 157.7 88.95 157.95 88.3 158.7 87.95 159.15 87.25 160.05 87.1611328125 160.1666015625 87.05 160.3 86.25 161.3166015625 84.65 163.05 83.15 164.95 83.35 166.65 83.3693359375 166.8341796875 83.4 167 83.5759765625 167.6873046875 84.1 168.05 84.3828125 168.2150390625 84.75 168.2 85.1478515625 168.25859375 85.65 168.1 86.9 167.75 88.15 166.65 88.9 165.95 90.15 164.45
L 90.45 164.05 91.55 162.7
Q 92.75 161.2 92.85 160.3
M 102.4 160.25
Q 103.85 158.15 103.55 156.9 103.35 156 102.45 155.55 101.5 155.1 100.7 155.45 100.1 155.7 99.3 156.7
L 96.8 159.75
Q 95.3 161.55 95.1 162.75 95.05 163.2 95.05 164.05 95.05 164.9 94.95 165.3 94.85 166.1 95.05 166.25 95.35 166.55 96 166.35 97.6 165.8 98.2 165.45 99.4 164.75 100.9 162.5
L 102.4 160.25
M 191.25 144.2
Q 189.2 146.45 188.1 148 186.8 149.8 186.55 151.1 186.35 152 186.65 152.85 186.95 153.75 187.75 153.95 188.5 154.2 189.4 153.75 190.7494140625 153.3001953125 191.9 152.25 192.1541015625 152.0140625 192.4 151.75 193.15 150.95 194.45 149.1 194.8814453125 148.629296875 195.65 147.7 195.901953125 147.4802734375 196.15 147.2 197 146.05 197 145 197 143.9 196.15 143.1 195.7318359375 142.7515625 195.25 142.55 194.762109375 142.3732421875 194.2 142.4 193.117578125 142.4865234375 191.7 143.75 191.478125 143.971875 191.25 144.2
M 207.2 141.75
Q 207.2 140.95 206.7 140.4 206.2 139.85 205.35 139.85 204.6 139.85 203.85 140.25 203.2 140.6 201.7 142.35 200.55 143.55 200 144.15 199 145.25 198.5 146.1 196.85 148.65 197.7 150.8 198.25 150.55 199.55 150.15 200.75 149.8 201.35 149.45 202.25 148.9 203.25 147.65 203.8 146.95 204.85 145.5 205.2 145.15 205.9 144.4 206.5 143.75 206.8 143.2 207.2 142.5 207.2 141.75
M 146.05 170.7
Q 146.1 170.75 146.15 170.8 146.1 171.3 146.3 171.75 146.5 172.15 146.75 172.5 146.45 172.65 146.1 172.65 147.3 175.6 149.1 178.3 149.9 179.4 150.5 179.7 151.2 180.1 152.25 180 154.15 180 155.95 179.15 157.6 178.35 157.8 178.25
L 157.85 178.25
Q 157.95 178.1 158.1 177.9 158.35 177.6 158.55 177.35 158.15 175.4 158.1 174 158.05 173.3 158.1 170.25 158.1 169.85 158.15 169.55 158.75 168.75 158.75 167.8 158.95 167.7 159.2 167.65 159.15 167.5 159.1 167.3 158.6 167.4 158 167.45 155 167.65 153.5 167.65 151 167.65 150.15 167.75 148.3 167.95 147.1 168.65 146.5 169 145.65 169.75 145.1 170.2 144.75 170.5 145.3 170.4 145.85 170.35 145.9 170.4 145.9 170.45 145.75 170.8 145.65 171.2 145.65 171.25 145.65 171.3 145.75 171.1 146.05 170.7
M 168.45 188.15
Q 167.55 191.5 166.15 194.5 164.15 198.75 160.1 204.45 159.4 203.8 158.4 203.35 157.65 203.9 156.45 203.75 155.65 203.7 154.35 203.1 150.7 201.65 143.3 200.95 138.7 200.5 132.2 200.25 128.85 200.05 127.55 199.5 126.2 198.95 125.95 198 125.75 197.5 125.95 197 126.1 196.55 126.4 196.25 126.7 194.9 127.9 193.5 128.55 192.7 129.75 191.7 131.1 190.6 131.7 190 132.8 189.05 133.75 187.95 133.6 187.15 133.9 186.2 134.1 185.6 134.55 184.85 132.35 184.65 130.15 184.4 129.75 183.85 128.95 183.8 128.15 183.75 127.5 184.25 126.95 184.65 126.5 185.45 126.25 185.8 125.9 186.5 125.2 186.6 124.4 187.2 123.8 187.7 122.8 188.8 121.75 189.95 121.15 190.45 120.35 191 120.2 191.35 120.1 191.55 120.1 191.8 119.65 192.1 119.25 192.4 116.65 194.3 110.7 197.9 108.45 199.2 107.55 200.35 106.5 201.7 105.9 204.95 104.8 211.55 104.55 218.2 104.55 220.95 103.9 222.3 103.65 222.85 103.3 223.25 103.4 223.65 103.35 224.2 103.2 225.1 102.6 225.85 101.9 226.75 99.7 228 88.3 234.5 78.85 243.5 106.35 253.5 135.2 255.25 145.1 255.9 153.15 255.1 154.75 254.95 155.8 254.95 155.65 253.95 155.7 252.65
L 156 246.1
Q 155.7 245 156.05 243.7 156.1 243.5 156.15 243.3 156.4 241.55 157.1 240.75 157.25 240.55 157.45 240.4 163 229.55 167.2 218.8
L 172 206
Q 173.7 201.25 174.05 200.1 175.2 196.4 176.2 191.4 176.35 190.55 177.45 184.5 174.7 185.7 173.2 186.1 170.9 186.8 170.6 186.9 169.3 187.7 168.45 188.15
M 160.55 219.6
Q 159.45 219.7 158.4 219.2 157.3 218.75 156.65 217.9 155.95 217.05 155.7 215.9 155.45 214.75 155.8 213.7 156.05 212.6 157 211.4 158.1 209.85 159.3 209.15 160.55 208.45 162.1 208.5 163.65 208.6 164.8 209.5 165.95 210.4 166.45 211.85 167 213.35 166.6 214.75 166.05 216.7 163.9 218.25 162.3 219.55 160.55 219.6
M 113.6 201.6
Q 116.15 200.65 118.05 201.75 119.15 202.35 119.7 203.65 120.25 204.85 120.15 206.2 120 208.45 118.05 210.85 116.7 212.45 115.35 212.95 113.95 213.45 112.4 213 110.9 212.5 109.95 211.3 109.05 210.15 108.85 208.55 108.7 207 109.3 205.6 110.45 202.75 113.6 201.6
M 170 79.75
Q 183.15 81.9 195.9 86.65 194.35 85.45 192.7 84.4 186.3 80.3 178.6 78 165.7 74.15 147.95 75 124 76.15 101.15 84.35 92.1 87.6 87.5 91.3 85.2 93.1 82.85 95.8 84.95 94.4 86.65 93.35 95.55 87.9 103.5 85.2 109.15 83.25 120.15 81.2 129.85 79.4 134.55 78.85 151.95 76.75 170 79.75
M 28.5 202.5
Q 28 201 27.45 199.75 22.65 203.3 17.55 206.75 18.75 209.35 19.9 211.8 22.3 217 24.5 221.25 24.9 222.05 25.3 222.8 26.3 225 27.15 226.25 28.4 227.95 29.9 228.8 31.95 230.05 34.55 229.45 37.15 228.9 38.65 226.95 39.05 226.4 39.25 225.8 38.85 225.85 38.45 225.85 35.7 226.05 33.85 225.45 31.3 224.7 30.1 222.85 28.75 220.75 29.15 216.1 29.25 214.4 29.65 213.65 29.95 213.05 30.55 212.75 31.15 212.4 31.75 212.55 31.8 212.55 31.85 212.6 30.75 209.1 30.35 208 30.35 207.9 30.3 207.8 29.85 206.2 28.9 203.7 28.7 203.05 28.5 202.5 Z"/>

<path fill="#660066" stroke="none" d="
M 76.2 157.8
Q 76.1 158.2 76 158.6 74.55 165.2 73.3 177.3 73.25 178 73.15 178.65 73.0806640625 179.134765625 72.95 179.55 73.16640625 179.809765625 73.45 180.15 74 181 73.75 182.1 73.721875 182.1984375 73.7 182.3 79.7095703125 180.796484375 85.9 179.85 94.1 178.65 102.3 178.4 98.65 177.05 95.45 175.45 89.440234375 172.4056640625 84.75 168.2 84.3828125 168.2150390625 84.1 168.05 83.5759765625 167.6873046875 83.4 167 82.8697265625 166.483984375 82.35 165.95 78.6 162.1 76.2 157.8
M 176.25 93.4
Q 179.05 93.05 183.4 93.15 179.85 97.95 174.65 100.6 176 100.9 177.5 101.25
L 181.6 102.25
Q 183.7 100.3 186 99.6 188.6 98.9 191.45 99.7 194.1 100.5 196.25 102.4 197.15 103.2 197.95 104.2 199.45 105.5 201 107.05 202.8 108.9 206.25 112.8 208.2 115.05 208.9 116.4 209.65 117.9 209.4 118.95 209.05 120.25 207.65 121.05 205.9 121.85 205.1 122.3 203.95 123 203.35 123.25 203.25 123.3 203.15 123.35 202.95 125.1 202.55 126.75 201.65 130.5 199.55 133.7 197.65 136.55 195.05 138.4 195.05 138.5 195.05 138.6 195.139453125 140.4892578125 195.25 142.55 195.7318359375 142.7515625 196.15 143.1 197 143.9 197 145 197 146.05 196.15 147.2 195.901953125 147.4802734375 195.65 147.7 196.153515625 153.066015625 196.9 159.45
L 197.55 165
Q 198.45 165.5 198.9 166.5 199.55 168.1 198.6 169.55 198.55 169.65 198.15 170.05
L 198.35 171.65
Q 198.35 171.75 198.4 171.85 199.35 171.2 199.55 171 199.85 170.75 200.95 169.1 201.15 168.85 202.35 167.6 203.25 166.7 203.55 165.95 203.85 165.3 204.3 163.95 204.35 163.8 205.8 161.95 206.45 161.25 207.45 159.65 207.6 159.35 207.75 159.1 214.6 148.8 219.4 137.3 221.3 133 221.95 129.9 223 124.9 222.25 116.8 221.75 110.75 220.15 107.85 218.1 104.1 211.15 100.2 206 97.3 203.35 95 202.45 94.75 201.15 94.15 182.65 85.5 161.15 83.35 140.55 81.3 119.65 85.4 105.7 88.1 96.35 93.05 92.8 94.9 84.85 100.2 81.05 102.75 78 104.55 78.1 105.1 77.9 105.65 77.55 106.65 75.65 107.9 67.8 113.05 61.9 120.6 56 128.15 52.9 137.05 52.25 139 51.8 140.75 50.9 144.5 50.95 147.5 51.1 154.95 56.7 162.65 58.85 165.6 62.1 168.85 62.2 168.95 62.35 169.1 64.3 171.05 68.1 174.5 69.05 166.45 69.6 163 70.6 156.6 72.05 151.7 74.85 142.25 80.3 133.85 82.9 129.85 86.05 126.3 88.8 120.55 91.55 117.25 92.4 116.2 94.5 113.95 96.45 111.9 97.4 110.65 98.95 108.45 99.8 107.4 101.5 105.35 104.25 103.3 103.7 99.05 106.55 95.15 109.15 91.6 113.8 89.65 115.35 89 116.3 89.2 117 89.3 117.45 89.85 117.9 90.4 117.8 91.05 117.6 91.9 115.9 92.65 112.55 94 110.6 95.85 108.05 98.5 108.35 101.45
L 108.4 101.45
Q 109.45 101.45 110.25 102.15 111.1 102.9 111 103.9 110.95 104.7 110.2 105.4 111.5 106.85 113.7 108.2 117.5 110.45 122.6 112.1 126.2 113.2 132.1 114.45 141.8 116.55 151.85 118.05 154.9 118.45 156.15 117.45 156.95 116.85 157.65 114.95 159.6 109.4 160.85 104.5 161.7 101.15 163.15 100.15 164.25 99.35 166.3 99.4 166.3 99.35 166.3 99.3 166.35 98.4 166.85 97.6 167.6 96.35 169.5 95.35 172.35 93.9 176.25 93.4
M 206.7 140.4
Q 207.2 140.95 207.2 141.75 207.2 142.5 206.8 143.2 206.5 143.75 205.9 144.4 205.2 145.15 204.85 145.5 203.8 146.95 203.25 147.65 202.25 148.9 201.35 149.45 200.75 149.8 199.55 150.15 198.25 150.55 197.7 150.8 196.85 148.65 198.5 146.1 199 145.25 200 144.15 200.55 143.55 201.7 142.35 203.2 140.6 203.85 140.25 204.6 139.85 205.35 139.85 206.2 139.85 206.7 140.4
M 44.4 142.45
L 44.35 142.45
Q 38.3 144.65 31.7 145.15 32.5 148.4 36 154 37.75 156.85 38.85 159.05 39.85 160.25 40.8 161.35 45.05 164.25 46.75 166.1 46.9 166.3 47.1 166.5 49.5 167.8 52.4 169.1 51.45 168 50.7 166.95 43.6 157.4 43.8 147.45 43.85 145 44.4 142.45
M 262.35 98.4
Q 261.15 96.45 258.6 93.55 238.2 69.75 216.5 54.4 210.35 50.05 205.65 47.9 202.95 46.65 200.25 45.9 199.6 45.9 198.95 45.9 198.4 45.9 196.3 45.65 189.9 44.9 178.05 45.75 170.1 46.35 166.65 47.2 164.1 48 162.8 48.4 160.6 49.05 159.1 49.25 155.2 49.7 150.3 48.15 149.15 47.85 141.8 44.95 132.45 41.3 122.65 39.95 122.5 39.9 122.3 39.9 117.1 39.75 111.1 41.65 106.85 43 100.65 45.95 60.85 65.5 30.2 96.55 27.6 99.2 27.1 101.15 26.6 102.95 27.45 106.05 29.6 114.25 34.4 120.95 35.3 122.2 38.2 125.8 40.6 128.85 41.8 130.8 43.7 133.65 44.55 136.35 45.4 136.5 46.05 136.9 47.5 133 50.25 128.1 53.15 123 55.7 119.7 59.05 115.5 64.15 111.45 64.1 111.3 64.05 111.2 63.75 109.8 65.5 107.75
L 70.7 101.3
Q 75.5 95.4 78.1 92.75 82.45 88.2 86.7 85.55 89.75 83.6 93.95 81.95 96.8 80.8 101.65 79.3 130.85 70.35 153.85 70.15 171 70.05 183.85 74.7 199.6 80.45 208.15 92.35 208.3 92.55 208.45 92.75 210.95 94.35 214.65 96.35 221.5 100.05 224.25 103.5 226.6 106.4 227.9 110.65 228.85 113.9 229.45 118.65 230.35 125.2 229.75 129.6 229.1 134.35 225.65 141.7 219.9 154.4 213.85 163.6 211 167.95 207.9 171.75 208.2 171.7 208.55 171.7 216.65 170.95 221.4 170.15 228.45 169 233.9 167.05
L 243.55 163.1
Q 245.5 161.65 248 159.9 254.85 155.15 256.6 150.35 250.25 150.1 243.75 147.65 240.7 146.5 239.8 144.75 238.8 142.65 240.5 140.45 241.25 139.35 243.75 137.45 252.15 130.75 260.45 117.45 262.85 113.6 263.8 111 265.15 107.15 264.6 103.9 264.2 101.3 262.35 98.4
M 162.2 20.3
Q 168.55 17.7 174.05 14.95
L 162.1 7.9
Q 161.75 7.7 161.45 7.7 161.15 7.7 160.75 8.15 154.85 13.8 149.35 19.95 148 21.45 147.2 22.6 152.1 25.5 157.85 28.25 158.05 26.4 158.05 25.5 158.15 23.75 158.35 23.2 158.75 22.2 159.95 21.45 160.65 20.95 162.2 20.3 Z"/>

<path fill="#FFCC99" stroke="none" d="
M 167.35 103.05
Q 165.2 102.5 164.25 103.1 163.45 103.6 162.8 105.6
L 159.05 118.7
Q 158.45 120.8 157.65 121.6 156.85 122.4 155.45 122.65 154.65 122.8 152.9 122.8 141.6 122.45 133.3 121 122.8 119.1 114.75 115.1 108.75 112.1 106.2 108.35 105.1 109.25 104.05 110.3 102.55 111.8 99.95 114.75 94.95 120.55 91.35 125.45 90.2 128.25 88.7 130.9 87.85 132.45 86.05 135.2 87.3 134.55 89.4 134.25 94.75 133.6 104.8 134.5
L 112.8 135.3
Q 115.6 135.6 116.95 135.95 118.15 136.3 119.05 136.8 120.85 136.9 121.3 137.15 122.5 137.7 122.6 139 122.65 139.6 122.5 140.1 122.5 140.15 122.55 140.2 123 141.2 122.55 142.05 121.95 143.1 119.75 143.7
L 119.25 143.85
Q 119.05 144 118.8 144.1 118 144.5 116.75 144.6
L 111.2 146.3
Q 109.75 146.75 108.8 146.7 107.3 146.5 106.9 145.35 106.65 144.5 107.2 143.7 103.9 143.3 102.8 143.2 99 142.9 95.8 142.95 95.65 143.1 95.5 143.3 94.5 144.6 92.5 146.3 89.6 148.8 87.95 149.75 86.25 150.8 84.9 150.85 83 150.95 82.15 149.5 81.65 148.75 81.75 147.55 82 146.1 82.1 145.4 82.3 144.2 82.35 141.65 82.35 141.3017578125 82.35 141 82.3484375 141.0515625 82.3 141.1 80.5 144.3 79.1 148.05 79.8 148.95 80.85 150.75 83.7228515625 156.142578125 87.05 160.3 87.1611328125 160.1666015625 87.25 160.05 87.95 159.15 88.3 158.7 88.95 157.95 89.6 157.7 90.85 157.2 91.95 158.05 93 158.95 92.85 160.3 92.75 161.2 91.55 162.7
L 90.45 164.05
Q 92.7087890625 166.3083984375 95.15 168.05 100 171.5 106.75 173.8 111.85 175.55 119.4 177 122.7 177.65 125.9 178.2 126.15 178.05 126.45 178.05 127.15 177.95 127.7 178.3 127.9 178.4 128.05 178.55 135.35 179.65 141.75 180.05 143.65 180.15 147.55 184.7 146.35 184.65 145.45 184.55
L 143.55 184.4
Q 143.5 184.75 143.35 185.1 143.15 185.6 142.8 186.2 143.05 186.55 143.25 186.75 144.8 188.4 148.85 188.5 153.45 188.6 155.95 187.7 156.95 187.35 159.1 186.2 159.1 185.95 159.15 185.7 159.2 185.15 159.35 184.6 159.15 184.65 159 184.65 159.3 184.15 159.45 183.55 158.65 184.05 157.6 184.35 156.65 184.6 155.5 184.8 154.9 184.75 154.15 184.75 151.25 184.75 149.8 184.75 149.65 184.75 149.5 184.75 148.75 184.55 148.25 184.25 147.3 183.65 146.05 181.45 143.1 175.95 141.7 172.55 141.6 172.4 141.5 172.2 140.5 172.45 139.45 172.4 137.6 172.4 136.55 171.55 135.75 170.95 135.4 170 135.05 169 135.4 168.1 135.75 167.15 136.65 166.65 137.55 166.15 138.5 166.4 138.95 166.55 139.75 166.85 140.4 167 141.6 166.6
L 145.95 165.1
Q 148.35 164.3 149.6 164.05 150.35 163.9 153.75 163.8 156.35 163.7 157.8 163.1 158.45 162.85 159.8 162.25 161.05 161.9 161.85 162.35 162.8 162.5 163.4 163.5 163.7 164 163.8 164.95 163.9 166.45 163.4 167.55 163.3 167.85 163.2 168.1 163.2 169.05 163.15 170.1 163.15 173.8 162.95 175.65 162.7 177.4 162.2 178.25 162.2 178.65 162.35 178.95 162.35 179 162.4 179.05 163.25 178.9 164.05 178.75 177.6 176.15 190.3 168.95 190.8 167.9 192 166.75 192.15 166.6 192.35 166.5 192.4 165.55 192.4 165.1 192.2 162.9 192.15 161.75 192.15 161.15 192.25 158.1 192.3 156.1 191.9 152.25 190.7494140625 153.3001953125 189.4 153.75 188.5 154.2 187.75 153.95 186.95 153.75 186.65 152.85 186.35 152 186.55 151.1 186.8 149.8 188.1 148 189.2 146.45 191.25 144.2 191.478125 143.971875 191.7 143.75 191.8 141.6546875 191.8 140.25 190.2 140.95 188.45 141.2 185.15 141.7 182.3 140.55 179.25 139.3 175.95 135.35 174.65 133.75 174.2 132.8 173.7 131.75 173.4 129.9 172.4 123.7 173.7 117.45 175.05 111.2 178.5 106
L 167.35 103.05
M 145 147.6
Q 143.6 148.45 142.5 147.8 141.9 147.4 141.8 146.65 141.65 145.85 142.15 145.35 142.75 144.55 144.15 144.65 144.25 144.7 144.4 144.65 144.5 144.6 144.45 144.5 144.7 144.55 145.85 144.55
L 147.15 144.75
Q 147.7 144.95 147.7 145.4 147.7 145.7 147.15 146.05 145.8 147.2 145 147.6
M 103.55 156.9
Q 103.85 158.15 102.4 160.25
L 100.9 162.5
Q 99.4 164.75 98.2 165.45 97.6 165.8 96 166.35 95.35 166.55 95.05 166.25 94.85 166.1 94.95 165.3 95.05 164.9 95.05 164.05 95.05 163.2 95.1 162.75 95.3 161.55 96.8 159.75
L 99.3 156.7
Q 100.1 155.7 100.7 155.45 101.5 155.1 102.45 155.55 103.35 156 103.55 156.9
M 209.7 235.05
Q 209.3 233.15 208.95 232.3 207.35 227.85 202.15 223.55 200.4 222.05 199.1 221.45 196.95 220.5 194 220.6 188.55 220.75 184.15 223.7
L 182.95 227.4
Q 182.25 229.95 182.1 230.6 181.45 234.35 182.9 237.4 183.95 239.55 186.55 241.8 189.25 244.2 192.4 245.85 193.9 246.65 194.75 246.85 195.5 247 197.05 247
L 200.65 247
Q 202.35 247 203.2 246.85 204.35 246.6 205.9 245.7 208.9 243.9 209.8 241.5 210.35 240.15 210.2 238.3 210.15 237.2 209.7 235.05
M 41.5 220.4
Q 42.45 220.85 42.8 222 43.1 223.15 42.55 224.1 41.7 225.55 39.25 225.8 39.05 226.4 38.65 226.95 37.15 228.9 34.55 229.45 31.95 230.05 29.9 228.8 28.4 227.95 27.15 226.25 26.3 225 25.3 222.8 24.9 222.05 24.5 221.25 24.45 222.7 24.55 224.55 24.65 226.45 24.9 227.35 25.4 228.85 26.65 230.2 28.5 232.25 31.15 233.35 33.75 234.4 36.5 234.25 38.55 234.1 41 233.25 42.45 232.7 45.3 231.4 45.8 231.15 46.25 230.9 46.1 230.05 45.9 227.9 45.75 225.65 44.85 223.15 43.9 220.75 41.1 216.45
L 35.8 208.5
Q 34.4 206.4 34.05 205.2 34 204.95 33.95 204.75 33.1 205.2 32 206.25 31.15 207.1 30.35 208 30.75 209.1 31.85 212.6 32.65 212.85 33.1 213.9 33.3 214.5 33.4 215.85 33.45 217.05 33.8 218.55 34 219.5 34.45 219.9 34.85 220.2 36 220.2
L 39.05 220.05
Q 40.85 220.05 41.5 220.4 Z"/>

<path fill="#8C99B0" stroke="none" d="
M 25.6 195.65
Q 19.2 182.65 11.8 171.05 9.25 167.6 6.7 163.95 3.95 167.9 2.25 172.85 0.35 178.6 0.05 185.05 -0.45 195.25 4.05 209.45 4.75 212.2 6.55 212.7 7.65 213 9.8 211.7 13.75 209.25 17.55 206.75 22.65 203.3 27.45 199.75 27.5 199.65 27.6 199.65 26.75 198 25.6 195.65 Z"/>

<path fill="#000000" stroke="none" d="
M 219.6 251.2
Q 220 250.4 220.3 249.6 219.9 250.2 219.5 250.85 219.55 251 219.6 251.2 Z"/>
</g>
</defs>

<g transform="matrix( 1, 0, 0, 1, 14.2,15.3) ">
<g transform="matrix( 1, 0, 0, 1, 0,0) ">
<use xlink:href="#nancy_0_Layer1_0_FILL"/>
</g>

<g transform="matrix( 1, 0, 0, 1, 0,0) ">
<use xlink:href="#nancy_0_Layer0_0_FILL"/>
</g>
</g>
</svg>
