
<svg xmlns="http://www.w3.org/2000/svg" version="1.1" xmlns:xlink="http://www.w3.org/1999/xlink" preserveAspectRatio="none" x="0px" y="0px" width="150px" height="150px" viewBox="0 0 150 150">
<defs>
<g id="Layer0_0_FILL">
<path fill="#FFFFFF" stroke="none" d="
M 19.6 138.1
Q 18.6 138.35 18 139.2 17.35 140.1 17.4 141.1 17.5 141.8 18.2 143 19.55 145 21.1 146.3 22.2 147.2 23.15 147.4 24.5 147.6 25.85 146.45 26.7 145.7 27.65 144.1 28.7 142.4 28.95 141.5 29.5 139.9 28.75 138.7 28.25 137.95 27.4 137.55 26.55 137.2 25.65 137.35 23.8 137.75 23.05 139.6 22.5 138.75 21.55 138.3 20.55 137.9 19.6 138.1
M 12.25 20.1
Q 11.25 20.3 10.45 21.05 9.7 21.8 9.35 22.8 8.4 21.9 7.05 22 5.6 22.2 5.15 23.4 4.7 24.4 5.5 26.3
L 6.55 28.25
Q 7.45 29.7 8.4 30.3 9.15 30.8 10.1 30.85 11.05 30.9 11.8 30.45 12.55 30 13.15 28.85 13.8 27.55 14.1 26.9 15.25 24.85 15.4 24.5 16.05 22.95 15.65 21.85 15.3 20.9 14.3 20.4 13.3 19.85 12.25 20.1
M 137.4 11.35
Q 136.45 10.9 135.3 11.05 134.2 11.2 133.35 11.85 132.7 12.35 132.05 13.45 131.35 14.7 130.95 15.25 130.6 15.8 130.3 15.85 129.9 16 129.4 15.6 128.8 15.2 128 14.45
L 126.7 13.2
Q 125 11.7 123.5 11.8 122.4 11.85 121.55 12.65 120.25 13.95 120.7 15.6 120.8 16.1 121.3 17 122.1 18.4 122.6 19 123.2 19.8 124.7 21.1
L 127.35 23.4
Q 129.25 25 130.5 25.05 132.05 25.05 133.85 23.15 136.45 20.55 138.25 17.75 139.35 15.95 139.45 14.85 139.55 13.8 138.95 12.8 138.4 11.85 137.4 11.35
M 85.45 98.45
Q 84.45 98.7 83.95 98.8 83 99.1 81.5 99.15 79.35 99.25 79 99.3 75.8 99.7 74.95 101.85 74.65 102.85 75.05 105.3 75.3 106.95 75.4 107.25 75.85 108.4 76.7 108.7 78.15 109.25 80 107.3 82.6 104.7 83.6 102.6 84.15 101.65 84.3 101.55 84.55 101.35 85 101.3 85.65 101.2 85.75 101.15 86.5 100.95 86.85 100.25 87.25 99.5 86.8 98.9 86.4 98.35 85.45 98.45
M 80.6 102.7
Q 80.25 103.05 79.8 103.95 79.4 104.5 79.35 104.6
L 79.2 105
Q 79.1 105.2 78.8 105.45 78.75 105.5 78.3 106.25 78 106.75 77.6 106.8 77.35 106.25 77.55 105.35
L 77.75 103.95
Q 77.75 103.6 77.95 103.4
L 78.45 103.15 79.4 102.85
Q 80.2 102.65 80.6 102.7
M 112.6 82.9
Q 112.25 83.65 112.05 84.8 111.95 85.45 111.8 86.75 111.4 89.25 109.95 92 109 93.8 106.9 96.85 105.8 98.45 105.15 99.15 104.15 100.15 102.05 101.4 95.95 105 89.4 107.5 87.45 108.25 86.95 108.5 85.55 109.15 84.75 109.95 83.9 110.7 84.3 111.25
L 84.35 111.3
Q 84.25 111.4 84.15 111.55 83.8 111.9 83.1 112.25
L 78.5 114.05
Q 75.9 114.8 72.4 114.45 71.75 114.45 71.3 114.25 70.65 114 69.7 112.7 69.7 112.65 69.75 112.55 70.1 112.2 70.45 111.35 70.85 110.45 70.9 109.95 71 109.1 70.5 108.55 70.2 108.2 69.45 107.9 68.35 107.5 67.2 107.25 67.7 105.5 67.8 103.6 68.05 100.2 66.85 97.6 65.4 94.5 62.6 93.4 60.15 92.4 56.05 93.3 54.3 93.7 53.7 93.8 52.35 93.95 51.35 93.65 50.75 93.5 49.9 92.95 48.85 92.3 48.55 92.15 46.7 91.25 43.8 91.45 41.1 91.7 38.6 92.95 36.1 94.25 34.3 96.25 32.45 98.25 31.5 100.9 30.5 103.5 30.55 106.25 30.65 108.7 31.4 110.2 31.9 111.35 32.75 112.1 32.6 112.5 32.5 112.95 29.4 125.8 33.95 135.5 36 139.65 38.85 142.05 41.9 144.55 45.3 145 48.6 146.05 52.8 146 53.9 146 54.8 145.9 55.75 155.15 59.15 162.95 61.6 168.6 65.1 169.7 67.05 170.35 70.4 169.75 85.2 167.25 97 159.05 99.5 157.35 101.25 155.65 101.45 155.5 101.65 155.4 103 154.6 106.5 152.1 108.71875 150.558203125 111.3 148.85 112.131640625 149.3404296875 112.8 149.75 115.15 151.25 118.2 153.55 120 154.9 123.45 157.65 125.15 158.95 126.1 159.4 126.9 159.8 128.5 160.3 129.25 160.5 129.5 160.25 129.7 160 129.35 159.05
L 129.05 157.55
Q 128.9 156.45 127.95 154.75 125.8 151.3 121.1 148 118.27578125 146.067578125 115.25 144.55 115.23828125 144.127734375 115.05 143.7 114.45 142.55 113.1 142.2 111.75 142.2 111.05 142.1 110.25 141.95 109 141 106.2 138.95 102.95 136.1 102.2 135.45 101.95 134.85
L 101.95 134.8
Q 103.25 132.75 103.95 130.75 104.15 130.2 104.3 129.65 104.5 129.3 104.75 128.95 107.8 124.25 109.3 120.4 111.25 115.5 111.15 111.1 111.05 107.2 109.1 105.25 107.65 103.75 105.45 103.5 106.8 102.6 107.7 101.85 108.7 100.95 109.95 99.55 116.15 92.7 117.4 85.65 117.7 83.95 117.4 82.95 117.05 81.35 115.65 81.05 114.75 80.8 113.85 81.4 113 81.95 112.6 82.9
M 42.55 97.9
Q 44.35 97 45.4 97.05 45.95 97.1 46.6 97.4 45.1 98 44.3 98.65 43.2 99.6 42.6 101 42.05 102.4 42.15 103.9 42.3 106.85 44.6 109.15 44.9 109.45 44.95 109.65 45 110.1 44.5 110.6 43.3 111.85 43.05 113.2 42.9 113.85 42.95 114.5 42.45 114.5 42.1 114.5 40.35 114.6 38.85 113.55
L 38.15 113.05
Q 37.9 112.85 37.7 112.7 37.7 112.3 37.65 111.95 37.75 111.6 37.65 111.2 37.55 110.85 37.25 110.4 36.7 109.7 36.65 109.65 35.95 108.6 36.15 106.4 36.45 103.65 37.3 102.2 38.6 99.9 42.55 97.9
M 56.95 98.9
Q 58.55 98.5 59.35 98.5 60.8 98.6 61.45 99.45 62 100.1 62.1 101.6 62.15 104.9 60.5 108.5 58.85 112 58.75 112.2 58.2 113.7 58.1 115.4 58.1 115.8 58.2 116.05 56.4 118.65 53.65 119.05 52.55 119.15 52.05 118.75 51.85 118.6 51.4 117.8 50.4 115.95 48.8 114.8 48.85 114.55 48.85 114.35 48.9 114.2 48.95 114.15 50.4 112.75 50.8 111.85 51.4 110.4 50.05 107.7 49.5 106.5 48.95 105.9 48.4 105.35 48.2 105.05 47.75 104.55 47.7 104.1 47.6 103.1 48.55 102.4 49.2 101.95 50.3 101.6 51.95 100.95 52.55 100.55 53.35 100 53.75 99.4 55.2 99.3 56.95 98.9
M 66.35 109.95
Q 66.95 110.2 67.05 110.35 67.2 110.65 67.1 111 67.1 111.7 67.45 112.2 67.2 112.9 67.3 113.7 67.4 114.5 67.8 115.15 65.85 114.45 64.2 114.2 64.3 113.55 64.3 112.95 65.45 111.45 66.2 109.85 66.3 109.9 66.35 109.95
M 62.3 117.2
Q 62.8 117.55 63.5 117.9 63.7 118 65.75 118.8 68.15 119.8 72.9 122.8 76.3 125.05 77.55 126.15 77.6 126.2 77.65 126.25 78 125.85 78.4 125.4
L 78.45 125.35
Q 78.65 125.4 78.85 125.45 79.65 125.6 80.55 125.05 81.15 124.7 81.9 123.85 84.3 121.35 85.55 120.1 87.7 118.05 89.55 116.8 91.05 115.65 91.35 115.35 92.05 114.5 92 113.65
L 92.45 112.5
Q 92.45 112.45 92.5 112.4 93 112.4 93.85 112.15 95.65 111.6 99.1 110.15 102.2 108.95 104.45 108.85 105.1 108.85 105.35 109 105.7 109.25 105.8 110.05 106.15 113.35 104.8 117.15 103.95 119.45 101.65 123.65 99.65 127.25 98.55 128.95 96.55 131.9 96 133.1 95.95 133.25 95.9 133.4 93.7 135.85 92.35 137.2 84.7 144.75 76.9 144.4 73.65 144.25 70.05 142.6 67.35 141.3 63.8 138.8 53.35 131.4 49.25 123.6 50.2 124.3 51.15 124.5 52.25 124.65 54 124.3 57.35 123.6 58.75 122.5 59.4 122.05 60.1 121.25 60.3 121.1 60.45 120.95 60.35 120.25 60.4 119.7 60.6 118.25 62.15 117.25 62.2 117.2 62.3 117.2
M 77.35 120
Q 75.8 118.95 73.4 117.7 73.75 117.7 74.15 117.7 75.9 117.7 77.1 117.45 78.4 117.2 80.45 116.2 80.9 115.95 81.2 115.8
L 77.8 120.3
Q 77.55 120.15 77.35 120
M 41.7 118.45
Q 41.6 119.75 41.85 121.2 42.4 124.2 44.45 127.55 48.2 133.7 55.5 139.75 55.05 139.75 54.5 139.85 50.9 140.3 45.35 139.4 44.55 139.25 43.95 139.1 42.75 138.3 41.6 136.9 38.05 132.65 37.05 126.15 36.45 122.15 37.1 117.25
L 37.55 117.55
Q 39.6 118.55 41.7 118.45
M 58.5 144.65
Q 58.9 144.3 59.3 143.9 59.65 143.5 59.85 143.1 65 146.8 69.15 148.35 74.15 150.25 79.6 149.85 85.1 149.45 89.6 146.7 92.15 145.2 95.8 141.7 97.2 140.35 98.35 139.2 98.9 140.05 100.4 141.45 103.05 143.75 106.15 145.7
L 97.8 151.75
Q 96.1 153 95.1 154.15 93.3 155.15 90.55 156.75 79.7 162.7 67.35 164.75 66.4 164.95 65.9 164.7 65.5 164.5 65 163.7 59.7 154.75 58.5 144.65
M 86.75 111.35
Q 88.2 111.05 89.75 110.65 88.85 111.9 88.5 112.75
L 88.5 112.8 86.1 114.8
Q 86.2 114.4 86.25 113.75 86.35 112.75 86.5 112.25 86.7 111.7 86.75 111.35
M 29.85 93.4
Q 28.8 94.4 26.55 96.15 23.45 98.55 21.8 99.65 18.2 101.95 17.05 103.05 15.95 104.15 15.35 104.35
L 14.6 104.65
Q 14.15 104.9 14.15 105.3 14.3 105.8 15 105.8 15.15 105.8 16 105.55 16.75 105.35 18.3 105.25 19.9 105 22.4 103.35 24.75 101.8 29.25 98.3 31 97.05 32.2 95.85 34.25 93.9 35.45 91.3 36.05 90.1 35.75 89.3 35.55 88.7 34.9 88.45 34.25 88.2 33.7 88.5 33.1 88.75 32.45 90.1 31.55 91.75 29.85 93.4
M 39.65 75.45
Q 36.9 76.35 32.2 78.6 30.15 79.65 29.4 80.15 28.5 80.8 28.2 81.45 27.9 82.15 28.1 82.95 28.7 82.8 31.9 83.15 35.1 83.4 37 84.4 38.85 85.35 40.2 85 41.5 84.7 42.7 83.8 43.9 82.9 44.3 82.65 45.25 81.8 45.75 81.4 46.5 80.8 47.75 80.15
L 50.05 79.05
Q 51 78.55 51.95 78.35 52.9 78.1 54.35 78.1 58.55 77.9 60.55 78.85 61.5 79.25 63.2 80.3 64.95 81.05 66.15 80.45 66.85 80.1 67.2 79.25 67.5 78.45 67.25 77.7 66.9 76.6 64.75 75.4 60.9 73.45 58.55 73.1 57.35 72.95 54.9 72.95 49.3 72.85 47.55 73.05 45.55 73.3 44 73.9 43.9 73.85 43.85 73.85 43.3 73.85 42.6 74.15 41.85 74.6 41.45 74.75 40.85 75.05 39.65 75.45
M 38.75 80.05
Q 38.6 80.05 38.5 80.05 38.6 80 38.7 79.95 38.7 80 38.75 80.05
M 106.3 57.85
Q 104.2 58.5 102.5 60.5 101.7 61.5 100.85 62.95 101.45 60.4 101.35 58.45 101.2 57 100.8 55.25 100.4 53.45 99.5 53.25 98.55 53 97.9 54.05 97.6 54.6 97.4 55.85 96.85 60.05 96.3 62.4 95.4 65.95 93.8 68.45 91.85 71.6 88.05 74.2 85.45 76 80.8 78.2 80.7 78.25 80.65 78.3 80.05 77.45 79.1 76.45 74.75 72 65.55 66.15 64.55 65.55 64.1 65.15 62.9 64.15 62.35 64.15 61.7 64.2 61.3 64.85 60.95 65.45 61.05 66.1 61.2 67.05 62.5 68.25 64.3 69.95 70.2 74.35 75.15 78 77.5 80.85 77.7 81.1 77.9 81.3 77.85 81.6 77.95 81.95 78.2 82.85 78.85 83.35 79.85 84.1 81.45 83.85 82.45 83.7 84 82.9 93.1 78.25 96.8 72.9 97 72.6 97.2 72.25 96.95 73.55 96.85 74.75 96.75 76.05 97.05 76.8 97.2 77.15 97.4 77.45
L 97.4 77.85
Q 97.5 78.65 98.1 79.95 98.45 80.75 98.85 81.4 99.3 81.95 99.75 82.25 100.75 83.5 102 83.85 103.55 84.3 105.55 83.5 108.95 82.05 111.15 78.55 111.2 78.5 111.25 78.45 111.6 78.5 112.05 78.5 112.5 78.5 113.35 78.45 114.05 78.45 114.9 78.7 116.5 79.25 116.7 79.25 117.8 79.4 118.6 78.7 119.4 78 119.3 76.85 119.3 76.75 118.6 75.1
L 118.05 73.5
Q 117.25 71.95 117.05 71.15
L 116.7 69.95
Q 116.65 69.8 116.1 68.7 115.45 67.1 115.1 66.3 114.7 65.3 113.7 63.5 113.35 62.85 113.05 62.4 112.75 61.4 112.4 60.7 111.75 59.35 110.75 58.55 108.85 57.1 106.3 57.85
M 106.9 63.5
Q 107.45 63.1 107.65 62.85 108 63.4 108.3 64.35 108.9 66.45 109.05 67.55 109.35 69.3 109.05 70.75
L 108.9 71.45
Q 108 74.65 106.65 76.4 105.6 77.7 104.45 78.45 104 78.8 103.65 78.75 103.4 78.75 102.95 78.4
L 101.6 77.2
Q 101.5 76.85 101.5 76.2 101.5 75 101.5 74.25
L 102.6 71.25
Q 103.7 68.35 104 67.7
L 105.3 65.35
Q 105.9 64.4 106.15 64.15 106.35 63.9 106.9 63.5
M 100.45 35.1
Q 96.25 33.65 92.7 33.1 91.5 32.95 89.8 32.85 87.45 32.25 85.9 32.1 82.2 31.8 76.45 32.9 64.15 35.3 55.55 39.9 51.45 42.15 47.3 45.35 42.1 49.3 37.25 54.15 33.6 57.8 31.8 60.9 30.05 63.9 28 70.8 27.9 71.15 27.95 71.45 28 71.8 28.3 71.85 28.6 71.9 28.95 71.3 29.05 71.05 29.2 70.8 29.2 70.85 29.3 70.85 29.75 70.9 30.15 70.3 32.45 66.65 33.65 64.8 35.7 61.6 37.55 59.7 39.75 57.3 43.75 54.65 55.85 46.55 70.05 42.45 80.2 39.5 90.55 38.95 91.95 38.85 93.4 38.8 93.85 38.8 94.3 38.8 96.55 38.75 98.8 38.8 98.45 38.7 98.1 38.6 98.25 38.6 98.35 38.6 101.35 38.6 102.8 38.45 104.3 38.25 105.2 38.2 106.25 38.55 107.15 38.85 107.65 39.05 107.9 39 108.1 38.95 108.25 38.8 108.35 38.6 108.3 38.4 108.15 38.2 107.9 38.1 107.45 37.9 107.05 37.75 106.7 37.6 106.4 37.45 102.65 35.9 100.45 35.1
M 97.7 36.1
Q 98.7 36.35 99.7 36.6 94.2 36.7 91.3 36.85 89.15 36.95 87.85 37.05 85.6 36.95 83.35 37.05 75.45 37.35 68.15 40.1 65.15 41.25 56.2 45.65 49 49.2 48.35 49.55 43.95 51.95 41.05 54.35 37.75 57.1 34.55 61.4 33 63.5 30.8 66.95 31.05 66.4 31.25 65.95 32.6 62.9 33.95 60.85 37.15 55.85 44.45 50.1 53.55 43.1 61.45 40 65.2 38.6 71.15 37.2 77.5 35.7 83.05 35.15 84.65 35.1 86.7 35.05 92.25 35.05 94.5 35.4
L 97.7 36.1
M 140.95 45.55
Q 131.95 36.75 125.75 31.95 118.55 26.45 107.7 20.45 100.5 16.55 95.65 14.95 91.9 13.75 89.15 13.9 86.55 14 83.65 15.25 81.6 16.1 78.45 17.95 70.1 22.7 62.65 27.45 62.05 27.05 61.1 26.85 59.3 26.4 55.7 25.8 54.1 25.45 53.15 25.4 47.5 23.4 41.75 22.05 37.75 21.2 35.55 21.45 31.95 21.85 28.4 24.8 26.1 26.75 22.65 31.05
L 6.8 50.8
Q 1.15 57.95 -0.9 61.55 -3.45 65.75 -3.65 69.1 -3.85 71.9 -2.5 76 -0.2 83.3 4.85 90.85 6.5 93.3 8.1 95.25 3.4 97.25 -3.55 97.9 -5.8 98.05 -6.7 98.85 -7.85 99.9 -7.6 102.65 -7.6 102.95 -7.5 103.4 -6.9 107.2 -5.65 110.5 -3.75 115.35 -0.05 119.55 3.5 123.55 8.05 126.3 11.45 128.35 14.9 129.4 17.5 130.2 19.5 130.2 20.05 130.2 20.6 130.2 21.7 130.05 23.05 129.55 23.3 129.5 23.4 129.35 23.55 129.05 22.7 128.65 22.45 128.55 21.5 127.6 20.7 126.7 19.25 126.2 18.8 126 16.7 125.4 9.6 123.25 5.05 118.7 1.6 115.25 -0.2 110.7 -1.45 107.6 -1.9 103.75 -2 103.35 -1.9 103.15 -1.8 102.85 -1.15 102.65 -1.1 102.65 5 100.85 8.7 99.75 10.9 98.45 11 98.45 11.1 98.4 11.15 98.55 11.35 98.7 11.6 98.2 11.85 97.95 11.95 97.85 12.05 97.65 12.4 97.3 12.6 96.95 12.65 96.8 12.7 96.7 13.05 96.1 13.4 95.65 12.65 93.95 11.6 92.1 8.2 86.6 6.7 83.8 4.35 79.4 2.95 75.2 1.8 72 1.95 69.95 2.05 67.55 4.3 64.15 5.95 61.55 9.45 57.35
L 23.2 40.25
Q 28.6 33.65 31.3 31.05 33.75 28.55 35.9 27.95 37.5 27.5 39.6 27.85 40.5 27.95 43.4 28.65 47.7 29.7 56.25 30.95
L 60.55 31.8
Q 61.2 31.95 61.65 31.95 62.35 32 63.7 31.5 66.9 30.15 72.65 26.7 78.65 22.95 81.6 21.65 85.05 20.15 87.95 19.95 91.4 19.8 96.8 21.95 100.45 23.5 105.65 26.3 110.85 29.25 114.7 31.65 125.95 38.75 135.5 48.5 137 50 138.25 51.05 138.35 51.15 138.6 51.4
L 143.4 56.55
Q 145.45 58.55 145.7 60.35 145.9 61.55 145.15 63.9 141.25 76.8 134.1 88.35 132.8 90.3 132.3 91.4 131.35 93.2 131.25 94.75 131.25 95 131.25 95.3 131.05 95.5 130.9 95.7 130.1 96.85 130.95 98.3 131.4 99.2 132.75 100.15 135.4 101.95 141.5 104.35 140.15 109.45 136.7 113.85 133.3 118.2 128.75 120.65 127.05 121.45 126.25 121.95 124.7 122.65 123.8 123.3 122.8 124.05 122.3 124.4 121.4 125.05 120.65 125.15 119.8 125.25 119.6 125.55 119.5 125.8 119.6 126.1 119.8 126.35 120.1 126.4 120.5 126.5 121.35 126.3 121.95 126.25 122.8 126.4 123.25 126.55 124.25 126.7 126.1 126.85 128.85 125.9 135.45 123.45 140.4 117.95 145.15 112.5 147.05 105.3 147.7 102.8 147.15 101.35 146.65 100.2 145.4 99.45 144.55 98.95 142.75 98.25 139.2 97 136.2 95.55 137.05 94.55 138.25 92.65 142.85 84.85 145.75 78.9 149.35 71.05 151.15 63.95 151.65 62 151.8 60.45 151.9 59.05 151.75 58 151.25 55.6 148.6 52.45 146.3 49.85 144.75 48.4 142.95 46.75 141.25 45.7 141.05 45.65 140.95 45.55
M 63.65 -5.95
L 59.05 -5.95
Q 57.8 -5.3 56.35 -4.05
L 50.25 1.25
Q 45.4 5.4 43.2 8 41.5 10 41.5 11.65 41.5 11.9 41.55 12.15 41.75 13.85 44.05 16 50.25 21.7 56.2 22.85 58.45 23.25 58.75 23.4 60.2 23.9 60.4 24 60.5 24 60.7 24 61.5 24 62.35 23.45 63.15 22.8 63.35 21.7 63.55 20.4 62.75 18.35 61.8 15.8 61.8 14.85 66.55 14.45 70.95 14.7 72.25 14.6 72.7 14.6 73.65 14.45 74.3 14.1 75.05 13.55 75.4 12.7 75.65 12 75.65 11.25 75.65 11.05 75.65 10.85 75.5 9.5 74.4 7.45 71.4 2 66.45 -3.55 65 -5.2 63.65 -5.95
M 61.1 0.05
L 61.55 0.05
Q 61.7166015625 0.1166015625 61.85 0.25 62.25 0.55 63.2 1.7 66.6 5.9 69.4 9.75
L 59.7 9.8
Q 56.7 9.75 55.75 10.8 55.05 11.6 54.95 13.05 55 14 55.45 15.5
L 55.95 17.5
Q 51.25 15.35 47.55 11.9 48.45 10.5 51.25 8.2
L 60.65 0.3
Q 60.887109375 0.1220703125 61.1 0.05 Z"/>
</g>
</defs>

<g transform="matrix( 1, 0, 0, 1, 0,0) ">
<use xlink:href="#Layer0_0_FILL"/>
</g>
</svg>
