
<svg xmlns="http://www.w3.org/2000/svg" version="1.1" xmlns:xlink="http://www.w3.org/1999/xlink" preserveAspectRatio="none" x="0px" y="0px" width="300px" height="300px" viewBox="0 0 300 300">
<defs>
<g id="sadie_0_Layer0_0_FILL">
<path fill="#3300CC" stroke="none" d="
M 177.5 210.65
L 206 217.7 250.25 217.7 210.4 166.4 177.5 210.65
M 190.15 228.65
L 162.6 233.05 206 232.15 190.15 228.65
M 152.45 16.05
L 127.6 25.7 151.2 57.25 152.45 16.05
M 125.35 184.4
L 85 178.7 78.8 195.25 82.4 219.05 65.3 230.65 59.15 246.9
Q 106.95 245.05 154.7 238.25
L 141.4 216.2 125.35 184.4
M 205.55 91.2
L 179.8 56.85 151.95 69 112.2 29.65 0 100.25 28.45 157.85 35.05 171.2
Q 38.1 165.85 47.6 157.25 90.5 136.25 116.4 114.35
L 115.65 108.4 123.15 108.4
Q 124.95 106.7 126.65 104.95 133.9 97.75 139.35 90.5 140.9 99.4 142.85 108.4
L 158.55 108.4 180.55 108.4 156.35 126.85 154.2 145.3 152.55 145.2
Q 155.55 154.85 158.95 164.55
L 163.8 176.5 195.9 176.5 181.9 160.05 205.55 91.2
M 18.35 96.3
L 65.25 68.65 39.45 88.4 68.75 76.55 36.8 103.75 41.6 96.3 18.35 96.3
M 176.65 40.2
L 162.4 31.75 156.4 59 176.65 40.2 Z"/>

<path fill="#6633FF" stroke="none" d="
M 206 232.15
L 206 217.7 177.5 210.65 190.15 228.65 206 232.15 Z"/>

<path fill="#99FFCC" stroke="none" d="
M 152.45 16.05
L 152.95 0 120.05 15.6 127.6 25.7 152.45 16.05
M 170.95 223.9
L 125.35 184.4 141.4 216.2 170.95 223.9
M 126.65 104.95
Q 124.95 106.7 123.15 108.4
L 127.45 108.4 142.85 108.4
Q 140.9 99.4 139.35 90.5 133.9 97.75 126.65 104.95
M 78.8 195.25
L 75.4 173.25 74.35 166.45 90.35 171.9 102.55 176.1 136.95 169.1 158.95 164.55
Q 155.55 154.85 152.55 145.2
L 135.2 143.45 119.65 141.95 116.4 114.35
Q 90.5 136.25 47.6 157.25
L 71.65 165.5 68 173.85 50.7 213.9 64.5 231.15 65.3 230.65 82.4 219.05 78.8 195.25
M 94.6 162.25
L 103.1 159.9 110.2 174.5 94.6 173.35 94.6 162.25
M 65.25 68.65
L 18.35 96.3 41.6 96.3 36.8 103.75 68.75 76.55 39.45 88.4 65.25 68.65
M 165.65 16.9
L 162.4 31.75 176.65 40.2 188.45 29.2 165.65 16.9 Z"/>

<path fill="#000066" stroke="none" d="
M 158.95 164.55
L 136.95 169.1 163.8 176.5 158.95 164.55
M 158.55 108.4
L 156.35 126.85 180.55 108.4 158.55 108.4
M 74.35 166.45
L 75.4 173.25 90.35 171.9 74.35 166.45
M 7.4 165.6
L 38.1 176.5 68 173.85 71.65 165.5 47.6 157.25
Q 38.1 165.85 35.05 171.2
L 28.45 157.85 7.4 165.6 Z"/>

<path fill="#FFFFCC" stroke="none" d="
M 127.45 108.4
L 123.15 108.4 115.65 108.4 116.4 114.35 119.65 141.95 135.2 143.45 127.45 108.4 Z"/>

<path fill="#CC0099" stroke="none" d="
M 158.55 108.4
L 142.85 108.4 127.45 108.4 135.2 143.45 152.55 145.2 154.2 145.3 156.35 126.85 158.55 108.4
M 103.1 159.9
L 94.6 162.25 94.6 173.35 110.2 174.5 103.1 159.9 Z"/>
</g>
</defs>

<g transform="matrix( 1, 0, 0, 1, 35.6,18.85) ">
<g transform="matrix( 1, 0, 0, 1, 0,0) ">
<use xlink:href="#sadie_0_Layer0_0_FILL"/>
</g>
</g>
</svg>
