
<svg xmlns="http://www.w3.org/2000/svg" version="1.1" xmlns:xlink="http://www.w3.org/1999/xlink" preserveAspectRatio="none" x="0px" y="0px" width="150px" height="150px" viewBox="0 0 150 150">
<defs>
<g id="Layer0_0_FILL">
<path fill="#FFFFFF" stroke="none" d="
M 95.8 120.55
L 94.95 120.85 98.75 150.85 125.5 165.75 126.15 165.05 95.8 120.55
M 117.7 157.95
L 101.55 149 99.25 130.95 117.7 157.95
M 58.15 124.2
L 37.9 158.7 95.1 168.3 90.7 119.8 58.15 124.2
M 42.7 156.45
L 60 127 88 123.2 91.75 164.7 42.7 156.45
M 41.7 144.15
L 53.35 124.25 0.4 134.6 0.4 135.9 41.7 144.15
M 40.2 140.8
L 12.65 135.3 47.4 128.5 40.2 140.8
M 27.55 0.45
L 27.45 0.4 22.95 -8.65 9.2 15.5 16.45 18.2 16.5 18.2 16.6 18.25 16.65 18.25 40.9 27.3 27.55 0.45
M 26.05 4.3
L 34.8 21.85 19.2 16.05 26.05 4.3
M 147.85 59.6
L 148.2 58.5 68.7 9.55 41.2 31.2 24.1 28.1 -0.75 74.55 -0.5 75.2
Q 4.55 87.65 21.25 102.25
L 4.2 112.4 40.7 117.9 66.1 116.4
Q 66.185546875 116.39375 66.25 116.35
L 70.1 116.9
Q 70.2 116.95 70.35 116.95
L 75.35 117.65 80.75 116.55 80.8 116.55 87.15 115.25 119.45 113.05
Q 119.387109375 113.2015625 119.35 113.35
L 153.9 103.15 133.95 95.9
Q 140.0201171875 84.04296875 145.35 67.6 146.6298828125 63.72734375 147.85 59.6
M 62.25 71.05
L 62.25 71.15 63.8 89.9 56.8 90.65 58.75 62 61.5 61.8 62.25 71.05
M 51.5 94.2
L 55.35 93.8 55.4 93.8 67.05 92.6 65.6 75.15
Q 82.9 93.15 108.95 107.7
L 86.45 112.25 86.2 112.3
Q 85.8888671875 112.3251953125 85.6 112.45
L 82 113.2 82 106.8 71.5 106.8 69.45 113.8 46.1 110.7 51.5 94.2
M 73.75 109.8
L 79 109.8 79 113.85 75.3 114.6 72.5 114.2 73.75 109.8
M 23.65 104.3
Q 26.25 106.45 29.1 108.7 30 109.4 31 110.15 33.6 112.15 36.5 114.25
L 12.95 110.7 23.65 104.3
M 131.65 100.2
L 131.7 100.15
Q 131.85 99.95 131.9 99.75 132.25 99.1 132.6 98.5
L 143.9 102.55 124.65 108.25
Q 129.1 103.4 131.25 100.7 131.45 100.45 131.65 100.2
M 142.2 67.6
Q 136.1787109375 85.8771484375 129.3 98.35 122.9 106.35 119.3 109.75 117.8 109.1 114 107.05
L 113.95 107.05
Q 83.95 90.9 65.2 70.35
L 64.25 58.6 57.45 59.05
Q 57.35 59.05 57.25 59.05
L 57.2 59.05 56.1 59.15 56.1 59.1 34.6 60.4 34.5 60.4 18.65 61.35 35.55 74.35 39.6 95.35 48.2 94.5 42.7 111.4 42.7 111.45 41.7 114.3
Q 32.2 107.6 24.85 101.35
L 24.8 101.3 24.7 101.25 24.65 101.2
Q 7.85 86.85 2.6 74.65
L 25.7 31.45 41.5 34.35 68.9 13.2 144.65 59.8
Q 143.4427734375 63.8240234375 142.2 67.6
M 91.55 34.1
L 106.05 45.55 92.55 45.55 126 61.6 114.25 52.6 123.1 52.6 91.55 34.1
M 34.1 -5.65
L 34.15 -5.6 42.9 25.3 43.4 25.3 50.45 1.6 50.5 1.55 50.5 1.5 53.2 -7.6 30.3 -19.15 34.05 -5.8 34.05 -5.75
Q 34.05 -5.7 34.1 -5.65
M 47.25 1.9
L 43.2 15.45 37.95 -3.15 47.25 1.9 Z"/>
</g>
</defs>

<g transform="matrix( 1, 0, 0, 1, 0,0) ">
<use xlink:href="#Layer0_0_FILL"/>
</g>
</svg>
