
<svg xmlns="http://www.w3.org/2000/svg" version="1.1" xmlns:xlink="http://www.w3.org/1999/xlink" preserveAspectRatio="none" x="0px" y="0px" width="292px" height="292px" viewBox="0 0 292 292">
<defs>
<g id="Layer1_0_FILL">
<path fill="#3300CC" stroke="none" d="
M 292 46
L 246 0 46 0 0 46 0 246 46 292 246 292 292 246 292 46 Z"/>
</g>

<g id="Layer0_0_FILL">
<path fill="#000066" stroke="none" d="
M 259.85 169.35
L 211.1 87.4 156.35 109 115.8 66.3 37.05 120 131.65 220 259.85 169.35
M 205.45 100.95
L 244.35 164.25 135.3 203.75 54.7 121.6 114.2 81.7 153.25 122.95 205.45 100.95 Z"/>

<path fill="#99FFCC" stroke="none" d="
M 244.35 164.25
L 205.45 100.95 153.25 122.95 114.2 81.7 54.7 121.6 135.3 203.75 244.35 164.25
M 202.8 115.95
L 221.8 145.75 198.1 160.9 193.3 153.4 186.2 134.9 202.15 130.8 205.9 147.8
Q 197.95 147.55 192.55 143.6
L 202.1 144.4
Q 200.2 137.65 199.85 135.05
L 189.25 137.55
Q 193.5 147.5 195.45 152.8
L 213.75 148.3 208.15 125.6 183.2 131.75 190.7 162.7 173 134.95 202.8 115.95 Z"/>

<path fill="#CC0099" stroke="none" d="
M 221.8 145.75
L 202.8 115.95 173 134.95 190.7 162.7 183.2 131.75 208.15 125.6 213.75 148.3 195.45 152.8
Q 193.5 147.5 189.25 137.55
L 199.85 135.05
Q 200.2 137.65 202.1 144.4
L 192.55 143.6
Q 197.95 147.55 205.9 147.8
L 202.15 130.8 186.2 134.9 193.3 153.4 198.1 160.9 221.8 145.75 Z"/>
</g>
</defs>

<g transform="matrix( 1, 0, 0, 1, 0,0) ">
<use xlink:href="#Layer1_0_FILL"/>
</g>

<g transform="matrix( 1, 0, 0, 1, 0,0) ">
<use xlink:href="#Layer0_0_FILL"/>
</g>
</svg>
