
<svg xmlns="http://www.w3.org/2000/svg" version="1.1" xmlns:xlink="http://www.w3.org/1999/xlink" preserveAspectRatio="none" x="0px" y="0px" width="300px" height="300px" viewBox="0 0 300 300">
<defs>
<g id="hoppy_0_Layer2_0_FILL">
<path fill="#336666" stroke="none" d="
M 255.45 85.15
Q 253.3 83.7 249.9 82.05 248.15 81.2 246.4 80.4 246.3 79.5 245.95 78.45 245.3 76.5 244.05 73.55 242.5 69.75 241.4 67.65 239.9 64.9 237.55 61.9 235.25 59.1 232.2 56 225.5 49.7 222.15 46.05 225.35 39.1 224.2 30.5 223.05 22.7 218.6 15.35 214.7 8.75 209.65 5.2 201.9 -0.2 189.45 0 173.45 0.45 158.05 9.4 150.55 13.75 146.6 18.6 141.3 25.15 141.65 32.2
L 141.65 32.25
Q 132.4 32.75 121.8 35.05 113.15 36.9 100.95 40.7 88.9 44.4 82.6 47.6 81.75 48.05 81 48.5 80.85 48.3 80.6 48.05 78.4 45.65 75.1 42.9 65.35 34.75 56.95 32.5 52 31.15 45.6 31.3 32.45 31.7 21.8 37.95 16.4 41.2 12.2 45.85 7.85 50.6 5.35 56.2 3.1 61.4 1.2 71.45 -0.3 78.85 0.1 83.25 0.6 90.75 5.7 97.9 9.65 103.6 15.25 107.4 20.4 110.85 26.1 112 22.6 117.95 20.5 124.85 18 133.15 17.85 141.95 17.6 158.95 25.85 175.45 30.75 185.3 37.35 191.35 40.15 193.9 44.55 196.85 46.45 198.15 47.8 198.6 47.8 198.7 47.8 198.8 47.75 199.5 47.75 200.9 47.75 204.4 46.7 208.7 45.85 212.25 43.7 219.25 41.95 225.5 41.9 229.95 41.85 234.75 43.45 239.25 45.1 244.15 48.5 247.4 52.2 251.05 57 251.65 59.8 252.05 62.6 251.1 65.4 250.2 67.5 248.3 67.85 247.95 68.2 247.6 70.3 246.8 71.75 243.8 72.25 242.7 72.6 241.75 88.4 259.2 106.85 266.25 114 268.95 120.1 269.45 125.2 269.85 130.85 268.95 131.75 269.75 133.9 269.75 141.05 270.05 145.6 269.95 152.05 269.8 157.25 269 161.4 268.4 170.9 266 185.4 262.3 192.6 259.75 204.4 255.55 212.55 249.75 215.65 247.55 216.45 245.5 217.05 243.95 216.8 241.85 216.6 240.55 215.85 238.25
L 215.25 236.45
Q 218.35 236.6 221.4 235.85 226.2 234.65 230.2 231.5 234.2 228.35 236.55 223.95 237.8 221.55 239.1 217.25 241 210.65 240.6 206.3 240.1 201.05 236.6 196.25 233.35 191.85 228.35 188.9 225.2 187 222.35 186.3 220.85 185.95 219.25 185.9 224.75 181.35 229.3 175.6 232.6 171.6 237.85 163.3 242.65 155.65 245.1 150.9 246.6 148.05 247.75 145.35 249.45 141.35 250.4 137.65 251.35 134 251.95 129.25 252.3 126.45 252.8 120.7 252.95 118.75 252.85 117.4 253.7 116.75 254.5 116.15 257.3 114.05 259.25 111.45 260.3 110.1 261.05 108.55 263.5 103.95 263.25 98.7 263.05 93.3 260.05 89.35 259.65 88.85 259.25 88.4 257.7 86.65 255.45 85.15
M 96.95 163.6
Q 97.25 163.5 98.3 163.05 99.05 162.75 99.55 162.65 98.55 163.4 96.85 163.8 94.9 164.2 93.9 164.45 94.4 164.1 95.35 163.9 95.9 163.8 96.95 163.6 Z"/>
</g>

<g id="hoppy_0_Layer1_0_FILL">
<path fill="#336666" stroke="none" d="
M 263.25 98.7
Q 263.05 93.3 260.05 89.35 259.65 88.85 259.25 88.4 257.7 86.65 255.45 85.15 253.3 83.7 249.9 82.05 248.15 81.2 246.4 80.4 246.3 79.5 245.95 78.45 245.3 76.5 244.05 73.55 242.5 69.75 241.4 67.65 239.9 64.9 237.55 61.9 235.25 59.1 232.2 56 225.5 49.7 222.15 46.05 225.35 39.1 224.2 30.5 223.05 22.7 218.6 15.35 214.7 8.75 209.65 5.2 201.9 -0.2 189.45 0 173.45 0.45 158.05 9.4 150.55 13.75 146.6 18.6 141.3 25.15 141.65 32.2
L 141.65 32.25
Q 132.4 32.75 121.8 35.05 113.15 36.9 100.95 40.7 88.9 44.4 82.6 47.6 81.75 48.05 81 48.5 80.85 48.3 80.6 48.05 78.4 45.65 75.1 42.9 65.35 34.75 56.95 32.5 52 31.15 45.6 31.3 32.45 31.7 21.8 37.95 16.4 41.2 12.2 45.85 7.85 50.6 5.35 56.2 3.1 61.4 1.2 71.45 -0.3 78.85 0.1 83.25 0.6 90.75 5.7 97.9 9.65 103.6 15.25 107.4 20.4 110.85 26.1 112 22.6 117.95 20.5 124.85 18 133.15 17.85 141.95 17.6 158.95 25.85 175.45 30.75 185.3 37.35 191.35 40.15 193.9 44.55 196.85 46.45 198.15 47.8 198.6 47.8 198.7 47.8 198.8 47.75 199.5 47.75 200.9 47.75 204.4 46.7 208.7 45.85 212.25 43.7 219.25 41.95 225.5 41.9 229.95 41.85 234.75 43.45 239.25 45.1 244.15 48.5 247.4 52.2 251.05 57 251.65 59.8 252.05 62.6 251.1 65.4 250.2 67.5 248.3 67.85 247.95 68.2 247.6 70.3 246.8 71.75 243.8 72.25 242.7 72.6 241.75 88.4 259.2 106.85 266.25 114 268.95 120.1 269.45 125.2 269.85 130.85 268.95 131.75 269.75 133.9 269.75 141.05 270.05 145.6 269.95 152.05 269.8 157.25 269 161.4 268.4 170.9 266 185.4 262.3 192.6 259.75 204.4 255.55 212.55 249.75 215.65 247.55 216.45 245.5 217.05 243.95 216.8 241.85 216.6 240.55 215.85 238.25
L 215.25 236.45
Q 218.35 236.6 221.4 235.85 226.2 234.65 230.2 231.5 234.2 228.35 236.55 223.95 237.8 221.55 239.1 217.25 241 210.65 240.6 206.3 240.1 201.05 236.6 196.25 233.35 191.85 228.35 188.9 225.2 187 222.35 186.3 220.85 185.95 219.25 185.9 224.75 181.35 229.3 175.6 232.6 171.6 237.85 163.3 242.65 155.65 245.1 150.9 246.6 148.05 247.75 145.35 249.45 141.35 250.4 137.65 251.35 134 251.95 129.25 252.3 126.45 252.8 120.7 252.95 118.75 252.85 117.4 253.7 116.75 254.5 116.15 257.3 114.05 259.25 111.45 260.3 110.1 261.05 108.55 263.5 103.95 263.25 98.7
M 248.55 89.7
Q 253 92.25 254.45 94.9 256.1 97.85 255.1 101.75 254.2 105.2 251.6 108.1 248.15 112.05 243.2 113.95 241.55 114.6 240.6 115.15 232.8 99.4 221.05 96.05 218 95.15 214.65 95.15 214.35 95.2 214.1 95.2 206.35 95.6 197.45 97.2 189.3 98.75 181.9 102.55 177.85 104.6 174.25 107.45 174.25 107.05 174.2 106.75 174 105.45 172.85 105 171.6 104.6 170.4 105.75 170 106.1 168.95 107.95 167.8 110.05 165.3 113.1 162.2 116.75 161.35 118.05 159.15 121.6 157.9 123.25 155.5 126.55 149.55 131.35
L 145 134.95
Q 142.9 136.55 141.75 137.15 141.05 137.5 139.25 138.1 138.75 138.2 138.4 138.4 136.95 135 134.25 132.1 128.3 125.65 119.85 122.95 111.6 120.2 103.05 120.7 94.75 121.1 86.85 123.85 78.4 126.9 71.5 130.4 71.45 130.4 71.4 130.45 72.9 124.8 77.3 118.4 87.5 103.6 103.2 94.65 108.55 91.65 116.7 88.3 140.4 78.7 165.9 74.8 181.9 72.45 193.7 73.4 201.4 74 211.6 76.4 216.55 77.45 221.05 78.75 237.4 83.25 248.55 89.7
M 205.5 11.3
Q 208.75 13.6 211.85 18.55 215.35 24.2 216.5 29.7 217.8 36.15 215.6 41.3 215.45 41.7 215.15 42.25 214.45 42.55 213.9 43.15 213.15 44 213.05 45.05 212.95 46.1 213.7 47.35 213.7 47.65 213.8 47.95 214.15 49.2 215 49.9 215.6 50.35 216.35 50.5 220.5 54.75 226.9 60.9 227.45 61.45 227.95 61.9 231 64.85 232.4 66.75 234.25 69.25 235.95 72.95 236.5 74.05 237.55 76.7 229.5 73.65 221.05 71.65 216.3 70.55 211.45 69.75 191.2 66.4 171.1 69 164.15 69.95 154.4 72.05 140.35 75.1 129.8 78.4 116.8 82.5 106.35 87.8 94.45 93.75 85.1 101.8 75.05 110.4 68.65 120.8 63.1 129.85 62.85 137.35 62.8 138 62.85 138.55 57.6 147 58.55 161 58.85 163.55 59.35 166.1 60 169.5 62.05 172.35 66.15 178.2 72.55 180.9 72.8 181.3 73.15 181.7 80.95 191.1 93 196.8 104.25 202.15 117.35 203.4 129.1 204.6 142.45 202.5 153.7 200.8 167.05 196.65 178.8 193 187.95 188.75 198.7 183.7 206.95 177.3 221.95 165.65 230.4 149.1 231.35 147.35 231.65 145.95 232.05 145.6 232.4 145.35 234.45 143.7 236.35 141.8 242.5 135.5 243.25 126.75 243.5 124.1 242.9 121.55 243.6 121.45 244.45 121.25 244.3 124 244.05 128.75 243.75 135.2 242.85 139.15 242.2 142.15 240.9 145.35 240.3 146.85 239.55 148.45 237.85 152.05 234.8 157.15 227.7 169.05 221.1 176.5 212.55 186.1 202.8 190.75 200.95 191.6 200.45 191.9 199.2 192.65 198.55 193.6 197.8 194.65 197.5 196.25 197.3 197.15 197.2 199.1 197.05 203.4 196.5 206.85 195.65 208.1 195.2 209.45 194.45 211.55 194.35 214.3 193.35 216.4 192.05 218.1 190.6 213.7 187.8 210.05 184.35 205.6 179.25 202.9 174.1 200.15 168.55 199.8 162.95 199.4 157.55 201.45 152.1 203.45 148.15 207.45 145.5 210.2 143.55 213.65 142.35 213.45 141.5 213.65 140.55 213.85 139.85 214.5 139.1 215.15 138.95 216 138.8 216.85 139.2 217.7
L 127.2 222.9
Q 127.1 222.95 127.05 223 127.1 220.7 123.4 218.4 112.55 211.35 106.95 208.05 103.9 206.25 101.6 205.35 97.55 203.8 92.3 203.8 81.4 203.7 72.45 209.1 71.4 209.7 70.85 210.4 70.3 210.8 69.85 211.3 67.4 213.8 66.3 219.35 64.85 227.2 67.1 233 67.3 233.5 67.5 233.9 67.85 235.45 68.95 237.2 68.9 237.2 68.85 237.25 68.45 237.65 68.1 238.5 68 238.75 67.85 239.2 67.05 239.6 64.3 241.45 62.1 242.9 60.4 243.2 58.4 243.5 56.4 242.65 54.55 241.85 53.15 240.2 50.8 237.45 50.25 232.65 49.75 227.8 51.25 220.6 53.7 209 53.75 208.6 54.4 203.45 53.9 198.7 53.65 195.85 52.3 194.9 52.1 194.25 51.45 193.6 50.8 192.85 48.75 191.5 42.45 187.4 37.65 180.85 33.25 174.75 30.35 167.1 25.45 154.05 26.55 140.15 27.65 125.75 35 114.55 36.05 113 36.4 112.3 37 110.95 37.05 109.85 37.05 107.85 35.2 106.55 33.35 105.2 31.5 105.9 31.45 105.9 31.45 105.95 30.5 105.75 29 105.6 25.15 105.25 21.4 103.5 15.8 100.95 11.9 95.95 7.9 90.9 6.95 84.9 6.2 80.8 6.95 75.8 7.45 72.15 9 66.8 11 60.1 12.95 56.5 15.4 52 19.3 48.4 23.15 44.9 27.9 42.6 36.95 38.15 48 38.4 54.3 38.55 58.85 40.35 62.6 41.85 68.45 46.35
L 77.7 53.4
Q 77.95 53.65 78.25 53.85 78.7 55.1 79.85 55.4 80.85 55.65 81.95 54.95 82.2 54.75 83.85 53.4 85.9 51.7 90.4 50.15 105.15 44.95 115.45 42.4 129.3 38.95 141.15 38.6 144.5 38.55 145.95 37.7 147 37.1 147.5 35.9 148 34.65 147.45 33.6 147 32.9 146.05 32.55 146.25 32 146.35 31.75 148.8 24.2 158.4 17.9 165.2 13.4 173.05 10.8 180.85 8.2 189 7.7 199.65 7.1 205.5 11.3
M 226.8 108.75
Q 227.65 109.45 228.65 110.4 235.4 117.6 235.6 127.2 235.65 129.2 234.8 130.9 231.05 138.6 223.45 143 222.3 143.7 221.05 144.35 217.3 146.35 213.4 148.15 205.05 151.9 195.95 152.35 187 152.9 179 149 173.1 146.1 170 141.05 170.2 141.3 170.5 141.5 173.45 144.25 174.05 144.7 176.6 146.5 180.25 147.35 183.9 148.2 187.65 147.9 191.45 147.5 194.7 145.85 198 144.25 201.75 140.75 206.3 136.45 207.9 132.85 209 130.6 209.3 127.8 210 119.7 202.5 110 200.5 107.35 198.8 106.4 197.5 105.65 195.5 105.35 204.05 102.65 212.95 103.15 214.65 103.3 216.35 103.35 218.85 103.45 221.05 104.45 222.7 105.25 224.2 106.6 225.4 107.65 226.8 108.75
M 190.6 181.7
Q 180.3 186.9 165.25 190.95 156.05 193.45 148.2 194.9 149.3 194.05 150.15 192.95 151.05 191.7 151.7 190.4
L 152.3 190.65
Q 153.85 191 156.6 190.9 157.7 190.9 158.3 190.7 159.45 190.1 159.55 188.8 159.65 187.5 158.45 186.75 157.85 186.45 156.95 186.45 155.9 186.5 155.3 186.5 154.9 186.5 152.9 186.35 152.65 186.35 152.5 186.35 152.45 184.2 151.45 182.1 150.15 179.3 147.6 177.95 146.55 177.4 145.5 177.45 144.35 177.5 143.8 178.35 143.45 179 143.65 179.8 143.85 180.55 144.4 181.15 144.7 181.55 145.5 182.25 146.25 182.9 146.6 183.35 147.95 185.25 147.15 187.55 146.4 189.7 144.3 190.75 143.7 191.1 142.4 191.65 141.3 192.25 140.85 192.95 140.25 193.8 140.5 194.9 140.65 195.55 141 195.95 129.8 197.3 120 196.4 108.05 195.25 97.8 190.75 90.95 187.75 85.55 183.5 86.9 183.55 88.3 183.55 96.9 183.6 105.15 181.8 113.1 180.2 120.4 176.2 128.8 171.65 134.4 164 139.5 156.95 140 148.05 140.05 146.8 140.05 145.6 140.95 145.35 142 144.85 146 143.05 149.45 140.15 151 138.85 153.85 135.9
L 157.95 131.7
Q 159.35 130.3 160.35 129.15 158.85 137.5 163.55 144.7 168.4 152.15 176.4 155.75 185.05 159.55 194.65 159.3 202.9 159.15 210.6 156.55 215.05 155.15 219.25 153.2 215.7 160.35 211.55 165.45 203.7 175.05 190.6 181.7
M 212.25 192.8
Q 215.3 192.4 216.9 192.35 219.5 192.3 221.5 192.95 224.4 193.95 228.05 197.55 230.5 200 231.35 201.65 233.3 205.4 232.55 211 231.6 217.55 227.95 222.05 223.65 227.3 217.65 228.05 214.95 228.45 212.35 227.7 211.25 225.35 209.75 225 208.7 224.7 207.7 225.25 207.65 225.3 207.55 225.35 204.45 223 203.2 219.55 202.9 218.75 201.95 214.05 201.9 213.85 201.9 213.75 202.1 212.65 202.35 211.55 203.65 205.2 203.45 195.75 206.5 194.4 209.35 192.75 210.4 193.1 212.25 192.8
M 68.85 168.85
Q 66.65 164.9 66.05 160.65 66.85 163.4 68.5 165.7 71.65 170.15 77.4 172.2 82.1 173.95 88.45 173.8 97.15 173.55 103.75 169.8 107.35 167.75 109.95 164.8 112.7 161.7 114 158 115.3 154.5 115.4 149.9 115.55 142.65 112.7 137.3 111.15 134.3 108.75 132.1 106.2 129.8 103.2 128.8 102.65 128.6 102.1 128.45 106.25 128.15 110.45 128.35 112.2 128.5 113.95 128.7 123.25 130.5 129.55 137.8 131.2 139.7 131.9 142.15 134.25 151.25 128.75 159.5 123.8 166.85 115.8 170.85 107.65 175 98.6 175.95 92.95 176.5 87.25 176.5 78.55 176.5 71.4 171.7 69.85 170.65 68.85 168.85
M 96.95 163.6
Q 97.25 163.5 98.3 163.05 99.05 162.75 99.55 162.65 98.55 163.4 96.85 163.8 94.9 164.2 93.9 164.45 94.4 164.1 95.35 163.9 95.9 163.8 96.95 163.6
M 143.95 220.75
Q 144.75 221.05 145.15 221.2 146.2 221.65 148.2 222.95 154.85 227.55 160.5 233.2 163.35 236.05 164.65 238.35 164.8 238.6 166 241 166.15 241.3 166.35 241.6 167.4 242.15 168.3 243.1 168.4 243.2 168.5 243.3 168.2 243.65 167.8 244.1 165.5 246.9 160.6 250.5 149.55 258.3 139.25 261.4 134.5 262.75 130 263.2 129.7 263.15 129.45 263.1 118 260.6 114.7 259.8 107.7 258.05 102.3 255.95 87.05 247.2 75.8 233.75 75.7 233.55 75.65 233.3 74 231.1 73.2 228.8 71.45 223.9 73.7 218.75 75.95 213.55 80.7 211.45 81 211.35 81.3 211.2 81.85 211.1 82.45 211 87.6 210.15 90.4 210.05 94.85 209.85 98.25 210.9 99.2 211.2 100.4 211.7 100.6 211.95 100.85 212.15 101.25 212.4 103.85 214.15 104.55 214.65 105.85 215.65
L 107.8 217.2
Q 109.3 218.5 109.8 218.8 110.35 219.2 111.65 219.9 112.95 220.5 113.5 220.95 114.2 221.4 115.5 222.5 116.65 223.4 117.65 223.6 118.75 223.75 119.6 223.4 120.2 223.8 120.75 224.25 121.65 225 122.45 225.35 120.5 226.7 119.4 228.25 118.6 229.45 118.65 230.3 118.7 230.95 119.05 231.4 119.45 231.9 120 231.9 120.65 231.95 121.3 231.4 121.35 231.35 122.3 230.25 123.3 229.1 126.25 227.75 132.15 225.2 141.2 221.9 142.85 221.25 143.95 220.75
M 158.15 222.15
Q 155.45 219.8 153.15 218.1 151.05 216.6 149 215.55 152.55 211.35 157.7 209.1 163.35 206.7 169.05 207.5 174.85 208.3 179.4 212.35 184.05 216.5 185.2 222.1 185.85 225.35 185.35 229.15 184.9 232.5 183.55 234.5 181.4 237.85 175.35 239.75 175.3 239.75 175.25 239.8 174.65 239.45 173.95 239.45 173.4 239.45 172.85 239.6 172.55 238.65 172 237.6 169.9 233.5 165.85 229.25 163.35 226.65 158.15 222.15
M 144.3 265.15
Q 144 265.15 143.65 265.15 144.6 264.8 145.6 264.35 150.05 262.45 157.45 258.65 165.9 254.3 169.2 252.8 173.45 250.8 174.9 249.6 176.15 248.55 176.9 247.4 177.3 247.25 177.85 247.05 181.15 245.9 183.05 245 185.8 243.65 187.65 241.95 191.8 238.05 193 231.2 193.3 229.45 193.4 227.75 194.6 226.95 196 225.45 196.3 225.05 196.7 224.65 198.85 228.95 202.6 231.85 203.95 232.9 205.5 233.7 205.7 234.75 206.1 235.9 206.65 237.5 207.85 240.75 208.35 242.2 208.15 243 207.9 243.9 206.6 244.95 198.95 251 187.95 255.4 180.05 258.5 167.3 261.85 158.75 264.1 154.25 264.65 150.2 265.1 144.3 265.15
M 27.4 64.3
Q 25.3 66.6 24.35 68.65 23.05 71.5 23.25 76.2 23.35 78.9 23.9 80.7 25.6 85.7 31.95 88.85 36.1 90.9 39.65 90.9 42.3 90.9 45.4 89.85 48.4 88.9 50.75 87.7 54.5 85.55 57.25 82.1 59.15 79.6 60.1 76.9 61.25 73.9 61.4 69.95 61.55 65.8 60.25 63 58.5 59.25 54.5 57.35 51.1 55.7 46.45 55.6 39.6 55.6 33.7 59.1 30.25 61.15 27.4 64.3
M 97.65 61.4
Q 96.65 60.8 95.6 61 94.5 61.2 93.7 62.1 92.9 63 92.85 64.05 92.75 65.65 94.05 66.7 94.85 67.35 96 67.4 97.15 67.45 98.05 66.8 98.9 66.15 99.2 65.05 99.5 63.95 99.1 62.95 98.65 61.95 97.65 61.4
M 139.25 47.8
Q 138.05 47.6 136.95 48.1 135.8 48.55 135.15 49.5 134.5 50.45 134.4 51.7 134.3 52.95 134.85 54 136 55.95 138.3 56.1 140.45 56.25 141.8 54.55 143.15 52.85 142.55 50.8 142.2 49.65 141.3 48.85 140.4 48.05 139.25 47.8
M 206.1 31.75
Q 205.5 28.75 203.7 26.35 200.3 21.75 193.95 20.1 188.95 18.75 182.2 19.6 178.75 20 176.1 21.1 173.25 22.2 171.05 24.4 168.8 26.55 167.65 29.35 166.55 32.15 166.75 35.25 167 38.45 168.65 40.95 170.55 43.85 174.65 46.1 182.25 50.3 190.2 49.25 194.2 48.75 197.8 46.75 201.4 44.65 203.75 41.5 205.25 39.45 205.9 37.55 206.75 34.75 206.1 31.75 Z"/>

<path fill="#669966" stroke="none" d="
M 143.65 265.15
Q 144 265.15 144.3 265.15 150.2 265.1 154.25 264.65 158.75 264.1 167.3 261.85 180.05 258.5 187.95 255.4 198.95 251 206.6 244.95 207.9 243.9 208.15 243 208.35 242.2 207.85 240.75 206.65 237.5 206.1 235.9 205.7 234.75 205.5 233.7 203.95 232.9 202.6 231.85 198.85 228.95 196.7 224.65 196.3 225.05 196 225.45 194.6 226.95 193.4 227.75 193.3 229.45 193 231.2 191.8 238.05 187.65 241.95 185.8 243.65 183.05 245 181.15 245.9 177.85 247.05 177.3 247.25 176.9 247.4 176.15 248.55 174.9 249.6 173.45 250.8 169.2 252.8 165.9 254.3 157.45 258.65 150.05 262.45 145.6 264.35 144.6 264.8 143.65 265.15
M 145.15 221.2
Q 144.75 221.05 143.95 220.75 142.85 221.25 141.2 221.9 132.15 225.2 126.25 227.75 123.3 229.1 122.3 230.25 121.35 231.35 121.3 231.4 120.65 231.95 120 231.9 119.45 231.9 119.05 231.4 118.7 230.95 118.65 230.3 118.6 229.45 119.4 228.25 120.5 226.7 122.45 225.35 121.65 225 120.75 224.25 120.2 223.8 119.6 223.4 118.75 223.75 117.65 223.6 116.65 223.4 115.5 222.5 114.2 221.4 113.5 220.95 112.95 220.5 111.65 219.9 110.35 219.2 109.8 218.8 109.3 218.5 107.8 217.2
L 105.85 215.65
Q 104.55 214.65 103.85 214.15 101.25 212.4 100.85 212.15 100.6 211.95 100.4 211.7 99.2 211.2 98.25 210.9 94.85 209.85 90.4 210.05 87.6 210.15 82.45 211 81.85 211.1 81.3 211.2 81 211.35 80.7 211.45 75.95 213.55 73.7 218.75 71.45 223.9 73.2 228.8 74 231.1 75.65 233.3 75.7 233.55 75.8 233.75 87.05 247.2 102.3 255.95 107.7 258.05 114.7 259.8 118 260.6 129.45 263.1 129.7 263.15 130 263.2 134.5 262.75 139.25 261.4 149.55 258.3 160.6 250.5 165.5 246.9 167.8 244.1 168.2 243.65 168.5 243.3 168.4 243.2 168.3 243.1 167.4 242.15 166.35 241.6 166.15 241.3 166 241 164.8 238.6 164.65 238.35 163.35 236.05 160.5 233.2 154.85 227.55 148.2 222.95 146.2 221.65 145.15 221.2 Z"/>

<path fill="#FFE2B8" stroke="none" d="
M 153.15 218.1
Q 155.45 219.8 158.15 222.15 163.35 226.65 165.85 229.25 169.9 233.5 172 237.6 172.55 238.65 172.85 239.6 173.4 239.45 173.95 239.45 174.65 239.45 175.25 239.8 175.3 239.75 175.35 239.75 181.4 237.85 183.55 234.5 184.9 232.5 185.35 229.15 185.85 225.35 185.2 222.1 184.05 216.5 179.4 212.35 174.85 208.3 169.05 207.5 163.35 206.7 157.7 209.1 152.55 211.35 149 215.55 151.05 216.6 153.15 218.1
M 216.9 192.35
Q 215.3 192.4 212.25 192.8 210.4 193.1 209.35 192.75 206.5 194.4 203.45 195.75 203.65 205.2 202.35 211.55 202.1 212.65 201.9 213.75 201.9 213.85 201.95 214.05 202.9 218.75 203.2 219.55 204.45 223 207.55 225.35 207.65 225.3 207.7 225.25 208.7 224.7 209.75 225 211.25 225.35 212.35 227.7 214.95 228.45 217.65 228.05 223.65 227.3 227.95 222.05 231.6 217.55 232.55 211 233.3 205.4 231.35 201.65 230.5 200 228.05 197.55 224.4 193.95 221.5 192.95 219.5 192.3 216.9 192.35
M 165.25 190.95
Q 180.3 186.9 190.6 181.7 203.7 175.05 211.55 165.45 215.7 160.35 219.25 153.2 215.05 155.15 210.6 156.55 202.9 159.15 194.65 159.3 185.05 159.55 176.4 155.75 168.4 152.15 163.55 144.7 158.85 137.5 160.35 129.15 159.35 130.3 157.95 131.7
L 153.85 135.9
Q 151 138.85 149.45 140.15 146 143.05 142 144.85 140.95 145.35 140.05 145.6 140.05 146.8 140 148.05 139.5 156.95 134.4 164 128.8 171.65 120.4 176.2 113.1 180.2 105.15 181.8 96.9 183.6 88.3 183.55 86.9 183.55 85.55 183.5 90.95 187.75 97.8 190.75 108.05 195.25 120 196.4 129.8 197.3 141 195.95 140.65 195.55 140.5 194.9 140.25 193.8 140.85 192.95 141.3 192.25 142.4 191.65 143.7 191.1 144.3 190.75 146.4 189.7 147.15 187.55 147.95 185.25 146.6 183.35 146.25 182.9 145.5 182.25 144.7 181.55 144.4 181.15 143.85 180.55 143.65 179.8 143.45 179 143.8 178.35 144.35 177.5 145.5 177.45 146.55 177.4 147.6 177.95 150.15 179.3 151.45 182.1 152.45 184.2 152.5 186.35 152.65 186.35 152.9 186.35 154.9 186.5 155.3 186.5 155.9 186.5 156.95 186.45 157.85 186.45 158.45 186.75 159.65 187.5 159.55 188.8 159.45 190.1 158.3 190.7 157.7 190.9 156.6 190.9 153.85 191 152.3 190.65
L 151.7 190.4
Q 151.05 191.7 150.15 192.95 149.3 194.05 148.2 194.9 156.05 193.45 165.25 190.95 Z"/>

<path fill="#FFFFCC" stroke="none" d="
M 66.05 160.65
Q 66.65 164.9 68.85 168.85 69.85 170.65 71.4 171.7 78.55 176.5 87.25 176.5 92.95 176.5 98.6 175.95 107.65 175 115.8 170.85 123.8 166.85 128.75 159.5 134.25 151.25 131.9 142.15 131.2 139.7 129.55 137.8 123.25 130.5 113.95 128.7 112.2 128.5 110.45 128.35 106.25 128.15 102.1 128.45 102.65 128.6 103.2 128.8 106.2 129.8 108.75 132.1 111.15 134.3 112.7 137.3 115.55 142.65 115.4 149.9 115.3 154.5 114 158 112.7 161.7 109.95 164.8 107.35 167.75 103.75 169.8 97.15 173.55 88.45 173.8 82.1 173.95 77.4 172.2 71.65 170.15 68.5 165.7 66.85 163.4 66.05 160.65
M 228.65 110.4
Q 227.65 109.45 226.8 108.75 225.4 107.65 224.2 106.6 222.7 105.25 221.05 104.45 218.85 103.45 216.35 103.35 214.65 103.3 212.95 103.15 204.05 102.65 195.5 105.35 197.5 105.65 198.8 106.4 200.5 107.35 202.5 110 210 119.7 209.3 127.8 209 130.6 207.9 132.85 206.3 136.45 201.75 140.75 198 144.25 194.7 145.85 191.45 147.5 187.65 147.9 183.9 148.2 180.25 147.35 176.6 146.5 174.05 144.7 173.45 144.25 170.5 141.5 170.2 141.3 170 141.05 173.1 146.1 179 149 187 152.9 195.95 152.35 205.05 151.9 213.4 148.15 217.3 146.35 221.05 144.35 222.3 143.7 223.45 143 231.05 138.6 234.8 130.9 235.65 129.2 235.6 127.2 235.4 117.6 228.65 110.4 Z"/>

<path fill="#66FF66" stroke="none" d="
M 211.85 18.55
Q 208.75 13.6 205.5 11.3 199.65 7.1 189 7.7 180.85 8.2 173.05 10.8 165.2 13.4 158.4 17.9 148.8 24.2 146.35 31.75 146.25 32 146.05 32.55 147 32.9 147.45 33.6 148 34.65 147.5 35.9 147 37.1 145.95 37.7 144.5 38.55 141.15 38.6 129.3 38.95 115.45 42.4 105.15 44.95 90.4 50.15 85.9 51.7 83.85 53.4 82.2 54.75 81.95 54.95 80.85 55.65 79.85 55.4 78.7 55.1 78.25 53.85 77.95 53.65 77.7 53.4
L 68.45 46.35
Q 62.6 41.85 58.85 40.35 54.3 38.55 48 38.4 36.95 38.15 27.9 42.6 23.15 44.9 19.3 48.4 15.4 52 12.95 56.5 11 60.1 9 66.8 7.45 72.15 6.95 75.8 6.2 80.8 6.95 84.9 7.9 90.9 11.9 95.95 15.8 100.95 21.4 103.5 25.15 105.25 29 105.6 30.5 105.75 31.45 105.95 31.45 105.9 31.5 105.9 33.35 105.2 35.2 106.55 37.05 107.85 37.05 109.85 37 110.95 36.4 112.3 36.05 113 35 114.55 27.65 125.75 26.55 140.15 25.45 154.05 30.35 167.1 33.25 174.75 37.65 180.85 42.45 187.4 48.75 191.5 50.8 192.85 51.45 193.6 52.1 194.25 52.3 194.9 53.65 195.85 53.9 198.7 54.4 203.45 53.75 208.6 53.7 209 51.25 220.6 49.75 227.8 50.25 232.65 50.8 237.45 53.15 240.2 54.55 241.85 56.4 242.65 58.4 243.5 60.4 243.2 62.1 242.9 64.3 241.45 67.05 239.6 67.85 239.2 68 238.75 68.1 238.5 68.45 237.65 68.85 237.25 68.9 237.2 68.95 237.2 67.85 235.45 67.5 233.9 67.3 233.5 67.1 233 64.85 227.2 66.3 219.35 67.4 213.8 69.85 211.3 70.3 210.8 70.85 210.4 71.4 209.7 72.45 209.1 81.4 203.7 92.3 203.8 97.55 203.8 101.6 205.35 103.9 206.25 106.95 208.05 112.55 211.35 123.4 218.4 127.1 220.7 127.05 223 127.1 222.95 127.2 222.9
L 139.2 217.7
Q 138.8 216.85 138.95 216 139.1 215.15 139.85 214.5 140.55 213.85 141.5 213.65 142.35 213.45 143.55 213.65 145.5 210.2 148.15 207.45 152.1 203.45 157.55 201.45 162.95 199.4 168.55 199.8 174.1 200.15 179.25 202.9 184.35 205.6 187.8 210.05 190.6 213.7 192.05 218.1 193.35 216.4 194.35 214.3 194.45 211.55 195.2 209.45 195.65 208.1 196.5 206.85 197.05 203.4 197.2 199.1 197.3 197.15 197.5 196.25 197.8 194.65 198.55 193.6 199.2 192.65 200.45 191.9 200.95 191.6 202.8 190.75 212.55 186.1 221.1 176.5 227.7 169.05 234.8 157.15 237.85 152.05 239.55 148.45 240.3 146.85 240.9 145.35 242.2 142.15 242.85 139.15 243.75 135.2 244.05 128.75 244.3 124 244.45 121.25 243.6 121.45 242.9 121.55 243.5 124.1 243.25 126.75 242.5 135.5 236.35 141.8 234.45 143.7 232.4 145.35 232.05 145.6 231.65 145.95 231.35 147.35 230.4 149.1 221.95 165.65 206.95 177.3 198.7 183.7 187.95 188.75 178.8 193 167.05 196.65 153.7 200.8 142.45 202.5 129.1 204.6 117.35 203.4 104.25 202.15 93 196.8 80.95 191.1 73.15 181.7 72.8 181.3 72.55 180.9 66.15 178.2 62.05 172.35 60 169.5 59.35 166.1 58.85 163.55 58.55 161 57.6 147 62.85 138.55 62.8 138 62.85 137.35 63.1 129.85 68.65 120.8 75.05 110.4 85.1 101.8 94.45 93.75 106.35 87.8 116.8 82.5 129.8 78.4 140.35 75.1 154.4 72.05 164.15 69.95 171.1 69 191.2 66.4 211.45 69.75 216.3 70.55 221.05 71.65 229.5 73.65 237.55 76.7 236.5 74.05 235.95 72.95 234.25 69.25 232.4 66.75 231 64.85 227.95 61.9 227.45 61.45 226.9 60.9 220.5 54.75 216.35 50.5 215.6 50.35 215 49.9 214.15 49.2 213.8 47.95 213.7 47.65 213.7 47.35 212.95 46.1 213.05 45.05 213.15 44 213.9 43.15 214.45 42.55 215.15 42.25 215.45 41.7 215.6 41.3 217.8 36.15 216.5 29.7 215.35 24.2 211.85 18.55
M 203.7 26.35
Q 205.5 28.75 206.1 31.75 206.75 34.75 205.9 37.55 205.25 39.45 203.75 41.5 201.4 44.65 197.8 46.75 194.2 48.75 190.2 49.25 182.25 50.3 174.65 46.1 170.55 43.85 168.65 40.95 167 38.45 166.75 35.25 166.55 32.15 167.65 29.35 168.8 26.55 171.05 24.4 173.25 22.2 176.1 21.1 178.75 20 182.2 19.6 188.95 18.75 193.95 20.1 200.3 21.75 203.7 26.35
M 136.95 48.1
Q 138.05 47.6 139.25 47.8 140.4 48.05 141.3 48.85 142.2 49.65 142.55 50.8 143.15 52.85 141.8 54.55 140.45 56.25 138.3 56.1 136 55.95 134.85 54 134.3 52.95 134.4 51.7 134.5 50.45 135.15 49.5 135.8 48.55 136.95 48.1
M 95.6 61
Q 96.65 60.8 97.65 61.4 98.65 61.95 99.1 62.95 99.5 63.95 99.2 65.05 98.9 66.15 98.05 66.8 97.15 67.45 96 67.4 94.85 67.35 94.05 66.7 92.75 65.65 92.85 64.05 92.9 63 93.7 62.1 94.5 61.2 95.6 61
M 24.35 68.65
Q 25.3 66.6 27.4 64.3 30.25 61.15 33.7 59.1 39.6 55.6 46.45 55.6 51.1 55.7 54.5 57.35 58.5 59.25 60.25 63 61.55 65.8 61.4 69.95 61.25 73.9 60.1 76.9 59.15 79.6 57.25 82.1 54.5 85.55 50.75 87.7 48.4 88.9 45.4 89.85 42.3 90.9 39.65 90.9 36.1 90.9 31.95 88.85 25.6 85.7 23.9 80.7 23.35 78.9 23.25 76.2 23.05 71.5 24.35 68.65 Z"/>

<path fill="#FFCC66" stroke="none" d="
M 254.45 94.9
Q 253 92.25 248.55 89.7 237.4 83.25 221.05 78.75 216.55 77.45 211.6 76.4 201.4 74 193.7 73.4 181.9 72.45 165.9 74.8 140.4 78.7 116.7 88.3 108.55 91.65 103.2 94.65 87.5 103.6 77.3 118.4 72.9 124.8 71.4 130.45 71.45 130.4 71.5 130.4 78.4 126.9 86.85 123.85 94.75 121.1 103.05 120.7 111.6 120.2 119.85 122.95 128.3 125.65 134.25 132.1 136.95 135 138.4 138.4 138.75 138.2 139.25 138.1 141.05 137.5 141.75 137.15 142.9 136.55 145 134.95
L 149.55 131.35
Q 155.5 126.55 157.9 123.25 159.15 121.6 161.35 118.05 162.2 116.75 165.3 113.1 167.8 110.05 168.95 107.95 170 106.1 170.4 105.75 171.6 104.6 172.85 105 174 105.45 174.2 106.75 174.25 107.05 174.25 107.45 177.85 104.6 181.9 102.55 189.3 98.75 197.45 97.2 206.35 95.6 214.1 95.2 214.35 95.2 214.65 95.15 218 95.15 221.05 96.05 232.8 99.4 240.6 115.15 241.55 114.6 243.2 113.95 248.15 112.05 251.6 108.1 254.2 105.2 255.1 101.75 256.1 97.85 254.45 94.9 Z"/>
</g>

<g id="hoppy_0_Layer0_0_FILL">
<path fill="#CC6699" stroke="none" d="
M 204.9 217.85
Q 204.4 217.75 203.85 217.7 199.3 217.1 197.05 217.7 195.4 218.15 193.4 219.55 192.25 220.35 190.05 222.05 188.2 223.35 186.4 224.15 188.2 224 190.85 223.05 197.9 220.7 204.9 217.85 Z"/>

<path fill="#FFCC66" stroke="none" d="
M 226.1 216.95
Q 228.8 215.9 229.7 214.8 230.4 214 230.6 212.85 230.85 211.75 230.45 210.75 230.05 209.8 229.3 209.1 228.5 209.6 227.7 210.45 226.55 211.9 225.95 212.6 222.4 216.8 215.65 217.9 211.65 218.5 204.9 217.85 197.9 220.7 190.85 223.05 188.2 224 186.4 224.15 186.15 224.25 185.9 224.35 185.95 228.05 185.95 231.85 188.25 231.7 191.9 230.55 198.9 228.25 209.1 224.05 214.75 221.7 226.1 216.95
M 231.65 193.5
Q 231.85 192.25 231.55 191.4 214.9 200.65 197.7 208.5 193.35 210.45 190.75 211.2 188 212.05 185.55 212.25 185.7 215.35 185.8 218.45 186.05 218.3 186.3 218.15 187.4 217.45 190.1 215.25 192.5 213.3 194.05 212.5 197.5 210.75 203.55 210.85 205.7 210.85 207.45 210.9
L 223.35 204.5
Q 223.6 204.15 223.75 204 225.5 202.15 227.6 201.15 229.05 200.4 230.35 200.3 230.65 199.6 230.8 198.75 231 196.85 231.15 195.9 231.55 194.3 231.65 193.5 Z"/>

<path fill="#FF9966" stroke="none" d="
M 157.75 218.8
Q 158.65 219.95 160.15 220.75 161.15 221.25 163.05 221.85 165.1 222.55 165.95 222.9 167.45 223.55 169.6 225 172.5 227.05 173.05 227.4 175.45 228.85 179.2 230.3 182.45 231.65 184.55 231.8 185.15 231.85 185.95 231.85 185.95 228.05 185.9 224.35 183.65 225.25 181.4 225.4 179 225.6 176.75 224.85 174.4 224.05 172.8 222.4
L 170.3 219.2
Q 168.8 217.3 167.3 216.75 166.35 216.35 165 216.35 164.5 216.35 162.65 216.45 159.15 216.65 156.8 215.8 156.75 215.9 156.75 216 156.7 217.5 157.75 218.8
M 157.85 204.15
Q 159.05 203.95 160.15 204.3 161.2 204.65 161.9 205.45 162.7 206.35 162.75 207.35 162.75 208.25 162.9 208.65
L 164.65 209.6
Q 164.85 209.65 165.1 209.65 168.05 209.8 170.75 211.3 173.45 212.85 175.15 215.3 180.15 217.9 182.75 218.55 183.85 218.85 184.8 218.95 185.3 218.75 185.8 218.45 185.7 215.35 185.55 212.25 184.45 212.3 183.45 212.25 180.7 212.1 177.45 210.85 175.45 210.1 171.7 208.25 164.75 204.65 158.3 201.25 158 201.65 157.85 202.1 157.5 203.1 157.85 204.15 Z"/>

<path fill="#CCFF99" stroke="none" d="
M 160.15 204.3
Q 159.05 203.95 157.85 204.15 156.95 204.25 156 204.65 154.45 205.35 153.4 206.65 152.3 208 152.15 209.55 152 211.3 153.05 212.9 154.05 214.45 155.7 215.3 156.2 215.55 156.8 215.8 159.15 216.65 162.65 216.45 164.5 216.35 165 216.35 166.35 216.35 167.3 216.75 168.8 217.3 170.3 219.2
L 172.8 222.4
Q 174.4 224.05 176.75 224.85 179 225.6 181.4 225.4 183.65 225.25 185.9 224.35 186.15 224.25 186.4 224.15 188.2 223.35 190.05 222.05 192.25 220.35 193.4 219.55 195.4 218.15 197.05 217.7 199.3 217.1 203.85 217.7 204.4 217.75 204.9 217.85 211.65 218.5 215.65 217.9 222.4 216.8 225.95 212.6 226.55 211.9 227.7 210.45 228.5 209.6 229.3 209.1 229.55 208.9 229.85 208.8 230.25 208.65 231.25 208.4 232.15 208.2 232.65 208 233.7 207.6 234.4 206.6 235.05 205.55 235.1 204.4 235.1 203.25 234.45 202.2 233.8 201.2 232.75 200.7 231.65 200.15 230.35 200.3 229.05 200.4 227.6 201.15 225.5 202.15 223.75 204 223.6 204.15 223.35 204.5
L 207.45 210.9
Q 205.7 210.85 203.55 210.85 197.5 210.75 194.05 212.5 192.5 213.3 190.1 215.25 187.4 217.45 186.3 218.15 186.05 218.3 185.8 218.45 185.3 218.75 184.8 218.95 183.85 218.85 182.75 218.55 180.15 217.9 175.15 215.3 173.45 212.85 170.75 211.3 168.05 209.8 165.1 209.65 164.85 209.65 164.65 209.6 163.3 209.45 162.95 208.85 162.9 208.75 162.9 208.65 162.75 208.25 162.75 207.35 162.7 206.35 161.9 205.45 161.2 204.65 160.15 204.3 Z"/>

<path fill="#FFFFCC" stroke="none" d="
M 207.65 181.15
Q 205.75 181.2 202.7 182.35 178.55 190.95 166.05 196.55 162.15 198.35 160.35 199.45 158.95 200.3 158.3 201.25 164.75 204.65 171.7 208.25 175.45 210.1 177.45 210.85 180.7 212.1 183.45 212.25 184.45 212.3 185.55 212.25 188 212.05 190.75 211.2 193.35 210.45 197.7 208.5 214.9 200.65 231.55 191.4 231.5 191.25 231.45 191.15 231 190.1 229.8 189.35 229 188.9 227.4 188.3 220.55 185.75 214.55 183.1 212.2 182.1 211.2 181.75 209.25 181.1 207.65 181.15 Z"/>
</g>
</defs>

<g transform="matrix( 1, 0, 0, 1, 19.05,10.6) ">
<g transform="matrix( 1, 0, 0, 1, 0,0) ">
<use xlink:href="#hoppy_0_Layer2_0_FILL"/>
</g>

<g transform="matrix( 1, 0, 0, 1, 0,0) ">
<use xlink:href="#hoppy_0_Layer1_0_FILL"/>
</g>

<g transform="matrix( 1, 0, 0, 1, 0,0) ">
<use xlink:href="#hoppy_0_Layer0_0_FILL"/>
</g>
</g>
</svg>
