
<svg xmlns="http://www.w3.org/2000/svg" version="1.1" xmlns:xlink="http://www.w3.org/1999/xlink" preserveAspectRatio="none" x="0px" y="0px" width="150px" height="150px" viewBox="0 0 150 150">
<defs>
<g id="Layer0_0_FILL">
<path fill="#FFFFFF" stroke="none" d="
M 38.4 -9.95
Q 32.55 -7.9 28.55 -3.4 24.4 1.4 23.65 7.3 22.95 12.95 25.75 16.65 26.45 17.6 27.3 18.1 21.65 21.95 16.75 28.3 12.75 33.5 8.45 41.6 5.4 47.35 4.4 51.3 3.65 54.35 3.35 59.8 3.05 65.9 3.55 68.95 4 71.6 5.2 74.9 6 77.3 6.85 79.3 6.05 79 5.35 78.8 4.45 78.55 2.65 78.05 1.05 77.6 0 77.1 -0.45 76.9 -1.35 76.5 -2.1 76.15 -2.75 76.2 -3.7 76.3 -4.55 77.25 -4.9 76.9 -5.35 76.5 -6.8 75.3 -8.2 74.45 -11.05 72.9 -15.2 73.05 -18.4 73.3 -20.5 74.4 -22.4 75.3 -24.5 77.3 -27.85 80.3 -29.3 83.35 -31.05 86.95 -30.55 91.2 -30.05 95.35 -27.6 98.65 -23.85 103.65 -18 104.7 -15.1 105.25 -12.2 104.55 -11.1 104.3 -10.1 103.9 -10 105.8 -9.75 107.8 -9.45 110.95 -8.25 112.4 -7.25 113.6 -5.35 114.15 -4.15 114.45 -1.8 114.65 3.7 115.3 6.45 115.6 11.25 116.1 14.65 115.85 14.9 115.8 15.15 115.8
L 15.85 116.1
Q 16.35 116.3 17.05 116.35 17.45 116.35 18.3 116.4 19.55 116.55 22 117.4 22.95 117.6 23.75 117.55 24.4 118.1 25.15 118.55 17.05 123.15 11.35 130.75 10.45 131.9 10 132.9 8.6 133.2 6.05 134.65 2.45 136.8 -7.1 141.65 -15.55 145.95 -20.1 148.95 -24.4 151.85 -25.05 154.6 -25.15 155.25 -25.35 155.55
L -26.25 156.3
Q -26.85 156.95 -26.45 157.35 -26.25 157.6 -25.75 157.45 -25.2 157.2 -24.95 157.1 -24.5 156.9 -23.85 156.95 -23.1 157.1 -22.75 157.1 -21.3 157.15 -19.1 156.1 -17.2 155.15 -14.3 153.5 -10.45 151.25 -9.55 150.75 -7.5 149.6 0.85 145.55 7.3 142.4 11 139.95 11.1 139.9 11.2 139.85 12.65 141.75 16.2 144.9 20.55 148.75 22.65 150.15 26 152.35 31.65 154.55 54.35 163.3 78.7 161.55 79.65 161.5 80.5 161.35
L 81.35 171.9
Q 81.35 172.5 81.5 173.65
L 81.75 175.85
Q 82.05 178.05 82.75 178.85 83.4 179.55 84.45 179.7 85.45 179.8 86.25 179.25 87.7 178.2 87.8 175.3 87.85 172.8 87.25 169.7 86.95 168 85.95 164.2
L 85.25 161.5
Q 85.3 161.4 85.35 161.35 85.85 160.85 86.4 159.35
L 90.35 147.45
Q 91.3 144.55 91.5 143.55 91.8 142.4 92.1 139.8
L 92.9 132.7
Q 92.95 131.95 92.95 131.4 95.15 130.25 96.95 128.55 97.2 128.85 97.5 129.15 98.95 130.55 102.35 132 105.1 133.1 109.2 134.35 120.35 137.9 129 139.05 132.3 139.45 133.5 138.25 134.35 137.45 134.3 136.1 134.25 135.6 134.1 135.2 134.5 134.4 134.9 133 135 132.7 135.05 132.4 135.15 133.4 135.6 134.2 136.6 135.9 138.95 136.6 140.5 137.05 143.2 136.95 148.45 136.7 151.7 135.15 153.75 134.15 155.2 132.6 156.8 130.85 157.35 128.85 157.6 127.9 157.7 125.95 157.8 121.1 155.85 117.4 153.65 113.1 149.6 111.3 147.05 110.2 143.65 110.25 141.3 110.3 137.95 110.95 137.7 110.35 137.4 109.9 136 107.95 132.45 107.2 130.45 106.8 127.9 106.65 127.6 106.65 127.25 106.65 128.15 105.9 128.35 105.7 130.1 104.1 131.3 102.15 131.45 101.9 131.55 101.75 131.75 101.55 131.95 101.4 135.9 98.1 138.15 95.65 141.25 92.3 142.9 88.85 144.55 85.45 145.55 80.1 147.25 71.3 145.8 65.2 146.8 65.2 147.9 65.05 151.7 64.5 154.95 62.2 158.2 60 160.2 56.65 164.2 50.05 162.9 41.8 162 36.1 158.9 32.3 155.85 28.55 150.6 26.4 145.3 24.25 139.35 24.45 133.45 24.65 128.25 27.2 127.9 27.4 127.6 27.6 127.25 27.25 126.9 26.9 121.3 21.4 117.85 18.8 106.5 10.2 89.05 6.7 78.15 4.6 67.15 4.95 67.15 4.65 67.2 4.4 67.45 0.6 65.95 -2.2 64.6 -4.75 61.3 -7 56.35 -10.4 50.2 -11.15 44 -11.95 38.4 -9.95
M 58 -3.7
Q 60.1 -2.45 61.35 -0.8 62.85 1.1 62.8 3.1 62.75 4 62.55 5.7 62.55 7.35 63.6 7.9 63.8 8.05 64.05 8.1 64.25 8.25 64.45 8.35 65.35 8.75 67.05 8.65 81.55 8.1 95.5 12.05 99.5 13.2 102.6 14.5 108.3 16.95 115.05 21.95 120.9 26.3 123.45 30.1 124.65 31.8 125.3 32.35 126.7 33.45 128 32.85 128.35 32.65 128.65 32.35 129.3 32.15 130.2 31.7 133 30.4 135.55 29.9 137.35 29.55 140.95 29.55 144.1 29.45 145.8 29.95 147.9 30.5 150.95 32.7 154.1 35 155.4 36.9 157.15 39.4 157.5 43.6 157.8 47.4 156.75 50.75 155.55 54.4 152.9 56.6 150.95 58.25 147.1 59.6 141.95 61.4 140.8 61.95 140.1 62.4 140.1 62.75 140.1 63 140.55 63.45 140.6 63.5 140.65 63.5 140.55 64.2 140.6 65.1 141.25 73.95 140.05 79.95 138.45 88.1 133.4 93.1 133.3 93.2 129.2 96.7 126.7 98.8 125.6 100.7 125.5 100.9 125.4 101.1 123.4 102.9 120.55 105.15 119.7 105.85 119.2 106.5 115.8 106.5 113.65 106.65 108.3 107 104.2 108.35 103.5 108.55 103.1 108.85 102.9 108.4 102.55 108.15 101.9 107.65 101.2 107.8 100.45 107.95 100.15 108.6 99.95 109.05 99.85 109.5 99.35 110.95 99.3 111.1 99.2 111.45 99.15 112.2 99.1 112.55 98.9 113.6 98.85 113.6 98.85 113.65 98.45 114.65 97.9 116.65 97.3 118.7 96.9 119.65 95.75 122.45 93.4 124.5 91.1 126.55 88.15 127.4 86.05 127.9 85.1 127.15 84.3 126.5 84 124.7 83.4 120.05 84.6 115.55 85.65 112.5 86.05 110.9 86.45 108.9 85.65 108.1 85.1 107.65 84.3 107.75 84.25 107.75 84.2 107.8 83.9 107.5 83.5 107.3 82.8 107.05 80.85 107.05 71.9 107.35 57.9 104.1 55.6 103.65 54.1 103.1 53.5 102.9 51.2 101.8
L 47.25 99.9
Q 46.75 99.7 46.35 99.55 45.95 99.2 45.55 99.2 45.35 99.2 45.1 99.4 44.55 99.4 44.15 99.7 43.7 100.1 43.65 100.85 43.65 100.9 43.65 100.95 43.2 101.6 42.85 102.45 42.65 102.85 41.7 105.65 40.75 108.3 39.55 109.9 38.7 111 37.2 112.4 35.65 113.85 34.65 114.25 33.1 114.9 30.3 114.3 28.4 113.8 27.55 113.1 26.35 112 26.2 110.1 26.1 108.8 26.45 106.8 27.6 100.9 29.75 95.55 30.8 93.05 30.1 91.9 29.9 91.55 29.6 91.3 29.75 90.2 28.75 89.1 28.1 88.5 26.5 87.7 22 85.55 13.1 81.8 13.2 80.85 12.85 79.7 12.45 77.9 11.05 74.15 9.7 70.55 9.3 68.55 8.8 66.1 8.8 61.85 8.9 56.25 9.65 52.75 10.55 48.65 12.85 44 14.45 40.85 17.6 35.85 22.55 27.9 26.25 24.25 27.85 22.8 28.6 22.05 29.9 20.7 30.55 19.5 31.35 18.2 30.7 17.45 31.25 16.4 30.6 14.9 30.4 14.4 29.85 13.55 29.25 12.65 29.05 12.2 28.15 10.3 28.5 7.45 28.95 4.1 31.15 1.15 33.15 -1.65 36.2 -3.55 41.1 -6.6 47.1 -6.65 53.1 -6.7 58 -3.7
M 23.8 92.55
Q 24.95 93 25.75 93.2 24 96.5 22.6 99.95 20.55 105.05 20.3 108.35 20.2 109.9 20.4 111.3
L 20.35 111.3
Q 18.55 111.05 17.05 110.9 16.3 110.55 14.75 110.3 5.05 108.8 -1.95 108.25 -2.8 108.25 -3.15 107.9 -3.55 107.5 -3.55 106.7 -4.25 99.15 -4.05 94.8 -3.7 88.2 -1.3 83.45 1.85 84 7.6 86.3
L 23.8 92.55
M 67.2 109.6
Q 73 110.6 77.8 110.85 79 110.95 81.45 111 81.5 111 81.6 111
L 80 115.6
Q 78.9 119.05 78.6 120.4 77.75 124.3 78.8 127.4 79.95 131.15 83.3 132.6 85.4 133.5 88.15 133.05 87.6 139.4 86.4 143.6 86.3 143.95 85.05 148
L 83.65 152
Q 82.25 156 81.8 157.05 80.4 156.9 78.8 156.95 77.3 156.95 73.85 157.15 60.05 157.85 50.35 155.65 44.55 154.25 33.7 150 29.3 148.2 27.25 146.95 24.25 145.1 21.25 141.8 19.45 139.8 16.25 135.55 21.85 127.1 30.2 121.7 31.3 121 31.95 120.45 34.55 120.45 36.95 119.3 38.95 118.35 40.95 116.45 46 111.5 47.3 104.4 49.8 105.65 52.3 106.35 54.3 106.95 56.7 107.45 63.3 108.9 67.2 109.6
M 148.9 117.6
Q 150.6 118.85 151.75 122.25 152.65 124.9 152.5 126.9 152.4 128.3 151.65 129.2 151 129.95 149.35 130.45 145.7 131.4 142.35 131.05 140.95 130.95 140 130.45 138.6 129.3 137.75 129 136.9 128.8 136.4 129.05 136.05 129.25 135.75 129.7 137.55 122.45 138.2 116.85 139.75 116.5 141.85 116.35 144.15 116.15 145.55 116.35 147.6 116.6 148.9 117.6
M 130.95 115.3
Q 130.9 116 131.25 116.65 130.1 123.75 128.55 130.35 128.2 132 128.15 133.2 125.15 132.9 121.75 132.1 119.15 131.5 113.85 129.85
L 100.2 125.65
Q 99.9 125.55 99.6 125.5 102.25 121.7 103.05 116.7 103.4 115 103.1 113.45
L 103.1 113.4
Q 103.2 112.6 103.3 111.8 103.3 111.6 103.35 111.4 104 111.8 105.25 112 109.25 112.55 118.55 112.55 127.1 112.5 131.75 113.4 131.75 113.5 131.75 113.6 131.05 114.35 130.95 115.3
M -24.3 91.3
Q -24.85 88.55 -23.7 85.65 -22.6 83 -20.35 80.9 -18.85 79.4 -17.4 78.9 -15.85 78.35 -13.5 78.35 -9.55 78.35 -7.5 79.5 -6.8 80 -6.25 80.25 -7.9 83.95 -8.3 85.05 -10.6 91.5 -10.3 100.75 -14.85 100.15 -17.6 98.95 -20.15 97.75 -21.9 95.85 -23.8 93.8 -24.3 91.3
M 109.1 37.3
Q 100.9 30.05 88.75 26.75 79.6 24.25 66.05 24 60.55 23.9 56.95 24.4 51.95 25 48.3 26.85 47.45 27.3 47 27.75 40.5 26.3 33.75 27 27.7 27.65 24.9 30.4 22.9 32.4 21.8 36.4 20.35 41.7 21.95 45.4 23 47.75 25.3 49.15 27.55 50.5 30 50.35 29.5 50.7 29.1 51.1 26.25 53.8 25.6 57.2 25.3 58.9 25.65 61.4 26 63.5 26.85 64.95 27.9 66.75 30.35 68.05 31 68.4 31.75 68.7 31.65 68.85 31.55 69 30.9 70.35 31.1 72.7 31.4 76.45 32.05 78.55 32.9 81.45 35.8 85.45 40.15 91.5 45.35 94.7 47.8 96.2 51.75 97.9 58.2 100.8 62.35 102.05 67.65 103.65 78.2 104.75 83.6 105.25 86.4 105.2 98.35 104.85 111.55 96.35 115.4 93.95 117.55 91.6 118.25 90.9 118.6 90.2 119.35 90.15 120.15 90.1 123.2 89.95 125.5 88.75 127.85 87.6 129.45 85.4 131.05 83.3 131.6 80.7 132.25 77.85 131.5 74.5 130.8 70.9 128.8 67.7 128.05 66.5 127.2 65.4 126.4 64.1 125.4 63.4 125.35 63.35 125.3 63.35 124.85 62.9 124.4 62.55 125.4 61.7 121.35 53.15 117.25 44.55 109.1 37.3
M 96.1 30.6
Q 104.05 34.65 112.1 44.55 120.1 54.45 120.65 59.6 120.65 59.75 120.7 59.85 114.65 57 113.25 56.5 107 54.4 100.3 55.55 97 56.2 95.45 57.6 93.85 59 93.1 61.45 92.1 64.5 92.5 67.85 92.7 69.55 93.2 71.1 92.85 71.05 92.5 70.95 90.35 70.4 88.6 69.05 86.8 67.6 85.85 65.65 85.2 64.2 84.8 61.9 84.15 58.1 84.1 57.95 83.7 56.3 82.9 55.8 82.2 55.3 80.4 55.5 78.6 55.85 77.7 56 76.1 56.3 74.95 56.2 73.45 56.1 72.3 55.3 71.05 54.5 70.75 53.2 70.65 52.65 70.5 52.45 70.2 51.95 69.85 52.1 69.8 52.15 69.75 52.2 68.25 48.85 64.9 46.5 62.85 45.05 60.6 44.35 58.05 43.55 54.5 43.35 44.2 42.9 35.05 47.2 33.7 47.85 32.55 48.55 30.95 47.7 29.15 45.45 27.6 43.6 27.25 42.4 26.85 41.05 27.3 38.9 27.7 36.9 28.45 35.5 29.4 33.75 30.95 32.65 32.5 31.45 34.95 30.85 36.6 30.5 40.05 30.4 44.1 30.3 45.75 30.65 47.7 31.1 48.4 30.55 48.85 30.2 48.95 29.65 56.25 27.4 65.5 27 72.15 26.7 82.85 27.35 87.45 27.65 89.65 28.15 92.85 28.95 96.1 30.6
M 108.8 59.5
Q 110.2 59.75 111.35 60.15 114.2 61.1 116.8 62.45 116.75 62.45 116.7 62.45 113.95 63.15 112.25 64.95 110.4 67 110 70.05 109.65 72.65 110.55 75.65 111.7 79.25 114.05 82.2 116.05 84.65 118.2 85.65 118.45 85.75 118.7 85.9 118.55 85.85 118.4 85.85 115.95 85.7 114.3 85.25 110.45 84.25 106.65 81.2 103.75 78.9 100.5 74.9 98.6 72.5 98.05 71.1 97.3 69.4 97.1 65.9 97 62.25 98.3 60.95 99.3 60 101.2 59.7 102.75 59.4 105.2 59.4 107.6 59.3 108.8 59.5
M 81.65 67.15
Q 82.75 69.85 85.05 71.85 87.3 73.8 90.1 74.6 92.95 75.35 94.65 74.2
L 94.7 74.2
Q 95.7 75.85 97.4 77.9 100.5 81.85 102.55 83.65 104.1 85 106.4 86.45 108.85 88 111.05 88.8 112.1 89.2 113.2 89.5 107.65 95.45 100.75 98.95 93.25 102.85 85.5 103.15 81.35 103.3 76.25 102.4 73.25 101.9 67.15 100.35 61.9 99.1 59.2 98.05 57.6 97.45 53.15 95.2 48.7 92.85 46.9 91.7 41.6 88.2 38.7 83.55 35.45 78.15 35.95 72.45 36.15 70.6 36.1 69.9 36.55 69.95 37.1 70.05 48.3 71.8 59.1 68.6 67.5 66.1 69.8 61 70.25 60.1 70.45 59.2 70.6 59.35 70.8 59.45 72.65 60.75 75.45 60.65 77.3 60.6 80.2 59.75 80.6 64.65 81.65 67.15
M 52.3 48.15
Q 50.4 48.7 49.6 49.05 46.85 50.25 45.85 52.65 45.2 54.25 45.4 57.5 45.5 60.7 46.4 62.2 46.8 62.9 48.2 64.3 49.05 65.05 49.8 65.55 47.05 65.75 44 65.7 38.7 65.6 34.85 64.65 31.85 63.95 30.9 62.35 30.4 61.55 30.1 59.6 29.8 57.7 30.2 56.7 30.45 56.05 31.95 54.55 33.95 52.7 34.2 52.5 35.5 51.5 37.4 50.65 44.5 47.55 53.4 47.8 52.9 47.95 52.3 48.15
M 70.25 91.65
Q 70 91.05 69.85 90.8 69.25 89.85 68.1 90.1 67.05 90.35 66.8 91.45 66.55 92.45 67.25 93.3 67.6 93.7 68.2 94.05 69.8 95.2 70.8 95.55 72.95 96.25 76.4 95.3 77.2 95.1 77.45 94.85 78.25 94.25 78 93.35 77.75 92.35 76.8 92.35 76.75 92.35 75.85 92.5 73.3 93.3 71.35 92.45 70.5 92.1 70.25 91.65
M 140.2 42.2
Q 139.65 42.75 139.15 43.5 138.4 44.8 138.4 46.7 138.35 47.9 138.65 50.1 138.85 51.85 139.35 52.9 140.2 54.65 142.9 56 143.9 56.55 144.9 56.75 146.35 57.1 147.95 56.55 149.05 56.15 149.85 55.5 151.2 54.35 152.35 51.3
L 153 49.4
Q 153.4 47.55 152.9 45.55 152.6 44.1 151.75 42.8 150.45 41.05 148.4 40.35 146.45 39.7 144.2 40.1 142.85 40.35 142.05 40.8 141.15 41.25 140.2 42.2
M 45.9 -2.7
Q 44.25 -3.1 41.65 -2.75 38.95 -2.3 37.15 -1.55 34.75 -0.55 33.45 1.25 32.35 2.65 32.1 4.6 32 5.7 32.15 6.6 32.45 8.05 33.45 9.25 34.5 10.4 35.9 10.9 36.95 11.25 38.6 11.35 40.45 11.35 42.3 10.9 45.1 10.1 47.35 8.4 48.6 7.45 49.25 6.5 50.05 5.3 50.25 3.85 50.4 2.35 49.9 1.05 49.4 -0.3 48.35 -1.3 47.25 -2.3 45.9 -2.7 Z"/>
</g>
</defs>

<g transform="matrix( 1, 0, 0, 1, 0,0) ">
<use xlink:href="#Layer0_0_FILL"/>
</g>
</svg>
