
<svg xmlns="http://www.w3.org/2000/svg" version="1.1" xmlns:xlink="http://www.w3.org/1999/xlink" preserveAspectRatio="none" x="0px" y="0px" width="300px" height="300px" viewBox="0 0 300 300">
<defs>
<g id="brook_0_Layer1_0_FILL">
<path fill="#330033" stroke="none" d="
M 244 84.55
Q 244.15 83.35 243.7 82.25 241.85 78.2 238.55 74.9 227.4 63.7 214.2 55.25 202.85 48 190.7 42.65 197.3 41.5 204.05 41 216.85 40.15 229.7 40.7 233.6 40.95 237.35 40.35 241.65 39.45 242.5 35 244.65 24.05 239.65 14.2 237.55 10.1 233.75 7.45 225.45 1.75 215.2 0.3 210.6 -0.4 206.25 1 198.3 3.9 191.15 8.6 175.1 19.2 160.5 31.8 159.45 32.65 158.3 33.7 137.6 30.25 116.55 31.15 91.85 31.95 68.7 39.6 65.45 40.7 62.9 43.05 59.8 45.85 60.8 50.25 49.9 54.7 39.55 60.65 33.85 63.95 28.6 68.2 24.55 71.35 20.85 74.55 11.3 82.8 5.4 93.95 3.8 97 3.8 100.2 3.75 104.1 6.7 106
L 6.15 106.65 14.9 112.35
Q 7.55 122.75 1.8 134.1 -0.1 137.8 0.25 141.95 0.45 144.05 2.1 145.65 8.4 151.8 16.9 154.6 16.65 156.6 16.5 158.6 16.2 162.55 15.85 166.5 14.95 176.95 16.8 187.35 17.1 189.1 17.8 190.8 19.1 194.2 19.75 197.85 20 199.2 21.4 199.5 28.25 201.05 35.3 199.65 33.8 206.05 33 212.6 31.1 228.35 39.85 241.6 42.9 246.25 48.4 245.7 57.5 244.9 66.2 242.15 68.7 248.45 73.9 252.3 79.3 256.35 85.75 254.65 87.2 254.2 88.4 253.35 89.75 252.35 90.5 251.7 92.35 254.85 95 257.5 95.55 258 95.8 258.5 97.15 261.3 99.95 262.15 113.55 265.7 127.65 264.5 145.55 262.95 162.35 256.6 167.05 254.95 171.75 253.2 175.05 252.1 177.65 249.85 183.35 250.05 188.35 247.45 189.85 246.7 190.65 245.35 191.45 244.15 192.2 243.6 194.25 243.65 196.25 242.8 197.05 242.35 197.8 241.8 198.5 241.35 199.15 240.75 199.55 240.35 199.95 240 200.65 240.05 201.35 240.3 205.35 241.65 209.15 240.5 212.6 239.35 214.2 236.2 217.45 229.85 218.9 222.65 219.85 217.9 220.85 213 223.45 213.15 226.05 213.4 227.8 213.25 229.35 212.6 231.95 211.6 232.65 208.8 233.75 204.25 234.4 199.85 235.75 190.75 236 181.5
L 235.35 165.3 236.1 165.7 236.7 164.15
Q 243.8 165.75 251.1 165.35 252.8 165.25 254.05 164.2 256.6 162 255.9 158.65 253.55 147.35 252.9 135.8 257.3 136.9 261.4 135.55 262.9 134.95 263.8 133.7 266.85 129.55 265.05 124.35 262 115.65 257.45 107.6 251.5 97.05 242.65 88.85 244.2 87.95 244 85.95 243.95 85.25 244 84.55 Z"/>
</g>

<g id="brook_0_Layer0_0_FILL">
<path fill="#330033" stroke="none" d="
M 244 84.55
Q 244.15 83.35 243.7 82.25 241.85 78.2 238.55 74.9 227.4 63.7 214.2 55.25 202.85 48 190.7 42.65 197.3 41.5 204.05 41 216.85 40.15 229.7 40.7 233.6 40.95 237.35 40.35 241.65 39.45 242.5 35 244.65 24.05 239.65 14.2 237.55 10.1 233.75 7.45 225.45 1.75 215.2 0.3 210.6 -0.4 206.25 1 198.3 3.9 191.15 8.6 175.1 19.2 160.5 31.8 159.45 32.65 158.3 33.7 137.6 30.25 116.55 31.15 91.85 31.95 68.7 39.6 65.45 40.7 62.9 43.05 59.8 45.85 60.8 50.25 49.9 54.7 39.55 60.65 33.85 63.95 28.6 68.2 24.55 71.35 20.85 74.55 11.3 82.8 5.4 93.95 3.8 97 3.8 100.2 3.75 104.1 6.7 106
L 6.15 106.65 14.9 112.35
Q 7.55 122.75 1.8 134.1 -0.1 137.8 0.25 141.95 0.45 144.05 2.1 145.65 8.4 151.8 16.9 154.6 16.65 156.6 16.5 158.6 16.2 162.55 15.85 166.5 14.95 176.95 16.8 187.35 17.1 189.1 17.8 190.8 19.1 194.2 19.75 197.85 20 199.2 21.4 199.5 28.25 201.05 35.3 199.65 33.8 206.05 33 212.6 31.1 228.35 39.85 241.6 42.9 246.25 48.4 245.7 57.5 244.9 66.2 242.15 68.7 248.45 73.9 252.3 79.3 256.35 85.75 254.65 87.2 254.2 88.4 253.35 89.75 252.35 90.5 251.7 92.35 254.85 95 257.5 95.55 258 95.8 258.5 97.15 261.3 99.95 262.15 113.55 265.7 127.65 264.5 145.55 262.95 162.35 256.6 167.05 254.95 171.75 253.2 175.05 252.1 177.65 249.85 183.35 250.05 188.35 247.45 189.85 246.7 190.65 245.35 191.45 244.15 192.2 243.6 194.25 243.65 196.25 242.8 197.05 242.35 197.8 241.8 198.5 241.35 199.15 240.75 199.55 240.35 199.95 240 200.65 240.05 201.35 240.3 205.35 241.65 209.15 240.5 212.6 239.35 214.2 236.2 217.45 229.85 218.9 222.65 219.85 217.9 220.85 213 223.45 213.15 226.05 213.4 227.8 213.25 229.35 212.6 231.95 211.6 232.65 208.8 233.75 204.25 234.4 199.85 235.75 190.75 236 181.5
L 235.35 165.3 236.1 165.7 236.7 164.15
Q 243.8 165.75 251.1 165.35 252.8 165.25 254.05 164.2 256.6 162 255.9 158.65 253.55 147.35 252.9 135.8 257.3 136.9 261.4 135.55 262.9 134.95 263.8 133.7 266.85 129.55 265.05 124.35 262 115.65 257.45 107.6 251.5 97.05 242.65 88.85 244.2 87.95 244 85.95 243.95 85.25 244 84.55
M 230.95 13.5
Q 234.35 16.8 235.6 21.45 237.3 27.65 235.85 33.75 227.15 33.95 218.35 34.1 209.8 34.25 201.4 35 191.6 35.9 182.1 38.15
L 180.3 38.8 165.35 35.55
Q 175.05 28.2 184.7 20.8 192.6 14.8 201.45 10.15 204.7 8.5 208.1 7.8 216.8 6.25 225.15 9.75 228.35 11 230.95 13.5
M 178.2 190.15
Q 176.7 190.3 175.25 190.45 165.15 192.35 155.4 196.05
L 155.45 195.2
Q 156.65 195 157.85 194.65 166.9 192.55 175.15 188.45
L 176.7 187.75 178.2 190.15
M 31.5 157.75
Q 32.05 158 32.6 158.4 32.9 157.9 33.25 157.5 33.3 157.45 33.4 157.45 33.5 157.6 33.6 157.8 40.5 157.15 47.65 158 57.5 158.55 67.25 157.25
L 80.85 155.4 81.45 154.95
Q 81.15 155.95 80.85 156.95 78.7 163.55 74.05 168.7 72.65 170.25 71.2 171.8 61.05 182.6 47.55 188.4 44.95 189.5 42.25 190.25 39.65 190.85 37.4 192.35 34.75 192.9 32.1 193.5 29.25 194.25 27.1 193.35 24.3 186.85 23.95 179.9 23.35 168.15 23.65 156.45 26.15 157.2 28.9 157.2 30.35 157.2 31.5 157.75
M 62.55 186.7
L 66.45 183.8
Q 69.35 184.8 71.75 186.4 75.85 189.1 80.55 190.6 93.45 194.9 106.85 197.15 103 197.15 99.2 197.15 95.7 197.15 92.35 197.95 85.25 199.4 83.55 206.2 79.25 223.6 86.4 240.05 88.2 244.15 89.15 248.95 84.45 250.55 80.15 248.05 73.55 244.05 72 236.4 72.35 235.8 72.7 235.2 73.6 233.7 73.9 232.15 74.15 230.85 73.75 229.6 73.55 229.4 73.4 229.25 72.65 228.8 71.75 229.3 70.55 230 70 231.4 69.5 232.75 68.55 233.65 66.3 233.85 64.2 234.65 59.25 236.7 53.75 237.45 51.5 237.75 49.3 238.3 47.05 238.7 45.95 236.7 44 232.9 42.55 229 39.4 220.7 41.05 211.95 42.45 204.8 43.15 197.45
L 62.55 186.7
M 140.9 220.15
Q 142.25 219.8 143.6 219.45 158.35 214.65 173.9 212.5
L 174.2 223.9 171.75 223.1 140.9 220.15
M 97.15 246.85
Q 95.05 238.05 99.45 229.85
L 103.85 224.05
Q 111.55 223.45 119.25 223.25 139.55 222.65 159.85 225.2 162.5 225.5 165.2 226.05 170.25 227.4 174.5 225.2
L 173.15 245.35
Q 151.5 255.9 127.7 258.35 114.8 259.4 102.35 256.5
L 97.55 249.95
Q 97.5 248.35 97.15 246.85
M 206.85 232.75
Q 206.5 233 206.15 232.95 201.45 231.65 196.65 232.3 195.8 232.6 195.2 233.65 194.05 235.65 192.45 237.15 192.95 229.95 193.15 222.65 193.4 212.45 190.8 202.8
L 199.1 207.45 214.6 212.3
Q 212.85 218.55 211.1 224.65 210.5 226.6 209.8 228.9 209.05 231.35 206.85 232.75
M 162.4 39.55
Q 163.75 39.95 164.75 39.15
L 165.3 38.3
Q 170.2 39.7 174.95 41.55 176.9 42.4 178.75 43.55 180.25 44.55 182 44.35 184.15 45.4 186.35 46.5 192.9 49.9 199.25 53.95 206.25 58.4 213.2 63.1 217.5 66 221.5 69.1 223.8 70.8 225.95 72.55 231.35 77 235.55 82.75 233.3 84.3 234 87.1 234.7 89.8 236.6 92.05 237.9 93.6 239.35 95.05 242.15 97.95 244.85 100.95 248 104.5 250.35 108.5 255.4 117.15 257.9 126.9 257.55 127 257.25 127.1 254.35 127.5 251.25 127.45 249.4 127.45 247.75 128.45 244.45 130.5 244.8 134.55 245.8 145.15 246.65 155.85 244.6 156.3 242.6 155.85 239.8 155.15 237 154.25 232.2 152.8 227.7 150.65 225 149.45 222.85 147.55 220.4 145.45 218 143.05 216.2 141.25 214.5 139.5 212.8 137.65 210.45 137.3 209.3 138.05 210.1 139.35 210.85 140.7 211.95 141.65 213.178125 142.6587890625 213.95 144.1 214.0955078125 144.3349609375 214.2 144.55 216 148.1 218.65 151.25 222.55 155.95 228.1 158.5 228.05 158.8 228.05 159.1 228.05 159.35 227.9 159.55
L 227.75 159.45
Q 228.4 162.2 228.7 164.85 229.05 167.65 229.2 170.35 230.3 188.4 226.6 206.25 220.25 206.95 213.95 205.7 207.4 204.6 201.6 201.75 195.3 198.7 190.05 194.15 184.6 189.35 180.9 182.8 178.55 178.75 177.5 174.15 175.95 167.45 178.7 160.95 179.7 158.6 178.9 156.4 178.4837890625 155.290234375 177.4 155.2 177.340234375 155.2 177.25 155.2 176 155.1 175.1 155.95 173.25 157.55 172.65 159.8 171.4 164.5 171.15 169.3 170.8 176.15 173.8 182.3 168.05 185.9 161.7 188 158.6 189.05 155.1 189.3 154.1 189.3 153.1 189.35 151.15 189.45 149.95 190.9 149 192 149.3 193.5 149.6 195.25 149.9 197.05 150.2 199.25 152.35 199.55 152.35 199.65 152.4 199.75 153.2 201.15 154.6 201 155.9 200.9 157.2 200.5 159.8 199.75 162.5 199.1 165.85 198.25 169.3 197.3 175.25 195.8 181.3 195.45 181.3 196.8 182 197.85 183.85 200.55 184.7 203.55 186.25 208.95 186.3 214.8 186.3 220.6 185.9 226.2 185.65 230.15 185.3 234 185 236.9 184.85 239.6 184.8 240.5 184.15 241 181.85 242.75 178.9 243.1 179.8 237.95 180.3 232.7 180.45 231.4 180.55 230.15 181 222.55 180.1 215 179.65 210.95 179.1 206.95 178.8 205.05 178.05 203.3 177.75 202.6 177.15 202.25 175.5 201.1 174.05 202.65
L 173.2 207.25
Q 170.9 207.65 168.65 208.05 165.6 208.65 162.5 209.4 153.6 211.45 145 214.5 140.9 215.95 136.55 217.35 134.15 218.2 131.85 218.7 130.95 219 130.1 219.35 119.35 218.55 108.45 218.5 109.7 216.95 110.75 215.1 111.55 213.6 110.85 212.2 110 210.45 108 210.95 106.05 211.2 104.5 212.6 100.2 216.65 96.4 220.85 93.15 224.35 90.9 228.55 90.65 227.1 90.45 225.65 89.7 220.1 89.9 214.2 90 210.4 91.7 207.15 92.65 205.4 94.7 204.65 98.55 203.2 102.65 202.7 105.35 202.6 108.3 202.65 115.65 202.75 122.85 201.35 123.35 202 123.85 202.6 124.5 203.4 125.65 203.65 127.35 203.9 128.55 202.75 129.05 202.25 129.15 201.55 129.95 197.45 126.8 194.35 126.3 193.85 125.8 193.5 123.4 191.95 120.55 192.3 116.2 192.35 111.9 192.2 109.75 192.05 107.45 191.7 104.6 191.25 101.7 190.65 99.6 190.2 97.4 189.55 94.95 189.05 92.35 188.2 81.75 184.75 72.1 179.05 73.25 178 74.35 176.95 78 173.45 81.15 169.45 84.85 164.9 87 159.35 88.1 156.6 87.95 153.8 94.45 152.75 101.35 150.6 109.4 148 117.15 144.75 124.6 141.5 131.75 137.45 138.7 133.55 145.2 128.8 148.15 126.65 150.35 123.75 151.0904296875 122.735546875 151.1 121.65 151.1515625 120.77578125 150.7 119.85 150.45 119.35 150.05 119.1 147.8 117.8 145.75 119.7 138.45 126.35 130.2 131.65 122.4 136.65 113.65 140.45 104.9 144.35 95.8 146.95 86.8 149.55 77.55 150.7 68.1 151.75 58.7 151.85 50.1 151.9 41.55 150.3 38.85 149.25 35.95 149.55 32.6 149.45 29.35 148.55 25.95 147.55 22.55 146.7 15.3 144.6 8.7 139.5 9.75 136.45 10.9 133.45 13.75 126.35 18.65 120.1 20.75 117.4 22.7 114.65 23.65 113.25 23.65 111.5 23.65 108.8 21.4 107.15 17.05 104.1 12.55 101.95 12.65 101.05 12.7 99.75 12.8 98.25 13.75 96.6 15.8 93.2 18.3 90.25 26.5 80.45 35.85 72.15 45.9 63.15 57.65 56.45 62.6 53.55 67.95 51.65 67.55 50.4 68 49.15 68.45 47.75 70.05 46.95 76.9 43.4 84.35 41.65 92.6 39.6 100.8 38.35 114.75 36.15 128.8 36.25 145.8 36.4 162.4 39.55
M 134.7 183.5
Q 136 183.05 136.6 181.9 137.65 179.75 135.7 178.1 133.6 176 130.9 174.7 129.55 174.15 128.15 173.8 126.8 174.05 125.65 174.65 121.25 177.25 121.6 182 122.6 183.45 124.2 183.4 125 183.15 125.6 182.6 127 181.2 128.8 180.65 131.25 183.2 134.7 183.5
M 204.05 140.95
Q 204.35 139.5 203.25 138.35 200.9 135.75 197.95 137.6 195.25 139.35 192.85 137.9 194.6 132.75 194.45 127.1 194.4185546875 126.0650390625 194.3 125.05 194.11171875 123.0513671875 193.6 121.15 191.9298828125 114.9640625 187.05 110.05 182.49921875 106.2640625 176.85 105.85 175.4390625 105.7361328125 173.95 105.85 173.62109375 105.8669921875 173.3 105.9 165.25 106.5 158.85 111.6 156.6 113.35 158.1 115.6 158.7447265625 116.534765625 159.65 116.65 160.163671875 116.727734375 160.75 116.55 162.7 116.1 164.6 115.45 170.7 113.2 177.4 113.6 171.25 117.35 168.95 124.25 165.8 133.55 170.3 142.2 171.75 145 174.3 146.9 175.4 147.75 176.7 148.1 178.4236328125 148.57109375 180 148.6 185.4064453125 148.7251953125 189.45 143.95 193.6 146.45 198.35 145.85 203.15 145.35 204.05 140.95 Z"/>

<path fill="#D1936D" stroke="none" d="
M 177.4 113.6
Q 170.7 113.2 164.6 115.45 162.7 116.1 160.75 116.55 160.163671875 116.727734375 159.65 116.65 155.5060546875 119.3244140625 151.1 121.65 151.0904296875 122.735546875 150.35 123.75 148.15 126.65 145.2 128.8 138.7 133.55 131.75 137.45 124.6 141.5 117.15 144.75 109.4 148 101.35 150.6 94.45 152.75 87.95 153.8 88.1 156.6 87 159.35 84.85 164.9 81.15 169.45 78 173.45 74.35 176.95 73.25 178 72.1 179.05 81.75 184.75 92.35 188.2 94.95 189.05 97.4 189.55 99.6 190.2 101.7 190.65 104.6 191.25 107.45 191.7 109.75 192.05 111.9 192.2 116.2 192.35 120.55 192.3 123.4 191.95 125.8 193.5 126.3 193.85 126.8 194.35 129.95 197.45 129.15 201.55 129.05 202.25 128.55 202.75 127.35 203.9 125.65 203.65 124.5 203.4 123.85 202.6 123.35 202 122.85 201.35 115.65 202.75 108.3 202.65 105.35 202.6 102.65 202.7 98.55 203.2 94.7 204.65 92.65 205.4 91.7 207.15 90 210.4 89.9 214.2 89.7 220.1 90.45 225.65 90.65 227.1 90.9 228.55 93.15 224.35 96.4 220.85 100.2 216.65 104.5 212.6 106.05 211.2 108 210.95 110 210.45 110.85 212.2 111.55 213.6 110.75 215.1 109.7 216.95 108.45 218.5 119.35 218.55 130.1 219.35 130.95 219 131.85 218.7 134.15 218.2 136.55 217.35 140.9 215.95 145 214.5 153.6 211.45 162.5 209.4 165.6 208.65 168.65 208.05 170.9 207.65 173.2 207.25
L 174.05 202.65
Q 175.5 201.1 177.15 202.25 177.75 202.6 178.05 203.3 178.8 205.05 179.1 206.95 179.65 210.95 180.1 215 181 222.55 180.55 230.15 180.45 231.4 180.3 232.7 179.8 237.95 178.9 243.1 181.85 242.75 184.15 241 184.8 240.5 184.85 239.6 185 236.9 185.3 234 185.65 230.15 185.9 226.2 186.3 220.6 186.3 214.8 186.25 208.95 184.7 203.55 183.85 200.55 182 197.85 181.3 196.8 181.3 195.45 175.25 195.8 169.3 197.3 165.85 198.25 162.5 199.1 159.8 199.75 157.2 200.5 155.9 200.9 154.6 201 153.2 201.15 152.4 199.75 152.35 199.65 152.35 199.55 150.2 199.25 149.9 197.05 149.6 195.25 149.3 193.5 149 192 149.95 190.9 151.15 189.45 153.1 189.35 154.1 189.3 155.1 189.3 158.6 189.05 161.7 188 168.05 185.9 173.8 182.3 170.8 176.15 171.15 169.3 171.4 164.5 172.65 159.8 173.25 157.55 175.1 155.95 176 155.1 177.25 155.2 177.340234375 155.2 177.4 155.2 178.6796875 151.874609375 180 148.6 178.4236328125 148.57109375 176.7 148.1 175.4 147.75 174.3 146.9 171.75 145 170.3 142.2 165.8 133.55 168.95 124.25 171.25 117.35 177.4 113.6
M 136.6 181.9
Q 136 183.05 134.7 183.5 131.25 183.2 128.8 180.65 127 181.2 125.6 182.6 125 183.15 124.2 183.4 122.6 183.45 121.6 182 121.25 177.25 125.65 174.65 126.8 174.05 128.15 173.8 129.55 174.15 130.9 174.7 133.6 176 135.7 178.1 137.65 179.75 136.6 181.9 Z"/>

<path fill="#663333" stroke="none" d="
M 164.75 39.15
Q 163.75 39.95 162.4 39.55 145.8 36.4 128.8 36.25 114.75 36.15 100.8 38.35 92.6 39.6 84.35 41.65 76.9 43.4 70.05 46.95 68.45 47.75 68 49.15 67.55 50.4 67.95 51.65 62.6 53.55 57.65 56.45 45.9 63.15 35.85 72.15 26.5 80.45 18.3 90.25 15.8 93.2 13.75 96.6 12.8 98.25 12.7 99.75 12.65 101.05 12.55 101.95 17.05 104.1 21.4 107.15 23.65 108.8 23.65 111.5 23.65 113.25 22.7 114.65 20.75 117.4 18.65 120.1 13.75 126.35 10.9 133.45 9.75 136.45 8.7 139.5 15.3 144.6 22.55 146.7 25.95 147.55 29.35 148.55 32.6 149.45 35.95 149.55 38.85 149.25 41.55 150.3 50.1 151.9 58.7 151.85 68.1 151.75 77.55 150.7 86.8 149.55 95.8 146.95 104.9 144.35 113.65 140.45 122.4 136.65 130.2 131.65 138.45 126.35 145.75 119.7 147.8 117.8 150.05 119.1 150.45 119.35 150.7 119.85 151.1515625 120.77578125 151.1 121.65 155.5060546875 119.3244140625 159.65 116.65 158.7447265625 116.534765625 158.1 115.6 156.6 113.35 158.85 111.6 165.25 106.5 173.3 105.9 173.62109375 105.8669921875 173.95 105.85 175.4390625 105.7361328125 176.85 105.85 182.49921875 106.2640625 187.05 110.05 191.9298828125 114.9640625 193.6 121.15 194.11171875 123.0513671875 194.3 125.05 194.4185546875 126.0650390625 194.45 127.1 194.6 132.75 192.85 137.9 195.25 139.35 197.95 137.6 200.9 135.75 203.25 138.35 204.35 139.5 204.05 140.95 203.15 145.35 198.35 145.85 193.6 146.45 189.45 143.95 185.4064453125 148.7251953125 180 148.6 178.6796875 151.874609375 177.4 155.2 178.4837890625 155.290234375 178.9 156.4 179.7 158.6 178.7 160.95 175.95 167.45 177.5 174.15 178.55 178.75 180.9 182.8 184.6 189.35 190.05 194.15 195.3 198.7 201.6 201.75 207.4 204.6 213.95 205.7 220.25 206.95 226.6 206.25 230.3 188.4 229.2 170.35 229.05 167.65 228.7 164.85 228.4 162.2 227.75 159.45
L 227.9 159.55
Q 228.05 159.35 228.05 159.1 228.05 158.8 228.1 158.5 222.55 155.95 218.65 151.25 216 148.1 214.2 144.55 214.0955078125 144.3349609375 213.95 144.1 213.178125 142.6587890625 211.95 141.65 210.85 140.7 210.1 139.35 209.3 138.05 210.45 137.3 212.8 137.65 214.5 139.5 216.2 141.25 218 143.05 220.4 145.45 222.85 147.55 225 149.45 227.7 150.65 232.2 152.8 237 154.25 239.8 155.15 242.6 155.85 244.6 156.3 246.65 155.85 245.8 145.15 244.8 134.55 244.45 130.5 247.75 128.45 249.4 127.45 251.25 127.45 254.35 127.5 257.25 127.1 257.55 127 257.9 126.9 255.4 117.15 250.35 108.5 248 104.5 244.85 100.95 242.15 97.95 239.35 95.05 237.9 93.6 236.6 92.05 234.7 89.8 234 87.1 233.3 84.3 235.55 82.75 231.35 77 225.95 72.55 223.8 70.8 221.5 69.1 217.5 66 213.2 63.1 206.25 58.4 199.25 53.95 192.9 49.9 186.35 46.5 184.15 45.4 182 44.35 180.25 44.55 178.75 43.55 176.9 42.4 174.95 41.55 170.2 39.7 165.3 38.3
L 164.75 39.15
M 32.6 158.4
Q 32.05 158 31.5 157.75 30.35 157.2 28.9 157.2 26.15 157.2 23.65 156.45 23.35 168.15 23.95 179.9 24.3 186.85 27.1 193.35 29.25 194.25 32.1 193.5 34.75 192.9 37.4 192.35 39.65 190.85 42.25 190.25 44.95 189.5 47.55 188.4 61.05 182.6 71.2 171.8 72.65 170.25 74.05 168.7 78.7 163.55 80.85 156.95 81.15 155.95 81.45 154.95
L 80.85 155.4 67.25 157.25
Q 57.5 158.55 47.65 158 40.5 157.15 33.6 157.8 33.5 157.6 33.4 157.45 33.3 157.45 33.25 157.5 32.9 157.9 32.6 158.4 Z"/>

<path fill="#996666" stroke="none" d="
M 206.15 232.95
Q 206.5 233 206.85 232.75 209.05 231.35 209.8 228.9 210.5 226.6 211.1 224.65 212.85 218.55 214.6 212.3
L 199.1 207.45 190.8 202.8
Q 193.4 212.45 193.15 222.65 192.95 229.95 192.45 237.15 194.05 235.65 195.2 233.65 195.8 232.6 196.65 232.3 201.45 231.65 206.15 232.95
M 66.45 183.8
L 62.55 186.7 43.15 197.45
Q 42.45 204.8 41.05 211.95 39.4 220.7 42.55 229 44 232.9 45.95 236.7 47.05 238.7 49.3 238.3 51.5 237.75 53.75 237.45 59.25 236.7 64.2 234.65 66.3 233.85 68.55 233.65 69.5 232.75 70 231.4 70.55 230 71.75 229.3 72.65 228.8 73.4 229.25 73.55 229.4 73.75 229.6 74.15 230.85 73.9 232.15 73.6 233.7 72.7 235.2 72.35 235.8 72 236.4 73.55 244.05 80.15 248.05 84.45 250.55 89.15 248.95 88.2 244.15 86.4 240.05 79.25 223.6 83.55 206.2 85.25 199.4 92.35 197.95 95.7 197.15 99.2 197.15 103 197.15 106.85 197.15 93.45 194.9 80.55 190.6 75.85 189.1 71.75 186.4 69.35 184.8 66.45 183.8
M 175.25 190.45
Q 176.7 190.3 178.2 190.15
L 176.7 187.75 175.15 188.45
Q 166.9 192.55 157.85 194.65 156.65 195 155.45 195.2
L 155.4 196.05
Q 165.15 192.35 175.25 190.45
M 235.6 21.45
Q 234.35 16.8 230.95 13.5 228.35 11 225.15 9.75 216.8 6.25 208.1 7.8 204.7 8.5 201.45 10.15 192.6 14.8 184.7 20.8 175.05 28.2 165.35 35.55
L 180.3 38.8 182.1 38.15
Q 191.6 35.9 201.4 35 209.8 34.25 218.35 34.1 227.15 33.95 235.85 33.75 237.3 27.65 235.6 21.45 Z"/>

<path fill="#90F4E0" stroke="none" d="
M 99.45 229.85
Q 95.05 238.05 97.15 246.85 97.5 248.35 97.55 249.95
L 102.35 256.5
Q 114.8 259.4 127.7 258.35 151.5 255.9 173.15 245.35
L 174.5 225.2
Q 170.25 227.4 165.2 226.05 162.5 225.5 159.85 225.2 139.55 222.65 119.25 223.25 111.55 223.45 103.85 224.05
L 99.45 229.85 Z"/>

<path fill="#13A372" stroke="none" d="
M 143.6 219.45
Q 142.25 219.8 140.9 220.15
L 171.75 223.1 174.2 223.9 173.9 212.5
Q 158.35 214.65 143.6 219.45 Z"/>
</g>
</defs>

<g transform="matrix( 1, 0, 0, 1, 21,6.75) ">
<g transform="matrix( 1, 0, 0, 1, 0,0) ">
<use xlink:href="#brook_0_Layer1_0_FILL"/>
</g>

<g transform="matrix( 1, 0, 0, 1, 0,0) ">
<use xlink:href="#brook_0_Layer0_0_FILL"/>
</g>
</g>
</svg>
