
<svg xmlns="http://www.w3.org/2000/svg" version="1.1" xmlns:xlink="http://www.w3.org/1999/xlink" preserveAspectRatio="none" x="0px" y="0px" width="150px" height="150px" viewBox="0 0 150 150">
<defs>
<g id="Layer0_0_FILL">
<path fill="#FFFFFF" stroke="none" d="
M 77.25 104.9
Q 76.2 104.45 75.45 104.55 74.7 104.7 74.2 105.35 73.7 106 73.75 106.75 73.75 107.9 74.95 108.75 75.7 109.3 77.2 109.6 81.55 110.45 85.55 108.75 87.4 107.95 87.45 106.75 87.45 106.2 87.05 105.7 86.65 105.25 86.1 105.1 85.25 104.8 83.8 105.2 82.15 105.8 81.6 105.9 80.3 106.15 79.05 105.65 77.85 105.15 77.25 104.9
M 28.5 65.8
Q 28 66.75 28.2 67.75 28.5 68.9 30.45 70.45
L 33.05 72.4
Q 35.2 73.95 36.6 74.25 36.75 75.35 37 76.25 37.55 78.05 39.15 80.75 40.95 84.1 42.75 85 44.05 85.75 46.2 85.75 47.8 85.75 49.35 85.2 51.5 84.35 53.1 82.2 54.5 80.3 55.15 77.75 55.7 75.65 55.7 73.7 55.85 69.05 53.8 64.95 52.8 62.9 51.45 61.6 49.75 60.1 47.75 60.05 51 59.65 53.9 60.7 56.2 61.6 57.1 61.5 58.65 61.4 59.45 60.1 60.3 58.95 59.8 57.4 59.1 55.3 55.6 54.4 50.2 52.95 45.95 54.55 43.15 55.55 40.9 57.95 38.8 60.15 37.65 63.1 37.15 64.4 36.9 65.65 34.85 64.5 34 64.25 31.75 63.45 30 64.35 29.05 64.85 28.5 65.8
M 71.05 19.6
L 71.5 19.45
Q 71.8 19.15 71.55 19 69.55 19.05 66.85 19.7 63.75 20.5 62.2 20.85 58.3 21.65 56.4 22.15 53.05 22.95 46.25 25.7 43.9 26.6 42.75 27.45
L 41.15 28.6 37.7 30.1
Q 36.9 30.55 37.15 31.05 37.35 31.4 38.1 31.15
L 44.9 28.8
Q 46.6 28.2 53.5 25.4 57.25 23.95 65.8 21 69.45 19.85 71.05 19.6
M 8.2 -19.2
Q 5.2 -12.65 5.05 -6.8 4.9 0.45 8.85 5.2 12.05 9.05 19.45 11.95 21.45 12.75 25.4 14.3 28.8 15.75 31 17.25 31.3 17.45 31.55 17.6 24.6 20.8 18.1 24.7 -3.25 37.4 -4.3 38.8 -5.15 40 -5.25 41.4 -5.35 42.9 -4.5 43.95 -3.65 45 -0.9 45.65
L 3.95 46.8
Q -0.25 52.95 -2.25 57.25 -3.05 58.9 -4.2 61.9
L -7.25 69.5
Q -9.05 73.95 -9.6 76.65 -10.15 79.15 -10.15 82.85 -10.05 86.1 -9.25 87.45 -8.3 89.2 -5.35 90.65 -2.65 91.9 0.45 92.45
L 0.45 92.5
Q 0.6 102.75 4.1 112.5 6.1 118 8.6 120.9 10.9 123.55 13.35 123.7 15.4 123.8 18.25 121.65 18.55 121.4 18.85 121.2 19.45 122.7 20.45 124.6
L 24.55 132.4
Q 25.9 134.9 26.55 135.85 27.5 137.15 28.35 137.8 29.65 138.75 31.35 138.8 31.6 138.8 31.9 138.8 31.35 139.4 30.7 140.05 29.95 140.9 28.65 142.75 27.35 144.55 26.6 145.4 26.2 145.85 24.85 147.2 23.75 148.3 23.2 149.05 21.35 151.5 21.65 153.6 21.85 155.3 23.6 157.25 26.85 161 31.5 162.8 34.1 163.85 35.85 163.35 36.8 163.1 38.15 162.1 38.75 161.8 38.7 161.3 38.7 161 38.05 160.65 37.7 160.5 36.55 159.8 33.45 158.15 31.9 157.25 29.2 155.7 27.75 154.1 27.2 153.65 27.15 153.15 27 152.55 27.4 151.9 27.8 151.2 28.6 150.4 29.5 149.5 29.9 149 30.85 148 32.3 145.9 33.9 143.7 34.7 142.8 36.35 141.05 36.6 140.65 36.75 140.45 36.95 140.15 39 146.75 42.95 154.1 45.6 159.05 47.95 161.5 49.6 163.15 51.05 163.7 51.5 163.85 52.35 164.15 53.1 164.45 53.45 164.9 53.95 165.6 54.2 165.65 54.55 165.7 54.75 165.35 54.95 165 54.85 164.65 54.8 164.55 54.1 163.55 53.75 163.05 53.2 161.4 52.4 158.85 50.45 155.55 48.2 151.85 47.1 149.95 41.4 139.9 40.55 128.3 40.3 124 41 121.15 42.15 117.2 44.9 115.3 47.85 113.25 51.7 113.9 55.05 114.4 58 116.95 60.1 118.7 60.85 119 61.7 119.35 62.6 119.2 63.55 119 64.05 118.3 64.75 117.2 64.05 115.9 63.65 114.95 62.45 113.95 58.65 110.4 54.65 108.8 50.9 107.3 47.4 107.7 47.45 107.05 47.2 106.1 45.85 100.5 43.4 95.4 42.8 94.3 42.25 94.6 41.65 94.9 42.25 96.1 42.9 97.45 43.15 100 43.5 103.15 43.7 104 43.85 104.5 44.15 105.5 44.35 106.35 44.4 107 44.5 107.95 44.65 108.35 42.35 109.2 40.45 110.95 38.3 112.9 36.95 115.55 34.65 120.2 34.65 126.8 34.65 128.4 34.85 130.05 33.25 130.95 32.15 132.45 31.6 133.1 31.2 133 31.05 132.95 30.8 132.55
L 24.2 120.45
Q 23.2 118.75 22.5 117.65 23.95 115.95 25.25 113.95 28.1 109.55 29.5 104.45 29.75 103.55 30.7 99.4 31.4 96.3 32.15 94.45 32.75 93.05 32.55 92.3
L 31.95 92.45
Q 30.6 94.65 28.4 98.55 25.95 103 24.95 104.65 20.75 111.75 16 115.4 15.6 115.7 15.4 115.7 15.05 115.65 14.75 115.15 13.5 113.25 12.5 110.55 11.95 109 10.95 105.6
L 7.2 92.15
Q 6.95 91.25 6.7 90.6 6.8 90.35 6.9 90.1 7.4 88.8 6.8 87.8 6.25 86.8 4.5 86.1 2.4 85.15 -0.3 84.5 -1.3 84.3 -1.6 83.95 -1.9 83.65 -2 82.75 -2.3 79.9 -1.8 77.2 -1.45 75.55 -0.35 72.35
L 3.85 60.35
Q 4.75 58.1 7.05 53.85 9.35 49.6 10.25 47.35 10.9 45.95 10.9 44.9 10.9 44.5 10.85 44.15
L 11.9 41.8
Q 11.05 41.15 9.95 40.85 9.35 40.7 7 40.35 5.15 40.05 4.1 39.6 40.7 15.65 65.85 11.35 85.75 7.9 91.55 7.2
L 91.65 7.05
Q 92.45 6.95 93.6 6.9 96.2 6.7 97.75 6.8 98.35 6.8 98.6 7.05 98.85 7.35 98.75 8.25
L 98.25 10.45
Q 97.95 12.05 98 13.15 97.45 14.5 96.9 15.9 98.4 16.2 100.35 16.35 100.65 16.4 100.95 16.45 101.7 16.55 102.35 16.4 103.35 16.45 105 16.45 126.15 16.85 140.9 25.6 142.8 26.75 142.85 27.9 142.85 28.2 142.8 28.6 141.6 30.4 140.55 32.2 140.3 32.6 140.15 32.95 139.95 33.3 139.75 33.65 139.25 34.5 138.85 35.55 138.4 36.6 138.25 37.65 138.05 38.6 138.15 39.9 138.3 42.15 139.05 43.6 138.75 44.9 139.5 47.2 146.5 68.4 144.55 90.5 144.25 93.55 143.55 94.8 143.4 95.1 142.8 96.05 142.45 96.6 142.3 97.05 141.85 96.95 141.4 96.95 122.85 95.6 102.55 84.35 94.6 79.95 85.15 73.3 80.3 69.85 68.55 61.05 66.7 59.6 65.45 59.5 64.55 59.4 63.8 60 63 60.6 63.05 61.45 63.1 62.35 64.3 63.35 79.4 77.4 95.4 86.75 107.85 94 120.5 98.2 119.15 99.75 117.15 101.3 115.7 102.45 112.5 104.6 109.4 106.5 108.55 106.95 106.55 107.95 103.25 109.05
L 99.35 110.4
Q 97.35 110.8 94 111.65 89.45 112.8 86.7 113.05
L 82.85 113.3
Q 82.55 113.35 82.3 113.4 81.7 113.05 80.9 113.1 79.8 113.2 79.25 114.05 78.9 114.6 78.7 115.95
L 78.5 119
Q 78.5 121.45 79.45 122.4 79.95 122.95 80.75 123.1 81.3 123.4 82.1 123.65 86.55 125 90.75 125 91.5 125 91.95 125.25 92.25 125.5 92.55 126.2 92.8 126.85 93 127.55 92.05 126.85 91.35 126.4 90 125.55 89.1 125.65 88.45 125.7 87.95 126.15 87.45 126.6 87.35 127.25 87.2 128.3 88.3 129.65 86.4 130.25 84.35 131.25 84.25 131.2 84.15 131.15 76.2 128.25 71.1 127.5 68.15 127.15 66.1 127.15 65.1 127.15 64.45 127.35 64.35 127.1 64.25 126.9 63.35 125.25 62.6 125 62.1 124.8 61.6 125 61.05 125.15 60.75 125.6 60.35 126.1 60.35 127.45 60.45 129.55 61.25 132.3 61.7 133.85 62.75 136.95 63.55 139.35 65.75 147.45 68.55 158.35 69.25 163.9 69.6 167.1 69.75 168.1 70.15 170.4 70.95 172.05 71.2 172.65 71.8 173.75 72.25 174.8 72.25 175.6 72.25 177.25 73 177.25 73.85 177.2 73.6 175.65 73.4 174.3 73.65 172.4 74 170.2 74.15 169.1 74.6 164.85 73.6 158.2 71.5 144.7 66.45 132.1 66.65 132.1 66.85 132.1 70.3 132.15 74.5 133.2 77.05 133.85 81.95 135.5 90.45 138.3 94.6 140.4 95.95 141 96.75 141.65 97.3 142.1 97.7 142.4 98.1 145.2 97.2 148.85 96.9 150.3 96.15 153.2 95.55 155.75 95.45 157.55 95.35 159.35 94.9 159.9
L 94.2 160.7
Q 93.85 161.25 94.3 161.6 94.7 161.8 95.55 160.95 95.9 160.6 96.6 160.35
L 97.8 159.9
Q 99.75 159.15 101.15 156.8 101.8 155.75 102.9 152.55 104 149 104.15 147.55 104.4 145.7 104.15 143.2 103.9 140.4 103.15 138.7 102.5 137.05 101.4 135.55 100.55 134.4 99.15 132.95 99.35 131.9 99.2 130.35 98.8 126.75 97.55 123.55 97.05 122.3 96.4 121.45 95.25 120.1 93.25 119.6 92.05 119.25 89.55 119.05 86.6 118.75 83.8 118.2 83.8 117.8 83.8 117.5 86.45 117.7 88.55 117.45 89.6 117.35 90.9 117.05 92.15 116.95 93.9 116.55
L 101.65 114.8
Q 105 114.1 107.3 113.35 108.9 112.85 112 111.45 121 107.2 125.75 101.7 126.5 100.85 126.95 100.1 128 100.35 129.05 100.65 129.05 100.9 129.05 101.15 129.45 105.3 130.35 113.55 131 120.75 130.5 126 130.3 128.2 129.6 132.25 129.5 133.1 129.15 133.5 128.65 133.95 127.45 133.85 126.6 133.75 122.3 132.6 120.4 132.1 118.9 132 118.55 131.75 118.05 131.7 117.25 131.6 116.7 132.1 115.9 132.7 115.7 134.3 115.5 135.8 115.55 137.95 115.55 139.15 115.65 141.6 115.7 142.7 115.6 144.95 115.45 149.45 114.4 152.65 114 153.75 113.5 154.2 112.85 154.75 111.8 154.85 110.65 155 107.15 154.55
L 104.85 154.35
Q 103.95 154.35 103.95 154.85 103.95 155.05 104.25 155.4 104.35 155.6 104.35 156.5 104.35 158.15 106.25 159.3 108.7 160.85 113.4 160.35 115.15 160.15 116.15 159.7 118.45 158.5 119.6 154.45 121 149.55 121 144.65 121 142.25 120.4 137.4 122.35 138.6 125.6 139.2 127.95 139.75 129.65 139.55 131.95 139.3 133.25 137.8 134.05 136.9 134.6 135 136.65 128.35 136.55 119.85 136.45 114 135.15 104.4 134.95 102.9 134.7 101.85 139.25 102.55 142.45 102.35 142.75 102.45 143.15 102.55 143.75 102.2 144.15 101.95 144.6 102.2 145.15 102.25 146.55 102.5 147.95 101.65 149.25 100.9 150.05 99.5 151.1 97.7 151.5 93.75 154.35 65.2 145.75 44.95 145.8 44.7 145.8 44.45 145.8 44.15 145.45 42.85 145.25 41.95 145.15 40.95 145.05 39.95 145.1 39.45 145.15 39.15 145.65 37.9
L 146.35 36.45
Q 146.75 35.85 147.15 35.05 148 33.55 149.1 31.15 150.2 28.75 150.1 27.3 150 25.1 147.35 22.55 143.6 19.1 137.9 16.75 133.75 15.05 127.05 13.45 118.7 11.45 112.4 10.8 108.85 10.4 105.55 10.4
L 105.7 9.3
Q 105.8 8.6 105.7 7.15 105.6 5 105.05 3.85 104.15 1.85 101.8 1.1 100 0.45 97.45 0.55 96.4 0.6 95.25 0.8 94.85 0.8 94.4 0.85 91 1.05 65.2 6.55 58.6 7.9 52.3 9.8 52.15 3.1 47.45 -5.15 42.25 -14.5 34.55 -22.05 30.15 -26.45 26.45 -28.05 21.15 -30.45 16.6 -28.7 11.65 -26.8 8.2 -19.2
M 15.85 -19.25
Q 17.1 -21.05 18.3 -21.75 20.45 -23 23.2 -22.05 25.15 -21.35 27.5 -19.4 30.45 -17 33.6 -13.35 35.35 -11.25 38.95 -6.6 42.9 -1.5 44.6 1.55 47.35 6.35 47.8 10.7 47.8 10.95 47.85 11.2 42.3 13 37 15.2 36.5 14.05 35.25 12.95 33.85 11.75 30 9.55 25.95 7.4 24.5 6.8 20.1 5.25 18.05 4.25 14.4 2.5 12.9 -0.2 11.65 -2.5 11.75 -5.9 11.75 -13.15 15.85 -19.25
M 91.5 133
Q 92.85 134.3 93.2 134.7 93.9 135.45 94.5 136.15 93.25 135.3 92.05 134.6 91.15 134.05 89.8 133.45 90.65 133.25 91.5 133 Z"/>
</g>
</defs>

<g transform="matrix( 1, 0, 0, 1, 0,0) ">
<use xlink:href="#Layer0_0_FILL"/>
</g>
</svg>
