
<svg xmlns="http://www.w3.org/2000/svg" version="1.1" xmlns:xlink="http://www.w3.org/1999/xlink" preserveAspectRatio="none" x="0px" y="0px" width="300px" height="300px" viewBox="0 0 300 300">
<defs/>

<g id="Layer_1">
<g id="Layer_1_copy" transform="matrix( 1, 0, 0, 1, 21.75,13.7) ">
<g>
<g>
<g>
<path fill="#2F003E" stroke="none" d="
M 256.95 40.15
Q 256.7 30.8 253.8 22.15 250.05 11.1 243.25 5.4 239.3 2 234.4 0.7 229.2 -0.7 224.55 0.7 221.55 1.55 216.8 4.65 211.25 8.4 204.85 13.75 201.05 16.9 193.55 23.6
L 172.55 42.5
Q 166.75 47.7 163.95 50.4 159.3 54.9 155.95 58.85 155.5 59.35 155.2 59.8 143.55 59.3 131.8 60.6 120.1 59.5 109.4 60.3 108.65 58.95 107.4 57.65 106.4 56.55 104.3 54.85
L 83.8 38
Q 65 22.5 55.25 15.2 49.35 10.75 45.4 8.45 39.75 5.15 34.55 3.8 28.5 2.25 22.65 3.4 16.35 4.65 12.4 8.75 9.1 12.25 6.85 18.9 4 27.3 3.6 36.75 3.2 45.7 5 54.9 7.95 70.1 16.2 82.6 24.95 95.75 37.7 102.75 37.9 102.85 38.1 102.95 36.8 105.9 35.85 109.05 23.7 148.7 29.8 190.35 27.25 190.15 23.25 191.4 20.8 192.15 19.6 192.8 17.7 193.8 16.85 195.3 15.9 196.9 15.9 200.35 15.9 208.6 16.8 212.65 18.6 220.7 24.85 227.6 30.5 233.85 38.75 237.95 39.95 238.55 40.75 239.1 40.55 241.35 43.2 244.75 45.8 247.95 47.6 249.25 48.9 250.2 52.15 251.6 54.95 252.8 56.4 253.3 57.8 253.75 61.55 254.5 64.75 255.1 66.9 255.3 68.6 255.45 71.95 255.45
L 75.8 255.5
Q 77.1 255.5 78.05 255.3 80.75 259.15 83.05 261.45 86.6 265.05 90.45 266.5 92.65 267.3 95.5 267.65 97.5 267.9 100.75 268 108.35 268.25 123.5 268.4 137.1 268.65 146.25 269.5 156.8 270.5 159.95 270.5 167.65 270.5 173.1 268.2 176.45 266.8 177.55 264.65 177.7 264.35 177.85 264.05 181.25 266.15 185 267.15 189.05 268.2 194.35 268.05 200.8 267.85 204.75 265.95 209.45 263.7 213.35 258.05 215.6 254.85 216.7 251.95 218 248.55 218.2 244.85 219.95 245.3 222.65 244.25 228.05 242.15 232.2 238.05 236.45 233.9 238.6 228.6 239.6 226.2 240.3 225.4 240.6 225.05 242.55 223.6 244.25 222.4 246.75 219.7 251.35 214.75 253.15 210.65 255.75 204.8 253.7 199.8 251.95 195.35 246.95 192.9 243.15 191.05 237.4 190.6 236.45 190.55 235.7 190.6 235.6 190.25 235.45 189.9 234.7 184.25 235.35 178.8 237.9 156.8 234.8 135.15 231.9 115.1 221.75 98 222.2 97.8 222.65 97.55 223.05 97.3 223.5 97.05 223.6 97.05 223.75 97.05 225.8 96.9 227.95 95.7 231.85 93.6 236.25 89.45 242.95 83.1 247.75 75.2 252.55 67.15 254.85 58.35 257.25 49.4 256.95 40.15
M 199.5 132.95
Q 199.5 141.7 193.3 147.9 187.1 154.1 178.35 154.1 169.6 154.1 163.4 147.9 157.2 141.7 157.2 132.95 157.2 124.2 163.4 118 169.6 111.8 178.35 111.8 187.1 111.8 193.3 118 199.5 124.2 199.5 132.95 Z"/>

<path fill="#117F9A" stroke="none" d="
M 193.3 147.9
Q 199.5 141.7 199.5 132.95 199.5 124.2 193.3 118 187.1 111.8 178.35 111.8 169.6 111.8 163.4 118 157.2 124.2 157.2 132.95 157.2 141.7 163.4 147.9 169.6 154.1 178.35 154.1 187.1 154.1 193.3 147.9 Z"/>
</g>
</g>
</g>
</g>

<g id="Layer_1" transform="matrix( 1, 0, 0, 1, 21.75,13.7) ">
<g>
<g>
<g>
<path fill="#E5F7EB" stroke="none" d="
M 5.5 166.15
Q 4.65 167.5 4.95 170.25 5.05 171.35 4.7 171.8 4.35 172.25 3.25 172.45 0.8 173.1 0.2 174.75 -0.15 175.65 0.15 176.7 0.5 177.7 1.3 178.3 2.85 179.55 5.1 179.1 5.3 180.55 6.6 181.45 7.95 182.4 9.35 182.1 10.8 181.8 11.6 180.4 12.45 179.05 12.05 177.65 12.1 177.65 15.1 177.1 16.9 176.8 17.7 175.9 18.4 175.2 18.5 174.2 18.6 173.15 18.1 172.35 16.85 170.3 12.4 170.5 12.15 169.9 12.05 168.6 11.9 167.3 11.65 166.7 10.8 164.8 8.75 164.55 7.8 164.5 6.9 164.9 6.05 165.35 5.5 166.15
M 242.25 94.6
Q 241.15 94.2 240 94.95 238.9 95.65 238.5 96.85 237.95 98.45 238.55 101.7 236.4 101.9 235.45 102.35 233.75 103.25 233.65 104.85 233.65 106.55 235.6 107.4 236.7 107.95 238.9 107.95 238.4 111.85 239.3 113.7 239.95 115.05 241.45 115.65 243 116.3 244.1 115.45 245.6 114.4 245.4 112 244.9 109.5 244.85 108.2 247.35 107.9 248.6 106.9 249.4 106.2 249.75 105.25 250.1 104.2 249.7 103.3 249.2 101.9 247.35 101.45 246.5 101.25 244.3 101.35 244.4 98.85 244.25 97.6 243.95 95.15 242.25 94.6
M 190.7 121.55
Q 187.4 117.1 184.3 115.95 182.45 115.25 178.85 115.15 173.75 114.95 171 115.15 166.65 115.5 163.45 116.85 158.65 118.95 155.1 123.8 152 128.1 150.3 133.9 149.9 135.3 149.95 136.05 150 136.5 150.6 138.5 150.9 139.35 151.15 140.7 151.25 141.45 151.5 142.95 152.9 149.9 157.95 154.95 162.1 159 167.15 160.25 171.2 161.3 177.5 160.55 183.05 159.8 186.45 158 186.85 157.75 187.25 157.5 187.35 157.45 187.45 157.4 189.1 156.25 190.95 154.3 196.95 147.95 197.6 140.85 197.95 137.1 196.75 133 195.15 127.65 190.7 121.55
M 165.85 121.75
Q 170.3 116.95 176.2 116.45 181.95 115.9 186.95 119.6 189.85 121.7 192 124.9 195.65 130.3 195.6 136.2 195.55 139.25 194.35 142.05 193.1 144.95 190.85 146.85 189.25 148.2 186.3 149.6 183.9 150.7 182.3 151 181.15 151.2 178.75 151.2 175.2 151.2 173.2 150.7 170.35 149.9 167.4 147.3 163.75 144.15 162.45 140.4 161.65 138 161.65 134.3 161.65 129.4 162.95 126.25 163.95 123.9 165.85 121.75 Z"/>

<path fill="#2F003E" stroke="none" d="
M 256.95 40.15
Q 256.7 30.8 253.8 22.15 250.05 11.1 243.25 5.4 239.3 2 234.4 0.7 229.2 -0.7 224.55 0.7 221.55 1.55 216.8 4.65 211.25 8.4 204.85 13.75 201.05 16.9 193.55 23.6
L 172.55 42.5
Q 166.75 47.7 163.95 50.4 159.3 54.9 155.95 58.85 155.5 59.35 155.2 59.8 143.55 59.3 131.8 60.6 120.1 59.5 109.4 60.3 108.65 58.95 107.4 57.65 106.4 56.55 104.3 54.85
L 83.8 38
Q 65 22.5 55.25 15.2 49.35 10.75 45.4 8.45 39.75 5.15 34.55 3.8 28.5 2.25 22.65 3.4 16.35 4.65 12.4 8.75 9.1 12.25 6.85 18.9 4 27.3 3.6 36.75 3.2 45.7 5 54.9 7.95 70.1 16.2 82.6 24.95 95.75 37.7 102.75 37.9 102.85 38.1 102.95 36.8 105.9 35.85 109.05 23.7 148.7 29.8 190.35 27.25 190.15 23.25 191.4 20.8 192.15 19.6 192.8 17.7 193.8 16.85 195.3 15.9 196.9 15.9 200.35 15.9 208.6 16.8 212.65 18.6 220.7 24.85 227.6 30.5 233.85 38.75 237.95 39.95 238.55 40.75 239.1 40.55 241.35 43.2 244.75 45.8 247.95 47.6 249.25 48.9 250.2 52.15 251.6 54.95 252.8 56.4 253.3 57.8 253.75 61.55 254.5 64.75 255.1 66.9 255.3 68.6 255.45 71.95 255.45
L 75.8 255.5
Q 77.1 255.5 78.05 255.3 80.75 259.15 83.05 261.45 86.6 265.05 90.45 266.5 92.65 267.3 95.5 267.65 97.5 267.9 100.75 268 108.35 268.25 123.5 268.4 137.1 268.65 146.25 269.5 156.8 270.5 159.95 270.5 167.65 270.5 173.1 268.2 176.45 266.8 177.55 264.65 177.7 264.35 177.85 264.05 181.25 266.15 185 267.15 189.05 268.2 194.35 268.05 200.8 267.85 204.75 265.95 209.45 263.7 213.35 258.05 215.6 254.85 216.7 251.95 218 248.55 218.2 244.85 219.95 245.3 222.65 244.25 228.05 242.15 232.2 238.05 236.45 233.9 238.6 228.6 239.6 226.2 240.3 225.4 240.6 225.05 242.55 223.6 244.25 222.4 246.75 219.7 251.35 214.75 253.15 210.65 255.75 204.8 253.7 199.8 251.95 195.35 246.95 192.9 243.15 191.05 237.4 190.6 236.45 190.55 235.7 190.6 235.6 190.25 235.45 189.9 234.7 184.25 235.35 178.8 237.9 156.8 234.8 135.15 231.9 115.1 221.75 98 222.2 97.8 222.65 97.55 223.05 97.3 223.5 97.05 223.6 97.05 223.75 97.05 225.8 96.9 227.95 95.7 231.85 93.6 236.25 89.45 242.95 83.1 247.75 75.2 252.55 67.15 254.85 58.35 257.25 49.4 256.95 40.15
M 244.85 24.75
Q 247.55 33.15 247.6 42 247.65 50.9 245 59.25 242.35 67.6 237.1 74.8 233.7 79.55 229.45 83.3 229.45 83.15 229.4 83 228.9 80.15 227.3 77.75 226.85 77.1 226.85 76.7 226.85 76.4 227.3 75.6 228.7 73.3 228.95 70.35 229.15 67.55 228.2 64.85 226.5 59.8 221.6 56.1 218.2 53.35 214.55 52.35 211.3 51.5 206.55 51.75 199.6 52.25 194.25 54.75 188.05 57.65 184.75 63 184.25 63.75 184.05 64.4 177.6 62.15 170 61.1 166 60.55 162 60.25 180.2 45.7 198 30.25 206 23.3 208.35 21.3 214.25 16.35 219.1 12.9 223.55 9.75 226.5 9.15 229.6 8.55 232.95 9.75 236.05 10.9 238.5 13.3 242.45 17.25 244.85 24.75
M 188.75 66.3
Q 192.95 63.1 198.15 61.45 203.35 59.85 208.75 60.05 211.6 60.15 213.45 60.95 215.15 61.65 216.8 63.2 219.4 65.75 220.7 69.15 221.45 71.25 221 72.7 220.9 73.05 219.85 74.85 219.1 76.1 219.25 77 219.4 77.75 220.15 78.5 220.55 78.95 221.5 79.8 222.7 80.95 223.2 82.65 223.65 84.25 223.4 85.95 223.2 87.35 222.55 88.6 221.2 89.65 220.6 90.5 220.2 91.05 220 91.6 219.4 92 218.3 92.6 212.35 83.95 200.7 73.85 195.45 69.3 188.75 66.3
M 213.65 133.8
Q 214.4 132.85 214.6 131.65 214.8 130.4 214.4 129.3 213.5 126.8 210.95 126.25 209.35 125.9 207.3 126.65 206.35 127 203.75 128.35 202.5 129.05 201.65 129.55 199.4 123.1 194.3 117.1 191.05 113.3 188.05 111.7 184.05 109.6 176.25 109.6 170.4 109.6 167.15 110.3 162.5 111.3 158.45 114 154.35 116.75 151.65 120.65 149.6 123.6 148 127.75 145.6 134.15 145.55 140.3 145.55 141.35 145.65 142.35 136.4 144.25 126.85 144.15 122.6 144.1 117.05 143.6 115.15 143.4 107.9 142.6 104.2 139.95 98.85 138.4 94.55 137.15 90.15 136.95 89.95 136 89.15 135.05 88.95 134.85 87.3 133.35 83.15 129.6 82.05 123.25 81.15 118.35 82.45 111.7 83 109.05 83.75 107.55 84.3 106.5 85.7 104.6 89.9 99 92.8 96.55 93.45 96 96.65 93.6 99 91.85 100.25 90.45 101.05 89.65 100.9 88.95 100.65 88.1 99.55 88.1 98.85 88.15 97.95 88.7 89.2 93.55 82.4 99.9 80 102.1 78.75 103.85 76.8 106.5 75.9 109.5 74.75 113.25 74.85 120.65 74.85 124.2 75.15 125.95 75.6 128.85 77.25 131.95 75.7 133.9 73.15 136.5 68.2 141.55 63.65 145.8 62.75 146.75 62.55 146.95 62 147.7 61.8 148.45 61.75 148.55 61.7 148.6 60.5 147.5 59 146.7 57.3 145.75 55.55 145.7 53.55 145.6 52.25 146.65 51.1 147.6 50.85 149.2 50.65 150.8 51.5 152.05 52.2 153.05 54.15 154.1 55.5 154.8 57.5 155.5 58.05 155.7 58.55 155.8 58.4 157.05 58.75 158.15 58.4 158.7 58.05 159.35 56.2 163.1 57.4 165.5 58.1 166.95 59.75 167.6 60.95 168.1 62.05 167.9 66.1 175.35 75.05 181.85 83.15 187.65 93.95 190.8 104.7 193.9 113.85 194.25 118.3 194.45 121.2 194.4 121 195.1 120.85 196.2 120.3 199.5 120 200.9 119.95 201.25 119.9 201.6 118.9 200.7 116.8 200.05
L 109.3 197.65
Q 105 196.25 102.3 195.8 99.95 195.4 96.2 195.4 91.05 195.3 90.05 195.25 89.7 195.25 89.4 195.25 89 195.05 88.55 194.9 87.25 194.55 85.9 194.9 85.35 195.05 84.8 195.35 84.65 195.35 84.5 195.4 83.25 195.7 81.85 196.55 82.2 196.75 82.55 197 82 197.45 81.5 198 78 201.85 76.55 206.95 75.4 210.85 75.4 216.3 75.4 221.5 76.4 226.8 76.8 229 77.4 230.8 77.4 230.85 77.4 230.95 77.4 231.05 77.45 231.15 77.35 231.35 77.25 231.55 74.55 237.9 74.45 245.35 74.45 247.6 74.7 249.4 70.05 249.4 64.85 248.75 59.7 248 56.95 246.4 55.4 245.45 53.8 243.85 51.8 241.95 50.05 239.45 49.8 239.1 49.6 238.85 49.5 238.45 49.45 238.2 49.05 236.65 48.35 235.65 47.7 234.75 46.5 234 46.05 233.7 44.35 232.75 37.05 228.65 32.05 221.65 27 214.6 25.5 206.35 24.8 202.2 26.25 200.3 26.95 199.4 28.35 198.65 30.1 197.85 30.9 197.45 31.5 197.15 32.05 196.75
L 32.35 196.7
Q 32.45 196.55 32.5 196.4 32.8 196.05 33.1 195.7 34.05 194.5 33.8 193.2 33.75 192.75 33.5 192.35 34.8 185.75 34.25 178.75 31.55 147.1 41.25 117.1 48.3 95.2 67.1 82.5 77.4 75.55 93.65 69.8 109.9 64 133.35 67.45 177.8 64.45 196.5 80.3 214.55 95.55 221.4 118.35 232.4 154.85 230.65 193.35 230.45 197.05 233.7 196.5 234.35 196.8 236.85 197.35 240.15 198.05 243.2 199.55 246.25 201.05 246.6 203.05 246.9 204.5 245.8 206.75 244.15 210.3 242.95 212.2 241.15 215.1 238.95 216.75 238.55 217.05 236.85 218.2 235.55 219.05 234.85 219.75 233.35 221.15 232.1 224.15 230.3 228.35 229.95 229 227.1 234 219.75 237.25 218.4 237.85 217.75 238.3 217.5 237.05 217.15 235.8 215.3 228.85 209.95 221.2 208.15 218.65 206.75 217.85 205.85 217.35 204.9 217.3 208.9 212.8 209 208.15 212.6 207 214.2 205.55 216.85 203.3 216.45 200.35 216.35 199.6 215.95 198.75 216.5 198 216.95 197.35 218.7 194.65 220.5 188.7 221.6 185.1 221.75 183.3 221.9 181.55 221.55 178.6 219.8 165.7 213.1 154.5 212.6 153.7 212.15 153.5 211.95 153.95 212.15 154.65 212.3 155 212.65 155.75 213.1 156.65 213.15 158.15 213.15 159 213.15 160.65 213.25 161.95 213.8 164.5 214.45 167.75 214.45 171.9 214.45 174.4 214.15 179.35 214.05 181.6 213.85 182.7 213.6 184.1 212.8 186.4 211.4 190.5 210.25 192.35 210.15 192.5 210.1 192.65 209.6 192.25 209.2 192.05 207.6 191.1 207.25 190.7 206.7 189.95 206.7 188.5 206.7 186.4 206.65 186.05 206.35 184.75 205.25 183.75 204.2 182.85 202.8 182.5 201 182.05 197.3 182.45
L 193.8 182.9
Q 192.5 171.85 190.1 163.05 190.6 162.7 191.1 162.3 191.7 163.5 192.9 164.8
L 195.15 166.95
Q 196.45 168.2 196.9 168.55 197.9 169.4 198.85 169.75 200.2 170.25 201.7 169.85 203.15 169.45 204.1 168.35 205.05 167.2 205.2 165.7 205.35 164.2 204.65 162.95 203.9 161.6 201.8 160.05
L 199.55 158.35
Q 197.95 157.15 196.75 156.55 197 156.2 197.25 155.9 199.45 153.05 200.6 150.95 202.7 147.05 203.25 142.3 203.5 140 203.35 137.7 203.5 137.7 203.7 137.7 205.7 137.7 209.4 136.4 212.6 135.2 213.65 133.8
M 184.3 115.95
Q 187.4 117.1 190.7 121.55 195.15 127.65 196.75 133 197.95 137.1 197.6 140.85 196.95 147.95 190.95 154.3 189.1 156.25 187.45 157.4 187.35 157.45 187.25 157.5 186.85 157.75 186.45 158 183.05 159.8 177.5 160.55 171.2 161.3 167.15 160.25 162.1 159 157.95 154.95 152.9 149.9 151.5 142.95 151.25 141.45 151.15 140.7 150.9 139.35 150.6 138.5 150 136.5 149.95 136.05 149.9 135.3 150.3 133.9 152 128.1 155.1 123.8 158.65 118.95 163.45 116.85 166.65 115.5 171 115.15 173.75 114.95 178.85 115.15 182.45 115.25 184.3 115.95
M 186.6 164.8
Q 186.65 165.3 186.7 165.85 186.95 167.8 187.3 171.2 186.55 171.7 185.85 172.7 185.1 172 184.25 171.65 182 170.75 179.55 172.25 177.95 173.2 176 175.65 172.4 180.2 170 185.35 168.95 185.75 167.7 186.2 163.5 187.7 159.15 188.75 156.05 189.45 155.1 189.75 152.9 190.4 151.45 191.45 151.05 191.85 151.1 192.05 151.2 192.1 151.3 192.2 151.25 192.25 151.2 192.3 150.55 193.45 150.8 195.15 150.95 196.1 151.45 198 151.45 198.05 151.5 198.1 151.45 198.35 151.45 198.6 151.3 207.45 149.75 216.8 149.5 218.2 149.55 219 147.8 219.05 145.9 219.2 138 220.15 134.05 220.25 129.8 220.35 122.85 219.5 122.35 219.45 121.95 219.4 122 218.95 122.05 218.4
L 122.85 211.4
Q 123.25 207.8 122.4 205.9 122.85 205.95 123.35 205.85 124.7 205.6 125.25 204.65 125.75 203.95 125.85 202.2
L 126.25 196.75
Q 126.45 195 126.15 193.95 126.35 193.9 126.6 193.85 126.35 193 126.2 192.1 125.3 192 124.45 191.95 124.2 191.85 124 191.85 123.75 191.8 123.5 191.85 107.2 190.55 106.15 190.25 105 190 103.75 189.7 96.65 188.1 91.75 186.2 85.4 183.65 81.05 179.95 75.9 175.6 72.5 168.7 71.25 166.1 70.2 163 69.5 160.8 69.25 160.25 68.7 158.95 67.95 158.2 67.95 158.1 68 158 68.55 156.55 68.85 155.8 70.75 151.45 75.35 148.75 79.05 146.5 84.5 145.45 89.8 144.45 94.4 145.15 99.75 145.9 103.4 148.8 104.2 149.45 105.85 150.75 107.3 151.75 108.6 151.85 110.15 151.95 111.35 150.8 112.6 149.65 112.45 148.15 112.45 147.9 112.35 147.6 131.1 149.7 146.35 146.9 147.1 149.85 148.55 152.4 150.55 155.9 154.8 159.7 160.1 164.4 165.05 165.8 168.9 166.95 175.6 166.65 182.3 166.35 186.6 164.8
M 177 187.75
Q 177.45 186.65 177.9 185.85 179.9 181.95 182.55 179.6 183.15 180.6 183.55 182.1 183.75 182.85 184.05 184.15 184.1 184.45 184.15 184.75 185 188.15 186.85 189.25 187.2 189.45 187.6 189.6 188.95 190.1 191.15 189.85 192.35 189.7 194.45 189.2 195.15 189.05 196.05 188.8 198.95 188.2 200.95 188.5 198.95 192.55 200.45 194.45 201.1 195.25 202.4 195.75 203.2 196.05 204.75 196.45 205.5 196.7 206.2 197.1 207.2 197.65 208.05 198.45 209.5 199.85 210.2 201.65 209.55 202.05 207.25 202.8 205.35 203.4 204.55 204.3 203.85 205.1 203.5 206.6 203.3 207.45 202.95 209.2 202.9 209.35 202.85 209.55 202.35 211.35 201.1 212.85 199.75 214.5 197.9 215.35 196.55 215.95 195.9 216.25 194.75 216.75 194.2 217.45 193.3 218.55 193.6 220.05 193.35 220.9 193.35 222.1 193.35 223.7 193.75 224.65 191.35 224.9 188.95 224.9 186 224.9 184.05 224.2 182.8 223.8 179.9 222 176.85 220.2 176.05 219.5 175.05 218.6 173.55 216.7 172.3 215.1 171.4 213.85 172.15 212.25 170.5 209.3
L 165.9 200.8
Q 167.55 201 169.15 200.4 170.8 199.8 171.95 198.6 173.45 197.05 174.85 193.15 176 189.9 177 187.75
M 96.35 57.5
Q 99.5 59.55 102.15 61.05 90.3 62.65 79.75 66.75 79.45 66.3 79 65.9 77.5 64.8 76.8 64.25 75.75 63.5 73.75 61.15 68.85 55.85 61.95 53 55.05 50.15 47.8 50.5 43.65 50.7 41.25 52.1 39.2 53.2 37.05 56.2 32.9 61.9 32.45 68.2 32.2 71.5 33.1 74.7 34.05 77.9 36.1 80.4 33 85.3 32.75 90.2 23.7 81.75 18.05 65.6 9 40.15 16.15 21.7 18.3 16.1 21.65 14 25.75 11.45 32.3 13 37.6 14.3 43.35 17.8 47.15 20.15 53.3 25 60.35 30.55 74.45 41.7 86.75 51.2 96.35 57.5
M 39.85 95.35
Q 38.3 93.35 39.1 88.7 39.5 85.85 40.6 84.7 40.8 84.45 42.1 83.5 43 82.8 43.3 82.15 43.65 81.25 43.2 80.1 42.95 79.4 42.1 78.15 39.35 74.25 39.1 71.45 38.95 69.5 40.05 66 41.5 61.7 43.45 60.1 46.35 57.6 52.45 58.2 61.4 59.2 67.05 63.85 68.1 64.7 70.05 66.55 71.95 68.4 73 69.2 73.2 69.35 73.4 69.5 69.9 71.1 66.6 73.05 55.5 79.5 46.9 89.2 43.95 92.55 41.65 96.25 41.5 96.15 41.35 96.1 40.6 95.75 39.85 95.35
M 80.1 136.4
Q 80.15 136.45 80.2 136.55 80.6 137.05 80.95 137.5 79.8 137.7 78.7 138 79.15 137.45 79.35 137.25 79.7 136.85 80.1 136.4
M 159.4 205.55
Q 158.7 206.5 158.5 207.75
L 158.5 207.8
Q 158 208.25 157.75 208.85 157.1 210.25 157.4 213 157.65 216.4 158.05 219.8 157.8 219.75 157.6 219.7 156.1 219.35 154.4 219.2 154.7 218.25 154.8 216.8
L 156.1 202.75
Q 156.9 202.7 158.05 202.4 158.45 203.8 159.4 205.55
M 158.5 223.85
Q 159.25 230.55 160.2 235.1 161.8 242.75 164.55 248.6 167.65 255.2 172.55 259.9 171.7 260.25 170.5 260.9 165 263.8 157 264.25 153.2 264.4 142.65 263.8 133.8 263.3 124.85 263.35 114.6 263.5 112.95 263.45 106.2 263.25 101.2 262.1 95 260.65 90.25 257.35 85.05 253.7 82.7 248.5 82.45 247.95 82.25 247.5 82.2 247.1 82.15 246.7 82.05 244.85 82.4 242 83.4 235.35 85.95 231.4 88.25 227.8 93.4 224.1 94.3 223.5 95.2 222.95 96.3 223.2 97.95 223.1 108.25 222.5 115.7 222.2 115.85 222.4 116 222.6
L 116.9 222.1
Q 117.55 221.85 118.45 221.85 118.95 221.85 120 221.95 120.65 222 121.1 222.05 124.6 221.9 127.25 221.9 143.6 221.8 156.4 223.75 157.75 223.9 158.5 223.85
M 111.55 207.3
Q 112.05 205.6 112.2 204.75 112.25 204.5 112.25 204.3 115.85 204.7 119.25 204.35
L 119.3 204.35
Q 118.3 204.95 117.9 207
L 115.45 218.1
Q 115.4 218.4 115.35 218.7 112.85 218.4 111.6 218.35 111.1 218.3 108.15 218.3
L 111.55 207.3
M 101.9 202.35
Q 103.9 202.55 107.4 203.4 107.35 203.5 107.3 203.65 106 208 104.15 212.3 104.1 212.2 104.05 212.15 103.45 211.5 102.5 211.35 101.55 211.2 100.6 211.55 100.2 211.7 99.6 212.05 99.1 211.85 98.45 211.65
L 91.4 209.4
Q 87.3 208.1 85.7 206.65 85.65 206.6 85.15 206.05 86.3 203.95 87.95 202.6 88.8 202.45 89.9 202.4
L 97.25 202.25
Q 100.85 202.25 101.9 202.35
M 83.75 222.15
Q 83.3 219.85 83.05 218.3 82.75 216.35 82.65 214.6 82.7 214.15 82.75 213.75 82.8 213.25 82.9 212.85 86.5 214.25 93.25 216.15 92.45 216.55 91.55 217.05 87.5 219.2 85.65 220.55 84.65 221.3 83.75 222.15
M 203.4 226.35
Q 206.35 230.9 208.2 235.45 210.45 241.1 210 244.85 209.6 247.9 207.5 251.4 205.65 254.6 203.75 256.05 200.8 258.4 195.3 258.75 191.05 259.1 187.8 258.3 183.35 257.25 179.4 254 175.8 251.05 173.2 246.7 169.35 240.25 167.15 228.65 166.3 223.75 165.75 220.8 167.85 222.7 170.15 224.15 172.55 225.65 177.5 227.8 181.8 229.7 184.15 230.05 185.6 230.25 187.55 230.2 188.65 230.2 190.95 230.05 194 229.95 194.9 229.8 197.1 229.5 198.55 228.6 200.15 227.6 201.3 225.55 201.65 224.95 202 224.1 202.1 224.2 202.15 224.35 202.15 224.4 203.4 226.35
M 200.6 221.9
Q 200.6 221.5 200.55 221.2 200.8 221 201.05 220.8 201.05 221.45 201.2 222.2 201.2 222.3 201.25 222.35 201.15 222.5 201.1 222.65 200.9 222.9 200.55 223.1 200.6 222.55 200.6 221.9
M 140.15 177.2
Q 141.25 176.4 141.3 175.4 141.4 174.2 140.3 173.65 139.3 173.1 138.2 173.5 137.65 173.7 136.45 174.65 135.4 175.45 134.65 175.6 133.6 175.8 132.1 175.05 129.85 173.8 129.65 173.7 128.1 173.1 126.9 173.65 126.25 173.9 125.9 174.6 125.55 175.35 125.8 175.95 126.05 176.6 127.35 177.3 129.65 178.55 131.1 179.1 133.2 179.9 135.1 179.9 136.05 179.9 136.75 179.55 137.75 178.8 138.25 178.45 139.5 177.65 140.15 177.2 Z"/>

<path fill="#FF3366" stroke="none" d="
M 200.55 221.2
Q 200.6 221.5 200.6 221.9 200.6 222.55 200.55 223.1 200.9 222.9 201.1 222.65 201.15 222.5 201.25 222.35 201.2 222.3 201.2 222.2 201.05 221.45 201.05 220.8 200.8 221 200.55 221.2
M 208.2 235.45
Q 206.35 230.9 203.4 226.35 202.15 224.4 202.15 224.35 202.1 224.2 202 224.1 201.65 224.95 201.3 225.55 200.15 227.6 198.55 228.6 197.1 229.5 194.9 229.8 194 229.95 190.95 230.05 188.65 230.2 187.55 230.2 185.6 230.25 184.15 230.05 181.8 229.7 177.5 227.8 172.55 225.65 170.15 224.15 167.85 222.7 165.75 220.8 166.3 223.75 167.15 228.65 169.35 240.25 173.2 246.7 175.8 251.05 179.4 254 183.35 257.25 187.8 258.3 191.05 259.1 195.3 258.75 200.8 258.4 203.75 256.05 205.65 254.6 207.5 251.4 209.6 247.9 210 244.85 210.45 241.1 208.2 235.45
M 83.05 218.3
Q 83.3 219.85 83.75 222.15 84.65 221.3 85.65 220.55 87.5 219.2 91.55 217.05 92.45 216.55 93.25 216.15 86.5 214.25 82.9 212.85 82.8 213.25 82.75 213.75 82.7 214.15 82.65 214.6 82.75 216.35 83.05 218.3
M 160.2 235.1
Q 159.25 230.55 158.5 223.85 157.75 223.9 156.4 223.75 143.6 221.8 127.25 221.9 124.6 221.9 121.1 222.05 120.65 222 120 221.95 118.95 221.85 118.45 221.85 117.55 221.85 116.9 222.1
L 116 222.6
Q 115.85 222.4 115.7 222.2 108.25 222.5 97.95 223.1 96.3 223.2 95.2 222.95 94.3 223.5 93.4 224.1 88.25 227.8 85.95 231.4 83.4 235.35 82.4 242 82.05 244.85 82.15 246.7 82.2 247.1 82.25 247.5 82.45 247.95 82.7 248.5 85.05 253.7 90.25 257.35 95 260.65 101.2 262.1 106.2 263.25 112.95 263.45 114.6 263.5 124.85 263.35 133.8 263.3 142.65 263.8 153.2 264.4 157 264.25 165 263.8 170.5 260.9 171.7 260.25 172.55 259.9 167.65 255.2 164.55 248.6 161.8 242.75 160.2 235.1 Z"/>

<path fill="#FFACC3" stroke="none" d="
M 107.4 203.4
Q 103.9 202.55 101.9 202.35 100.85 202.25 97.25 202.25
L 89.9 202.4
Q 88.8 202.45 87.95 202.6 86.3 203.95 85.15 206.05 85.65 206.6 85.7 206.65 87.3 208.1 91.4 209.4
L 98.45 211.65
Q 99.1 211.85 99.6 212.05 100.2 211.7 100.6 211.55 101.55 211.2 102.5 211.35 103.45 211.5 104.05 212.15 104.1 212.2 104.15 212.3 106 208 107.3 203.65 107.35 203.5 107.4 203.4
M 80.2 136.55
Q 80.15 136.45 80.1 136.4 79.7 136.85 79.35 137.25 79.15 137.45 78.7 138 79.8 137.7 80.95 137.5 80.6 137.05 80.2 136.55
M 177.9 185.85
Q 177.45 186.65 177 187.75 176 189.9 174.85 193.15 173.45 197.05 171.95 198.6 170.8 199.8 169.15 200.4 167.55 201 165.9 200.8
L 170.5 209.3
Q 172.15 212.25 171.4 213.85 172.3 215.1 173.55 216.7 175.05 218.6 176.05 219.5 176.85 220.2 179.9 222 182.8 223.8 184.05 224.2 186 224.9 188.95 224.9 191.35 224.9 193.75 224.65 193.35 223.7 193.35 222.1 193.35 220.9 193.6 220.05 193.3 218.55 194.2 217.45 194.75 216.75 195.9 216.25 196.55 215.95 197.9 215.35 199.75 214.5 201.1 212.85 202.35 211.35 202.85 209.55 202.9 209.35 202.95 209.2 203.3 207.45 203.5 206.6 203.85 205.1 204.55 204.3 205.35 203.4 207.25 202.8 209.55 202.05 210.2 201.65 209.5 199.85 208.05 198.45 207.2 197.65 206.2 197.1 205.5 196.7 204.75 196.45 203.2 196.05 202.4 195.75 201.1 195.25 200.45 194.45 198.95 192.55 200.95 188.5 198.95 188.2 196.05 188.8 195.15 189.05 194.45 189.2 192.35 189.7 191.15 189.85 188.95 190.1 187.6 189.6 187.2 189.45 186.85 189.25 185 188.15 184.15 184.75 184.1 184.45 184.05 184.15 183.75 182.85 183.55 182.1 183.15 180.6 182.55 179.6 179.9 181.95 177.9 185.85
M 186.7 165.85
Q 186.65 165.3 186.6 164.8 182.3 166.35 175.6 166.65 168.9 166.95 165.05 165.8 160.1 164.4 154.8 159.7 150.55 155.9 148.55 152.4 147.1 149.85 146.35 146.9 131.1 149.7 112.35 147.6 112.45 147.9 112.45 148.15 112.6 149.65 111.35 150.8 110.15 151.95 108.6 151.85 107.3 151.75 105.85 150.75 104.2 149.45 103.4 148.8 99.75 145.9 94.4 145.15 89.8 144.45 84.5 145.45 79.05 146.5 75.35 148.75 70.75 151.45 68.85 155.8 68.55 156.55 68 158 67.95 158.1 67.95 158.2 68.7 158.95 69.25 160.25 69.5 160.8 70.2 163 71.25 166.1 72.5 168.7 75.9 175.6 81.05 179.95 85.4 183.65 91.75 186.2 96.65 188.1 103.75 189.7 105 190 106.15 190.25 107.2 190.55 123.5 191.85 123.75 191.8 124 191.85 124.2 191.85 124.45 191.95 125.3 192 126.2 192.1 126.35 193 126.6 193.85 126.35 193.9 126.15 193.95 126.45 195 126.25 196.75
L 125.85 202.2
Q 125.75 203.95 125.25 204.65 124.7 205.6 123.35 205.85 122.85 205.95 122.4 205.9 123.25 207.8 122.85 211.4
L 122.05 218.4
Q 122 218.95 121.95 219.4 122.35 219.45 122.85 219.5 129.8 220.35 134.05 220.25 138 220.15 145.9 219.2 147.8 219.05 149.55 219 149.5 218.2 149.75 216.8 151.3 207.45 151.45 198.6 151.45 198.35 151.5 198.1 151.45 198.05 151.45 198 150.95 196.1 150.8 195.15 150.55 193.45 151.2 192.3 151.25 192.25 151.3 192.2 151.2 192.1 151.1 192.05 151.05 191.85 151.45 191.45 152.9 190.4 155.1 189.75 156.05 189.45 159.15 188.75 163.5 187.7 167.7 186.2 168.95 185.75 170 185.35 172.4 180.2 176 175.65 177.95 173.2 179.55 172.25 182 170.75 184.25 171.65 185.1 172 185.85 172.7 186.55 171.7 187.3 171.2 186.95 167.8 186.7 165.85
M 141.3 175.4
Q 141.25 176.4 140.15 177.2 139.5 177.65 138.25 178.45 137.75 178.8 136.75 179.55 136.05 179.9 135.1 179.9 133.2 179.9 131.1 179.1 129.65 178.55 127.35 177.3 126.05 176.6 125.8 175.95 125.55 175.35 125.9 174.6 126.25 173.9 126.9 173.65 128.1 173.1 129.65 173.7 129.85 173.8 132.1 175.05 133.6 175.8 134.65 175.6 135.4 175.45 136.45 174.65 137.65 173.7 138.2 173.5 139.3 173.1 140.3 173.65 141.4 174.2 141.3 175.4 Z"/>

<path fill="#680E52" stroke="none" d="
M 112.2 204.75
Q 112.05 205.6 111.55 207.3
L 108.15 218.3
Q 111.1 218.3 111.6 218.35 112.85 218.4 115.35 218.7 115.4 218.4 115.45 218.1
L 117.9 207
Q 118.3 204.95 119.3 204.35
L 119.25 204.35
Q 115.85 204.7 112.25 204.3 112.25 204.5 112.2 204.75
M 158.5 207.75
Q 158.7 206.5 159.4 205.55 158.45 203.8 158.05 202.4 156.9 202.7 156.1 202.75
L 154.8 216.8
Q 154.7 218.25 154.4 219.2 156.1 219.35 157.6 219.7 157.8 219.75 158.05 219.8 157.65 216.4 157.4 213 157.1 210.25 157.75 208.85 158 208.25 158.5 207.8
L 158.5 207.75
M 39.1 88.7
Q 38.3 93.35 39.85 95.35 40.6 95.75 41.35 96.1 41.5 96.15 41.65 96.25 43.95 92.55 46.9 89.2 55.5 79.5 66.6 73.05 69.9 71.1 73.4 69.5 73.2 69.35 73 69.2 71.95 68.4 70.05 66.55 68.1 64.7 67.05 63.85 61.4 59.2 52.45 58.2 46.35 57.6 43.45 60.1 41.5 61.7 40.05 66 38.95 69.5 39.1 71.45 39.35 74.25 42.1 78.15 42.95 79.4 43.2 80.1 43.65 81.25 43.3 82.15 43 82.8 42.1 83.5 40.8 84.45 40.6 84.7 39.5 85.85 39.1 88.7
M 102.15 61.05
Q 99.5 59.55 96.35 57.5 86.75 51.2 74.45 41.7 60.35 30.55 53.3 25 47.15 20.15 43.35 17.8 37.6 14.3 32.3 13 25.75 11.45 21.65 14 18.3 16.1 16.15 21.7 9 40.15 18.05 65.6 23.7 81.75 32.75 90.2 33 85.3 36.1 80.4 34.05 77.9 33.1 74.7 32.2 71.5 32.45 68.2 32.9 61.9 37.05 56.2 39.2 53.2 41.25 52.1 43.65 50.7 47.8 50.5 55.05 50.15 61.95 53 68.85 55.85 73.75 61.15 75.75 63.5 76.8 64.25 77.5 64.8 79 65.9 79.45 66.3 79.75 66.75 90.3 62.65 102.15 61.05
M 214.6 131.65
Q 214.4 132.85 213.65 133.8 212.6 135.2 209.4 136.4 205.7 137.7 203.7 137.7 203.5 137.7 203.35 137.7 203.5 140 203.25 142.3 202.7 147.05 200.6 150.95 199.45 153.05 197.25 155.9 197 156.2 196.75 156.55 197.95 157.15 199.55 158.35
L 201.8 160.05
Q 203.9 161.6 204.65 162.95 205.35 164.2 205.2 165.7 205.05 167.2 204.1 168.35 203.15 169.45 201.7 169.85 200.2 170.25 198.85 169.75 197.9 169.4 196.9 168.55 196.45 168.2 195.15 166.95
L 192.9 164.8
Q 191.7 163.5 191.1 162.3 190.6 162.7 190.1 163.05 192.5 171.85 193.8 182.9
L 197.3 182.45
Q 201 182.05 202.8 182.5 204.2 182.85 205.25 183.75 206.35 184.75 206.65 186.05 206.7 186.4 206.7 188.5 206.7 189.95 207.25 190.7 207.6 191.1 209.2 192.05 209.6 192.25 210.1 192.65 210.15 192.5 210.25 192.35 211.4 190.5 212.8 186.4 213.6 184.1 213.85 182.7 214.05 181.6 214.15 179.35 214.45 174.4 214.45 171.9 214.45 167.75 213.8 164.5 213.25 161.95 213.15 160.65 213.15 159 213.15 158.15 213.1 156.65 212.65 155.75 212.3 155 212.15 154.65 211.95 153.95 212.15 153.5 212.6 153.7 213.1 154.5 219.8 165.7 221.55 178.6 221.9 181.55 221.75 183.3 221.6 185.1 220.5 188.7 218.7 194.65 216.95 197.35 216.5 198 215.95 198.75 216.35 199.6 216.45 200.35 216.85 203.3 214.2 205.55 212.6 207 209 208.15 208.9 212.8 204.9 217.3 205.85 217.35 206.75 217.85 208.15 218.65 209.95 221.2 215.3 228.85 217.15 235.8 217.5 237.05 217.75 238.3 218.4 237.85 219.75 237.25 227.1 234 229.95 229 230.3 228.35 232.1 224.15 233.35 221.15 234.85 219.75 235.55 219.05 236.85 218.2 238.55 217.05 238.95 216.75 241.15 215.1 242.95 212.2 244.15 210.3 245.8 206.75 246.9 204.5 246.6 203.05 246.25 201.05 243.2 199.55 240.15 198.05 236.85 197.35 234.35 196.8 233.7 196.5 230.45 197.05 230.65 193.35 232.4 154.85 221.4 118.35 214.55 95.55 196.5 80.3 177.8 64.45 133.35 67.45 109.9 64 93.65 69.8 77.4 75.55 67.1 82.5 48.3 95.2 41.25 117.1 31.55 147.1 34.25 178.75 34.8 185.75 33.5 192.35 33.75 192.75 33.8 193.2 34.05 194.5 33.1 195.7 32.8 196.05 32.5 196.4 32.45 196.55 32.35 196.7
L 32.05 196.75
Q 31.5 197.15 30.9 197.45 30.1 197.85 28.35 198.65 26.95 199.4 26.25 200.3 24.8 202.2 25.5 206.35 27 214.6 32.05 221.65 37.05 228.65 44.35 232.75 46.05 233.7 46.5 234 47.7 234.75 48.35 235.65 49.05 236.65 49.45 238.2 49.5 238.45 49.6 238.85 49.8 239.1 50.05 239.45 51.8 241.95 53.8 243.85 55.4 245.45 56.95 246.4 59.7 248 64.85 248.75 70.05 249.4 74.7 249.4 74.45 247.6 74.45 245.35 74.55 237.9 77.25 231.55 77.35 231.35 77.45 231.15 77.4 231.05 77.4 230.95 77.4 230.85 77.4 230.8 76.8 229 76.4 226.8 75.4 221.5 75.4 216.3 75.4 210.85 76.55 206.95 78 201.85 81.5 198 82 197.45 82.55 197 82.2 196.75 81.85 196.55 83.25 195.7 84.5 195.4 84.65 195.35 84.8 195.35 85.35 195.05 85.9 194.9 87.25 194.55 88.55 194.9 89 195.05 89.4 195.25 89.7 195.25 90.05 195.25 91.05 195.3 96.2 195.4 99.95 195.4 102.3 195.8 105 196.25 109.3 197.65
L 116.8 200.05
Q 118.9 200.7 119.9 201.6 119.95 201.25 120 200.9 120.3 199.5 120.85 196.2 121 195.1 121.2 194.4 118.3 194.45 113.85 194.25 104.7 193.9 93.95 190.8 83.15 187.65 75.05 181.85 66.1 175.35 62.05 167.9 60.95 168.1 59.75 167.6 58.1 166.95 57.4 165.5 56.2 163.1 58.05 159.35 58.4 158.7 58.75 158.15 58.4 157.05 58.55 155.8 58.05 155.7 57.5 155.5 55.5 154.8 54.15 154.1 52.2 153.05 51.5 152.05 50.65 150.8 50.85 149.2 51.1 147.6 52.25 146.65 53.55 145.6 55.55 145.7 57.3 145.75 59 146.7 60.5 147.5 61.7 148.6 61.75 148.55 61.8 148.45 62 147.7 62.55 146.95 62.75 146.75 63.65 145.8 68.2 141.55 73.15 136.5 75.7 133.9 77.25 131.95 75.6 128.85 75.15 125.95 74.85 124.2 74.85 120.65 74.75 113.25 75.9 109.5 76.8 106.5 78.75 103.85 80 102.1 82.4 99.9 89.2 93.55 97.95 88.7 98.85 88.15 99.55 88.1 100.65 88.1 100.9 88.95 101.05 89.65 100.25 90.45 99 91.85 96.65 93.6 93.45 96 92.8 96.55 89.9 99 85.7 104.6 84.3 106.5 83.75 107.55 83 109.05 82.45 111.7 81.15 118.35 82.05 123.25 83.15 129.6 87.3 133.35 88.95 134.85 89.15 135.05 89.95 136 90.15 136.95 94.55 137.15 98.85 138.4 104.2 139.95 107.9 142.6 115.15 143.4 117.05 143.6 122.6 144.1 126.85 144.15 136.4 144.25 145.65 142.35 145.55 141.35 145.55 140.3 145.6 134.15 148 127.75 149.6 123.6 151.65 120.65 154.35 116.75 158.45 114 162.5 111.3 167.15 110.3 170.4 109.6 176.25 109.6 184.05 109.6 188.05 111.7 191.05 113.3 194.3 117.1 199.4 123.1 201.65 129.55 202.5 129.05 203.75 128.35 206.35 127 207.3 126.65 209.35 125.9 210.95 126.25 213.5 126.8 214.4 129.3 214.8 130.4 214.6 131.65
M 198.15 61.45
Q 192.95 63.1 188.75 66.3 195.45 69.3 200.7 73.85 212.35 83.95 218.3 92.6 219.4 92 220 91.6 220.2 91.05 220.6 90.5 221.2 89.65 222.55 88.6 223.2 87.35 223.4 85.95 223.65 84.25 223.2 82.65 222.7 80.95 221.5 79.8 220.55 78.95 220.15 78.5 219.4 77.75 219.25 77 219.1 76.1 219.85 74.85 220.9 73.05 221 72.7 221.45 71.25 220.7 69.15 219.4 65.75 216.8 63.2 215.15 61.65 213.45 60.95 211.6 60.15 208.75 60.05 203.35 59.85 198.15 61.45
M 247.6 42
Q 247.55 33.15 244.85 24.75 242.45 17.25 238.5 13.3 236.05 10.9 232.95 9.75 229.6 8.55 226.5 9.15 223.55 9.75 219.1 12.9 214.25 16.35 208.35 21.3 206 23.3 198 30.25 180.2 45.7 162 60.25 166 60.55 170 61.1 177.6 62.15 184.05 64.4 184.25 63.75 184.75 63 188.05 57.65 194.25 54.75 199.6 52.25 206.55 51.75 211.3 51.5 214.55 52.35 218.2 53.35 221.6 56.1 226.5 59.8 228.2 64.85 229.15 67.55 228.95 70.35 228.7 73.3 227.3 75.6 226.85 76.4 226.85 76.7 226.85 77.1 227.3 77.75 228.9 80.15 229.4 83 229.45 83.15 229.45 83.3 233.7 79.55 237.1 74.8 242.35 67.6 245 59.25 247.65 50.9 247.6 42 Z"/>

<path fill="#117F9A" stroke="none" d="
M 176.2 116.45
Q 170.3 116.95 165.85 121.75 163.95 123.9 162.95 126.25 161.65 129.4 161.65 134.3 161.65 138 162.45 140.4 163.75 144.15 167.4 147.3 170.35 149.9 173.2 150.7 175.2 151.2 178.75 151.2 181.15 151.2 182.3 151 183.9 150.7 186.3 149.6 189.25 148.2 190.85 146.85 193.1 144.95 194.35 142.05 195.55 139.25 195.6 136.2 195.65 130.3 192 124.9 189.85 121.7 186.95 119.6 181.95 115.9 176.2 116.45
M 178.35 127.1
Q 180.7 126.75 182.1 127.4 183.2 127.95 184.05 129.3 184.55 130.15 185.25 131.85 186 133.85 185.85 134.8 185.7 136.25 184.3 137.5 183.1 138.65 181.5 139.15 179.85 139.65 178.3 139.3 176.6 138.9 174.2 137.1 173.1 136.3 172.75 135.7 172.25 134.9 172.35 133.45 172.45 130.85 173.7 129.3 175.1 127.55 178.35 127.1
M 180.5 132.7
Q 180.4 132.4 180.1 132.15 179.65 131.8 179.2 131.85
L 178.7 132.1
Q 178 132.4 177.65 132.45
L 178.9 133.7 179.3 133.9 179.6 133.95
Q 180.3 133.95 180.5 133.65
L 180.55 133.2 180.5 132.7 Z"/>

<path fill="#1698A7" stroke="none" d="
M 182.1 127.4
Q 180.7 126.75 178.35 127.1 175.1 127.55 173.7 129.3 172.45 130.85 172.35 133.45 172.25 134.9 172.75 135.7 173.1 136.3 174.2 137.1 176.6 138.9 178.3 139.3 179.85 139.65 181.5 139.15 183.1 138.65 184.3 137.5 185.7 136.25 185.85 134.8 186 133.85 185.25 131.85 184.55 130.15 184.05 129.3 183.2 127.95 182.1 127.4
M 180.1 132.15
Q 180.4 132.4 180.5 132.7
L 180.55 133.2 180.5 133.65
Q 180.3 133.95 179.6 133.95
L 179.3 133.9 178.9 133.7 177.65 132.45
Q 178 132.4 178.7 132.1
L 179.2 131.85
Q 179.65 131.8 180.1 132.15 Z"/>
</g>
</g>
</g>
</g>
</g>
</svg>
