
<svg xmlns="http://www.w3.org/2000/svg" version="1.1" xmlns:xlink="http://www.w3.org/1999/xlink" preserveAspectRatio="none" x="0px" y="0px" width="150px" height="150px" viewBox="0 0 150 150">
<defs>
<g id="Layer0_0_FILL">
<path fill="#FFFFFF" stroke="none" d="
M 29.55 -38.05
Q 24.5 -39.6 20.7 -39.2 18.35 -39 16.35 -38 14.2 -36.9 12.9 -35.15 11.25 -32.95 10.4 -28.55 8.85 -19.85 9.2 -6.75 9.95 7.9 9.85 15.2 9.85 16.65 9.75 21.7 9.6 25.7 9.65 28.15
L 10.15 38.4
Q 10.45 44.6 10.05 48.7 9.85 50.8 10.1 51.7 9.25 53.9 8.65 55.75 6.3 63.25 6.25 73 6.2 79.95 7.65 89.55 6.2 90 3.8 90.95 1 92.1 -0.2 93.25 -2.15 95.05 -2.75 98.05 -3.25 100.55 -2.7 103.6 -1.85 108.9 1.05 113.05 4.05 117.15 8.75 120.65 8.05 122.3 7.7 123.85 6.75 127.8 7.55 132 8.35 136.05 10.6 139.6 14.8 146.35 22.9 150.15 22.85 150.9 22.45 151.9
L 21.75 153.6
Q 21.45 154.6 21.65 155.5 21.9 156.4 22.5 156.8 22.75 157 23.05 157.25 23.15 157.3 23.3 157.35 22.75 158 22.65 158.55 22.5 159.55 23.2 160.3 23.60625 160.7333984375 24.05 160.9 24.0662109375 160.95625 24.05 161 24.33828125 161.0953125 24.65 161.25 25.27421875 160.818359375 26.25 160.45 26.8373046875 162.3748046875 29.5 164.15 32.75 166.3 39.45 169.25 48.45 173.25 53.1 174.95 55.05 175.65 61.55 177.7
L 73.95 181.55
Q 77.85 182.8 79.95 183.3 83.3 184.1 86.05 184.25 88.15 184.35 89.05 183.7 90 183 90.05 181.7 90.0697265625 181.1859375 89.95 180.75 90.1705078125 180.804296875 90.4 180.85 90.729296875 179.9359375 90.95 178.7
L 91.1 177.9
Q 91.4 176.1 91.25 175.15 91.2 174.85 90.9 173.9
L 90.15 171.6
Q 89.5359375 169.9625 88.9 169.4 92.4302734375 169.472265625 96.4 169.4 102.45 169.3 105.45 169.05 112.65 168.5 116.85 166.55 119.15 165.55 119.9 164.05 120.1501953125 163.5498046875 120.25 162.8 123.001953125 158.96796875 123.05 154.7 123.05 154.3240234375 123 153.95 123.2666015625 153.93984375 123.5 153.9 126.55 153.4 128.6 152.05 129.7 151.25 130.95 149.95 132.4 148.55 133.15 147.5 135.3 144.7 135.9 141 136.5 137.35 135.4 133.85 134.1 129.8 131.25 127.75 128.3 125.55 124.15 125.85 123.25 125.9 122.4 126.1 123.2 124.65 123.7 123.2 123.95 122.45 124.05 121.8 127.1 121.95 131 120.8 133.45 120.1 135.35 119.2 137.5 118.65 139.3 117.6 141.15 116.4 143.95 113.65 148.1 109.4 149.7 106.4 150.9 104.1 151.75 101.15 153.45 94.2 150.8 90.15 149.1 87.75 144.95 85.9 145.1 85.3 145.3 84.6
L 146.25 80.65
Q 147.25 76.1 147.65 73.6 147.8 71.3 147.7 66.85 147.3 61.2 146.85 58.1 145.5 51.35 141.25 45.05 139.5 42.4 137.3 40.05 137.95 39.85 138.75 39.5 149.35 34.5 155.1 25.45 158.1 20.85 159.4 15.5 160.75 10.05 160.1 4.7 159.8 2.25 158.7 -1.75 157.25 -7.1 155.2 -10.3 152.3 -14.7 148.15 -16 144.95 -17 140.6 -16.05 135.3 -14.85 129.35 -11 127.25 -9.65 119.2 -3.55 110.55 2.7 106.4 6.05 99.7 11.7 96.3 14.4 91.45 18.2 86.2 21.45 85.2 21.55 84.25 21.65 79.65 22.1 76.7 23.35 76 23.65 75.65 23.95 75.15 23.85 74.7 23.65 67.2 21.95 62.8 21.4 61.5 21.25 60.3 21.2 60.45 20.75 60.55 20.2 61.6 15.4 61.95 13.2 63.15 5.05 61.4 -3.15 59.6 -11.45 55.2 -18.4 50.75 -25.35 44.1 -30.5 37.45 -35.6 29.55 -38.05
M 21.6 -33.7
Q 24.2 -33.75 27.9 -32.7 35.45 -30.4 41.85 -25.15 48.1 -20 51.95 -12.95 55.75 -6 56.95 2.1 58.1 10.15 56.55 18 56.2 20 56.4 21.05 53.4 21 50.8 21.2 42.95 22.15 35.1 25.45 21.75 30.8 15.9 39.5 15.25 40.45 14.65 41.55 14.6 40 14.6 37.45 14.5 31.2 14.85 15.3 15.15 1.25 14.9 -6.85 14.65 -16.2 14.7 -18.05 14.8 -24.35 16.15 -29 17 -31.7 18.15 -32.65 19.45 -33.6 21.6 -33.7
M 140.2 -10.05
Q 144.6 -11.5 147.15 -10.15 149.45 -9.05 151.2 -5.15 152.9 -1.45 153.9 2.75 155.05 7.75 154.55 11.85 154.25 13.9 153.15 17.3 151.45 21.85 149.4 25 145.15 31.5 137.9 35.15 136.05 36.1 135.75 36.25 135 36.7 134.55 37.25 133 35.85 131.3 34.6 120.3 26 104.75 22.85 98.95 21.55 93.1 21.35 94.75 20.25 96.55 19.05 98.7 17.5 105.85 12.2 112.95 7 127.25 -3.05 131.85 -6.3 133.95 -7.45 137.1 -9.1 140.2 -10.05
M 108.35 66.9
Q 107.25 65.75 106.1 65.15 104.85 64.55 103 64.35 99.45 63.85 97.15 64.55 96.15 64.85 95.2 65.3 95.35 65.2 95.5 65.1 96.65 64.15 98.5 63.5 102.1 62.25 105.95 62.35 109.9 62.35 113.35 63.8 115.2 64.55 116.25 65.45 117.4 66.35 118.6 68.2 121 71.6 121.95 74.45 123.35 79.15 121.65 83.75 119.85 88.35 115.65 90.9 112.35 92.9 108.15 92.95 104.1 92.95 100.35 91.8 96.65 90.65 94.05 88.5 91.45 86.3 90.5 82.35 90.1 80.65 90 79.1 90.35 79.95 90.9 80.8 91.95 82.4 93.15 83.3 94.5 84.3 96.6 84.7 99.65 85.35 102.7 84.55 106.75 83.55 109.1 80.7 111.8 77.65 111.6 73.7 111.35 69.95 108.35 66.9
M 96.3 71.4
Q 97.05 70.7 98.1 70.55 99.05 70.45 100 70.95 100.9 71.45 101.35 72.35 101.8 73.25 101.6 74.3 101.45 75.35 100.7 76.05 100 76.75 98.95 76.9 97.9 77.05 97 76.6 96.05 76.15 95.6 75.1 95.15 74.15 95.3 73.1 95.5 72.15 96.3 71.4
M 81.55 81
Q 84.5 81.85 86.4 82 87 84.65 88.4 87.4 91.1 92.65 96.05 94.3 100.95 95.95 105.7 96.2 110.45 96.4 115.85 94.65 116.55 94.45 117.2 94.15 117 95 116.7 96.25 115.95 98.45 113.35 101.6 111.45 103.85 109.85 105.6 108.1 107.5 106.7 108.5 105.3 109.45 103 110.45 99.8 112 97.7 112.7 94.65 113.7 90 114.2 85.95 114.6 83.5 114.85
L 83.45 114.85
Q 81.75 115.3 80.2 115.35 79.9 115.9 79.75 116.8 79.6 117.5 79.3 118.95 78.85 120.35 79.05 120.85 79.3 121.7 80.45 121.8 80.6 121.8 80.75 121.8 80.8 121.9 80.9 122.05 81.3 122.7 82.2 123.5
L 83.65 124.9 84.5 125.55
Q 84.6 125.6 84.75 125.7 82.5 125.5 79.15 125.4
L 79.1 125.4
Q 79.1 125.35 79.05 125.25 79.05 125.15 78.3 124.1
L 74.2 118.7
Q 73 117.15 72.45 116.7 71.7 116.1 71.25 116 70.65 115.85 70.05 116 69.85 116 69.75 116.1 69.7 115.4 69.2 114.35 67.8 111.9 65.1 110.4 62.45 109 59.45 108.9 57.3 108.8 55.6 109.4 53.55 110.2 51.85 111.75 51.6 111.95 51.45 112.15
L 51.25 109.85
Q 50.6 101.35 49.6 96.75 49.05 94.7 48.7 93.7 48.6 93.5 48.55 93.25 49.7 93.3 50.85 93.3 55.6 93.25 60.9 91.1 66.3 88.95 69.05 83.5 70.7 80.4 71.05 77.3 71.75 77.6 72.5 77.9 76.75 79.65 81.55 81
M 39.5 73
Q 39.3 72.45 39.8 71.75 40 71.55 40.65 71
L 40.2 70.65 39.9 70.3 39.65 69.8 39.75 69.4
Q 39.95 69 40.35 69 40.95 69.1 41.15 69.25 41.35 69.35 41.6 69.7
L 41.8 69.9 42.25 69.5 42.6 69
Q 43 68.45 43.65 68.4 43.85 68.3 44.1 68.4 44.7 68.45 44.95 68.95 45.3 69.35 45.15 69.9 45 70.45 44.1 71.2
L 43.95 71.35
Q 44.7 71.95 44.8 72.15 44.95 72.4 44.95 72.65 45 72.9 44.75 73.15 44.6 73.35 44.3 73.4 44.15 73.45 43.8 73.35
L 43.15 73.15 42.45 72.65 42.4 72.6 42 72.95
Q 41.4 73.45 41.05 73.55 40.65 73.7 40.15 73.6 39.65 73.45 39.5 73
M 39.05 63.25
Q 39.2 63.15 39.3 63.05 40.45 62.05 42.25 61.25 45.8 59.75 49.65 59.5 53.6 59.3 57.1 60.45 59 61.1 60.1 61.9 61.25 62.7 62.6 64.5 65.1 67.65 66.15 70.45 67.8 75.05 66.3 79.8 64.65 84.5 60.6 87.3 57.4 89.5 53.15 89.85 49.1 90.2 45.3 89.3 41.55 88.4 38.85 86.45 36.15 84.45 35.05 80.6 34.6 78.95 34.4 77.35 34.85 78.2 35.45 79 36.5 80.55 37.75 81.35 39.15 82.25 41.25 82.55 44.35 82.95 47.35 81.95 51.35 80.65 53.6 77.65 56.15 74.35 55.75 70.45 55.4 66.75 52.25 63.9 51.05 62.85 49.9 62.35 48.65 61.8 46.75 61.75 43.2 61.5 40.95 62.35 39.95 62.7 39.05 63.25
M 69 118
Q 69.2 118.6 69.9 119.3 70.4 119.9 71.55 120.95 72.4 121.85 72.95 122.65
L 74.4 124.55
Q 74.2 124.55 74.1 124.6 73.8 124.5 73.45 124.45 72.05 124.25 64.7 122.3 60.15 121.05 56.95 121.1 57.4 120.7 57.75 120.45 56.3 120.9 55.4 121.15
L 55.4 121.2
Q 53.2 121.4 50.4 122.15 50.3 122.2 50.2 122.2 51.25 118.95 52.55 117.05 53.8 115.3 55.4 114.3 57.2 113.15 59.1 113.15 62.65 113 66.45 116.8 67.1 117.45 67.65 117.75 68.3 117.65 68.95 117.6 68.95 117.75 69 118
M 78.15 129.25
Q 79.45 129.2 80.25 129.15 81.65 129.05 84.55 128.85 87.7 128.8 90.65 130 90.85 130.15 91.15 130.25
L 91.9 130.65
Q 92.1 130.8 92.55 131.75 90.65 132.65 88.55 133.7 84.7 135.65 82.8 136.8 81.05 137.85 79.65 139 79.75 138.65 79.8 138.25 80 136.05 79.4 133.4 79.05 131.85 78.15 129.25
M 128.1 131.35
Q 129.95 132.65 130.75 135.95 131.6 139.6 130.55 142.05 129.95 143.45 128.7 144.8 126.85 146.7 124.15 147.75 121.55 148.75 118.8 148.65 117.43671875 148.65 115.35 148.3 115.2693359375 147.92421875 115.15 147.6 115.925 138.6234375 118.05 132.2 118.35 131.4 118.45 130.85 118.85 130.75 119.75 130.55
L 122.6 130.35
Q 126.35 130.15 128.1 131.35
M 50.85 127.4
Q 51.7 126.95 53.35 126.6 62.95 124.9 72.65 127.85 73.2 128.05 73.65 128.15 73.7 128.2 73.75 128.3
L 74.6 130.45
Q 76.25 134.6 76.25 136.8 76.25 138.25 76.3 138.55 76.45 139.6 77.1 140.05 77.55 140.35 78.05 140.35 77.85 140.55 77.6 140.8 77 141.4 77.3 141.75 77.6 142.05 78.2 141.9 80.5 141.3 81.65 140.85 82.6 140.45 85.4 138.9 97.85 132.1 111.85 130.7 113.1 130.6 113.55 130.8 113.7 130.9 113.95 131.05 113.85 131.3 113.75 131.6 112.8 134.35 112.25 136.55 111.15 140.75 110.45 148.6 110.3525390625 149.5091796875 110.3 150.3
L 110.5 150.55
Q 110.376171875 152.730078125 111.05 155.15 111.35 156.3 111.8 157.25 111.95 157.5 113 159.25
L 113.9 160.65
Q 114.3267578125 161.320703125 114.75 161.8 114.623828125 161.990234375 114.5 162.15 113.10859375 162.7763671875 111.95 163.15 109.65 163.9 106.45 164.35 87.35 167 64.6 160.3 58.8 158.55 56.35 156.3 54.9 155 52.9 151.9
L 52.5 151.3
Q 48.502734375 141.7435546875 48.05 129.25 48.4 129 48.85 128.65 48.95 128.55 49.05 128.5 49.75 128.2 50.85 127.4
M 126.8 36.1
Q 134.15 41.5 138.3 48.65 141 53 142.05 57.75 142.4 59.45 142.8 63.2 143.3 70.15 142.75 74.1 142.45 75.7 141.65 78.95 140.75 82.2 140.5 83.8 140.2 85.2 140.45 86.35 140.5 86.5 140.6 86.6 140.4 87.15 140.85 87.8 141.05 88.45 142.3 89.15 143.05 89.65 144.9 90.4 146.3 91.1 147.1 92 148.65 94 147.5 97.95 146.2 102.5 143.55 106.5 140.75 110.4 136.95 113.15 136.1 113.65 133.65 115.2 133.55 115.25 133.45 115.3 132.5 115.75 130.65 116.3 127.65 117.3 125.9 117.45 124.75 117.5 124.2 117.55 123.2 117.6 122.55 117.8 122 118 121.6 118.25 121.35 118.25 121.1 118.35 120.15 118.75 119.75 120 119.55 120.7 119.25 122.1 119.1 122.65 118.7 123.4 118.5 123.8 118 124.65 117.2 126.15 117.4 127.25 117.15 127.4 117.05 127.55 115.95 126.55 114.25 126.4 113.35 126.3 110.85 126.55 104.1 127.45 100.1 128.7 98.15 129.3 95.65 130.4 95.4 129.8 94.9 129.05 94.3 128.25 93.75 127.85 93.45 127.65 92.4 127.15 91.95 126.9 91.15 126.25 90.3 125.55 89.85 125.3
L 88.05 124.1
Q 87.55 123.2 86.65 122.3
L 84.35 119.85
Q 83.65 119.1 83.25 118.8 83.15 118.75 83.05 118.7
L 83.15 118.4
Q 83.5 117.65 83.65 117.05 88.85 117.7 94.15 116.9 100.4 115.9 105.85 112.9 111.3 109.95 115.55 105.3 119.75 100.7 122.25 95.05
L 124.4 97.1
Q 125.8 98.4 126.85 98.8 127.8 99.15 128.75 98.95 129.75 98.75 130.45 98.15 131.2 97.55 131.55 96.6 131.9 95.65 131.75 94.7 131.55 93.5 130.65 92.45 130.1 91.8 128.8 90.75 127.8 89.9 127 89.5
L 124.25 88.6
Q 124.05 88.55 123.85 88.5 124.05 88.1 124.3 87.75 126.4 84.05 126.65 80.35 126.75 78.35 126.35 76.2 127.5 76.2 129.85 75.9 130.4 75.9 131.45 75.9 132.35 75.9 133 75.75 134.15 75.45 135.05 74.45 135.9 73.55 136.15 72.3 136.35 71.05 135.75 69.85 135.2 68.7 134.1 68.15 132.85 67.5 130.95 67.5 129.2 67.5 127.45 67.85 125.5 68.3 124.3 69.15 124.05 69.3 123.8 69.55 123.75 69.4 123.7 69.3 121.55 65.35 119.3 63.25 115.55 59.75 109.95 58.8 105.1 58.05 99.5 59.35 95.7 60.25 93.25 61.95 90.45 63.9 88.35 67.85 86.15 72.2 85.95 77.15 85.9 78.25 86 79.45 83.95 79.2 81.6 78.5 81.35 78.4 76.45 76.7 73.25 75.55 72.5 75.25 71.75 74.9 71.1 74.55 70.65 70.2 67.7 65.25 65.4 61.45 63.05 59.5 60.8 57.65 57.95 56.65 56.6 54.3 56.25 51.8 56.15 51.1 56 50.8 55.7 50.25 55.25 50.25 54.75 50.15 54.4 50.75 54.2 51.05 54.1 51.75 53.95 53.7 54.8 55.85 54.15 55.75 53.5 55.7 48.65 55.25 43.05 57 39.3 58.15 36.95 60.05 34.75 61.8 33.05 64.8 31.05 62.8 28.1 61.4 26.5 60.6 25.5 60.6 24.05 60.5 22.75 61.35 21.5 62.25 21.05 63.6 20.6 64.95 21.05 66.45 21.55 67.95 22.75 68.75 23.45 69.3 24.6 69.7
L 26.8 70.5
Q 29.2 71.4 30.6 71.8 30.25 73.7 30.25 75.7 30.25 80.15 32.6 84.55 31.2 84.8 29.5 85.75 28.4 86.4 27.7 87.15 26.45 88.65 26.8 90.65 27.1 92.65 28.85 93.65 30.65 94.65 32.5 93.85 33 93.7 33.95 93.1 35.9 91.8 36.7 91 37.1 90.55 37.25 90.35 38.95 91.55 41.1 92.1 43.55 92.75 46 93.05
L 46 93.1
Q 46.2 94.65 46.4 97.8 46.45 98.7 46.8 100.25 47.4 103.7 47.8 109.4
L 48 112
Q 48.15 114.55 48.1 115.8 48.05 116.5 48.05 116.9 46.55 119.85 45.95 123.7 45.9 123.85 45.9 124.1 45.65 124.05 45.4 124.1 43.85 124.4 43.6 127.15 43.55 128.2 43.5 129.3 42.85 129.15 41.4 128.9 40 128.65 39.2 128.35 38.35 128.1 36.9 127.3 35.35 126.45 34.65 126.2 33.35 125.7 33.05 125.5 32.65 125.25 32.1 124.6 31 123.25 28.55 120.9 27.9 120.25 27.45 120.6 27.2 120.75 27.4 121.25
L 27.85 121.85
Q 27.95 122.05 28.55 123.15 29.1 124.25 30.05 125.25 32.15 127.55 34.6 129.5 35.8 130.45 37 131.1 38.65 132.1 42 133.15 42.85 133.45 43.5 133.5 43.7095703125 137.817578125 44.7 142.25 43.85859375 141.7970703125 43.2 141.55 40.85 140.55 38.65 141.15 36.1 141.85 35.25 144.1 34.95 144.9 34.65 145.15 34.45 145.3 33.95 145.4 32.3 145.85 31.05 146.9 29.65 148.05 29.15 149.55 28.8 150.6 28.8 151.9 28.8533203125 152.53984375 28.95 153.1
L 26.9 154.55
Q 26.75 154.15 26.35 153.8 26.8 152.5 27.05 150.95 27.4 148.9 26.6 147.85 26.25 147.25 24.65 146.45 19.95 144.1 16.85 140.85 13.25 137 12.3 132.4 11.8 130.25 11.85 127.25 12.05 123.8 12.1 122.1 12.1 121.9 12.1 121.75
L 12.35 119.9
Q 11.8 119.5 11.25 118.9 10.5 117.65 10.15 117.15 9.45 115.9 7.4 113.7 5.45 111.4 4.6 110.2 2.95 107.2 2.45 102.45 2.1 99.3 3.2 97.75 4 96.7 6.35 95.45
L 9.2 93.9
Q 10.05 93.5 10.6 93.05 11.5 92.8 11.65 92.05 12.15 91 11.25 88.85 10.1 85.75 9.6 81.7 9.35 79 9.3 74.3 9.35 70.2 9.5 69 9.75 66.6 10.9 62.35 12.2 56.85 13.7 52.75 14 51.9 14.3 51.1 14.95 49.45 15.6 48.1 19.05 40.45 24.65 35.85 27.1 33.8 30.35 32 40.25 26.5 52.05 24.95 63 23.75 74.6 26.6 75.55 27 76.3 26.85 76.85 26.95 77.75 26.75 81.5 26 85.1 25.6 85.3 25.6 85.55 25.55 99.5 24.1 111.25 28.15 119.7 30.95 126.8 36.1
M 41.6 146.15
Q 43.55 146.85 44.35 148.45 44.6 149.05 44.55 149.5
L 44.15 150.3
Q 43.9 150.95 44.15 151.65 44.45 152.35 45.05 152.65 45.2375 152.737109375 45.4 152.8 45.4 153.079296875 45.4 153.4 45.5 154 45.3 154.4 45.1 154.7 44.75 154.9 42.95 156.3 41.65 156.05 41.2310546875 155.9802734375 40.6 155.65 40.124609375 154.8990234375 39 154.5 38.9 154.45 37.2 154 36.1 153.7 35.55 153.2 35.3642578125 153.0375 35.2 152.85 35.1849609375 152.6033203125 35.15 152.35 35.0732421875 152.3837890625 34.95 152.4 34.7998046875 151.9779296875 34.85 151.45 34.95 150.35 36 150.1 36.35 150 36.85 150.05
L 37.65 150.1
Q 38.5 150.05 39.1 149.35 39.7 148.6 39.6 147.8 39.55 147.4 39.55 147.2 39.5 146.8 39.6 146.55 39.75 145.95 40.5 145.95 41 145.9 41.6 146.15
M 35.75 159.65
Q 36.5373046875 159.8224609375 37.3 159.75 38.1123046875 160.48125 39.15 160.95 40.65 161.65 42.3 161.6 45.6 161.5 48.05 159 49.09921875 157.9189453125 49.6 156.65 50.3060546875 158.035546875 51.05 159 53.6 162.3 59.5 164.5 67.5 167.6 77.65 168.7 81.588671875 169.157421875 86.35 169.3 86.1689453125 169.448046875 86 169.6 85.25 170.25 85.2 171.1 85.2 171.15 85.35 172.65 85.4 174 84.65 175.55 83.65 177.8 83.55 178.3 83.4923828125 178.49609375 83.45 178.7 73.551953125 178.11953125 62.85 174 53.6 170.55 41.8 163.55 38.241796875 161.44140625 35.75 159.65
M 122.2 110.65
Q 122.5 109.8 122.5 109.3 122.5 108.75 122.1 108.55 121.6 108.45 121.45 109.1 121.35 109.4 121.3 110 121.15 110.6 120.6 111.1 120.55 111.1 119.4 111.9 118.55 112.5 117.1 114.2 115 116.8 112.2 118.8 109.95 120.15 108.95 120.9 107.4 122.05 107.25 122.1 106.85 122.35 105.25 123.2
L 102.7 124.4
Q 100.6 125.3 99.5 125.45 98.4 125.65 98.4 126.1 98.4 126.5 98.9 126.7 99.15 126.7 99.65 126.65
L 102.95 126.1
Q 105.1 125.8 106.05 125.55 110.35 124.55 114.15 122.1 117.95 119.55 120.6 116 121.7 114.5 121.8 113.45 121.8 112.5 121.9 112 121.95 111.55 122.2 110.65
M 77.05 111.55
Q 76.5 112.45 76.9 113.25 77.3 114.1 78.4 114.2 79.15 114.25 80.15 113.7 81.65 113 82.7 111.75 83.25 111.2 83.5 111.1 83.9 110.95 84.9 111.1 85.85 111.1 86.2 110.65 86.35 110.3 86.25 109.9 86.1 109.45 85.65 109.4 85.2 109.3 82.85 109.55 80.5 109.8 79 110.35 77.5 110.9 77.05 111.55
M 79.3 112.9
Q 78.7 112.95 78.9 112.55 79.1 112.3 79.4 112.1 80.5 111.45 81.8 111.35 82 111.25 82.1 111.4 81.95 111.75 81.2 112.05
L 79.3 112.9
M 99.8 73.05
Q 99.55 72.65 99.15 72.45 98.65 72.15 98.1 72.3 97.5 72.45 97.2 72.95 96.65 73.75 97.2 74.65 97.5 75.05 97.95 75.2 98.4 75.35 98.85 75.25 99.85 74.95 99.95 73.9 100.05 73.45 99.8 73.05 Z"/>
</g>
</defs>

<g transform="matrix( 1, 0, 0, 1, 0,0) ">
<use xlink:href="#Layer0_0_FILL"/>
</g>
</svg>
