
<svg xmlns="http://www.w3.org/2000/svg" version="1.1" xmlns:xlink="http://www.w3.org/1999/xlink" preserveAspectRatio="none" x="0px" y="0px" width="300px" height="300px" viewBox="0 0 300 300">
<defs/>

<g id="Layer_1">
<g id="Layer_1" transform="matrix( 1, 0, 0, 1, 71.85,79.85) ">
<g>
<g>
<g>
<path fill="#330066" stroke="none" d="
M 142.3 41.3
Q 138.35 36.6 132.5 32.9 122.4 26.65 110.2 26.4 101.8 26.25 94.55 29 94.75 28.6 94.95 28.25 96.15 26.05 96.55 24.55 97.6 20.4 95.15 14.4 93.15 9.4 90.4 6.1 87 2.05 82.65 0.75 80.25 0 76.6 0 72.45 0.2 70.4 0.15
L 68.2 0.15
Q 66.95 0.2 66.05 0.45 63.45 1.2 62.95 3.25 62.55 4.75 64 7.45 66.45 12.15 71.1 21.65 73.95 27.15 76.7 31.35 72.05 29.05 69.65 28.35 67 27.55 61.6 26.75 59.8 26.5 58 26.3 52.7 25.25 47.85 25.3 41.25 25.4 35.4 27.55 29.1 29.8 24.7 34.1 18.2 40.4 15.45 51.4 14.4 55.7 13.8 61.15 13.4 64.7 13 71.05 12.85 73.1 12.5 74.25 12 76 10.85 76.8 9.6 77.7 6.45 77.6 3.3 77.55 2.05 78.35 0.65 79.25 0.2 81.25 -0.2 82.9 0.2 84.95 2.2 95.7 16.3 104.4 22.9517578125 108.448046875 30.95 110.25 38.94453125 112.105859375 43 112.25 43.3701171875 112.262109375 43.65 112.25 44.691015625 112.52578125 46.15 112.85 46.4 112.9 46.65 112.95 46.3 113.65 46.1 114.2 45.5 116.2 46.1 117.65 46.45 118.6 47.4 119.35 47.95 122.1 50.75 127.1 52.55 130.3 53.5 131.55 54.65 133.05 56.2 134.45 57.6 135.7 59.2 136.5 62.15 137.85 65.45 137.3 66.7 137.15 67.8 136.7 70.35 135.65 72.25 133.25 74.05 131.05 74.9 128.15 75.3 126.9 75.55 125.45 77.95 125.7 79.75 125.75 83.35 125.85 89.5 125.05 89.8 126.35 90.5 127.9 92 131.1 94.2 133.95 96.4 136.8 98.5 137.45 99.65 137.8 101.5 137.8 103.2 137.9 104.2 137.6 105.65 137.1 107.05 135.5 109.65 132.75 111.15 128.9 112 126.45 112.9 121.45 113.2 119.65 113.25 118.4 113.85 117.8 114.25 117.2 114.95 116 115 114.45 116.95 114.55 119.85 113.5 122.9 112.4 124.45 110.95 124.65 110.75 124.85 110.55 125.6 111.2 126.55 111.5 128.5 112.15 131.9 111.25 139.1 109.45 145.4 105.7 151.85 101.85 156.55 96.4 158.3 94.35 159 92.35 159.85 89.9 158.7 88.15 157.7 86.55 155.35 86.1 153.75 85.75 151.05 85.95 153.1 79.85 152.55 70.85 151.5 52.25 142.3 41.3 Z"/>
</g>
</g>
</g>
</g>

<g id="Layer_1_copy" transform="matrix( 1, 0, 0, 1, 71.85,79.85) ">
<g>
<g>
<g>
<path fill="#330066" stroke="none" d="
M 142.3 41.3
Q 138.35 36.6 132.5 32.9 122.4 26.65 110.2 26.4 101.8 26.25 94.55 29 94.75 28.6 94.95 28.25 96.15 26.05 96.55 24.55 97.6 20.4 95.15 14.4 93.15 9.4 90.4 6.1 87 2.05 82.65 0.75 80.25 0 76.6 0 72.45 0.2 70.4 0.15
L 68.2 0.15
Q 66.95 0.2 66.05 0.45 63.45 1.2 62.95 3.25 62.55 4.75 64 7.45 66.45 12.15 71.1 21.65 73.95 27.15 76.7 31.35 72.05 29.05 69.65 28.35 67 27.55 61.6 26.75 59.8 26.5 58 26.3 52.7 25.25 47.85 25.3 41.25 25.4 35.4 27.55 29.1 29.8 24.7 34.1 18.2 40.4 15.45 51.4 14.4 55.7 13.8 61.15 13.4 64.7 13 71.05 12.85 73.1 12.5 74.25 12 76 10.85 76.8 9.6 77.7 6.45 77.6 3.3 77.55 2.05 78.35 0.65 79.25 0.2 81.25 -0.2 82.9 0.2 84.95 2.2 95.7 16.3 104.4 22.9517578125 108.448046875 30.95 110.25 38.94453125 112.105859375 43 112.25 43.3701171875 112.262109375 43.65 112.25 44.691015625 112.52578125 46.15 112.85 46.4 112.9 46.65 112.95 46.3 113.65 46.1 114.2 45.5 116.2 46.1 117.65 46.45 118.6 47.4 119.35 47.95 122.1 50.75 127.1 52.55 130.3 53.5 131.55 54.65 133.05 56.2 134.45 57.6 135.7 59.2 136.5 62.15 137.85 65.45 137.3 66.7 137.15 67.8 136.7 70.35 135.65 72.25 133.25 74.05 131.05 74.9 128.15 75.3 126.9 75.55 125.45 77.95 125.7 79.75 125.75 83.35 125.85 89.5 125.05 89.8 126.35 90.5 127.9 92 131.1 94.2 133.95 96.4 136.8 98.5 137.45 99.65 137.8 101.5 137.8 103.2 137.9 104.2 137.6 105.65 137.1 107.05 135.5 109.65 132.75 111.15 128.9 112 126.45 112.9 121.45 113.2 119.65 113.25 118.4 113.85 117.8 114.25 117.2 114.95 116 115 114.45 116.95 114.55 119.85 113.5 122.9 112.4 124.45 110.95 124.65 110.75 124.85 110.55 125.6 111.2 126.55 111.5 128.5 112.15 131.9 111.25 139.1 109.45 145.4 105.7 151.85 101.85 156.55 96.4 158.3 94.35 159 92.35 159.85 89.9 158.7 88.15 157.7 86.55 155.35 86.1 153.75 85.75 151.05 85.95 153.1 79.85 152.55 70.85 151.5 52.25 142.3 41.3
M 84.2 10.3
Q 84.65 10.8 85.45 11.8
L 86.5 13.15 86.95 14.3
Q 87.4 15.4 88.45 17.45 88.95 18.55 89.4 20.65 89.65 21.7 89.6 22 89.55 22.35 89.1 23.4 86.7 28.15 84.45 30.1 84.05 30.4 83.8 30.35 83.65 30.3 83.3 29.95
L 80.25 25.1
Q 77.35 20.3 75 14.95 72.45 9.2 71.3 7.25 72.5 7.45 74.25 7.4 75.25 7.4 77.2 7.35 80.85 7.45 82.85 8.95 83.45 9.45 84.2 10.3
M 83.55 38.35
Q 85.2 38.4 87.85 37.65
L 91 36.85
Q 91 36.55 91.1 36.3 100.8 32.8 109.8 32.95 121.35 33.1 129.65 39.15 135.7 43.45 139.6 50.85 143.15 57.45 144.55 65.65 146.25 75.4 143.8 82.15 142.55 85.5 142.35 86.55 141.85 89.1 143.05 90.65 144.65 92.65 149.5 92.35 141.15 101 129.5 103.6 127 104.15 125.75 104.8 125.65 104.6 125.5 104.4 124.8 103.4 123.5 102.35 122.3 101.4 120.5 100.4
L 113.5 96.65
Q 111.75 95.7 110.8 94.95
L 110.75 94.9
Q 114.55 93.3 118.75 91.35 122.4 89.7 124.2 88.45 125.65 87.45 126.5 86.45 126.6 86.5 126.75 86.55 128.75 87.4 129.85 87.4 130.7 87.4 131.45 87 132.2 86.55 132.5 85.85 132.95 84.95 132.4 83.85 131.9 82.85 130.95 82.3 130.15 81.85 128.95 81.55 127.55 81.3 126.85 81.15 126.55 81.1 126.3 81.05 125.6 80.5 124.7 80.55 124.65 80.55 124.55 80.55 121.5 79.6 118.25 77.55 117.8 77.25 117.3 76.95 117.8 75.9 118.05 74.75 118.6 71.95 117.35 69.8 116.45 68.35 115.4 67.85 114.15 67.25 111.25 67.65 108.8 67.95 107.65 68.75 107.5 68.9 107.35 69.05 102.2 64.75 99.2 62.05 93 56.45 88.6 51.35 86.95 49.4 85.65 49.3 84 49.25 82.05 52.05 77.8 58.25 72.05 63.3 67 67.65 61.2 70.8 60.65 69.8 59.75 68.85 57.4 66.4 54.7 66.7 52.35 67 50.9 69.3 49.8 71.1 49.6 73.85 49.55 74.85 49.65 75.8 49.1 76 48.55 76.2
L 38.05 80.15
Q 37.05 80.1 36.25 80.6 36 80.75 35.8 81
L 28.2 83.85
Q 25.9 84.7 25.6 86 28.75 85.9 32.55 85 33.65 84.7 35.1 84.35 35.1 84.55 35.2 84.75 35.8 86.35 38 88.3 43.4 93.2 50.1 96.45
L 44.25 97.95
Q 42.95 98.35 41.65 98.55
L 38.95 98.9
Q 36.65 99.35 34.75 100.8 33.65 101.65 33.25 102.55 32.9 103.3 32.95 104.3 31.85 103.7 29.95 103.1 23.4 101.1 18.05 96.7 12.7 92.25 9.55 86.2 10.7 85.3 13.55 84.85 16.5 84.35 17.65 83.5 19.65 82.05 20.45 77.65 21 74.35 21.55 67.65 22.1 60.95 22.65 57.65 24.55 45.8 31 39.8 34.6 36.4 39.85 34.75 44.65 33.25 50.05 33.35 53 33.4 56.3 33.9 59 33.7 61.65 33.75 69.3 33.9 76 36.1 76.15 36.15 76.25 36.2 76.55 36.35 76.9 36.4 77.4 36.6 77.95 36.8 78.9 37.15 80.7 37.8 82.3 38.3 83.55 38.35
M 104.8 71.45
Q 105.3 71.9 105.8 72.35 105.7 72.85 105.7 73.45 105.6 76.2 106.85 78.25 108.3 80.75 110.85 81.05 111.95 81.2 113 80.9 114.05 80.6 115.1 79.75 118.15 81.9 121.15 83.65 117.6 88.6 112.35 91.65 110.65 92.65 108.65 93.5 107.55 93.15 106.5 93.65 105.75 94.05 105.45 94.7 104.85 94.9 104.3 95.05 101.25 95.95 95.75 97.1 89.55 98.4 84.8 98.95 86.4 97.5 87.7 95.15 88.5 93.65 89.75 90.7 90.55 88.9 90.55 87.9 90.65 86.15 89.4 85.35 88.7 84.95 87 85.05 82.4 85.4 77.8 86.25 76.45 86.55 76.1 87.05 75.8 87.45 75.8 88.45 75.9 92.55 80.1 98 80.7 98.75 81.3 99.25 79.5 99.3 77.95 99.25 67.85 98.9 54.75 92.6 46.9 88.9 43.6 84.75 42.7 83.5 42.2 82.9 41.9 82.55 41.65 82.2 46.35 80.6 50.5 78.9
L 50.5 78.95
Q 51.8 81.55 54.3 82.15 56.3 82.6 58.25 81.5 60.1 80.45 61.15 78.55 62.5 76.05 62.15 73.45 63.55 72.7 64.85 71.9 78 63.95 85 53.05 91.75 58.95 104.8 71.45
M 84.4 91.5
Q 84.15 92.05 83.6 92.8
L 82.55 94.35
Q 81.25 93.2 80.75 91.8
L 80.05 89.6
Q 81.7 88.95 85.3 89.05 85.15 89.4 84.85 90.3 84.6 91.1 84.4 91.5
M 101.35 98.45
Q 101.3 98.65 101.25 98.85 101.1 100.3 102.3 102.75
L 107.4 113.35
Q 107.2 113.45 107 113.65 104.9 114.7 102.15 115.45 100.2 116 96.5 116.75 91.1 117.85 88.65 118.2 84.25 118.85 80.75 118.8 77.5 118.75 73.2 118.1 73 118 72.8 117.95 72.1 117.75 71.5 117.8 63.8 116.6 56.25 114.8 55.3 114.6 55.1 114.1 55 113.7 55.3 113
L 60 102.7
Q 60.55 101.5 60.85 100.45 72.9 103.7 85.4 102.15 92.95 101.15 101.35 98.45
M 49.65 107.4
Q 49.1 107.2 48.45 107
L 41.95 104.9 48.2 103.3
Q 51.1 102.5 52.1 102.2 50.95 104.85 49.65 107.4
M 60.45 127.05
Q 60.1 126.65 59 125.05
L 57.5 122.75
Q 59.2 123.1 61.05 123.4 63.25 123.75 67 124.3 66.9 124.75 66.85 125.2 66.5 126.95 65.75 127.9 64.65 129.3 63.2 129 62.6 128.9 61.9 128.35 61.1 127.75 60.45 127.05
M 119.05 106.4
Q 118.1 107.15 115.7 107.85 114.4 108.3 113.55 108.8 113.5 108.65 113.4 108.45
L 110.05 100.9
Q 114.5 103.95 119.05 106.4
M 102.3 122.95
Q 103.15 122.75 103.95 122.55
L 103.7 123.55
Q 103.1 125.95 102.85 126.55 102.4 127.55 101.2 129.45
L 100.85 129.4
Q 98.85 127.4 97.4 124.65 97.2 124.25 97.05 123.95 100.2 123.45 102.3 122.95 Z"/>

<path fill="#FFFFCC" stroke="none" d="
M 103.95 122.55
Q 103.15 122.75 102.3 122.95 100.2 123.45 97.05 123.95 97.2 124.25 97.4 124.65 98.85 127.4 100.85 129.4
L 101.2 129.45
Q 102.4 127.55 102.85 126.55 103.1 125.95 103.7 123.55
L 103.95 122.55
M 115.7 107.85
Q 118.1 107.15 119.05 106.4 114.5 103.95 110.05 100.9
L 113.4 108.45
Q 113.5 108.65 113.55 108.8 114.4 108.3 115.7 107.85
M 59 125.05
Q 60.1 126.65 60.45 127.05 61.1 127.75 61.9 128.35 62.6 128.9 63.2 129 64.65 129.3 65.75 127.9 66.5 126.95 66.85 125.2 66.9 124.75 67 124.3 63.25 123.75 61.05 123.4 59.2 123.1 57.5 122.75
L 59 125.05
M 48.45 107
Q 49.1 107.2 49.65 107.4 50.95 104.85 52.1 102.2 51.1 102.5 48.2 103.3
L 41.95 104.9 48.45 107
M 105.8 72.35
Q 105.3 71.9 104.8 71.45 91.75 58.95 85 53.05 78 63.95 64.85 71.9 63.55 72.7 62.15 73.45 62.5 76.05 61.15 78.55 60.1 80.45 58.25 81.5 56.3 82.6 54.3 82.15 51.8 81.55 50.5 78.95
L 50.5 78.9
Q 46.35 80.6 41.65 82.2 41.9 82.55 42.2 82.9 42.7 83.5 43.6 84.75 46.9 88.9 54.75 92.6 67.85 98.9 77.95 99.25 79.5 99.3 81.3 99.25 80.7 98.75 80.1 98 75.9 92.55 75.8 88.45 75.8 87.45 76.1 87.05 76.45 86.55 77.8 86.25 82.4 85.4 87 85.05 88.7 84.95 89.4 85.35 90.65 86.15 90.55 87.9 90.55 88.9 89.75 90.7 88.5 93.65 87.7 95.15 86.4 97.5 84.8 98.95 89.55 98.4 95.75 97.1 101.25 95.95 104.3 95.05 104.85 94.9 105.45 94.7 105.75 94.05 106.5 93.65 107.55 93.15 108.65 93.5 110.65 92.65 112.35 91.65 117.6 88.6 121.15 83.65 118.15 81.9 115.1 79.75 114.05 80.6 113 80.9 111.95 81.2 110.85 81.05 108.3 80.75 106.85 78.25 105.6 76.2 105.7 73.45 105.7 72.85 105.8 72.35 Z"/>

<path fill="#FF66CC" stroke="none" d="
M 101.25 98.85
Q 101.3 98.65 101.35 98.45 92.95 101.15 85.4 102.15 72.9 103.7 60.85 100.45 60.55 101.5 60 102.7
L 55.3 113
Q 55 113.7 55.1 114.1 55.3 114.6 56.25 114.8 63.8 116.6 71.5 117.8 72.1 117.75 72.8 117.95 73 118 73.2 118.1 77.5 118.75 80.75 118.8 84.25 118.85 88.65 118.2 91.1 117.85 96.5 116.75 100.2 116 102.15 115.45 104.9 114.7 107 113.65 107.2 113.45 107.4 113.35
L 102.3 102.75
Q 101.1 100.3 101.25 98.85
M 83.6 92.8
Q 84.15 92.05 84.4 91.5 84.6 91.1 84.85 90.3 85.15 89.4 85.3 89.05 81.7 88.95 80.05 89.6
L 80.75 91.8
Q 81.25 93.2 82.55 94.35
L 83.6 92.8 Z"/>

<path fill="#9900FF" stroke="none" d="
M 87.85 37.65
Q 85.2 38.4 83.55 38.35 82.3 38.3 80.7 37.8 78.9 37.15 77.95 36.8 77.4 36.6 76.9 36.4 76.55 36.35 76.25 36.2 76.15 36.15 76 36.1 69.3 33.9 61.65 33.75 59 33.7 56.3 33.9 53 33.4 50.05 33.35 44.65 33.25 39.85 34.75 34.6 36.4 31 39.8 24.55 45.8 22.65 57.65 22.1 60.95 21.55 67.65 21 74.35 20.45 77.65 19.65 82.05 17.65 83.5 16.5 84.35 13.55 84.85 10.7 85.3 9.55 86.2 12.7 92.25 18.05 96.7 23.4 101.1 29.95 103.1 31.85 103.7 32.95 104.3 32.9 103.3 33.25 102.55 33.65 101.65 34.75 100.8 36.65 99.35 38.95 98.9
L 41.65 98.55
Q 42.95 98.35 44.25 97.95
L 50.1 96.45
Q 43.4 93.2 38 88.3 35.8 86.35 35.2 84.75 35.1 84.55 35.1 84.35 33.65 84.7 32.55 85 28.75 85.9 25.6 86 25.9 84.7 28.2 83.85
L 35.8 81
Q 36 80.75 36.25 80.6 37.05 80.1 38.05 80.15
L 48.55 76.2
Q 49.1 76 49.65 75.8 49.55 74.85 49.6 73.85 49.8 71.1 50.9 69.3 52.35 67 54.7 66.7 57.4 66.4 59.75 68.85 60.65 69.8 61.2 70.8 67 67.65 72.05 63.3 77.8 58.25 82.05 52.05 84 49.25 85.65 49.3 86.95 49.4 88.6 51.35 93 56.45 99.2 62.05 102.2 64.75 107.35 69.05 107.5 68.9 107.65 68.75 108.8 67.95 111.25 67.65 114.15 67.25 115.4 67.85 116.45 68.35 117.35 69.8 118.6 71.95 118.05 74.75 117.8 75.9 117.3 76.95 117.8 77.25 118.25 77.55 121.5 79.6 124.55 80.55 124.65 80.55 124.7 80.55 125.6 80.5 126.3 81.05 126.55 81.1 126.85 81.15 127.55 81.3 128.95 81.55 130.15 81.85 130.95 82.3 131.9 82.85 132.4 83.85 132.95 84.95 132.5 85.85 132.2 86.55 131.45 87 130.7 87.4 129.85 87.4 128.75 87.4 126.75 86.55 126.6 86.5 126.5 86.45 125.65 87.45 124.2 88.45 122.4 89.7 118.75 91.35 114.55 93.3 110.75 94.9
L 110.8 94.95
Q 111.75 95.7 113.5 96.65
L 120.5 100.4
Q 122.3 101.4 123.5 102.35 124.8 103.4 125.5 104.4 125.65 104.6 125.75 104.8 127 104.15 129.5 103.6 141.15 101 149.5 92.35 144.65 92.65 143.05 90.65 141.85 89.1 142.35 86.55 142.55 85.5 143.8 82.15 146.25 75.4 144.55 65.65 143.15 57.45 139.6 50.85 135.7 43.45 129.65 39.15 121.35 33.1 109.8 32.95 100.8 32.8 91.1 36.3 91 36.55 91 36.85
L 87.85 37.65
M 85.45 11.8
Q 84.65 10.8 84.2 10.3 83.45 9.45 82.85 8.95 80.85 7.45 77.2 7.35 75.25 7.4 74.25 7.4 72.5 7.45 71.3 7.25 72.45 9.2 75 14.95 77.35 20.3 80.25 25.1
L 83.3 29.95
Q 83.65 30.3 83.8 30.35 84.05 30.4 84.45 30.1 86.7 28.15 89.1 23.4 89.55 22.35 89.6 22 89.65 21.7 89.4 20.65 88.95 18.55 88.45 17.45 87.4 15.4 86.95 14.3
L 86.5 13.15 85.45 11.8 Z"/>
</g>
</g>
</g>
</g>
</g>
</svg>
