
<svg xmlns="http://www.w3.org/2000/svg" version="1.1" xmlns:xlink="http://www.w3.org/1999/xlink" preserveAspectRatio="none" x="0px" y="0px" width="150px" height="150px" viewBox="0 0 150 150">
<defs>
<g id="Layer0_0_FILL">
<path fill="#FFFFFF" stroke="none" d="
M 109.9 102.9
Q 109.55 102.9 109.25 103.5 108.85 104.35 108.85 106.3 108.9 107.8 109.25 110.7 110.55 121.7 113.6 131.5 114.6 134.65 115.45 136.2 115.9 137.05 116.35 137.35 116.9 137.85 117.45 137.45 118 137 118.1 135.95 118.1 135.2 117.9 134.2 116.9 131 116.45 129.35 116.3 128.8 115.5 124.9 115.1 123 114.2 119.6 113.25 116 112.85 114.35 112.65 113.3 112.05 109.9 111.55 107.1 111.15 105.45 110.85 104.15 110.45 103.4 110.2 102.95 109.9 102.9
M 56.4 140.5
Q 53.95 143.1 49.75 146 47.4 147.6 42.5 150.75 39.35 152.8 38.9 154.9 38.55 156.65 39.65 158.4 40.4 159.65 42.15 161.15 43.95 162.8 45.3 163.4 46.25 163.75 47.1 163.8 47 164.3 47 164.7 47 166.75 48.8 169.1 52.05 173.15 57.8 175.15 61.7 176.45 68.6 177.25 76.1 178.05 80.05 177.35 82 177.05 84.7 176.3
L 88.55 175.2
Q 91.35 174.45 92.65 173.7 94.55 172.65 95.65 170.7 96 170.15 96.2 169.6 96.3 169.6 96.4 169.6 97.65 169.6 98.75 168.7 99.8 167.8 99.95 166.5 100.05 165.55 99.2 163.7 100.1 163.15 101.15 162.5 104.15 160.45 105.2 159.55 106.9 158.05 107.1 156.6 107.25 155.25 106.35 153.85 105.7 152.9 104.4 151.65 98.5 146.15 95.1 143.95 93.15 142.6 92.85 142.35 91.75 141.5 91.25 140.6 91.2 140.45 91.2 140.35 91.1 139.7 91.05 139.35 90.95 138.75 90.75 138.35 90.6 138.1 90.45 137.95 90.3 137.8 90.15 137.65 89.55 136.85 88.1 136.3 84 134.65 77.35 134.65 71.75 134.7 68.1 135.55 63.15 136.65 59.6 139.15 59.5 139.15 59.45 139.25 59.1 139.1 58.75 139.05 57.75 139 56.4 140.5
M 59.65 144.85
L 60.25 142.4
Q 60.65 142.2 61.2 141.9 64.5 140.1 69.05 139.45 72.3 139 77.4 139.05 83.05 139.15 86.05 140.2 86.3 140.3 86.55 140.35 86.55 140.65 86.6 140.95 86.65 141.35 86.85 141.85 87 143.45 87.5 145.6 89.2 152.65 93.2 162.3 92.85 163.2 93.25 163.95 93.55 164.55 94.25 164.8 94.3 165 94.3 165.2 94.3 165.4 94 166.4 93.75 167.05 93.8 167.65 86.45 170.35 83.4 171.2 80 172.2 77.85 172.35 75.9 172.55 72.7 172.3 66.75 171.85 62.4 170.95 56.35 169.7 53.45 166.9 52.4 165.9 52.15 164.95 51.9 163.8 53 161.5 54.5 158.5 56.9 152.25
L 58.25 148.75
Q 59.3 146.15 59.65 144.85
M 47.2 158.2
Q 45.5 157.05 45.1 156.55 44.75 156.1 44.75 155.8 44.8 155.45 45.1 155.15 46.15 153.85 47.9 152.5 48.75 151.8 51 150.25 52.9 148.9 54.6 147.55 54.05 148.65 53.45 149.85
L 48.8 159.55
Q 48.2 158.95 47.2 158.2
M 97.25 158.7
Q 95.5 154.2 93.9 149.5
L 101.45 156.05
Q 98.95 157.55 97.25 158.7
M 41.05 105.25
Q 41.25 103.7 41.1 102.95 40.85 102.05 40.2 101.8 39.5 101.5 39 102.1 38.6 102.65 38.25 104.4 36.5 114.2 32.75 125.1 31.5 128.8 30.2 131.35 29.4 132.8 29.15 133.8 29 134.55 29.1 135.3 29.15 136.1 29.5 136.55 30.2 137.4 31.15 136.65 31.7 136.15 32.35 134.85 33.1 133.3 33.75 131.5 38.05 120.7 40.45 108.55
L 41.05 105.25
M 70.3 118.6
Q 70.05 118.95 69.95 119.9 69.7 123.7 72 126.85 73.1 128.4 74.4 128.65 75 128.75 75.6 128.65 76.7 128.45 77.2 128.2 77.85 127.8 78.4 127.05
L 79.05 126.15
Q 79.5 125.3 79.75 124.15 80.45 121.55 80.35 120.2 80.3 119.4 80.1 118.9 80.3 118.6 79.95 118.25
L 79.6 118 79.25 117.6
Q 78.85 117.3 78.35 117.2 77.85 117.15 77.35 117.2 75.95 117.15 75.3 117.15 74.1 117.15 73.25 117.3
L 72.2 117.55
Q 71.85 117.7 71.45 117.95 70.7 117.95 70.3 118.6
M 73.3 120.3
Q 73.6 120.25 74.7 120.15 75.4 120.1 76.55 120.05 76.5 120.4 76.45 120.9 76.3 122.75 75.5 124.6
L 75.35 124.75
Q 75.2 124.8 75.1 124.6 73.65 122.65 73.3 120.3
M 46.7 91.95
Q 45.05 93.05 44.4 94.05 43.9 94.7 43.65 95.9 43.5 96.45 43.45 97.05 43.25 98.8 43.85 100.55 44.1 101.1 44.35 101.65 45.7 104.25 48.15 104.85 49.25 105.05 50.55 104.9 53.65 104.5 56.05 102.8 56.85 102.3 57.6 101.55 59.65 99.2 59 95.95 58.9 95.55 58.8 95.15 58.1 93.2 56.5 91.9 55.85 91.45 55.15 91.05 53.6 90.35 51.95 90.3 50.25 90.2 48.7 90.85 48.15 91.1 46.7 91.95
M 98.4 90.85
Q 97.85 91.1 96.4 91.95 94.75 93.05 94.1 94.05 93.6 94.7 93.35 95.9 93.2 96.45 93.15 97.05 92.95 98.8 93.55 100.55 93.8 101.1 94.05 101.65 95.4 104.25 97.85 104.85 98.95 105.05 100.25 104.9 103.35 104.5 105.75 102.8 106.55 102.3 107.3 101.55 109.35 99.2 108.7 95.95 108.6 95.55 108.5 95.15 107.8 93.2 106.2 91.9 105.55 91.45 104.85 91.05 103.3 90.35 101.65 90.3 99.95 90.2 98.4 90.85
M 94.5 90.5
Q 89.3 88.3 82.1 85 78.85 83.5 77 83.55 75.25 83.6 71.8 85.25 66.6 87.85 59.15 90.95 60.55 92.1 61.4 93.25 61.65 93.6 61.85 93.9 68.15 91.05 73.2 87.85 75.25 86.65 76.25 86.7 77.1 86.75 78.45 87.45 84.65 90.6 91.15 93.35 92.45 91.95 94.25 90.65 94.35 90.55 94.5 90.5
M 99.2 62.45
Q 95.15 62.1 90.15 62.6 87.3 62.7 81.15 63.85 78.85 64.4 77.4 64.95 73.6 63.35 71.05 62.65 67.25 61.65 62.3 61.5 54.45 61.1 49 62.35 37.45 64.75 27.95 72.15 23.3 75.45 20.55 79.1 16.35 84.45 14.3 92.35 10.45 106.1 13.5 119.55 10.4 120.5 9.15 121.25 6.7 122.4 5.3 123.9 2.55 126.6 2.4 131.25 2.4 134.4 4.1 139 6.45 145.05 10.45 148.15 12.65 149.85 15.35 150.45 18.2 151 21 150.25 20.1 148.45 18.25 146.7 18.05 146.65 14.9 143.65 9.55 138.2 8.85 133.1 8.5 129.6 10.4 127.55 11.1 126.45 12.9 125.85 13.8 125.45 15.95 124.85 17.85 124.2 18.6 123.3 19.6 121.9 18.8 118.95 15.45 106.05 19.5 92.6 21.3 86.4 24.2 82.6 26.7 79.2 30.45 76.35 40 68.8 53.25 66.25 62.45 64.35 75.3 67.05 75.35 67.35 75.75 67.6 76.9 68.5 79.5 68 81.3 67.55 84.4 67.1 87.85 66.4 89.3 66.25 99.2 65.15 108.85 68.85 115.1 71.05 119.7 74.65 123.6 77.85 127 82.95 131.25 89.55 132.9 97.25 134.45 104.75 133.15 112 132.75 113.65 132.7 114.75 131.85 117.85 130.9 121.1 130.8 121.2 130.65 121.3 129.8 122.05 130.05 123.5 130.2 124.75 131.1 125.8 131.9 126.75 133.2 127.5 133.85 127.95 135.55 128.6 137.5 129.4 139.55 130.2 140.4 130.5 140.6 130.95 141 131.4 140.8 132.4 140.2 134.4 138.65 137.35 135.45 142.25 132.4 145.1 131.15 146.05 130.65 146.85 129.75 148.25 130.5 149.45 130.85 150.2 131.95 150.75 133.9 151.6 136.65 150.3 141.85 147.55 145.95 140.15 148.45 135.55 148.55 131.95 148.45 130.15 147.95 128.75 146.75 126 143.05 124.35 141.9 123.55 140 123.1 137.65 122.15 137 121.95 137.35 120.6 137.8 119.05 138.1 117.75 138.55 115.45 138.65 114.7 138.7 114.3 139.75 108.1 139.15 101.9 138.45 94.9 135.85 88.55 133.1 82 128.3 76.65 123.4 71.05 117.25 67.6 109.6 63.1 99.2 62.45
M 95.25 39.6
Q 93.85 38.8 91.3 38.4 84.9 37.25 79.95 38.2 73.95 39.25 69.75 42.9 66.15 45.7 65.5 48.8 64.7 51.85 66.3 55.05 67.75 57.5 70.65 59.5 73.3 61.35 76.25 62.3 77.6 62.65 78.55 62.6 79.85 62.45 80.45 61.6 80.75 60.7 81 60.35 81.2 59.95 82 59.35 88.2 54.3 94.4 49.8 96.6 48.15 97.5 47 98.8 44.7 98.2 42.8 97.4 40.85 95.25 39.6
M 90.95 44.5
Q 90.25 44.9 88.15 46.6 84.9 49.2 81.85 52 78.5 54.9 77.7 56.9 77.15 56.65 75.45 55.7 74.25 54.85 73.7 54.5 73.1 53.9 72.5 53.3 71.05 51.55 71.2 50.15 71.45 48.8 73.5 47.35 76.95 44.8 80.95 44.05 84.4 43.4 90.95 44.5 Z"/>
</g>
</defs>

<g transform="matrix( 1, 0, 0, 1, 0,0) ">
<use xlink:href="#Layer0_0_FILL"/>
</g>
</svg>
