
<svg xmlns="http://www.w3.org/2000/svg" version="1.1" xmlns:xlink="http://www.w3.org/1999/xlink" preserveAspectRatio="none" x="0px" y="0px" width="300px" height="300px" viewBox="0 0 300 300">
<defs>
<g id="baxter_0_Layer1_0_FILL">
<path fill="#4A004A" stroke="none" d="
M 245.05 76.45
Q 244.55 76.3 244.05 76.05 243.1 65.15 242.35 58.7 240.7 44.25 238.15 36.3 235.75 28.7 232.2 24.05 225.75 15.3 212.9 10.8 199.95 6.25 196.55 6.25 193.25 6.2 175.9 5.1 158.6 3.95 135.2 3.15 114.3 2.35 95.65 3.15 92.75 1.15 91.45 0.6 88.2 -0.7 85.9 0.75 84.55 1.55 83.55 3.8 82.2 3.9 80.95 4 68.15 5.05 61.15 7.5 50.25 11.25 45.15 19.1 42.45 23.3 40.7 30.25 39.5 34.9 37.9 44.4 35.5 52.3 33.95 57.3 33.25 59.95 33.2 61.25 20.75 67.3 6.3 70.4 4.45 70.8 3.45 71.2 1.8 71.8 1 72.85 -0.65 74.95 0.45 79.6 3.7 93.3 12.9 105.35 18.75 113 26.25 119.1 20.35 125.1 17.8 133.7 15.15 142.7 21.65 156.2 21.75 156.4 21.85 156.55 24.95 161.9 29.5 166.45 37.9 174.95 50.5 179.95 52.8 180.95 54.35 180.85 55.85 181.3 57.15 180.35 57.9 179.8 58.45 178.75 58.55 178.5 59.25 176.7 61 172.4 64.4 169.25 64.75 170.2 64.25 171.7 63.65 173.75 63.65 174.3 63.55 176.2 65.05 177.2 65.9 177.8 67.95 178.1 69.8 178.35 72.45 178.35
L 72 179.9
Q 66.35 187.8 63.3 192.85 61.05 196.5 60.7 197.05 59.15 199.4 57.8 201.05 55.7 203.5 50.8 207.85 47.35 211.2 47.4 214 47.45 216.65 50.6 219.6 52.3 221.25 54.55 222.8 54.5 222.8 54.5 222.85 54.15 223.3 53.5 224.2 53.35 224.4 50.65 227.1 48.9 228.85 48.45 230.3 47.95 231.8 48.45 233.45 48.95 235.05 50.2 236 51.3 236.8 53 237.2 53.7 237.35 56.05 237.65 58.35 237.9 62.9 238.45 66.85 238.8 69.75 238.6 70.45 238.55 72.8 238.3 74.65 238.1 75.8 238.05 77 238.05 77.8 237.95 78.35 238.1 78.95 238.25 86 239.75 94.75 240.45 100.35 240.85 109.35 241.15 110.05 241.15 110.75 241.15 114.65 241.25 118.55 241.3 118.65 241.3 118.75 241.3 126.6 241.4 134.45 241.35 145.8 241.3 157.1 241 161.8 240.85 166.45 240.7 178.5 240.2 190.45 239.45 192.95 239.3 194.3 238.85 195.3 239.55 196.75 239.7 197.85 239.85 200.65 239.5 207 238.65 212.55 238.25 215.25 238.05 216.45 237.55 218.65 236.75 219.2 234.85 219.6 233.5 218.85 231.7 217.8 229.8 217.3 228.9 216.45 227 215.95 225.9 217.1 225.45 218.45 224.9 221.45 223.75 222.5 222.35 223.95 220.45 223.25 217.6 222.9 216.1 221.25 213 218 207 217.2 203.35 216.95 202.25 216.7 200.65
L 216.35 197.9
Q 215.75 193.9 213.8 185.8 213 182.7 212.3 180.85 213 180.9 213.35 180.8 214.1 180.5 214.1 179.9 214.1 179.75 213.9 178.95
L 213.75 177.25
Q 213.7 176.5 213.2 174.7 212.75 173.1 212.85 172.15 212.9 171.4 213.35 170.35 213.6 169.5 213.95 168.85 214.85 167.25 217.05 166.05 217.35 167.95 217.15 169.7
L 217.15 169.75
Q 216.9 169.95 216.7 170.1 216.6 170.15 216.55 170.2 216.7 172.2 217.35 173.25 218 174.3 219.2 175 220.4 175.65 221.7 175.75 223.95 175.95 226.75 174.8 239.1 170.05 246.85 152.7 247.05 152.2 247.3 151.7
L 247.45 150.95
Q 248.1 146.85 249.4 135.4 250.35 127.05 249.1 119.75 249.25 119.6 249.4 119.4 250.15 118.5 250.25 116.75 250.25 116.1 249.9 113.9 249.45 110.65 249.15 109.6 248.9 108.6 248.3 107.15 247.6 105.55 247.25 104.7 246.8 103.5 246.15 101.05 245.4 98.65 245.05 97.45 245.15 96.8 245.3 96.15 245.9 91.8 245.4 83.8 245.35 82 245.1 80.15 245 79 244.7 77.25 244.9 76.9 245.05 76.45 Z"/>
</g>

<g id="baxter_0_Layer0_0_FILL">
<path fill="#4A004A" stroke="none" d="
M 245.05 97.45
Q 245.15 96.8 245.3 96.15 245.9 91.8 245.4 83.8 245.35 82 245.1 80.15 245 79 244.7 77.25 244.9 76.9 245.05 76.45 244.55 76.3 244.05 76.05 243.1 65.15 242.35 58.7 240.7 44.25 238.15 36.3 235.75 28.7 232.2 24.05 225.75 15.3 212.9 10.8 199.95 6.25 196.55 6.25 193.25 6.2 175.9 5.1 158.6 3.95 135.2 3.15 114.3 2.35 95.65 3.15 92.75 1.15 91.45 0.6 88.2 -0.7 85.9 0.75 84.55 1.55 83.55 3.8 82.2 3.9 80.95 4 68.15 5.05 61.15 7.5 50.25 11.25 45.15 19.1 42.45 23.3 40.7 30.25 39.5 34.9 37.9 44.4 35.5 52.3 33.95 57.3 33.25 59.95 33.2 61.25 20.75 67.3 6.3 70.4 4.45 70.8 3.45 71.2 1.8 71.8 1 72.85 -0.65 74.95 0.45 79.6 3.7 93.3 12.9 105.35 18.75 113 26.25 119.1 20.35 125.1 17.8 133.7 15.15 142.7 21.65 156.2 21.75 156.4 21.85 156.55 24.95 161.9 29.5 166.45 37.9 174.95 50.5 179.95 52.8 180.95 54.35 180.85 55.85 181.3 57.15 180.35 57.9 179.8 58.45 178.75 58.55 178.5 59.25 176.7 61 172.4 64.4 169.25 64.75 170.2 64.25 171.7 63.65 173.75 63.65 174.3 63.55 176.2 65.05 177.2 65.9 177.8 67.95 178.1 69.8 178.35 72.45 178.35
L 72 179.9
Q 66.35 187.8 63.3 192.85 61.05 196.5 60.7 197.05 59.15 199.4 57.8 201.05 55.7 203.5 50.8 207.85 47.35 211.2 47.4 214 47.45 216.65 50.6 219.6 52.3 221.25 54.55 222.8 54.5 222.8 54.5 222.85 54.15 223.3 53.5 224.2 53.35 224.4 50.65 227.1 48.9 228.85 48.45 230.3 47.95 231.8 48.45 233.45 48.95 235.05 50.2 236 51.3 236.8 53 237.2 53.7 237.35 56.05 237.65 58.35 237.9 62.9 238.45 66.85 238.8 69.75 238.6 70.45 238.55 72.8 238.3 74.65 238.1 75.8 238.05 77 238.05 77.8 237.95 78.35 238.1 78.95 238.25 86 239.75 94.75 240.45 100.35 240.85 109.35 241.15 110.05 241.15 110.75 241.15 114.65 241.25 118.55 241.3 118.65 241.3 118.75 241.3 126.6 241.4 134.45 241.35 145.8 241.3 157.1 241 161.8 240.85 166.45 240.7 178.5 240.2 190.45 239.45 192.95 239.3 194.3 238.85 195.3 239.55 196.75 239.7 197.85 239.85 200.65 239.5 207 238.65 212.55 238.25 215.25 238.05 216.45 237.55 218.65 236.75 219.2 234.85 219.6 233.5 218.85 231.7 217.8 229.8 217.3 228.9 216.45 227 215.95 225.9 217.1 225.45 218.45 224.9 221.45 223.75 222.5 222.35 223.95 220.45 223.25 217.6 222.9 216.1 221.25 213 218 207 217.2 203.35 216.95 202.25 216.7 200.65
L 216.35 197.9
Q 215.75 193.9 213.8 185.8 213 182.7 212.3 180.85 213 180.9 213.35 180.8 214.1 180.5 214.1 179.9 214.1 179.75 213.9 178.95
L 213.75 177.25
Q 213.7 176.5 213.2 174.7 212.75 173.1 212.85 172.15 212.9 171.4 213.35 170.35 213.6 169.5 213.95 168.85 214.85 167.25 217.05 166.05 217.35 167.95 217.15 169.7
L 217.15 169.75
Q 216.9 169.95 216.7 170.1 216.6 170.15 216.55 170.2 216.7 172.2 217.35 173.25 218 174.3 219.2 175 220.4 175.65 221.7 175.75 223.95 175.95 226.75 174.8 239.1 170.05 246.85 152.7 247.05 152.2 247.3 151.7
L 247.45 150.95
Q 248.1 146.85 249.4 135.4 250.35 127.05 249.1 119.75 249.25 119.6 249.4 119.4 250.15 118.5 250.25 116.75 250.25 116.1 249.9 113.9 249.45 110.65 249.15 109.6 248.9 108.6 248.3 107.15 247.6 105.55 247.25 104.7 246.8 103.5 246.15 101.05 245.4 98.65 245.05 97.45
M 226.3 28.85
Q 228.95 32.5 230.8 39.8 233.4 50.05 234.9 63.4 235.6 69.3 236.55 82.5 236.45 84.05 236.4 88.2 236.4 90.1 236.25 91.9 236.15 92.9 236.05 93.65 235.25 93.35 234.7 93.6 234.3 92.2 233.8 90.9 231.3 84.6 226.95 80.05 225.9 78.9 224.65 77.9 224.25 77.15 223.6 76.2 205.15 52.1 188.95 27.55 186.9 24.45 185.1 22.95 182.6 20.8 180.05 21.15 177.8 21.4 174.65 24.75 168.3 32.15 163.85 40.95 143.7 28.2 129.2 21.85 119.8 16.35 110.35 11.35 116.35 11.3 123.15 11.35 163.45 11.6 191.3 14.95 198.3 15.75 202.95 16.65 209.25 17.95 214.2 20 222.45 23.45 226.3 28.85
M 166.6 48.15
Q 167.95 47.6 169.4 45.1 174.3 37 181.25 30.55 194.8 51.85 211.5 70.5 210.95 70.3 210.4 70.1 202.55 67.35 196 67.5 186 67.7 173.9 74.85 163.5 81.15 159.35 88.4 158.05 89 156.6 89.95 153.05 92.4 151.2 93.5 147.8 95.35 146.2 96.45 145.1 97.2 143.6 98.5 141.85 99.95 141 100.65 138.95 102.25 135.15 104.95 134.15 105.65 133.5 105.55 132.95 105.5 132.25 104.7 127.55 99.6 123.55 94.65 123.1 93.25 122.55 91.85 120.05 85.6 115.75 81.05 109.8 74.8 99.15 71.1 91.3 68.35 84.75 68.5 74.75 68.7 62.7 75.85 52.15 82.15 48.05 89.45 45.1 94.65 44.65 101.3 44.2 107.3 45.9 113.7 46.35 115.55 47.05 117.25 46.75 117.55 46.45 117.9
L 45.2 119.6
Q 45 119.9 43.85 121.25 43.1 122.2 42.65 122.95 41.75 124.4 40.9 127.75 40.4 129.6 40.2 131.15 39.65 135.7 42.05 139.6 42.9 141 44.55 142.8 45 143.5 45.75 144.85 52.2 151.45 61.9 151.7 70 159.8 83.2 164.35 87.35 165.85 92.35 167 83.7 168.95 78.6 171.7 78.25 171.9 77.9 172.1 76.3 171.75 75.35 171.55 73.2 171.2 71.55 171.35 71.9 167.4 71.15 165.05 70.6 163.5 69.5 162.3 68.3 161.1 66.8 160.75 64.35 160.1 61.7 161.8 60.15 162.95 57.95 165.6 56.25 167.65 55.1 169.4 53.95 171.15 53.25 173.15 52.7 172.9 50.65 172 43.8 169.2 38.4 164.4 32.8 159.45 29.45 153.15 27.25 148.9 26.25 144.35
L 25.5 144.35
Q 25.5 138.35 27.7 133.1 28.6 131 30.4 127.85 32.05 125 32.85 123.6 33.25 123.7 33.65 123.8
L 36.2 118
Q 36.3 117.85 36.3 117.75 26.85 111.75 20.1 102.4 12.85 92.45 10.3 80.85 9.95 79.2 10.35 78.5 10.8 77.6 12.8 77.05 35.6 71 54.15 57.2 73.45 42.95 84.4 23.15 86.95 18.45 89.8 8.15 112.35 20.85 128.45 29.9 142.35 36.15 160.95 46.8 162.7 47.8 163.8 48.15 165.4 48.65 166.6 48.15
M 170.4 84.35
Q 172.1 82.85 174.4 81.4 181.6 76.75 190.1 74.6 194.75 73.5 198.15 73.7 201.25 73.8 206.05 75.25 211.55 76.85 214.55 78.35 220.7 81.4 224.9 87.45 228.95 93.25 230.2 100.2 231.9 109.35 228.2 117.65 224.45 125.9 216.75 129.9 209.05 133.9 202.8 135.2 196.45 136.45 188.05 134.65 179.55 132.85 173.25 127.4 168 122.9 165 116.5 161.95 110.05 162 103.25 162.05 98.75 163.45 94.6 164.4 91.7 166 89.3
L 169.75 86.1
Q 170.3 85.55 170.45 85.2 170.7 84.65 170.4 84.35
M 236.45 103.45
Q 236.45 103.15 236.45 102.85 238.55 108.6 239.85 113.55 242.3 122.6 242.85 130.7 243.2 136.25 240.4 144.85
L 240.6 144.35
Q 239.8 146.85 238.9 149.15 238.85 149.35 238.75 149.5
L 238.6 149.85
Q 236.95 153.5 234.75 156.65 230.2 163.35 224.45 166 224.2 165 224.15 163.3 224.1 161.35 223.95 160.55 223.95 160.2 223.85 159.95
L 223.65 160.3
Q 223.5 159.6 223 158.95 222.3 158 221.25 157.6 219.3 156.85 216.85 157.8 215.15 158.5 212.85 160.5 209.9 163.2 208.55 165.75 207.8 166.95 207.35 168.35 206.55 170.85 206.95 173.6 203 171.55 198.1 170.45 192.4 169.1 185 168.85 186.6 168.35 188.35 167.85 193.8 166.3 196.75 164.6 198.2 163.85 200.15 162.45 201 162.05 201.7 161.65 206.75 159 212.45 153 213.15 152.35 213.85 151.7
L 222.6 151.7
Q 223 151.55 223.5 151.4 228.15 149.95 231.9 146.5 235.65 143.1 237.55 138.6 239.45 134.05 239.35 129 239.2 123.95 237.1 119.55 236.2 117.55 234.95 116.75 234.8 116.65 234.7 116.6 236.85 109.65 236.45 103.45
M 218.7 144.35
L 211.85 144.35
Q 206.25 151 195.35 156.75 193.15 157.95 191.05 158.95 190.5 159.4 189 159.95 181.45 163.3 175 164.5 170.3 165.35 161.65 165.7 160.45 164.65 158.7 164.85 157.2 164.95 156.25 165.9 155.7 165.9 155.2 165.95 155.25 166.55 155.3 167.25 154.85 168.15 154.55 169.45 153.5 174.05 155.2 176.4 155.9 177.4 157.05 177.95 158.25 178.5 159.45 178.4 160 178.35 160.45 178.25 159.95 179 159.6 180.1 159.05 181.6 158.2 184.65 157.3 187.3 156.15 188.9 155.05 190.4 151.8 192.7 148.25 195.25 145.65 196.4 142 198 138.85 197.7 136.2 197.5 132.1 195.45 127.65 193.2 125.4 191.15 122.15 188.25 120.05 183.4 119.05 181.3 118.3 178.45 119.4 178.25 120.35 177.6 120.8 177.3 121.15 177 121.7 177.1 122.35 177 123.65 176.9 124.7 176.2 125.8 175.4 126.35 174.25 126.95 173 126.95 171.15 126.95 169.3 126.45 167.95 126.45 166.95 126.45 166.1 125.85 166.1 125.25 166.05 125.05 165.85 124.85 165.7 123.3 164.35 121.25 164.65 119.9 164.8 118.9 165.6 117.3 165.45 115.8 165.25 98.95 163.2 88.75 159.15 78.3 155.15 71.35 148.6 65.95 147.45 54.2 144.35 53.25 143.8 52.45 143 51.9 142.55 51.25 141.6 51.05 141.35 50.85 141.05 49.05 138.2 48.75 136.55 48.15 134.1 49.2 131.1 50 129.05 51.85 126.5 54.9 130.75 59.2 134.05 64.9 138.45 71.65 140.5 78.4 142.45 85.55 142.05 92.65 141.6 96.8 140.65 101 139.6 108.9 135.5 116.8 131.35 121.3 121.95 125.65 112.75 125.3 104.75 127.25 107.25 127.95 108.25 130 111.1 131.5 111.8 133.6 112.7 136.1 111.75 137.65 111.2 140.05 109.4 143.85 106.65 147.2 103.85 149.65 101.8 150.45 101.3 151.85 100.25 154.85 98.5 155.5 98.1 156.2 97.55 156 98.85 155.9 100.3 155.45 106.35 157.1 112.7 158.6 118.1 161.25 122.65 164.7 128.7 170.45 133.1 176.15 137.45 182.9 139.5 189.6 141.45 196.75 141.1 203.9 140.65 208.4 139.65 211.25 139 215.65 137.1 215.2 137.65 214.75 138.25
L 214.65 138.4
Q 215.7 137.4 216.4 136.9 218 135.65 221.2 134.15 222.8 133.35 224.2 132.9 224.25 132.75 224.3 132.6 228.1 129.9 230.7 125.85 231.3 128.05 231.2 130.4 231.1 133.35 229.85 135.95 228.65 138.55 226.5 140.5 224.35 142.45 221.65 143.45 221.35 143.6 218.7 144.35
M 166 179.55
Q 166 178.9 165.8 178.35 166.7 178.25 167.9 178.15 182.65 176.65 193.4 178.45 199 179.3 202.6 181.15 203.7 181.65 204.7 182.35 205.2 183.8 205.65 185.85 207.65 195.15 208.3 199.65 208.9 204.15 209.35 205.85 209.75 207.5 211.3 211
L 214.2 217.6
Q 209.15 219.55 203.85 220.7 200.85 221.35 199.8 222.25 199.4 222.65 199.15 223.1
L 196.6 214.85
Q 195.4 210.85 194.9 208.6
L 194.35 205.1
Q 193.65 200.2 193.2 195.05 193 192.5 192.3 191.3 191.85 190.4 191 189.9 190.05 189.4 189.1 189.65 187.8 190 187.25 191.7 186.95 192.65 187.05 194.6 187.6 207.05 189.3 214.2 189.7 215.9 190.55 219.2 190.85 220.45 191.45 224 192 227.05 192.5 228.85 193.1 230.95 193.2 231.55 193.25 231.7 193.25 231.9 192 231.75 190 231.9 177.65 232.95 166.6 233.6 162.1 233.85 157.9 234 151.95 234.25 146.4 234.4 144.95 234.4 143.5 234.45 136.45 234.6 129.75 234.5 123.6 234.45 117.65 234.2 112.9 234 108.3 233.8 102.45 233.4 96.9 232.85 88.8 232.1 84.2 230.8 82.3 230.3 81.75 229.2 81.3 228.25 82.15 226.25 82.25 226.05 82.35 225.9 82.4 225.8 82.45 225.75 82.9 225.3 82.9 225 82.9 224.85 82.85 224.7 87.15 214.95 88.4 211.6 91.5 203.3 92.3 196.4 92.6 193.75 91.35 193 90.75 192.6 89.9 192.85 89.1 193.05 88.6 193.7 87.9 194.4 87.3 196.4 83.05 210.4 75.2 222.5 66.55 219.7 59.25 213.95 58.8 213.65 58.8 213.35 58.7 213 59.2 212.35 63.1 207.85 66.7 201.4 68.85 197.45 72.7 189.4
L 76.15 182.25
Q 78.6 179.8 81.3 178.5 85.1 176.6 91.4 176.3 99.8 175.75 108.85 177.25 111.65 186.95 116.8 191.8 118.25 193.2 122.05 195.75 126.15 198.5 128.5 199.7 132.2 201.65 135.5 202.25 141.35 203.35 148.1 200.8 155.55 198.05 159.8 192.65 161.95 189.95 164.85 183.6 166.05 181.05 166 179.55
M 86.9 74.65
Q 90 74.75 94.8 76.25 100.35 77.85 103.35 79.3 109.45 82.4 113.7 88.45 117.75 94.2 118.95 101.2 120.7 110.35 116.35 119.2 112 128.05 104.55 131.85 97.1 135.7 91.2 136.55 85.25 137.45 76.8 135.65 68.35 133.85 62 128.4 57.55 124.55 54.75 119.35 54.6 118.95 54.45 118.65 54.2 117.95 53.75 117.45 50.75 111 50.8 104.2 50.85 99.7 52.2 95.6 53.7 91.25 56.45 88 58.9 85.05 63.2 82.4 70.4 77.75 78.85 75.6 83.55 74.45 86.9 74.65
M 78.95 16.55
Q 78.85 16.75 78.8 17 75 24.6 69.7 31.55 62.05 41.6 51.95 49.5 48.65 52.05 45.2 54.4 48.25 37.15 48.9 34.3 49.8 30.75 50.6 28.55 51.8 25.45 53.5 23.3 57.9 17.6 68.5 15.05 73.5 13.8 80.25 13
L 78.95 16.55
M 62.35 227.25
Q 62.7 227.4 63.1 227.6 66.65 229.25 69.15 229.9 70.1 230.15 71 230.25 70.85 230.85 70.85 231.4 65.85 230.9 61 229.7 61.95 228.15 62.35 227.25
M 203.35 228.35
Q 205.9 228.55 208.8 228 209 229.15 209.6 230.25 205.35 230.6 201.7 231.05 201.6 230.75 200.95 228.85 200.75 228.3 200.55 227.65 201.6 228.2 203.35 228.35
M 92.2 91.25
Q 90.45 91.85 88 94.1 86.1 95.85 85.55 97.1 85.25 97.8 84.9 99.15 84.6 99.9 83.85 101.35 82.4 104.65 83.75 108.75 85.1 112.8 88.7 115.25 92.2 117.65 96.55 117.4 101.6 117.1 105.55 113.3 107.7 111.15 108.85 108.4 110.1 105.55 109.95 102.6 109.8 100.05 108.6 97.15 107.25 94.25 105.55 92.85 103.8 91.4 101.1 90.95 99.05 90.55 96.05 90.65 93.6 90.75 92.2 91.25
M 158 155.6
Q 156.9 154.6 155.35 155 154.45 155.25 152.8 156.45 148.95 159.45 144.9 159.3 144.1 159.3 142.6 159.05 141.05 158.9 140.3 158.85 139.25 158.9 138.8 158.9 137.85 158.9 137.2 158.75 136.5 158.6 135.7 158.15 134.7 157.6 134.2 157.35 133.4 157 132.95 156.8 132.15 156.4 131.7 156.1 131.35 155.8 130.65 154.8 130 154 129.45 153.7 128.65 153.15 127.55 153.3 126.5 153.4 125.8 154.05 125.1 154.75 124.9 155.8 124.7 156.8 125.05 157.75 125.55 158.95 126.95 160 128.8 161.4 132.25 162.8 135.2 163.9 136.75 164.05
L 140.75 164.35
Q 141.8 164.45 143.85 164.7 145.75 164.85 147 164.7 148.9 164.5 152.1 163.2 155.4 161.8 156.5 161.1 158.75 159.75 158.95 158.15 159.2 156.65 158 155.6
M 181.4 92.35
Q 179.15 93.1 177.6 94.15 175 95.9 173.7 98.75 173.1 100 172.9 101.1 172.7 102.35 173 104.95 173.35 108.35 174.35 110.15 175.05 111.3 176.5 112.6 179.3 115 182.15 115.75 183.65 116.1 186.6 116.1 190.35 116.1 192 115.4 194.2 114.4 196.8 110.7 198.2 108.7 198.55 107.75 199.45 105.5 198.9 102.7 198.4 100.1 196.8 97.6 195.45 95.35 193.6 93.85 190.9 91.85 187.5 91.55 184.6 91.3 181.4 92.35 Z"/>

<path fill="#FFB782" stroke="none" d="
M 208.8 228
Q 205.9 228.55 203.35 228.35 201.6 228.2 200.55 227.65 200.75 228.3 200.95 228.85 201.6 230.75 201.7 231.05 205.35 230.6 209.6 230.25 209 229.15 208.8 228
M 63.1 227.6
Q 62.7 227.4 62.35 227.25 61.95 228.15 61 229.7 65.85 230.9 70.85 231.4 70.85 230.85 71 230.25 70.1 230.15 69.15 229.9 66.65 229.25 63.1 227.6
M 211.85 144.35
L 218.7 144.35
Q 221.35 143.6 221.65 143.45 224.35 142.45 226.5 140.5 228.65 138.55 229.85 135.95 231.1 133.35 231.2 130.4 231.3 128.05 230.7 125.85 228.1 129.9 224.3 132.6 224.25 132.75 224.2 132.9 222.8 133.35 221.2 134.15 218 135.65 216.4 136.9 215.7 137.4 214.65 138.4
L 214.75 138.25
Q 215.2 137.65 215.65 137.1 211.25 139 208.4 139.65 203.9 140.65 196.75 141.1 189.6 141.45 182.9 139.5 176.15 137.45 170.45 133.1 164.7 128.7 161.25 122.65 158.6 118.1 157.1 112.7 155.45 106.35 155.9 100.3 156 98.85 156.2 97.55 155.5 98.1 154.85 98.5 151.85 100.25 150.45 101.3 149.65 101.8 147.2 103.85 143.85 106.65 140.05 109.4 137.65 111.2 136.1 111.75 133.6 112.7 131.5 111.8 130 111.1 127.95 108.25 127.25 107.25 125.3 104.75 125.65 112.75 121.3 121.95 116.8 131.35 108.9 135.5 101 139.6 96.8 140.65 92.65 141.6 85.55 142.05 78.4 142.45 71.65 140.5 64.9 138.45 59.2 134.05 54.9 130.75 51.85 126.5 50 129.05 49.2 131.1 48.15 134.1 48.75 136.55 49.05 138.2 50.85 141.05 51.05 141.35 51.25 141.6 51.9 142.55 52.45 143 53.25 143.8 54.2 144.35 65.95 147.45 71.35 148.6 78.3 155.15 88.75 159.15 98.95 163.2 115.8 165.25 117.3 165.45 118.9 165.6 119.9 164.8 121.25 164.65 123.3 164.35 124.85 165.7 125.05 165.85 125.25 166.05 125.85 166.1 126.45 166.1 126.45 166.95 126.45 167.95 126.95 169.3 126.95 171.15 126.95 173 126.35 174.25 125.8 175.4 124.7 176.2 123.65 176.9 122.35 177 121.7 177.1 121.15 177 120.8 177.3 120.35 177.6 119.4 178.25 118.3 178.45 119.05 181.3 120.05 183.4 122.15 188.25 125.4 191.15 127.65 193.2 132.1 195.45 136.2 197.5 138.85 197.7 142 198 145.65 196.4 148.25 195.25 151.8 192.7 155.05 190.4 156.15 188.9 157.3 187.3 158.2 184.65 159.05 181.6 159.6 180.1 159.95 179 160.45 178.25 160 178.35 159.45 178.4 158.25 178.5 157.05 177.95 155.9 177.4 155.2 176.4 153.5 174.05 154.55 169.45 154.85 168.15 155.3 167.25 155.25 166.55 155.2 165.95 155.7 165.9 156.25 165.9 157.2 164.95 158.7 164.85 160.45 164.65 161.65 165.7 170.3 165.35 175 164.5 181.45 163.3 189 159.95 190.5 159.4 191.05 158.95 193.15 157.95 195.35 156.75 206.25 151 211.85 144.35
M 155.35 155
Q 156.9 154.6 158 155.6 159.2 156.65 158.95 158.15 158.75 159.75 156.5 161.1 155.4 161.8 152.1 163.2 148.9 164.5 147 164.7 145.75 164.85 143.85 164.7 141.8 164.45 140.75 164.35
L 136.75 164.05
Q 135.2 163.9 132.25 162.8 128.8 161.4 126.95 160 125.55 158.95 125.05 157.75 124.7 156.8 124.9 155.8 125.1 154.75 125.8 154.05 126.5 153.4 127.55 153.3 128.65 153.15 129.45 153.7 130 154 130.65 154.8 131.35 155.8 131.7 156.1 132.15 156.4 132.95 156.8 133.4 157 134.2 157.35 134.7 157.6 135.7 158.15 136.5 158.6 137.2 158.75 137.85 158.9 138.8 158.9 139.25 158.9 140.3 158.85 141.05 158.9 142.6 159.05 144.1 159.3 144.9 159.3 148.95 159.45 152.8 156.45 154.45 155.25 155.35 155 Z"/>

<path fill="#B20069" stroke="none" d="
M 78.8 17
Q 78.85 16.75 78.95 16.55
L 80.25 13
Q 73.5 13.8 68.5 15.05 57.9 17.6 53.5 23.3 51.8 25.45 50.6 28.55 49.8 30.75 48.9 34.3 48.25 37.15 45.2 54.4 48.65 52.05 51.95 49.5 62.05 41.6 69.7 31.55 75 24.6 78.8 17
M 157.2 218.05
Q 152.2 215.45 144.9 215.1 135.9 214.75 127.2 217.95 118.55 221.2 111.95 227.35 109.45 229.65 108.75 231.6 108.4 232.6 108.3 233.8 112.9 234 117.65 234.2 118.1 233.65 119 232.95 126.2 227.55 133.8 225.45 140.65 223.5 147.05 224.35 141.5 227.7 135.05 231.45 132.3 233 129.75 234.5 136.45 234.6 143.5 234.45 144.95 234.4 146.4 234.4 151.65 231.3 156.35 228.35 156.45 228.55 156.6 228.8 157.65 230.45 157.9 234 162.1 233.85 166.6 233.6 166.4 229.8 165.95 228.25 165.25 225.75 163.7 223.55 170.8 218.65 176.05 214.3 178.3 212.5 179.4 211 180.95 208.9 181 206.75 181 205.55 180.35 204.95 179.7 204.3 178.55 204.4 176.65 204.45 174.65 205.65 173.45 206.35 171.25 208.15 166 212.35 157.2 218.05
M 230.8 39.8
Q 228.95 32.5 226.3 28.85 222.45 23.45 214.2 20 209.25 17.95 202.95 16.65 198.3 15.75 191.3 14.95 163.45 11.6 123.15 11.35 116.35 11.3 110.35 11.35 119.8 16.35 129.2 21.85 143.7 28.2 163.85 40.95 168.3 32.15 174.65 24.75 177.8 21.4 180.05 21.15 182.6 20.8 185.1 22.95 186.9 24.45 188.95 27.55 205.15 52.1 223.6 76.2 224.25 77.15 224.65 77.9 225.9 78.9 226.95 80.05 231.3 84.6 233.8 90.9 234.3 92.2 234.7 93.6 235.25 93.35 236.05 93.65 236.15 92.9 236.25 91.9 236.4 90.1 236.4 88.2 236.45 84.05 236.55 82.5 235.6 69.3 234.9 63.4 233.4 50.05 230.8 39.8 Z"/>

<path fill="#EEF7FF" stroke="none" d="
M 94.8 76.25
Q 90 74.75 86.9 74.65 83.55 74.45 78.85 75.6 70.4 77.75 63.2 82.4 58.9 85.05 56.45 88 53.7 91.25 52.2 95.6 50.85 99.7 50.8 104.2 50.75 111 53.75 117.45 54.2 117.95 54.45 118.65 54.6 118.95 54.75 119.35 57.55 124.55 62 128.4 68.35 133.85 76.8 135.65 85.25 137.45 91.2 136.55 97.1 135.7 104.55 131.85 112 128.05 116.35 119.2 120.7 110.35 118.95 101.2 117.75 94.2 113.7 88.45 109.45 82.4 103.35 79.3 100.35 77.85 94.8 76.25
M 88 94.1
Q 90.45 91.85 92.2 91.25 93.6 90.75 96.05 90.65 99.05 90.55 101.1 90.95 103.8 91.4 105.55 92.85 107.25 94.25 108.6 97.15 109.8 100.05 109.95 102.6 110.1 105.55 108.85 108.4 107.7 111.15 105.55 113.3 101.6 117.1 96.55 117.4 92.2 117.65 88.7 115.25 85.1 112.8 83.75 108.75 82.4 104.65 83.85 101.35 84.6 99.9 84.9 99.15 85.25 97.8 85.55 97.1 86.1 95.85 88 94.1
M 156.6 228.8
Q 156.45 228.55 156.35 228.35 151.65 231.3 146.4 234.4 151.95 234.25 157.9 234 157.65 230.45 156.6 228.8
M 129.75 234.5
Q 132.3 233 135.05 231.45 141.5 227.7 147.05 224.35 140.65 223.5 133.8 225.45 126.2 227.55 119 232.95 118.1 233.65 117.65 234.2 123.6 234.45 129.75 234.5
M 165.8 178.35
Q 166 178.9 166 179.55 166.05 181.05 164.85 183.6 161.95 189.95 159.8 192.65 155.55 198.05 148.1 200.8 141.35 203.35 135.5 202.25 132.2 201.65 128.5 199.7 126.15 198.5 122.05 195.75 118.25 193.2 116.8 191.8 111.65 186.95 108.85 177.25 99.8 175.75 91.4 176.3 85.1 176.6 81.3 178.5 78.6 179.8 76.15 182.25
L 72.7 189.4
Q 68.85 197.45 66.7 201.4 63.1 207.85 59.2 212.35 58.7 213 58.8 213.35 58.8 213.65 59.25 213.95 66.55 219.7 75.2 222.5 83.05 210.4 87.3 196.4 87.9 194.4 88.6 193.7 89.1 193.05 89.9 192.85 90.75 192.6 91.35 193 92.6 193.75 92.3 196.4 91.5 203.3 88.4 211.6 87.15 214.95 82.85 224.7 82.9 224.85 82.9 225 82.9 225.3 82.45 225.75 82.4 225.8 82.35 225.9 82.25 226.05 82.15 226.25 81.3 228.25 81.75 229.2 82.3 230.3 84.2 230.8 88.8 232.1 96.9 232.85 102.45 233.4 108.3 233.8 108.4 232.6 108.75 231.6 109.45 229.65 111.95 227.35 118.55 221.2 127.2 217.95 135.9 214.75 144.9 215.1 152.2 215.45 157.2 218.05 166 212.35 171.25 208.15 173.45 206.35 174.65 205.65 176.65 204.45 178.55 204.4 179.7 204.3 180.35 204.95 181 205.55 181 206.75 180.95 208.9 179.4 211 178.3 212.5 176.05 214.3 170.8 218.65 163.7 223.55 165.25 225.75 165.95 228.25 166.4 229.8 166.6 233.6 177.65 232.95 190 231.9 192 231.75 193.25 231.9 193.25 231.7 193.2 231.55 193.1 230.95 192.5 228.85 192 227.05 191.45 224 190.85 220.45 190.55 219.2 189.7 215.9 189.3 214.2 187.6 207.05 187.05 194.6 186.95 192.65 187.25 191.7 187.8 190 189.1 189.65 190.05 189.4 191 189.9 191.85 190.4 192.3 191.3 193 192.5 193.2 195.05 193.65 200.2 194.35 205.1
L 194.9 208.6
Q 195.4 210.85 196.6 214.85
L 199.15 223.1
Q 199.4 222.65 199.8 222.25 200.85 221.35 203.85 220.7 209.15 219.55 214.2 217.6
L 211.3 211
Q 209.75 207.5 209.35 205.85 208.9 204.15 208.3 199.65 207.65 195.15 205.65 185.85 205.2 183.8 204.7 182.35 203.7 181.65 202.6 181.15 199 179.3 193.4 178.45 182.65 176.65 167.9 178.15 166.7 178.25 165.8 178.35
M 174.4 81.4
Q 172.1 82.85 170.4 84.35 170.7 84.65 170.45 85.2 170.3 85.55 169.75 86.1
L 166 89.3
Q 164.4 91.7 163.45 94.6 162.05 98.75 162 103.25 161.95 110.05 165 116.5 168 122.9 173.25 127.4 179.55 132.85 188.05 134.65 196.45 136.45 202.8 135.2 209.05 133.9 216.75 129.9 224.45 125.9 228.2 117.65 231.9 109.35 230.2 100.2 228.95 93.25 224.9 87.45 220.7 81.4 214.55 78.35 211.55 76.85 206.05 75.25 201.25 73.8 198.15 73.7 194.75 73.5 190.1 74.6 181.6 76.75 174.4 81.4
M 177.6 94.15
Q 179.15 93.1 181.4 92.35 184.6 91.3 187.5 91.55 190.9 91.85 193.6 93.85 195.45 95.35 196.8 97.6 198.4 100.1 198.9 102.7 199.45 105.5 198.55 107.75 198.2 108.7 196.8 110.7 194.2 114.4 192 115.4 190.35 116.1 186.6 116.1 183.65 116.1 182.15 115.75 179.3 115 176.5 112.6 175.05 111.3 174.35 110.15 173.35 108.35 173 104.95 172.7 102.35 172.9 101.1 173.1 100 173.7 98.75 175 95.9 177.6 94.15 Z"/>

<path fill="#2EAEAC" stroke="none" d="
M 236.45 102.85
Q 236.45 103.15 236.45 103.45 236.85 109.65 234.7 116.6 234.8 116.65 234.95 116.75 236.2 117.55 237.1 119.55 239.2 123.95 239.35 129 239.45 134.05 237.55 138.6 235.65 143.1 231.9 146.5 228.15 149.95 223.5 151.4 223 151.55 222.6 151.7
L 213.85 151.7
Q 213.15 152.35 212.45 153 206.75 159 201.7 161.65 201 162.05 200.15 162.45 198.2 163.85 196.75 164.6 193.8 166.3 188.35 167.85 186.6 168.35 185 168.85 192.4 169.1 198.1 170.45 203 171.55 206.95 173.6 206.55 170.85 207.35 168.35 207.8 166.95 208.55 165.75 209.9 163.2 212.85 160.5 215.15 158.5 216.85 157.8 219.3 156.85 221.25 157.6 222.3 158 223 158.95 223.5 159.6 223.65 160.3
L 223.85 159.95
Q 223.95 160.2 223.95 160.55 224.1 161.35 224.15 163.3 224.2 165 224.45 166 230.2 163.35 234.75 156.65 236.95 153.5 238.6 149.85
L 238.75 149.5
Q 238.85 149.35 238.9 149.15 239.8 146.85 240.6 144.35
L 240.4 144.85
Q 243.2 136.25 242.85 130.7 242.3 122.6 239.85 113.55 238.55 108.6 236.45 102.85
M 169.4 45.1
Q 167.95 47.6 166.6 48.15 165.4 48.65 163.8 48.15 162.7 47.8 160.95 46.8 142.35 36.15 128.45 29.9 112.35 20.85 89.8 8.15 86.95 18.45 84.4 23.15 73.45 42.95 54.15 57.2 35.6 71 12.8 77.05 10.8 77.6 10.35 78.5 9.95 79.2 10.3 80.85 12.85 92.45 20.1 102.4 26.85 111.75 36.3 117.75 36.3 117.85 36.2 118
L 33.65 123.8
Q 33.25 123.7 32.85 123.6 32.05 125 30.4 127.85 28.6 131 27.7 133.1 25.5 138.35 25.5 144.35
L 26.25 144.35
Q 27.25 148.9 29.45 153.15 32.8 159.45 38.4 164.4 43.8 169.2 50.65 172 52.7 172.9 53.25 173.15 53.95 171.15 55.1 169.4 56.25 167.65 57.95 165.6 60.15 162.95 61.7 161.8 64.35 160.1 66.8 160.75 68.3 161.1 69.5 162.3 70.6 163.5 71.15 165.05 71.9 167.4 71.55 171.35 73.2 171.2 75.35 171.55 76.3 171.75 77.9 172.1 78.25 171.9 78.6 171.7 83.7 168.95 92.35 167 87.35 165.85 83.2 164.35 70 159.8 61.9 151.7 52.2 151.45 45.75 144.85 45 143.5 44.55 142.8 42.9 141 42.05 139.6 39.65 135.7 40.2 131.15 40.4 129.6 40.9 127.75 41.75 124.4 42.65 122.95 43.1 122.2 43.85 121.25 45 119.9 45.2 119.6
L 46.45 117.9
Q 46.75 117.55 47.05 117.25 46.35 115.55 45.9 113.7 44.2 107.3 44.65 101.3 45.1 94.65 48.05 89.45 52.15 82.15 62.7 75.85 74.75 68.7 84.75 68.5 91.3 68.35 99.15 71.1 109.8 74.8 115.75 81.05 120.05 85.6 122.55 91.85 123.1 93.25 123.55 94.65 127.55 99.6 132.25 104.7 132.95 105.5 133.5 105.55 134.15 105.65 135.15 104.95 138.95 102.25 141 100.65 141.85 99.95 143.6 98.5 145.1 97.2 146.2 96.45 147.8 95.35 151.2 93.5 153.05 92.4 156.6 89.95 158.05 89 159.35 88.4 163.5 81.15 173.9 74.85 186 67.7 196 67.5 202.55 67.35 210.4 70.1 210.95 70.3 211.5 70.5 194.8 51.85 181.25 30.55 174.3 37 169.4 45.1 Z"/>
</g>
</defs>

<g transform="matrix( 1, 0, 0, 1, 18.1,28.85) ">
<g transform="matrix( 1, 0, 0, 1, 0,0) ">
<use xlink:href="#baxter_0_Layer1_0_FILL"/>
</g>

<g transform="matrix( 1, 0, 0, 1, 0,0) ">
<use xlink:href="#baxter_0_Layer0_0_FILL"/>
</g>
</g>
</svg>
