
<svg xmlns="http://www.w3.org/2000/svg" version="1.1" xmlns:xlink="http://www.w3.org/1999/xlink" preserveAspectRatio="none" x="0px" y="0px" width="150px" height="150px" viewBox="0 0 150 150">
<defs>
<g id="Layer0_0_FILL">
<path fill="#FFFFFF" stroke="none" d="
M 70.95 157.15
Q 71.05 156.7 71.05 156.6 71 156.55 70.7 156.3 69.7 155.95 68.25 156.4 67.8 156.55 66.15 157.55 61.25 160.45 55.65 162.4 53.85 163 53.2 163.4
L 52.05 164.05
Q 51.55 164.35 51.45 164.45 51.2 164.75 51.25 165.15 51.3 165.6 51.6 165.85 51.85 166 52.45 166.15 54.65 166.35 57.55 165.45
L 62.8 163.25
Q 65.95 161.75 69.25 159.6 70.6 158.7 70.75 157.9
L 70.95 157.15
M 180 105.6
Q 175.45 108.05 166.75 111.05 161.1 113.05 157.9 113.8 152.85 114.95 148.7 114.5 148.3 110.8 145.4 107.9 142.5 105 138.8 104.65 135.6 104.3 133.35 105.9 132.2 106.7 131.55 107.95 130.85 109.25 130.9 110.65 131 112.6 132.6 114.3 134 115.8 136.1 116.65 137.45 117.2 140.15 117.9 142.9 118.65 144.15 119.1 141.3 124.45 135.7 126.85 134.3 127.4 133.45 127.3 133 127.2 131.5 126.45 127.6 124.8 121.6 128.3 121.1 128.65 120.6 128.95 121.4 126.95 121.8 125.75 122.55 123.55 123.2 120.15 123.75 117.2 124.4 112.1 124.45 111.5 124.55 110.9 124.55 110.45 124.7 110 124.9 109.3 125.15 108.65 126.7 103.05 126.75 98.95 126.8 97.75 126.75 96.7 127.85 96.55 128.75 96.3 129.5 96.05 130.15 95.7 131 95.65 132.45 95.25 137.5 93.9 140.85 92.65 145.3 90.95 148.65 88.85 154.35 85.25 155.85 80.55 156.2 79.15 156.3 77.75 156.3 77.45 156.35 77.1 156.3 74.25 155.15 71.15 154.05 68.4 150.55 62.95
L 145.55 55.4
Q 144.8 54.25 144.2 53.7 143.7 53.4 143.4 53.3 144.35 50.4 144.2 46.8 144.05 43.4 142.85 39.05 139.75 27 133.5 19.1 129.95 14.55 125.5 11.35 120.75 8 115.55 6.45 112.9 5.65 109.4 5.15 103.6 4.25 96.95 4.1 92.95 4 88.65 4.1 80.85 4.25 67.65 5.55 59.85 6.2 55.25 7.1 50.95 7.9 46.3 9.25 36.05 12.3 31.4 17.5 30.35 18.65 28.3 21.8
L 24.95 26.95
Q 22.65 30.6 21.85 32.4 21.05 34.2 22.05 34.7 11.85 43.5 -2.1 48.75 -4.4 49.65 -5.05 50.2 -5.35 50.5 -5.55 50.8 -6.5 51.2 -6.95 52 -7.2 52.35 -7.3 52.9 -7.5 54.3 -6.4 56.2 -4.45 59.8 -0.4 64.25 1.45 66.3 5.55 68.8 8.3 70.4 12.1 72.3 11.2 73.7 10.5 75.45 9.1 78.9 9.05 82.95 9 89.6 12.25 95.15 12.15 95.25 12.1 95.4 10.9 97.55 10.55 99.2 10.15 101.2 10.4 103.85 10.45 104.55 10.6 105.2 8.25 105.95 6.95 107.6 6.05 108.8 5.5 111 4.25 115.45 4.65 119.2 4.85 120.85 5.5 123.3 5.85 124.6 6.6 127.25 6.95 128.75 7.5 131.6 8.15 134.05 9.25 135.6 10.8 137.75 13.95 139.15 16.05 140.1 18.2 140.55 18.25 140.65 18.3 140.8 19.6 143.45 21.65 144.45 16.45 147.4 14.3 152.15 12.7 155.65 13.1 159.95 13.4 163.9 15.3 167.7 18.2 173.6 25.75 180.1 30 183.75 33.45 184.65 32.45 185.5 31.8 186.2 30.2 187.8 29.75 189.05 28.9 191.1 29.95 192.55 30.65 193.7 32.25 194.15 33.1 194.35 34.95 194.45 38.5 194.45 40.35 193.85 41.4 193.45 41.9 192.9 42.3 192.4 42.25 191.65 42.25 190.95 41.8 190.5 41.25 189.95 39.95 189.8 39.25 189.7 37.7 189.65 36.3 189.6 35.5 189.5 39.9 186.5 43.65 183 45 181.7 45.85 181.15 47.2 180.25 48.45 180.1 49.75 180.05 50.2 179.85 51.05 179.55 51.35 178.55 51.55 177.55 51.1 176.7 50.1 174.95 47.85 174.9 46.05 174.8 44 175.85 42.9 176.55 40.75 178.25 38.25 180.35 36.35 182 36.25 181.85 36.2 181.75 35.55 180.7 34.3 179.6 34.05 179.35 32.1 177.8 26.6 173.3 22.8 167.6 18.6 161.3 19.75 156.6 20.5 153.15 23.85 150.55 25.85 149.05 30.35 147.05 34.95 144.95 38.05 144.65 38.75 144.55 40.1 144.45 41.25 144.3 41.95 143.9 42.3 143.7 42.55 143.55
L 43.75 143.25
Q 45.45 143 45.9 143 46.45 142.95 47.6 142.85 47.9 142.8 48.25 142.7 48.95 143.25 49.65 143.7 51 144.45 52.75 144.95 59.25 147.15 63.4 145.35 64.9 144.7 66.6 143.3 67.7 142.3 68.4 141.45 68.5 141.5 68.65 141.55 69.75 142.4 71.3 142.85 72.7 143.25 73.8 143.15 73.15 145 72.75 147.05 71.45 153.2 72.95 157.2 73.6 158.85 74.65 159.45 75.3 159.8 76 159.75 76.85 159.6 77.15 159 77.4 158.55 77.15 157 76.55 153.45 78.4 148 80.35 142.6 82.6 139.5 85.7 135.2 90 133.7 93.6 132.5 96.3 133.65 99.1 134.75 100.9 138.15 103.4 142.8 102.75 149.85 102.35 153.85 100.7 161.65 100.45 163.35 100.35 164.85 99 164.65 96.85 164.3 92.95 163.65 91 163.3 87.65 162.75 85.2 162.65 78.5 162.25 73.9 164.65 70.4 166.45 70.2 169.15 70 170.9 71.45 173.05 72.65 174.7 73.8 174.95 74.5 175.15 75.2 174.85 75.9 174.65 76.25 174.05 76.6 173.45 76.6 172.7 76.6 171.95 76.2 171.4 75.75 170.8 75.5 170.45 75.2 169.9 75.3 169.5 75.35 169.1 76 168.75 79.65 166.6 85.4 167.2 87.2 167.35 90.2 167.95 93.8 168.65 94.95 168.85 96.55 169.15 99.65 169.55 101.25 169.2 102.3 169.85 102.8 170.15 103.1 170.55 103.15 170.45 103.3 170.35 104 170.6 104.65 170.8 105.4 171.15 105.6 171.65 105.75 172.2 105.2 172.8 103.75 174.9 103 177.15 102.35 179.1 103.05 180.05 103.9 181.15 105.55 180.75 106.3 180.5 107.75 179.25 110.5 176.75 111.25 174.6 111.85 173.25 111.75 171.7 111.65 170.15 110.7 168.95 109.75 167.6 107.55 166.7 106.7 166.35 105.7 166.05 105.85 165.55 106.05 164.95 107.65 160.05 108.4 156.75 109.45 152.15 109.55 148.25 109.6 144.95 109 141.85 109.95 141.85 111 141.45 113.75 140.5 115.6 138.35 116.65 137.25 117.85 135.05 119.1 134.15 120.4 133.25 123.35 131.15 124.95 130.4 127.65 129.15 129.95 129.55 125.8 132.15 123.7 136.6 122.8 138.65 122.8 140.6 122.85 142.9 124.3 144.15 125.6 145.25 127.5 145.2 129.25 145.15 130.9 144.2 134.15 142.4 135.65 138.65 137.1 134.9 136 131.2 140.3 129.95 143.65 126.8 147 123.65 148.5 119.45 157.45 119.6 165.85 115.9 174.2 112.25 180 105.6
M 124.25 16.6
Q 127.75 20.15 129.6 22.7 133.5 28.15 136.55 37.75 138.6 44.4 138.65 48.65 134.45 44.7 128.65 39.45 126 37.1 124.05 35.45 123.7 34.85 122.95 34.35 107.5 22 94.35 8.45 93.1 7.2 92.35 6.7 92.3015625 6.6515625 92.25 6.65 94.1515625 6.6501953125 96.05 6.85 98.3 6.95 102.7 7.6 107.45 8.2 109.75 8.8 112.3 9.35 115.25 10.5 118.25 11.75 120.1 13 121.9 14.25 124.25 16.6
M 87.7 6.65
Q 87.3 6.95 86.9 7.3 86.1 8 85.05 9.95 83.2 13.25 82.55 15.15 81.2 18.25 81.45 20.75
L 81.4 20.75
Q 79.15 20.35 75.25 19.45 57.3 15.25 48.2 12.8 49.9 12.25 51.9 11.85 54.25 11.35 62.1 10.05 76.2 7.65 79.1 7.35 83.65 6.8 87.7 6.65
M 85.4 21.15
Q 85.7 20.4 86.8 17.25 87.85 14.05 89.8 11.35 93.6 15.8 99.25 20.9 102.5 23.95 109.7 29.95 114.2 33.7 116.85 35.85 117.6 36.45 118.25 37 118.9 37.65 120.45 39 127.75 45.6 139 56.6 139.15 57.1 139.45 57.2 139.55 57.3 139.7 57.35
L 139.85 57.45
Q 138.55 59.9 138.1 64.05 137.6 68.3 137.2 77.1 135.35 74.5 134.95 74.2 134 73.2 133 72.75 132.9 71.45 132.7 70 132.35 67.2 130.95 66.5 130.35 66.2 129.65 66.25 128.8 66.3 128.35 66.75 127.7 67.25 127.25 68.6 126.75 69.7 125.95 72.1 125.1 74.05 124.35 75.45 124 76.1 122.35 78.45
L 119.85 81.95
Q 118.65 83.25 117.85 84.6
L 117.35 85.35
Q 115.05 85.55 112.25 86.7 107.5 88.5 103.5 91.45 104 90.65 104.4 89.3 104.85 87.85 105.55 84
L 106.6 77.2
Q 113.65 76.1 117.8 71.9 119.6 69.9 121.15 66.85 123.1 62.85 123.6 59.2 124.15 54.95 122.7 51.55 121.65 49.4 119.75 47.1 117.15 43.9 114.55 42.5 111 40.55 106.55 40.75 100.6 41 95.2 44.6 90.35 47.9 87.2 53.35 85.8 55.7 85.25 57.9 85.05 57.7 84.7 57.75 84.4 57.8 84 58.15 82.05 59.4 81.8 59.7 80.85 60.35 78.9 62.55
L 73.2 69.15
Q 72.85 69.5 72.65 69.45 72.45 69.45 72.35 69.1 69.65 65.45 67.7 61.1 67.45 60.5 67.1 60.35 66.35 58.3 65.15 56.45 63.05 53.5 59.9 51.65 56.95 49.9 53.65 49.55 48.75 49 43.5 51.6 39.55 53.35 36.95 56.25 35.15 58.2 33.75 60.8 31.55 64.85 31.4 69.3 31.15 73.95 33.25 77.7 34.55 80.15 36.85 81.9 36.5 82.1 36.2 82.35 34.75 83.45 33.55 85.25 33.45 85.35 33.45 85.45 33.3 85.5 33.2 85.75 33.05 86 32.95 86.2 32.75 86.5 32.55 86.9 29.6 85.75 26.6 85.85 23.15 85.95 20 87.45 17.9 88.45 16.25 90 15.8 89.05 15.5 88.2 15.1 86.75 14.9 84.9 14.45 80.95 15 78.65 15.3 77.2 16.25 74.85 16.85 73.25 17.3 72.25
L 19.25 68.4
Q 14.15 66.9 12.25 65.8 5.3 61.45 2.8 58.3 1.55 56.85 -0.6 53.75 -0.55 53.7 -0.3 53.6 12.2 48.05 22.95 39 33.2 30.15 40.3 19.15 41.35 17.4 42.05 16.3 42.75 16.65 43.85 16.95 57.65 20.6 77.85 24.35 80 24.75 81.2 24.9 82.45 24.95 83.35 24.65 84.6 24.1 84.7 23.05 84.7 22.7 84.6 22.5 85.05 21.85 85.4 21.15
M 105.95 45.65
Q 107.55 45.55 109.05 45.75 107.4 45.9 106.05 46.5 102.75 47.85 100.65 52.45 99.65 54.7 99.4 56.95 99.1 59.25 99.75 61.9 100.35 64.5 101.5 66.2 103 68.25 105.2 69.05 106.75 69.55 110.1 69.25 112.2 69 113.55 68.65 113.2 69 112.85 69.3 108.65 72.65 101.7 72.35 96.7 72.15 94.1 70.05 92.4 68.65 91.25 66.25 90.5 64.55 89.65 61.6 89.3 60.35 89.35 59.6 89.4 58.9 89.9 57.7 91.8 53.3 95.6 50.15 97.05 49 98.2 48.35 102 45.9 105.95 45.65
M 84.9 59.75
Q 84.8 60.3 84.85 60.9 84.9 62.15 85.65 64.95 86.75 68.5 87.6 70.05 89.95 74.2 94.95 76.1 98.45 77.45 102.75 77.45
L 102.7 77.55
Q 102.25 78.6 101.55 81.1 100.1 86.5 99.8 89.2 99.65 90.25 99.9 90.95 100 91.35 100.2 91.7
L 91.5 94.45
Q 90.4 94.7 89.85 95.1 88.95 95.65 89.05 96.65 89.05 96.7 89.1 96.9 88.55 97.5 87.65 98.45 84.75 101.9 82.35 103.9 79.2 106.6 76.1 107.7 74.75 108.15 73.95 107.95 72.5 107.65 72.05 105.8 71.9 104.45 71.85 103.55 72.4 102.8 72.95 101.6 73.3 100.8 73.4 100.25 73.55 99.35 73.1 98.7 72.7 98 72.05 97.75 71.45 97.55 70.75 97.65 70.55 97.7 67 97.6 63.45 97.45 56.65 95.9 49.85 94.35 44.1 90.6 38.35 86.85 38.15 86.35 38.95 84.7 39.25 83.9 39.3 83.65 39.45 83.45 43.1 85.3 47.3 85.05 50.95 84.85 55.2 82.9 60.6 80.4 63.65 76.9 66.1 73.95 67.25 70.3 67.5 69.35 67.75 68.5 68.8 70.85 70.5 72.4 71.9 73.55 73.1 73.6 73.85 73.5 75.25 72.55 76.15 71.85 77.95 69.95 80.55 67 81.4 65.85 83.5 63.1 84.9 59.75
M 99.1 96.25
Q 98.9 97.05 99.55 97.9 100.2 98.75 101.25 98.75 102.1 98.75 103.8 97.55 110.05 93.1 117.25 91.4 118.35 91.15 118.85 91.45 119.2 91.6 119.65 92.45 121 95.75 120.3 101.15
L 119.65 105.55
Q 119.2 108.2 119.15 109.95 119.15 110.3 119.15 110.7
L 119.2 110.7
Q 119.25 111.3 119.4 111.75 119.25 111.7 119.15 111.6 117.55 110.95 115.7 110.6
L 115.65 110.6
Q 112.2 109.95 107.85 110.35 107.1 110.45 106.35 110.5 103.75 110.85 101.4 111.35 100.55 111.55 99.75 111.75 99.85 111.5 99.95 111.3 100.2 110.65 100.4 110.1 100.55 109.7 100.7 109.35 101.25 108.1 101.35 107.7 101.45 106.65 101.05 106.15 100.65 105.65 100.2 105.5 99.55 105.35 99.15 105.55 98.55 105.8 98.1 106.55 97.85 106.9 97.45 107.8 96.95 108.5 95.95 109.65 95.7 109.7 95.65 109.95 95.25 110.5 94.85 111.15 94.3 111.95 93.75 112.8 93.3 113.45 92.75 114.45 91.9 115.1 91.7 115.95 91.65 116.05 91.65 116.2 90.95 117.3 90.3 117.75 89.95 117.95 88.65 118.3 88.6 118.25 88.55 118.2 88.05 117.75 86.75 117.25 71.7 111.45 58.8 112.95
L 60.4 110.9
Q 61 110.1 61.05 109.6 61.2 108.9 60.7 108.3 60.25 107.7 59.45 107.65 58.9 107.65 58.3 107.95 57.7 108.25 56.7 109 55.7 109.85 55 110.6
L 54.9 110.35
Q 54.8 110.2 54.15 109.1
L 53.25 107.7
Q 52.75 107 52.25 106.45 52.5 106.35 52.8 106.3 55.2 106.2 55.7 105.9 56.75 105.25 58.9 105.05 64.45 104.4 66.75 104.45 66.9 104.45 67.1 104.45 67.2 105.15 67.3 106.4 67.5 107.8 68 108.8 67.95 108.9 68.1 109.1
L 68.15 109.1
Q 68.6 109.8 69.25 110.3 69.85 110.8 70.6 111.1 72.35 111.85 74.1 111.6 75.3 111.35 76.85 110.55 77.15 110.45 77.45 110.25 78.2 109.85 78.95 109.45
L 78.9 109.45
Q 85.55 105.7 89.7 100.6 90.8 99.35 91.1 98.45 91.15 98.35 91.2 98.25 91.55 98.2 91.95 98.2 93.8 98 97.65 96.75 98.45 96.45 99.1 96.25
M 143.8 62.95
Q 144.25 63.7 144.75 64.55 148.35 70.35 148.9 71.35 150.65 74.7 150.5 76.9 150.2 80.7 144.8 83.9 143.9 84.35 143 84.85 143.05 84.45 143.15 84.1 143.2 83.5 142.9 81.55 142.4 78.3 142.9 72.7 143.3 66.85 143.8 62.95
M 134.3 80.65
Q 136.55 83.65 138.15 85.1 139.1 85.9 140 86.25 139.05 86.6 138 87.1 133.25 88.8 130.9 89.85 130.3 90 129.9 90.2 129.45 90.15 129.05 90.2 128.65 90.25 128.15 90.35 128.8 89.85 129.8 89.25 131.25 88.2 132.05 87.4 133.55 85.65 134.05 82.5 134.25 81.55 134.3 80.65
M 130.1 78.8
L 130.1 79.9
Q 130.15 82.1 129.35 83.65 128.45 85.65 126.7 86.5 125.15 87.05 124.5 87.35 124.2 87.5 123.85 87.75 123.25 87 122.55 86.5 122.05 86.05 121.35 85.9 121.7 85.45 122.05 85.15 125.95 81.1 128.5 76.15 129.15 78.1 130.1 78.8
M 33.1 21.1
Q 34.95 18.95 36.9 17.5 34.95 20.3 32.25 23.65 29.6 26.95 27.4 29.5 26.9 30 26.45 30.55
L 29.4 26.2
Q 31.75 22.65 33.1 21.1
M 37.1 73.1
Q 37.05 72.05 37 71.6 36.7 70.25 36.65 69.6 35.85 65.45 39.05 61.15 40.8 58.7 43.5 57 46.1 55.25 49.1 54.6 50.05 54.25 51.05 54.3 50.1 54.65 49.3 55.35 47.65 56.55 46.75 58.2 45.35 60.75 45.65 64.75 46 70 48.6 72.95 50.1 74.65 52.3 75.55 54.5 76.35 56.7 75.8 57.45 75.55 58.45 75.2 57.15 76.25 55.55 77.3 53.25 78.6 51.55 79.25 48.25 80.35 45 79.9 41.65 79.4 39.45 77.2 38.5 76.35 37.95 75.45 37.2 74.15 37.1 73.1
M 16.45 98.3
Q 16.95 97.1 18.2 95.7 22.2 91.55 26.95 91.4 28.5 91.45 29.6 91.75 30.7 92.05 32.2 92.8 33.7 93.45 34.7 94.3 35.6 95.15 36.8 97.4 38.8 101.05 38.85 103.25 38.9 105.05 38.05 107.2 37.4 109.05 36.25 110.55 34.8 112.55 32.6 113.8 30.35 115.05 27.85 115.15 25.35 115.25 22.95 114.2 20.55 113.1 18.95 111.15 15.65 107.25 16 100.75 16.1 99.2 16.45 98.3
M 42.6 96.85
Q 44.1 97.6 45.8 98.4 48.45 99.65 52.9 100.35 51.25 100.6 49.35 101.2 46.8 101.9 44.4 102.95 44.2 100.2 42.6 96.85
M 48.4 107.6
Q 48.9 107.9 49.4 108.5 49.8 108.95 50.7 110.45 51.15 111.25 51.25 111.5 51.65 112.35 51.85 113.3 52.05 114 52.3 114.5 49.8 115.55 44.75 117.95 43.35 119.15 42.25 120.6 40.4 123.1 39.75 126 39.2 128.4 39.55 130.85 39.2 131 38.8 131.2 38.25 131.5 35.35 133 36.45 130.85 37.3 127.3 38.1 124.05 38.45 121.15 38.75 118.8 38.2 117.6 38.1 117.4 38 117.1 39.1 116.15 40 115 41.1 113.55 42.4 110.95 42.85 110.75 43.4 110.4 44.45 109.65 45 109.25 46.2 108.4 48.4 107.6
M 49.05 123
Q 51.95 120.55 57.75 119.45 71.45 116.8 85.15 120.95 85.85 121.15 86.45 121.3 86.7 122.05 87.35 122.65 88.15 123.4 89.1 123.6 91 123.95 92.9 122.8 94.25 121.9 95.6 120 96.25 119.15 96.9 117.95 100.6 116.45 106.5 115.45 112.7 114.4 116.25 115.7 116.75 115.85 117.75 116.25 118.45 116.45 119.05 116.55 118.55 118.4 118.05 120 115.95 126.75 113.05 132 111.7 134.15 110.75 134.85 110.2 135.35 109.1 135.9 107.95 136.45 107.5 136.8 106.3 134.15 104.55 132 101.65 128.45 98 127.2 93.6 125.75 88.5 127.25 85.5 128.25 83.05 129.95 79.05 132.7 76.35 137.4 76 137.95 75.75 138.55 75.35 138.15 74.75 137.85 74.15 137.5 72.7 136.9 71.25 136.3 70.6 135.9 69.55 135.25 69.15 135.05 67.7 134.55 66.6 135.5 65.7 136.2 65.7 137.3 64.95 137.85 63.9 138.65 62.1 140 60.8 140.4 59.4 140.8 57.5 140.6 54.4 140.35 51.65 138.85 51.2 138.6 50.75 138.35 50.5 137.95 50.2 137.55 48.65 135.6 47.9 134.65 46.6 132.85 46.1 131.45 45.45 129.2 46.35 126.85 47.2 124.55 49.05 123
M 42.3 137.35
Q 42.55 137.7 42.85 138 42.55 138 42.25 138.1 40.9 138.35 40.2 138.55 39 138.85 38.3 139.3 37.8 139.45 37.2 139.95 35.85 140.1 34.45 140.4 29.45 141.25 25.9 142.55 25.2 141.7 24.7 141.4 24 141.1 23.45 140.75 24.65 140.6 25.85 140.3 26.3 140.15 26.75 140.05 27 140.1 27.3 140.2 28.75 140.6 29.95 140.4 31.3 140.25 32.9 139.45 36.65 137.8 40.05 135.4 40.4 135.15 40.75 134.9 41.35 136.25 42.3 137.35
M 24.6 120.6
Q 28.45 121.3 32.15 120.25 31.75 121.95 31.5 124.35 30.95 129.5 29.2 131.6 27.8 133.25 25.15 134.2 21.15 135.5 17.25 134.2 14.85 133.4 13.9 131.95 13.45 131.25 13.2 130.25 13.15 130.05 12.9 128.3 12.7 126.65 12 123.95 11.15 120.75 10.95 119.6 9.9 114.35 11.6 110.95 11.8 110.55 12 110.2 13.6 113.95 16.85 116.75 20.35 119.75 24.6 120.6
M 143.3 111.8
Q 144.1 112.95 144.15 114.05 139.85 113.65 136.25 111.3 135.75 111 135.65 110.75 135.3 110 136.25 109.25 136.9 108.9 137.5 108.7 139.2 108.3 140.85 109.25 142.25 110.15 143.3 111.8
M 129.75 141.15
Q 128.5 141.85 127.4 141.4 126.6 141.1 126.4 140.35 126.35 139.9 126.6 139.2 126.85 138.55 127.55 137.4 128.8 135.25 129.65 134.45 130.75 133.45 133.45 132.35 134.5 134.05 133.7 136.2 133.2 137.55 131.6 139.5 130.6 140.7 129.75 141.15
M 23.25 97.3
L 22.25 97.25
Q 21.65 97.25 21.5 97.75 21.45 98.05 21.7 98.35 21.95 98.6 22.3 98.7 22.75 98.85 23.65 98.8
L 25 99.3 24.95 99.45 24.15 101.15
Q 23.35 100.95 22.95 100.95
L 21.8 100.9
Q 20.8 100.85 20.5 101.1 20.3 101.35 20.3 101.7 20.35 102.05 20.6 102.25 20.75 102.35 21.45 102.5
L 23.1 103.25 22.95 103.5
Q 22.7 104.1 22.9 104.7 23.2 105.4 23.8 105.4 24.2 105.45 24.65 105.1 24.95 104.8 25.3 104.15 25.6 104.3 25.9 104.35
L 29.25 105.8
Q 28.95 106.55 28.95 107 28.85 108 29.6 108.45 30.2 108.75 30.8 108.45 31.15 108.25 31.45 107.6 31.65 107.25 31.8 107 32.3 107.15 32.65 107.15 33.4 107.35 33.45 107.35 33.5 107.35 33.95 107.7 34.25 107.9 34.5 107.85 35.1 107.75 34.8 106.95 34.7 106.65 34.15 106.1
L 33.4 105.05
Q 33.2 104.85 32.8 104.6 32.85 104.35 32.95 104.05
L 33.3 102.8 33.45 101.8
Q 33.5 101.6 33.55 101.45 34.9 101.75 35.9 102.2 36.2 102.35 36.5 102.4 36.8 102.5 37 102.2 37.25 101.9 36.85 101.5
L 36.25 101.05
Q 35.85 100.8 35.25 100.25 34.55 99.5 34.3 99.3 34.1 99.15 33.9 99.05 33.95 98.6 34 98.3 34.2 97.7 33.85 97.3 33.7 97.15 33.4 97.15 33.15 97.05 32.95 97.25 32.75 97.45 32.65 98.1 32.65 98.25 32.6 98.4 32.5 98.35 32.4 98.3 30 97.35 27.6 97.1
L 27.65 96.2
Q 27.65 95.75 27.55 95.55 27.35 95.05 26.9 95.1 26.4 95.1 26.25 95.5 26.15 95.8 26.15 96.45 26.1 96.65 25.9 97 25 96.95 24.6 97.05
L 23.25 97.3
M 31.55 100.75
Q 31.4 100.95 31.35 101 31.2 101.3 31.05 101.95
L 30.5 102.95 30.35 103.45
Q 28.8 102.7 27.7 102.25 27.05 101.95 26.4 101.75
L 27.1 99.8
Q 27.5 99.85 28.1 99.9 29.25 100.1 31.15 100.65
L 31.55 100.75
M 83.9 92.45
L 83.5 91.1
Q 83.2 90.4 82.95 90.1 82.55 89.75 81.85 89.9 81.45 89.95 80.75 90.3 78.75 91.15 74.65 91.85 73.35 92 72.5 92.4 72.1 92.5 71.9 92.75 71.6 93.1 71.65 93.4 71.6 93.8 72.35 94.3 73.45 94.9 74.6 95 75.55 95 76.85 94.6
L 81.05 92.5
Q 83.1 96.7 82.2 96.55 81.2 96.5 80.5 96.4 79.65 96.25 79.3 96.4
L 79.15 96.45
Q 79.1 96.5 79.15 96.65 79.45 97.25 80.45 97.8 81.3 98.25 81.95 98.35 82.25 98.3 83.05 98.1 83.6 97.95 84.15 97.05 84.65 96.1 83.9 92.45 Z"/>
</g>
</defs>

<g transform="matrix( 1, 0, 0, 1, 0,0) ">
<use xlink:href="#Layer0_0_FILL"/>
</g>
</svg>
