
<svg xmlns="http://www.w3.org/2000/svg" version="1.1" xmlns:xlink="http://www.w3.org/1999/xlink" preserveAspectRatio="none" x="0px" y="0px" width="300px" height="300px" viewBox="0 0 300 300">
<defs>
<g id="nori_0_Layer1_0_FILL">
<path fill="#333366" stroke="none" d="
M 280.25 41.75
Q 272.8 27.9 260.6 18.05 248.7 8.4 233.55 3.75 218.65 -0.8 203.35 0.2 186.1 1.25 176.55 7.2 167 13.15 160.5 20.1 154 27.05 150.65 34.15 147.3 41.25 146.8 43.35 145.05 43.45 143.3 43.6 136.05 44.2 129.35 46.1 129.2 45.8 129 45.5 125.4 39 118.2 32.85 113.2 28.55 107.3 25.1 101.4 21.6 96.2 20 89.75 18.05 80.55 17.6 63.5 16.9 49.35 21.25 33.3 26.3 22.65 37.05 15.6 44.1 9.8 55 4.9 64.25 2.45 73.25 -1.8 89 1.35 104 3 111.8 6.6 118.75 10.4 125.9 15.8 131.35 22.25 137.75 31.85 142.65 39.05 146.35 50.15 150.15 48.85 151.5 46.4 152.2 43.4 152.85 41.95 153.2 39.5 153.75 37.8 154.95 35.75 156.4 35.55 158.45 35.15 160.9 37.3 163.15 38.65 164.5 41.6 165.95 49.7 169.85 58.65 171.4 67.65 172.9 76.5 171.8 85.35 170.75 93.55 167.15 97.45 165.5 100.9 163.4 100.3 164.3 99.75 165.35 97 170.6 95.75 176.55 94.6 182.35 95.2 188.15 95.9 194.95 99.2 198.15 101.45 200.45 105.15 201.1 105.6 201.2 106.05 201.25 104.55 203.4 102.45 206.65 100.85 209.2 99.6 211.25
L 97.45 213.9
Q 95.8 215.85 95.1 217.35 94.25 218.95 94.4 220.45 92.5 222.75 91.75 225.4 90.7 228.9 92.05 231.6 92.95 233.4 94.85 234.6 96.55 235.7 98.7 236.05 102.1 236.65 107.1 235.4 112.35 234.1 117.25 231.85 118.8 231.1 119.7 231.15 120.4 231.1 122.15 232.05 130.1 236.4 140.35 234.65 148.95 233.25 157.95 227.5 162.4 229.6 167.6 229.9 172.7 230.25 177.7 228.9 187.5 226.3 195 218.2 202.65 219.55 207.8 218.25 211.1 217.35 213.75 215.45 216.55 213.4 217.9 210.5 219.35 207.5 218.6 204.15 217.9 200.85 215.3 199.15 214.85 198.85 214.4 198.7 214.4 198.65 214.35 198.6 213.5 197.85 211 196.95
L 207.4 195.9
Q 207.9 194.8 208.3 193.65 209.4 190.15 209 186.55 208.75 184 207.55 180.45 207.45 175.55 206.85 172.6 206.05 169.05 204.05 165 203.9 164.6 203.65 164.15 215.7 168.15 228.45 168.35 244.2 168.6 258.25 163.05 264.95 160.25 268.25 157.15 272.05 153.55 274.65 147.1 276 143.6 275.5 141.5 275.1 140.05 273.8 139.2 272.4 138.25 271.15 138.7 270.3 138.95 269.4 140.05 268.25 141.4 267.8 141.7 266.2 142.7 262.8 142.05 257.65 140.9 253.05 138.55 263.55 134.6 271.7 124.9 279.1 116.25 283.55 104.4 290 87.4 288.85 71.05 287.8 55.85 280.25 41.75
M 151.2 43.25
Q 152.35 42.65 152.5 43.25 151.85 43.25 151.2 43.25 Z"/>
</g>

<g id="nori_0_Layer0_0_FILL">
<path fill="#333366" stroke="none" d="
M 280.25 41.75
Q 272.8 27.9 260.6 18.05 248.7 8.4 233.55 3.75 218.65 -0.8 203.35 0.2 186.1 1.25 176.55 7.2 167 13.15 160.5 20.1 154 27.05 150.65 34.15 147.3 41.25 146.8 43.35 145.05 43.45 143.3 43.6 136.05 44.2 129.35 46.1 129.2 45.8 129 45.5 125.4 39 118.2 32.85 113.2 28.55 107.3 25.1 101.4 21.6 96.2 20 89.75 18.05 80.55 17.6 63.5 16.9 49.35 21.25 33.3 26.3 22.65 37.05 15.6 44.1 9.8 55 4.9 64.25 2.45 73.25 -1.8 89 1.35 104 3 111.8 6.6 118.75 10.4 125.9 15.8 131.35 22.25 137.75 31.85 142.65 39.05 146.35 50.15 150.15 48.85 151.5 46.4 152.2 43.4 152.85 41.95 153.2 39.5 153.75 37.8 154.95 35.75 156.4 35.55 158.45 35.15 160.9 37.3 163.15 38.65 164.5 41.6 165.95 49.7 169.85 58.65 171.4 67.65 172.9 76.5 171.8 85.35 170.75 93.55 167.15 97.45 165.5 100.9 163.4 100.3 164.3 99.75 165.35 97 170.6 95.75 176.55 94.6 182.35 95.2 188.15 95.9 194.95 99.2 198.15 101.45 200.45 105.15 201.1 105.6 201.2 106.05 201.25 104.55 203.4 102.45 206.65 100.85 209.2 99.6 211.25
L 97.45 213.9
Q 95.8 215.85 95.1 217.35 94.25 218.95 94.4 220.45 92.5 222.75 91.75 225.4 90.7 228.9 92.05 231.6 92.95 233.4 94.85 234.6 96.55 235.7 98.7 236.05 102.1 236.65 107.1 235.4 112.35 234.1 117.25 231.85 118.8 231.1 119.7 231.15 120.4 231.1 122.15 232.05 130.1 236.4 140.35 234.65 148.95 233.25 157.95 227.5 162.4 229.6 167.6 229.9 172.7 230.25 177.7 228.9 187.5 226.3 195 218.2 202.65 219.55 207.8 218.25 211.1 217.35 213.75 215.45 216.55 213.4 217.9 210.5 219.35 207.5 218.6 204.15 217.9 200.85 215.3 199.15 214.85 198.85 214.4 198.7 214.4 198.65 214.35 198.6 213.5 197.85 211 196.95
L 207.4 195.9
Q 207.9 194.8 208.3 193.65 209.4 190.15 209 186.55 208.75 184 207.55 180.45 207.45 175.55 206.85 172.6 206.05 169.05 204.05 165 203.9 164.6 203.65 164.15 215.7 168.15 228.45 168.35 244.2 168.6 258.25 163.05 264.95 160.25 268.25 157.15 272.05 153.55 274.65 147.1 276 143.6 275.5 141.5 275.1 140.05 273.8 139.2 272.4 138.25 271.15 138.7 270.3 138.95 269.4 140.05 268.25 141.4 267.8 141.7 266.2 142.7 262.8 142.05 257.65 140.9 253.05 138.55 263.55 134.6 271.7 124.9 279.1 116.25 283.55 104.4 290 87.4 288.85 71.05 287.8 55.85 280.25 41.75
M 252.65 22.55
Q 261.6 28.8 268.15 37.55 274.9 46.45 278 56.7 281.6 68.6 280.3 82.2 279.15 94.6 273.95 107 269.8 117 264.35 123.3 257.45 131.15 248.8 133.6 247.05 134.05 246.65 134.25 245.5 134.75 244.85 135.4 244.1 136.25 243.9 137.45 243.75 138.7 244.15 139.8 245 141.95 247.2 143.3 249.3 144.65 252.45 145.2 254.4 145.55 258.1 145.55
L 267 145.8
Q 263.95 153.55 251.9 157.85 240.45 162.05 228.7 162.05 214.1 162.1 200.75 155.95 199.9 155.45 199.15 155.25 199.6 154.85 200.1 154.55 214.25 143.4 221.4 127.1 222.2 125.25 222.9 123.3 222.7 123.35 222.55 123.4 226.9 109.7 223.8 95.35 220.15 78.6 207.35 66.2 194.45 53.75 176.9 47.7 169.75 45.15 156.45 43.65 156.85 42.95 157.75 39.6 158.65 36.2 165.45 26.6 172.25 17 183.8 12.7 195.3 8.4 212.35 9.25 223.2 9.7 233.45 13.05 243.95 16.45 252.65 22.55
M 163.6 53.1
Q 180.75 56.9 194.6 67.05 209.3 77.7 214.45 94.6 218.5 107.85 215.2 119.75 207.85 118.7 203.2 117.8 202.25 117.55 201.35 117.35 200.95 118.65 200.3 120 199.95 120.75 199.5 121.5 200 121.6 200.45 121.7 202.85 122.25 209.95 123.4
L 213.8 124
Q 213.55 124.65 213.25 125.25 213.25 125.3 213.35 125.3 213.25 125.55 213.15 125.7 211.95 128.15 210.6 130.45 211.9 130.05 212.8 130.1 213.75 130.2 214.5 130.7 215.35 131.3 215.6 132.15 216 133.5 214.95 135.1 213.9 136.7 211.7 138.15 211.2 138.5 207.75 140.4 204.4 142.45 203.1 142.85 201.75 143.35 200.55 143.4 197.3 146.65 193.55 149.45 191.8 148 189.6 146.55 186.5 144.5 184.4 144.05 181 143.25 178.8 145.15 177.85 146.05 177.25 147.45 176.35 148.1 175.85 149.05 175.15 150.35 175.1 152.9 175 156.1 174.95 158.8 166.7 161.25 157.65 161.3 144.5 161.35 132.5 158 132.45 156.05 132.35 154.55 131.9 149.3 130 145.5 128.45 142.25 126.1 141.75 123 140.9 118.95 144.7 117.3 146.2 114.05 149.95 111 147.9 108.3 145.45 106.7 146.1 105.55 146.15 104.2 146.2 103 145.5 101.75 144.8 101.35 143.6 101.15 142.65 100.95 142.2 98.4 143.15 96 144.7 95.7 144.9 95.45 145.1 98.25 148.4 101.7 151.3 102.2 152.3 103.1 153.35
L 103.25 153.55
Q 103.05 153.65 102.9 153.75 96.9 159.55 88.05 162.55 79.45 165.5 69.4 165.7 55.05 165.9 47.25 159.7
L 53.9 155.55
Q 57.05 153.65 58.1 151.95 58.95 150.85 58.95 149.35 59.05 147.75 58.2 146.75 57.5 145.9 56.25 145.45 55.65 145.25 53.95 144.8 45.55 142.85 37.9 138.55 31.25 134.8 25.8 129.4 20.25 123.95 16.4 117.35 12.6 110.7 10.8 103.3 8.85 95.75 9.3 88.3 10 74.15 18.95 58.05 24.1 48.8 29.75 43.05 38.55 34.3 51.85 29.95 63.25 26.25 77.5 26.05 90.8 25.8 99.3 29.5 102.8 31.05 109.45 35.6 114.4 39 117 41.2 120.9 44.55 123.3 48 123.35 48.05 123.35 48.15 117.2 50.45 111.45 53.9 96.75 62.85 87.7 76.95 84.7 81.55 83.05 86.45 79.5 96.55 81.5 107.7 81.55 108.6 81.65 109.45 82.35 116.5 84.3 123.25 85.05 126.2 86.15 128.9 87.85 133.9 90.55 138.3 91.85 137.4 93.65 136.55 96.45 135.2 99 134.2 101.6 133.2 103 133.05 104.35 132.9 105.5 133.2 112.25 128.85 118.3 124.1 117.9 124.15 117.35 124.15 117 124.15 116.55 124.2 114.3 124.15 110.5 123.7 110.35 123.7 110.25 123.65 104.1 128 97.5 131.25 96.45 129.15 95.6 127.05 95.65 127.7 95.65 128.4 95.65 128.45 95.65 128.5 95.6 127.85 95.55 127.25 90.65 117.4 90 106.7 89.9 104.35 89.95 102.1 89.95 101.5 89.95 100.9 90 100.55 90.05 100.1 90.15 97.15 90.75 94.4 93.05 82 101.85 71.7 113.4 59.95 129.55 54.65 146.25 49.25 163.6 53.1
M 184.65 154.95
Q 185.9 156.15 187.2 157.7 188.7 159.35 190 161.05 199.25 172.65 201.35 184.35 202.15 189.35 200.75 192.35 199.7 194.7 197.7 195.9 196.05 197 194.5 196.95 193.15 196.9 191.55 195.8 189.25 194.05 187 190.25 182.9 182.75 181.9 172 181.6 169.1 181.55 164.8 181.5 161.1 181.65 156.4 181.7 154.6 181.75 152.65 183.15 153.55 184.65 154.95
M 168.6 167.95
Q 171.85 167.5 175 166.75 175.1 171.8 175.7 176.05 177.5 188.9 183.45 197.3 187.2 202.5 191.5 203.8 194.75 204.85 198.45 203.7 201 202.9 203.05 201.35 202.9 201.8 202.9 202 202.2 203.45 199.75 204.95 191.6 210.2 180.95 213.65 172.25 216.5 160.75 218.5 134.1 223 114.15 219.4 109.55 218.6 106.6 217.3 107.15 216.3 108 214.8 109.25 212.8 109.4 212.4 110.15 211.05 110.55 209.95 110.35 209.9 110.2 209.8 115.2 202.85 118.35 198.15 119.05 197.6 119.65 197.05 121.4 195.4 123.5 192 127.8 185.05 129.7 179 130.5 176.6 131.1 173.7 131.3 173 131.5 172.3 132.3 169.55 132 167.6 132.05 167 132.1 166.55 132.7 166.65 133.35 166.75 150.7 170.55 168.6 167.95
M 151.2 43.25
Q 152.35 42.65 152.5 43.25 151.85 43.25 151.2 43.25
M 116.7 157.85
Q 117.2 157.15 117.75 156.05
L 118.35 154.7 118.35 154.65 122.35 151
Q 122.65 150.8 122.9 150.55 123.25 150.65 123.5 150.85 124.3 151.45 124.6 152.75 125.15 154.6 125.05 157.6 124.95 162.35 124.15 168.15 122.5 180 118.45 187.05 116.95 189.55 115.5 190.75 113.45 192.5 111.15 192.35 110.55 192.4 110 192.2 109.1 192.3 108.2 192.2 106.5 192.05 105.8 191.35 105.3 190.9 104.9 189.55 103.6 184.75 104.2 179.9 104.6 176.8 105.6 173.95 106.3 171.95 107 170.65 107.55 169.8 108.65 168.4 111.7 164.25 115.15 160.35 115.45 159.8 115.6 159.55
L 116.7 157.85
M 139.9 228.4
Q 131.7 229.75 125.05 226.45 124.75 226.35 124.5 226.2 125.15 226.2 125.75 226.15 137.9 226.2 148.4 225.2 149 225.15 149.7 225.1 145.1 227.55 139.9 228.4
M 100.5 227.9
Q 100.2 227.35 100.7 226.55 100.95 226.05 101.65 225.35 102.35 225.4 103.1 225.45 110.7 225.9 117.4 226.1 117.25 226.15 117.15 226.2 109.95 229.8 102.05 228.75 100.75 228.6 100.5 227.9
M 207.9 207
Q 210.55 205.6 211.2 204.35 211.25 204.2 211.35 204.1 212.25 204.95 212.45 205.35 213.1 206.2 213.25 206.95 213.35 208.45 211.75 210.05 209.15 212.6 205.05 213.1 201.6 213.45 197.6 212.4 197.5 212.4 197.4 212.3 201.8 210.2 207.9 207
M 189.55 215.8
Q 186.85 218.85 180.7 221.05 171.25 224.55 165.1 222.85 178.25 220.25 189.55 215.8
M 126.25 116.5
L 124.25 116.15
Q 122 115.8 120.35 115.55 117.05 115.05 116.15 114.9 111 113.85 106 112.6 104.45 112.25 103.6 111.75 102.75 111.25 101.6 109.8 100.35 108.2 99.65 107.7 97.6 106.1 95.35 106.8 94.3 107.2 93.65 108 92.9 108.95 92.85 110.05 92.75 112 95 114.9 97.2 117.65 98.35 118.55 100.55 120.3 102.9 120.55 104.1 120.65 106.75 120.1 110.05 119.5 115.55 119.65 117.85 119.75 120.55 119.95 121.3 120 121.95 120.1 122.55 120.1 123.1 120.15 125.55 120.3 126.95 120.5 130.5 120.8 133.3 121.5 134.6 121.85 135.5 121.8 136.85 121.85 137.4 120.85 137.7 120.4 137.65 119.7 137.5 119.1 137.05 118.65 136.5 118 134.9 117.8
L 126.25 116.5
M 172.15 109.7
Q 172.15 109.8 172.2 109.8 173.15 110.3 174 110.75 173.9 110.55 173.95 110.35 173.6 108.2 173.7 105.3
L 170.9 103.65
Q 169.65 103.8 168.3 103.65 166.1 103.4 162.8 101.95 160.95 101.2 160.05 100.5 159.2 99.85 158.2 98.65 157.45 97.7 157.2 97.05 157 96.3 157.1 95.5
L 157.1 95.45
Q 155.25 94.2 154.05 93.25 151.25 91.05 148.7 88 147.65 86.6 147.05 86.1 146 85.1 144.95 84.8 143.3 84.3 141.7 85.5 140.25 86.8 140.35 88.5 140.1 89.4 139.65 90.85 138.35 94.95 134.15 100.35 130.05 105.85 125.4 110.65 127.7 111.1 129.5 111.75 130.15 112.05 130.85 112.3 131.1 112.45 131.35 112.5 137.45 106.35 142.5 99.65 144.4 97.1 145.35 95.35 145.7 94.8 145.95 94.2 154.95 99.15 172.15 109.7
M 159.1 145.4
Q 158.35 145.7 157.1 147.05 156.05 148.4 155.1 148.45 154.5 148.5 153.3 147.8 151.8 147.05 150.6 147.2 149.9 147.2 149.3 147.6 148.7 148 148.5 148.65 148.2 149.9 149.25 150.95 149.95 151.75 151.35 152.2 153.4 153 155.45 153.25 156.45 153.5 157.15 153.25 157.7 153 158.6 151.95 159.5 151.15 159.9 150.75 160.6 149.95 161.05 149.35 161.55 148.6 161.6 147.7 161.7 146.75 161.1 146.05 160.35 145.1 159.1 145.4
M 163.35 92.9
Q 162.75 93.3 162.4 93.85
L 164.15 92.55
Q 163.7 92.65 163.35 92.9
M 162.05 94.85
Q 161.85 96.1 162.65 97.2 163.8 98.45 165.85 98.5 166.75 98.5 169.3 97.95 171.9 97.45 176.55 97.4 177.65 97.6 178.6 97.8 178.55 97.9 178.5 98 178.15 98.8 178.3 100.65 178.55 104.7 179.1 108.45 179.35 110.15 179.65 111.85 179.75 112.45 179.85 113.1 179.95 113.5 180.1 114 180.6 116.15 181.3 117.65 181.9 118.7 183.7 121.05 185.5 123.15 186.65 123.85 189.05 125.3 191.75 124.55 194.4 123.8 195.75 121.3 195.95 120.95 196.05 120.55 196.35 119.9 196.55 119.15 196.65 118.75 196.7 118.45
L 197.65 115.05
Q 198.2 113.05 198.4 111.85 198.55 111 198.6 109.3 198.6 109.2 198.65 109.1 199.35 109.4 200.3 109.25 201.45 109.1 203.25 108.1 205.4 106.85 207.45 105 209.05 103.5 209.4 102.45 209.65 101.5 209.4 100.6 209.15 99.65 208.5 99 207.85 98.3 206.9 98.05 206 97.8 205.1 98.05 204.2 98.3 203.25 99.1 202.1 100.15 201.55 100.65 201.15 101 199.65 102.1 199.25 102.45 199 102.65 198.85 102.6 198.75 102.45 193.45 98.8 187.7 96.15 186.7 95.7 185.9 95.35 184.6 94.6 184 94.35 182.7 93.75 180.75 93.3 178.1 92.6 172.65 91.95 169.95 91.6 168.45 91.6 166.05 91.6 162.4 93.85 162.15 94.3 162.05 94.85 Z"/>

<path fill="#9999FF" stroke="none" d="
M 180.7 221.05
Q 186.85 218.85 189.55 215.8 178.25 220.25 165.1 222.85 171.25 224.55 180.7 221.05
M 211.2 204.35
Q 210.55 205.6 207.9 207 201.8 210.2 197.4 212.3 197.5 212.4 197.6 212.4 201.6 213.45 205.05 213.1 209.15 212.6 211.75 210.05 213.35 208.45 213.25 206.95 213.1 206.2 212.45 205.35 212.25 204.95 211.35 204.1 211.25 204.2 211.2 204.35
M 100.7 226.55
Q 100.2 227.35 100.5 227.9 100.75 228.6 102.05 228.75 109.95 229.8 117.15 226.2 117.25 226.15 117.4 226.1 110.7 225.9 103.1 225.45 102.35 225.4 101.65 225.35 100.95 226.05 100.7 226.55
M 125.05 226.45
Q 131.7 229.75 139.9 228.4 145.1 227.55 149.7 225.1 149 225.15 148.4 225.2 137.9 226.2 125.75 226.15 125.15 226.2 124.5 226.2 124.75 226.35 125.05 226.45
M 90.55 138.3
Q 90.35 138.4 90.15 138.55 88.65 139.75 88.2 140.85 87.75 141.9 88 143.15 88.25 144.3 89.05 145.15 89.85 145.95 91.05 146.25 92.2 146.55 93.3 146.2 94.1 145.95 95.45 145.1 95.7 144.9 96 144.7 98.4 143.15 100.95 142.2 101.15 142.65 101.35 143.6 101.75 144.8 103 145.5 104.2 146.2 105.55 146.15 106.7 146.1 108.3 145.45 109.3 145.05 110.45 144.35 112.55 143.1 113.3 142.3 113.75 141.85 115.2 139.95 116.3 138.5 117.25 137.85 117.9 137.4 117.8 137 117.65 136.6 116.95 136.7 113.4 136.9 108.75 137.4 108.9 136.4 108.4 135.45 107.9 134.5 107 133.9 106.3 133.45 105.5 133.2 104.35 132.9 103 133.05 101.6 133.2 99 134.2 96.45 135.2 93.65 136.55 91.85 137.4 90.55 138.3
M 215.6 132.15
Q 215.35 131.3 214.5 130.7 213.75 130.2 212.8 130.1 211.9 130.05 210.6 130.45 209.95 130.6 209.2 130.9 206.5 131.95 203.7 133.65 203.2 133.9 203 133.8 202.95 133.75 202.7 133.4 201.7 131.45 199.2 131 197.6 130.65 194.8 131.25 191.25 132 187.8 133.6 185.25 134.8 184.65 136.4 184.1 137.95 185.1 139.3 186.05 140.65 187.75 140.65 188.55 140.7 189.55 140.35 190.15 140.15 191.3 139.65 193.65 138.75 195.75 138.55 195.4 139.8 196.05 141.05 196.7 142.3 197.95 142.9 199.15 143.45 200.55 143.4 201.75 143.35 203.1 142.85 204.4 142.45 207.75 140.4 211.2 138.5 211.7 138.15 213.9 136.7 214.95 135.1 216 133.5 215.6 132.15 Z"/>

<path fill="#666699" stroke="none" d="
M 117.75 156.05
Q 117.2 157.15 116.7 157.85
L 115.6 159.55
Q 115.45 159.8 115.15 160.35 111.7 164.25 108.65 168.4 107.55 169.8 107 170.65 106.3 171.95 105.6 173.95 104.6 176.8 104.2 179.9 103.6 184.75 104.9 189.55 105.3 190.9 105.8 191.35 106.5 192.05 108.2 192.2 109.1 192.3 110 192.2 110.55 192.4 111.15 192.35 113.45 192.5 115.5 190.75 116.95 189.55 118.45 187.05 122.5 180 124.15 168.15 124.95 162.35 125.05 157.6 125.15 154.6 124.6 152.75 124.3 151.45 123.5 150.85 123.25 150.65 122.9 150.55 122.65 150.8 122.35 151
L 118.35 154.65 118.35 154.7 117.75 156.05
M 187.2 157.7
Q 185.9 156.15 184.65 154.95 183.15 153.55 181.75 152.65 181.7 154.6 181.65 156.4 181.5 161.1 181.55 164.8 181.6 169.1 181.9 172 182.9 182.75 187 190.25 189.25 194.05 191.55 195.8 193.15 196.9 194.5 196.95 196.05 197 197.7 195.9 199.7 194.7 200.75 192.35 202.15 189.35 201.35 184.35 199.25 172.65 190 161.05 188.7 159.35 187.2 157.7
M 213.25 125.25
Q 213.55 124.65 213.8 124
L 209.95 123.4
Q 202.85 122.25 200.45 121.7 200 121.6 199.5 121.5 199.95 120.75 200.3 120 198.45 119.6 196.55 119.15 196.35 119.9 196.05 120.55 195.95 120.95 195.75 121.3 194.4 123.8 191.75 124.55 189.05 125.3 186.65 123.85 185.5 123.15 183.7 121.05 181.9 118.7 181.3 117.65 180.6 116.15 180.1 114 179.95 113.5 179.85 113.1 175.9 111.15 175.4 110.9 174.6 110.65 173.95 110.35 173.9 110.55 174 110.75 173.15 110.3 172.2 109.8 172.15 109.8 172.15 109.7 154.95 99.15 145.95 94.2 145.7 94.8 145.35 95.35 144.4 97.1 142.5 99.65 137.45 106.35 131.35 112.5 131.1 112.45 130.85 112.3 128.55 114.4 126.25 116.5
L 134.9 117.8
Q 136.5 118 137.05 118.65 137.5 119.1 137.65 119.7 137.7 120.4 137.4 120.85 136.85 121.85 135.5 121.8 134.6 121.85 133.3 121.5 130.5 120.8 126.95 120.5 125.55 120.3 123.1 120.15 122.55 120.1 121.95 120.1 119.3 122.15 116.55 124.2 117 124.15 117.35 124.15 117.9 124.15 118.3 124.1 112.25 128.85 105.5 133.2 106.3 133.45 107 133.9 107.9 134.5 108.4 135.45 108.9 136.4 108.75 137.4 113.4 136.9 116.95 136.7 117.65 136.6 117.8 137 117.9 137.4 117.25 137.85 116.3 138.5 115.2 139.95 113.75 141.85 113.3 142.3 112.55 143.1 110.45 144.35 109.3 145.05 108.3 145.45 111 147.9 114.05 149.95 117.3 146.2 118.95 144.7 123 140.9 126.1 141.75 128.45 142.25 130 145.5 131.9 149.3 132.35 154.55 132.45 156.05 132.5 158 144.5 161.35 157.65 161.3 166.7 161.25 174.95 158.8 175 156.1 175.1 152.9 175.15 150.35 175.85 149.05 176.35 148.1 177.25 147.45 177.85 146.05 178.8 145.15 181 143.25 184.4 144.05 186.5 144.5 189.6 146.55 191.8 148 193.55 149.45 197.3 146.65 200.55 143.4 199.15 143.45 197.95 142.9 196.7 142.3 196.05 141.05 195.4 139.8 195.75 138.55 193.65 138.75 191.3 139.65 190.15 140.15 189.55 140.35 188.55 140.7 187.75 140.65 186.05 140.65 185.1 139.3 184.1 137.95 184.65 136.4 185.25 134.8 187.8 133.6 191.25 132 194.8 131.25 197.6 130.65 199.2 131 201.7 131.45 202.7 133.4 202.95 133.75 203 133.8 203.2 133.9 203.7 133.65 206.5 131.95 209.2 130.9 209.95 130.6 210.6 130.45 211.95 128.15 213.15 125.7 213.25 125.55 213.35 125.3 213.25 125.3 213.25 125.25
M 157.1 147.05
Q 158.35 145.7 159.1 145.4 160.35 145.1 161.1 146.05 161.7 146.75 161.6 147.7 161.55 148.6 161.05 149.35 160.6 149.95 159.9 150.75 159.5 151.15 158.6 151.95 157.7 153 157.15 153.25 156.45 153.5 155.45 153.25 153.4 153 151.35 152.2 149.95 151.75 149.25 150.95 148.2 149.9 148.5 148.65 148.7 148 149.3 147.6 149.9 147.2 150.6 147.2 151.8 147.05 153.3 147.8 154.5 148.5 155.1 148.45 156.05 148.4 157.1 147.05 Z"/>

<path fill="#CCFF66" stroke="none" d="
M 175 166.75
Q 171.85 167.5 168.6 167.95 150.7 170.55 133.35 166.75 132.7 166.65 132.1 166.55 132.05 167 132 167.6 132.3 169.55 131.5 172.3 131.3 173 131.1 173.7 130.5 176.6 129.7 179 127.8 185.05 123.5 192 121.4 195.4 119.65 197.05 119.05 197.6 118.35 198.15 115.2 202.85 110.2 209.8 110.35 209.9 110.55 209.95 110.15 211.05 109.4 212.4 109.25 212.8 108 214.8 107.15 216.3 106.6 217.3 109.55 218.6 114.15 219.4 134.1 223 160.75 218.5 172.25 216.5 180.95 213.65 191.6 210.2 199.75 204.95 202.2 203.45 202.9 202 202.9 201.8 203.05 201.35 201 202.9 198.45 203.7 194.75 204.85 191.5 203.8 187.2 202.5 183.45 197.3 177.5 188.9 175.7 176.05 175.1 171.8 175 166.75
M 123.35 48.15
Q 123.35 48.05 123.3 48 120.9 44.55 117 41.2 114.4 39 109.45 35.6 102.8 31.05 99.3 29.5 90.8 25.8 77.5 26.05 63.25 26.25 51.85 29.95 38.55 34.3 29.75 43.05 24.1 48.8 18.95 58.05 10 74.15 9.3 88.3 8.85 95.75 10.8 103.3 12.6 110.7 16.4 117.35 20.25 123.95 25.8 129.4 31.25 134.8 37.9 138.55 45.55 142.85 53.95 144.8 55.65 145.25 56.25 145.45 57.5 145.9 58.2 146.75 59.05 147.75 58.95 149.35 58.95 150.85 58.1 151.95 57.05 153.65 53.9 155.55
L 47.25 159.7
Q 55.05 165.9 69.4 165.7 79.45 165.5 88.05 162.55 96.9 159.55 102.9 153.75 103.05 153.65 103.25 153.55
L 103.1 153.35
Q 102.2 152.3 101.7 151.3 98.25 148.4 95.45 145.1 94.1 145.95 93.3 146.2 92.2 146.55 91.05 146.25 89.85 145.95 89.05 145.15 88.25 144.3 88 143.15 87.75 141.9 88.2 140.85 88.65 139.75 90.15 138.55 90.35 138.4 90.55 138.3 87.85 133.9 86.15 128.9 85.05 126.2 84.3 123.25 82.35 116.5 81.65 109.45 81.55 108.6 81.5 107.7 79.5 96.55 83.05 86.45 84.7 81.55 87.7 76.95 96.75 62.85 111.45 53.9 117.2 50.45 123.35 48.15
M 162.65 97.2
Q 161.85 96.1 162.05 94.85 162.15 94.3 162.4 93.85 162.75 93.3 163.35 92.9 163.7 92.65 164.15 92.55
L 162.4 93.85
Q 166.05 91.6 168.45 91.6 169.95 91.6 172.65 91.95 178.1 92.6 180.75 93.3 182.7 93.75 184 94.35 184.6 94.6 185.9 95.35 186.7 95.7 187.7 96.15 193.45 98.8 198.75 102.45 198.85 102.6 199 102.65 199.25 102.45 199.65 102.1 201.15 101 201.55 100.65 202.1 100.15 203.25 99.1 204.2 98.3 205.1 98.05 206 97.8 206.9 98.05 207.85 98.3 208.5 99 209.15 99.65 209.4 100.6 209.65 101.5 209.4 102.45 209.05 103.5 207.45 105 205.4 106.85 203.25 108.1 201.45 109.1 200.3 109.25 199.35 109.4 198.65 109.1 198.6 109.2 198.6 109.3 198.55 111 198.4 111.85 198.2 113.05 197.65 115.05
L 196.7 118.45
Q 196.65 118.75 196.55 119.15 198.45 119.6 200.3 120 200.95 118.65 201.35 117.35 202.25 117.55 203.2 117.8 207.85 118.7 215.2 119.75 218.5 107.85 214.45 94.6 209.3 77.7 194.6 67.05 180.75 56.9 163.6 53.1 146.25 49.25 129.55 54.65 113.4 59.95 101.85 71.7 93.05 82 90.75 94.4 90.15 97.15 90.05 100.1 90 100.55 89.95 100.9 89.95 101.5 89.95 102.1 89.9 104.35 90 106.7 90.65 117.4 95.55 127.25 95.6 127.85 95.65 128.5 95.65 128.45 95.65 128.4 95.65 127.7 95.6 127.05 96.45 129.15 97.5 131.25 104.1 128 110.25 123.65 110.35 123.7 110.5 123.7 114.3 124.15 116.55 124.2 119.3 122.15 121.95 120.1 121.3 120 120.55 119.95 117.85 119.75 115.55 119.65 110.05 119.5 106.75 120.1 104.1 120.65 102.9 120.55 100.55 120.3 98.35 118.55 97.2 117.65 95 114.9 92.75 112 92.85 110.05 92.9 108.95 93.65 108 94.3 107.2 95.35 106.8 97.6 106.1 99.65 107.7 100.35 108.2 101.6 109.8 102.75 111.25 103.6 111.75 104.45 112.25 106 112.6 111 113.85 116.15 114.9 117.05 115.05 120.35 115.55 122 115.8 124.25 116.15
L 126.25 116.5
Q 128.55 114.4 130.85 112.3 130.15 112.05 129.5 111.75 127.7 111.1 125.4 110.65 130.05 105.85 134.15 100.35 138.35 94.95 139.65 90.85 140.1 89.4 140.35 88.5 140.25 86.8 141.7 85.5 143.3 84.3 144.95 84.8 146 85.1 147.05 86.1 147.65 86.6 148.7 88 151.25 91.05 154.05 93.25 155.25 94.2 157.1 95.45
L 157.1 95.5
Q 157 96.3 157.2 97.05 157.45 97.7 158.2 98.65 159.2 99.85 160.05 100.5 160.95 101.2 162.8 101.95 166.1 103.4 168.3 103.65 169.65 103.8 170.9 103.65
L 173.7 105.3
Q 173.6 108.2 173.95 110.35 174.6 110.65 175.4 110.9 175.9 111.15 179.85 113.1 179.75 112.45 179.65 111.85 179.35 110.15 179.1 108.45 178.55 104.7 178.3 100.65 178.15 98.8 178.5 98 178.55 97.9 178.6 97.8 177.65 97.6 176.55 97.4 171.9 97.45 169.3 97.95 166.75 98.5 165.85 98.5 163.8 98.45 162.65 97.2
M 268.15 37.55
Q 261.6 28.8 252.65 22.55 243.95 16.45 233.45 13.05 223.2 9.7 212.35 9.25 195.3 8.4 183.8 12.7 172.25 17 165.45 26.6 158.65 36.2 157.75 39.6 156.85 42.95 156.45 43.65 169.75 45.15 176.9 47.7 194.45 53.75 207.35 66.2 220.15 78.6 223.8 95.35 226.9 109.7 222.55 123.4 222.7 123.35 222.9 123.3 222.2 125.25 221.4 127.1 214.25 143.4 200.1 154.55 199.6 154.85 199.15 155.25 199.9 155.45 200.75 155.95 214.1 162.1 228.7 162.05 240.45 162.05 251.9 157.85 263.95 153.55 267 145.8
L 258.1 145.55
Q 254.4 145.55 252.45 145.2 249.3 144.65 247.2 143.3 245 141.95 244.15 139.8 243.75 138.7 243.9 137.45 244.1 136.25 244.85 135.4 245.5 134.75 246.65 134.25 247.05 134.05 248.8 133.6 257.45 131.15 264.35 123.3 269.8 117 273.95 107 279.15 94.6 280.3 82.2 281.6 68.6 278 56.7 274.9 46.45 268.15 37.55 Z"/>
</g>
</defs>

<g transform="matrix( 1, 0, 0, 1, 4.3,27.1) ">
<g transform="matrix( 1, 0, 0, 1, 0,0) ">
<use xlink:href="#nori_0_Layer1_0_FILL"/>
</g>

<g transform="matrix( 1, 0, 0, 1, 0,0) ">
<use xlink:href="#nori_0_Layer0_0_FILL"/>
</g>
</g>
</svg>
