
<svg xmlns="http://www.w3.org/2000/svg" version="1.1" xmlns:xlink="http://www.w3.org/1999/xlink" preserveAspectRatio="none" x="0px" y="0px" width="150px" height="150px" viewBox="0 0 150 150">
<defs>
<g id="Layer0_0_FILL">
<path fill="#FFFFFF" stroke="none" d="
M 75.45 104.8
Q 75.5 105.2 75.8 105.8 76.05 106.35 76.4 106.7 77.25 107.4 78.25 106.9 79.2 106.3 79.05 105.25 79.45 105.25 80.05 105.75
L 81.5 106.9 81.85 107.7
Q 82.1 108.25 82.7 108.5 83.25 108.75 83.85 108.65 84.4 108.55 84.85 108.05 85.25 107.55 85.3 107 85.3 106.35 85 105.65 84.95 105.3 84.65 104.95 84.4 104.55 83.75 104.2 81.35 102.55 79.55 102.2 78 101.85 76.8 102.5 75.3 103.3 75.45 104.8
M 18.05 76.1
Q 17.95 77.75 19.2 79.65 20.85 82 23.4 83.5 26.3 85.05 28.2 83.9 29 83.4 29.55 82.4 29.8 82 30.45 80.5 32.8 75.05 37.4 71.15 39.7 69.25 41.5 68.9 39.8 70.5 39.6 73.8 39.2 79.6 42.65 84.2 44.1 86.2 45.75 87.1 47.85 88.25 50.5 88 52.95 87.7 55.15 86.3 58.8 84 59.65 80.4 60.1 78.35 59.6 75.7 58.85 71.5 56.25 68.15 53.55 64.7 49.75 63.3 46.55 62.15 42.85 62.6 39.3 63.05 36.15 64.85 30.5 68.1 26.55 74.95 26.25 75.55 25.9 75.55 25.45 75.55 25.2 75.1 23.8 73.6 22.85 73.25 21.3 72.55 19.75 73.45 18.3 74.35 18.05 76.1
M 109.95 91
Q 107.05 90.2 105.55 90.35 102.9 90.55 101.85 92.45 101.3 93.45 101.2 95.35 101.05 98.2 101.35 102.85 101.6 105.35 89.1 108.25 76.55 111.15 71 108.8 69.95 104.8 67.9 101.45 66.4 99 64.55 98.5 63.45 98.2 61.5 98.7 59.85 99.15 58.9 99.9 58.1 100.55 56.95 102.2 56.2 103.15 54.4 104.85 53.55 105.75 52.5 107.1 52.2 107 51.9 106.9 46.4 105.25 42 102.6 37 99.5 34 95.45 33.7 95 33.45 94.7 37.1 92.15 40.2 88.75
L 40.85 87.9
Q 41.45 86.75 40.95 85.7 40.4 84.55 39.25 84.45 38.1 84.4 37.1 85.35 37.05 85.4 35.55 87.2 34.65 88.1 33.85 88.7
L 30.45 91.55
Q 28.1 93.55 27.6 94 26.75 94.95 26.65 95.5 26.55 96.35 27.3 96.85 28.05 97.3 29.15 96.95
L 29.2 96.95
Q 29.3 97.15 29.45 97.4 30.65 99.25 32.75 101.1 34.05 102.2 36.8 104.15 41.1 107.05 43.4 108.25 46.1 109.6 49.85 110.9 47.55 114.25 46.75 116.05 44.7 120.7 44.95 126.9 45 128.95 45.4 130.55 45.1 130.6 44.75 130.7
L 40.2 131.9
Q 39.15 132.2 38.35 132.55 37.9 132.35 37.45 132.15 32.4 130.35 27.5 132.35 24.7 133.45 24 135.45 23.4 137.05 24.35 138.9 25.15 140.5 26.8 141.65 30.5 144.2 35.05 143.55 33.7 145.85 34.2 148.75 34.7 151.55 36.7 153.45 38.55 155.3 41.35 155.95 44 156.6 46.75 156 47.25 159.4 49.8 161.95 52.4 164.5 55.7 164.7 57.6 164.8 59.8 164.05 61.3 163.55 63.75 162.35 65 166.7 67.85 168.4 69.7 169.45 72.85 169.55 75.85 169.6 78.3 168.7 81.05 167.65 82.55 165.55 85.4 168.1 89.5 168.4 93.6 168.7 96.85 166.65 98.5 165.6 101.15 162.75 102.65 161.15 103.35 160.25 104.45 158.8 104.9 157.45 105.4 155.9 105.25 154.4 105.05 152.9 104.4 152 104.9 150.6 105.2 148.85 106.15 143.65 106.15 137.15 106.15 134.25 105.9 129.95 106.05 130.2 106.2 130.45 106.75 130.55 107.5 130.7
L 110 131.35
Q 109.95 131.1 109.9 130.85 110.15 130.9 110.35 130.95 113.75 131.9 116.85 130.6 119.65 129.4 121.65 126.6 123.45 124 124.1 120.7 125.05 115.85 123.35 108.1 122.15 102.55 120.6 99.5 119.85 98 118.95 96.8 119.8 96.5 120.7 95.75 123.15 93.85 124.6 91.3 124.9 90.8 125.8 88.85 127.25 85.65 127.8 84.15 128.75 81.45 129 79.2 129.1 77.75 128.9 77.05 128.75 76.45 128.05 75.35 127.4 74.6 127 74.45 126.3 74.25 125.6 74.85 125.2 75.25 124.8 76.15 124.45 76.9 122.3 82.5 120.8 86.35 119.4 88.65 118.5 90.05 117.9 90.65 117.1 91.4 116.7 91.8 115.95 92.5 115.65 93.1 115.6 93.25 115.55 93.4 115.1 93.1 114.65 92.85 112.9 91.85 109.95 91
M 106.1 95.45
Q 108.35 95.75 110.5 96.6 112.75 97.55 113.85 98.65 115.25 100 116.5 103.05 118.25 107.55 118.95 111.85 119.35 114.1 119.35 116.1 119.35 119.25 118.2 122.15 117.4 124.25 116.15 125.3 114.7 126.5 112.7 126.35 110.7 126.25 109.35 124.9 108.25 123.8 107.3 121.2 106.7 119.35 106.55 118.3 106.4 117.25 106.4 115.7
L 106.4 113.05
Q 106.05 109.15 105.95 107.2
L 106.1 95.45
M 62.6 103.15
Q 62.95 103.25 63.25 103.8 67 109.95 67.1 117.15 67.15 118.05 67 119.2 66.8 120.95 65.65 123.65 64.8 125.8 64.15 126.9 63.1 128.65 61.85 129.6 59.15 131.8 53.15 131.5 52.1 131.4 51.75 131.2 50.55 130.6 50.35 128.25 49.95 123.15 51.35 119.3 52.2 117 54.7 113.25
L 56.6 110.5
Q 58.2 108.65 58.9 107.65 60.5 104.9 61.55 103.7 62.05 103.1 62.6 103.15
M 73.15 115.05
Q 74.05 115.25 78.4 114.05 82.7 112.85 88.45 112.1 94.2 111.35 97.95 110.5 99.1 114.2 100.45 117.5 100.5 117.6 100.55 117.75 102.3 132.2 100.4 146.75 100 149.8 98.7 150.75 98.15 151.15 96.9 151.75 96.55 152 96.2 152.45 92.5 154.85 88.7 156
L 87.45 156.15
Q 77.85 157.55 72.8 156.8 68.1 156.1 61.4 153.15 54.35 150.2 50.15 147.1 44.4 142.8 42.25 137.25 43 136.5 44.5 136.15 45.35 135.9 47.1 135.6 47.65 135.45 48.2 135.25 48.45 135.45 48.8 135.65 50.45 136.65 53.9 136.75 57.45 136.75 59.9 136 63.2 135 65.9 132.5 68.5 130.05 70.05 126.75 72.3 121.85 72.05 115.8 72.45 115.65 72.85 115.3 72.95 115.25 73.15 115.05
M 32.75 136.55
Q 33.05 136.6 34.9 136.85 35.45 136.95 35.9 137 36.1 137.95 36.75 139.15 36.95 139.55 37.2 139.9 37 139.85 36.8 139.85
L 33.95 139.85
Q 30.75 139.7 28.65 137.5 30.05 136.25 32.75 136.55
M 39.2 143.7
Q 39.3 143.45 39.35 143.25 40.95 145.45 42.8 147.35 44.85 149.45 47.4 151.35 47 151.45 46.5 151.65 45.65 151.95 45.25 152.05 42.35 152.95 40.05 151.15 39 150.3 38.5 149 37.95 147.65 38.25 146.35 38.9 144.6 39.2 143.7
M 68.3 162.1
Q 68.25 161.55 68.2 161.1 69.95 161.5 71.7 161.75 76.35 162.45 80.7 162.15 80.35 162.55 79.8 163.5 79.2 164.45 78.85 164.85 77.75 166.15 76.05 166.7 74.35 167.2 72.7 166.8 71.05 166.35 69.85 165.05 68.65 163.8 68.3 162.1
M 50.8 155.7
Q 50.9 154.45 50.85 153.75 52.8 154.95 55 156.1 58.7 158.05 62.3 159.35 59.25 161.6 55.85 161.05 53.85 160.7 52.4 159.2 50.85 157.65 50.8 155.7
M 101.35 155.95
L 101.35 156.2
Q 101.15 156.15 100.95 156.15 101.15 156.05 101.35 155.95
M 98.85 157.45
Q 98.5 158 98.25 158.85 98.1 159.35 97.85 160.3 97.35 161.95 96.25 163.2 95.1 164.55 93.6 165 91.9 165.55 90 164.9 88.25 164.3 86.85 162.95 85.5 161.6 85.3 161.45 85.75 161.3 86.25 161.2 88.15 161.05 90.15 160.5 95.55 159.15 99.45 156.65 99.55 156.6 99.65 156.6 99.15 156.9 98.85 157.45
M 90.85 67.3
Q 90.65 66.2 89.85 65.25 89.4 64.7 87.15 63.05 86.35 62.4 84.85 60.9 82 58 80.65 56.45 78.65 54.2 77.4 52.1 77.45 51.85 77.45 51.55 77.5 50.75 77.1 50.05 76.7 49.3 75.95 49.05 74.8 48.65 73.05 49.6 69.6 51.45 64.2 56.75 59.95 61 58.75 63.95 58.05 65.5 58.5 66.5 58.8 67.35 59.8 67.65 60.75 68 61.5 67.45 61.85 67.25 62.2 66.75 62.55 66.2 62.75 65.9 63.35 65.05 64.5 64 67.35 61.2 72 57.05 73 56.05 73.9 55.55 74.65 56.8 75.85 58.2 80.55 63.95 85.25 67 86.9 68.05 87.7 68.25 89.15 68.7 90.35 68.25 90.75 68 90.8 67.9 90.85 67.85 90.85 67.3
M 111.05 70.9
Q 109.9 71.85 108.7 72.5 104.55 74.75 96.6 74.15 95.15 74.05 94.5 73.75 93.3 72.85 92.6 72.55 91.8 72.2 90.9 72.4 90 72.65 89.45 73.35 88.75 74.3 89 75.6 89.15 76.8 90 77.8 92 80.15 97 80.45 101.15 80.75 105.4 80.05 107.4 79.75 109.15 79.15 110.85 78.55 113.1 77.1 115.15 75.7 118.95 72.5 119.55 72 120 71.55 120.75 71.8 121.3 71.9 122.35 72.15 124.45 72.15 126.1 72.15 126.9 71.9 128.05 71.55 128.75 70.5 129.5 69.45 129.45 68.3 129.45 67.1 128.7 66.1 128 65.1 126.85 64.75 126.1 64.5 124.95 64.5 123.2 64.5 121.45 64.65 120.25 64.75 119.3 65 118.7 65.15 118.2 65.5 118.1 65.5 118.05 65.5 117.1 65.7 115.25 67.35 113.2 69.35 111.05 70.9
M 122.85 46.4
Q 124.35 45.65 123.9 43.1 123.35 39.65 120.75 35.9 117.55 31.3 112.6 27.8 108.15 24.65 102.7 22.75 90.15 19.4 79.4 19.9 57.95 20.85 43.65 31.1 37.5 35.55 32.95 41.65 28.3 47.8 25.8 54.9 24.5 58.55 25.3 60.6 25.6 61.3 26.05 61.5 27.2 61.95 27.95 59.75 30.6 51.15 36.35 44 42.1 36.8 49.9 32.3 63.85 24.2 84.2 24.55 96.45 24.8 104.5 28.4 109.45 30.65 113.15 34.2 117.05 38.05 118.75 42.8 119.55 44.95 120.1 45.6 120.6 46.25 121.4 46.5 122.2 46.75 122.85 46.4
M 175.6 28.05
Q 172.4 18.85 165.5 11.9 158.5 5 148.6 1.45 138.6 -2.15 128.4 -1.25 124 -0.95 118.9 0.45 111.95 2.25 106.7 5.4 100.7 9 97.6 13.9 95.45 17.2 96.15 19.7 96.2 19.9 97.6 20.4 97.8 20.2 97.95 19.95 102 14.45 108 10.5 114 6.5 121 4.75 128.05 3 135.4 3.65 142.8 4.4 149.25 7.35 156 10.55 161.2 16.2 166.15 21.65 168.7 28.35 171.2 34.9 171.15 42.15 171.05 49.2 168.55 55.95 167.45 59.1 165.95 61.5 163.9 64.85 160.3 68.3 157.9 70.55 153.3 74.25
L 148.1 78.4
Q 147.95 78.4 147.8 78.45 146.95 78.65 146.5 79.4 146.35 79.65 146.25 79.95 145.55 80.6 145.95 81.1 146.05 81.1 146.2 81.1 146.5 82.55 148.2 83.5 149.35 84.15 151.45 84.6
L 154.4 85.35
Q 152.85 90.05 148.2 93.6 144.1 96.65 138.25 98.15 134.95 99.1 134.75 99.15 133.75 99.6 132.3 100.7
L 131.9 101.1
Q 131.85 101.5 132.25 101.95 133.3 103.3 134.1 103.65 135.35 104.25 137.65 103.85 145.5 102.7 151.35 98.45 157.7 94 160.1 87.5 160.8 85.85 160.7 84.35 160.6 82.5 159.2 81.5 158.5 80.95 157.2 80.75 156.85 80.7 155.05 80.5 154.55 80.45 154.05 80.35 155.8 79.6 157.65 78.2 165.8 72.45 171.05 64.15 176.3 55.75 177.55 46.5 178.7 37.2 175.6 28.05
M -18.25 40.95
Q -15.9 34.5 -10.55 29.25 -5.5 24.35 1.25 21.4 12.4 16.5 28.95 16.85 35.05 17.05 38.9 18.1 44.2 19.5 47.5 22.95 49.55 25.1 50.75 24.55 51.8 24.1 51.7 22.6 51.6 21.75 50.7 20.55 48.15 16.95 44.75 15 41 12.75 33.95 11.75 22.45 10.15 11.65 12.15 0.05 14.35 -8.95 20.35 -19.5 27.4 -23.35 37.2 -25.45 42.55 -26.25 52.55 -27.1 63.75 -25.75 71 -24.45 77.7 -20.95 83.95 -17.5 89.9 -12.45 94.8 -6.3 100.5 0.2 103 0.1 103 0.1 103.05 -0.9 104.4 -3.95 106.7 -7.05 108.9 -7.1 110.95 -7.15 112.85 -4.35 115.35 -1.7 117.65 -0.2 118.5 2.15 119.75 5.95 120.45 15.5 122 24.55 119.85 29.15 118.7 31.15 116.55 31.85 115.7 32.15 115.3 32.75 114.5 33.25 114.15 34.1 113.4 33.95 113 33.7 112.5 32.5 113 31.85 113.3 30.9 113.35 29.85 113.3 29.3 113.3 27.85 113.3 24.1 114.05 16.85 115.5 9.45 114.85 2.75 114.35 0 111.2
L 4.45 107.2
Q 6.25 105.65 6.9 104.55 7.2 104 7.4 103.45 7.55 103.25 7.75 103.05 8.3 102.1 7.9 100.9 7.45 99.7 6.45 99 5.65 98.4 4.35 98.05 2.8 97.65 2.05 97.4 -1.55 96.25 -6.15 92.2 -14.35 85.25 -17.5 78.45 -19.85 73.55 -20.45 67.05 -20.95 62.25 -20.55 55.1 -20.05 46 -18.25 40.95 Z"/>
</g>
</defs>

<g transform="matrix( 1, 0, 0, 1, 0,0) ">
<use xlink:href="#Layer0_0_FILL"/>
</g>
</svg>
